%TF.GenerationSoftware,KiCad,Pcbnew,5.1.9-73d0e3b20d~88~ubuntu20.04.1*%
%TF.CreationDate,2021-05-01T11:52:03+02:00*%
%TF.ProjectId,anna_elsa_credit_display,616e6e61-5f65-46c7-9361-5f6372656469,rev?*%
%TF.SameCoordinates,Original*%
%TF.FileFunction,Legend,Top*%
%TF.FilePolarity,Positive*%
%FSLAX46Y46*%
G04 Gerber Fmt 4.6, Leading zero omitted, Abs format (unit mm)*
G04 Created by KiCad (PCBNEW 5.1.9-73d0e3b20d~88~ubuntu20.04.1) date 2021-05-01 11:52:03*
%MOMM*%
%LPD*%
G01*
G04 APERTURE LIST*
%ADD10C,0.120000*%
%ADD11C,0.254000*%
%ADD12C,1.016000*%
%ADD13C,0.150000*%
%ADD14C,0.015000*%
G04 APERTURE END LIST*
D10*
%TO.C,JP6*%
X118856000Y-63010000D02*
X116856000Y-63010000D01*
X118856000Y-60210000D02*
X118856000Y-63010000D01*
X116856000Y-60210000D02*
X118856000Y-60210000D01*
X116856000Y-63010000D02*
X116856000Y-60210000D01*
%TO.C,JP5*%
X121396000Y-63010000D02*
X119396000Y-63010000D01*
X121396000Y-60210000D02*
X121396000Y-63010000D01*
X119396000Y-60210000D02*
X121396000Y-60210000D01*
X119396000Y-63010000D02*
X119396000Y-60210000D01*
%TO.C,JP4*%
X123936000Y-63010000D02*
X121936000Y-63010000D01*
X123936000Y-60210000D02*
X123936000Y-63010000D01*
X121936000Y-60210000D02*
X123936000Y-60210000D01*
X121936000Y-63010000D02*
X121936000Y-60210000D01*
%TO.C,JP3*%
X127746000Y-62980000D02*
X125746000Y-62980000D01*
X127746000Y-60180000D02*
X127746000Y-62980000D01*
X125746000Y-60180000D02*
X127746000Y-60180000D01*
X125746000Y-62980000D02*
X125746000Y-60180000D01*
%TO.C,JP2*%
X130540000Y-63010000D02*
X128540000Y-63010000D01*
X130540000Y-60210000D02*
X130540000Y-63010000D01*
X128540000Y-60210000D02*
X130540000Y-60210000D01*
X128540000Y-63010000D02*
X128540000Y-60210000D01*
%TO.C,JP1*%
X131334000Y-60210000D02*
X133334000Y-60210000D01*
X131334000Y-63010000D02*
X131334000Y-60210000D01*
X133334000Y-63010000D02*
X131334000Y-63010000D01*
X133334000Y-60210000D02*
X133334000Y-63010000D01*
D11*
%TO.C,D4*%
X132050000Y-53350000D02*
X134590000Y-53350000D01*
X134590000Y-53350000D02*
X134590000Y-54620000D01*
D12*
X137130000Y-41920000D02*
X139670000Y-41920000D01*
X137130000Y-47000000D02*
X139670000Y-47000000D01*
X137130000Y-52080000D02*
X139670000Y-52080000D01*
X142718000Y-52080000D02*
G75*
G03*
X142718000Y-52080000I-508000J0D01*
G01*
D11*
%TO.C,D1*%
X93880000Y-53340000D02*
X96420000Y-53340000D01*
X96420000Y-53340000D02*
X96420000Y-54610000D01*
D12*
X98960000Y-41910000D02*
X101500000Y-41910000D01*
X98960000Y-46990000D02*
X101500000Y-46990000D01*
X98960000Y-52070000D02*
X101500000Y-52070000D01*
X104548000Y-52070000D02*
G75*
G03*
X104548000Y-52070000I-508000J0D01*
G01*
D11*
%TO.C,D10*%
X144850000Y-85550000D02*
X147390000Y-85550000D01*
X147390000Y-85550000D02*
X147390000Y-86820000D01*
D12*
X149930000Y-74120000D02*
X152470000Y-74120000D01*
X149930000Y-79200000D02*
X152470000Y-79200000D01*
X149930000Y-84280000D02*
X152470000Y-84280000D01*
X155518000Y-84280000D02*
G75*
G03*
X155518000Y-84280000I-508000J0D01*
G01*
D11*
%TO.C,D5*%
X144750000Y-53350000D02*
X147290000Y-53350000D01*
X147290000Y-53350000D02*
X147290000Y-54620000D01*
D12*
X149830000Y-41920000D02*
X152370000Y-41920000D01*
X149830000Y-47000000D02*
X152370000Y-47000000D01*
X149830000Y-52080000D02*
X152370000Y-52080000D01*
X155418000Y-52080000D02*
G75*
G03*
X155418000Y-52080000I-508000J0D01*
G01*
D11*
%TO.C,D9*%
X132150000Y-85550000D02*
X134690000Y-85550000D01*
X134690000Y-85550000D02*
X134690000Y-86820000D01*
D12*
X137230000Y-74120000D02*
X139770000Y-74120000D01*
X137230000Y-79200000D02*
X139770000Y-79200000D01*
X137230000Y-84280000D02*
X139770000Y-84280000D01*
X142818000Y-84280000D02*
G75*
G03*
X142818000Y-84280000I-508000J0D01*
G01*
D11*
%TO.C,D8*%
X119450000Y-85550000D02*
X121990000Y-85550000D01*
X121990000Y-85550000D02*
X121990000Y-86820000D01*
D12*
X124530000Y-74120000D02*
X127070000Y-74120000D01*
X124530000Y-79200000D02*
X127070000Y-79200000D01*
X124530000Y-84280000D02*
X127070000Y-84280000D01*
X130118000Y-84280000D02*
G75*
G03*
X130118000Y-84280000I-508000J0D01*
G01*
D11*
%TO.C,D3*%
X119350000Y-53350000D02*
X121890000Y-53350000D01*
X121890000Y-53350000D02*
X121890000Y-54620000D01*
D12*
X124430000Y-41920000D02*
X126970000Y-41920000D01*
X124430000Y-47000000D02*
X126970000Y-47000000D01*
X124430000Y-52080000D02*
X126970000Y-52080000D01*
X130018000Y-52080000D02*
G75*
G03*
X130018000Y-52080000I-508000J0D01*
G01*
D11*
%TO.C,D7*%
X106650000Y-85550000D02*
X109190000Y-85550000D01*
X109190000Y-85550000D02*
X109190000Y-86820000D01*
D12*
X111730000Y-74120000D02*
X114270000Y-74120000D01*
X111730000Y-79200000D02*
X114270000Y-79200000D01*
X111730000Y-84280000D02*
X114270000Y-84280000D01*
X117318000Y-84280000D02*
G75*
G03*
X117318000Y-84280000I-508000J0D01*
G01*
D11*
%TO.C,D2*%
X106650000Y-53350000D02*
X109190000Y-53350000D01*
X109190000Y-53350000D02*
X109190000Y-54620000D01*
D12*
X111730000Y-41920000D02*
X114270000Y-41920000D01*
X111730000Y-47000000D02*
X114270000Y-47000000D01*
X111730000Y-52080000D02*
X114270000Y-52080000D01*
X117318000Y-52080000D02*
G75*
G03*
X117318000Y-52080000I-508000J0D01*
G01*
D11*
%TO.C,D6*%
X93950000Y-85550000D02*
X96490000Y-85550000D01*
X96490000Y-85550000D02*
X96490000Y-86820000D01*
D12*
X99030000Y-74120000D02*
X101570000Y-74120000D01*
X99030000Y-79200000D02*
X101570000Y-79200000D01*
X99030000Y-84280000D02*
X101570000Y-84280000D01*
X104618000Y-84280000D02*
G75*
G03*
X104618000Y-84280000I-508000J0D01*
G01*
%TO.C,JP6*%
D13*
X116546380Y-65999333D02*
X117260666Y-65999333D01*
X117403523Y-66046952D01*
X117498761Y-66142190D01*
X117546380Y-66285047D01*
X117546380Y-66380285D01*
X117546380Y-65523142D02*
X116546380Y-65523142D01*
X116546380Y-65142190D01*
X116594000Y-65046952D01*
X116641619Y-64999333D01*
X116736857Y-64951714D01*
X116879714Y-64951714D01*
X116974952Y-64999333D01*
X117022571Y-65046952D01*
X117070190Y-65142190D01*
X117070190Y-65523142D01*
X116546380Y-64094571D02*
X116546380Y-64285047D01*
X116594000Y-64380285D01*
X116641619Y-64427904D01*
X116784476Y-64523142D01*
X116974952Y-64570761D01*
X117355904Y-64570761D01*
X117451142Y-64523142D01*
X117498761Y-64475523D01*
X117546380Y-64380285D01*
X117546380Y-64189809D01*
X117498761Y-64094571D01*
X117451142Y-64046952D01*
X117355904Y-63999333D01*
X117117809Y-63999333D01*
X117022571Y-64046952D01*
X116974952Y-64094571D01*
X116927333Y-64189809D01*
X116927333Y-64380285D01*
X116974952Y-64475523D01*
X117022571Y-64523142D01*
X117117809Y-64570761D01*
%TO.C,JP5*%
X118832380Y-66111333D02*
X119546666Y-66111333D01*
X119689523Y-66158952D01*
X119784761Y-66254190D01*
X119832380Y-66397047D01*
X119832380Y-66492285D01*
X119832380Y-65635142D02*
X118832380Y-65635142D01*
X118832380Y-65254190D01*
X118880000Y-65158952D01*
X118927619Y-65111333D01*
X119022857Y-65063714D01*
X119165714Y-65063714D01*
X119260952Y-65111333D01*
X119308571Y-65158952D01*
X119356190Y-65254190D01*
X119356190Y-65635142D01*
X118832380Y-64158952D02*
X118832380Y-64635142D01*
X119308571Y-64682761D01*
X119260952Y-64635142D01*
X119213333Y-64539904D01*
X119213333Y-64301809D01*
X119260952Y-64206571D01*
X119308571Y-64158952D01*
X119403809Y-64111333D01*
X119641904Y-64111333D01*
X119737142Y-64158952D01*
X119784761Y-64206571D01*
X119832380Y-64301809D01*
X119832380Y-64539904D01*
X119784761Y-64635142D01*
X119737142Y-64682761D01*
%TO.C,JP4*%
X121372380Y-66111333D02*
X122086666Y-66111333D01*
X122229523Y-66158952D01*
X122324761Y-66254190D01*
X122372380Y-66397047D01*
X122372380Y-66492285D01*
X122372380Y-65635142D02*
X121372380Y-65635142D01*
X121372380Y-65254190D01*
X121420000Y-65158952D01*
X121467619Y-65111333D01*
X121562857Y-65063714D01*
X121705714Y-65063714D01*
X121800952Y-65111333D01*
X121848571Y-65158952D01*
X121896190Y-65254190D01*
X121896190Y-65635142D01*
X121705714Y-64206571D02*
X122372380Y-64206571D01*
X121324761Y-64444666D02*
X122039047Y-64682761D01*
X122039047Y-64063714D01*
%TO.C,JP3*%
X125436380Y-65857333D02*
X126150666Y-65857333D01*
X126293523Y-65904952D01*
X126388761Y-66000190D01*
X126436380Y-66143047D01*
X126436380Y-66238285D01*
X126436380Y-65381142D02*
X125436380Y-65381142D01*
X125436380Y-65000190D01*
X125484000Y-64904952D01*
X125531619Y-64857333D01*
X125626857Y-64809714D01*
X125769714Y-64809714D01*
X125864952Y-64857333D01*
X125912571Y-64904952D01*
X125960190Y-65000190D01*
X125960190Y-65381142D01*
X125436380Y-64476380D02*
X125436380Y-63857333D01*
X125817333Y-64190666D01*
X125817333Y-64047809D01*
X125864952Y-63952571D01*
X125912571Y-63904952D01*
X126007809Y-63857333D01*
X126245904Y-63857333D01*
X126341142Y-63904952D01*
X126388761Y-63952571D01*
X126436380Y-64047809D01*
X126436380Y-64333523D01*
X126388761Y-64428761D01*
X126341142Y-64476380D01*
%TO.C,JP2*%
X127976380Y-65857333D02*
X128690666Y-65857333D01*
X128833523Y-65904952D01*
X128928761Y-66000190D01*
X128976380Y-66143047D01*
X128976380Y-66238285D01*
X128976380Y-65381142D02*
X127976380Y-65381142D01*
X127976380Y-65000190D01*
X128024000Y-64904952D01*
X128071619Y-64857333D01*
X128166857Y-64809714D01*
X128309714Y-64809714D01*
X128404952Y-64857333D01*
X128452571Y-64904952D01*
X128500190Y-65000190D01*
X128500190Y-65381142D01*
X128071619Y-64428761D02*
X128024000Y-64381142D01*
X127976380Y-64285904D01*
X127976380Y-64047809D01*
X128024000Y-63952571D01*
X128071619Y-63904952D01*
X128166857Y-63857333D01*
X128262095Y-63857333D01*
X128404952Y-63904952D01*
X128976380Y-64476380D01*
X128976380Y-63857333D01*
%TO.C,JP1*%
X130770380Y-65603333D02*
X131484666Y-65603333D01*
X131627523Y-65650952D01*
X131722761Y-65746190D01*
X131770380Y-65889047D01*
X131770380Y-65984285D01*
X131770380Y-65127142D02*
X130770380Y-65127142D01*
X130770380Y-64746190D01*
X130818000Y-64650952D01*
X130865619Y-64603333D01*
X130960857Y-64555714D01*
X131103714Y-64555714D01*
X131198952Y-64603333D01*
X131246571Y-64650952D01*
X131294190Y-64746190D01*
X131294190Y-65127142D01*
X131770380Y-63603333D02*
X131770380Y-64174761D01*
X131770380Y-63889047D02*
X130770380Y-63889047D01*
X130913238Y-63984285D01*
X131008476Y-64079523D01*
X131056095Y-64174761D01*
%TO.C,D4*%
D14*
X133207446Y-49361677D02*
X133207446Y-48359850D01*
X133445976Y-48359850D01*
X133589094Y-48407556D01*
X133684506Y-48502968D01*
X133732212Y-48598380D01*
X133779918Y-48789204D01*
X133779918Y-48932323D01*
X133732212Y-49123147D01*
X133684506Y-49218559D01*
X133589094Y-49313971D01*
X133445976Y-49361677D01*
X133207446Y-49361677D01*
X134638627Y-48693792D02*
X134638627Y-49361677D01*
X134400097Y-48312144D02*
X134161567Y-49027735D01*
X134781745Y-49027735D01*
%TO.C,D1*%
X95037446Y-49351677D02*
X95037446Y-48349850D01*
X95275976Y-48349850D01*
X95419094Y-48397556D01*
X95514506Y-48492968D01*
X95562212Y-48588380D01*
X95609918Y-48779204D01*
X95609918Y-48922323D01*
X95562212Y-49113147D01*
X95514506Y-49208559D01*
X95419094Y-49303971D01*
X95275976Y-49351677D01*
X95037446Y-49351677D01*
X96564039Y-49351677D02*
X95991567Y-49351677D01*
X96277803Y-49351677D02*
X96277803Y-48349850D01*
X96182391Y-48492968D01*
X96086979Y-48588380D01*
X95991567Y-48636086D01*
%TO.C,D10*%
X145530385Y-81561677D02*
X145530385Y-80559850D01*
X145768916Y-80559850D01*
X145912034Y-80607556D01*
X146007446Y-80702968D01*
X146055152Y-80798380D01*
X146102858Y-80989204D01*
X146102858Y-81132323D01*
X146055152Y-81323147D01*
X146007446Y-81418559D01*
X145912034Y-81513971D01*
X145768916Y-81561677D01*
X145530385Y-81561677D01*
X147056979Y-81561677D02*
X146484506Y-81561677D01*
X146770743Y-81561677D02*
X146770743Y-80559850D01*
X146675330Y-80702968D01*
X146579918Y-80798380D01*
X146484506Y-80846086D01*
X147677157Y-80559850D02*
X147772570Y-80559850D01*
X147867982Y-80607556D01*
X147915688Y-80655262D01*
X147963394Y-80750674D01*
X148011100Y-80941498D01*
X148011100Y-81180029D01*
X147963394Y-81370853D01*
X147915688Y-81466265D01*
X147867982Y-81513971D01*
X147772570Y-81561677D01*
X147677157Y-81561677D01*
X147581745Y-81513971D01*
X147534039Y-81466265D01*
X147486333Y-81370853D01*
X147438627Y-81180029D01*
X147438627Y-80941498D01*
X147486333Y-80750674D01*
X147534039Y-80655262D01*
X147581745Y-80607556D01*
X147677157Y-80559850D01*
%TO.C,D5*%
X145907446Y-49361677D02*
X145907446Y-48359850D01*
X146145976Y-48359850D01*
X146289094Y-48407556D01*
X146384506Y-48502968D01*
X146432212Y-48598380D01*
X146479918Y-48789204D01*
X146479918Y-48932323D01*
X146432212Y-49123147D01*
X146384506Y-49218559D01*
X146289094Y-49313971D01*
X146145976Y-49361677D01*
X145907446Y-49361677D01*
X147386333Y-48359850D02*
X146909273Y-48359850D01*
X146861567Y-48836910D01*
X146909273Y-48789204D01*
X147004685Y-48741498D01*
X147243215Y-48741498D01*
X147338627Y-48789204D01*
X147386333Y-48836910D01*
X147434039Y-48932323D01*
X147434039Y-49170853D01*
X147386333Y-49266265D01*
X147338627Y-49313971D01*
X147243215Y-49361677D01*
X147004685Y-49361677D01*
X146909273Y-49313971D01*
X146861567Y-49266265D01*
%TO.C,D9*%
X133307446Y-81561677D02*
X133307446Y-80559850D01*
X133545976Y-80559850D01*
X133689094Y-80607556D01*
X133784506Y-80702968D01*
X133832212Y-80798380D01*
X133879918Y-80989204D01*
X133879918Y-81132323D01*
X133832212Y-81323147D01*
X133784506Y-81418559D01*
X133689094Y-81513971D01*
X133545976Y-81561677D01*
X133307446Y-81561677D01*
X134356979Y-81561677D02*
X134547803Y-81561677D01*
X134643215Y-81513971D01*
X134690921Y-81466265D01*
X134786333Y-81323147D01*
X134834039Y-81132323D01*
X134834039Y-80750674D01*
X134786333Y-80655262D01*
X134738627Y-80607556D01*
X134643215Y-80559850D01*
X134452391Y-80559850D01*
X134356979Y-80607556D01*
X134309273Y-80655262D01*
X134261567Y-80750674D01*
X134261567Y-80989204D01*
X134309273Y-81084616D01*
X134356979Y-81132323D01*
X134452391Y-81180029D01*
X134643215Y-81180029D01*
X134738627Y-81132323D01*
X134786333Y-81084616D01*
X134834039Y-80989204D01*
%TO.C,D8*%
X120607446Y-81561677D02*
X120607446Y-80559850D01*
X120845976Y-80559850D01*
X120989094Y-80607556D01*
X121084506Y-80702968D01*
X121132212Y-80798380D01*
X121179918Y-80989204D01*
X121179918Y-81132323D01*
X121132212Y-81323147D01*
X121084506Y-81418559D01*
X120989094Y-81513971D01*
X120845976Y-81561677D01*
X120607446Y-81561677D01*
X121752391Y-80989204D02*
X121656979Y-80941498D01*
X121609273Y-80893792D01*
X121561567Y-80798380D01*
X121561567Y-80750674D01*
X121609273Y-80655262D01*
X121656979Y-80607556D01*
X121752391Y-80559850D01*
X121943215Y-80559850D01*
X122038627Y-80607556D01*
X122086333Y-80655262D01*
X122134039Y-80750674D01*
X122134039Y-80798380D01*
X122086333Y-80893792D01*
X122038627Y-80941498D01*
X121943215Y-80989204D01*
X121752391Y-80989204D01*
X121656979Y-81036910D01*
X121609273Y-81084616D01*
X121561567Y-81180029D01*
X121561567Y-81370853D01*
X121609273Y-81466265D01*
X121656979Y-81513971D01*
X121752391Y-81561677D01*
X121943215Y-81561677D01*
X122038627Y-81513971D01*
X122086333Y-81466265D01*
X122134039Y-81370853D01*
X122134039Y-81180029D01*
X122086333Y-81084616D01*
X122038627Y-81036910D01*
X121943215Y-80989204D01*
%TO.C,D3*%
X120507446Y-49361677D02*
X120507446Y-48359850D01*
X120745976Y-48359850D01*
X120889094Y-48407556D01*
X120984506Y-48502968D01*
X121032212Y-48598380D01*
X121079918Y-48789204D01*
X121079918Y-48932323D01*
X121032212Y-49123147D01*
X120984506Y-49218559D01*
X120889094Y-49313971D01*
X120745976Y-49361677D01*
X120507446Y-49361677D01*
X121413861Y-48359850D02*
X122034039Y-48359850D01*
X121700097Y-48741498D01*
X121843215Y-48741498D01*
X121938627Y-48789204D01*
X121986333Y-48836910D01*
X122034039Y-48932323D01*
X122034039Y-49170853D01*
X121986333Y-49266265D01*
X121938627Y-49313971D01*
X121843215Y-49361677D01*
X121556979Y-49361677D01*
X121461567Y-49313971D01*
X121413861Y-49266265D01*
%TO.C,D7*%
X107807446Y-81561677D02*
X107807446Y-80559850D01*
X108045976Y-80559850D01*
X108189094Y-80607556D01*
X108284506Y-80702968D01*
X108332212Y-80798380D01*
X108379918Y-80989204D01*
X108379918Y-81132323D01*
X108332212Y-81323147D01*
X108284506Y-81418559D01*
X108189094Y-81513971D01*
X108045976Y-81561677D01*
X107807446Y-81561677D01*
X108713861Y-80559850D02*
X109381745Y-80559850D01*
X108952391Y-81561677D01*
%TO.C,D2*%
X107807446Y-49653207D02*
X107807446Y-48651380D01*
X108045976Y-48651380D01*
X108189094Y-48699086D01*
X108284506Y-48794498D01*
X108332212Y-48889910D01*
X108379918Y-49080734D01*
X108379918Y-49223853D01*
X108332212Y-49414677D01*
X108284506Y-49510089D01*
X108189094Y-49605501D01*
X108045976Y-49653207D01*
X107807446Y-49653207D01*
X108761567Y-48746792D02*
X108809273Y-48699086D01*
X108904685Y-48651380D01*
X109143215Y-48651380D01*
X109238627Y-48699086D01*
X109286333Y-48746792D01*
X109334039Y-48842204D01*
X109334039Y-48937616D01*
X109286333Y-49080734D01*
X108713861Y-49653207D01*
X109334039Y-49653207D01*
%TO.C,D6*%
X95107446Y-81561677D02*
X95107446Y-80559850D01*
X95345976Y-80559850D01*
X95489094Y-80607556D01*
X95584506Y-80702968D01*
X95632212Y-80798380D01*
X95679918Y-80989204D01*
X95679918Y-81132323D01*
X95632212Y-81323147D01*
X95584506Y-81418559D01*
X95489094Y-81513971D01*
X95345976Y-81561677D01*
X95107446Y-81561677D01*
X96538627Y-80559850D02*
X96347803Y-80559850D01*
X96252391Y-80607556D01*
X96204685Y-80655262D01*
X96109273Y-80798380D01*
X96061567Y-80989204D01*
X96061567Y-81370853D01*
X96109273Y-81466265D01*
X96156979Y-81513971D01*
X96252391Y-81561677D01*
X96443215Y-81561677D01*
X96538627Y-81513971D01*
X96586333Y-81466265D01*
X96634039Y-81370853D01*
X96634039Y-81132323D01*
X96586333Y-81036910D01*
X96538627Y-80989204D01*
X96443215Y-80941498D01*
X96252391Y-80941498D01*
X96156979Y-80989204D01*
X96109273Y-81036910D01*
X96061567Y-81132323D01*
%TD*%
M02*
