%TF.GenerationSoftware,KiCad,Pcbnew,5.1.9-73d0e3b20d~88~ubuntu20.04.1*%
%TF.CreationDate,2021-05-01T11:52:03+02:00*%
%TF.ProjectId,anna_elsa_credit_display,616e6e61-5f65-46c7-9361-5f6372656469,rev?*%
%TF.SameCoordinates,Original*%
%TF.FileFunction,Soldermask,Top*%
%TF.FilePolarity,Negative*%
%FSLAX46Y46*%
G04 Gerber Fmt 4.6, Leading zero omitted, Abs format (unit mm)*
G04 Created by KiCad (PCBNEW 5.1.9-73d0e3b20d~88~ubuntu20.04.1) date 2021-05-01 11:52:03*
%MOMM*%
%LPD*%
G01*
G04 APERTURE LIST*
%ADD10R,1.500000X1.000000*%
%ADD11C,1.308000*%
%ADD12R,1.308000X1.308000*%
%ADD13O,1.800000X1.800000*%
%ADD14R,1.800000X1.800000*%
%ADD15O,1.600000X1.600000*%
%ADD16C,1.600000*%
%ADD17R,1.600000X1.600000*%
%ADD18C,6.400000*%
%ADD19O,1.700000X1.950000*%
G04 APERTURE END LIST*
D10*
%TO.C,JP6*%
X117856000Y-62260000D03*
X117856000Y-60960000D03*
%TD*%
%TO.C,JP5*%
X120396000Y-62260000D03*
X120396000Y-60960000D03*
%TD*%
%TO.C,JP4*%
X122936000Y-62260000D03*
X122936000Y-60960000D03*
%TD*%
%TO.C,JP3*%
X126746000Y-62230000D03*
X126746000Y-60930000D03*
%TD*%
%TO.C,JP2*%
X129540000Y-62260000D03*
X129540000Y-60960000D03*
%TD*%
%TO.C,JP1*%
X132334000Y-60960000D03*
X132334000Y-62260000D03*
%TD*%
D11*
%TO.C,D4*%
X133320000Y-39380000D03*
X135860000Y-39380000D03*
X138400000Y-39380000D03*
X140940000Y-39380000D03*
X143480000Y-39380000D03*
X143480000Y-54620000D03*
X140940000Y-54620000D03*
X138400000Y-54620000D03*
X135860000Y-54620000D03*
D12*
X133320000Y-54620000D03*
%TD*%
D13*
%TO.C,D12*%
X160020000Y-76200000D03*
D14*
X160020000Y-83820000D03*
%TD*%
D13*
%TO.C,D11*%
X87884000Y-77724000D03*
D14*
X87884000Y-85344000D03*
%TD*%
D15*
%TO.C,R6*%
X121666000Y-103378000D03*
D16*
X121666000Y-95758000D03*
%TD*%
D15*
%TO.C,R5*%
X124968000Y-103378000D03*
D16*
X124968000Y-95758000D03*
%TD*%
D15*
%TO.C,R4*%
X128270000Y-103378000D03*
D16*
X128270000Y-95758000D03*
%TD*%
D15*
%TO.C,R3*%
X148082000Y-103378000D03*
D16*
X148082000Y-95758000D03*
%TD*%
D15*
%TO.C,R2*%
X151384000Y-103378000D03*
D16*
X151384000Y-95758000D03*
%TD*%
D15*
%TO.C,R1*%
X154686000Y-103378000D03*
D16*
X154686000Y-95758000D03*
%TD*%
%TO.C,C4*%
X162560000Y-60492000D03*
D17*
X162560000Y-62992000D03*
%TD*%
D16*
%TO.C,C3*%
X135890000Y-61802000D03*
X135890000Y-66802000D03*
%TD*%
%TO.C,C2*%
X88900000Y-61762000D03*
D17*
X88900000Y-64262000D03*
%TD*%
D16*
%TO.C,C1*%
X91614000Y-53848000D03*
X86614000Y-53848000D03*
%TD*%
D11*
%TO.C,D1*%
X95150000Y-39370000D03*
X97690000Y-39370000D03*
X100230000Y-39370000D03*
X102770000Y-39370000D03*
X105310000Y-39370000D03*
X105310000Y-54610000D03*
X102770000Y-54610000D03*
X100230000Y-54610000D03*
X97690000Y-54610000D03*
D12*
X95150000Y-54610000D03*
%TD*%
D18*
%TO.C,H4*%
X162560000Y-99060000D03*
%TD*%
%TO.C,H3*%
X162560000Y-33020000D03*
%TD*%
%TO.C,H2*%
X88900000Y-99060000D03*
%TD*%
%TO.C,H1*%
X88900000Y-33020000D03*
%TD*%
D11*
%TO.C,D10*%
X146120000Y-71580000D03*
X148660000Y-71580000D03*
X151200000Y-71580000D03*
X153740000Y-71580000D03*
X156280000Y-71580000D03*
X156280000Y-86820000D03*
X153740000Y-86820000D03*
X151200000Y-86820000D03*
X148660000Y-86820000D03*
D12*
X146120000Y-86820000D03*
%TD*%
D11*
%TO.C,D5*%
X146020000Y-39380000D03*
X148560000Y-39380000D03*
X151100000Y-39380000D03*
X153640000Y-39380000D03*
X156180000Y-39380000D03*
X156180000Y-54620000D03*
X153640000Y-54620000D03*
X151100000Y-54620000D03*
X148560000Y-54620000D03*
D12*
X146020000Y-54620000D03*
%TD*%
D11*
%TO.C,D9*%
X133420000Y-71580000D03*
X135960000Y-71580000D03*
X138500000Y-71580000D03*
X141040000Y-71580000D03*
X143580000Y-71580000D03*
X143580000Y-86820000D03*
X141040000Y-86820000D03*
X138500000Y-86820000D03*
X135960000Y-86820000D03*
D12*
X133420000Y-86820000D03*
%TD*%
D11*
%TO.C,D8*%
X120720000Y-71580000D03*
X123260000Y-71580000D03*
X125800000Y-71580000D03*
X128340000Y-71580000D03*
X130880000Y-71580000D03*
X130880000Y-86820000D03*
X128340000Y-86820000D03*
X125800000Y-86820000D03*
X123260000Y-86820000D03*
D12*
X120720000Y-86820000D03*
%TD*%
D11*
%TO.C,D3*%
X120620000Y-39380000D03*
X123160000Y-39380000D03*
X125700000Y-39380000D03*
X128240000Y-39380000D03*
X130780000Y-39380000D03*
X130780000Y-54620000D03*
X128240000Y-54620000D03*
X125700000Y-54620000D03*
X123160000Y-54620000D03*
D12*
X120620000Y-54620000D03*
%TD*%
D11*
%TO.C,D7*%
X107920000Y-71580000D03*
X110460000Y-71580000D03*
X113000000Y-71580000D03*
X115540000Y-71580000D03*
X118080000Y-71580000D03*
X118080000Y-86820000D03*
X115540000Y-86820000D03*
X113000000Y-86820000D03*
X110460000Y-86820000D03*
D12*
X107920000Y-86820000D03*
%TD*%
D11*
%TO.C,D2*%
X107920000Y-39380000D03*
X110460000Y-39380000D03*
X113000000Y-39380000D03*
X115540000Y-39380000D03*
X118080000Y-39380000D03*
X118080000Y-54620000D03*
X115540000Y-54620000D03*
X113000000Y-54620000D03*
X110460000Y-54620000D03*
D12*
X107920000Y-54620000D03*
%TD*%
D11*
%TO.C,D6*%
X95220000Y-71580000D03*
X97760000Y-71580000D03*
X100300000Y-71580000D03*
X102840000Y-71580000D03*
X105380000Y-71580000D03*
X105380000Y-86820000D03*
X102840000Y-86820000D03*
X100300000Y-86820000D03*
X97760000Y-86820000D03*
D12*
X95220000Y-86820000D03*
%TD*%
D19*
%TO.C,J3*%
X140820000Y-97490000D03*
X138320000Y-97490000D03*
X135820000Y-97490000D03*
G36*
G01*
X132470000Y-98215000D02*
X132470000Y-96765000D01*
G75*
G02*
X132720000Y-96515000I250000J0D01*
G01*
X133920000Y-96515000D01*
G75*
G02*
X134170000Y-96765000I0J-250000D01*
G01*
X134170000Y-98215000D01*
G75*
G02*
X133920000Y-98465000I-250000J0D01*
G01*
X132720000Y-98465000D01*
G75*
G02*
X132470000Y-98215000I0J250000D01*
G01*
G37*
%TD*%
%TO.C,J2*%
X116690000Y-97490000D03*
X114190000Y-97490000D03*
X111690000Y-97490000D03*
G36*
G01*
X108340000Y-98215000D02*
X108340000Y-96765000D01*
G75*
G02*
X108590000Y-96515000I250000J0D01*
G01*
X109790000Y-96515000D01*
G75*
G02*
X110040000Y-96765000I0J-250000D01*
G01*
X110040000Y-98215000D01*
G75*
G02*
X109790000Y-98465000I-250000J0D01*
G01*
X108590000Y-98465000D01*
G75*
G02*
X108340000Y-98215000I0J250000D01*
G01*
G37*
%TD*%
M02*
