M48
; DRILL file {KiCad 5.1.9-73d0e3b20d~88~ubuntu20.04.1} date Sat May  1 11:52:05 2021
; FORMAT={-:-/ absolute / inch / decimal}
; #@! TF.CreationDate,2021-05-01T11:52:05+02:00
; #@! TF.GenerationSoftware,Kicad,Pcbnew,5.1.9-73d0e3b20d~88~ubuntu20.04.1
; #@! TF.FileFunction,Plated,1,2,PTH
FMAT,2
INCH
T1C0.0157
T2C0.0315
T3C0.0354
T4C0.0374
T5C0.1260
%
G90
G05
T1
X3.48Y-2.89
X3.6Y-2.65
X3.6Y-3.58
X3.75Y-1.8
X3.75Y-2.0
X3.75Y-2.95
X3.75Y-3.3
X3.79Y-2.37
X3.8Y-2.75
X3.8Y-3.65
X3.85Y-1.65
X3.85Y-1.95
X3.85Y-2.75
X3.85Y-3.0
X3.85Y-3.25
X3.9Y-3.6
X3.91Y-3.94
X3.93Y-2.37
X3.95Y-2.45
X3.95Y-3.75
X3.9992Y-2.3808
X4.0Y-2.75
X4.0Y-3.25
X4.01Y-2.21
X4.01Y-2.49
X4.05Y-1.75
X4.05Y-1.9
X4.05Y-2.53
X4.05Y-3.05
X4.05Y-3.2
X4.09Y-2.56
X4.09Y-2.78
X4.1Y-3.2
X4.15Y-1.7
X4.15Y-1.85
X4.15Y-3.1
X4.15Y-3.15
X4.19Y-2.71
X4.2Y-2.8
X4.25Y-1.8
X4.25Y-2.0
X4.25Y-2.95
X4.25Y-3.3
X4.3Y-2.38
X4.3Y-2.92
X4.35Y-1.65
X4.35Y-1.95
X4.35Y-2.75
X4.35Y-3.0
X4.35Y-3.25
X4.39Y-2.72
X4.4Y-3.15
X4.4Y-3.7
X4.43Y-2.41
X4.5Y-3.65
X4.54Y-2.24
X4.55Y-1.75
X4.55Y-1.9
X4.55Y-3.05
X4.55Y-3.2
X4.5941Y-3.6059
X4.65Y-1.7
X4.65Y-1.85
X4.65Y-3.1
X4.65Y-3.15
X4.75Y-1.8
X4.75Y-2.0
X4.75Y-2.95
X4.75Y-3.3
X4.85Y-1.65
X4.85Y-1.95
X4.85Y-3.0
X4.85Y-3.25
X4.91Y-2.45
X5.01Y-3.57
X5.05Y-1.75
X5.05Y-1.9
X5.05Y-3.05
X5.05Y-3.2
X5.1Y-3.53
X5.15Y-1.7
X5.15Y-1.85
X5.15Y-3.1
X5.15Y-3.15
X5.21Y-3.2
X5.25Y-1.8
X5.25Y-2.0
X5.25Y-2.95
X5.25Y-3.3
X5.31Y-3.5
X5.35Y-1.65
X5.35Y-1.95
X5.35Y-3.0
X5.35Y-3.25
X5.35Y-3.7
X5.4Y-2.29
X5.42Y-2.5
X5.45Y-2.41
X5.45Y-3.65
X5.52Y-2.74
X5.54Y-2.36
X5.55Y-1.75
X5.55Y-1.9
X5.55Y-3.05
X5.55Y-3.2
X5.55Y-3.6
X5.64Y-2.56
X5.65Y-1.7
X5.65Y-1.85
X5.65Y-3.1
X5.65Y-3.15
X5.66Y-2.22
X5.7Y-2.4
X5.7Y-2.54
X5.7Y-2.75
X5.7Y-3.65
X5.7Y-3.94
X5.75Y-1.8
X5.75Y-2.0
X5.75Y-2.58
X5.75Y-2.95
X5.75Y-3.3
X5.8Y-1.75
X5.8Y-2.1831
X5.8Y-2.5
X5.8Y-2.75
X5.8Y-3.6
X5.84Y-2.59
X5.8488Y-2.0512
X5.85Y-1.65
X5.85Y-1.95
X5.85Y-3.0
X5.85Y-3.25
X5.85Y-3.57
X5.9Y-2.59
X5.9Y-2.8
X5.95Y-2.92
X5.96Y-3.52
X6.0Y-3.05
X6.0453Y-2.7693
X6.05Y-1.75
X6.05Y-1.9
X6.05Y-3.05
X6.05Y-3.2
X6.06Y-3.49
X6.0774Y-2.05
X6.1Y-1.7
X6.1103Y-2.4003
X6.15Y-1.85
X6.15Y-2.53
X6.15Y-3.1
X6.15Y-3.15
X6.2Y-1.8
X6.2Y-2.73
X6.23Y-4.1
X6.4Y-2.71
X6.4Y-3.7
T2
X3.41Y-2.12
X3.5Y-2.4316
X3.5Y-2.53
X3.6069Y-2.12
X3.7461Y-1.55
X3.7461Y-2.15
X3.7488Y-2.8181
X3.7488Y-3.4181
X3.8461Y-1.55
X3.8461Y-2.15
X3.8488Y-2.8181
X3.8488Y-3.4181
X3.9461Y-1.55
X3.9461Y-2.15
X3.9488Y-2.8181
X3.9488Y-3.4181
X4.0461Y-1.55
X4.0461Y-2.15
X4.0488Y-2.8181
X4.0488Y-3.4181
X4.1461Y-1.55
X4.1461Y-2.15
X4.1488Y-2.8181
X4.1488Y-3.4181
X4.2488Y-1.5504
X4.2488Y-2.1504
X4.2488Y-2.8181
X4.2488Y-3.4181
X4.3488Y-1.5504
X4.3488Y-2.1504
X4.3488Y-2.8181
X4.3488Y-3.4181
X4.4488Y-1.5504
X4.4488Y-2.1504
X4.4488Y-2.8181
X4.4488Y-3.4181
X4.5488Y-1.5504
X4.5488Y-2.1504
X4.5488Y-2.8181
X4.5488Y-3.4181
X4.6488Y-1.5504
X4.6488Y-2.1504
X4.6488Y-2.8181
X4.6488Y-3.4181
X4.7488Y-1.5504
X4.7488Y-2.1504
X4.7528Y-2.8181
X4.7528Y-3.4181
X4.79Y-3.77
X4.79Y-4.07
X4.8488Y-1.5504
X4.8488Y-2.1504
X4.8528Y-2.8181
X4.8528Y-3.4181
X4.92Y-3.77
X4.92Y-4.07
X4.9488Y-1.5504
X4.9488Y-2.1504
X4.9528Y-2.8181
X4.9528Y-3.4181
X5.0488Y-1.5504
X5.0488Y-2.1504
X5.05Y-3.77
X5.05Y-4.07
X5.0528Y-2.8181
X5.0528Y-3.4181
X5.1488Y-1.5504
X5.1488Y-2.1504
X5.1528Y-2.8181
X5.1528Y-3.4181
X5.2488Y-1.5504
X5.2488Y-2.1504
X5.2528Y-2.8181
X5.2528Y-3.4181
X5.3488Y-1.5504
X5.3488Y-2.1504
X5.35Y-2.4331
X5.35Y-2.63
X5.3528Y-2.8181
X5.3528Y-3.4181
X5.4488Y-1.5504
X5.4488Y-2.1504
X5.4528Y-2.8181
X5.4528Y-3.4181
X5.5488Y-1.5504
X5.5488Y-2.1504
X5.5528Y-2.8181
X5.5528Y-3.4181
X5.6488Y-1.5504
X5.6488Y-2.1504
X5.6528Y-2.8181
X5.6528Y-3.4181
X5.7488Y-1.5504
X5.7488Y-2.1504
X5.7528Y-2.8181
X5.7528Y-3.4181
X5.83Y-3.77
X5.83Y-4.07
X5.8488Y-1.5504
X5.8488Y-2.1504
X5.8528Y-2.8181
X5.8528Y-3.4181
X5.9488Y-1.5504
X5.9488Y-2.1504
X5.9528Y-2.8181
X5.9528Y-3.4181
X5.96Y-3.77
X5.96Y-4.07
X6.0488Y-1.5504
X6.0488Y-2.1504
X6.0528Y-2.8181
X6.0528Y-3.4181
X6.09Y-3.77
X6.09Y-4.07
X6.1488Y-1.5504
X6.1488Y-2.1504
X6.1528Y-2.8181
X6.1528Y-3.4181
X6.4Y-2.3816
X6.4Y-2.48
T3
X3.46Y-3.06
X3.46Y-3.36
X6.3Y-3.0
X6.3Y-3.3
T4
X4.2988Y-3.8382
X4.3972Y-3.8382
X4.4957Y-3.8382
X4.5941Y-3.8382
X5.2488Y-3.8382
X5.3472Y-3.8382
X5.4457Y-3.8382
X5.5441Y-3.8382
T5
X3.5Y-1.3
X3.5Y-3.9
X6.4Y-1.3
X6.4Y-3.9
T0
M30
