%TF.GenerationSoftware,KiCad,Pcbnew,5.1.9-73d0e3b20d~88~ubuntu20.04.1*%
%TF.CreationDate,2021-05-01T11:52:03+02:00*%
%TF.ProjectId,anna_elsa_credit_display,616e6e61-5f65-46c7-9361-5f6372656469,rev?*%
%TF.SameCoordinates,Original*%
%TF.FileFunction,Copper,L2,Bot*%
%TF.FilePolarity,Positive*%
%FSLAX46Y46*%
G04 Gerber Fmt 4.6, Leading zero omitted, Abs format (unit mm)*
G04 Created by KiCad (PCBNEW 5.1.9-73d0e3b20d~88~ubuntu20.04.1) date 2021-05-01 11:52:03*
%MOMM*%
%LPD*%
G01*
G04 APERTURE LIST*
%TA.AperFunction,ComponentPad*%
%ADD10C,1.308000*%
%TD*%
%TA.AperFunction,ComponentPad*%
%ADD11R,1.308000X1.308000*%
%TD*%
%TA.AperFunction,ComponentPad*%
%ADD12O,1.800000X1.800000*%
%TD*%
%TA.AperFunction,ComponentPad*%
%ADD13R,1.800000X1.800000*%
%TD*%
%TA.AperFunction,ComponentPad*%
%ADD14O,1.600000X1.600000*%
%TD*%
%TA.AperFunction,ComponentPad*%
%ADD15C,1.600000*%
%TD*%
%TA.AperFunction,ComponentPad*%
%ADD16R,1.600000X1.600000*%
%TD*%
%TA.AperFunction,ComponentPad*%
%ADD17C,6.400000*%
%TD*%
%TA.AperFunction,ComponentPad*%
%ADD18O,1.700000X1.950000*%
%TD*%
%TA.AperFunction,ViaPad*%
%ADD19C,0.800000*%
%TD*%
%TA.AperFunction,ViaPad*%
%ADD20C,1.000000*%
%TD*%
%TA.AperFunction,Conductor*%
%ADD21C,0.250000*%
%TD*%
%TA.AperFunction,Conductor*%
%ADD22C,0.500000*%
%TD*%
G04 APERTURE END LIST*
D10*
%TO.P,D4,10*%
%TO.N,/G_1*%
X133320000Y-39380000D03*
%TO.P,D4,9*%
%TO.N,/F_1*%
X135860000Y-39380000D03*
%TO.P,D4,8*%
%TO.N,/7_SEG_4*%
X138400000Y-39380000D03*
%TO.P,D4,7*%
%TO.N,/A_1*%
X140940000Y-39380000D03*
%TO.P,D4,6*%
%TO.N,/B_1*%
X143480000Y-39380000D03*
%TO.P,D4,5*%
%TO.N,/DP_1*%
X143480000Y-54620000D03*
%TO.P,D4,4*%
%TO.N,/C_1*%
X140940000Y-54620000D03*
%TO.P,D4,3*%
%TO.N,/7_SEG_4*%
X138400000Y-54620000D03*
%TO.P,D4,2*%
%TO.N,/D_1*%
X135860000Y-54620000D03*
D11*
%TO.P,D4,1*%
%TO.N,/E_1*%
X133320000Y-54620000D03*
%TD*%
D12*
%TO.P,D12,2*%
%TO.N,/7_SEG_1*%
X160020000Y-76200000D03*
D13*
%TO.P,D12,1*%
%TO.N,Net-(D12-Pad1)*%
X160020000Y-83820000D03*
%TD*%
D12*
%TO.P,D11,2*%
%TO.N,/7_SEG_6*%
X87884000Y-77724000D03*
D13*
%TO.P,D11,1*%
%TO.N,Net-(D11-Pad1)*%
X87884000Y-85344000D03*
%TD*%
D14*
%TO.P,R6,2*%
%TO.N,Net-(D12-Pad1)*%
X121666000Y-103378000D03*
D15*
%TO.P,R6,1*%
%TO.N,Net-(JP6-Pad1)*%
X121666000Y-95758000D03*
%TD*%
D14*
%TO.P,R5,2*%
%TO.N,Net-(D12-Pad1)*%
X124968000Y-103378000D03*
D15*
%TO.P,R5,1*%
%TO.N,Net-(JP5-Pad1)*%
X124968000Y-95758000D03*
%TD*%
D14*
%TO.P,R4,2*%
%TO.N,Net-(D12-Pad1)*%
X128270000Y-103378000D03*
D15*
%TO.P,R4,1*%
%TO.N,Net-(JP4-Pad1)*%
X128270000Y-95758000D03*
%TD*%
D14*
%TO.P,R3,2*%
%TO.N,Net-(D11-Pad1)*%
X148082000Y-103378000D03*
D15*
%TO.P,R3,1*%
%TO.N,Net-(JP3-Pad1)*%
X148082000Y-95758000D03*
%TD*%
D14*
%TO.P,R2,2*%
%TO.N,Net-(D11-Pad1)*%
X151384000Y-103378000D03*
D15*
%TO.P,R2,1*%
%TO.N,Net-(JP2-Pad1)*%
X151384000Y-95758000D03*
%TD*%
D14*
%TO.P,R1,2*%
%TO.N,Net-(D11-Pad1)*%
X154686000Y-103378000D03*
D15*
%TO.P,R1,1*%
%TO.N,Net-(JP1-Pad1)*%
X154686000Y-95758000D03*
%TD*%
%TO.P,C4,2*%
%TO.N,GND*%
X162560000Y-60492000D03*
D16*
%TO.P,C4,1*%
%TO.N,+5V*%
X162560000Y-62992000D03*
%TD*%
D15*
%TO.P,C3,2*%
%TO.N,GND*%
X135890000Y-61802000D03*
%TO.P,C3,1*%
%TO.N,+5V*%
X135890000Y-66802000D03*
%TD*%
%TO.P,C2,2*%
%TO.N,GND*%
X88900000Y-61762000D03*
D16*
%TO.P,C2,1*%
%TO.N,+5V*%
X88900000Y-64262000D03*
%TD*%
D15*
%TO.P,C1,2*%
%TO.N,GND*%
X91614000Y-53848000D03*
%TO.P,C1,1*%
%TO.N,+5V*%
X86614000Y-53848000D03*
%TD*%
%TO.P,J4,15*%
%TO.N,Net-(J4-Pad15)*%
%TA.AperFunction,SMDPad,CuDef*%
G36*
G01*
X111241500Y-66388000D02*
X111516500Y-66388000D01*
G75*
G02*
X111654000Y-66525500I0J-137500D01*
G01*
X111654000Y-68250500D01*
G75*
G02*
X111516500Y-68388000I-137500J0D01*
G01*
X111241500Y-68388000D01*
G75*
G02*
X111104000Y-68250500I0J137500D01*
G01*
X111104000Y-66525500D01*
G75*
G02*
X111241500Y-66388000I137500J0D01*
G01*
G37*
%TD.AperFunction*%
%TO.P,J4,16*%
%TO.N,Net-(J4-Pad16)*%
%TA.AperFunction,SMDPad,CuDef*%
G36*
G01*
X109971500Y-66388000D02*
X110246500Y-66388000D01*
G75*
G02*
X110384000Y-66525500I0J-137500D01*
G01*
X110384000Y-68250500D01*
G75*
G02*
X110246500Y-68388000I-137500J0D01*
G01*
X109971500Y-68388000D01*
G75*
G02*
X109834000Y-68250500I0J137500D01*
G01*
X109834000Y-66525500D01*
G75*
G02*
X109971500Y-66388000I137500J0D01*
G01*
G37*
%TD.AperFunction*%
%TO.P,J4,14*%
%TO.N,Net-(J4-Pad14)*%
%TA.AperFunction,SMDPad,CuDef*%
G36*
G01*
X111241500Y-57088000D02*
X111516500Y-57088000D01*
G75*
G02*
X111654000Y-57225500I0J-137500D01*
G01*
X111654000Y-58950500D01*
G75*
G02*
X111516500Y-59088000I-137500J0D01*
G01*
X111241500Y-59088000D01*
G75*
G02*
X111104000Y-58950500I0J137500D01*
G01*
X111104000Y-57225500D01*
G75*
G02*
X111241500Y-57088000I137500J0D01*
G01*
G37*
%TD.AperFunction*%
%TO.P,J4,13*%
%TO.N,Net-(J4-Pad13)*%
%TA.AperFunction,SMDPad,CuDef*%
G36*
G01*
X109971500Y-57088000D02*
X110246500Y-57088000D01*
G75*
G02*
X110384000Y-57225500I0J-137500D01*
G01*
X110384000Y-58950500D01*
G75*
G02*
X110246500Y-59088000I-137500J0D01*
G01*
X109971500Y-59088000D01*
G75*
G02*
X109834000Y-58950500I0J137500D01*
G01*
X109834000Y-57225500D01*
G75*
G02*
X109971500Y-57088000I137500J0D01*
G01*
G37*
%TD.AperFunction*%
%TO.P,J4,28*%
%TO.N,+5V*%
%TA.AperFunction,SMDPad,CuDef*%
G36*
G01*
X94731500Y-66388000D02*
X95006500Y-66388000D01*
G75*
G02*
X95144000Y-66525500I0J-137500D01*
G01*
X95144000Y-68250500D01*
G75*
G02*
X95006500Y-68388000I-137500J0D01*
G01*
X94731500Y-68388000D01*
G75*
G02*
X94594000Y-68250500I0J137500D01*
G01*
X94594000Y-66525500D01*
G75*
G02*
X94731500Y-66388000I137500J0D01*
G01*
G37*
%TD.AperFunction*%
%TO.P,J4,27*%
%TO.N,SDA*%
%TA.AperFunction,SMDPad,CuDef*%
G36*
G01*
X96001500Y-66388000D02*
X96276500Y-66388000D01*
G75*
G02*
X96414000Y-66525500I0J-137500D01*
G01*
X96414000Y-68250500D01*
G75*
G02*
X96276500Y-68388000I-137500J0D01*
G01*
X96001500Y-68388000D01*
G75*
G02*
X95864000Y-68250500I0J137500D01*
G01*
X95864000Y-66525500D01*
G75*
G02*
X96001500Y-66388000I137500J0D01*
G01*
G37*
%TD.AperFunction*%
%TO.P,J4,26*%
%TO.N,SCL*%
%TA.AperFunction,SMDPad,CuDef*%
G36*
G01*
X97271500Y-66388000D02*
X97546500Y-66388000D01*
G75*
G02*
X97684000Y-66525500I0J-137500D01*
G01*
X97684000Y-68250500D01*
G75*
G02*
X97546500Y-68388000I-137500J0D01*
G01*
X97271500Y-68388000D01*
G75*
G02*
X97134000Y-68250500I0J137500D01*
G01*
X97134000Y-66525500D01*
G75*
G02*
X97271500Y-66388000I137500J0D01*
G01*
G37*
%TD.AperFunction*%
%TO.P,J4,25*%
%TO.N,/A_2*%
%TA.AperFunction,SMDPad,CuDef*%
G36*
G01*
X98541500Y-66388000D02*
X98816500Y-66388000D01*
G75*
G02*
X98954000Y-66525500I0J-137500D01*
G01*
X98954000Y-68250500D01*
G75*
G02*
X98816500Y-68388000I-137500J0D01*
G01*
X98541500Y-68388000D01*
G75*
G02*
X98404000Y-68250500I0J137500D01*
G01*
X98404000Y-66525500D01*
G75*
G02*
X98541500Y-66388000I137500J0D01*
G01*
G37*
%TD.AperFunction*%
%TO.P,J4,24*%
%TO.N,/B_2*%
%TA.AperFunction,SMDPad,CuDef*%
G36*
G01*
X99811500Y-66388000D02*
X100086500Y-66388000D01*
G75*
G02*
X100224000Y-66525500I0J-137500D01*
G01*
X100224000Y-68250500D01*
G75*
G02*
X100086500Y-68388000I-137500J0D01*
G01*
X99811500Y-68388000D01*
G75*
G02*
X99674000Y-68250500I0J137500D01*
G01*
X99674000Y-66525500D01*
G75*
G02*
X99811500Y-66388000I137500J0D01*
G01*
G37*
%TD.AperFunction*%
%TO.P,J4,23*%
%TO.N,/C_2*%
%TA.AperFunction,SMDPad,CuDef*%
G36*
G01*
X101081500Y-66388000D02*
X101356500Y-66388000D01*
G75*
G02*
X101494000Y-66525500I0J-137500D01*
G01*
X101494000Y-68250500D01*
G75*
G02*
X101356500Y-68388000I-137500J0D01*
G01*
X101081500Y-68388000D01*
G75*
G02*
X100944000Y-68250500I0J137500D01*
G01*
X100944000Y-66525500D01*
G75*
G02*
X101081500Y-66388000I137500J0D01*
G01*
G37*
%TD.AperFunction*%
%TO.P,J4,22*%
%TO.N,/D_2*%
%TA.AperFunction,SMDPad,CuDef*%
G36*
G01*
X102351500Y-66388000D02*
X102626500Y-66388000D01*
G75*
G02*
X102764000Y-66525500I0J-137500D01*
G01*
X102764000Y-68250500D01*
G75*
G02*
X102626500Y-68388000I-137500J0D01*
G01*
X102351500Y-68388000D01*
G75*
G02*
X102214000Y-68250500I0J137500D01*
G01*
X102214000Y-66525500D01*
G75*
G02*
X102351500Y-66388000I137500J0D01*
G01*
G37*
%TD.AperFunction*%
%TO.P,J4,21*%
%TO.N,/E_2*%
%TA.AperFunction,SMDPad,CuDef*%
G36*
G01*
X103621500Y-66388000D02*
X103896500Y-66388000D01*
G75*
G02*
X104034000Y-66525500I0J-137500D01*
G01*
X104034000Y-68250500D01*
G75*
G02*
X103896500Y-68388000I-137500J0D01*
G01*
X103621500Y-68388000D01*
G75*
G02*
X103484000Y-68250500I0J137500D01*
G01*
X103484000Y-66525500D01*
G75*
G02*
X103621500Y-66388000I137500J0D01*
G01*
G37*
%TD.AperFunction*%
%TO.P,J4,20*%
%TO.N,/F_2*%
%TA.AperFunction,SMDPad,CuDef*%
G36*
G01*
X104891500Y-66388000D02*
X105166500Y-66388000D01*
G75*
G02*
X105304000Y-66525500I0J-137500D01*
G01*
X105304000Y-68250500D01*
G75*
G02*
X105166500Y-68388000I-137500J0D01*
G01*
X104891500Y-68388000D01*
G75*
G02*
X104754000Y-68250500I0J137500D01*
G01*
X104754000Y-66525500D01*
G75*
G02*
X104891500Y-66388000I137500J0D01*
G01*
G37*
%TD.AperFunction*%
%TO.P,J4,19*%
%TO.N,/G_2*%
%TA.AperFunction,SMDPad,CuDef*%
G36*
G01*
X106161500Y-66388000D02*
X106436500Y-66388000D01*
G75*
G02*
X106574000Y-66525500I0J-137500D01*
G01*
X106574000Y-68250500D01*
G75*
G02*
X106436500Y-68388000I-137500J0D01*
G01*
X106161500Y-68388000D01*
G75*
G02*
X106024000Y-68250500I0J137500D01*
G01*
X106024000Y-66525500D01*
G75*
G02*
X106161500Y-66388000I137500J0D01*
G01*
G37*
%TD.AperFunction*%
%TO.P,J4,18*%
%TO.N,/DP_2*%
%TA.AperFunction,SMDPad,CuDef*%
G36*
G01*
X107431500Y-66388000D02*
X107706500Y-66388000D01*
G75*
G02*
X107844000Y-66525500I0J-137500D01*
G01*
X107844000Y-68250500D01*
G75*
G02*
X107706500Y-68388000I-137500J0D01*
G01*
X107431500Y-68388000D01*
G75*
G02*
X107294000Y-68250500I0J137500D01*
G01*
X107294000Y-66525500D01*
G75*
G02*
X107431500Y-66388000I137500J0D01*
G01*
G37*
%TD.AperFunction*%
%TO.P,J4,17*%
%TO.N,Net-(J4-Pad17)*%
%TA.AperFunction,SMDPad,CuDef*%
G36*
G01*
X108701500Y-66388000D02*
X108976500Y-66388000D01*
G75*
G02*
X109114000Y-66525500I0J-137500D01*
G01*
X109114000Y-68250500D01*
G75*
G02*
X108976500Y-68388000I-137500J0D01*
G01*
X108701500Y-68388000D01*
G75*
G02*
X108564000Y-68250500I0J137500D01*
G01*
X108564000Y-66525500D01*
G75*
G02*
X108701500Y-66388000I137500J0D01*
G01*
G37*
%TD.AperFunction*%
%TO.P,J4,12*%
%TO.N,Net-(J4-Pad12)*%
%TA.AperFunction,SMDPad,CuDef*%
G36*
G01*
X108701500Y-57088000D02*
X108976500Y-57088000D01*
G75*
G02*
X109114000Y-57225500I0J-137500D01*
G01*
X109114000Y-58950500D01*
G75*
G02*
X108976500Y-59088000I-137500J0D01*
G01*
X108701500Y-59088000D01*
G75*
G02*
X108564000Y-58950500I0J137500D01*
G01*
X108564000Y-57225500D01*
G75*
G02*
X108701500Y-57088000I137500J0D01*
G01*
G37*
%TD.AperFunction*%
%TO.P,J4,11*%
%TO.N,Net-(J4-Pad11)*%
%TA.AperFunction,SMDPad,CuDef*%
G36*
G01*
X107431500Y-57088000D02*
X107706500Y-57088000D01*
G75*
G02*
X107844000Y-57225500I0J-137500D01*
G01*
X107844000Y-58950500D01*
G75*
G02*
X107706500Y-59088000I-137500J0D01*
G01*
X107431500Y-59088000D01*
G75*
G02*
X107294000Y-58950500I0J137500D01*
G01*
X107294000Y-57225500D01*
G75*
G02*
X107431500Y-57088000I137500J0D01*
G01*
G37*
%TD.AperFunction*%
%TO.P,J4,10*%
%TO.N,Net-(J4-Pad10)*%
%TA.AperFunction,SMDPad,CuDef*%
G36*
G01*
X106161500Y-57088000D02*
X106436500Y-57088000D01*
G75*
G02*
X106574000Y-57225500I0J-137500D01*
G01*
X106574000Y-58950500D01*
G75*
G02*
X106436500Y-59088000I-137500J0D01*
G01*
X106161500Y-59088000D01*
G75*
G02*
X106024000Y-58950500I0J137500D01*
G01*
X106024000Y-57225500D01*
G75*
G02*
X106161500Y-57088000I137500J0D01*
G01*
G37*
%TD.AperFunction*%
%TO.P,J4,9*%
%TO.N,Net-(J4-Pad9)*%
%TA.AperFunction,SMDPad,CuDef*%
G36*
G01*
X104891500Y-57088000D02*
X105166500Y-57088000D01*
G75*
G02*
X105304000Y-57225500I0J-137500D01*
G01*
X105304000Y-58950500D01*
G75*
G02*
X105166500Y-59088000I-137500J0D01*
G01*
X104891500Y-59088000D01*
G75*
G02*
X104754000Y-58950500I0J137500D01*
G01*
X104754000Y-57225500D01*
G75*
G02*
X104891500Y-57088000I137500J0D01*
G01*
G37*
%TD.AperFunction*%
%TO.P,J4,8*%
%TO.N,Net-(J4-Pad8)*%
%TA.AperFunction,SMDPad,CuDef*%
G36*
G01*
X103621500Y-57088000D02*
X103896500Y-57088000D01*
G75*
G02*
X104034000Y-57225500I0J-137500D01*
G01*
X104034000Y-58950500D01*
G75*
G02*
X103896500Y-59088000I-137500J0D01*
G01*
X103621500Y-59088000D01*
G75*
G02*
X103484000Y-58950500I0J137500D01*
G01*
X103484000Y-57225500D01*
G75*
G02*
X103621500Y-57088000I137500J0D01*
G01*
G37*
%TD.AperFunction*%
%TO.P,J4,7*%
%TO.N,Net-(J4-Pad7)*%
%TA.AperFunction,SMDPad,CuDef*%
G36*
G01*
X102351500Y-57088000D02*
X102626500Y-57088000D01*
G75*
G02*
X102764000Y-57225500I0J-137500D01*
G01*
X102764000Y-58950500D01*
G75*
G02*
X102626500Y-59088000I-137500J0D01*
G01*
X102351500Y-59088000D01*
G75*
G02*
X102214000Y-58950500I0J137500D01*
G01*
X102214000Y-57225500D01*
G75*
G02*
X102351500Y-57088000I137500J0D01*
G01*
G37*
%TD.AperFunction*%
%TO.P,J4,6*%
%TO.N,/7_SEG_10*%
%TA.AperFunction,SMDPad,CuDef*%
G36*
G01*
X101081500Y-57088000D02*
X101356500Y-57088000D01*
G75*
G02*
X101494000Y-57225500I0J-137500D01*
G01*
X101494000Y-58950500D01*
G75*
G02*
X101356500Y-59088000I-137500J0D01*
G01*
X101081500Y-59088000D01*
G75*
G02*
X100944000Y-58950500I0J137500D01*
G01*
X100944000Y-57225500D01*
G75*
G02*
X101081500Y-57088000I137500J0D01*
G01*
G37*
%TD.AperFunction*%
%TO.P,J4,5*%
%TO.N,/7_SEG_9*%
%TA.AperFunction,SMDPad,CuDef*%
G36*
G01*
X99811500Y-57088000D02*
X100086500Y-57088000D01*
G75*
G02*
X100224000Y-57225500I0J-137500D01*
G01*
X100224000Y-58950500D01*
G75*
G02*
X100086500Y-59088000I-137500J0D01*
G01*
X99811500Y-59088000D01*
G75*
G02*
X99674000Y-58950500I0J137500D01*
G01*
X99674000Y-57225500D01*
G75*
G02*
X99811500Y-57088000I137500J0D01*
G01*
G37*
%TD.AperFunction*%
%TO.P,J4,4*%
%TO.N,/7_SEG_8*%
%TA.AperFunction,SMDPad,CuDef*%
G36*
G01*
X98541500Y-57088000D02*
X98816500Y-57088000D01*
G75*
G02*
X98954000Y-57225500I0J-137500D01*
G01*
X98954000Y-58950500D01*
G75*
G02*
X98816500Y-59088000I-137500J0D01*
G01*
X98541500Y-59088000D01*
G75*
G02*
X98404000Y-58950500I0J137500D01*
G01*
X98404000Y-57225500D01*
G75*
G02*
X98541500Y-57088000I137500J0D01*
G01*
G37*
%TD.AperFunction*%
%TO.P,J4,3*%
%TO.N,/7_SEG_7*%
%TA.AperFunction,SMDPad,CuDef*%
G36*
G01*
X97271500Y-57088000D02*
X97546500Y-57088000D01*
G75*
G02*
X97684000Y-57225500I0J-137500D01*
G01*
X97684000Y-58950500D01*
G75*
G02*
X97546500Y-59088000I-137500J0D01*
G01*
X97271500Y-59088000D01*
G75*
G02*
X97134000Y-58950500I0J137500D01*
G01*
X97134000Y-57225500D01*
G75*
G02*
X97271500Y-57088000I137500J0D01*
G01*
G37*
%TD.AperFunction*%
%TO.P,J4,2*%
%TO.N,/7_SEG_6*%
%TA.AperFunction,SMDPad,CuDef*%
G36*
G01*
X96001500Y-57088000D02*
X96276500Y-57088000D01*
G75*
G02*
X96414000Y-57225500I0J-137500D01*
G01*
X96414000Y-58950500D01*
G75*
G02*
X96276500Y-59088000I-137500J0D01*
G01*
X96001500Y-59088000D01*
G75*
G02*
X95864000Y-58950500I0J137500D01*
G01*
X95864000Y-57225500D01*
G75*
G02*
X96001500Y-57088000I137500J0D01*
G01*
G37*
%TD.AperFunction*%
%TO.P,J4,1*%
%TO.N,GND*%
%TA.AperFunction,SMDPad,CuDef*%
G36*
G01*
X94731500Y-57088000D02*
X95006500Y-57088000D01*
G75*
G02*
X95144000Y-57225500I0J-137500D01*
G01*
X95144000Y-58950500D01*
G75*
G02*
X95006500Y-59088000I-137500J0D01*
G01*
X94731500Y-59088000D01*
G75*
G02*
X94594000Y-58950500I0J137500D01*
G01*
X94594000Y-57225500D01*
G75*
G02*
X94731500Y-57088000I137500J0D01*
G01*
G37*
%TD.AperFunction*%
%TD*%
%TO.P,J1,15*%
%TO.N,Net-(J1-Pad15)*%
%TA.AperFunction,SMDPad,CuDef*%
G36*
G01*
X155945500Y-66642000D02*
X156220500Y-66642000D01*
G75*
G02*
X156358000Y-66779500I0J-137500D01*
G01*
X156358000Y-68504500D01*
G75*
G02*
X156220500Y-68642000I-137500J0D01*
G01*
X155945500Y-68642000D01*
G75*
G02*
X155808000Y-68504500I0J137500D01*
G01*
X155808000Y-66779500D01*
G75*
G02*
X155945500Y-66642000I137500J0D01*
G01*
G37*
%TD.AperFunction*%
%TO.P,J1,16*%
%TO.N,Net-(J1-Pad16)*%
%TA.AperFunction,SMDPad,CuDef*%
G36*
G01*
X154675500Y-66642000D02*
X154950500Y-66642000D01*
G75*
G02*
X155088000Y-66779500I0J-137500D01*
G01*
X155088000Y-68504500D01*
G75*
G02*
X154950500Y-68642000I-137500J0D01*
G01*
X154675500Y-68642000D01*
G75*
G02*
X154538000Y-68504500I0J137500D01*
G01*
X154538000Y-66779500D01*
G75*
G02*
X154675500Y-66642000I137500J0D01*
G01*
G37*
%TD.AperFunction*%
%TO.P,J1,14*%
%TO.N,Net-(J1-Pad14)*%
%TA.AperFunction,SMDPad,CuDef*%
G36*
G01*
X155945500Y-57342000D02*
X156220500Y-57342000D01*
G75*
G02*
X156358000Y-57479500I0J-137500D01*
G01*
X156358000Y-59204500D01*
G75*
G02*
X156220500Y-59342000I-137500J0D01*
G01*
X155945500Y-59342000D01*
G75*
G02*
X155808000Y-59204500I0J137500D01*
G01*
X155808000Y-57479500D01*
G75*
G02*
X155945500Y-57342000I137500J0D01*
G01*
G37*
%TD.AperFunction*%
%TO.P,J1,13*%
%TO.N,Net-(J1-Pad13)*%
%TA.AperFunction,SMDPad,CuDef*%
G36*
G01*
X154675500Y-57342000D02*
X154950500Y-57342000D01*
G75*
G02*
X155088000Y-57479500I0J-137500D01*
G01*
X155088000Y-59204500D01*
G75*
G02*
X154950500Y-59342000I-137500J0D01*
G01*
X154675500Y-59342000D01*
G75*
G02*
X154538000Y-59204500I0J137500D01*
G01*
X154538000Y-57479500D01*
G75*
G02*
X154675500Y-57342000I137500J0D01*
G01*
G37*
%TD.AperFunction*%
%TO.P,J1,28*%
%TO.N,+5V*%
%TA.AperFunction,SMDPad,CuDef*%
G36*
G01*
X139435500Y-66642000D02*
X139710500Y-66642000D01*
G75*
G02*
X139848000Y-66779500I0J-137500D01*
G01*
X139848000Y-68504500D01*
G75*
G02*
X139710500Y-68642000I-137500J0D01*
G01*
X139435500Y-68642000D01*
G75*
G02*
X139298000Y-68504500I0J137500D01*
G01*
X139298000Y-66779500D01*
G75*
G02*
X139435500Y-66642000I137500J0D01*
G01*
G37*
%TD.AperFunction*%
%TO.P,J1,27*%
%TO.N,SDA*%
%TA.AperFunction,SMDPad,CuDef*%
G36*
G01*
X140705500Y-66642000D02*
X140980500Y-66642000D01*
G75*
G02*
X141118000Y-66779500I0J-137500D01*
G01*
X141118000Y-68504500D01*
G75*
G02*
X140980500Y-68642000I-137500J0D01*
G01*
X140705500Y-68642000D01*
G75*
G02*
X140568000Y-68504500I0J137500D01*
G01*
X140568000Y-66779500D01*
G75*
G02*
X140705500Y-66642000I137500J0D01*
G01*
G37*
%TD.AperFunction*%
%TO.P,J1,26*%
%TO.N,SCL*%
%TA.AperFunction,SMDPad,CuDef*%
G36*
G01*
X141975500Y-66642000D02*
X142250500Y-66642000D01*
G75*
G02*
X142388000Y-66779500I0J-137500D01*
G01*
X142388000Y-68504500D01*
G75*
G02*
X142250500Y-68642000I-137500J0D01*
G01*
X141975500Y-68642000D01*
G75*
G02*
X141838000Y-68504500I0J137500D01*
G01*
X141838000Y-66779500D01*
G75*
G02*
X141975500Y-66642000I137500J0D01*
G01*
G37*
%TD.AperFunction*%
%TO.P,J1,25*%
%TO.N,/A_1*%
%TA.AperFunction,SMDPad,CuDef*%
G36*
G01*
X143245500Y-66642000D02*
X143520500Y-66642000D01*
G75*
G02*
X143658000Y-66779500I0J-137500D01*
G01*
X143658000Y-68504500D01*
G75*
G02*
X143520500Y-68642000I-137500J0D01*
G01*
X143245500Y-68642000D01*
G75*
G02*
X143108000Y-68504500I0J137500D01*
G01*
X143108000Y-66779500D01*
G75*
G02*
X143245500Y-66642000I137500J0D01*
G01*
G37*
%TD.AperFunction*%
%TO.P,J1,24*%
%TO.N,/B_1*%
%TA.AperFunction,SMDPad,CuDef*%
G36*
G01*
X144515500Y-66642000D02*
X144790500Y-66642000D01*
G75*
G02*
X144928000Y-66779500I0J-137500D01*
G01*
X144928000Y-68504500D01*
G75*
G02*
X144790500Y-68642000I-137500J0D01*
G01*
X144515500Y-68642000D01*
G75*
G02*
X144378000Y-68504500I0J137500D01*
G01*
X144378000Y-66779500D01*
G75*
G02*
X144515500Y-66642000I137500J0D01*
G01*
G37*
%TD.AperFunction*%
%TO.P,J1,23*%
%TO.N,/C_1*%
%TA.AperFunction,SMDPad,CuDef*%
G36*
G01*
X145785500Y-66642000D02*
X146060500Y-66642000D01*
G75*
G02*
X146198000Y-66779500I0J-137500D01*
G01*
X146198000Y-68504500D01*
G75*
G02*
X146060500Y-68642000I-137500J0D01*
G01*
X145785500Y-68642000D01*
G75*
G02*
X145648000Y-68504500I0J137500D01*
G01*
X145648000Y-66779500D01*
G75*
G02*
X145785500Y-66642000I137500J0D01*
G01*
G37*
%TD.AperFunction*%
%TO.P,J1,22*%
%TO.N,/D_1*%
%TA.AperFunction,SMDPad,CuDef*%
G36*
G01*
X147055500Y-66642000D02*
X147330500Y-66642000D01*
G75*
G02*
X147468000Y-66779500I0J-137500D01*
G01*
X147468000Y-68504500D01*
G75*
G02*
X147330500Y-68642000I-137500J0D01*
G01*
X147055500Y-68642000D01*
G75*
G02*
X146918000Y-68504500I0J137500D01*
G01*
X146918000Y-66779500D01*
G75*
G02*
X147055500Y-66642000I137500J0D01*
G01*
G37*
%TD.AperFunction*%
%TO.P,J1,21*%
%TO.N,/E_1*%
%TA.AperFunction,SMDPad,CuDef*%
G36*
G01*
X148325500Y-66642000D02*
X148600500Y-66642000D01*
G75*
G02*
X148738000Y-66779500I0J-137500D01*
G01*
X148738000Y-68504500D01*
G75*
G02*
X148600500Y-68642000I-137500J0D01*
G01*
X148325500Y-68642000D01*
G75*
G02*
X148188000Y-68504500I0J137500D01*
G01*
X148188000Y-66779500D01*
G75*
G02*
X148325500Y-66642000I137500J0D01*
G01*
G37*
%TD.AperFunction*%
%TO.P,J1,20*%
%TO.N,/F_1*%
%TA.AperFunction,SMDPad,CuDef*%
G36*
G01*
X149595500Y-66642000D02*
X149870500Y-66642000D01*
G75*
G02*
X150008000Y-66779500I0J-137500D01*
G01*
X150008000Y-68504500D01*
G75*
G02*
X149870500Y-68642000I-137500J0D01*
G01*
X149595500Y-68642000D01*
G75*
G02*
X149458000Y-68504500I0J137500D01*
G01*
X149458000Y-66779500D01*
G75*
G02*
X149595500Y-66642000I137500J0D01*
G01*
G37*
%TD.AperFunction*%
%TO.P,J1,19*%
%TO.N,/G_1*%
%TA.AperFunction,SMDPad,CuDef*%
G36*
G01*
X150865500Y-66642000D02*
X151140500Y-66642000D01*
G75*
G02*
X151278000Y-66779500I0J-137500D01*
G01*
X151278000Y-68504500D01*
G75*
G02*
X151140500Y-68642000I-137500J0D01*
G01*
X150865500Y-68642000D01*
G75*
G02*
X150728000Y-68504500I0J137500D01*
G01*
X150728000Y-66779500D01*
G75*
G02*
X150865500Y-66642000I137500J0D01*
G01*
G37*
%TD.AperFunction*%
%TO.P,J1,18*%
%TO.N,/DP_1*%
%TA.AperFunction,SMDPad,CuDef*%
G36*
G01*
X152135500Y-66642000D02*
X152410500Y-66642000D01*
G75*
G02*
X152548000Y-66779500I0J-137500D01*
G01*
X152548000Y-68504500D01*
G75*
G02*
X152410500Y-68642000I-137500J0D01*
G01*
X152135500Y-68642000D01*
G75*
G02*
X151998000Y-68504500I0J137500D01*
G01*
X151998000Y-66779500D01*
G75*
G02*
X152135500Y-66642000I137500J0D01*
G01*
G37*
%TD.AperFunction*%
%TO.P,J1,17*%
%TO.N,Net-(J1-Pad17)*%
%TA.AperFunction,SMDPad,CuDef*%
G36*
G01*
X153405500Y-66642000D02*
X153680500Y-66642000D01*
G75*
G02*
X153818000Y-66779500I0J-137500D01*
G01*
X153818000Y-68504500D01*
G75*
G02*
X153680500Y-68642000I-137500J0D01*
G01*
X153405500Y-68642000D01*
G75*
G02*
X153268000Y-68504500I0J137500D01*
G01*
X153268000Y-66779500D01*
G75*
G02*
X153405500Y-66642000I137500J0D01*
G01*
G37*
%TD.AperFunction*%
%TO.P,J1,12*%
%TO.N,Net-(J1-Pad12)*%
%TA.AperFunction,SMDPad,CuDef*%
G36*
G01*
X153405500Y-57342000D02*
X153680500Y-57342000D01*
G75*
G02*
X153818000Y-57479500I0J-137500D01*
G01*
X153818000Y-59204500D01*
G75*
G02*
X153680500Y-59342000I-137500J0D01*
G01*
X153405500Y-59342000D01*
G75*
G02*
X153268000Y-59204500I0J137500D01*
G01*
X153268000Y-57479500D01*
G75*
G02*
X153405500Y-57342000I137500J0D01*
G01*
G37*
%TD.AperFunction*%
%TO.P,J1,11*%
%TO.N,Net-(J1-Pad11)*%
%TA.AperFunction,SMDPad,CuDef*%
G36*
G01*
X152135500Y-57342000D02*
X152410500Y-57342000D01*
G75*
G02*
X152548000Y-57479500I0J-137500D01*
G01*
X152548000Y-59204500D01*
G75*
G02*
X152410500Y-59342000I-137500J0D01*
G01*
X152135500Y-59342000D01*
G75*
G02*
X151998000Y-59204500I0J137500D01*
G01*
X151998000Y-57479500D01*
G75*
G02*
X152135500Y-57342000I137500J0D01*
G01*
G37*
%TD.AperFunction*%
%TO.P,J1,10*%
%TO.N,Net-(J1-Pad10)*%
%TA.AperFunction,SMDPad,CuDef*%
G36*
G01*
X150865500Y-57342000D02*
X151140500Y-57342000D01*
G75*
G02*
X151278000Y-57479500I0J-137500D01*
G01*
X151278000Y-59204500D01*
G75*
G02*
X151140500Y-59342000I-137500J0D01*
G01*
X150865500Y-59342000D01*
G75*
G02*
X150728000Y-59204500I0J137500D01*
G01*
X150728000Y-57479500D01*
G75*
G02*
X150865500Y-57342000I137500J0D01*
G01*
G37*
%TD.AperFunction*%
%TO.P,J1,9*%
%TO.N,Net-(J1-Pad9)*%
%TA.AperFunction,SMDPad,CuDef*%
G36*
G01*
X149595500Y-57342000D02*
X149870500Y-57342000D01*
G75*
G02*
X150008000Y-57479500I0J-137500D01*
G01*
X150008000Y-59204500D01*
G75*
G02*
X149870500Y-59342000I-137500J0D01*
G01*
X149595500Y-59342000D01*
G75*
G02*
X149458000Y-59204500I0J137500D01*
G01*
X149458000Y-57479500D01*
G75*
G02*
X149595500Y-57342000I137500J0D01*
G01*
G37*
%TD.AperFunction*%
%TO.P,J1,8*%
%TO.N,Net-(J1-Pad8)*%
%TA.AperFunction,SMDPad,CuDef*%
G36*
G01*
X148325500Y-57342000D02*
X148600500Y-57342000D01*
G75*
G02*
X148738000Y-57479500I0J-137500D01*
G01*
X148738000Y-59204500D01*
G75*
G02*
X148600500Y-59342000I-137500J0D01*
G01*
X148325500Y-59342000D01*
G75*
G02*
X148188000Y-59204500I0J137500D01*
G01*
X148188000Y-57479500D01*
G75*
G02*
X148325500Y-57342000I137500J0D01*
G01*
G37*
%TD.AperFunction*%
%TO.P,J1,7*%
%TO.N,Net-(J1-Pad7)*%
%TA.AperFunction,SMDPad,CuDef*%
G36*
G01*
X147055500Y-57342000D02*
X147330500Y-57342000D01*
G75*
G02*
X147468000Y-57479500I0J-137500D01*
G01*
X147468000Y-59204500D01*
G75*
G02*
X147330500Y-59342000I-137500J0D01*
G01*
X147055500Y-59342000D01*
G75*
G02*
X146918000Y-59204500I0J137500D01*
G01*
X146918000Y-57479500D01*
G75*
G02*
X147055500Y-57342000I137500J0D01*
G01*
G37*
%TD.AperFunction*%
%TO.P,J1,6*%
%TO.N,/7_SEG_5*%
%TA.AperFunction,SMDPad,CuDef*%
G36*
G01*
X145785500Y-57342000D02*
X146060500Y-57342000D01*
G75*
G02*
X146198000Y-57479500I0J-137500D01*
G01*
X146198000Y-59204500D01*
G75*
G02*
X146060500Y-59342000I-137500J0D01*
G01*
X145785500Y-59342000D01*
G75*
G02*
X145648000Y-59204500I0J137500D01*
G01*
X145648000Y-57479500D01*
G75*
G02*
X145785500Y-57342000I137500J0D01*
G01*
G37*
%TD.AperFunction*%
%TO.P,J1,5*%
%TO.N,/7_SEG_4*%
%TA.AperFunction,SMDPad,CuDef*%
G36*
G01*
X144515500Y-57342000D02*
X144790500Y-57342000D01*
G75*
G02*
X144928000Y-57479500I0J-137500D01*
G01*
X144928000Y-59204500D01*
G75*
G02*
X144790500Y-59342000I-137500J0D01*
G01*
X144515500Y-59342000D01*
G75*
G02*
X144378000Y-59204500I0J137500D01*
G01*
X144378000Y-57479500D01*
G75*
G02*
X144515500Y-57342000I137500J0D01*
G01*
G37*
%TD.AperFunction*%
%TO.P,J1,4*%
%TO.N,/7_SEG_3*%
%TA.AperFunction,SMDPad,CuDef*%
G36*
G01*
X143245500Y-57342000D02*
X143520500Y-57342000D01*
G75*
G02*
X143658000Y-57479500I0J-137500D01*
G01*
X143658000Y-59204500D01*
G75*
G02*
X143520500Y-59342000I-137500J0D01*
G01*
X143245500Y-59342000D01*
G75*
G02*
X143108000Y-59204500I0J137500D01*
G01*
X143108000Y-57479500D01*
G75*
G02*
X143245500Y-57342000I137500J0D01*
G01*
G37*
%TD.AperFunction*%
%TO.P,J1,3*%
%TO.N,/7_SEG_2*%
%TA.AperFunction,SMDPad,CuDef*%
G36*
G01*
X141975500Y-57342000D02*
X142250500Y-57342000D01*
G75*
G02*
X142388000Y-57479500I0J-137500D01*
G01*
X142388000Y-59204500D01*
G75*
G02*
X142250500Y-59342000I-137500J0D01*
G01*
X141975500Y-59342000D01*
G75*
G02*
X141838000Y-59204500I0J137500D01*
G01*
X141838000Y-57479500D01*
G75*
G02*
X141975500Y-57342000I137500J0D01*
G01*
G37*
%TD.AperFunction*%
%TO.P,J1,2*%
%TO.N,/7_SEG_1*%
%TA.AperFunction,SMDPad,CuDef*%
G36*
G01*
X140705500Y-57342000D02*
X140980500Y-57342000D01*
G75*
G02*
X141118000Y-57479500I0J-137500D01*
G01*
X141118000Y-59204500D01*
G75*
G02*
X140980500Y-59342000I-137500J0D01*
G01*
X140705500Y-59342000D01*
G75*
G02*
X140568000Y-59204500I0J137500D01*
G01*
X140568000Y-57479500D01*
G75*
G02*
X140705500Y-57342000I137500J0D01*
G01*
G37*
%TD.AperFunction*%
%TO.P,J1,1*%
%TO.N,GND*%
%TA.AperFunction,SMDPad,CuDef*%
G36*
G01*
X139435500Y-57342000D02*
X139710500Y-57342000D01*
G75*
G02*
X139848000Y-57479500I0J-137500D01*
G01*
X139848000Y-59204500D01*
G75*
G02*
X139710500Y-59342000I-137500J0D01*
G01*
X139435500Y-59342000D01*
G75*
G02*
X139298000Y-59204500I0J137500D01*
G01*
X139298000Y-57479500D01*
G75*
G02*
X139435500Y-57342000I137500J0D01*
G01*
G37*
%TD.AperFunction*%
%TD*%
D10*
%TO.P,D1,10*%
%TO.N,/G_1*%
X95150000Y-39370000D03*
%TO.P,D1,9*%
%TO.N,/F_1*%
X97690000Y-39370000D03*
%TO.P,D1,8*%
%TO.N,/7_SEG_1*%
X100230000Y-39370000D03*
%TO.P,D1,7*%
%TO.N,/A_1*%
X102770000Y-39370000D03*
%TO.P,D1,6*%
%TO.N,/B_1*%
X105310000Y-39370000D03*
%TO.P,D1,5*%
%TO.N,/DP_1*%
X105310000Y-54610000D03*
%TO.P,D1,4*%
%TO.N,/C_1*%
X102770000Y-54610000D03*
%TO.P,D1,3*%
%TO.N,/7_SEG_1*%
X100230000Y-54610000D03*
%TO.P,D1,2*%
%TO.N,/D_1*%
X97690000Y-54610000D03*
D11*
%TO.P,D1,1*%
%TO.N,/E_1*%
X95150000Y-54610000D03*
%TD*%
D17*
%TO.P,H4,1*%
%TO.N,GND*%
X162560000Y-99060000D03*
%TD*%
%TO.P,H3,1*%
%TO.N,GND*%
X162560000Y-33020000D03*
%TD*%
%TO.P,H2,1*%
%TO.N,GND*%
X88900000Y-99060000D03*
%TD*%
%TO.P,H1,1*%
%TO.N,GND*%
X88900000Y-33020000D03*
%TD*%
D10*
%TO.P,D10,10*%
%TO.N,/G_2*%
X146120000Y-71580000D03*
%TO.P,D10,9*%
%TO.N,/F_2*%
X148660000Y-71580000D03*
%TO.P,D10,8*%
%TO.N,/7_SEG_10*%
X151200000Y-71580000D03*
%TO.P,D10,7*%
%TO.N,/A_2*%
X153740000Y-71580000D03*
%TO.P,D10,6*%
%TO.N,/B_2*%
X156280000Y-71580000D03*
%TO.P,D10,5*%
%TO.N,/DP_2*%
X156280000Y-86820000D03*
%TO.P,D10,4*%
%TO.N,/C_2*%
X153740000Y-86820000D03*
%TO.P,D10,3*%
%TO.N,/7_SEG_10*%
X151200000Y-86820000D03*
%TO.P,D10,2*%
%TO.N,/D_2*%
X148660000Y-86820000D03*
D11*
%TO.P,D10,1*%
%TO.N,/E_2*%
X146120000Y-86820000D03*
%TD*%
D10*
%TO.P,D5,10*%
%TO.N,/G_1*%
X146020000Y-39380000D03*
%TO.P,D5,9*%
%TO.N,/F_1*%
X148560000Y-39380000D03*
%TO.P,D5,8*%
%TO.N,/7_SEG_5*%
X151100000Y-39380000D03*
%TO.P,D5,7*%
%TO.N,/A_1*%
X153640000Y-39380000D03*
%TO.P,D5,6*%
%TO.N,/B_1*%
X156180000Y-39380000D03*
%TO.P,D5,5*%
%TO.N,/DP_1*%
X156180000Y-54620000D03*
%TO.P,D5,4*%
%TO.N,/C_1*%
X153640000Y-54620000D03*
%TO.P,D5,3*%
%TO.N,/7_SEG_5*%
X151100000Y-54620000D03*
%TO.P,D5,2*%
%TO.N,/D_1*%
X148560000Y-54620000D03*
D11*
%TO.P,D5,1*%
%TO.N,/E_1*%
X146020000Y-54620000D03*
%TD*%
D10*
%TO.P,D9,10*%
%TO.N,/G_2*%
X133420000Y-71580000D03*
%TO.P,D9,9*%
%TO.N,/F_2*%
X135960000Y-71580000D03*
%TO.P,D9,8*%
%TO.N,/7_SEG_9*%
X138500000Y-71580000D03*
%TO.P,D9,7*%
%TO.N,/A_2*%
X141040000Y-71580000D03*
%TO.P,D9,6*%
%TO.N,/B_2*%
X143580000Y-71580000D03*
%TO.P,D9,5*%
%TO.N,/DP_2*%
X143580000Y-86820000D03*
%TO.P,D9,4*%
%TO.N,/C_2*%
X141040000Y-86820000D03*
%TO.P,D9,3*%
%TO.N,/7_SEG_9*%
X138500000Y-86820000D03*
%TO.P,D9,2*%
%TO.N,/D_2*%
X135960000Y-86820000D03*
D11*
%TO.P,D9,1*%
%TO.N,/E_2*%
X133420000Y-86820000D03*
%TD*%
D10*
%TO.P,D8,10*%
%TO.N,/G_2*%
X120720000Y-71580000D03*
%TO.P,D8,9*%
%TO.N,/F_2*%
X123260000Y-71580000D03*
%TO.P,D8,8*%
%TO.N,/7_SEG_8*%
X125800000Y-71580000D03*
%TO.P,D8,7*%
%TO.N,/A_2*%
X128340000Y-71580000D03*
%TO.P,D8,6*%
%TO.N,/B_2*%
X130880000Y-71580000D03*
%TO.P,D8,5*%
%TO.N,/DP_2*%
X130880000Y-86820000D03*
%TO.P,D8,4*%
%TO.N,/C_2*%
X128340000Y-86820000D03*
%TO.P,D8,3*%
%TO.N,/7_SEG_8*%
X125800000Y-86820000D03*
%TO.P,D8,2*%
%TO.N,/D_2*%
X123260000Y-86820000D03*
D11*
%TO.P,D8,1*%
%TO.N,/E_2*%
X120720000Y-86820000D03*
%TD*%
D10*
%TO.P,D3,10*%
%TO.N,/G_1*%
X120620000Y-39380000D03*
%TO.P,D3,9*%
%TO.N,/F_1*%
X123160000Y-39380000D03*
%TO.P,D3,8*%
%TO.N,/7_SEG_3*%
X125700000Y-39380000D03*
%TO.P,D3,7*%
%TO.N,/A_1*%
X128240000Y-39380000D03*
%TO.P,D3,6*%
%TO.N,/B_1*%
X130780000Y-39380000D03*
%TO.P,D3,5*%
%TO.N,/DP_1*%
X130780000Y-54620000D03*
%TO.P,D3,4*%
%TO.N,/C_1*%
X128240000Y-54620000D03*
%TO.P,D3,3*%
%TO.N,/7_SEG_3*%
X125700000Y-54620000D03*
%TO.P,D3,2*%
%TO.N,/D_1*%
X123160000Y-54620000D03*
D11*
%TO.P,D3,1*%
%TO.N,/E_1*%
X120620000Y-54620000D03*
%TD*%
D10*
%TO.P,D7,10*%
%TO.N,/G_2*%
X107920000Y-71580000D03*
%TO.P,D7,9*%
%TO.N,/F_2*%
X110460000Y-71580000D03*
%TO.P,D7,8*%
%TO.N,/7_SEG_7*%
X113000000Y-71580000D03*
%TO.P,D7,7*%
%TO.N,/A_2*%
X115540000Y-71580000D03*
%TO.P,D7,6*%
%TO.N,/B_2*%
X118080000Y-71580000D03*
%TO.P,D7,5*%
%TO.N,/DP_2*%
X118080000Y-86820000D03*
%TO.P,D7,4*%
%TO.N,/C_2*%
X115540000Y-86820000D03*
%TO.P,D7,3*%
%TO.N,/7_SEG_7*%
X113000000Y-86820000D03*
%TO.P,D7,2*%
%TO.N,/D_2*%
X110460000Y-86820000D03*
D11*
%TO.P,D7,1*%
%TO.N,/E_2*%
X107920000Y-86820000D03*
%TD*%
D10*
%TO.P,D2,10*%
%TO.N,/G_1*%
X107920000Y-39380000D03*
%TO.P,D2,9*%
%TO.N,/F_1*%
X110460000Y-39380000D03*
%TO.P,D2,8*%
%TO.N,/7_SEG_2*%
X113000000Y-39380000D03*
%TO.P,D2,7*%
%TO.N,/A_1*%
X115540000Y-39380000D03*
%TO.P,D2,6*%
%TO.N,/B_1*%
X118080000Y-39380000D03*
%TO.P,D2,5*%
%TO.N,/DP_1*%
X118080000Y-54620000D03*
%TO.P,D2,4*%
%TO.N,/C_1*%
X115540000Y-54620000D03*
%TO.P,D2,3*%
%TO.N,/7_SEG_2*%
X113000000Y-54620000D03*
%TO.P,D2,2*%
%TO.N,/D_1*%
X110460000Y-54620000D03*
D11*
%TO.P,D2,1*%
%TO.N,/E_1*%
X107920000Y-54620000D03*
%TD*%
D10*
%TO.P,D6,10*%
%TO.N,/G_2*%
X95220000Y-71580000D03*
%TO.P,D6,9*%
%TO.N,/F_2*%
X97760000Y-71580000D03*
%TO.P,D6,8*%
%TO.N,/7_SEG_6*%
X100300000Y-71580000D03*
%TO.P,D6,7*%
%TO.N,/A_2*%
X102840000Y-71580000D03*
%TO.P,D6,6*%
%TO.N,/B_2*%
X105380000Y-71580000D03*
%TO.P,D6,5*%
%TO.N,/DP_2*%
X105380000Y-86820000D03*
%TO.P,D6,4*%
%TO.N,/C_2*%
X102840000Y-86820000D03*
%TO.P,D6,3*%
%TO.N,/7_SEG_6*%
X100300000Y-86820000D03*
%TO.P,D6,2*%
%TO.N,/D_2*%
X97760000Y-86820000D03*
D11*
%TO.P,D6,1*%
%TO.N,/E_2*%
X95220000Y-86820000D03*
%TD*%
D18*
%TO.P,J3,4*%
%TO.N,SCL*%
X140820000Y-97490000D03*
%TO.P,J3,3*%
%TO.N,SDA*%
X138320000Y-97490000D03*
%TO.P,J3,2*%
%TO.N,+5V*%
X135820000Y-97490000D03*
%TO.P,J3,1*%
%TO.N,GND*%
%TA.AperFunction,ComponentPad*%
G36*
G01*
X132470000Y-98215000D02*
X132470000Y-96765000D01*
G75*
G02*
X132720000Y-96515000I250000J0D01*
G01*
X133920000Y-96515000D01*
G75*
G02*
X134170000Y-96765000I0J-250000D01*
G01*
X134170000Y-98215000D01*
G75*
G02*
X133920000Y-98465000I-250000J0D01*
G01*
X132720000Y-98465000D01*
G75*
G02*
X132470000Y-98215000I0J250000D01*
G01*
G37*
%TD.AperFunction*%
%TD*%
%TO.P,J2,4*%
%TO.N,SCL*%
X116690000Y-97490000D03*
%TO.P,J2,3*%
%TO.N,SDA*%
X114190000Y-97490000D03*
%TO.P,J2,2*%
%TO.N,+5V*%
X111690000Y-97490000D03*
%TO.P,J2,1*%
%TO.N,GND*%
%TA.AperFunction,ComponentPad*%
G36*
G01*
X108340000Y-98215000D02*
X108340000Y-96765000D01*
G75*
G02*
X108590000Y-96515000I250000J0D01*
G01*
X109790000Y-96515000D01*
G75*
G02*
X110040000Y-96765000I0J-250000D01*
G01*
X110040000Y-98215000D01*
G75*
G02*
X109790000Y-98465000I-250000J0D01*
G01*
X108590000Y-98465000D01*
G75*
G02*
X108340000Y-98215000I0J250000D01*
G01*
G37*
%TD.AperFunction*%
%TD*%
D19*
%TO.N,SCL*%
X140970000Y-91440000D03*
X116690000Y-91590000D03*
X97790000Y-69850000D03*
X99060000Y-91440000D03*
X147320000Y-69850000D03*
X147320000Y-91440000D03*
%TO.N,SDA*%
X114300000Y-92710000D03*
X138430000Y-92710000D03*
X96520000Y-69850000D03*
X96520000Y-92710000D03*
X144780000Y-69850000D03*
X144780000Y-92710000D03*
D20*
%TO.N,+5V*%
X135890000Y-93980000D03*
X111760000Y-93980000D03*
X91440000Y-67310000D03*
X162560000Y-93980000D03*
X162560000Y-68834000D03*
X91440000Y-90932000D03*
%TO.N,GND*%
X137160000Y-58166000D03*
D19*
%TO.N,/A_1*%
X147320000Y-44450000D03*
X153670000Y-44450000D03*
X102870000Y-44450000D03*
X115570000Y-44450000D03*
X128270000Y-44450000D03*
X140970000Y-44450000D03*
X143764000Y-56388000D03*
X147320000Y-55449999D03*
X143256000Y-65024000D03*
%TO.N,/B_1*%
X153551346Y-70340270D03*
X149860000Y-71120000D03*
X154940000Y-43180000D03*
X105410000Y-43180000D03*
X118110000Y-43180000D03*
X130810000Y-43180000D03*
X143510000Y-43180000D03*
X144780000Y-64516000D03*
X144780000Y-60960000D03*
X155200999Y-60966999D03*
%TO.N,/C_1*%
X153670000Y-48260000D03*
X102870000Y-48260000D03*
X115570000Y-48260000D03*
X128270000Y-48260000D03*
X140970000Y-48260000D03*
X146050000Y-65532000D03*
%TO.N,/D_1*%
X148590000Y-49530000D03*
X97790000Y-49530000D03*
X110490000Y-49530000D03*
X123190000Y-49530000D03*
X135890000Y-49530000D03*
X154365000Y-52070000D03*
X148560000Y-52100000D03*
X147320000Y-63500000D03*
%TO.N,/E_1*%
X146050000Y-50800000D03*
X95250000Y-50800000D03*
X107950000Y-50800000D03*
X120650000Y-50800000D03*
X133350000Y-50800000D03*
X148336000Y-65786000D03*
%TO.N,/F_1*%
X148590000Y-41910000D03*
X97790000Y-41910000D03*
X110490000Y-41910000D03*
X123190000Y-41910000D03*
X135890000Y-41910000D03*
X149860000Y-65786000D03*
%TO.N,/G_1*%
X157480000Y-45720000D03*
X95250000Y-45720000D03*
X107950000Y-45720000D03*
X120650000Y-45720000D03*
X133350000Y-45720000D03*
X146050000Y-45720000D03*
X157480000Y-69342000D03*
%TO.N,/DP_1*%
X156210000Y-46990000D03*
X105410000Y-46990000D03*
X118110000Y-46990000D03*
X130810000Y-46990000D03*
X143510000Y-46990000D03*
X156210000Y-64262000D03*
%TO.N,/7_SEG_4*%
X138430000Y-61214000D03*
%TO.N,/7_SEG_2*%
X115316000Y-56896000D03*
%TO.N,/7_SEG_1*%
X140208000Y-69596000D03*
X140716000Y-59944000D03*
X101854000Y-56134000D03*
%TO.N,/A_2*%
X153670000Y-77470000D03*
X102870000Y-77470000D03*
X115570000Y-77470000D03*
X128270000Y-77470000D03*
X140970000Y-77470000D03*
X152400000Y-77470000D03*
X102870000Y-64262000D03*
%TO.N,/B_2*%
X156210000Y-78740000D03*
X105410000Y-78740000D03*
X118110000Y-78740000D03*
X130810000Y-78740000D03*
X143510000Y-78740000D03*
X103886000Y-65024000D03*
%TO.N,/C_2*%
X153670000Y-81280000D03*
X102870000Y-81280000D03*
X104140000Y-81280000D03*
X115570000Y-81280000D03*
X128270000Y-81280000D03*
X140970000Y-81280000D03*
X103886000Y-70612000D03*
X132334000Y-81280000D03*
%TO.N,/D_2*%
X148590000Y-82550000D03*
X97790000Y-82550000D03*
X135890000Y-82550000D03*
X123190000Y-82550000D03*
X110490000Y-82550000D03*
X101600000Y-82550000D03*
X101600000Y-69850000D03*
%TO.N,/E_2*%
X146050000Y-83820000D03*
X95250000Y-83820000D03*
X107950000Y-83820000D03*
X120650000Y-83820000D03*
X133350000Y-83820000D03*
X106680000Y-71120000D03*
%TO.N,/F_2*%
X148590000Y-76200000D03*
X97790000Y-76200000D03*
X110490000Y-76200000D03*
X123190000Y-76200000D03*
X135890000Y-76200000D03*
X110490000Y-69850000D03*
%TO.N,/G_2*%
X146050000Y-74930000D03*
X95250000Y-74930000D03*
X107950000Y-74930000D03*
X120650000Y-74930000D03*
X133350000Y-74930000D03*
X106426000Y-68834000D03*
%TO.N,/DP_2*%
X156210000Y-80010000D03*
X105410000Y-80010000D03*
X111760000Y-80010000D03*
X118110000Y-80010000D03*
X130810000Y-80010000D03*
X143510000Y-80010000D03*
X111506000Y-69088000D03*
%TO.N,/7_SEG_10*%
X151130000Y-74168000D03*
X109220000Y-74168000D03*
X109220000Y-60452000D03*
%TO.N,/7_SEG_9*%
X137668000Y-63500000D03*
X101854000Y-63246000D03*
X101578847Y-60473153D03*
%TO.N,/7_SEG_8*%
X100330000Y-62230000D03*
X99822000Y-60198000D03*
X124714000Y-62230000D03*
%TO.N,/7_SEG_7*%
X112522000Y-61214000D03*
%TO.N,/7_SEG_6*%
X100330000Y-95250000D03*
X96266000Y-60198000D03*
X88392000Y-73406000D03*
%TO.N,Net-(D11-Pad1)*%
X144780000Y-100076000D03*
X99314000Y-100076000D03*
%TO.N,Net-(D12-Pad1)*%
X158242000Y-104140000D03*
%TO.N,Net-(JP1-Pad1)*%
X153924000Y-88646000D03*
X134874000Y-88900000D03*
%TO.N,Net-(JP2-Pad1)*%
X151384000Y-89408000D03*
X129540000Y-89662000D03*
%TO.N,Net-(JP3-Pad1)*%
X148590000Y-90678000D03*
X127254000Y-90678000D03*
%TD*%
D21*
%TO.N,SCL*%
X116840000Y-91440000D02*
X116690000Y-91590000D01*
X140970000Y-91440000D02*
X116840000Y-91440000D01*
X97325000Y-69385000D02*
X97790000Y-69850000D01*
X116540000Y-91440000D02*
X116690000Y-91590000D01*
X99060000Y-91440000D02*
X116540000Y-91440000D01*
X147320000Y-91440000D02*
X140970000Y-91440000D01*
X97325000Y-67472000D02*
X97409000Y-67388000D01*
X97325000Y-69385000D02*
X97325000Y-67472000D01*
X142113000Y-68642000D02*
X142113000Y-67642000D01*
X146594999Y-69124999D02*
X142595999Y-69124999D01*
X142595999Y-69124999D02*
X142113000Y-68642000D01*
X147320000Y-69850000D02*
X146594999Y-69124999D01*
%TO.N,SDA*%
X114300000Y-92710000D02*
X138430000Y-92710000D01*
X96055000Y-69385000D02*
X96520000Y-69850000D01*
X96520000Y-92710000D02*
X114300000Y-92710000D01*
X144780000Y-92710000D02*
X138430000Y-92710000D01*
X144780000Y-69850000D02*
X141478000Y-69850000D01*
X140843000Y-69215000D02*
X140843000Y-67642000D01*
X141478000Y-69850000D02*
X140843000Y-69215000D01*
X96055000Y-67472000D02*
X96139000Y-67388000D01*
X96055000Y-69385000D02*
X96055000Y-67472000D01*
D22*
%TO.N,+5V*%
X135890000Y-93980000D02*
X111760000Y-93980000D01*
X135890000Y-93980000D02*
X162560000Y-93980000D01*
X94791000Y-67310000D02*
X94869000Y-67388000D01*
X91440000Y-67310000D02*
X94791000Y-67310000D01*
X139508000Y-67577000D02*
X139573000Y-67642000D01*
X156309999Y-62649999D02*
X162560000Y-68900000D01*
X143565001Y-62649999D02*
X156309999Y-62649999D01*
X139573000Y-66642000D02*
X143565001Y-62649999D01*
X139573000Y-67642000D02*
X139573000Y-66642000D01*
X136730000Y-67642000D02*
X135890000Y-66802000D01*
X139573000Y-67642000D02*
X136730000Y-67642000D01*
X94488000Y-93980000D02*
X91440000Y-90932000D01*
X94742000Y-93980000D02*
X94488000Y-93980000D01*
X111760000Y-93980000D02*
X94742000Y-93980000D01*
%TO.N,GND*%
X88900000Y-59690000D02*
X88900000Y-61762000D01*
X89675000Y-58915000D02*
X88900000Y-59690000D01*
X94042000Y-58915000D02*
X89675000Y-58915000D01*
X94869000Y-58088000D02*
X94042000Y-58915000D01*
X143275048Y-61949989D02*
X161102011Y-61949989D01*
X142623039Y-62601999D02*
X143275048Y-61949989D01*
X136689999Y-62601999D02*
X142623039Y-62601999D01*
X161102011Y-61949989D02*
X162560000Y-60492000D01*
X135890000Y-61802000D02*
X136689999Y-62601999D01*
X137336000Y-58342000D02*
X137160000Y-58166000D01*
X139573000Y-58342000D02*
X137336000Y-58342000D01*
D21*
%TO.N,/A_1*%
X147320000Y-44450000D02*
X153670000Y-44450000D01*
X128270000Y-44450000D02*
X102870000Y-44450000D01*
X140970000Y-44450000D02*
X128270000Y-44450000D01*
X147320000Y-44450000D02*
X140970000Y-44450000D01*
X147170998Y-55599001D02*
X147320000Y-55449999D01*
X144552999Y-55599001D02*
X147170998Y-55599001D01*
X143764000Y-56388000D02*
X144552999Y-55599001D01*
X143383000Y-65151000D02*
X143256000Y-65024000D01*
X143383000Y-67642000D02*
X143383000Y-65151000D01*
%TO.N,/B_1*%
X156180000Y-39380000D02*
X156200000Y-39380000D01*
X150639730Y-70340270D02*
X149860000Y-71120000D01*
X153551346Y-70340270D02*
X150639730Y-70340270D01*
X118110000Y-43180000D02*
X105410000Y-43180000D01*
X130810000Y-43180000D02*
X118110000Y-43180000D01*
X143510000Y-43180000D02*
X130810000Y-43180000D01*
X154940000Y-43180000D02*
X143510000Y-43180000D01*
X144653000Y-64643000D02*
X144780000Y-64516000D01*
X144653000Y-67642000D02*
X144653000Y-64643000D01*
X155194000Y-60960000D02*
X155200999Y-60966999D01*
X144780000Y-60960000D02*
X155194000Y-60960000D01*
%TO.N,/C_1*%
X128270000Y-48260000D02*
X102870000Y-48260000D01*
X140970000Y-48260000D02*
X128270000Y-48260000D01*
X153670000Y-48260000D02*
X140970000Y-48260000D01*
X145923000Y-65659000D02*
X146050000Y-65532000D01*
X145923000Y-67642000D02*
X145923000Y-65659000D01*
%TO.N,/D_1*%
X123190000Y-49530000D02*
X97790000Y-49530000D01*
X148590000Y-49530000D02*
X123190000Y-49530000D01*
X148590000Y-52070000D02*
X148560000Y-52100000D01*
X154365000Y-52070000D02*
X148590000Y-52070000D01*
X147193000Y-63627000D02*
X147320000Y-63500000D01*
X147193000Y-67642000D02*
X147193000Y-63627000D01*
%TO.N,/E_1*%
X146050000Y-50800000D02*
X95250000Y-50800000D01*
X148463000Y-65913000D02*
X148336000Y-65786000D01*
X148463000Y-67642000D02*
X148463000Y-65913000D01*
%TO.N,/F_1*%
X123190000Y-41910000D02*
X97790000Y-41910000D01*
X135890000Y-41910000D02*
X123190000Y-41910000D01*
X148590000Y-41910000D02*
X135890000Y-41910000D01*
X149733000Y-65913000D02*
X149860000Y-65786000D01*
X149733000Y-67642000D02*
X149733000Y-65913000D01*
%TO.N,/G_1*%
X107950000Y-45720000D02*
X95250000Y-45720000D01*
X120650000Y-45720000D02*
X107950000Y-45720000D01*
X157480000Y-45720000D02*
X120650000Y-45720000D01*
X151703000Y-69342000D02*
X157480000Y-69342000D01*
X151003000Y-68642000D02*
X151703000Y-69342000D01*
X151003000Y-67642000D02*
X151003000Y-68642000D01*
%TO.N,/DP_1*%
X130810000Y-46990000D02*
X105410000Y-46990000D01*
X143510000Y-46990000D02*
X130810000Y-46990000D01*
X156210000Y-46990000D02*
X143510000Y-46990000D01*
X152273000Y-66642000D02*
X154653000Y-64262000D01*
X152273000Y-67642000D02*
X152273000Y-66642000D01*
X154653000Y-64262000D02*
X156210000Y-64262000D01*
%TO.N,/7_SEG_5*%
X145923000Y-57342000D02*
X146623000Y-56642000D01*
X145923000Y-58342000D02*
X145923000Y-57342000D01*
X149078000Y-56642000D02*
X151100000Y-54620000D01*
X146623000Y-56642000D02*
X149078000Y-56642000D01*
%TO.N,/7_SEG_4*%
X144653000Y-59342000D02*
X144653000Y-58342000D01*
X142781000Y-61214000D02*
X144653000Y-59342000D01*
X138430000Y-61214000D02*
X142781000Y-61214000D01*
%TO.N,/7_SEG_3*%
X125700000Y-54620000D02*
X126960000Y-55880000D01*
X143383000Y-57342000D02*
X143383000Y-58342000D01*
X141921000Y-55880000D02*
X143383000Y-57342000D01*
X126960000Y-55880000D02*
X141921000Y-55880000D01*
%TO.N,/7_SEG_2*%
X142113000Y-57342000D02*
X142113000Y-58342000D01*
X141667000Y-56896000D02*
X142113000Y-57342000D01*
X115316000Y-56896000D02*
X141667000Y-56896000D01*
%TO.N,/7_SEG_1*%
X140716000Y-58469000D02*
X140843000Y-58342000D01*
X140716000Y-59944000D02*
X140716000Y-58469000D01*
X141187001Y-70575001D02*
X140208000Y-69596000D01*
X146086999Y-70575001D02*
X141187001Y-70575001D01*
X146112997Y-70600999D02*
X146086999Y-70575001D01*
X146589921Y-70600999D02*
X146112997Y-70600999D01*
X147574000Y-71585078D02*
X146589921Y-70600999D01*
X147574000Y-72898000D02*
X147574000Y-71585078D01*
X147916009Y-73240009D02*
X147574000Y-72898000D01*
X159218009Y-73240009D02*
X147916009Y-73240009D01*
X160020000Y-74042000D02*
X159218009Y-73240009D01*
X140462000Y-59690000D02*
X140716000Y-59944000D01*
X115107980Y-59690000D02*
X140462000Y-59690000D01*
X111551980Y-56134000D02*
X115107980Y-59690000D01*
X101854000Y-56134000D02*
X111551980Y-56134000D01*
X160020000Y-74042000D02*
X160020000Y-76200000D01*
%TO.N,/A_2*%
X153670000Y-77470000D02*
X152400000Y-77470000D01*
X152400000Y-77470000D02*
X102870000Y-77470000D01*
X98679000Y-66388000D02*
X98679000Y-67388000D01*
X100805000Y-64262000D02*
X98679000Y-66388000D01*
X102870000Y-64262000D02*
X100805000Y-64262000D01*
%TO.N,/B_2*%
X118110000Y-78740000D02*
X105410000Y-78740000D01*
X130810000Y-78740000D02*
X118110000Y-78740000D01*
X143510000Y-78740000D02*
X130810000Y-78740000D01*
X156210000Y-78740000D02*
X154686000Y-78740000D01*
X154686000Y-78740000D02*
X143510000Y-78740000D01*
X99949000Y-66388000D02*
X99949000Y-67388000D01*
X101313000Y-65024000D02*
X99949000Y-66388000D01*
X103886000Y-65024000D02*
X101313000Y-65024000D01*
%TO.N,/C_2*%
X100874999Y-67732001D02*
X101219000Y-67388000D01*
X100874999Y-70198001D02*
X100874999Y-67732001D01*
X101277997Y-70600999D02*
X100874999Y-70198001D01*
X103874999Y-70600999D02*
X101277997Y-70600999D01*
X103886000Y-70612000D02*
X103874999Y-70600999D01*
X132334000Y-81280000D02*
X102870000Y-81280000D01*
X153670000Y-81280000D02*
X132334000Y-81280000D01*
%TO.N,/D_2*%
X148590000Y-82550000D02*
X97790000Y-82550000D01*
X102489000Y-68961000D02*
X102489000Y-67388000D01*
X101600000Y-69850000D02*
X102489000Y-68961000D01*
%TO.N,/E_2*%
X107920000Y-85060000D02*
X107920000Y-86820000D01*
X146050000Y-83820000D02*
X95250000Y-83820000D01*
X120720000Y-83890000D02*
X120650000Y-83820000D01*
X120720000Y-86820000D02*
X120720000Y-83890000D01*
X103759000Y-68199000D02*
X103759000Y-67388000D01*
X106680000Y-71120000D02*
X103759000Y-68199000D01*
%TO.N,/F_2*%
X148590000Y-76200000D02*
X97790000Y-76200000D01*
X106368998Y-69850000D02*
X110490000Y-69850000D01*
X105029000Y-68510002D02*
X106368998Y-69850000D01*
X105029000Y-67388000D02*
X105029000Y-68510002D01*
%TO.N,/G_2*%
X107950000Y-74930000D02*
X95250000Y-74930000D01*
X146050000Y-74930000D02*
X107950000Y-74930000D01*
X106426000Y-67515000D02*
X106299000Y-67388000D01*
X106426000Y-68834000D02*
X106426000Y-67515000D01*
%TO.N,/DP_2*%
X111760000Y-80010000D02*
X105410000Y-80010000D01*
X130810000Y-80010000D02*
X111760000Y-80010000D01*
X156210000Y-80010000D02*
X130810000Y-80010000D01*
X107569000Y-68388000D02*
X107569000Y-67388000D01*
X108269000Y-69088000D02*
X107569000Y-68388000D01*
X111506000Y-69088000D02*
X108269000Y-69088000D01*
%TO.N,/7_SEG_10*%
X151130000Y-74168000D02*
X109220000Y-74168000D01*
X101219000Y-59088000D02*
X101219000Y-58088000D01*
X102583000Y-60452000D02*
X101219000Y-59088000D01*
X109220000Y-60452000D02*
X102583000Y-60452000D01*
%TO.N,/7_SEG_9*%
X102108000Y-63500000D02*
X101854000Y-63246000D01*
X137668000Y-63500000D02*
X102108000Y-63500000D01*
X99949000Y-58843306D02*
X99949000Y-58088000D01*
X101578847Y-60473153D02*
X99949000Y-58843306D01*
%TO.N,/7_SEG_8*%
X98679000Y-59055000D02*
X98679000Y-58088000D01*
X99822000Y-60198000D02*
X98679000Y-59055000D01*
X124714000Y-62230000D02*
X100330000Y-62230000D01*
%TO.N,/7_SEG_7*%
X112522000Y-61214000D02*
X98298000Y-61214000D01*
X97409000Y-60325000D02*
X97409000Y-58088000D01*
X98298000Y-61214000D02*
X97409000Y-60325000D01*
%TO.N,/7_SEG_6*%
X96266000Y-58215000D02*
X96139000Y-58088000D01*
X96266000Y-60198000D02*
X96266000Y-58215000D01*
X98474000Y-73406000D02*
X100300000Y-71580000D01*
X88392000Y-73406000D02*
X98474000Y-73406000D01*
%TO.N,Net-(D11-Pad1)*%
X148082000Y-103378000D02*
X154686000Y-103378000D01*
X99314000Y-100076000D02*
X144780000Y-100076000D01*
%TO.N,Net-(D12-Pad1)*%
X121666000Y-103378000D02*
X128270000Y-103378000D01*
X157878999Y-104503001D02*
X158242000Y-104140000D01*
X129395001Y-104503001D02*
X157878999Y-104503001D01*
X128270000Y-103378000D02*
X129395001Y-104503001D01*
%TO.N,Net-(JP1-Pad1)*%
X135128000Y-88646000D02*
X134874000Y-88900000D01*
X153924000Y-88646000D02*
X135128000Y-88646000D01*
%TO.N,Net-(JP2-Pad1)*%
X151130000Y-89662000D02*
X129540000Y-89662000D01*
X151384000Y-89408000D02*
X151130000Y-89662000D01*
%TO.N,Net-(JP3-Pad1)*%
X148590000Y-90678000D02*
X127254000Y-90678000D01*
%TD*%
M02*
