%TF.GenerationSoftware,KiCad,Pcbnew,5.1.9-73d0e3b20d~88~ubuntu20.04.1*%
%TF.CreationDate,2021-05-01T11:52:03+02:00*%
%TF.ProjectId,anna_elsa_credit_display,616e6e61-5f65-46c7-9361-5f6372656469,rev?*%
%TF.SameCoordinates,Original*%
%TF.FileFunction,Soldermask,Bot*%
%TF.FilePolarity,Negative*%
%FSLAX46Y46*%
G04 Gerber Fmt 4.6, Leading zero omitted, Abs format (unit mm)*
G04 Created by KiCad (PCBNEW 5.1.9-73d0e3b20d~88~ubuntu20.04.1) date 2021-05-01 11:52:03*
%MOMM*%
%LPD*%
G01*
G04 APERTURE LIST*
%ADD10C,1.308000*%
%ADD11R,1.308000X1.308000*%
%ADD12O,1.800000X1.800000*%
%ADD13R,1.800000X1.800000*%
%ADD14O,1.600000X1.600000*%
%ADD15C,1.600000*%
%ADD16R,1.600000X1.600000*%
%ADD17C,6.400000*%
%ADD18O,1.700000X1.950000*%
G04 APERTURE END LIST*
D10*
%TO.C,D4*%
X133320000Y-39380000D03*
X135860000Y-39380000D03*
X138400000Y-39380000D03*
X140940000Y-39380000D03*
X143480000Y-39380000D03*
X143480000Y-54620000D03*
X140940000Y-54620000D03*
X138400000Y-54620000D03*
X135860000Y-54620000D03*
D11*
X133320000Y-54620000D03*
%TD*%
D12*
%TO.C,D12*%
X160020000Y-76200000D03*
D13*
X160020000Y-83820000D03*
%TD*%
D12*
%TO.C,D11*%
X87884000Y-77724000D03*
D13*
X87884000Y-85344000D03*
%TD*%
D14*
%TO.C,R6*%
X121666000Y-103378000D03*
D15*
X121666000Y-95758000D03*
%TD*%
D14*
%TO.C,R5*%
X124968000Y-103378000D03*
D15*
X124968000Y-95758000D03*
%TD*%
D14*
%TO.C,R4*%
X128270000Y-103378000D03*
D15*
X128270000Y-95758000D03*
%TD*%
D14*
%TO.C,R3*%
X148082000Y-103378000D03*
D15*
X148082000Y-95758000D03*
%TD*%
D14*
%TO.C,R2*%
X151384000Y-103378000D03*
D15*
X151384000Y-95758000D03*
%TD*%
D14*
%TO.C,R1*%
X154686000Y-103378000D03*
D15*
X154686000Y-95758000D03*
%TD*%
%TO.C,C4*%
X162560000Y-60492000D03*
D16*
X162560000Y-62992000D03*
%TD*%
D15*
%TO.C,C3*%
X135890000Y-61802000D03*
X135890000Y-66802000D03*
%TD*%
%TO.C,C2*%
X88900000Y-61762000D03*
D16*
X88900000Y-64262000D03*
%TD*%
D15*
%TO.C,C1*%
X91614000Y-53848000D03*
X86614000Y-53848000D03*
%TD*%
%TO.C,J4*%
G36*
G01*
X111241500Y-66388000D02*
X111516500Y-66388000D01*
G75*
G02*
X111654000Y-66525500I0J-137500D01*
G01*
X111654000Y-68250500D01*
G75*
G02*
X111516500Y-68388000I-137500J0D01*
G01*
X111241500Y-68388000D01*
G75*
G02*
X111104000Y-68250500I0J137500D01*
G01*
X111104000Y-66525500D01*
G75*
G02*
X111241500Y-66388000I137500J0D01*
G01*
G37*
G36*
G01*
X109971500Y-66388000D02*
X110246500Y-66388000D01*
G75*
G02*
X110384000Y-66525500I0J-137500D01*
G01*
X110384000Y-68250500D01*
G75*
G02*
X110246500Y-68388000I-137500J0D01*
G01*
X109971500Y-68388000D01*
G75*
G02*
X109834000Y-68250500I0J137500D01*
G01*
X109834000Y-66525500D01*
G75*
G02*
X109971500Y-66388000I137500J0D01*
G01*
G37*
G36*
G01*
X111241500Y-57088000D02*
X111516500Y-57088000D01*
G75*
G02*
X111654000Y-57225500I0J-137500D01*
G01*
X111654000Y-58950500D01*
G75*
G02*
X111516500Y-59088000I-137500J0D01*
G01*
X111241500Y-59088000D01*
G75*
G02*
X111104000Y-58950500I0J137500D01*
G01*
X111104000Y-57225500D01*
G75*
G02*
X111241500Y-57088000I137500J0D01*
G01*
G37*
G36*
G01*
X109971500Y-57088000D02*
X110246500Y-57088000D01*
G75*
G02*
X110384000Y-57225500I0J-137500D01*
G01*
X110384000Y-58950500D01*
G75*
G02*
X110246500Y-59088000I-137500J0D01*
G01*
X109971500Y-59088000D01*
G75*
G02*
X109834000Y-58950500I0J137500D01*
G01*
X109834000Y-57225500D01*
G75*
G02*
X109971500Y-57088000I137500J0D01*
G01*
G37*
G36*
G01*
X94731500Y-66388000D02*
X95006500Y-66388000D01*
G75*
G02*
X95144000Y-66525500I0J-137500D01*
G01*
X95144000Y-68250500D01*
G75*
G02*
X95006500Y-68388000I-137500J0D01*
G01*
X94731500Y-68388000D01*
G75*
G02*
X94594000Y-68250500I0J137500D01*
G01*
X94594000Y-66525500D01*
G75*
G02*
X94731500Y-66388000I137500J0D01*
G01*
G37*
G36*
G01*
X96001500Y-66388000D02*
X96276500Y-66388000D01*
G75*
G02*
X96414000Y-66525500I0J-137500D01*
G01*
X96414000Y-68250500D01*
G75*
G02*
X96276500Y-68388000I-137500J0D01*
G01*
X96001500Y-68388000D01*
G75*
G02*
X95864000Y-68250500I0J137500D01*
G01*
X95864000Y-66525500D01*
G75*
G02*
X96001500Y-66388000I137500J0D01*
G01*
G37*
G36*
G01*
X97271500Y-66388000D02*
X97546500Y-66388000D01*
G75*
G02*
X97684000Y-66525500I0J-137500D01*
G01*
X97684000Y-68250500D01*
G75*
G02*
X97546500Y-68388000I-137500J0D01*
G01*
X97271500Y-68388000D01*
G75*
G02*
X97134000Y-68250500I0J137500D01*
G01*
X97134000Y-66525500D01*
G75*
G02*
X97271500Y-66388000I137500J0D01*
G01*
G37*
G36*
G01*
X98541500Y-66388000D02*
X98816500Y-66388000D01*
G75*
G02*
X98954000Y-66525500I0J-137500D01*
G01*
X98954000Y-68250500D01*
G75*
G02*
X98816500Y-68388000I-137500J0D01*
G01*
X98541500Y-68388000D01*
G75*
G02*
X98404000Y-68250500I0J137500D01*
G01*
X98404000Y-66525500D01*
G75*
G02*
X98541500Y-66388000I137500J0D01*
G01*
G37*
G36*
G01*
X99811500Y-66388000D02*
X100086500Y-66388000D01*
G75*
G02*
X100224000Y-66525500I0J-137500D01*
G01*
X100224000Y-68250500D01*
G75*
G02*
X100086500Y-68388000I-137500J0D01*
G01*
X99811500Y-68388000D01*
G75*
G02*
X99674000Y-68250500I0J137500D01*
G01*
X99674000Y-66525500D01*
G75*
G02*
X99811500Y-66388000I137500J0D01*
G01*
G37*
G36*
G01*
X101081500Y-66388000D02*
X101356500Y-66388000D01*
G75*
G02*
X101494000Y-66525500I0J-137500D01*
G01*
X101494000Y-68250500D01*
G75*
G02*
X101356500Y-68388000I-137500J0D01*
G01*
X101081500Y-68388000D01*
G75*
G02*
X100944000Y-68250500I0J137500D01*
G01*
X100944000Y-66525500D01*
G75*
G02*
X101081500Y-66388000I137500J0D01*
G01*
G37*
G36*
G01*
X102351500Y-66388000D02*
X102626500Y-66388000D01*
G75*
G02*
X102764000Y-66525500I0J-137500D01*
G01*
X102764000Y-68250500D01*
G75*
G02*
X102626500Y-68388000I-137500J0D01*
G01*
X102351500Y-68388000D01*
G75*
G02*
X102214000Y-68250500I0J137500D01*
G01*
X102214000Y-66525500D01*
G75*
G02*
X102351500Y-66388000I137500J0D01*
G01*
G37*
G36*
G01*
X103621500Y-66388000D02*
X103896500Y-66388000D01*
G75*
G02*
X104034000Y-66525500I0J-137500D01*
G01*
X104034000Y-68250500D01*
G75*
G02*
X103896500Y-68388000I-137500J0D01*
G01*
X103621500Y-68388000D01*
G75*
G02*
X103484000Y-68250500I0J137500D01*
G01*
X103484000Y-66525500D01*
G75*
G02*
X103621500Y-66388000I137500J0D01*
G01*
G37*
G36*
G01*
X104891500Y-66388000D02*
X105166500Y-66388000D01*
G75*
G02*
X105304000Y-66525500I0J-137500D01*
G01*
X105304000Y-68250500D01*
G75*
G02*
X105166500Y-68388000I-137500J0D01*
G01*
X104891500Y-68388000D01*
G75*
G02*
X104754000Y-68250500I0J137500D01*
G01*
X104754000Y-66525500D01*
G75*
G02*
X104891500Y-66388000I137500J0D01*
G01*
G37*
G36*
G01*
X106161500Y-66388000D02*
X106436500Y-66388000D01*
G75*
G02*
X106574000Y-66525500I0J-137500D01*
G01*
X106574000Y-68250500D01*
G75*
G02*
X106436500Y-68388000I-137500J0D01*
G01*
X106161500Y-68388000D01*
G75*
G02*
X106024000Y-68250500I0J137500D01*
G01*
X106024000Y-66525500D01*
G75*
G02*
X106161500Y-66388000I137500J0D01*
G01*
G37*
G36*
G01*
X107431500Y-66388000D02*
X107706500Y-66388000D01*
G75*
G02*
X107844000Y-66525500I0J-137500D01*
G01*
X107844000Y-68250500D01*
G75*
G02*
X107706500Y-68388000I-137500J0D01*
G01*
X107431500Y-68388000D01*
G75*
G02*
X107294000Y-68250500I0J137500D01*
G01*
X107294000Y-66525500D01*
G75*
G02*
X107431500Y-66388000I137500J0D01*
G01*
G37*
G36*
G01*
X108701500Y-66388000D02*
X108976500Y-66388000D01*
G75*
G02*
X109114000Y-66525500I0J-137500D01*
G01*
X109114000Y-68250500D01*
G75*
G02*
X108976500Y-68388000I-137500J0D01*
G01*
X108701500Y-68388000D01*
G75*
G02*
X108564000Y-68250500I0J137500D01*
G01*
X108564000Y-66525500D01*
G75*
G02*
X108701500Y-66388000I137500J0D01*
G01*
G37*
G36*
G01*
X108701500Y-57088000D02*
X108976500Y-57088000D01*
G75*
G02*
X109114000Y-57225500I0J-137500D01*
G01*
X109114000Y-58950500D01*
G75*
G02*
X108976500Y-59088000I-137500J0D01*
G01*
X108701500Y-59088000D01*
G75*
G02*
X108564000Y-58950500I0J137500D01*
G01*
X108564000Y-57225500D01*
G75*
G02*
X108701500Y-57088000I137500J0D01*
G01*
G37*
G36*
G01*
X107431500Y-57088000D02*
X107706500Y-57088000D01*
G75*
G02*
X107844000Y-57225500I0J-137500D01*
G01*
X107844000Y-58950500D01*
G75*
G02*
X107706500Y-59088000I-137500J0D01*
G01*
X107431500Y-59088000D01*
G75*
G02*
X107294000Y-58950500I0J137500D01*
G01*
X107294000Y-57225500D01*
G75*
G02*
X107431500Y-57088000I137500J0D01*
G01*
G37*
G36*
G01*
X106161500Y-57088000D02*
X106436500Y-57088000D01*
G75*
G02*
X106574000Y-57225500I0J-137500D01*
G01*
X106574000Y-58950500D01*
G75*
G02*
X106436500Y-59088000I-137500J0D01*
G01*
X106161500Y-59088000D01*
G75*
G02*
X106024000Y-58950500I0J137500D01*
G01*
X106024000Y-57225500D01*
G75*
G02*
X106161500Y-57088000I137500J0D01*
G01*
G37*
G36*
G01*
X104891500Y-57088000D02*
X105166500Y-57088000D01*
G75*
G02*
X105304000Y-57225500I0J-137500D01*
G01*
X105304000Y-58950500D01*
G75*
G02*
X105166500Y-59088000I-137500J0D01*
G01*
X104891500Y-59088000D01*
G75*
G02*
X104754000Y-58950500I0J137500D01*
G01*
X104754000Y-57225500D01*
G75*
G02*
X104891500Y-57088000I137500J0D01*
G01*
G37*
G36*
G01*
X103621500Y-57088000D02*
X103896500Y-57088000D01*
G75*
G02*
X104034000Y-57225500I0J-137500D01*
G01*
X104034000Y-58950500D01*
G75*
G02*
X103896500Y-59088000I-137500J0D01*
G01*
X103621500Y-59088000D01*
G75*
G02*
X103484000Y-58950500I0J137500D01*
G01*
X103484000Y-57225500D01*
G75*
G02*
X103621500Y-57088000I137500J0D01*
G01*
G37*
G36*
G01*
X102351500Y-57088000D02*
X102626500Y-57088000D01*
G75*
G02*
X102764000Y-57225500I0J-137500D01*
G01*
X102764000Y-58950500D01*
G75*
G02*
X102626500Y-59088000I-137500J0D01*
G01*
X102351500Y-59088000D01*
G75*
G02*
X102214000Y-58950500I0J137500D01*
G01*
X102214000Y-57225500D01*
G75*
G02*
X102351500Y-57088000I137500J0D01*
G01*
G37*
G36*
G01*
X101081500Y-57088000D02*
X101356500Y-57088000D01*
G75*
G02*
X101494000Y-57225500I0J-137500D01*
G01*
X101494000Y-58950500D01*
G75*
G02*
X101356500Y-59088000I-137500J0D01*
G01*
X101081500Y-59088000D01*
G75*
G02*
X100944000Y-58950500I0J137500D01*
G01*
X100944000Y-57225500D01*
G75*
G02*
X101081500Y-57088000I137500J0D01*
G01*
G37*
G36*
G01*
X99811500Y-57088000D02*
X100086500Y-57088000D01*
G75*
G02*
X100224000Y-57225500I0J-137500D01*
G01*
X100224000Y-58950500D01*
G75*
G02*
X100086500Y-59088000I-137500J0D01*
G01*
X99811500Y-59088000D01*
G75*
G02*
X99674000Y-58950500I0J137500D01*
G01*
X99674000Y-57225500D01*
G75*
G02*
X99811500Y-57088000I137500J0D01*
G01*
G37*
G36*
G01*
X98541500Y-57088000D02*
X98816500Y-57088000D01*
G75*
G02*
X98954000Y-57225500I0J-137500D01*
G01*
X98954000Y-58950500D01*
G75*
G02*
X98816500Y-59088000I-137500J0D01*
G01*
X98541500Y-59088000D01*
G75*
G02*
X98404000Y-58950500I0J137500D01*
G01*
X98404000Y-57225500D01*
G75*
G02*
X98541500Y-57088000I137500J0D01*
G01*
G37*
G36*
G01*
X97271500Y-57088000D02*
X97546500Y-57088000D01*
G75*
G02*
X97684000Y-57225500I0J-137500D01*
G01*
X97684000Y-58950500D01*
G75*
G02*
X97546500Y-59088000I-137500J0D01*
G01*
X97271500Y-59088000D01*
G75*
G02*
X97134000Y-58950500I0J137500D01*
G01*
X97134000Y-57225500D01*
G75*
G02*
X97271500Y-57088000I137500J0D01*
G01*
G37*
G36*
G01*
X96001500Y-57088000D02*
X96276500Y-57088000D01*
G75*
G02*
X96414000Y-57225500I0J-137500D01*
G01*
X96414000Y-58950500D01*
G75*
G02*
X96276500Y-59088000I-137500J0D01*
G01*
X96001500Y-59088000D01*
G75*
G02*
X95864000Y-58950500I0J137500D01*
G01*
X95864000Y-57225500D01*
G75*
G02*
X96001500Y-57088000I137500J0D01*
G01*
G37*
G36*
G01*
X94731500Y-57088000D02*
X95006500Y-57088000D01*
G75*
G02*
X95144000Y-57225500I0J-137500D01*
G01*
X95144000Y-58950500D01*
G75*
G02*
X95006500Y-59088000I-137500J0D01*
G01*
X94731500Y-59088000D01*
G75*
G02*
X94594000Y-58950500I0J137500D01*
G01*
X94594000Y-57225500D01*
G75*
G02*
X94731500Y-57088000I137500J0D01*
G01*
G37*
%TD*%
%TO.C,J1*%
G36*
G01*
X155945500Y-66642000D02*
X156220500Y-66642000D01*
G75*
G02*
X156358000Y-66779500I0J-137500D01*
G01*
X156358000Y-68504500D01*
G75*
G02*
X156220500Y-68642000I-137500J0D01*
G01*
X155945500Y-68642000D01*
G75*
G02*
X155808000Y-68504500I0J137500D01*
G01*
X155808000Y-66779500D01*
G75*
G02*
X155945500Y-66642000I137500J0D01*
G01*
G37*
G36*
G01*
X154675500Y-66642000D02*
X154950500Y-66642000D01*
G75*
G02*
X155088000Y-66779500I0J-137500D01*
G01*
X155088000Y-68504500D01*
G75*
G02*
X154950500Y-68642000I-137500J0D01*
G01*
X154675500Y-68642000D01*
G75*
G02*
X154538000Y-68504500I0J137500D01*
G01*
X154538000Y-66779500D01*
G75*
G02*
X154675500Y-66642000I137500J0D01*
G01*
G37*
G36*
G01*
X155945500Y-57342000D02*
X156220500Y-57342000D01*
G75*
G02*
X156358000Y-57479500I0J-137500D01*
G01*
X156358000Y-59204500D01*
G75*
G02*
X156220500Y-59342000I-137500J0D01*
G01*
X155945500Y-59342000D01*
G75*
G02*
X155808000Y-59204500I0J137500D01*
G01*
X155808000Y-57479500D01*
G75*
G02*
X155945500Y-57342000I137500J0D01*
G01*
G37*
G36*
G01*
X154675500Y-57342000D02*
X154950500Y-57342000D01*
G75*
G02*
X155088000Y-57479500I0J-137500D01*
G01*
X155088000Y-59204500D01*
G75*
G02*
X154950500Y-59342000I-137500J0D01*
G01*
X154675500Y-59342000D01*
G75*
G02*
X154538000Y-59204500I0J137500D01*
G01*
X154538000Y-57479500D01*
G75*
G02*
X154675500Y-57342000I137500J0D01*
G01*
G37*
G36*
G01*
X139435500Y-66642000D02*
X139710500Y-66642000D01*
G75*
G02*
X139848000Y-66779500I0J-137500D01*
G01*
X139848000Y-68504500D01*
G75*
G02*
X139710500Y-68642000I-137500J0D01*
G01*
X139435500Y-68642000D01*
G75*
G02*
X139298000Y-68504500I0J137500D01*
G01*
X139298000Y-66779500D01*
G75*
G02*
X139435500Y-66642000I137500J0D01*
G01*
G37*
G36*
G01*
X140705500Y-66642000D02*
X140980500Y-66642000D01*
G75*
G02*
X141118000Y-66779500I0J-137500D01*
G01*
X141118000Y-68504500D01*
G75*
G02*
X140980500Y-68642000I-137500J0D01*
G01*
X140705500Y-68642000D01*
G75*
G02*
X140568000Y-68504500I0J137500D01*
G01*
X140568000Y-66779500D01*
G75*
G02*
X140705500Y-66642000I137500J0D01*
G01*
G37*
G36*
G01*
X141975500Y-66642000D02*
X142250500Y-66642000D01*
G75*
G02*
X142388000Y-66779500I0J-137500D01*
G01*
X142388000Y-68504500D01*
G75*
G02*
X142250500Y-68642000I-137500J0D01*
G01*
X141975500Y-68642000D01*
G75*
G02*
X141838000Y-68504500I0J137500D01*
G01*
X141838000Y-66779500D01*
G75*
G02*
X141975500Y-66642000I137500J0D01*
G01*
G37*
G36*
G01*
X143245500Y-66642000D02*
X143520500Y-66642000D01*
G75*
G02*
X143658000Y-66779500I0J-137500D01*
G01*
X143658000Y-68504500D01*
G75*
G02*
X143520500Y-68642000I-137500J0D01*
G01*
X143245500Y-68642000D01*
G75*
G02*
X143108000Y-68504500I0J137500D01*
G01*
X143108000Y-66779500D01*
G75*
G02*
X143245500Y-66642000I137500J0D01*
G01*
G37*
G36*
G01*
X144515500Y-66642000D02*
X144790500Y-66642000D01*
G75*
G02*
X144928000Y-66779500I0J-137500D01*
G01*
X144928000Y-68504500D01*
G75*
G02*
X144790500Y-68642000I-137500J0D01*
G01*
X144515500Y-68642000D01*
G75*
G02*
X144378000Y-68504500I0J137500D01*
G01*
X144378000Y-66779500D01*
G75*
G02*
X144515500Y-66642000I137500J0D01*
G01*
G37*
G36*
G01*
X145785500Y-66642000D02*
X146060500Y-66642000D01*
G75*
G02*
X146198000Y-66779500I0J-137500D01*
G01*
X146198000Y-68504500D01*
G75*
G02*
X146060500Y-68642000I-137500J0D01*
G01*
X145785500Y-68642000D01*
G75*
G02*
X145648000Y-68504500I0J137500D01*
G01*
X145648000Y-66779500D01*
G75*
G02*
X145785500Y-66642000I137500J0D01*
G01*
G37*
G36*
G01*
X147055500Y-66642000D02*
X147330500Y-66642000D01*
G75*
G02*
X147468000Y-66779500I0J-137500D01*
G01*
X147468000Y-68504500D01*
G75*
G02*
X147330500Y-68642000I-137500J0D01*
G01*
X147055500Y-68642000D01*
G75*
G02*
X146918000Y-68504500I0J137500D01*
G01*
X146918000Y-66779500D01*
G75*
G02*
X147055500Y-66642000I137500J0D01*
G01*
G37*
G36*
G01*
X148325500Y-66642000D02*
X148600500Y-66642000D01*
G75*
G02*
X148738000Y-66779500I0J-137500D01*
G01*
X148738000Y-68504500D01*
G75*
G02*
X148600500Y-68642000I-137500J0D01*
G01*
X148325500Y-68642000D01*
G75*
G02*
X148188000Y-68504500I0J137500D01*
G01*
X148188000Y-66779500D01*
G75*
G02*
X148325500Y-66642000I137500J0D01*
G01*
G37*
G36*
G01*
X149595500Y-66642000D02*
X149870500Y-66642000D01*
G75*
G02*
X150008000Y-66779500I0J-137500D01*
G01*
X150008000Y-68504500D01*
G75*
G02*
X149870500Y-68642000I-137500J0D01*
G01*
X149595500Y-68642000D01*
G75*
G02*
X149458000Y-68504500I0J137500D01*
G01*
X149458000Y-66779500D01*
G75*
G02*
X149595500Y-66642000I137500J0D01*
G01*
G37*
G36*
G01*
X150865500Y-66642000D02*
X151140500Y-66642000D01*
G75*
G02*
X151278000Y-66779500I0J-137500D01*
G01*
X151278000Y-68504500D01*
G75*
G02*
X151140500Y-68642000I-137500J0D01*
G01*
X150865500Y-68642000D01*
G75*
G02*
X150728000Y-68504500I0J137500D01*
G01*
X150728000Y-66779500D01*
G75*
G02*
X150865500Y-66642000I137500J0D01*
G01*
G37*
G36*
G01*
X152135500Y-66642000D02*
X152410500Y-66642000D01*
G75*
G02*
X152548000Y-66779500I0J-137500D01*
G01*
X152548000Y-68504500D01*
G75*
G02*
X152410500Y-68642000I-137500J0D01*
G01*
X152135500Y-68642000D01*
G75*
G02*
X151998000Y-68504500I0J137500D01*
G01*
X151998000Y-66779500D01*
G75*
G02*
X152135500Y-66642000I137500J0D01*
G01*
G37*
G36*
G01*
X153405500Y-66642000D02*
X153680500Y-66642000D01*
G75*
G02*
X153818000Y-66779500I0J-137500D01*
G01*
X153818000Y-68504500D01*
G75*
G02*
X153680500Y-68642000I-137500J0D01*
G01*
X153405500Y-68642000D01*
G75*
G02*
X153268000Y-68504500I0J137500D01*
G01*
X153268000Y-66779500D01*
G75*
G02*
X153405500Y-66642000I137500J0D01*
G01*
G37*
G36*
G01*
X153405500Y-57342000D02*
X153680500Y-57342000D01*
G75*
G02*
X153818000Y-57479500I0J-137500D01*
G01*
X153818000Y-59204500D01*
G75*
G02*
X153680500Y-59342000I-137500J0D01*
G01*
X153405500Y-59342000D01*
G75*
G02*
X153268000Y-59204500I0J137500D01*
G01*
X153268000Y-57479500D01*
G75*
G02*
X153405500Y-57342000I137500J0D01*
G01*
G37*
G36*
G01*
X152135500Y-57342000D02*
X152410500Y-57342000D01*
G75*
G02*
X152548000Y-57479500I0J-137500D01*
G01*
X152548000Y-59204500D01*
G75*
G02*
X152410500Y-59342000I-137500J0D01*
G01*
X152135500Y-59342000D01*
G75*
G02*
X151998000Y-59204500I0J137500D01*
G01*
X151998000Y-57479500D01*
G75*
G02*
X152135500Y-57342000I137500J0D01*
G01*
G37*
G36*
G01*
X150865500Y-57342000D02*
X151140500Y-57342000D01*
G75*
G02*
X151278000Y-57479500I0J-137500D01*
G01*
X151278000Y-59204500D01*
G75*
G02*
X151140500Y-59342000I-137500J0D01*
G01*
X150865500Y-59342000D01*
G75*
G02*
X150728000Y-59204500I0J137500D01*
G01*
X150728000Y-57479500D01*
G75*
G02*
X150865500Y-57342000I137500J0D01*
G01*
G37*
G36*
G01*
X149595500Y-57342000D02*
X149870500Y-57342000D01*
G75*
G02*
X150008000Y-57479500I0J-137500D01*
G01*
X150008000Y-59204500D01*
G75*
G02*
X149870500Y-59342000I-137500J0D01*
G01*
X149595500Y-59342000D01*
G75*
G02*
X149458000Y-59204500I0J137500D01*
G01*
X149458000Y-57479500D01*
G75*
G02*
X149595500Y-57342000I137500J0D01*
G01*
G37*
G36*
G01*
X148325500Y-57342000D02*
X148600500Y-57342000D01*
G75*
G02*
X148738000Y-57479500I0J-137500D01*
G01*
X148738000Y-59204500D01*
G75*
G02*
X148600500Y-59342000I-137500J0D01*
G01*
X148325500Y-59342000D01*
G75*
G02*
X148188000Y-59204500I0J137500D01*
G01*
X148188000Y-57479500D01*
G75*
G02*
X148325500Y-57342000I137500J0D01*
G01*
G37*
G36*
G01*
X147055500Y-57342000D02*
X147330500Y-57342000D01*
G75*
G02*
X147468000Y-57479500I0J-137500D01*
G01*
X147468000Y-59204500D01*
G75*
G02*
X147330500Y-59342000I-137500J0D01*
G01*
X147055500Y-59342000D01*
G75*
G02*
X146918000Y-59204500I0J137500D01*
G01*
X146918000Y-57479500D01*
G75*
G02*
X147055500Y-57342000I137500J0D01*
G01*
G37*
G36*
G01*
X145785500Y-57342000D02*
X146060500Y-57342000D01*
G75*
G02*
X146198000Y-57479500I0J-137500D01*
G01*
X146198000Y-59204500D01*
G75*
G02*
X146060500Y-59342000I-137500J0D01*
G01*
X145785500Y-59342000D01*
G75*
G02*
X145648000Y-59204500I0J137500D01*
G01*
X145648000Y-57479500D01*
G75*
G02*
X145785500Y-57342000I137500J0D01*
G01*
G37*
G36*
G01*
X144515500Y-57342000D02*
X144790500Y-57342000D01*
G75*
G02*
X144928000Y-57479500I0J-137500D01*
G01*
X144928000Y-59204500D01*
G75*
G02*
X144790500Y-59342000I-137500J0D01*
G01*
X144515500Y-59342000D01*
G75*
G02*
X144378000Y-59204500I0J137500D01*
G01*
X144378000Y-57479500D01*
G75*
G02*
X144515500Y-57342000I137500J0D01*
G01*
G37*
G36*
G01*
X143245500Y-57342000D02*
X143520500Y-57342000D01*
G75*
G02*
X143658000Y-57479500I0J-137500D01*
G01*
X143658000Y-59204500D01*
G75*
G02*
X143520500Y-59342000I-137500J0D01*
G01*
X143245500Y-59342000D01*
G75*
G02*
X143108000Y-59204500I0J137500D01*
G01*
X143108000Y-57479500D01*
G75*
G02*
X143245500Y-57342000I137500J0D01*
G01*
G37*
G36*
G01*
X141975500Y-57342000D02*
X142250500Y-57342000D01*
G75*
G02*
X142388000Y-57479500I0J-137500D01*
G01*
X142388000Y-59204500D01*
G75*
G02*
X142250500Y-59342000I-137500J0D01*
G01*
X141975500Y-59342000D01*
G75*
G02*
X141838000Y-59204500I0J137500D01*
G01*
X141838000Y-57479500D01*
G75*
G02*
X141975500Y-57342000I137500J0D01*
G01*
G37*
G36*
G01*
X140705500Y-57342000D02*
X140980500Y-57342000D01*
G75*
G02*
X141118000Y-57479500I0J-137500D01*
G01*
X141118000Y-59204500D01*
G75*
G02*
X140980500Y-59342000I-137500J0D01*
G01*
X140705500Y-59342000D01*
G75*
G02*
X140568000Y-59204500I0J137500D01*
G01*
X140568000Y-57479500D01*
G75*
G02*
X140705500Y-57342000I137500J0D01*
G01*
G37*
G36*
G01*
X139435500Y-57342000D02*
X139710500Y-57342000D01*
G75*
G02*
X139848000Y-57479500I0J-137500D01*
G01*
X139848000Y-59204500D01*
G75*
G02*
X139710500Y-59342000I-137500J0D01*
G01*
X139435500Y-59342000D01*
G75*
G02*
X139298000Y-59204500I0J137500D01*
G01*
X139298000Y-57479500D01*
G75*
G02*
X139435500Y-57342000I137500J0D01*
G01*
G37*
%TD*%
D10*
%TO.C,D1*%
X95150000Y-39370000D03*
X97690000Y-39370000D03*
X100230000Y-39370000D03*
X102770000Y-39370000D03*
X105310000Y-39370000D03*
X105310000Y-54610000D03*
X102770000Y-54610000D03*
X100230000Y-54610000D03*
X97690000Y-54610000D03*
D11*
X95150000Y-54610000D03*
%TD*%
D17*
%TO.C,H4*%
X162560000Y-99060000D03*
%TD*%
%TO.C,H3*%
X162560000Y-33020000D03*
%TD*%
%TO.C,H2*%
X88900000Y-99060000D03*
%TD*%
%TO.C,H1*%
X88900000Y-33020000D03*
%TD*%
D10*
%TO.C,D10*%
X146120000Y-71580000D03*
X148660000Y-71580000D03*
X151200000Y-71580000D03*
X153740000Y-71580000D03*
X156280000Y-71580000D03*
X156280000Y-86820000D03*
X153740000Y-86820000D03*
X151200000Y-86820000D03*
X148660000Y-86820000D03*
D11*
X146120000Y-86820000D03*
%TD*%
D10*
%TO.C,D5*%
X146020000Y-39380000D03*
X148560000Y-39380000D03*
X151100000Y-39380000D03*
X153640000Y-39380000D03*
X156180000Y-39380000D03*
X156180000Y-54620000D03*
X153640000Y-54620000D03*
X151100000Y-54620000D03*
X148560000Y-54620000D03*
D11*
X146020000Y-54620000D03*
%TD*%
D10*
%TO.C,D9*%
X133420000Y-71580000D03*
X135960000Y-71580000D03*
X138500000Y-71580000D03*
X141040000Y-71580000D03*
X143580000Y-71580000D03*
X143580000Y-86820000D03*
X141040000Y-86820000D03*
X138500000Y-86820000D03*
X135960000Y-86820000D03*
D11*
X133420000Y-86820000D03*
%TD*%
D10*
%TO.C,D8*%
X120720000Y-71580000D03*
X123260000Y-71580000D03*
X125800000Y-71580000D03*
X128340000Y-71580000D03*
X130880000Y-71580000D03*
X130880000Y-86820000D03*
X128340000Y-86820000D03*
X125800000Y-86820000D03*
X123260000Y-86820000D03*
D11*
X120720000Y-86820000D03*
%TD*%
D10*
%TO.C,D3*%
X120620000Y-39380000D03*
X123160000Y-39380000D03*
X125700000Y-39380000D03*
X128240000Y-39380000D03*
X130780000Y-39380000D03*
X130780000Y-54620000D03*
X128240000Y-54620000D03*
X125700000Y-54620000D03*
X123160000Y-54620000D03*
D11*
X120620000Y-54620000D03*
%TD*%
D10*
%TO.C,D7*%
X107920000Y-71580000D03*
X110460000Y-71580000D03*
X113000000Y-71580000D03*
X115540000Y-71580000D03*
X118080000Y-71580000D03*
X118080000Y-86820000D03*
X115540000Y-86820000D03*
X113000000Y-86820000D03*
X110460000Y-86820000D03*
D11*
X107920000Y-86820000D03*
%TD*%
D10*
%TO.C,D2*%
X107920000Y-39380000D03*
X110460000Y-39380000D03*
X113000000Y-39380000D03*
X115540000Y-39380000D03*
X118080000Y-39380000D03*
X118080000Y-54620000D03*
X115540000Y-54620000D03*
X113000000Y-54620000D03*
X110460000Y-54620000D03*
D11*
X107920000Y-54620000D03*
%TD*%
D10*
%TO.C,D6*%
X95220000Y-71580000D03*
X97760000Y-71580000D03*
X100300000Y-71580000D03*
X102840000Y-71580000D03*
X105380000Y-71580000D03*
X105380000Y-86820000D03*
X102840000Y-86820000D03*
X100300000Y-86820000D03*
X97760000Y-86820000D03*
D11*
X95220000Y-86820000D03*
%TD*%
D18*
%TO.C,J3*%
X140820000Y-97490000D03*
X138320000Y-97490000D03*
X135820000Y-97490000D03*
G36*
G01*
X132470000Y-98215000D02*
X132470000Y-96765000D01*
G75*
G02*
X132720000Y-96515000I250000J0D01*
G01*
X133920000Y-96515000D01*
G75*
G02*
X134170000Y-96765000I0J-250000D01*
G01*
X134170000Y-98215000D01*
G75*
G02*
X133920000Y-98465000I-250000J0D01*
G01*
X132720000Y-98465000D01*
G75*
G02*
X132470000Y-98215000I0J250000D01*
G01*
G37*
%TD*%
%TO.C,J2*%
X116690000Y-97490000D03*
X114190000Y-97490000D03*
X111690000Y-97490000D03*
G36*
G01*
X108340000Y-98215000D02*
X108340000Y-96765000D01*
G75*
G02*
X108590000Y-96515000I250000J0D01*
G01*
X109790000Y-96515000D01*
G75*
G02*
X110040000Y-96765000I0J-250000D01*
G01*
X110040000Y-98215000D01*
G75*
G02*
X109790000Y-98465000I-250000J0D01*
G01*
X108590000Y-98465000D01*
G75*
G02*
X108340000Y-98215000I0J250000D01*
G01*
G37*
%TD*%
M02*
