%TF.GenerationSoftware,KiCad,Pcbnew,5.1.9-73d0e3b20d~88~ubuntu20.04.1*%
%TF.CreationDate,2021-05-01T11:52:03+02:00*%
%TF.ProjectId,anna_elsa_credit_display,616e6e61-5f65-46c7-9361-5f6372656469,rev?*%
%TF.SameCoordinates,Original*%
%TF.FileFunction,Legend,Bot*%
%TF.FilePolarity,Positive*%
%FSLAX46Y46*%
G04 Gerber Fmt 4.6, Leading zero omitted, Abs format (unit mm)*
G04 Created by KiCad (PCBNEW 5.1.9-73d0e3b20d~88~ubuntu20.04.1) date 2021-05-01 11:52:03*
%MOMM*%
%LPD*%
G01*
G04 APERTURE LIST*
%ADD10C,0.150000*%
%ADD11C,0.120000*%
G04 APERTURE END LIST*
D10*
X132087142Y-31282142D02*
X132134761Y-31329761D01*
X132277619Y-31377380D01*
X132372857Y-31377380D01*
X132515714Y-31329761D01*
X132610952Y-31234523D01*
X132658571Y-31139285D01*
X132706190Y-30948809D01*
X132706190Y-30805952D01*
X132658571Y-30615476D01*
X132610952Y-30520238D01*
X132515714Y-30425000D01*
X132372857Y-30377380D01*
X132277619Y-30377380D01*
X132134761Y-30425000D01*
X132087142Y-30472619D01*
X131658571Y-31377380D02*
X131658571Y-30710714D01*
X131658571Y-30901190D02*
X131610952Y-30805952D01*
X131563333Y-30758333D01*
X131468095Y-30710714D01*
X131372857Y-30710714D01*
X130658571Y-31329761D02*
X130753809Y-31377380D01*
X130944285Y-31377380D01*
X131039523Y-31329761D01*
X131087142Y-31234523D01*
X131087142Y-30853571D01*
X131039523Y-30758333D01*
X130944285Y-30710714D01*
X130753809Y-30710714D01*
X130658571Y-30758333D01*
X130610952Y-30853571D01*
X130610952Y-30948809D01*
X131087142Y-31044047D01*
X129753809Y-31377380D02*
X129753809Y-30377380D01*
X129753809Y-31329761D02*
X129849047Y-31377380D01*
X130039523Y-31377380D01*
X130134761Y-31329761D01*
X130182380Y-31282142D01*
X130230000Y-31186904D01*
X130230000Y-30901190D01*
X130182380Y-30805952D01*
X130134761Y-30758333D01*
X130039523Y-30710714D01*
X129849047Y-30710714D01*
X129753809Y-30758333D01*
X129277619Y-31377380D02*
X129277619Y-30710714D01*
X129277619Y-30377380D02*
X129325238Y-30425000D01*
X129277619Y-30472619D01*
X129230000Y-30425000D01*
X129277619Y-30377380D01*
X129277619Y-30472619D01*
X128944285Y-30710714D02*
X128563333Y-30710714D01*
X128801428Y-30377380D02*
X128801428Y-31234523D01*
X128753809Y-31329761D01*
X128658571Y-31377380D01*
X128563333Y-31377380D01*
X127468095Y-31377380D02*
X127468095Y-30377380D01*
X127230000Y-30377380D01*
X127087142Y-30425000D01*
X126991904Y-30520238D01*
X126944285Y-30615476D01*
X126896666Y-30805952D01*
X126896666Y-30948809D01*
X126944285Y-31139285D01*
X126991904Y-31234523D01*
X127087142Y-31329761D01*
X127230000Y-31377380D01*
X127468095Y-31377380D01*
X126468095Y-31377380D02*
X126468095Y-30710714D01*
X126468095Y-30377380D02*
X126515714Y-30425000D01*
X126468095Y-30472619D01*
X126420476Y-30425000D01*
X126468095Y-30377380D01*
X126468095Y-30472619D01*
X126039523Y-31329761D02*
X125944285Y-31377380D01*
X125753809Y-31377380D01*
X125658571Y-31329761D01*
X125610952Y-31234523D01*
X125610952Y-31186904D01*
X125658571Y-31091666D01*
X125753809Y-31044047D01*
X125896666Y-31044047D01*
X125991904Y-30996428D01*
X126039523Y-30901190D01*
X126039523Y-30853571D01*
X125991904Y-30758333D01*
X125896666Y-30710714D01*
X125753809Y-30710714D01*
X125658571Y-30758333D01*
X125182380Y-30710714D02*
X125182380Y-31710714D01*
X125182380Y-30758333D02*
X125087142Y-30710714D01*
X124896666Y-30710714D01*
X124801428Y-30758333D01*
X124753809Y-30805952D01*
X124706190Y-30901190D01*
X124706190Y-31186904D01*
X124753809Y-31282142D01*
X124801428Y-31329761D01*
X124896666Y-31377380D01*
X125087142Y-31377380D01*
X125182380Y-31329761D01*
X124134761Y-31377380D02*
X124230000Y-31329761D01*
X124277619Y-31234523D01*
X124277619Y-30377380D01*
X123325238Y-31377380D02*
X123325238Y-30853571D01*
X123372857Y-30758333D01*
X123468095Y-30710714D01*
X123658571Y-30710714D01*
X123753809Y-30758333D01*
X123325238Y-31329761D02*
X123420476Y-31377380D01*
X123658571Y-31377380D01*
X123753809Y-31329761D01*
X123801428Y-31234523D01*
X123801428Y-31139285D01*
X123753809Y-31044047D01*
X123658571Y-30996428D01*
X123420476Y-30996428D01*
X123325238Y-30948809D01*
X122944285Y-30710714D02*
X122706190Y-31377380D01*
X122468095Y-30710714D02*
X122706190Y-31377380D01*
X122801428Y-31615476D01*
X122849047Y-31663095D01*
X122944285Y-31710714D01*
X121325238Y-31377380D02*
X121325238Y-30377380D01*
X120944285Y-30377380D01*
X120849047Y-30425000D01*
X120801428Y-30472619D01*
X120753809Y-30567857D01*
X120753809Y-30710714D01*
X120801428Y-30805952D01*
X120849047Y-30853571D01*
X120944285Y-30901190D01*
X121325238Y-30901190D01*
X119753809Y-31282142D02*
X119801428Y-31329761D01*
X119944285Y-31377380D01*
X120039523Y-31377380D01*
X120182380Y-31329761D01*
X120277619Y-31234523D01*
X120325238Y-31139285D01*
X120372857Y-30948809D01*
X120372857Y-30805952D01*
X120325238Y-30615476D01*
X120277619Y-30520238D01*
X120182380Y-30425000D01*
X120039523Y-30377380D01*
X119944285Y-30377380D01*
X119801428Y-30425000D01*
X119753809Y-30472619D01*
X118991904Y-30853571D02*
X118849047Y-30901190D01*
X118801428Y-30948809D01*
X118753809Y-31044047D01*
X118753809Y-31186904D01*
X118801428Y-31282142D01*
X118849047Y-31329761D01*
X118944285Y-31377380D01*
X119325238Y-31377380D01*
X119325238Y-30377380D01*
X118991904Y-30377380D01*
X118896666Y-30425000D01*
X118849047Y-30472619D01*
X118801428Y-30567857D01*
X118801428Y-30663095D01*
X118849047Y-30758333D01*
X118896666Y-30805952D01*
X118991904Y-30853571D01*
X119325238Y-30853571D01*
X133277619Y-33408333D02*
X133325238Y-33360714D01*
X133420476Y-33217857D01*
X133468095Y-33122619D01*
X133515714Y-32979761D01*
X133563333Y-32741666D01*
X133563333Y-32551190D01*
X133515714Y-32313095D01*
X133468095Y-32170238D01*
X133420476Y-32075000D01*
X133325238Y-31932142D01*
X133277619Y-31884523D01*
X132325238Y-32932142D02*
X132372857Y-32979761D01*
X132515714Y-33027380D01*
X132610952Y-33027380D01*
X132753809Y-32979761D01*
X132849047Y-32884523D01*
X132896666Y-32789285D01*
X132944285Y-32598809D01*
X132944285Y-32455952D01*
X132896666Y-32265476D01*
X132849047Y-32170238D01*
X132753809Y-32075000D01*
X132610952Y-32027380D01*
X132515714Y-32027380D01*
X132372857Y-32075000D01*
X132325238Y-32122619D01*
X131991904Y-33408333D02*
X131944285Y-33360714D01*
X131849047Y-33217857D01*
X131801428Y-33122619D01*
X131753809Y-32979761D01*
X131706190Y-32741666D01*
X131706190Y-32551190D01*
X131753809Y-32313095D01*
X131801428Y-32170238D01*
X131849047Y-32075000D01*
X131944285Y-31932142D01*
X131991904Y-31884523D01*
X131277619Y-32122619D02*
X131230000Y-32075000D01*
X131134761Y-32027380D01*
X130896666Y-32027380D01*
X130801428Y-32075000D01*
X130753809Y-32122619D01*
X130706190Y-32217857D01*
X130706190Y-32313095D01*
X130753809Y-32455952D01*
X131325238Y-33027380D01*
X130706190Y-33027380D01*
X130087142Y-32027380D02*
X129991904Y-32027380D01*
X129896666Y-32075000D01*
X129849047Y-32122619D01*
X129801428Y-32217857D01*
X129753809Y-32408333D01*
X129753809Y-32646428D01*
X129801428Y-32836904D01*
X129849047Y-32932142D01*
X129896666Y-32979761D01*
X129991904Y-33027380D01*
X130087142Y-33027380D01*
X130182380Y-32979761D01*
X130230000Y-32932142D01*
X130277619Y-32836904D01*
X130325238Y-32646428D01*
X130325238Y-32408333D01*
X130277619Y-32217857D01*
X130230000Y-32122619D01*
X130182380Y-32075000D01*
X130087142Y-32027380D01*
X129372857Y-32122619D02*
X129325238Y-32075000D01*
X129230000Y-32027380D01*
X128991904Y-32027380D01*
X128896666Y-32075000D01*
X128849047Y-32122619D01*
X128801428Y-32217857D01*
X128801428Y-32313095D01*
X128849047Y-32455952D01*
X129420476Y-33027380D01*
X128801428Y-33027380D01*
X127849047Y-33027380D02*
X128420476Y-33027380D01*
X128134761Y-33027380D02*
X128134761Y-32027380D01*
X128230000Y-32170238D01*
X128325238Y-32265476D01*
X128420476Y-32313095D01*
X126087142Y-32932142D02*
X126134761Y-32979761D01*
X126277619Y-33027380D01*
X126372857Y-33027380D01*
X126515714Y-32979761D01*
X126610952Y-32884523D01*
X126658571Y-32789285D01*
X126706190Y-32598809D01*
X126706190Y-32455952D01*
X126658571Y-32265476D01*
X126610952Y-32170238D01*
X126515714Y-32075000D01*
X126372857Y-32027380D01*
X126277619Y-32027380D01*
X126134761Y-32075000D01*
X126087142Y-32122619D01*
X125658571Y-33027380D02*
X125658571Y-32027380D01*
X125230000Y-33027380D02*
X125230000Y-32503571D01*
X125277619Y-32408333D01*
X125372857Y-32360714D01*
X125515714Y-32360714D01*
X125610952Y-32408333D01*
X125658571Y-32455952D01*
X124753809Y-33027380D02*
X124753809Y-32360714D01*
X124753809Y-32551190D02*
X124706190Y-32455952D01*
X124658571Y-32408333D01*
X124563333Y-32360714D01*
X124468095Y-32360714D01*
X124134761Y-33027380D02*
X124134761Y-32360714D01*
X124134761Y-32027380D02*
X124182380Y-32075000D01*
X124134761Y-32122619D01*
X124087142Y-32075000D01*
X124134761Y-32027380D01*
X124134761Y-32122619D01*
X123706190Y-32979761D02*
X123610952Y-33027380D01*
X123420476Y-33027380D01*
X123325238Y-32979761D01*
X123277619Y-32884523D01*
X123277619Y-32836904D01*
X123325238Y-32741666D01*
X123420476Y-32694047D01*
X123563333Y-32694047D01*
X123658571Y-32646428D01*
X123706190Y-32551190D01*
X123706190Y-32503571D01*
X123658571Y-32408333D01*
X123563333Y-32360714D01*
X123420476Y-32360714D01*
X123325238Y-32408333D01*
X122182380Y-32027380D02*
X121944285Y-33027380D01*
X121753809Y-32313095D01*
X121563333Y-33027380D01*
X121325238Y-32027380D01*
X120801428Y-33027380D02*
X120896666Y-32979761D01*
X120944285Y-32932142D01*
X120991904Y-32836904D01*
X120991904Y-32551190D01*
X120944285Y-32455952D01*
X120896666Y-32408333D01*
X120801428Y-32360714D01*
X120658571Y-32360714D01*
X120563333Y-32408333D01*
X120515714Y-32455952D01*
X120468095Y-32551190D01*
X120468095Y-32836904D01*
X120515714Y-32932142D01*
X120563333Y-32979761D01*
X120658571Y-33027380D01*
X120801428Y-33027380D01*
X119896666Y-33027380D02*
X119991904Y-32979761D01*
X120039523Y-32932142D01*
X120087142Y-32836904D01*
X120087142Y-32551190D01*
X120039523Y-32455952D01*
X119991904Y-32408333D01*
X119896666Y-32360714D01*
X119753809Y-32360714D01*
X119658571Y-32408333D01*
X119610952Y-32455952D01*
X119563333Y-32551190D01*
X119563333Y-32836904D01*
X119610952Y-32932142D01*
X119658571Y-32979761D01*
X119753809Y-33027380D01*
X119896666Y-33027380D01*
X118706190Y-33027380D02*
X118706190Y-32027380D01*
X118706190Y-32979761D02*
X118801428Y-33027380D01*
X118991904Y-33027380D01*
X119087142Y-32979761D01*
X119134761Y-32932142D01*
X119182380Y-32836904D01*
X119182380Y-32551190D01*
X119134761Y-32455952D01*
X119087142Y-32408333D01*
X118991904Y-32360714D01*
X118801428Y-32360714D01*
X118706190Y-32408333D01*
X118277619Y-32979761D02*
X118182380Y-33027380D01*
X117991904Y-33027380D01*
X117896666Y-32979761D01*
X117849047Y-32884523D01*
X117849047Y-32836904D01*
X117896666Y-32741666D01*
X117991904Y-32694047D01*
X118134761Y-32694047D01*
X118230000Y-32646428D01*
X118277619Y-32551190D01*
X118277619Y-32503571D01*
X118230000Y-32408333D01*
X118134761Y-32360714D01*
X117991904Y-32360714D01*
X117896666Y-32408333D01*
D11*
%TO.C,D12*%
X161490000Y-81950000D02*
X158550000Y-81950000D01*
X161490000Y-81710000D02*
X158550000Y-81710000D01*
X161490000Y-81830000D02*
X158550000Y-81830000D01*
X158550000Y-77290000D02*
X158880000Y-77290000D01*
X158550000Y-82730000D02*
X158550000Y-77290000D01*
X158880000Y-82730000D02*
X158550000Y-82730000D01*
X161490000Y-77290000D02*
X161160000Y-77290000D01*
X161490000Y-82730000D02*
X161490000Y-77290000D01*
X161160000Y-82730000D02*
X161490000Y-82730000D01*
%TO.C,D11*%
X89354000Y-83474000D02*
X86414000Y-83474000D01*
X89354000Y-83234000D02*
X86414000Y-83234000D01*
X89354000Y-83354000D02*
X86414000Y-83354000D01*
X86414000Y-78814000D02*
X86744000Y-78814000D01*
X86414000Y-84254000D02*
X86414000Y-78814000D01*
X86744000Y-84254000D02*
X86414000Y-84254000D01*
X89354000Y-78814000D02*
X89024000Y-78814000D01*
X89354000Y-84254000D02*
X89354000Y-78814000D01*
X89024000Y-84254000D02*
X89354000Y-84254000D01*
%TO.C,R6*%
X123036000Y-102838000D02*
X122706000Y-102838000D01*
X123036000Y-96298000D02*
X123036000Y-102838000D01*
X122706000Y-96298000D02*
X123036000Y-96298000D01*
X120296000Y-102838000D02*
X120626000Y-102838000D01*
X120296000Y-96298000D02*
X120296000Y-102838000D01*
X120626000Y-96298000D02*
X120296000Y-96298000D01*
%TO.C,R5*%
X126338000Y-102838000D02*
X126008000Y-102838000D01*
X126338000Y-96298000D02*
X126338000Y-102838000D01*
X126008000Y-96298000D02*
X126338000Y-96298000D01*
X123598000Y-102838000D02*
X123928000Y-102838000D01*
X123598000Y-96298000D02*
X123598000Y-102838000D01*
X123928000Y-96298000D02*
X123598000Y-96298000D01*
%TO.C,R4*%
X129640000Y-102838000D02*
X129310000Y-102838000D01*
X129640000Y-96298000D02*
X129640000Y-102838000D01*
X129310000Y-96298000D02*
X129640000Y-96298000D01*
X126900000Y-102838000D02*
X127230000Y-102838000D01*
X126900000Y-96298000D02*
X126900000Y-102838000D01*
X127230000Y-96298000D02*
X126900000Y-96298000D01*
%TO.C,R3*%
X149452000Y-102838000D02*
X149122000Y-102838000D01*
X149452000Y-96298000D02*
X149452000Y-102838000D01*
X149122000Y-96298000D02*
X149452000Y-96298000D01*
X146712000Y-102838000D02*
X147042000Y-102838000D01*
X146712000Y-96298000D02*
X146712000Y-102838000D01*
X147042000Y-96298000D02*
X146712000Y-96298000D01*
%TO.C,R2*%
X152754000Y-102838000D02*
X152424000Y-102838000D01*
X152754000Y-96298000D02*
X152754000Y-102838000D01*
X152424000Y-96298000D02*
X152754000Y-96298000D01*
X150014000Y-102838000D02*
X150344000Y-102838000D01*
X150014000Y-96298000D02*
X150014000Y-102838000D01*
X150344000Y-96298000D02*
X150014000Y-96298000D01*
%TO.C,R1*%
X156056000Y-102838000D02*
X155726000Y-102838000D01*
X156056000Y-96298000D02*
X156056000Y-102838000D01*
X155726000Y-96298000D02*
X156056000Y-96298000D01*
X153316000Y-102838000D02*
X153646000Y-102838000D01*
X153316000Y-96298000D02*
X153316000Y-102838000D01*
X153646000Y-96298000D02*
X153316000Y-96298000D01*
%TO.C,C4*%
X164714000Y-64927241D02*
X164084000Y-64927241D01*
X164399000Y-65242241D02*
X164399000Y-64612241D01*
X162962000Y-58501000D02*
X162158000Y-58501000D01*
X163193000Y-58541000D02*
X161927000Y-58541000D01*
X163362000Y-58581000D02*
X161758000Y-58581000D01*
X163500000Y-58621000D02*
X161620000Y-58621000D01*
X163619000Y-58661000D02*
X161501000Y-58661000D01*
X163725000Y-58701000D02*
X161395000Y-58701000D01*
X163822000Y-58741000D02*
X161298000Y-58741000D01*
X163910000Y-58781000D02*
X161210000Y-58781000D01*
X163992000Y-58821000D02*
X161128000Y-58821000D01*
X164069000Y-58861000D02*
X161051000Y-58861000D01*
X164141000Y-58901000D02*
X160979000Y-58901000D01*
X164210000Y-58941000D02*
X160910000Y-58941000D01*
X164274000Y-58981000D02*
X160846000Y-58981000D01*
X164336000Y-59021000D02*
X160784000Y-59021000D01*
X164394000Y-59061000D02*
X160726000Y-59061000D01*
X164450000Y-59101000D02*
X160670000Y-59101000D01*
X164504000Y-59141000D02*
X160616000Y-59141000D01*
X164555000Y-59181000D02*
X160565000Y-59181000D01*
X164604000Y-59221000D02*
X160516000Y-59221000D01*
X164652000Y-59261000D02*
X160468000Y-59261000D01*
X164697000Y-59301000D02*
X160423000Y-59301000D01*
X164742000Y-59341000D02*
X160378000Y-59341000D01*
X164784000Y-59381000D02*
X160336000Y-59381000D01*
X164825000Y-59421000D02*
X160295000Y-59421000D01*
X161520000Y-59461000D02*
X160255000Y-59461000D01*
X164865000Y-59461000D02*
X163600000Y-59461000D01*
X161520000Y-59501000D02*
X160217000Y-59501000D01*
X164903000Y-59501000D02*
X163600000Y-59501000D01*
X161520000Y-59541000D02*
X160180000Y-59541000D01*
X164940000Y-59541000D02*
X163600000Y-59541000D01*
X161520000Y-59581000D02*
X160144000Y-59581000D01*
X164976000Y-59581000D02*
X163600000Y-59581000D01*
X161520000Y-59621000D02*
X160110000Y-59621000D01*
X165010000Y-59621000D02*
X163600000Y-59621000D01*
X161520000Y-59661000D02*
X160076000Y-59661000D01*
X165044000Y-59661000D02*
X163600000Y-59661000D01*
X161520000Y-59701000D02*
X160044000Y-59701000D01*
X165076000Y-59701000D02*
X163600000Y-59701000D01*
X161520000Y-59741000D02*
X160012000Y-59741000D01*
X165108000Y-59741000D02*
X163600000Y-59741000D01*
X161520000Y-59781000D02*
X159982000Y-59781000D01*
X165138000Y-59781000D02*
X163600000Y-59781000D01*
X161520000Y-59821000D02*
X159953000Y-59821000D01*
X165167000Y-59821000D02*
X163600000Y-59821000D01*
X161520000Y-59861000D02*
X159924000Y-59861000D01*
X165196000Y-59861000D02*
X163600000Y-59861000D01*
X161520000Y-59901000D02*
X159896000Y-59901000D01*
X165224000Y-59901000D02*
X163600000Y-59901000D01*
X161520000Y-59941000D02*
X159870000Y-59941000D01*
X165250000Y-59941000D02*
X163600000Y-59941000D01*
X161520000Y-59981000D02*
X159844000Y-59981000D01*
X165276000Y-59981000D02*
X163600000Y-59981000D01*
X161520000Y-60021000D02*
X159818000Y-60021000D01*
X165302000Y-60021000D02*
X163600000Y-60021000D01*
X161520000Y-60061000D02*
X159794000Y-60061000D01*
X165326000Y-60061000D02*
X163600000Y-60061000D01*
X161520000Y-60101000D02*
X159770000Y-60101000D01*
X165350000Y-60101000D02*
X163600000Y-60101000D01*
X161520000Y-60141000D02*
X159748000Y-60141000D01*
X165372000Y-60141000D02*
X163600000Y-60141000D01*
X161520000Y-60181000D02*
X159726000Y-60181000D01*
X165394000Y-60181000D02*
X163600000Y-60181000D01*
X161520000Y-60221000D02*
X159704000Y-60221000D01*
X165416000Y-60221000D02*
X163600000Y-60221000D01*
X161520000Y-60261000D02*
X159684000Y-60261000D01*
X165436000Y-60261000D02*
X163600000Y-60261000D01*
X161520000Y-60301000D02*
X159664000Y-60301000D01*
X165456000Y-60301000D02*
X163600000Y-60301000D01*
X161520000Y-60341000D02*
X159644000Y-60341000D01*
X165476000Y-60341000D02*
X163600000Y-60341000D01*
X161520000Y-60381000D02*
X159626000Y-60381000D01*
X165494000Y-60381000D02*
X163600000Y-60381000D01*
X161520000Y-60421000D02*
X159608000Y-60421000D01*
X165512000Y-60421000D02*
X163600000Y-60421000D01*
X161520000Y-60461000D02*
X159590000Y-60461000D01*
X165530000Y-60461000D02*
X163600000Y-60461000D01*
X161520000Y-60501000D02*
X159574000Y-60501000D01*
X165546000Y-60501000D02*
X163600000Y-60501000D01*
X161520000Y-60541000D02*
X159558000Y-60541000D01*
X165562000Y-60541000D02*
X163600000Y-60541000D01*
X161520000Y-60581000D02*
X159542000Y-60581000D01*
X165578000Y-60581000D02*
X163600000Y-60581000D01*
X161520000Y-60621000D02*
X159527000Y-60621000D01*
X165593000Y-60621000D02*
X163600000Y-60621000D01*
X161520000Y-60661000D02*
X159513000Y-60661000D01*
X165607000Y-60661000D02*
X163600000Y-60661000D01*
X161520000Y-60701000D02*
X159499000Y-60701000D01*
X165621000Y-60701000D02*
X163600000Y-60701000D01*
X161520000Y-60741000D02*
X159486000Y-60741000D01*
X165634000Y-60741000D02*
X163600000Y-60741000D01*
X161520000Y-60781000D02*
X159474000Y-60781000D01*
X165646000Y-60781000D02*
X163600000Y-60781000D01*
X161520000Y-60821000D02*
X159462000Y-60821000D01*
X165658000Y-60821000D02*
X163600000Y-60821000D01*
X161520000Y-60861000D02*
X159450000Y-60861000D01*
X165670000Y-60861000D02*
X163600000Y-60861000D01*
X161520000Y-60901000D02*
X159439000Y-60901000D01*
X165681000Y-60901000D02*
X163600000Y-60901000D01*
X161520000Y-60941000D02*
X159429000Y-60941000D01*
X165691000Y-60941000D02*
X163600000Y-60941000D01*
X161520000Y-60981000D02*
X159419000Y-60981000D01*
X165701000Y-60981000D02*
X163600000Y-60981000D01*
X161520000Y-61021000D02*
X159410000Y-61021000D01*
X165710000Y-61021000D02*
X163600000Y-61021000D01*
X161520000Y-61062000D02*
X159401000Y-61062000D01*
X165719000Y-61062000D02*
X163600000Y-61062000D01*
X161520000Y-61102000D02*
X159393000Y-61102000D01*
X165727000Y-61102000D02*
X163600000Y-61102000D01*
X161520000Y-61142000D02*
X159385000Y-61142000D01*
X165735000Y-61142000D02*
X163600000Y-61142000D01*
X161520000Y-61182000D02*
X159378000Y-61182000D01*
X165742000Y-61182000D02*
X163600000Y-61182000D01*
X161520000Y-61222000D02*
X159371000Y-61222000D01*
X165749000Y-61222000D02*
X163600000Y-61222000D01*
X161520000Y-61262000D02*
X159365000Y-61262000D01*
X165755000Y-61262000D02*
X163600000Y-61262000D01*
X161520000Y-61302000D02*
X159359000Y-61302000D01*
X165761000Y-61302000D02*
X163600000Y-61302000D01*
X161520000Y-61342000D02*
X159354000Y-61342000D01*
X165766000Y-61342000D02*
X163600000Y-61342000D01*
X161520000Y-61382000D02*
X159349000Y-61382000D01*
X165771000Y-61382000D02*
X163600000Y-61382000D01*
X161520000Y-61422000D02*
X159345000Y-61422000D01*
X165775000Y-61422000D02*
X163600000Y-61422000D01*
X161520000Y-61462000D02*
X159342000Y-61462000D01*
X165778000Y-61462000D02*
X163600000Y-61462000D01*
X161520000Y-61502000D02*
X159338000Y-61502000D01*
X165782000Y-61502000D02*
X163600000Y-61502000D01*
X165784000Y-61542000D02*
X159336000Y-61542000D01*
X165787000Y-61582000D02*
X159333000Y-61582000D01*
X165788000Y-61622000D02*
X159332000Y-61622000D01*
X165790000Y-61662000D02*
X159330000Y-61662000D01*
X165790000Y-61702000D02*
X159330000Y-61702000D01*
X165790000Y-61742000D02*
X159330000Y-61742000D01*
X165830000Y-61742000D02*
G75*
G03*
X165830000Y-61742000I-3270000J0D01*
G01*
%TO.C,C3*%
X134835000Y-62032000D02*
X134820000Y-62032000D01*
X136960000Y-62032000D02*
X136945000Y-62032000D01*
X134835000Y-66572000D02*
X134820000Y-66572000D01*
X136960000Y-66572000D02*
X136945000Y-66572000D01*
X134820000Y-66572000D02*
X134820000Y-62032000D01*
X136960000Y-66572000D02*
X136960000Y-62032000D01*
%TO.C,C2*%
X91054000Y-66197241D02*
X90424000Y-66197241D01*
X90739000Y-66512241D02*
X90739000Y-65882241D01*
X89302000Y-59771000D02*
X88498000Y-59771000D01*
X89533000Y-59811000D02*
X88267000Y-59811000D01*
X89702000Y-59851000D02*
X88098000Y-59851000D01*
X89840000Y-59891000D02*
X87960000Y-59891000D01*
X89959000Y-59931000D02*
X87841000Y-59931000D01*
X90065000Y-59971000D02*
X87735000Y-59971000D01*
X90162000Y-60011000D02*
X87638000Y-60011000D01*
X90250000Y-60051000D02*
X87550000Y-60051000D01*
X90332000Y-60091000D02*
X87468000Y-60091000D01*
X90409000Y-60131000D02*
X87391000Y-60131000D01*
X90481000Y-60171000D02*
X87319000Y-60171000D01*
X90550000Y-60211000D02*
X87250000Y-60211000D01*
X90614000Y-60251000D02*
X87186000Y-60251000D01*
X90676000Y-60291000D02*
X87124000Y-60291000D01*
X90734000Y-60331000D02*
X87066000Y-60331000D01*
X90790000Y-60371000D02*
X87010000Y-60371000D01*
X90844000Y-60411000D02*
X86956000Y-60411000D01*
X90895000Y-60451000D02*
X86905000Y-60451000D01*
X90944000Y-60491000D02*
X86856000Y-60491000D01*
X90992000Y-60531000D02*
X86808000Y-60531000D01*
X91037000Y-60571000D02*
X86763000Y-60571000D01*
X91082000Y-60611000D02*
X86718000Y-60611000D01*
X91124000Y-60651000D02*
X86676000Y-60651000D01*
X91165000Y-60691000D02*
X86635000Y-60691000D01*
X87860000Y-60731000D02*
X86595000Y-60731000D01*
X91205000Y-60731000D02*
X89940000Y-60731000D01*
X87860000Y-60771000D02*
X86557000Y-60771000D01*
X91243000Y-60771000D02*
X89940000Y-60771000D01*
X87860000Y-60811000D02*
X86520000Y-60811000D01*
X91280000Y-60811000D02*
X89940000Y-60811000D01*
X87860000Y-60851000D02*
X86484000Y-60851000D01*
X91316000Y-60851000D02*
X89940000Y-60851000D01*
X87860000Y-60891000D02*
X86450000Y-60891000D01*
X91350000Y-60891000D02*
X89940000Y-60891000D01*
X87860000Y-60931000D02*
X86416000Y-60931000D01*
X91384000Y-60931000D02*
X89940000Y-60931000D01*
X87860000Y-60971000D02*
X86384000Y-60971000D01*
X91416000Y-60971000D02*
X89940000Y-60971000D01*
X87860000Y-61011000D02*
X86352000Y-61011000D01*
X91448000Y-61011000D02*
X89940000Y-61011000D01*
X87860000Y-61051000D02*
X86322000Y-61051000D01*
X91478000Y-61051000D02*
X89940000Y-61051000D01*
X87860000Y-61091000D02*
X86293000Y-61091000D01*
X91507000Y-61091000D02*
X89940000Y-61091000D01*
X87860000Y-61131000D02*
X86264000Y-61131000D01*
X91536000Y-61131000D02*
X89940000Y-61131000D01*
X87860000Y-61171000D02*
X86236000Y-61171000D01*
X91564000Y-61171000D02*
X89940000Y-61171000D01*
X87860000Y-61211000D02*
X86210000Y-61211000D01*
X91590000Y-61211000D02*
X89940000Y-61211000D01*
X87860000Y-61251000D02*
X86184000Y-61251000D01*
X91616000Y-61251000D02*
X89940000Y-61251000D01*
X87860000Y-61291000D02*
X86158000Y-61291000D01*
X91642000Y-61291000D02*
X89940000Y-61291000D01*
X87860000Y-61331000D02*
X86134000Y-61331000D01*
X91666000Y-61331000D02*
X89940000Y-61331000D01*
X87860000Y-61371000D02*
X86110000Y-61371000D01*
X91690000Y-61371000D02*
X89940000Y-61371000D01*
X87860000Y-61411000D02*
X86088000Y-61411000D01*
X91712000Y-61411000D02*
X89940000Y-61411000D01*
X87860000Y-61451000D02*
X86066000Y-61451000D01*
X91734000Y-61451000D02*
X89940000Y-61451000D01*
X87860000Y-61491000D02*
X86044000Y-61491000D01*
X91756000Y-61491000D02*
X89940000Y-61491000D01*
X87860000Y-61531000D02*
X86024000Y-61531000D01*
X91776000Y-61531000D02*
X89940000Y-61531000D01*
X87860000Y-61571000D02*
X86004000Y-61571000D01*
X91796000Y-61571000D02*
X89940000Y-61571000D01*
X87860000Y-61611000D02*
X85984000Y-61611000D01*
X91816000Y-61611000D02*
X89940000Y-61611000D01*
X87860000Y-61651000D02*
X85966000Y-61651000D01*
X91834000Y-61651000D02*
X89940000Y-61651000D01*
X87860000Y-61691000D02*
X85948000Y-61691000D01*
X91852000Y-61691000D02*
X89940000Y-61691000D01*
X87860000Y-61731000D02*
X85930000Y-61731000D01*
X91870000Y-61731000D02*
X89940000Y-61731000D01*
X87860000Y-61771000D02*
X85914000Y-61771000D01*
X91886000Y-61771000D02*
X89940000Y-61771000D01*
X87860000Y-61811000D02*
X85898000Y-61811000D01*
X91902000Y-61811000D02*
X89940000Y-61811000D01*
X87860000Y-61851000D02*
X85882000Y-61851000D01*
X91918000Y-61851000D02*
X89940000Y-61851000D01*
X87860000Y-61891000D02*
X85867000Y-61891000D01*
X91933000Y-61891000D02*
X89940000Y-61891000D01*
X87860000Y-61931000D02*
X85853000Y-61931000D01*
X91947000Y-61931000D02*
X89940000Y-61931000D01*
X87860000Y-61971000D02*
X85839000Y-61971000D01*
X91961000Y-61971000D02*
X89940000Y-61971000D01*
X87860000Y-62011000D02*
X85826000Y-62011000D01*
X91974000Y-62011000D02*
X89940000Y-62011000D01*
X87860000Y-62051000D02*
X85814000Y-62051000D01*
X91986000Y-62051000D02*
X89940000Y-62051000D01*
X87860000Y-62091000D02*
X85802000Y-62091000D01*
X91998000Y-62091000D02*
X89940000Y-62091000D01*
X87860000Y-62131000D02*
X85790000Y-62131000D01*
X92010000Y-62131000D02*
X89940000Y-62131000D01*
X87860000Y-62171000D02*
X85779000Y-62171000D01*
X92021000Y-62171000D02*
X89940000Y-62171000D01*
X87860000Y-62211000D02*
X85769000Y-62211000D01*
X92031000Y-62211000D02*
X89940000Y-62211000D01*
X87860000Y-62251000D02*
X85759000Y-62251000D01*
X92041000Y-62251000D02*
X89940000Y-62251000D01*
X87860000Y-62291000D02*
X85750000Y-62291000D01*
X92050000Y-62291000D02*
X89940000Y-62291000D01*
X87860000Y-62332000D02*
X85741000Y-62332000D01*
X92059000Y-62332000D02*
X89940000Y-62332000D01*
X87860000Y-62372000D02*
X85733000Y-62372000D01*
X92067000Y-62372000D02*
X89940000Y-62372000D01*
X87860000Y-62412000D02*
X85725000Y-62412000D01*
X92075000Y-62412000D02*
X89940000Y-62412000D01*
X87860000Y-62452000D02*
X85718000Y-62452000D01*
X92082000Y-62452000D02*
X89940000Y-62452000D01*
X87860000Y-62492000D02*
X85711000Y-62492000D01*
X92089000Y-62492000D02*
X89940000Y-62492000D01*
X87860000Y-62532000D02*
X85705000Y-62532000D01*
X92095000Y-62532000D02*
X89940000Y-62532000D01*
X87860000Y-62572000D02*
X85699000Y-62572000D01*
X92101000Y-62572000D02*
X89940000Y-62572000D01*
X87860000Y-62612000D02*
X85694000Y-62612000D01*
X92106000Y-62612000D02*
X89940000Y-62612000D01*
X87860000Y-62652000D02*
X85689000Y-62652000D01*
X92111000Y-62652000D02*
X89940000Y-62652000D01*
X87860000Y-62692000D02*
X85685000Y-62692000D01*
X92115000Y-62692000D02*
X89940000Y-62692000D01*
X87860000Y-62732000D02*
X85682000Y-62732000D01*
X92118000Y-62732000D02*
X89940000Y-62732000D01*
X87860000Y-62772000D02*
X85678000Y-62772000D01*
X92122000Y-62772000D02*
X89940000Y-62772000D01*
X92124000Y-62812000D02*
X85676000Y-62812000D01*
X92127000Y-62852000D02*
X85673000Y-62852000D01*
X92128000Y-62892000D02*
X85672000Y-62892000D01*
X92130000Y-62932000D02*
X85670000Y-62932000D01*
X92130000Y-62972000D02*
X85670000Y-62972000D01*
X92130000Y-63012000D02*
X85670000Y-63012000D01*
X92170000Y-63012000D02*
G75*
G03*
X92170000Y-63012000I-3270000J0D01*
G01*
%TO.C,C1*%
X91384000Y-52793000D02*
X91384000Y-52778000D01*
X91384000Y-54918000D02*
X91384000Y-54903000D01*
X86844000Y-52793000D02*
X86844000Y-52778000D01*
X86844000Y-54918000D02*
X86844000Y-54903000D01*
X86844000Y-52778000D02*
X91384000Y-52778000D01*
X86844000Y-54918000D02*
X91384000Y-54918000D01*
%TO.C,J4*%
X94334000Y-58878000D02*
X94334000Y-57088000D01*
X94044000Y-58878000D02*
X94334000Y-58878000D01*
X94044000Y-62738000D02*
X94044000Y-58878000D01*
X94044000Y-66598000D02*
X94334000Y-66598000D01*
X94044000Y-62738000D02*
X94044000Y-66598000D01*
X112204000Y-58878000D02*
X111914000Y-58878000D01*
X112204000Y-62738000D02*
X112204000Y-58878000D01*
X112204000Y-66598000D02*
X111914000Y-66598000D01*
X112204000Y-62738000D02*
X112204000Y-66598000D01*
%TO.C,J1*%
X139038000Y-59132000D02*
X139038000Y-57342000D01*
X138748000Y-59132000D02*
X139038000Y-59132000D01*
X138748000Y-62992000D02*
X138748000Y-59132000D01*
X138748000Y-66852000D02*
X139038000Y-66852000D01*
X138748000Y-62992000D02*
X138748000Y-66852000D01*
X156908000Y-59132000D02*
X156618000Y-59132000D01*
X156908000Y-62992000D02*
X156908000Y-59132000D01*
X156908000Y-66852000D02*
X156618000Y-66852000D01*
X156908000Y-62992000D02*
X156908000Y-66852000D01*
%TO.C,J3*%
X130760000Y-99950000D02*
X130760000Y-93980000D01*
X130760000Y-93980000D02*
X143380000Y-93980000D01*
X143380000Y-93980000D02*
X143380000Y-99950000D01*
X143380000Y-99950000D02*
X130760000Y-99950000D01*
X134070000Y-99940000D02*
X134070000Y-99190000D01*
X134070000Y-99190000D02*
X140070000Y-99190000D01*
X140070000Y-99190000D02*
X140070000Y-99940000D01*
X140070000Y-99940000D02*
X134070000Y-99940000D01*
X130770000Y-99940000D02*
X130770000Y-99190000D01*
X130770000Y-99190000D02*
X132570000Y-99190000D01*
X132570000Y-99190000D02*
X132570000Y-99940000D01*
X132570000Y-99940000D02*
X130770000Y-99940000D01*
X141570000Y-99940000D02*
X141570000Y-99190000D01*
X141570000Y-99190000D02*
X143370000Y-99190000D01*
X143370000Y-99190000D02*
X143370000Y-99940000D01*
X143370000Y-99940000D02*
X141570000Y-99940000D01*
X130770000Y-97690000D02*
X131520000Y-97690000D01*
X131520000Y-97690000D02*
X131520000Y-94740000D01*
X131520000Y-94740000D02*
X137070000Y-94740000D01*
X143370000Y-97690000D02*
X142620000Y-97690000D01*
X142620000Y-97690000D02*
X142620000Y-94740000D01*
X142620000Y-94740000D02*
X137070000Y-94740000D01*
X131720000Y-100240000D02*
X130470000Y-100240000D01*
X130470000Y-100240000D02*
X130470000Y-98990000D01*
%TO.C,J2*%
X106630000Y-99950000D02*
X106630000Y-93980000D01*
X106630000Y-93980000D02*
X119250000Y-93980000D01*
X119250000Y-93980000D02*
X119250000Y-99950000D01*
X119250000Y-99950000D02*
X106630000Y-99950000D01*
X109940000Y-99940000D02*
X109940000Y-99190000D01*
X109940000Y-99190000D02*
X115940000Y-99190000D01*
X115940000Y-99190000D02*
X115940000Y-99940000D01*
X115940000Y-99940000D02*
X109940000Y-99940000D01*
X106640000Y-99940000D02*
X106640000Y-99190000D01*
X106640000Y-99190000D02*
X108440000Y-99190000D01*
X108440000Y-99190000D02*
X108440000Y-99940000D01*
X108440000Y-99940000D02*
X106640000Y-99940000D01*
X117440000Y-99940000D02*
X117440000Y-99190000D01*
X117440000Y-99190000D02*
X119240000Y-99190000D01*
X119240000Y-99190000D02*
X119240000Y-99940000D01*
X119240000Y-99940000D02*
X117440000Y-99940000D01*
X106640000Y-97690000D02*
X107390000Y-97690000D01*
X107390000Y-97690000D02*
X107390000Y-94740000D01*
X107390000Y-94740000D02*
X112940000Y-94740000D01*
X119240000Y-97690000D02*
X118490000Y-97690000D01*
X118490000Y-97690000D02*
X118490000Y-94740000D01*
X118490000Y-94740000D02*
X112940000Y-94740000D01*
X107590000Y-100240000D02*
X106340000Y-100240000D01*
X106340000Y-100240000D02*
X106340000Y-98990000D01*
%TO.C,D12*%
D10*
X163266380Y-79049714D02*
X162266380Y-79049714D01*
X162266380Y-79287809D01*
X162314000Y-79430666D01*
X162409238Y-79525904D01*
X162504476Y-79573523D01*
X162694952Y-79621142D01*
X162837809Y-79621142D01*
X163028285Y-79573523D01*
X163123523Y-79525904D01*
X163218761Y-79430666D01*
X163266380Y-79287809D01*
X163266380Y-79049714D01*
X163266380Y-80573523D02*
X163266380Y-80002095D01*
X163266380Y-80287809D02*
X162266380Y-80287809D01*
X162409238Y-80192571D01*
X162504476Y-80097333D01*
X162552095Y-80002095D01*
X162361619Y-80954476D02*
X162314000Y-81002095D01*
X162266380Y-81097333D01*
X162266380Y-81335428D01*
X162314000Y-81430666D01*
X162361619Y-81478285D01*
X162456857Y-81525904D01*
X162552095Y-81525904D01*
X162694952Y-81478285D01*
X163266380Y-80906857D01*
X163266380Y-81525904D01*
X162372380Y-83558095D02*
X161372380Y-83558095D01*
X162372380Y-84129523D02*
X161800952Y-83700952D01*
X161372380Y-84129523D02*
X161943809Y-83558095D01*
%TO.C,D11*%
X90806380Y-80319714D02*
X89806380Y-80319714D01*
X89806380Y-80557809D01*
X89854000Y-80700666D01*
X89949238Y-80795904D01*
X90044476Y-80843523D01*
X90234952Y-80891142D01*
X90377809Y-80891142D01*
X90568285Y-80843523D01*
X90663523Y-80795904D01*
X90758761Y-80700666D01*
X90806380Y-80557809D01*
X90806380Y-80319714D01*
X90806380Y-81843523D02*
X90806380Y-81272095D01*
X90806380Y-81557809D02*
X89806380Y-81557809D01*
X89949238Y-81462571D01*
X90044476Y-81367333D01*
X90092095Y-81272095D01*
X90806380Y-82795904D02*
X90806380Y-82224476D01*
X90806380Y-82510190D02*
X89806380Y-82510190D01*
X89949238Y-82414952D01*
X90044476Y-82319714D01*
X90092095Y-82224476D01*
X90236380Y-85082095D02*
X89236380Y-85082095D01*
X90236380Y-85653523D02*
X89664952Y-85224952D01*
X89236380Y-85653523D02*
X89807809Y-85082095D01*
%TO.C,R6*%
X122372380Y-92543333D02*
X121896190Y-92210000D01*
X122372380Y-91971904D02*
X121372380Y-91971904D01*
X121372380Y-92352857D01*
X121420000Y-92448095D01*
X121467619Y-92495714D01*
X121562857Y-92543333D01*
X121705714Y-92543333D01*
X121800952Y-92495714D01*
X121848571Y-92448095D01*
X121896190Y-92352857D01*
X121896190Y-91971904D01*
X121372380Y-93400476D02*
X121372380Y-93210000D01*
X121420000Y-93114761D01*
X121467619Y-93067142D01*
X121610476Y-92971904D01*
X121800952Y-92924285D01*
X122181904Y-92924285D01*
X122277142Y-92971904D01*
X122324761Y-93019523D01*
X122372380Y-93114761D01*
X122372380Y-93305238D01*
X122324761Y-93400476D01*
X122277142Y-93448095D01*
X122181904Y-93495714D01*
X121943809Y-93495714D01*
X121848571Y-93448095D01*
X121800952Y-93400476D01*
X121753333Y-93305238D01*
X121753333Y-93114761D01*
X121800952Y-93019523D01*
X121848571Y-92971904D01*
X121943809Y-92924285D01*
%TO.C,R5*%
X125420380Y-92543333D02*
X124944190Y-92210000D01*
X125420380Y-91971904D02*
X124420380Y-91971904D01*
X124420380Y-92352857D01*
X124468000Y-92448095D01*
X124515619Y-92495714D01*
X124610857Y-92543333D01*
X124753714Y-92543333D01*
X124848952Y-92495714D01*
X124896571Y-92448095D01*
X124944190Y-92352857D01*
X124944190Y-91971904D01*
X124420380Y-93448095D02*
X124420380Y-92971904D01*
X124896571Y-92924285D01*
X124848952Y-92971904D01*
X124801333Y-93067142D01*
X124801333Y-93305238D01*
X124848952Y-93400476D01*
X124896571Y-93448095D01*
X124991809Y-93495714D01*
X125229904Y-93495714D01*
X125325142Y-93448095D01*
X125372761Y-93400476D01*
X125420380Y-93305238D01*
X125420380Y-93067142D01*
X125372761Y-92971904D01*
X125325142Y-92924285D01*
%TO.C,R4*%
X128722380Y-92543333D02*
X128246190Y-92210000D01*
X128722380Y-91971904D02*
X127722380Y-91971904D01*
X127722380Y-92352857D01*
X127770000Y-92448095D01*
X127817619Y-92495714D01*
X127912857Y-92543333D01*
X128055714Y-92543333D01*
X128150952Y-92495714D01*
X128198571Y-92448095D01*
X128246190Y-92352857D01*
X128246190Y-91971904D01*
X128055714Y-93400476D02*
X128722380Y-93400476D01*
X127674761Y-93162380D02*
X128389047Y-92924285D01*
X128389047Y-93543333D01*
%TO.C,R3*%
X148534380Y-92543333D02*
X148058190Y-92210000D01*
X148534380Y-91971904D02*
X147534380Y-91971904D01*
X147534380Y-92352857D01*
X147582000Y-92448095D01*
X147629619Y-92495714D01*
X147724857Y-92543333D01*
X147867714Y-92543333D01*
X147962952Y-92495714D01*
X148010571Y-92448095D01*
X148058190Y-92352857D01*
X148058190Y-91971904D01*
X147534380Y-92876666D02*
X147534380Y-93495714D01*
X147915333Y-93162380D01*
X147915333Y-93305238D01*
X147962952Y-93400476D01*
X148010571Y-93448095D01*
X148105809Y-93495714D01*
X148343904Y-93495714D01*
X148439142Y-93448095D01*
X148486761Y-93400476D01*
X148534380Y-93305238D01*
X148534380Y-93019523D01*
X148486761Y-92924285D01*
X148439142Y-92876666D01*
%TO.C,R2*%
X151836380Y-92543333D02*
X151360190Y-92210000D01*
X151836380Y-91971904D02*
X150836380Y-91971904D01*
X150836380Y-92352857D01*
X150884000Y-92448095D01*
X150931619Y-92495714D01*
X151026857Y-92543333D01*
X151169714Y-92543333D01*
X151264952Y-92495714D01*
X151312571Y-92448095D01*
X151360190Y-92352857D01*
X151360190Y-91971904D01*
X150931619Y-92924285D02*
X150884000Y-92971904D01*
X150836380Y-93067142D01*
X150836380Y-93305238D01*
X150884000Y-93400476D01*
X150931619Y-93448095D01*
X151026857Y-93495714D01*
X151122095Y-93495714D01*
X151264952Y-93448095D01*
X151836380Y-92876666D01*
X151836380Y-93495714D01*
%TO.C,R1*%
X155392380Y-92543333D02*
X154916190Y-92210000D01*
X155392380Y-91971904D02*
X154392380Y-91971904D01*
X154392380Y-92352857D01*
X154440000Y-92448095D01*
X154487619Y-92495714D01*
X154582857Y-92543333D01*
X154725714Y-92543333D01*
X154820952Y-92495714D01*
X154868571Y-92448095D01*
X154916190Y-92352857D01*
X154916190Y-91971904D01*
X155392380Y-93495714D02*
X155392380Y-92924285D01*
X155392380Y-93210000D02*
X154392380Y-93210000D01*
X154535238Y-93114761D01*
X154630476Y-93019523D01*
X154678095Y-92924285D01*
%TO.C,C4*%
X162472666Y-57761142D02*
X162520285Y-57808761D01*
X162663142Y-57856380D01*
X162758380Y-57856380D01*
X162901238Y-57808761D01*
X162996476Y-57713523D01*
X163044095Y-57618285D01*
X163091714Y-57427809D01*
X163091714Y-57284952D01*
X163044095Y-57094476D01*
X162996476Y-56999238D01*
X162901238Y-56904000D01*
X162758380Y-56856380D01*
X162663142Y-56856380D01*
X162520285Y-56904000D01*
X162472666Y-56951619D01*
X161615523Y-57189714D02*
X161615523Y-57856380D01*
X161853619Y-56808761D02*
X162091714Y-57523047D01*
X161472666Y-57523047D01*
%TO.C,C3*%
X135485142Y-59015333D02*
X135532761Y-58967714D01*
X135580380Y-58824857D01*
X135580380Y-58729619D01*
X135532761Y-58586761D01*
X135437523Y-58491523D01*
X135342285Y-58443904D01*
X135151809Y-58396285D01*
X135008952Y-58396285D01*
X134818476Y-58443904D01*
X134723238Y-58491523D01*
X134628000Y-58586761D01*
X134580380Y-58729619D01*
X134580380Y-58824857D01*
X134628000Y-58967714D01*
X134675619Y-59015333D01*
X134580380Y-59348666D02*
X134580380Y-59967714D01*
X134961333Y-59634380D01*
X134961333Y-59777238D01*
X135008952Y-59872476D01*
X135056571Y-59920095D01*
X135151809Y-59967714D01*
X135389904Y-59967714D01*
X135485142Y-59920095D01*
X135532761Y-59872476D01*
X135580380Y-59777238D01*
X135580380Y-59491523D01*
X135532761Y-59396285D01*
X135485142Y-59348666D01*
%TO.C,C2*%
X88812666Y-58523142D02*
X88860285Y-58570761D01*
X89003142Y-58618380D01*
X89098380Y-58618380D01*
X89241238Y-58570761D01*
X89336476Y-58475523D01*
X89384095Y-58380285D01*
X89431714Y-58189809D01*
X89431714Y-58046952D01*
X89384095Y-57856476D01*
X89336476Y-57761238D01*
X89241238Y-57666000D01*
X89098380Y-57618380D01*
X89003142Y-57618380D01*
X88860285Y-57666000D01*
X88812666Y-57713619D01*
X88431714Y-57713619D02*
X88384095Y-57666000D01*
X88288857Y-57618380D01*
X88050761Y-57618380D01*
X87955523Y-57666000D01*
X87907904Y-57713619D01*
X87860285Y-57808857D01*
X87860285Y-57904095D01*
X87907904Y-58046952D01*
X88479333Y-58618380D01*
X87860285Y-58618380D01*
%TO.C,C1*%
X89280666Y-56405142D02*
X89328285Y-56452761D01*
X89471142Y-56500380D01*
X89566380Y-56500380D01*
X89709238Y-56452761D01*
X89804476Y-56357523D01*
X89852095Y-56262285D01*
X89899714Y-56071809D01*
X89899714Y-55928952D01*
X89852095Y-55738476D01*
X89804476Y-55643238D01*
X89709238Y-55548000D01*
X89566380Y-55500380D01*
X89471142Y-55500380D01*
X89328285Y-55548000D01*
X89280666Y-55595619D01*
X88328285Y-56500380D02*
X88899714Y-56500380D01*
X88614000Y-56500380D02*
X88614000Y-55500380D01*
X88709238Y-55643238D01*
X88804476Y-55738476D01*
X88899714Y-55786095D01*
%TO.C,J4*%
X92656380Y-62404666D02*
X93370666Y-62404666D01*
X93513523Y-62357047D01*
X93608761Y-62261809D01*
X93656380Y-62118952D01*
X93656380Y-62023714D01*
X92989714Y-63309428D02*
X93656380Y-63309428D01*
X92608761Y-63071333D02*
X93323047Y-62833238D01*
X93323047Y-63452285D01*
%TO.C,J1*%
X136358380Y-59356666D02*
X137072666Y-59356666D01*
X137215523Y-59309047D01*
X137310761Y-59213809D01*
X137358380Y-59070952D01*
X137358380Y-58975714D01*
X137358380Y-60356666D02*
X137358380Y-59785238D01*
X137358380Y-60070952D02*
X136358380Y-60070952D01*
X136501238Y-59975714D01*
X136596476Y-59880476D01*
X136644095Y-59785238D01*
%TO.C,J3*%
X143978380Y-97456666D02*
X144692666Y-97456666D01*
X144835523Y-97409047D01*
X144930761Y-97313809D01*
X144978380Y-97170952D01*
X144978380Y-97075714D01*
X143978380Y-97837619D02*
X143978380Y-98456666D01*
X144359333Y-98123333D01*
X144359333Y-98266190D01*
X144406952Y-98361428D01*
X144454571Y-98409047D01*
X144549809Y-98456666D01*
X144787904Y-98456666D01*
X144883142Y-98409047D01*
X144930761Y-98361428D01*
X144978380Y-98266190D01*
X144978380Y-97980476D01*
X144930761Y-97885238D01*
X144883142Y-97837619D01*
X138136190Y-101544380D02*
X138136190Y-100544380D01*
X137707619Y-100639619D02*
X137660000Y-100592000D01*
X137564761Y-100544380D01*
X137326666Y-100544380D01*
X137231428Y-100592000D01*
X137183809Y-100639619D01*
X137136190Y-100734857D01*
X137136190Y-100830095D01*
X137183809Y-100972952D01*
X137755238Y-101544380D01*
X137136190Y-101544380D01*
X136136190Y-101449142D02*
X136183809Y-101496761D01*
X136326666Y-101544380D01*
X136421904Y-101544380D01*
X136564761Y-101496761D01*
X136660000Y-101401523D01*
X136707619Y-101306285D01*
X136755238Y-101115809D01*
X136755238Y-100972952D01*
X136707619Y-100782476D01*
X136660000Y-100687238D01*
X136564761Y-100592000D01*
X136421904Y-100544380D01*
X136326666Y-100544380D01*
X136183809Y-100592000D01*
X136136190Y-100639619D01*
%TO.C,J2*%
X108283333Y-100798380D02*
X108283333Y-101512666D01*
X108330952Y-101655523D01*
X108426190Y-101750761D01*
X108569047Y-101798380D01*
X108664285Y-101798380D01*
X107854761Y-100893619D02*
X107807142Y-100846000D01*
X107711904Y-100798380D01*
X107473809Y-100798380D01*
X107378571Y-100846000D01*
X107330952Y-100893619D01*
X107283333Y-100988857D01*
X107283333Y-101084095D01*
X107330952Y-101226952D01*
X107902380Y-101798380D01*
X107283333Y-101798380D01*
X113498190Y-101544380D02*
X113498190Y-100544380D01*
X113069619Y-100639619D02*
X113022000Y-100592000D01*
X112926761Y-100544380D01*
X112688666Y-100544380D01*
X112593428Y-100592000D01*
X112545809Y-100639619D01*
X112498190Y-100734857D01*
X112498190Y-100830095D01*
X112545809Y-100972952D01*
X113117238Y-101544380D01*
X112498190Y-101544380D01*
X111498190Y-101449142D02*
X111545809Y-101496761D01*
X111688666Y-101544380D01*
X111783904Y-101544380D01*
X111926761Y-101496761D01*
X112022000Y-101401523D01*
X112069619Y-101306285D01*
X112117238Y-101115809D01*
X112117238Y-100972952D01*
X112069619Y-100782476D01*
X112022000Y-100687238D01*
X111926761Y-100592000D01*
X111783904Y-100544380D01*
X111688666Y-100544380D01*
X111545809Y-100592000D01*
X111498190Y-100639619D01*
%TD*%
M02*
