%TF.GenerationSoftware,KiCad,Pcbnew,5.1.10-88a1d61d58~88~ubuntu20.04.1*%
%TF.CreationDate,2021-05-13T16:29:57+02:00*%
%TF.ProjectId,anna_elsa_reel_pcb,616e6e61-5f65-46c7-9361-5f7265656c5f,rev?*%
%TF.SameCoordinates,Original*%
%TF.FileFunction,Soldermask,Bot*%
%TF.FilePolarity,Negative*%
%FSLAX46Y46*%
G04 Gerber Fmt 4.6, Leading zero omitted, Abs format (unit mm)*
G04 Created by KiCad (PCBNEW 5.1.10-88a1d61d58~88~ubuntu20.04.1) date 2021-05-13 16:29:57*
%MOMM*%
%LPD*%
G01*
G04 APERTURE LIST*
%ADD10O,1.500000X1.500000*%
%ADD11R,1.500000X1.500000*%
%ADD12C,1.600000*%
%ADD13R,1.600000X1.600000*%
%ADD14O,1.600000X1.600000*%
%ADD15C,0.901700*%
%ADD16C,1.701800*%
%ADD17C,1.409700*%
%ADD18O,1.950000X1.700000*%
%ADD19O,1.700000X1.950000*%
%ADD20C,3.000000*%
G04 APERTURE END LIST*
D10*
%TO.C,D1*%
X86360000Y-69850000D03*
D11*
X86360000Y-62230000D03*
%TD*%
D12*
%TO.C,C3*%
X77470000Y-78010000D03*
D13*
X77470000Y-80010000D03*
%TD*%
D12*
%TO.C,C4*%
X97790000Y-67310000D03*
X97790000Y-64810000D03*
%TD*%
D14*
%TO.C,R4*%
X113510000Y-88900000D03*
D12*
X113510000Y-99060000D03*
%TD*%
D14*
%TO.C,R3*%
X109460000Y-88900000D03*
D12*
X109460000Y-99060000D03*
%TD*%
D14*
%TO.C,R2*%
X105410000Y-88900000D03*
D12*
X105410000Y-99060000D03*
%TD*%
D14*
%TO.C,U1*%
X121920000Y-69850000D03*
X104140000Y-62230000D03*
X119380000Y-69850000D03*
X106680000Y-62230000D03*
X116840000Y-69850000D03*
X109220000Y-62230000D03*
X114300000Y-69850000D03*
X111760000Y-62230000D03*
X111760000Y-69850000D03*
X114300000Y-62230000D03*
X109220000Y-69850000D03*
X116840000Y-62230000D03*
X106680000Y-69850000D03*
X119380000Y-62230000D03*
X104140000Y-69850000D03*
D13*
X121920000Y-62230000D03*
%TD*%
D12*
%TO.C,C2*%
X177500000Y-69000000D03*
X180000000Y-69000000D03*
%TD*%
D14*
%TO.C,R1*%
X169000000Y-75840000D03*
D12*
X169000000Y-86000000D03*
%TD*%
%TO.C,C1*%
X128000000Y-82510000D03*
X128000000Y-80010000D03*
%TD*%
D15*
%TO.C,U3*%
X177001020Y-89948420D03*
D16*
X179000000Y-81000000D03*
D17*
X177730000Y-73380000D03*
X179000000Y-74850660D03*
X180297940Y-73400320D03*
X180270000Y-88620000D03*
X177760480Y-88599680D03*
%TD*%
D14*
%TO.C,U2*%
X101600000Y-77470000D03*
X121920000Y-85090000D03*
X104140000Y-77470000D03*
X119380000Y-85090000D03*
X106680000Y-77470000D03*
X116840000Y-85090000D03*
X109220000Y-77470000D03*
X114300000Y-85090000D03*
X111760000Y-77470000D03*
X111760000Y-85090000D03*
X114300000Y-77470000D03*
X109220000Y-85090000D03*
X116840000Y-77470000D03*
X106680000Y-85090000D03*
X119380000Y-77470000D03*
X104140000Y-85090000D03*
X121920000Y-77470000D03*
D13*
X101600000Y-85090000D03*
%TD*%
D18*
%TO.C,J3*%
X57000000Y-95000000D03*
X57000000Y-92500000D03*
X57000000Y-90000000D03*
X57000000Y-87500000D03*
X57000000Y-85000000D03*
X57000000Y-82500000D03*
X57000000Y-80000000D03*
G36*
G01*
X56275000Y-76650000D02*
X57725000Y-76650000D01*
G75*
G02*
X57975000Y-76900000I0J-250000D01*
G01*
X57975000Y-78100000D01*
G75*
G02*
X57725000Y-78350000I-250000J0D01*
G01*
X56275000Y-78350000D01*
G75*
G02*
X56025000Y-78100000I0J250000D01*
G01*
X56025000Y-76900000D01*
G75*
G02*
X56275000Y-76650000I250000J0D01*
G01*
G37*
%TD*%
D19*
%TO.C,J2*%
X117040000Y-47000000D03*
X119540000Y-47000000D03*
X122040000Y-47000000D03*
X124540000Y-47000000D03*
X127040000Y-47000000D03*
G36*
G01*
X130390000Y-46275000D02*
X130390000Y-47725000D01*
G75*
G02*
X130140000Y-47975000I-250000J0D01*
G01*
X128940000Y-47975000D01*
G75*
G02*
X128690000Y-47725000I0J250000D01*
G01*
X128690000Y-46275000D01*
G75*
G02*
X128940000Y-46025000I250000J0D01*
G01*
X130140000Y-46025000D01*
G75*
G02*
X130390000Y-46275000I0J-250000D01*
G01*
G37*
%TD*%
D18*
%TO.C,J1*%
X192000000Y-50500000D03*
X192000000Y-53000000D03*
X192000000Y-55500000D03*
G36*
G01*
X192725000Y-58850000D02*
X191275000Y-58850000D01*
G75*
G02*
X191025000Y-58600000I0J250000D01*
G01*
X191025000Y-57400000D01*
G75*
G02*
X191275000Y-57150000I250000J0D01*
G01*
X192725000Y-57150000D01*
G75*
G02*
X192975000Y-57400000I0J-250000D01*
G01*
X192975000Y-58600000D01*
G75*
G02*
X192725000Y-58850000I-250000J0D01*
G01*
G37*
%TD*%
D20*
%TO.C,H2*%
X193000000Y-95000000D03*
%TD*%
%TO.C,H1*%
X70000000Y-72000000D03*
%TD*%
M02*
