%TF.GenerationSoftware,KiCad,Pcbnew,5.1.10-88a1d61d58~88~ubuntu20.04.1*%
%TF.CreationDate,2021-05-13T16:29:57+02:00*%
%TF.ProjectId,anna_elsa_reel_pcb,616e6e61-5f65-46c7-9361-5f7265656c5f,rev?*%
%TF.SameCoordinates,Original*%
%TF.FileFunction,Copper,L1,Top*%
%TF.FilePolarity,Positive*%
%FSLAX46Y46*%
G04 Gerber Fmt 4.6, Leading zero omitted, Abs format (unit mm)*
G04 Created by KiCad (PCBNEW 5.1.10-88a1d61d58~88~ubuntu20.04.1) date 2021-05-13 16:29:57*
%MOMM*%
%LPD*%
G01*
G04 APERTURE LIST*
%TA.AperFunction,ComponentPad*%
%ADD10O,1.500000X1.500000*%
%TD*%
%TA.AperFunction,ComponentPad*%
%ADD11R,1.500000X1.500000*%
%TD*%
%TA.AperFunction,ComponentPad*%
%ADD12C,1.600000*%
%TD*%
%TA.AperFunction,ComponentPad*%
%ADD13R,1.600000X1.600000*%
%TD*%
%TA.AperFunction,SMDPad,CuDef*%
%ADD14C,0.100000*%
%TD*%
%TA.AperFunction,ComponentPad*%
%ADD15O,1.600000X1.600000*%
%TD*%
%TA.AperFunction,ComponentPad*%
%ADD16C,1.206500*%
%TD*%
%TA.AperFunction,ComponentPad*%
%ADD17O,1.950000X1.700000*%
%TD*%
%TA.AperFunction,ComponentPad*%
%ADD18O,1.700000X1.950000*%
%TD*%
%TA.AperFunction,ViaPad*%
%ADD19C,0.800000*%
%TD*%
%TA.AperFunction,ViaPad*%
%ADD20C,1.600000*%
%TD*%
%TA.AperFunction,Conductor*%
%ADD21C,0.250000*%
%TD*%
%TA.AperFunction,Conductor*%
%ADD22C,1.500000*%
%TD*%
G04 APERTURE END LIST*
D10*
%TO.P,D1,2*%
%TO.N,GND*%
X86360000Y-69850000D03*
D11*
%TO.P,D1,1*%
%TO.N,+24V*%
X86360000Y-62230000D03*
%TD*%
D12*
%TO.P,C3,2*%
%TO.N,GND*%
X77470000Y-78010000D03*
D13*
%TO.P,C3,1*%
%TO.N,+5V*%
X77470000Y-80010000D03*
%TD*%
D12*
%TO.P,C4,2*%
%TO.N,GND*%
X97790000Y-67310000D03*
%TO.P,C4,1*%
%TO.N,+24V*%
X97790000Y-64810000D03*
%TD*%
%TA.AperFunction,SMDPad,CuDef*%
D14*
%TO.P,JP3,2*%
%TO.N,Net-(JP3-Pad2)*%
G36*
X93230602Y-97140000D02*
G01*
X93230602Y-97115466D01*
X93235412Y-97066635D01*
X93244984Y-97018510D01*
X93259228Y-96971555D01*
X93278005Y-96926222D01*
X93301136Y-96882949D01*
X93328396Y-96842150D01*
X93359524Y-96804221D01*
X93394221Y-96769524D01*
X93432150Y-96738396D01*
X93472949Y-96711136D01*
X93516222Y-96688005D01*
X93561555Y-96669228D01*
X93608510Y-96654984D01*
X93656635Y-96645412D01*
X93705466Y-96640602D01*
X93730000Y-96640602D01*
X93730000Y-96640000D01*
X94230000Y-96640000D01*
X94230000Y-96640602D01*
X94254534Y-96640602D01*
X94303365Y-96645412D01*
X94351490Y-96654984D01*
X94398445Y-96669228D01*
X94443778Y-96688005D01*
X94487051Y-96711136D01*
X94527850Y-96738396D01*
X94565779Y-96769524D01*
X94600476Y-96804221D01*
X94631604Y-96842150D01*
X94658864Y-96882949D01*
X94681995Y-96926222D01*
X94700772Y-96971555D01*
X94715016Y-97018510D01*
X94724588Y-97066635D01*
X94729398Y-97115466D01*
X94729398Y-97140000D01*
X94730000Y-97140000D01*
X94730000Y-97640000D01*
X93230000Y-97640000D01*
X93230000Y-97140000D01*
X93230602Y-97140000D01*
G37*
%TD.AperFunction*%
%TA.AperFunction,SMDPad,CuDef*%
%TO.P,JP3,1*%
%TO.N,+5V*%
G36*
X94730000Y-97940000D02*
G01*
X94730000Y-98440000D01*
X94729398Y-98440000D01*
X94729398Y-98464534D01*
X94724588Y-98513365D01*
X94715016Y-98561490D01*
X94700772Y-98608445D01*
X94681995Y-98653778D01*
X94658864Y-98697051D01*
X94631604Y-98737850D01*
X94600476Y-98775779D01*
X94565779Y-98810476D01*
X94527850Y-98841604D01*
X94487051Y-98868864D01*
X94443778Y-98891995D01*
X94398445Y-98910772D01*
X94351490Y-98925016D01*
X94303365Y-98934588D01*
X94254534Y-98939398D01*
X94230000Y-98939398D01*
X94230000Y-98940000D01*
X93730000Y-98940000D01*
X93730000Y-98939398D01*
X93705466Y-98939398D01*
X93656635Y-98934588D01*
X93608510Y-98925016D01*
X93561555Y-98910772D01*
X93516222Y-98891995D01*
X93472949Y-98868864D01*
X93432150Y-98841604D01*
X93394221Y-98810476D01*
X93359524Y-98775779D01*
X93328396Y-98737850D01*
X93301136Y-98697051D01*
X93278005Y-98653778D01*
X93259228Y-98608445D01*
X93244984Y-98561490D01*
X93235412Y-98513365D01*
X93230602Y-98464534D01*
X93230602Y-98440000D01*
X93230000Y-98440000D01*
X93230000Y-97940000D01*
X94730000Y-97940000D01*
G37*
%TD.AperFunction*%
%TD*%
%TA.AperFunction,SMDPad,CuDef*%
%TO.P,JP2,2*%
%TO.N,Net-(JP2-Pad2)*%
G36*
X95770602Y-97140000D02*
G01*
X95770602Y-97115466D01*
X95775412Y-97066635D01*
X95784984Y-97018510D01*
X95799228Y-96971555D01*
X95818005Y-96926222D01*
X95841136Y-96882949D01*
X95868396Y-96842150D01*
X95899524Y-96804221D01*
X95934221Y-96769524D01*
X95972150Y-96738396D01*
X96012949Y-96711136D01*
X96056222Y-96688005D01*
X96101555Y-96669228D01*
X96148510Y-96654984D01*
X96196635Y-96645412D01*
X96245466Y-96640602D01*
X96270000Y-96640602D01*
X96270000Y-96640000D01*
X96770000Y-96640000D01*
X96770000Y-96640602D01*
X96794534Y-96640602D01*
X96843365Y-96645412D01*
X96891490Y-96654984D01*
X96938445Y-96669228D01*
X96983778Y-96688005D01*
X97027051Y-96711136D01*
X97067850Y-96738396D01*
X97105779Y-96769524D01*
X97140476Y-96804221D01*
X97171604Y-96842150D01*
X97198864Y-96882949D01*
X97221995Y-96926222D01*
X97240772Y-96971555D01*
X97255016Y-97018510D01*
X97264588Y-97066635D01*
X97269398Y-97115466D01*
X97269398Y-97140000D01*
X97270000Y-97140000D01*
X97270000Y-97640000D01*
X95770000Y-97640000D01*
X95770000Y-97140000D01*
X95770602Y-97140000D01*
G37*
%TD.AperFunction*%
%TA.AperFunction,SMDPad,CuDef*%
%TO.P,JP2,1*%
%TO.N,+5V*%
G36*
X97270000Y-97940000D02*
G01*
X97270000Y-98440000D01*
X97269398Y-98440000D01*
X97269398Y-98464534D01*
X97264588Y-98513365D01*
X97255016Y-98561490D01*
X97240772Y-98608445D01*
X97221995Y-98653778D01*
X97198864Y-98697051D01*
X97171604Y-98737850D01*
X97140476Y-98775779D01*
X97105779Y-98810476D01*
X97067850Y-98841604D01*
X97027051Y-98868864D01*
X96983778Y-98891995D01*
X96938445Y-98910772D01*
X96891490Y-98925016D01*
X96843365Y-98934588D01*
X96794534Y-98939398D01*
X96770000Y-98939398D01*
X96770000Y-98940000D01*
X96270000Y-98940000D01*
X96270000Y-98939398D01*
X96245466Y-98939398D01*
X96196635Y-98934588D01*
X96148510Y-98925016D01*
X96101555Y-98910772D01*
X96056222Y-98891995D01*
X96012949Y-98868864D01*
X95972150Y-98841604D01*
X95934221Y-98810476D01*
X95899524Y-98775779D01*
X95868396Y-98737850D01*
X95841136Y-98697051D01*
X95818005Y-98653778D01*
X95799228Y-98608445D01*
X95784984Y-98561490D01*
X95775412Y-98513365D01*
X95770602Y-98464534D01*
X95770602Y-98440000D01*
X95770000Y-98440000D01*
X95770000Y-97940000D01*
X97270000Y-97940000D01*
G37*
%TD.AperFunction*%
%TD*%
%TA.AperFunction,SMDPad,CuDef*%
%TO.P,JP1,2*%
%TO.N,Net-(JP1-Pad2)*%
G36*
X98310602Y-97140000D02*
G01*
X98310602Y-97115466D01*
X98315412Y-97066635D01*
X98324984Y-97018510D01*
X98339228Y-96971555D01*
X98358005Y-96926222D01*
X98381136Y-96882949D01*
X98408396Y-96842150D01*
X98439524Y-96804221D01*
X98474221Y-96769524D01*
X98512150Y-96738396D01*
X98552949Y-96711136D01*
X98596222Y-96688005D01*
X98641555Y-96669228D01*
X98688510Y-96654984D01*
X98736635Y-96645412D01*
X98785466Y-96640602D01*
X98810000Y-96640602D01*
X98810000Y-96640000D01*
X99310000Y-96640000D01*
X99310000Y-96640602D01*
X99334534Y-96640602D01*
X99383365Y-96645412D01*
X99431490Y-96654984D01*
X99478445Y-96669228D01*
X99523778Y-96688005D01*
X99567051Y-96711136D01*
X99607850Y-96738396D01*
X99645779Y-96769524D01*
X99680476Y-96804221D01*
X99711604Y-96842150D01*
X99738864Y-96882949D01*
X99761995Y-96926222D01*
X99780772Y-96971555D01*
X99795016Y-97018510D01*
X99804588Y-97066635D01*
X99809398Y-97115466D01*
X99809398Y-97140000D01*
X99810000Y-97140000D01*
X99810000Y-97640000D01*
X98310000Y-97640000D01*
X98310000Y-97140000D01*
X98310602Y-97140000D01*
G37*
%TD.AperFunction*%
%TA.AperFunction,SMDPad,CuDef*%
%TO.P,JP1,1*%
%TO.N,+5V*%
G36*
X99810000Y-97940000D02*
G01*
X99810000Y-98440000D01*
X99809398Y-98440000D01*
X99809398Y-98464534D01*
X99804588Y-98513365D01*
X99795016Y-98561490D01*
X99780772Y-98608445D01*
X99761995Y-98653778D01*
X99738864Y-98697051D01*
X99711604Y-98737850D01*
X99680476Y-98775779D01*
X99645779Y-98810476D01*
X99607850Y-98841604D01*
X99567051Y-98868864D01*
X99523778Y-98891995D01*
X99478445Y-98910772D01*
X99431490Y-98925016D01*
X99383365Y-98934588D01*
X99334534Y-98939398D01*
X99310000Y-98939398D01*
X99310000Y-98940000D01*
X98810000Y-98940000D01*
X98810000Y-98939398D01*
X98785466Y-98939398D01*
X98736635Y-98934588D01*
X98688510Y-98925016D01*
X98641555Y-98910772D01*
X98596222Y-98891995D01*
X98552949Y-98868864D01*
X98512150Y-98841604D01*
X98474221Y-98810476D01*
X98439524Y-98775779D01*
X98408396Y-98737850D01*
X98381136Y-98697051D01*
X98358005Y-98653778D01*
X98339228Y-98608445D01*
X98324984Y-98561490D01*
X98315412Y-98513365D01*
X98310602Y-98464534D01*
X98310602Y-98440000D01*
X98310000Y-98440000D01*
X98310000Y-97940000D01*
X99810000Y-97940000D01*
G37*
%TD.AperFunction*%
%TD*%
D15*
%TO.P,R4,2*%
%TO.N,Net-(JP3-Pad2)*%
X113510000Y-88900000D03*
D12*
%TO.P,R4,1*%
%TO.N,GND*%
X113510000Y-99060000D03*
%TD*%
D15*
%TO.P,R3,2*%
%TO.N,Net-(JP2-Pad2)*%
X109460000Y-88900000D03*
D12*
%TO.P,R3,1*%
%TO.N,GND*%
X109460000Y-99060000D03*
%TD*%
D15*
%TO.P,R2,2*%
%TO.N,Net-(JP1-Pad2)*%
X105410000Y-88900000D03*
D12*
%TO.P,R2,1*%
%TO.N,GND*%
X105410000Y-99060000D03*
%TD*%
D15*
%TO.P,U1,16*%
%TO.N,+5V*%
X121920000Y-69850000D03*
%TO.P,U1,8*%
%TO.N,+24V*%
X104140000Y-62230000D03*
%TO.P,U1,15*%
%TO.N,/M4_IN*%
X119380000Y-69850000D03*
%TO.P,U1,7*%
%TO.N,/M2_IN*%
X106680000Y-62230000D03*
%TO.P,U1,14*%
%TO.N,/M4_OUT*%
X116840000Y-69850000D03*
%TO.P,U1,6*%
%TO.N,/M2_OUT*%
X109220000Y-62230000D03*
%TO.P,U1,13*%
%TO.N,GND*%
X114300000Y-69850000D03*
%TO.P,U1,5*%
X111760000Y-62230000D03*
%TO.P,U1,12*%
X111760000Y-69850000D03*
%TO.P,U1,4*%
X114300000Y-62230000D03*
%TO.P,U1,11*%
%TO.N,/M3_OUT*%
X109220000Y-69850000D03*
%TO.P,U1,3*%
%TO.N,/M1_OUT*%
X116840000Y-62230000D03*
%TO.P,U1,10*%
%TO.N,/M3_IN*%
X106680000Y-69850000D03*
%TO.P,U1,2*%
%TO.N,/M1_IN*%
X119380000Y-62230000D03*
%TO.P,U1,9*%
%TO.N,/EN_PWM*%
X104140000Y-69850000D03*
D13*
%TO.P,U1,1*%
X121920000Y-62230000D03*
%TD*%
D12*
%TO.P,C2,2*%
%TO.N,GND*%
X177500000Y-69000000D03*
%TO.P,C2,1*%
%TO.N,+5V*%
X180000000Y-69000000D03*
%TD*%
D15*
%TO.P,R1,2*%
%TO.N,+5V*%
X169000000Y-75840000D03*
D12*
%TO.P,R1,1*%
%TO.N,Net-(R1-Pad1)*%
X169000000Y-86000000D03*
%TD*%
%TO.P,C1,2*%
%TO.N,GND*%
X128000000Y-82510000D03*
%TO.P,C1,1*%
%TO.N,+5V*%
X128000000Y-80010000D03*
%TD*%
D16*
%TO.P,U3,5*%
%TO.N,GND*%
X177730000Y-73380000D03*
%TO.P,U3,4*%
%TO.N,/PHOTOINTERRUPTER*%
X179000000Y-74850660D03*
%TO.P,U3,3*%
%TO.N,+5V*%
X180297940Y-73400320D03*
%TO.P,U3,2*%
%TO.N,GND*%
X180270000Y-88620000D03*
%TO.P,U3,1*%
%TO.N,Net-(R1-Pad1)*%
X177760480Y-88599680D03*
%TD*%
D15*
%TO.P,U2,18*%
%TO.N,+5V*%
X101600000Y-77470000D03*
%TO.P,U2,9*%
%TO.N,GND*%
X121920000Y-85090000D03*
%TO.P,U2,17*%
%TO.N,Net-(U2-Pad17)*%
X104140000Y-77470000D03*
%TO.P,U2,8*%
%TO.N,Net-(U2-Pad8)*%
X119380000Y-85090000D03*
%TO.P,U2,16*%
%TO.N,Net-(U2-Pad16)*%
X106680000Y-77470000D03*
%TO.P,U2,7*%
%TO.N,Net-(U2-Pad7)*%
X116840000Y-85090000D03*
%TO.P,U2,15*%
%TO.N,Net-(U2-Pad15)*%
X109220000Y-77470000D03*
%TO.P,U2,6*%
%TO.N,+5V*%
X114300000Y-85090000D03*
%TO.P,U2,14*%
%TO.N,/PHOTOINTERRUPTER*%
X111760000Y-77470000D03*
%TO.P,U2,5*%
%TO.N,Net-(JP3-Pad2)*%
X111760000Y-85090000D03*
%TO.P,U2,13*%
%TO.N,/M4_IN*%
X114300000Y-77470000D03*
%TO.P,U2,4*%
%TO.N,Net-(JP2-Pad2)*%
X109220000Y-85090000D03*
%TO.P,U2,12*%
%TO.N,/M3_IN*%
X116840000Y-77470000D03*
%TO.P,U2,3*%
%TO.N,Net-(JP1-Pad2)*%
X106680000Y-85090000D03*
%TO.P,U2,11*%
%TO.N,/M2_IN*%
X119380000Y-77470000D03*
%TO.P,U2,2*%
%TO.N,/SDA*%
X104140000Y-85090000D03*
%TO.P,U2,10*%
%TO.N,/M1_IN*%
X121920000Y-77470000D03*
D13*
%TO.P,U2,1*%
%TO.N,/SCL*%
X101600000Y-85090000D03*
%TD*%
D17*
%TO.P,J3,8*%
%TO.N,/SDA*%
X57000000Y-95000000D03*
%TO.P,J3,7*%
%TO.N,/SCL*%
X57000000Y-92500000D03*
%TO.P,J3,6*%
%TO.N,/LED_DIN*%
X57000000Y-90000000D03*
%TO.P,J3,5*%
%TO.N,/LED_DOUT*%
X57000000Y-87500000D03*
%TO.P,J3,4*%
%TO.N,/EN_PWM*%
X57000000Y-85000000D03*
%TO.P,J3,3*%
%TO.N,+24V*%
X57000000Y-82500000D03*
%TO.P,J3,2*%
%TO.N,+5V*%
X57000000Y-80000000D03*
%TO.P,J3,1*%
%TO.N,GND*%
%TA.AperFunction,ComponentPad*%
G36*
G01*
X56275000Y-76650000D02*
X57725000Y-76650000D01*
G75*
G02*
X57975000Y-76900000I0J-250000D01*
G01*
X57975000Y-78100000D01*
G75*
G02*
X57725000Y-78350000I-250000J0D01*
G01*
X56275000Y-78350000D01*
G75*
G02*
X56025000Y-78100000I0J250000D01*
G01*
X56025000Y-76900000D01*
G75*
G02*
X56275000Y-76650000I250000J0D01*
G01*
G37*
%TD.AperFunction*%
%TD*%
D18*
%TO.P,J2,6*%
%TO.N,Net-(J2-Pad6)*%
X117040000Y-47000000D03*
%TO.P,J2,5*%
%TO.N,Net-(J2-Pad5)*%
X119540000Y-47000000D03*
%TO.P,J2,4*%
%TO.N,/M4_OUT*%
X122040000Y-47000000D03*
%TO.P,J2,3*%
%TO.N,/M3_OUT*%
X124540000Y-47000000D03*
%TO.P,J2,2*%
%TO.N,/M2_OUT*%
X127040000Y-47000000D03*
%TO.P,J2,1*%
%TO.N,/M1_OUT*%
%TA.AperFunction,ComponentPad*%
G36*
G01*
X130390000Y-46275000D02*
X130390000Y-47725000D01*
G75*
G02*
X130140000Y-47975000I-250000J0D01*
G01*
X128940000Y-47975000D01*
G75*
G02*
X128690000Y-47725000I0J250000D01*
G01*
X128690000Y-46275000D01*
G75*
G02*
X128940000Y-46025000I250000J0D01*
G01*
X130140000Y-46025000D01*
G75*
G02*
X130390000Y-46275000I0J-250000D01*
G01*
G37*
%TD.AperFunction*%
%TD*%
D17*
%TO.P,J1,4*%
%TO.N,/LED_DIN*%
X192000000Y-50500000D03*
%TO.P,J1,3*%
%TO.N,/LED_DOUT*%
X192000000Y-53000000D03*
%TO.P,J1,2*%
%TO.N,+5V*%
X192000000Y-55500000D03*
%TO.P,J1,1*%
%TO.N,GND*%
%TA.AperFunction,ComponentPad*%
G36*
G01*
X192725000Y-58850000D02*
X191275000Y-58850000D01*
G75*
G02*
X191025000Y-58600000I0J250000D01*
G01*
X191025000Y-57400000D01*
G75*
G02*
X191275000Y-57150000I250000J0D01*
G01*
X192725000Y-57150000D01*
G75*
G02*
X192975000Y-57400000I0J-250000D01*
G01*
X192975000Y-58600000D01*
G75*
G02*
X192725000Y-58850000I-250000J0D01*
G01*
G37*
%TD.AperFunction*%
%TD*%
D19*
%TO.N,/LED_DIN*%
X195580000Y-90170000D03*
%TO.N,/LED_DOUT*%
X194310000Y-87630000D03*
D20*
%TO.N,+5V*%
X82550000Y-80010000D03*
D19*
%TO.N,/M4_OUT*%
X121920000Y-58420000D03*
X118110000Y-58420000D03*
%TO.N,/M3_OUT*%
X107950000Y-54610000D03*
X124460000Y-54610000D03*
%TO.N,/M2_OUT*%
X109220000Y-55880000D03*
X127000000Y-55880000D03*
%TO.N,/M1_OUT*%
X129540000Y-57150000D03*
X116840000Y-57150000D03*
%TO.N,/EN_PWM*%
X92710000Y-85090000D03*
X92710000Y-69850000D03*
D20*
%TO.N,+24V*%
X62230000Y-62230000D03*
X62230000Y-82550000D03*
D19*
%TO.N,/PHOTOINTERRUPTER*%
X111760000Y-78740000D03*
%TO.N,/M4_IN*%
X119380000Y-72390000D03*
X114300000Y-72390000D03*
%TO.N,/M2_IN*%
X105410000Y-74930000D03*
X118110000Y-74930000D03*
%TO.N,/M3_IN*%
X106680000Y-73660000D03*
X116840000Y-73660000D03*
%TO.N,/SDA*%
X104140000Y-95250000D03*
%TO.N,/SCL*%
X101600000Y-92710000D03*
%TO.N,Net-(JP1-Pad2)*%
X99060000Y-88900000D03*
%TO.N,Net-(JP2-Pad2)*%
X96520000Y-91440000D03*
X109220000Y-91440000D03*
%TO.N,Net-(JP3-Pad2)*%
X93980000Y-93980000D03*
X113030000Y-93980000D03*
%TD*%
D21*
%TO.N,/LED_DIN*%
X195580000Y-90170000D02*
X196850000Y-88900000D01*
X196850000Y-55350000D02*
X192000000Y-50500000D01*
X196850000Y-88900000D02*
X196850000Y-55350000D01*
%TO.N,/LED_DOUT*%
X194310000Y-55310000D02*
X192000000Y-53000000D01*
X194310000Y-87630000D02*
X194310000Y-55310000D01*
D22*
%TO.N,+5V*%
X180000000Y-65025000D02*
X180000000Y-69000000D01*
X189525000Y-55500000D02*
X180000000Y-65025000D01*
X192000000Y-55500000D02*
X189525000Y-55500000D01*
X121920000Y-69850000D02*
X121920000Y-73930000D01*
X101600000Y-78601370D02*
X104278630Y-81280000D01*
X101600000Y-77470000D02*
X101600000Y-78601370D01*
X125730000Y-81280000D02*
X127500000Y-79510000D01*
X127500000Y-79510000D02*
X128000000Y-80010000D01*
X121920000Y-73930000D02*
X127500000Y-79510000D01*
X114300000Y-85090000D02*
X114300000Y-81280000D01*
X114300000Y-81280000D02*
X125730000Y-81280000D01*
X104278630Y-81280000D02*
X114300000Y-81280000D01*
X180297940Y-69297940D02*
X180000000Y-69000000D01*
X180297940Y-73400320D02*
X180297940Y-69297940D01*
X164830000Y-80010000D02*
X169000000Y-75840000D01*
X128000000Y-80010000D02*
X164830000Y-80010000D01*
X180901189Y-74003569D02*
X180297940Y-73400320D01*
X180901189Y-75692283D02*
X180901189Y-74003569D01*
X179889561Y-76703911D02*
X180901189Y-75692283D01*
X169863911Y-76703911D02*
X179889561Y-76703911D01*
X169000000Y-75840000D02*
X169863911Y-76703911D01*
D21*
X84470000Y-98440000D02*
X99060000Y-98440000D01*
X82550000Y-96520000D02*
X84470000Y-98440000D01*
X82550000Y-80010000D02*
X82550000Y-96520000D01*
%TO.N,/M4_OUT*%
X122040000Y-47000000D02*
X122040000Y-58300000D01*
X122040000Y-58300000D02*
X121920000Y-58420000D01*
X118110000Y-68580000D02*
X116840000Y-69850000D01*
X118110000Y-58420000D02*
X118110000Y-68580000D01*
%TO.N,/M3_OUT*%
X124540000Y-53260000D02*
X124460000Y-53340000D01*
X124540000Y-47000000D02*
X124540000Y-53260000D01*
X107950000Y-68580000D02*
X107950000Y-54610000D01*
X109220000Y-69850000D02*
X107950000Y-68580000D01*
X124460000Y-54610000D02*
X124460000Y-53340000D01*
X124460000Y-53340000D02*
X124460000Y-52070000D01*
%TO.N,/M2_OUT*%
X109220000Y-62230000D02*
X109220000Y-55880000D01*
X127000000Y-47040000D02*
X127040000Y-47000000D01*
X127000000Y-55880000D02*
X127000000Y-47040000D01*
%TO.N,/M1_OUT*%
X129540000Y-47000000D02*
X129540000Y-57150000D01*
X116840000Y-57150000D02*
X116840000Y-62230000D01*
%TO.N,/EN_PWM*%
X92710000Y-85090000D02*
X92710000Y-69850000D01*
D22*
%TO.N,+24V*%
X62230000Y-62230000D02*
X62230000Y-82550000D01*
D21*
%TO.N,/PHOTOINTERRUPTER*%
X111760000Y-77470000D02*
X111760000Y-78740000D01*
%TO.N,/M4_IN*%
X119380000Y-69850000D02*
X119380000Y-72390000D01*
X114300000Y-72390000D02*
X114300000Y-77470000D01*
%TO.N,/M2_IN*%
X105410000Y-63500000D02*
X105410000Y-74930000D01*
X106680000Y-62230000D02*
X105410000Y-63500000D01*
X118110000Y-76200000D02*
X119380000Y-77470000D01*
X118110000Y-74930000D02*
X118110000Y-76200000D01*
%TO.N,/M3_IN*%
X106680000Y-69850000D02*
X106680000Y-73660000D01*
X116840000Y-73660000D02*
X116840000Y-77470000D01*
%TO.N,/M1_IN*%
X118254999Y-69309999D02*
X118254999Y-73804999D01*
X118254999Y-73804999D02*
X121920000Y-77470000D01*
X119380000Y-68184998D02*
X118254999Y-69309999D01*
X119380000Y-62230000D02*
X119380000Y-68184998D01*
%TO.N,/SDA*%
X104140000Y-95250000D02*
X104140000Y-85090000D01*
%TO.N,/SCL*%
X101600000Y-92710000D02*
X101600000Y-85090000D01*
%TO.N,Net-(R1-Pad1)*%
X175160800Y-86000000D02*
X177760480Y-88599680D01*
X169000000Y-86000000D02*
X175160800Y-86000000D01*
%TO.N,Net-(JP1-Pad2)*%
X105410000Y-86360000D02*
X106680000Y-85090000D01*
X105410000Y-88900000D02*
X105410000Y-86360000D01*
X99060000Y-97140000D02*
X99060000Y-88900000D01*
%TO.N,Net-(JP2-Pad2)*%
X109460000Y-85330000D02*
X109220000Y-85090000D01*
X109460000Y-88900000D02*
X109460000Y-85330000D01*
X96520000Y-97140000D02*
X96520000Y-91440000D01*
X109220000Y-89140000D02*
X109460000Y-88900000D01*
X109220000Y-91440000D02*
X109220000Y-89140000D01*
%TO.N,Net-(JP3-Pad2)*%
X113510000Y-86840000D02*
X111760000Y-85090000D01*
X113510000Y-88900000D02*
X113510000Y-86840000D01*
X93980000Y-97140000D02*
X93980000Y-93980000D01*
X113030000Y-89380000D02*
X113510000Y-88900000D01*
X113030000Y-93980000D02*
X113030000Y-89380000D01*
%TD*%
M02*
