%TF.GenerationSoftware,KiCad,Pcbnew,5.1.10-88a1d61d58~88~ubuntu20.04.1*%
%TF.CreationDate,2021-05-13T16:29:57+02:00*%
%TF.ProjectId,anna_elsa_reel_pcb,616e6e61-5f65-46c7-9361-5f7265656c5f,rev?*%
%TF.SameCoordinates,Original*%
%TF.FileFunction,Legend,Top*%
%TF.FilePolarity,Positive*%
%FSLAX46Y46*%
G04 Gerber Fmt 4.6, Leading zero omitted, Abs format (unit mm)*
G04 Created by KiCad (PCBNEW 5.1.10-88a1d61d58~88~ubuntu20.04.1) date 2021-05-13 16:29:57*
%MOMM*%
%LPD*%
G01*
G04 APERTURE LIST*
%ADD10C,0.150000*%
%ADD11C,0.120000*%
%ADD12C,0.203200*%
%ADD13C,0.127000*%
G04 APERTURE END LIST*
D10*
X161142857Y-100452380D02*
X161142857Y-99452380D01*
X161571428Y-99547619D02*
X161619047Y-99500000D01*
X161714285Y-99452380D01*
X161952380Y-99452380D01*
X162047619Y-99500000D01*
X162095238Y-99547619D01*
X162142857Y-99642857D01*
X162142857Y-99738095D01*
X162095238Y-99880952D01*
X161523809Y-100452380D01*
X162142857Y-100452380D01*
X163142857Y-100357142D02*
X163095238Y-100404761D01*
X162952380Y-100452380D01*
X162857142Y-100452380D01*
X162714285Y-100404761D01*
X162619047Y-100309523D01*
X162571428Y-100214285D01*
X162523809Y-100023809D01*
X162523809Y-99880952D01*
X162571428Y-99690476D01*
X162619047Y-99595238D01*
X162714285Y-99500000D01*
X162857142Y-99452380D01*
X162952380Y-99452380D01*
X163095238Y-99500000D01*
X163142857Y-99547619D01*
X164904761Y-100452380D02*
X164571428Y-99976190D01*
X164333333Y-100452380D02*
X164333333Y-99452380D01*
X164714285Y-99452380D01*
X164809523Y-99500000D01*
X164857142Y-99547619D01*
X164904761Y-99642857D01*
X164904761Y-99785714D01*
X164857142Y-99880952D01*
X164809523Y-99928571D01*
X164714285Y-99976190D01*
X164333333Y-99976190D01*
X165714285Y-100404761D02*
X165619047Y-100452380D01*
X165428571Y-100452380D01*
X165333333Y-100404761D01*
X165285714Y-100309523D01*
X165285714Y-99928571D01*
X165333333Y-99833333D01*
X165428571Y-99785714D01*
X165619047Y-99785714D01*
X165714285Y-99833333D01*
X165761904Y-99928571D01*
X165761904Y-100023809D01*
X165285714Y-100119047D01*
X166571428Y-100404761D02*
X166476190Y-100452380D01*
X166285714Y-100452380D01*
X166190476Y-100404761D01*
X166142857Y-100309523D01*
X166142857Y-99928571D01*
X166190476Y-99833333D01*
X166285714Y-99785714D01*
X166476190Y-99785714D01*
X166571428Y-99833333D01*
X166619047Y-99928571D01*
X166619047Y-100023809D01*
X166142857Y-100119047D01*
X167190476Y-100452380D02*
X167095238Y-100404761D01*
X167047619Y-100309523D01*
X167047619Y-99452380D01*
X168333333Y-100452380D02*
X168333333Y-99452380D01*
X168666666Y-100166666D01*
X169000000Y-99452380D01*
X169000000Y-100452380D01*
X169619047Y-100452380D02*
X169523809Y-100404761D01*
X169476190Y-100357142D01*
X169428571Y-100261904D01*
X169428571Y-99976190D01*
X169476190Y-99880952D01*
X169523809Y-99833333D01*
X169619047Y-99785714D01*
X169761904Y-99785714D01*
X169857142Y-99833333D01*
X169904761Y-99880952D01*
X169952380Y-99976190D01*
X169952380Y-100261904D01*
X169904761Y-100357142D01*
X169857142Y-100404761D01*
X169761904Y-100452380D01*
X169619047Y-100452380D01*
X170238095Y-99785714D02*
X170619047Y-99785714D01*
X170380952Y-99452380D02*
X170380952Y-100309523D01*
X170428571Y-100404761D01*
X170523809Y-100452380D01*
X170619047Y-100452380D01*
X171095238Y-100452380D02*
X171000000Y-100404761D01*
X170952380Y-100357142D01*
X170904761Y-100261904D01*
X170904761Y-99976190D01*
X170952380Y-99880952D01*
X171000000Y-99833333D01*
X171095238Y-99785714D01*
X171238095Y-99785714D01*
X171333333Y-99833333D01*
X171380952Y-99880952D01*
X171428571Y-99976190D01*
X171428571Y-100261904D01*
X171380952Y-100357142D01*
X171333333Y-100404761D01*
X171238095Y-100452380D01*
X171095238Y-100452380D01*
X171857142Y-100452380D02*
X171857142Y-99785714D01*
X171857142Y-99976190D02*
X171904761Y-99880952D01*
X171952380Y-99833333D01*
X172047619Y-99785714D01*
X172142857Y-99785714D01*
X173238095Y-100452380D02*
X173238095Y-99452380D01*
X173476190Y-99452380D01*
X173619047Y-99500000D01*
X173714285Y-99595238D01*
X173761904Y-99690476D01*
X173809523Y-99880952D01*
X173809523Y-100023809D01*
X173761904Y-100214285D01*
X173714285Y-100309523D01*
X173619047Y-100404761D01*
X173476190Y-100452380D01*
X173238095Y-100452380D01*
X174238095Y-100452380D02*
X174238095Y-99785714D01*
X174238095Y-99976190D02*
X174285714Y-99880952D01*
X174333333Y-99833333D01*
X174428571Y-99785714D01*
X174523809Y-99785714D01*
X174857142Y-100452380D02*
X174857142Y-99785714D01*
X174857142Y-99452380D02*
X174809523Y-99500000D01*
X174857142Y-99547619D01*
X174904761Y-99500000D01*
X174857142Y-99452380D01*
X174857142Y-99547619D01*
X175238095Y-99785714D02*
X175476190Y-100452380D01*
X175714285Y-99785714D01*
X176476190Y-100404761D02*
X176380952Y-100452380D01*
X176190476Y-100452380D01*
X176095238Y-100404761D01*
X176047619Y-100309523D01*
X176047619Y-99928571D01*
X176095238Y-99833333D01*
X176190476Y-99785714D01*
X176380952Y-99785714D01*
X176476190Y-99833333D01*
X176523809Y-99928571D01*
X176523809Y-100023809D01*
X176047619Y-100119047D01*
X176952380Y-100452380D02*
X176952380Y-99785714D01*
X176952380Y-99976190D02*
X177000000Y-99880952D01*
X177047619Y-99833333D01*
X177142857Y-99785714D01*
X177238095Y-99785714D01*
X178333333Y-100452380D02*
X178333333Y-99452380D01*
X178714285Y-99452380D01*
X178809523Y-99500000D01*
X178857142Y-99547619D01*
X178904761Y-99642857D01*
X178904761Y-99785714D01*
X178857142Y-99880952D01*
X178809523Y-99928571D01*
X178714285Y-99976190D01*
X178333333Y-99976190D01*
X179904761Y-100357142D02*
X179857142Y-100404761D01*
X179714285Y-100452380D01*
X179619047Y-100452380D01*
X179476190Y-100404761D01*
X179380952Y-100309523D01*
X179333333Y-100214285D01*
X179285714Y-100023809D01*
X179285714Y-99880952D01*
X179333333Y-99690476D01*
X179380952Y-99595238D01*
X179476190Y-99500000D01*
X179619047Y-99452380D01*
X179714285Y-99452380D01*
X179857142Y-99500000D01*
X179904761Y-99547619D01*
X180666666Y-99928571D02*
X180809523Y-99976190D01*
X180857142Y-100023809D01*
X180904761Y-100119047D01*
X180904761Y-100261904D01*
X180857142Y-100357142D01*
X180809523Y-100404761D01*
X180714285Y-100452380D01*
X180333333Y-100452380D01*
X180333333Y-99452380D01*
X180666666Y-99452380D01*
X180761904Y-99500000D01*
X180809523Y-99547619D01*
X180857142Y-99642857D01*
X180857142Y-99738095D01*
X180809523Y-99833333D01*
X180761904Y-99880952D01*
X180666666Y-99928571D01*
X180333333Y-99928571D01*
D11*
%TO.C,D1*%
X87280000Y-64400000D02*
X85440000Y-64400000D01*
X85440000Y-64400000D02*
X85440000Y-67680000D01*
X85440000Y-67680000D02*
X87280000Y-67680000D01*
X87280000Y-67680000D02*
X87280000Y-64400000D01*
X86360000Y-63220000D02*
X86360000Y-64400000D01*
X86360000Y-68860000D02*
X86360000Y-67680000D01*
X87280000Y-64976000D02*
X85440000Y-64976000D01*
X87280000Y-65096000D02*
X85440000Y-65096000D01*
X87280000Y-64856000D02*
X85440000Y-64856000D01*
%TO.C,C3*%
X80090000Y-79010000D02*
G75*
G03*
X80090000Y-79010000I-2620000J0D01*
G01*
X78510000Y-79010000D02*
X80050000Y-79010000D01*
X74890000Y-79010000D02*
X76430000Y-79010000D01*
X78510000Y-78970000D02*
X80050000Y-78970000D01*
X74890000Y-78970000D02*
X76430000Y-78970000D01*
X74891000Y-78930000D02*
X76430000Y-78930000D01*
X78510000Y-78930000D02*
X80049000Y-78930000D01*
X74892000Y-78890000D02*
X76430000Y-78890000D01*
X78510000Y-78890000D02*
X80048000Y-78890000D01*
X74894000Y-78850000D02*
X76430000Y-78850000D01*
X78510000Y-78850000D02*
X80046000Y-78850000D01*
X74897000Y-78810000D02*
X76430000Y-78810000D01*
X78510000Y-78810000D02*
X80043000Y-78810000D01*
X74901000Y-78770000D02*
X76430000Y-78770000D01*
X78510000Y-78770000D02*
X80039000Y-78770000D01*
X74905000Y-78730000D02*
X76430000Y-78730000D01*
X78510000Y-78730000D02*
X80035000Y-78730000D01*
X74909000Y-78690000D02*
X76430000Y-78690000D01*
X78510000Y-78690000D02*
X80031000Y-78690000D01*
X74914000Y-78650000D02*
X76430000Y-78650000D01*
X78510000Y-78650000D02*
X80026000Y-78650000D01*
X74920000Y-78610000D02*
X76430000Y-78610000D01*
X78510000Y-78610000D02*
X80020000Y-78610000D01*
X74927000Y-78570000D02*
X76430000Y-78570000D01*
X78510000Y-78570000D02*
X80013000Y-78570000D01*
X74934000Y-78530000D02*
X76430000Y-78530000D01*
X78510000Y-78530000D02*
X80006000Y-78530000D01*
X74942000Y-78490000D02*
X76430000Y-78490000D01*
X78510000Y-78490000D02*
X79998000Y-78490000D01*
X74950000Y-78450000D02*
X76430000Y-78450000D01*
X78510000Y-78450000D02*
X79990000Y-78450000D01*
X74959000Y-78410000D02*
X76430000Y-78410000D01*
X78510000Y-78410000D02*
X79981000Y-78410000D01*
X74969000Y-78370000D02*
X76430000Y-78370000D01*
X78510000Y-78370000D02*
X79971000Y-78370000D01*
X74979000Y-78330000D02*
X76430000Y-78330000D01*
X78510000Y-78330000D02*
X79961000Y-78330000D01*
X74990000Y-78289000D02*
X76430000Y-78289000D01*
X78510000Y-78289000D02*
X79950000Y-78289000D01*
X75002000Y-78249000D02*
X76430000Y-78249000D01*
X78510000Y-78249000D02*
X79938000Y-78249000D01*
X75015000Y-78209000D02*
X76430000Y-78209000D01*
X78510000Y-78209000D02*
X79925000Y-78209000D01*
X75028000Y-78169000D02*
X76430000Y-78169000D01*
X78510000Y-78169000D02*
X79912000Y-78169000D01*
X75042000Y-78129000D02*
X76430000Y-78129000D01*
X78510000Y-78129000D02*
X79898000Y-78129000D01*
X75056000Y-78089000D02*
X76430000Y-78089000D01*
X78510000Y-78089000D02*
X79884000Y-78089000D01*
X75072000Y-78049000D02*
X76430000Y-78049000D01*
X78510000Y-78049000D02*
X79868000Y-78049000D01*
X75088000Y-78009000D02*
X76430000Y-78009000D01*
X78510000Y-78009000D02*
X79852000Y-78009000D01*
X75105000Y-77969000D02*
X76430000Y-77969000D01*
X78510000Y-77969000D02*
X79835000Y-77969000D01*
X75122000Y-77929000D02*
X76430000Y-77929000D01*
X78510000Y-77929000D02*
X79818000Y-77929000D01*
X75141000Y-77889000D02*
X76430000Y-77889000D01*
X78510000Y-77889000D02*
X79799000Y-77889000D01*
X75160000Y-77849000D02*
X76430000Y-77849000D01*
X78510000Y-77849000D02*
X79780000Y-77849000D01*
X75180000Y-77809000D02*
X76430000Y-77809000D01*
X78510000Y-77809000D02*
X79760000Y-77809000D01*
X75202000Y-77769000D02*
X76430000Y-77769000D01*
X78510000Y-77769000D02*
X79738000Y-77769000D01*
X75223000Y-77729000D02*
X76430000Y-77729000D01*
X78510000Y-77729000D02*
X79717000Y-77729000D01*
X75246000Y-77689000D02*
X76430000Y-77689000D01*
X78510000Y-77689000D02*
X79694000Y-77689000D01*
X75270000Y-77649000D02*
X76430000Y-77649000D01*
X78510000Y-77649000D02*
X79670000Y-77649000D01*
X75295000Y-77609000D02*
X76430000Y-77609000D01*
X78510000Y-77609000D02*
X79645000Y-77609000D01*
X75321000Y-77569000D02*
X76430000Y-77569000D01*
X78510000Y-77569000D02*
X79619000Y-77569000D01*
X75348000Y-77529000D02*
X76430000Y-77529000D01*
X78510000Y-77529000D02*
X79592000Y-77529000D01*
X75375000Y-77489000D02*
X76430000Y-77489000D01*
X78510000Y-77489000D02*
X79565000Y-77489000D01*
X75405000Y-77449000D02*
X76430000Y-77449000D01*
X78510000Y-77449000D02*
X79535000Y-77449000D01*
X75435000Y-77409000D02*
X76430000Y-77409000D01*
X78510000Y-77409000D02*
X79505000Y-77409000D01*
X75466000Y-77369000D02*
X76430000Y-77369000D01*
X78510000Y-77369000D02*
X79474000Y-77369000D01*
X75499000Y-77329000D02*
X76430000Y-77329000D01*
X78510000Y-77329000D02*
X79441000Y-77329000D01*
X75533000Y-77289000D02*
X76430000Y-77289000D01*
X78510000Y-77289000D02*
X79407000Y-77289000D01*
X75569000Y-77249000D02*
X76430000Y-77249000D01*
X78510000Y-77249000D02*
X79371000Y-77249000D01*
X75606000Y-77209000D02*
X76430000Y-77209000D01*
X78510000Y-77209000D02*
X79334000Y-77209000D01*
X75644000Y-77169000D02*
X76430000Y-77169000D01*
X78510000Y-77169000D02*
X79296000Y-77169000D01*
X75685000Y-77129000D02*
X76430000Y-77129000D01*
X78510000Y-77129000D02*
X79255000Y-77129000D01*
X75727000Y-77089000D02*
X76430000Y-77089000D01*
X78510000Y-77089000D02*
X79213000Y-77089000D01*
X75771000Y-77049000D02*
X76430000Y-77049000D01*
X78510000Y-77049000D02*
X79169000Y-77049000D01*
X75817000Y-77009000D02*
X76430000Y-77009000D01*
X78510000Y-77009000D02*
X79123000Y-77009000D01*
X75865000Y-76969000D02*
X79075000Y-76969000D01*
X75916000Y-76929000D02*
X79024000Y-76929000D01*
X75970000Y-76889000D02*
X78970000Y-76889000D01*
X76027000Y-76849000D02*
X78913000Y-76849000D01*
X76087000Y-76809000D02*
X78853000Y-76809000D01*
X76151000Y-76769000D02*
X78789000Y-76769000D01*
X76219000Y-76729000D02*
X78721000Y-76729000D01*
X76292000Y-76689000D02*
X78648000Y-76689000D01*
X76372000Y-76649000D02*
X78568000Y-76649000D01*
X76459000Y-76609000D02*
X78481000Y-76609000D01*
X76555000Y-76569000D02*
X78385000Y-76569000D01*
X76665000Y-76529000D02*
X78275000Y-76529000D01*
X76793000Y-76489000D02*
X78147000Y-76489000D01*
X76952000Y-76449000D02*
X77988000Y-76449000D01*
X77186000Y-76409000D02*
X77754000Y-76409000D01*
X75995000Y-81814775D02*
X75995000Y-81314775D01*
X75745000Y-81564775D02*
X76245000Y-81564775D01*
%TO.C,C4*%
X98710000Y-65431000D02*
X98710000Y-66689000D01*
X96870000Y-65431000D02*
X96870000Y-66689000D01*
%TO.C,JP3*%
X93680000Y-99190000D02*
G75*
G02*
X92980000Y-98490000I0J700000D01*
G01*
X94980000Y-98490000D02*
G75*
G02*
X94280000Y-99190000I-700000J0D01*
G01*
X94280000Y-96390000D02*
G75*
G02*
X94980000Y-97090000I0J-700000D01*
G01*
X92980000Y-97090000D02*
G75*
G02*
X93680000Y-96390000I700000J0D01*
G01*
X94280000Y-99190000D02*
X93680000Y-99190000D01*
X94980000Y-97090000D02*
X94980000Y-98490000D01*
X93680000Y-96390000D02*
X94280000Y-96390000D01*
X92980000Y-98490000D02*
X92980000Y-97090000D01*
%TO.C,JP2*%
X96220000Y-99190000D02*
G75*
G02*
X95520000Y-98490000I0J700000D01*
G01*
X97520000Y-98490000D02*
G75*
G02*
X96820000Y-99190000I-700000J0D01*
G01*
X96820000Y-96390000D02*
G75*
G02*
X97520000Y-97090000I0J-700000D01*
G01*
X95520000Y-97090000D02*
G75*
G02*
X96220000Y-96390000I700000J0D01*
G01*
X96820000Y-99190000D02*
X96220000Y-99190000D01*
X97520000Y-97090000D02*
X97520000Y-98490000D01*
X96220000Y-96390000D02*
X96820000Y-96390000D01*
X95520000Y-98490000D02*
X95520000Y-97090000D01*
%TO.C,JP1*%
X98760000Y-99190000D02*
G75*
G02*
X98060000Y-98490000I0J700000D01*
G01*
X100060000Y-98490000D02*
G75*
G02*
X99360000Y-99190000I-700000J0D01*
G01*
X99360000Y-96390000D02*
G75*
G02*
X100060000Y-97090000I0J-700000D01*
G01*
X98060000Y-97090000D02*
G75*
G02*
X98760000Y-96390000I700000J0D01*
G01*
X99360000Y-99190000D02*
X98760000Y-99190000D01*
X100060000Y-97090000D02*
X100060000Y-98490000D01*
X98760000Y-96390000D02*
X99360000Y-96390000D01*
X98060000Y-98490000D02*
X98060000Y-97090000D01*
%TO.C,R4*%
X112140000Y-97250000D02*
X114880000Y-97250000D01*
X114880000Y-97250000D02*
X114880000Y-90710000D01*
X114880000Y-90710000D02*
X112140000Y-90710000D01*
X112140000Y-90710000D02*
X112140000Y-97250000D01*
X113510000Y-98020000D02*
X113510000Y-97250000D01*
X113510000Y-89940000D02*
X113510000Y-90710000D01*
%TO.C,R3*%
X108090000Y-97250000D02*
X110830000Y-97250000D01*
X110830000Y-97250000D02*
X110830000Y-90710000D01*
X110830000Y-90710000D02*
X108090000Y-90710000D01*
X108090000Y-90710000D02*
X108090000Y-97250000D01*
X109460000Y-98020000D02*
X109460000Y-97250000D01*
X109460000Y-89940000D02*
X109460000Y-90710000D01*
%TO.C,R2*%
X104040000Y-97250000D02*
X106780000Y-97250000D01*
X106780000Y-97250000D02*
X106780000Y-90710000D01*
X106780000Y-90710000D02*
X104040000Y-90710000D01*
X104040000Y-90710000D02*
X104040000Y-97250000D01*
X105410000Y-98020000D02*
X105410000Y-97250000D01*
X105410000Y-89940000D02*
X105410000Y-90710000D01*
%TO.C,U1*%
X123250000Y-67040000D02*
G75*
G02*
X123250000Y-65040000I0J1000000D01*
G01*
X123250000Y-65040000D02*
X123250000Y-63390000D01*
X123250000Y-63390000D02*
X102810000Y-63390000D01*
X102810000Y-63390000D02*
X102810000Y-68690000D01*
X102810000Y-68690000D02*
X123250000Y-68690000D01*
X123250000Y-68690000D02*
X123250000Y-67040000D01*
%TO.C,C2*%
X179379000Y-69920000D02*
X178121000Y-69920000D01*
X179379000Y-68080000D02*
X178121000Y-68080000D01*
%TO.C,R1*%
X167630000Y-84190000D02*
X170370000Y-84190000D01*
X170370000Y-84190000D02*
X170370000Y-77650000D01*
X170370000Y-77650000D02*
X167630000Y-77650000D01*
X167630000Y-77650000D02*
X167630000Y-84190000D01*
X169000000Y-84960000D02*
X169000000Y-84190000D01*
X169000000Y-76880000D02*
X169000000Y-77650000D01*
%TO.C,C1*%
X128920000Y-80631000D02*
X128920000Y-81889000D01*
X127080000Y-80631000D02*
X127080000Y-81889000D01*
D12*
%TO.C,U3*%
X175901200Y-90499600D02*
X175901200Y-71500400D01*
X175901200Y-71500400D02*
X182098800Y-71500400D01*
X182098800Y-71500400D02*
X182098800Y-90499600D01*
X182098800Y-90499600D02*
X175901200Y-90499600D01*
D11*
%TO.C,U2*%
X100270000Y-80280000D02*
G75*
G02*
X100270000Y-82280000I0J-1000000D01*
G01*
X100270000Y-82280000D02*
X100270000Y-83930000D01*
X100270000Y-83930000D02*
X123250000Y-83930000D01*
X123250000Y-83930000D02*
X123250000Y-78630000D01*
X123250000Y-78630000D02*
X100270000Y-78630000D01*
X100270000Y-78630000D02*
X100270000Y-80280000D01*
%TO.C,J3*%
X59460000Y-74940000D02*
X53490000Y-74940000D01*
X53490000Y-74940000D02*
X53490000Y-97560000D01*
X53490000Y-97560000D02*
X59460000Y-97560000D01*
X59460000Y-97560000D02*
X59460000Y-74940000D01*
X59450000Y-78250000D02*
X58700000Y-78250000D01*
X58700000Y-78250000D02*
X58700000Y-94250000D01*
X58700000Y-94250000D02*
X59450000Y-94250000D01*
X59450000Y-94250000D02*
X59450000Y-78250000D01*
X59450000Y-74950000D02*
X58700000Y-74950000D01*
X58700000Y-74950000D02*
X58700000Y-76750000D01*
X58700000Y-76750000D02*
X59450000Y-76750000D01*
X59450000Y-76750000D02*
X59450000Y-74950000D01*
X59450000Y-95750000D02*
X58700000Y-95750000D01*
X58700000Y-95750000D02*
X58700000Y-97550000D01*
X58700000Y-97550000D02*
X59450000Y-97550000D01*
X59450000Y-97550000D02*
X59450000Y-95750000D01*
X57200000Y-74950000D02*
X57200000Y-75700000D01*
X57200000Y-75700000D02*
X54250000Y-75700000D01*
X54250000Y-75700000D02*
X54250000Y-86250000D01*
X57200000Y-97550000D02*
X57200000Y-96800000D01*
X57200000Y-96800000D02*
X54250000Y-96800000D01*
X54250000Y-96800000D02*
X54250000Y-86250000D01*
X59750000Y-75900000D02*
X59750000Y-74650000D01*
X59750000Y-74650000D02*
X58500000Y-74650000D01*
%TO.C,J2*%
X132100000Y-49460000D02*
X132100000Y-43490000D01*
X132100000Y-43490000D02*
X114480000Y-43490000D01*
X114480000Y-43490000D02*
X114480000Y-49460000D01*
X114480000Y-49460000D02*
X132100000Y-49460000D01*
X128790000Y-49450000D02*
X128790000Y-48700000D01*
X128790000Y-48700000D02*
X117790000Y-48700000D01*
X117790000Y-48700000D02*
X117790000Y-49450000D01*
X117790000Y-49450000D02*
X128790000Y-49450000D01*
X132090000Y-49450000D02*
X132090000Y-48700000D01*
X132090000Y-48700000D02*
X130290000Y-48700000D01*
X130290000Y-48700000D02*
X130290000Y-49450000D01*
X130290000Y-49450000D02*
X132090000Y-49450000D01*
X116290000Y-49450000D02*
X116290000Y-48700000D01*
X116290000Y-48700000D02*
X114490000Y-48700000D01*
X114490000Y-48700000D02*
X114490000Y-49450000D01*
X114490000Y-49450000D02*
X116290000Y-49450000D01*
X132090000Y-47200000D02*
X131340000Y-47200000D01*
X131340000Y-47200000D02*
X131340000Y-44250000D01*
X131340000Y-44250000D02*
X123290000Y-44250000D01*
X114490000Y-47200000D02*
X115240000Y-47200000D01*
X115240000Y-47200000D02*
X115240000Y-44250000D01*
X115240000Y-44250000D02*
X123290000Y-44250000D01*
X131140000Y-49750000D02*
X132390000Y-49750000D01*
X132390000Y-49750000D02*
X132390000Y-48500000D01*
%TO.C,J1*%
X189540000Y-60560000D02*
X195510000Y-60560000D01*
X195510000Y-60560000D02*
X195510000Y-47940000D01*
X195510000Y-47940000D02*
X189540000Y-47940000D01*
X189540000Y-47940000D02*
X189540000Y-60560000D01*
X189550000Y-57250000D02*
X190300000Y-57250000D01*
X190300000Y-57250000D02*
X190300000Y-51250000D01*
X190300000Y-51250000D02*
X189550000Y-51250000D01*
X189550000Y-51250000D02*
X189550000Y-57250000D01*
X189550000Y-60550000D02*
X190300000Y-60550000D01*
X190300000Y-60550000D02*
X190300000Y-58750000D01*
X190300000Y-58750000D02*
X189550000Y-58750000D01*
X189550000Y-58750000D02*
X189550000Y-60550000D01*
X189550000Y-49750000D02*
X190300000Y-49750000D01*
X190300000Y-49750000D02*
X190300000Y-47950000D01*
X190300000Y-47950000D02*
X189550000Y-47950000D01*
X189550000Y-47950000D02*
X189550000Y-49750000D01*
X191800000Y-60550000D02*
X191800000Y-59800000D01*
X191800000Y-59800000D02*
X194750000Y-59800000D01*
X194750000Y-59800000D02*
X194750000Y-54250000D01*
X191800000Y-47950000D02*
X191800000Y-48700000D01*
X191800000Y-48700000D02*
X194750000Y-48700000D01*
X194750000Y-48700000D02*
X194750000Y-54250000D01*
X189250000Y-59600000D02*
X189250000Y-60850000D01*
X189250000Y-60850000D02*
X190500000Y-60850000D01*
%TO.C,D1*%
D10*
X88732380Y-66778095D02*
X87732380Y-66778095D01*
X87732380Y-66540000D01*
X87780000Y-66397142D01*
X87875238Y-66301904D01*
X87970476Y-66254285D01*
X88160952Y-66206666D01*
X88303809Y-66206666D01*
X88494285Y-66254285D01*
X88589523Y-66301904D01*
X88684761Y-66397142D01*
X88732380Y-66540000D01*
X88732380Y-66778095D01*
X88732380Y-65254285D02*
X88732380Y-65825714D01*
X88732380Y-65540000D02*
X87732380Y-65540000D01*
X87875238Y-65635238D01*
X87970476Y-65730476D01*
X88018095Y-65825714D01*
X88562380Y-62491904D02*
X87562380Y-62491904D01*
X88562380Y-61920476D02*
X87990952Y-62349047D01*
X87562380Y-61920476D02*
X88133809Y-62491904D01*
%TO.C,C3*%
X77303333Y-75287142D02*
X77255714Y-75334761D01*
X77112857Y-75382380D01*
X77017619Y-75382380D01*
X76874761Y-75334761D01*
X76779523Y-75239523D01*
X76731904Y-75144285D01*
X76684285Y-74953809D01*
X76684285Y-74810952D01*
X76731904Y-74620476D01*
X76779523Y-74525238D01*
X76874761Y-74430000D01*
X77017619Y-74382380D01*
X77112857Y-74382380D01*
X77255714Y-74430000D01*
X77303333Y-74477619D01*
X77636666Y-74382380D02*
X78255714Y-74382380D01*
X77922380Y-74763333D01*
X78065238Y-74763333D01*
X78160476Y-74810952D01*
X78208095Y-74858571D01*
X78255714Y-74953809D01*
X78255714Y-75191904D01*
X78208095Y-75287142D01*
X78160476Y-75334761D01*
X78065238Y-75382380D01*
X77779523Y-75382380D01*
X77684285Y-75334761D01*
X77636666Y-75287142D01*
%TO.C,C4*%
X100197142Y-66226666D02*
X100244761Y-66274285D01*
X100292380Y-66417142D01*
X100292380Y-66512380D01*
X100244761Y-66655238D01*
X100149523Y-66750476D01*
X100054285Y-66798095D01*
X99863809Y-66845714D01*
X99720952Y-66845714D01*
X99530476Y-66798095D01*
X99435238Y-66750476D01*
X99340000Y-66655238D01*
X99292380Y-66512380D01*
X99292380Y-66417142D01*
X99340000Y-66274285D01*
X99387619Y-66226666D01*
X99625714Y-65369523D02*
X100292380Y-65369523D01*
X99244761Y-65607619D02*
X99959047Y-65845714D01*
X99959047Y-65226666D01*
%TO.C,JP3*%
X93265714Y-100496666D02*
X93741904Y-100496666D01*
X93170476Y-100782380D02*
X93503809Y-99782380D01*
X93837142Y-100782380D01*
X94360952Y-99782380D02*
X94456190Y-99782380D01*
X94551428Y-99830000D01*
X94599047Y-99877619D01*
X94646666Y-99972857D01*
X94694285Y-100163333D01*
X94694285Y-100401428D01*
X94646666Y-100591904D01*
X94599047Y-100687142D01*
X94551428Y-100734761D01*
X94456190Y-100782380D01*
X94360952Y-100782380D01*
X94265714Y-100734761D01*
X94218095Y-100687142D01*
X94170476Y-100591904D01*
X94122857Y-100401428D01*
X94122857Y-100163333D01*
X94170476Y-99972857D01*
X94218095Y-99877619D01*
X94265714Y-99830000D01*
X94360952Y-99782380D01*
%TO.C,JP2*%
X95805714Y-100496666D02*
X96281904Y-100496666D01*
X95710476Y-100782380D02*
X96043809Y-99782380D01*
X96377142Y-100782380D01*
X97234285Y-100782380D02*
X96662857Y-100782380D01*
X96948571Y-100782380D02*
X96948571Y-99782380D01*
X96853333Y-99925238D01*
X96758095Y-100020476D01*
X96662857Y-100068095D01*
%TO.C,JP1*%
X98345714Y-100496666D02*
X98821904Y-100496666D01*
X98250476Y-100782380D02*
X98583809Y-99782380D01*
X98917142Y-100782380D01*
X99202857Y-99877619D02*
X99250476Y-99830000D01*
X99345714Y-99782380D01*
X99583809Y-99782380D01*
X99679047Y-99830000D01*
X99726666Y-99877619D01*
X99774285Y-99972857D01*
X99774285Y-100068095D01*
X99726666Y-100210952D01*
X99155238Y-100782380D01*
X99774285Y-100782380D01*
%TO.C,R4*%
X111592380Y-94146666D02*
X111116190Y-94480000D01*
X111592380Y-94718095D02*
X110592380Y-94718095D01*
X110592380Y-94337142D01*
X110640000Y-94241904D01*
X110687619Y-94194285D01*
X110782857Y-94146666D01*
X110925714Y-94146666D01*
X111020952Y-94194285D01*
X111068571Y-94241904D01*
X111116190Y-94337142D01*
X111116190Y-94718095D01*
X110925714Y-93289523D02*
X111592380Y-93289523D01*
X110544761Y-93527619D02*
X111259047Y-93765714D01*
X111259047Y-93146666D01*
%TO.C,R3*%
X107542380Y-94146666D02*
X107066190Y-94480000D01*
X107542380Y-94718095D02*
X106542380Y-94718095D01*
X106542380Y-94337142D01*
X106590000Y-94241904D01*
X106637619Y-94194285D01*
X106732857Y-94146666D01*
X106875714Y-94146666D01*
X106970952Y-94194285D01*
X107018571Y-94241904D01*
X107066190Y-94337142D01*
X107066190Y-94718095D01*
X106542380Y-93813333D02*
X106542380Y-93194285D01*
X106923333Y-93527619D01*
X106923333Y-93384761D01*
X106970952Y-93289523D01*
X107018571Y-93241904D01*
X107113809Y-93194285D01*
X107351904Y-93194285D01*
X107447142Y-93241904D01*
X107494761Y-93289523D01*
X107542380Y-93384761D01*
X107542380Y-93670476D01*
X107494761Y-93765714D01*
X107447142Y-93813333D01*
%TO.C,R2*%
X103492380Y-94146666D02*
X103016190Y-94480000D01*
X103492380Y-94718095D02*
X102492380Y-94718095D01*
X102492380Y-94337142D01*
X102540000Y-94241904D01*
X102587619Y-94194285D01*
X102682857Y-94146666D01*
X102825714Y-94146666D01*
X102920952Y-94194285D01*
X102968571Y-94241904D01*
X103016190Y-94337142D01*
X103016190Y-94718095D01*
X102587619Y-93765714D02*
X102540000Y-93718095D01*
X102492380Y-93622857D01*
X102492380Y-93384761D01*
X102540000Y-93289523D01*
X102587619Y-93241904D01*
X102682857Y-93194285D01*
X102778095Y-93194285D01*
X102920952Y-93241904D01*
X103492380Y-93813333D01*
X103492380Y-93194285D01*
%TO.C,U1*%
X123702380Y-66801904D02*
X124511904Y-66801904D01*
X124607142Y-66754285D01*
X124654761Y-66706666D01*
X124702380Y-66611428D01*
X124702380Y-66420952D01*
X124654761Y-66325714D01*
X124607142Y-66278095D01*
X124511904Y-66230476D01*
X123702380Y-66230476D01*
X124702380Y-65230476D02*
X124702380Y-65801904D01*
X124702380Y-65516190D02*
X123702380Y-65516190D01*
X123845238Y-65611428D01*
X123940476Y-65706666D01*
X123988095Y-65801904D01*
%TO.C,C2*%
X178583333Y-67357142D02*
X178535714Y-67404761D01*
X178392857Y-67452380D01*
X178297619Y-67452380D01*
X178154761Y-67404761D01*
X178059523Y-67309523D01*
X178011904Y-67214285D01*
X177964285Y-67023809D01*
X177964285Y-66880952D01*
X178011904Y-66690476D01*
X178059523Y-66595238D01*
X178154761Y-66500000D01*
X178297619Y-66452380D01*
X178392857Y-66452380D01*
X178535714Y-66500000D01*
X178583333Y-66547619D01*
X178964285Y-66547619D02*
X179011904Y-66500000D01*
X179107142Y-66452380D01*
X179345238Y-66452380D01*
X179440476Y-66500000D01*
X179488095Y-66547619D01*
X179535714Y-66642857D01*
X179535714Y-66738095D01*
X179488095Y-66880952D01*
X178916666Y-67452380D01*
X179535714Y-67452380D01*
%TO.C,R1*%
X167082380Y-81086666D02*
X166606190Y-81420000D01*
X167082380Y-81658095D02*
X166082380Y-81658095D01*
X166082380Y-81277142D01*
X166130000Y-81181904D01*
X166177619Y-81134285D01*
X166272857Y-81086666D01*
X166415714Y-81086666D01*
X166510952Y-81134285D01*
X166558571Y-81181904D01*
X166606190Y-81277142D01*
X166606190Y-81658095D01*
X167082380Y-80134285D02*
X167082380Y-80705714D01*
X167082380Y-80420000D02*
X166082380Y-80420000D01*
X166225238Y-80515238D01*
X166320476Y-80610476D01*
X166368095Y-80705714D01*
%TO.C,C1*%
X130407142Y-81426666D02*
X130454761Y-81474285D01*
X130502380Y-81617142D01*
X130502380Y-81712380D01*
X130454761Y-81855238D01*
X130359523Y-81950476D01*
X130264285Y-81998095D01*
X130073809Y-82045714D01*
X129930952Y-82045714D01*
X129740476Y-81998095D01*
X129645238Y-81950476D01*
X129550000Y-81855238D01*
X129502380Y-81712380D01*
X129502380Y-81617142D01*
X129550000Y-81474285D01*
X129597619Y-81426666D01*
X130502380Y-80474285D02*
X130502380Y-81045714D01*
X130502380Y-80760000D02*
X129502380Y-80760000D01*
X129645238Y-80855238D01*
X129740476Y-80950476D01*
X129788095Y-81045714D01*
%TO.C,U3*%
D13*
X174856171Y-81464457D02*
X175349657Y-81464457D01*
X175407714Y-81435428D01*
X175436742Y-81406400D01*
X175465771Y-81348342D01*
X175465771Y-81232228D01*
X175436742Y-81174171D01*
X175407714Y-81145142D01*
X175349657Y-81116114D01*
X174856171Y-81116114D01*
X174856171Y-80883885D02*
X174856171Y-80506514D01*
X175088400Y-80709714D01*
X175088400Y-80622628D01*
X175117428Y-80564571D01*
X175146457Y-80535542D01*
X175204514Y-80506514D01*
X175349657Y-80506514D01*
X175407714Y-80535542D01*
X175436742Y-80564571D01*
X175465771Y-80622628D01*
X175465771Y-80796800D01*
X175436742Y-80854857D01*
X175407714Y-80883885D01*
X182505200Y-82901371D02*
X182476171Y-82959428D01*
X182476171Y-83046514D01*
X182505200Y-83133600D01*
X182563257Y-83191657D01*
X182621314Y-83220685D01*
X182737428Y-83249714D01*
X182824514Y-83249714D01*
X182940628Y-83220685D01*
X182998685Y-83191657D01*
X183056742Y-83133600D01*
X183085771Y-83046514D01*
X183085771Y-82988457D01*
X183056742Y-82901371D01*
X183027714Y-82872342D01*
X182824514Y-82872342D01*
X182824514Y-82988457D01*
X183085771Y-82611085D02*
X182476171Y-82611085D01*
X182476171Y-82378857D01*
X182505200Y-82320800D01*
X182534228Y-82291771D01*
X182592285Y-82262742D01*
X182679371Y-82262742D01*
X182737428Y-82291771D01*
X182766457Y-82320800D01*
X182795485Y-82378857D01*
X182795485Y-82611085D01*
X183085771Y-81682171D02*
X183085771Y-82030514D01*
X183085771Y-81856342D02*
X182476171Y-81856342D01*
X182563257Y-81914400D01*
X182621314Y-81972457D01*
X182650342Y-82030514D01*
X182911600Y-81449942D02*
X182911600Y-81159657D01*
X183085771Y-81508000D02*
X182476171Y-81304800D01*
X183085771Y-81101600D01*
X182476171Y-80608114D02*
X182476171Y-80898400D01*
X182766457Y-80927428D01*
X182737428Y-80898400D01*
X182708400Y-80840342D01*
X182708400Y-80695200D01*
X182737428Y-80637142D01*
X182766457Y-80608114D01*
X182824514Y-80579085D01*
X182969657Y-80579085D01*
X183027714Y-80608114D01*
X183056742Y-80637142D01*
X183085771Y-80695200D01*
X183085771Y-80840342D01*
X183056742Y-80898400D01*
X183027714Y-80927428D01*
X182476171Y-80375885D02*
X182476171Y-79969485D01*
X183085771Y-80230742D01*
X183085771Y-79737257D02*
X182476171Y-79737257D01*
X182766457Y-79737257D02*
X182766457Y-79388914D01*
X183085771Y-79388914D02*
X182476171Y-79388914D01*
X183085771Y-78750285D02*
X182795485Y-78953485D01*
X183085771Y-79098628D02*
X182476171Y-79098628D01*
X182476171Y-78866400D01*
X182505200Y-78808342D01*
X182534228Y-78779314D01*
X182592285Y-78750285D01*
X182679371Y-78750285D01*
X182737428Y-78779314D01*
X182766457Y-78808342D01*
X182795485Y-78866400D01*
X182795485Y-79098628D01*
%TO.C,U2*%
D10*
X98722380Y-82041904D02*
X99531904Y-82041904D01*
X99627142Y-81994285D01*
X99674761Y-81946666D01*
X99722380Y-81851428D01*
X99722380Y-81660952D01*
X99674761Y-81565714D01*
X99627142Y-81518095D01*
X99531904Y-81470476D01*
X98722380Y-81470476D01*
X98817619Y-81041904D02*
X98770000Y-80994285D01*
X98722380Y-80899047D01*
X98722380Y-80660952D01*
X98770000Y-80565714D01*
X98817619Y-80518095D01*
X98912857Y-80470476D01*
X99008095Y-80470476D01*
X99150952Y-80518095D01*
X99722380Y-81089523D01*
X99722380Y-80470476D01*
%TO.C,J3*%
X60002380Y-86583333D02*
X60716666Y-86583333D01*
X60859523Y-86630952D01*
X60954761Y-86726190D01*
X61002380Y-86869047D01*
X61002380Y-86964285D01*
X60002380Y-86202380D02*
X60002380Y-85583333D01*
X60383333Y-85916666D01*
X60383333Y-85773809D01*
X60430952Y-85678571D01*
X60478571Y-85630952D01*
X60573809Y-85583333D01*
X60811904Y-85583333D01*
X60907142Y-85630952D01*
X60954761Y-85678571D01*
X61002380Y-85773809D01*
X61002380Y-86059523D01*
X60954761Y-86154761D01*
X60907142Y-86202380D01*
X52757142Y-86964285D02*
X52804761Y-87011904D01*
X52852380Y-87154761D01*
X52852380Y-87250000D01*
X52804761Y-87392857D01*
X52709523Y-87488095D01*
X52614285Y-87535714D01*
X52423809Y-87583333D01*
X52280952Y-87583333D01*
X52090476Y-87535714D01*
X51995238Y-87488095D01*
X51900000Y-87392857D01*
X51852380Y-87250000D01*
X51852380Y-87154761D01*
X51900000Y-87011904D01*
X51947619Y-86964285D01*
X52852380Y-86535714D02*
X51852380Y-86535714D01*
X51852380Y-86154761D01*
X51900000Y-86059523D01*
X51947619Y-86011904D01*
X52042857Y-85964285D01*
X52185714Y-85964285D01*
X52280952Y-86011904D01*
X52328571Y-86059523D01*
X52376190Y-86154761D01*
X52376190Y-86535714D01*
X51852380Y-85535714D02*
X52661904Y-85535714D01*
X52757142Y-85488095D01*
X52804761Y-85440476D01*
X52852380Y-85345238D01*
X52852380Y-85154761D01*
X52804761Y-85059523D01*
X52757142Y-85011904D01*
X52661904Y-84964285D01*
X51852380Y-84964285D01*
%TO.C,J2*%
X122956666Y-50002380D02*
X122956666Y-50716666D01*
X122909047Y-50859523D01*
X122813809Y-50954761D01*
X122670952Y-51002380D01*
X122575714Y-51002380D01*
X123385238Y-50097619D02*
X123432857Y-50050000D01*
X123528095Y-50002380D01*
X123766190Y-50002380D01*
X123861428Y-50050000D01*
X123909047Y-50097619D01*
X123956666Y-50192857D01*
X123956666Y-50288095D01*
X123909047Y-50430952D01*
X123337619Y-51002380D01*
X123956666Y-51002380D01*
X121028095Y-42852380D02*
X121028095Y-41852380D01*
X121361428Y-42566666D01*
X121694761Y-41852380D01*
X121694761Y-42852380D01*
X122361428Y-41852380D02*
X122551904Y-41852380D01*
X122647142Y-41900000D01*
X122742380Y-41995238D01*
X122790000Y-42185714D01*
X122790000Y-42519047D01*
X122742380Y-42709523D01*
X122647142Y-42804761D01*
X122551904Y-42852380D01*
X122361428Y-42852380D01*
X122266190Y-42804761D01*
X122170952Y-42709523D01*
X122123333Y-42519047D01*
X122123333Y-42185714D01*
X122170952Y-41995238D01*
X122266190Y-41900000D01*
X122361428Y-41852380D01*
X123075714Y-41852380D02*
X123647142Y-41852380D01*
X123361428Y-42852380D02*
X123361428Y-41852380D01*
X124170952Y-41852380D02*
X124361428Y-41852380D01*
X124456666Y-41900000D01*
X124551904Y-41995238D01*
X124599523Y-42185714D01*
X124599523Y-42519047D01*
X124551904Y-42709523D01*
X124456666Y-42804761D01*
X124361428Y-42852380D01*
X124170952Y-42852380D01*
X124075714Y-42804761D01*
X123980476Y-42709523D01*
X123932857Y-42519047D01*
X123932857Y-42185714D01*
X123980476Y-41995238D01*
X124075714Y-41900000D01*
X124170952Y-41852380D01*
X125599523Y-42852380D02*
X125266190Y-42376190D01*
X125028095Y-42852380D02*
X125028095Y-41852380D01*
X125409047Y-41852380D01*
X125504285Y-41900000D01*
X125551904Y-41947619D01*
X125599523Y-42042857D01*
X125599523Y-42185714D01*
X125551904Y-42280952D01*
X125504285Y-42328571D01*
X125409047Y-42376190D01*
X125028095Y-42376190D01*
%TO.C,J1*%
X187902380Y-54583333D02*
X188616666Y-54583333D01*
X188759523Y-54630952D01*
X188854761Y-54726190D01*
X188902380Y-54869047D01*
X188902380Y-54964285D01*
X188902380Y-53583333D02*
X188902380Y-54154761D01*
X188902380Y-53869047D02*
X187902380Y-53869047D01*
X188045238Y-53964285D01*
X188140476Y-54059523D01*
X188188095Y-54154761D01*
X197052380Y-54892857D02*
X197052380Y-55369047D01*
X196052380Y-55369047D01*
X196528571Y-54559523D02*
X196528571Y-54226190D01*
X197052380Y-54083333D02*
X197052380Y-54559523D01*
X196052380Y-54559523D01*
X196052380Y-54083333D01*
X197052380Y-53654761D02*
X196052380Y-53654761D01*
X196052380Y-53416666D01*
X196100000Y-53273809D01*
X196195238Y-53178571D01*
X196290476Y-53130952D01*
X196480952Y-53083333D01*
X196623809Y-53083333D01*
X196814285Y-53130952D01*
X196909523Y-53178571D01*
X197004761Y-53273809D01*
X197052380Y-53416666D01*
X197052380Y-53654761D01*
%TO.C,H2*%
X192238095Y-91452380D02*
X192238095Y-90452380D01*
X192238095Y-90928571D02*
X192809523Y-90928571D01*
X192809523Y-91452380D02*
X192809523Y-90452380D01*
X193238095Y-90547619D02*
X193285714Y-90500000D01*
X193380952Y-90452380D01*
X193619047Y-90452380D01*
X193714285Y-90500000D01*
X193761904Y-90547619D01*
X193809523Y-90642857D01*
X193809523Y-90738095D01*
X193761904Y-90880952D01*
X193190476Y-91452380D01*
X193809523Y-91452380D01*
%TO.C,H1*%
X69238095Y-68452380D02*
X69238095Y-67452380D01*
X69238095Y-67928571D02*
X69809523Y-67928571D01*
X69809523Y-68452380D02*
X69809523Y-67452380D01*
X70809523Y-68452380D02*
X70238095Y-68452380D01*
X70523809Y-68452380D02*
X70523809Y-67452380D01*
X70428571Y-67595238D01*
X70333333Y-67690476D01*
X70238095Y-67738095D01*
%TD*%
M02*
