%TF.GenerationSoftware,KiCad,Pcbnew,5.1.10-88a1d61d58~88~ubuntu20.04.1*%
%TF.CreationDate,2021-07-11T16:49:51+02:00*%
%TF.ProjectId,anna_elsa_reel_pcb,616e6e61-5f65-46c7-9361-5f7265656c5f,rev?*%
%TF.SameCoordinates,Original*%
%TF.FileFunction,Copper,L1,Top*%
%TF.FilePolarity,Positive*%
%FSLAX46Y46*%
G04 Gerber Fmt 4.6, Leading zero omitted, Abs format (unit mm)*
G04 Created by KiCad (PCBNEW 5.1.10-88a1d61d58~88~ubuntu20.04.1) date 2021-07-11 16:49:51*
%MOMM*%
%LPD*%
G01*
G04 APERTURE LIST*
%TA.AperFunction,ComponentPad*%
%ADD10C,1.600000*%
%TD*%
%TA.AperFunction,ComponentPad*%
%ADD11C,1.206500*%
%TD*%
%TA.AperFunction,ComponentPad*%
%ADD12O,1.500000X1.500000*%
%TD*%
%TA.AperFunction,ComponentPad*%
%ADD13R,1.500000X1.500000*%
%TD*%
%TA.AperFunction,ComponentPad*%
%ADD14R,1.600000X1.600000*%
%TD*%
%TA.AperFunction,SMDPad,CuDef*%
%ADD15C,0.100000*%
%TD*%
%TA.AperFunction,ComponentPad*%
%ADD16O,1.600000X1.600000*%
%TD*%
%TA.AperFunction,ComponentPad*%
%ADD17O,1.950000X1.700000*%
%TD*%
%TA.AperFunction,ComponentPad*%
%ADD18O,1.700000X1.950000*%
%TD*%
%TA.AperFunction,ViaPad*%
%ADD19C,0.800000*%
%TD*%
%TA.AperFunction,ViaPad*%
%ADD20C,1.600000*%
%TD*%
%TA.AperFunction,Conductor*%
%ADD21C,0.250000*%
%TD*%
%TA.AperFunction,Conductor*%
%ADD22C,1.500000*%
%TD*%
G04 APERTURE END LIST*
D10*
%TO.P,C4,2*%
%TO.N,GND*%
X141000000Y-67250000D03*
%TO.P,C4,1*%
%TO.N,+24V*%
X141000000Y-62250000D03*
%TD*%
%TO.P,C1,2*%
%TO.N,GND*%
X171688000Y-85010000D03*
%TO.P,C1,1*%
%TO.N,+5V*%
X171688000Y-80010000D03*
%TD*%
D11*
%TO.P,U3,5*%
%TO.N,GND*%
X177730000Y-66380000D03*
%TO.P,U3,4*%
%TO.N,/PHOTOINTERRUPTER*%
X179000000Y-67850660D03*
%TO.P,U3,3*%
%TO.N,+5V*%
X180297940Y-66400320D03*
%TO.P,U3,2*%
%TO.N,GND*%
X180270000Y-81620000D03*
%TO.P,U3,1*%
%TO.N,Net-(R1-Pad1)*%
X177760480Y-81599680D03*
%TD*%
D12*
%TO.P,D1,2*%
%TO.N,GND*%
X130048000Y-69850000D03*
D13*
%TO.P,D1,1*%
%TO.N,+24V*%
X130048000Y-62230000D03*
%TD*%
D10*
%TO.P,C3,2*%
%TO.N,GND*%
X121158000Y-82010000D03*
D14*
%TO.P,C3,1*%
%TO.N,+5V*%
X121158000Y-80010000D03*
%TD*%
%TA.AperFunction,SMDPad,CuDef*%
D15*
%TO.P,JP3,2*%
%TO.N,Net-(JP3-Pad2)*%
G36*
X136918602Y-97140000D02*
G01*
X136918602Y-97115466D01*
X136923412Y-97066635D01*
X136932984Y-97018510D01*
X136947228Y-96971555D01*
X136966005Y-96926222D01*
X136989136Y-96882949D01*
X137016396Y-96842150D01*
X137047524Y-96804221D01*
X137082221Y-96769524D01*
X137120150Y-96738396D01*
X137160949Y-96711136D01*
X137204222Y-96688005D01*
X137249555Y-96669228D01*
X137296510Y-96654984D01*
X137344635Y-96645412D01*
X137393466Y-96640602D01*
X137418000Y-96640602D01*
X137418000Y-96640000D01*
X137918000Y-96640000D01*
X137918000Y-96640602D01*
X137942534Y-96640602D01*
X137991365Y-96645412D01*
X138039490Y-96654984D01*
X138086445Y-96669228D01*
X138131778Y-96688005D01*
X138175051Y-96711136D01*
X138215850Y-96738396D01*
X138253779Y-96769524D01*
X138288476Y-96804221D01*
X138319604Y-96842150D01*
X138346864Y-96882949D01*
X138369995Y-96926222D01*
X138388772Y-96971555D01*
X138403016Y-97018510D01*
X138412588Y-97066635D01*
X138417398Y-97115466D01*
X138417398Y-97140000D01*
X138418000Y-97140000D01*
X138418000Y-97640000D01*
X136918000Y-97640000D01*
X136918000Y-97140000D01*
X136918602Y-97140000D01*
G37*
%TD.AperFunction*%
%TA.AperFunction,SMDPad,CuDef*%
%TO.P,JP3,1*%
%TO.N,+5V*%
G36*
X138418000Y-97940000D02*
G01*
X138418000Y-98440000D01*
X138417398Y-98440000D01*
X138417398Y-98464534D01*
X138412588Y-98513365D01*
X138403016Y-98561490D01*
X138388772Y-98608445D01*
X138369995Y-98653778D01*
X138346864Y-98697051D01*
X138319604Y-98737850D01*
X138288476Y-98775779D01*
X138253779Y-98810476D01*
X138215850Y-98841604D01*
X138175051Y-98868864D01*
X138131778Y-98891995D01*
X138086445Y-98910772D01*
X138039490Y-98925016D01*
X137991365Y-98934588D01*
X137942534Y-98939398D01*
X137918000Y-98939398D01*
X137918000Y-98940000D01*
X137418000Y-98940000D01*
X137418000Y-98939398D01*
X137393466Y-98939398D01*
X137344635Y-98934588D01*
X137296510Y-98925016D01*
X137249555Y-98910772D01*
X137204222Y-98891995D01*
X137160949Y-98868864D01*
X137120150Y-98841604D01*
X137082221Y-98810476D01*
X137047524Y-98775779D01*
X137016396Y-98737850D01*
X136989136Y-98697051D01*
X136966005Y-98653778D01*
X136947228Y-98608445D01*
X136932984Y-98561490D01*
X136923412Y-98513365D01*
X136918602Y-98464534D01*
X136918602Y-98440000D01*
X136918000Y-98440000D01*
X136918000Y-97940000D01*
X138418000Y-97940000D01*
G37*
%TD.AperFunction*%
%TD*%
%TA.AperFunction,SMDPad,CuDef*%
%TO.P,JP2,2*%
%TO.N,Net-(JP2-Pad2)*%
G36*
X139458602Y-97140000D02*
G01*
X139458602Y-97115466D01*
X139463412Y-97066635D01*
X139472984Y-97018510D01*
X139487228Y-96971555D01*
X139506005Y-96926222D01*
X139529136Y-96882949D01*
X139556396Y-96842150D01*
X139587524Y-96804221D01*
X139622221Y-96769524D01*
X139660150Y-96738396D01*
X139700949Y-96711136D01*
X139744222Y-96688005D01*
X139789555Y-96669228D01*
X139836510Y-96654984D01*
X139884635Y-96645412D01*
X139933466Y-96640602D01*
X139958000Y-96640602D01*
X139958000Y-96640000D01*
X140458000Y-96640000D01*
X140458000Y-96640602D01*
X140482534Y-96640602D01*
X140531365Y-96645412D01*
X140579490Y-96654984D01*
X140626445Y-96669228D01*
X140671778Y-96688005D01*
X140715051Y-96711136D01*
X140755850Y-96738396D01*
X140793779Y-96769524D01*
X140828476Y-96804221D01*
X140859604Y-96842150D01*
X140886864Y-96882949D01*
X140909995Y-96926222D01*
X140928772Y-96971555D01*
X140943016Y-97018510D01*
X140952588Y-97066635D01*
X140957398Y-97115466D01*
X140957398Y-97140000D01*
X140958000Y-97140000D01*
X140958000Y-97640000D01*
X139458000Y-97640000D01*
X139458000Y-97140000D01*
X139458602Y-97140000D01*
G37*
%TD.AperFunction*%
%TA.AperFunction,SMDPad,CuDef*%
%TO.P,JP2,1*%
%TO.N,+5V*%
G36*
X140958000Y-97940000D02*
G01*
X140958000Y-98440000D01*
X140957398Y-98440000D01*
X140957398Y-98464534D01*
X140952588Y-98513365D01*
X140943016Y-98561490D01*
X140928772Y-98608445D01*
X140909995Y-98653778D01*
X140886864Y-98697051D01*
X140859604Y-98737850D01*
X140828476Y-98775779D01*
X140793779Y-98810476D01*
X140755850Y-98841604D01*
X140715051Y-98868864D01*
X140671778Y-98891995D01*
X140626445Y-98910772D01*
X140579490Y-98925016D01*
X140531365Y-98934588D01*
X140482534Y-98939398D01*
X140458000Y-98939398D01*
X140458000Y-98940000D01*
X139958000Y-98940000D01*
X139958000Y-98939398D01*
X139933466Y-98939398D01*
X139884635Y-98934588D01*
X139836510Y-98925016D01*
X139789555Y-98910772D01*
X139744222Y-98891995D01*
X139700949Y-98868864D01*
X139660150Y-98841604D01*
X139622221Y-98810476D01*
X139587524Y-98775779D01*
X139556396Y-98737850D01*
X139529136Y-98697051D01*
X139506005Y-98653778D01*
X139487228Y-98608445D01*
X139472984Y-98561490D01*
X139463412Y-98513365D01*
X139458602Y-98464534D01*
X139458602Y-98440000D01*
X139458000Y-98440000D01*
X139458000Y-97940000D01*
X140958000Y-97940000D01*
G37*
%TD.AperFunction*%
%TD*%
%TA.AperFunction,SMDPad,CuDef*%
%TO.P,JP1,2*%
%TO.N,Net-(JP1-Pad2)*%
G36*
X141998602Y-97140000D02*
G01*
X141998602Y-97115466D01*
X142003412Y-97066635D01*
X142012984Y-97018510D01*
X142027228Y-96971555D01*
X142046005Y-96926222D01*
X142069136Y-96882949D01*
X142096396Y-96842150D01*
X142127524Y-96804221D01*
X142162221Y-96769524D01*
X142200150Y-96738396D01*
X142240949Y-96711136D01*
X142284222Y-96688005D01*
X142329555Y-96669228D01*
X142376510Y-96654984D01*
X142424635Y-96645412D01*
X142473466Y-96640602D01*
X142498000Y-96640602D01*
X142498000Y-96640000D01*
X142998000Y-96640000D01*
X142998000Y-96640602D01*
X143022534Y-96640602D01*
X143071365Y-96645412D01*
X143119490Y-96654984D01*
X143166445Y-96669228D01*
X143211778Y-96688005D01*
X143255051Y-96711136D01*
X143295850Y-96738396D01*
X143333779Y-96769524D01*
X143368476Y-96804221D01*
X143399604Y-96842150D01*
X143426864Y-96882949D01*
X143449995Y-96926222D01*
X143468772Y-96971555D01*
X143483016Y-97018510D01*
X143492588Y-97066635D01*
X143497398Y-97115466D01*
X143497398Y-97140000D01*
X143498000Y-97140000D01*
X143498000Y-97640000D01*
X141998000Y-97640000D01*
X141998000Y-97140000D01*
X141998602Y-97140000D01*
G37*
%TD.AperFunction*%
%TA.AperFunction,SMDPad,CuDef*%
%TO.P,JP1,1*%
%TO.N,+5V*%
G36*
X143498000Y-97940000D02*
G01*
X143498000Y-98440000D01*
X143497398Y-98440000D01*
X143497398Y-98464534D01*
X143492588Y-98513365D01*
X143483016Y-98561490D01*
X143468772Y-98608445D01*
X143449995Y-98653778D01*
X143426864Y-98697051D01*
X143399604Y-98737850D01*
X143368476Y-98775779D01*
X143333779Y-98810476D01*
X143295850Y-98841604D01*
X143255051Y-98868864D01*
X143211778Y-98891995D01*
X143166445Y-98910772D01*
X143119490Y-98925016D01*
X143071365Y-98934588D01*
X143022534Y-98939398D01*
X142998000Y-98939398D01*
X142998000Y-98940000D01*
X142498000Y-98940000D01*
X142498000Y-98939398D01*
X142473466Y-98939398D01*
X142424635Y-98934588D01*
X142376510Y-98925016D01*
X142329555Y-98910772D01*
X142284222Y-98891995D01*
X142240949Y-98868864D01*
X142200150Y-98841604D01*
X142162221Y-98810476D01*
X142127524Y-98775779D01*
X142096396Y-98737850D01*
X142069136Y-98697051D01*
X142046005Y-98653778D01*
X142027228Y-98608445D01*
X142012984Y-98561490D01*
X142003412Y-98513365D01*
X141998602Y-98464534D01*
X141998602Y-98440000D01*
X141998000Y-98440000D01*
X141998000Y-97940000D01*
X143498000Y-97940000D01*
G37*
%TD.AperFunction*%
%TD*%
D16*
%TO.P,R4,2*%
%TO.N,Net-(JP3-Pad2)*%
X157198000Y-88900000D03*
D10*
%TO.P,R4,1*%
%TO.N,GND*%
X157198000Y-99060000D03*
%TD*%
D16*
%TO.P,R3,2*%
%TO.N,Net-(JP2-Pad2)*%
X153148000Y-88900000D03*
D10*
%TO.P,R3,1*%
%TO.N,GND*%
X153148000Y-99060000D03*
%TD*%
D16*
%TO.P,R2,2*%
%TO.N,Net-(JP1-Pad2)*%
X149098000Y-88900000D03*
D10*
%TO.P,R2,1*%
%TO.N,GND*%
X149098000Y-99060000D03*
%TD*%
D16*
%TO.P,U1,16*%
%TO.N,+5V*%
X165608000Y-69850000D03*
%TO.P,U1,8*%
%TO.N,+24V*%
X147828000Y-62230000D03*
%TO.P,U1,15*%
%TO.N,/M4_IN*%
X163068000Y-69850000D03*
%TO.P,U1,7*%
%TO.N,/M2_IN*%
X150368000Y-62230000D03*
%TO.P,U1,14*%
%TO.N,/M4_OUT*%
X160528000Y-69850000D03*
%TO.P,U1,6*%
%TO.N,/M2_OUT*%
X152908000Y-62230000D03*
%TO.P,U1,13*%
%TO.N,GND*%
X157988000Y-69850000D03*
%TO.P,U1,5*%
X155448000Y-62230000D03*
%TO.P,U1,12*%
X155448000Y-69850000D03*
%TO.P,U1,4*%
X157988000Y-62230000D03*
%TO.P,U1,11*%
%TO.N,/M3_OUT*%
X152908000Y-69850000D03*
%TO.P,U1,3*%
%TO.N,/M1_OUT*%
X160528000Y-62230000D03*
%TO.P,U1,10*%
%TO.N,/M3_IN*%
X150368000Y-69850000D03*
%TO.P,U1,2*%
%TO.N,/M1_IN*%
X163068000Y-62230000D03*
%TO.P,U1,9*%
%TO.N,/EN_PWM*%
X147828000Y-69850000D03*
D14*
%TO.P,U1,1*%
X165608000Y-62230000D03*
%TD*%
D10*
%TO.P,C2,2*%
%TO.N,GND*%
X177750000Y-61444000D03*
%TO.P,C2,1*%
%TO.N,+5V*%
X180250000Y-61444000D03*
%TD*%
D16*
%TO.P,R1,2*%
%TO.N,+5V*%
X187198000Y-72136000D03*
D10*
%TO.P,R1,1*%
%TO.N,Net-(R1-Pad1)*%
X187198000Y-82296000D03*
%TD*%
D16*
%TO.P,U2,18*%
%TO.N,+5V*%
X145288000Y-77470000D03*
%TO.P,U2,9*%
%TO.N,GND*%
X165608000Y-85090000D03*
%TO.P,U2,17*%
%TO.N,Net-(U2-Pad17)*%
X147828000Y-77470000D03*
%TO.P,U2,8*%
%TO.N,Net-(U2-Pad8)*%
X163068000Y-85090000D03*
%TO.P,U2,16*%
%TO.N,Net-(U2-Pad16)*%
X150368000Y-77470000D03*
%TO.P,U2,7*%
%TO.N,Net-(U2-Pad7)*%
X160528000Y-85090000D03*
%TO.P,U2,15*%
%TO.N,Net-(U2-Pad15)*%
X152908000Y-77470000D03*
%TO.P,U2,6*%
%TO.N,+5V*%
X157988000Y-85090000D03*
%TO.P,U2,14*%
%TO.N,/PHOTOINTERRUPTER*%
X155448000Y-77470000D03*
%TO.P,U2,5*%
%TO.N,Net-(JP3-Pad2)*%
X155448000Y-85090000D03*
%TO.P,U2,13*%
%TO.N,/M4_IN*%
X157988000Y-77470000D03*
%TO.P,U2,4*%
%TO.N,Net-(JP2-Pad2)*%
X152908000Y-85090000D03*
%TO.P,U2,12*%
%TO.N,/M3_IN*%
X160528000Y-77470000D03*
%TO.P,U2,3*%
%TO.N,Net-(JP1-Pad2)*%
X150368000Y-85090000D03*
%TO.P,U2,11*%
%TO.N,/M2_IN*%
X163068000Y-77470000D03*
%TO.P,U2,2*%
%TO.N,/SDA*%
X147828000Y-85090000D03*
%TO.P,U2,10*%
%TO.N,/M1_IN*%
X165608000Y-77470000D03*
D14*
%TO.P,U2,1*%
%TO.N,/SCL*%
X145288000Y-85090000D03*
%TD*%
D17*
%TO.P,J3,8*%
%TO.N,/SDA*%
X97000000Y-95000000D03*
%TO.P,J3,7*%
%TO.N,/SCL*%
X97000000Y-92500000D03*
%TO.P,J3,6*%
%TO.N,/LED_DIN*%
X97000000Y-90000000D03*
%TO.P,J3,5*%
%TO.N,/LED_DOUT*%
X97000000Y-87500000D03*
%TO.P,J3,4*%
%TO.N,/EN_PWM*%
X97000000Y-85000000D03*
%TO.P,J3,3*%
%TO.N,+24V*%
X97000000Y-82500000D03*
%TO.P,J3,2*%
%TO.N,+5V*%
X97000000Y-80000000D03*
%TO.P,J3,1*%
%TO.N,GND*%
%TA.AperFunction,ComponentPad*%
G36*
G01*
X96275000Y-76650000D02*
X97725000Y-76650000D01*
G75*
G02*
X97975000Y-76900000I0J-250000D01*
G01*
X97975000Y-78100000D01*
G75*
G02*
X97725000Y-78350000I-250000J0D01*
G01*
X96275000Y-78350000D01*
G75*
G02*
X96025000Y-78100000I0J250000D01*
G01*
X96025000Y-76900000D01*
G75*
G02*
X96275000Y-76650000I250000J0D01*
G01*
G37*
%TD.AperFunction*%
%TD*%
D18*
%TO.P,J2,6*%
%TO.N,Net-(J2-Pad6)*%
X160728000Y-47000000D03*
%TO.P,J2,5*%
%TO.N,Net-(J2-Pad5)*%
X163228000Y-47000000D03*
%TO.P,J2,4*%
%TO.N,/M4_OUT*%
X165728000Y-47000000D03*
%TO.P,J2,3*%
%TO.N,/M3_OUT*%
X168228000Y-47000000D03*
%TO.P,J2,2*%
%TO.N,/M2_OUT*%
X170728000Y-47000000D03*
%TO.P,J2,1*%
%TO.N,/M1_OUT*%
%TA.AperFunction,ComponentPad*%
G36*
G01*
X174078000Y-46275000D02*
X174078000Y-47725000D01*
G75*
G02*
X173828000Y-47975000I-250000J0D01*
G01*
X172628000Y-47975000D01*
G75*
G02*
X172378000Y-47725000I0J250000D01*
G01*
X172378000Y-46275000D01*
G75*
G02*
X172628000Y-46025000I250000J0D01*
G01*
X173828000Y-46025000D01*
G75*
G02*
X174078000Y-46275000I0J-250000D01*
G01*
G37*
%TD.AperFunction*%
%TD*%
D17*
%TO.P,J1,4*%
%TO.N,/LED_DIN*%
X192000000Y-50500000D03*
%TO.P,J1,3*%
%TO.N,/LED_DOUT*%
X192000000Y-53000000D03*
%TO.P,J1,2*%
%TO.N,+5V*%
X192000000Y-55500000D03*
%TO.P,J1,1*%
%TO.N,GND*%
%TA.AperFunction,ComponentPad*%
G36*
G01*
X192725000Y-58850000D02*
X191275000Y-58850000D01*
G75*
G02*
X191025000Y-58600000I0J250000D01*
G01*
X191025000Y-57400000D01*
G75*
G02*
X191275000Y-57150000I250000J0D01*
G01*
X192725000Y-57150000D01*
G75*
G02*
X192975000Y-57400000I0J-250000D01*
G01*
X192975000Y-58600000D01*
G75*
G02*
X192725000Y-58850000I-250000J0D01*
G01*
G37*
%TD.AperFunction*%
%TD*%
D19*
%TO.N,/LED_DIN*%
X195580000Y-90170000D03*
%TO.N,/LED_DOUT*%
X194310000Y-87630000D03*
D20*
%TO.N,+5V*%
X126238000Y-80010000D03*
D19*
%TO.N,/M4_OUT*%
X165608000Y-58420000D03*
X161798000Y-58420000D03*
%TO.N,/M3_OUT*%
X151638000Y-54610000D03*
X168148000Y-54610000D03*
%TO.N,/M2_OUT*%
X152908000Y-55880000D03*
X170688000Y-55880000D03*
%TO.N,/M1_OUT*%
X173228000Y-57150000D03*
X160528000Y-57150000D03*
%TO.N,/EN_PWM*%
X136398000Y-85090000D03*
D20*
%TO.N,+24V*%
X105918000Y-62230000D03*
X105918000Y-82550000D03*
D19*
%TO.N,/PHOTOINTERRUPTER*%
X155448000Y-78740000D03*
X171958000Y-77470000D03*
%TO.N,/M4_IN*%
X163068000Y-72390000D03*
X157988000Y-72390000D03*
%TO.N,/M2_IN*%
X149098000Y-74930000D03*
X161798000Y-74930000D03*
%TO.N,/M3_IN*%
X150368000Y-73660000D03*
X160528000Y-73660000D03*
%TO.N,/SDA*%
X147828000Y-95250000D03*
%TO.N,/SCL*%
X145288000Y-92710000D03*
%TO.N,Net-(JP1-Pad2)*%
X142748000Y-88900000D03*
%TO.N,Net-(JP2-Pad2)*%
X140208000Y-91440000D03*
X152908000Y-91440000D03*
%TO.N,Net-(JP3-Pad2)*%
X137668000Y-93980000D03*
X156718000Y-93980000D03*
%TD*%
D21*
%TO.N,/LED_DIN*%
X195580000Y-90170000D02*
X196850000Y-88900000D01*
X196850000Y-55350000D02*
X192000000Y-50500000D01*
X196850000Y-88900000D02*
X196850000Y-55350000D01*
%TO.N,/LED_DOUT*%
X194310000Y-55310000D02*
X192000000Y-53000000D01*
X194310000Y-87630000D02*
X194310000Y-55310000D01*
D22*
%TO.N,+5V*%
X165608000Y-69850000D02*
X165608000Y-73930000D01*
X145288000Y-78601370D02*
X147966630Y-81280000D01*
X145288000Y-77470000D02*
X145288000Y-78601370D01*
X169418000Y-81280000D02*
X171188000Y-79510000D01*
X171188000Y-79510000D02*
X171688000Y-80010000D01*
X165608000Y-73930000D02*
X171188000Y-79510000D01*
X157988000Y-85090000D02*
X157988000Y-81280000D01*
X157988000Y-81280000D02*
X169418000Y-81280000D01*
X147966630Y-81280000D02*
X157988000Y-81280000D01*
D21*
X128158000Y-98440000D02*
X142748000Y-98440000D01*
X126238000Y-96520000D02*
X128158000Y-98440000D01*
X126238000Y-80010000D02*
X126238000Y-96520000D01*
D22*
X165608000Y-69850000D02*
X165608000Y-66392000D01*
X165608000Y-66392000D02*
X168000000Y-64000000D01*
X180250000Y-66352380D02*
X180297940Y-66400320D01*
X180000000Y-64000000D02*
X180250000Y-63750000D01*
X168000000Y-64000000D02*
X180000000Y-64000000D01*
X180250000Y-63750000D02*
X180250000Y-66352380D01*
X180250000Y-61444000D02*
X180250000Y-63750000D01*
X180297940Y-66400320D02*
X186150320Y-66400320D01*
X187198000Y-67448000D02*
X187198000Y-72136000D01*
X186150320Y-66400320D02*
X187198000Y-67448000D01*
X180250000Y-61444000D02*
X180250000Y-56000000D01*
X180750000Y-55500000D02*
X192000000Y-55500000D01*
X180250000Y-56000000D02*
X180750000Y-55500000D01*
D21*
%TO.N,/M4_OUT*%
X165728000Y-47000000D02*
X165728000Y-58300000D01*
X165728000Y-58300000D02*
X165608000Y-58420000D01*
X161798000Y-68580000D02*
X160528000Y-69850000D01*
X161798000Y-58420000D02*
X161798000Y-68580000D01*
%TO.N,/M3_OUT*%
X168228000Y-53260000D02*
X168148000Y-53340000D01*
X168228000Y-47000000D02*
X168228000Y-53260000D01*
X151638000Y-68580000D02*
X151638000Y-54610000D01*
X152908000Y-69850000D02*
X151638000Y-68580000D01*
X168148000Y-54610000D02*
X168148000Y-53340000D01*
X168148000Y-53340000D02*
X168148000Y-52070000D01*
%TO.N,/M2_OUT*%
X152908000Y-62230000D02*
X152908000Y-55880000D01*
X170688000Y-47040000D02*
X170728000Y-47000000D01*
X170688000Y-55880000D02*
X170688000Y-47040000D01*
%TO.N,/M1_OUT*%
X173228000Y-47000000D02*
X173228000Y-57150000D01*
X160528000Y-57150000D02*
X160528000Y-62230000D01*
%TO.N,/EN_PWM*%
X136398000Y-85090000D02*
X136398000Y-76852000D01*
X136398000Y-76852000D02*
X140000000Y-73250000D01*
X144428000Y-73250000D02*
X147828000Y-69850000D01*
X140000000Y-73250000D02*
X144428000Y-73250000D01*
D22*
%TO.N,+24V*%
X105918000Y-62230000D02*
X105918000Y-82550000D01*
D21*
%TO.N,/PHOTOINTERRUPTER*%
X155448000Y-77470000D02*
X155448000Y-78740000D01*
X173149340Y-67850660D02*
X179000000Y-67850660D01*
X171958000Y-69042000D02*
X173149340Y-67850660D01*
X171958000Y-77470000D02*
X171958000Y-69042000D01*
%TO.N,/M4_IN*%
X163068000Y-69850000D02*
X163068000Y-72390000D01*
X157988000Y-72390000D02*
X157988000Y-77470000D01*
%TO.N,/M2_IN*%
X149098000Y-63500000D02*
X149098000Y-74930000D01*
X150368000Y-62230000D02*
X149098000Y-63500000D01*
X161798000Y-76200000D02*
X163068000Y-77470000D01*
X161798000Y-74930000D02*
X161798000Y-76200000D01*
%TO.N,/M3_IN*%
X150368000Y-69850000D02*
X150368000Y-73660000D01*
X160528000Y-73660000D02*
X160528000Y-77470000D01*
%TO.N,/M1_IN*%
X161942999Y-69309999D02*
X161942999Y-73804999D01*
X161942999Y-73804999D02*
X165608000Y-77470000D01*
X163068000Y-68184998D02*
X161942999Y-69309999D01*
X163068000Y-62230000D02*
X163068000Y-68184998D01*
%TO.N,/SDA*%
X147828000Y-95250000D02*
X147828000Y-85090000D01*
%TO.N,/SCL*%
X145288000Y-92710000D02*
X145288000Y-85090000D01*
%TO.N,Net-(R1-Pad1)*%
X178668411Y-80691749D02*
X177760480Y-81599680D01*
X185593749Y-80691749D02*
X178668411Y-80691749D01*
X187198000Y-82296000D02*
X185593749Y-80691749D01*
%TO.N,Net-(JP1-Pad2)*%
X149098000Y-86360000D02*
X150368000Y-85090000D01*
X149098000Y-88900000D02*
X149098000Y-86360000D01*
X142748000Y-97140000D02*
X142748000Y-88900000D01*
%TO.N,Net-(JP2-Pad2)*%
X153148000Y-85330000D02*
X152908000Y-85090000D01*
X153148000Y-88900000D02*
X153148000Y-85330000D01*
X140208000Y-97140000D02*
X140208000Y-91440000D01*
X152908000Y-89140000D02*
X153148000Y-88900000D01*
X152908000Y-91440000D02*
X152908000Y-89140000D01*
%TO.N,Net-(JP3-Pad2)*%
X157198000Y-86840000D02*
X155448000Y-85090000D01*
X157198000Y-88900000D02*
X157198000Y-86840000D01*
X137668000Y-97140000D02*
X137668000Y-93980000D01*
X156718000Y-89380000D02*
X157198000Y-88900000D01*
X156718000Y-93980000D02*
X156718000Y-89380000D01*
%TD*%
M02*
