%TF.GenerationSoftware,KiCad,Pcbnew,5.1.10-88a1d61d58~88~ubuntu20.04.1*%
%TF.CreationDate,2021-07-11T16:49:51+02:00*%
%TF.ProjectId,anna_elsa_reel_pcb,616e6e61-5f65-46c7-9361-5f7265656c5f,rev?*%
%TF.SameCoordinates,Original*%
%TF.FileFunction,Legend,Top*%
%TF.FilePolarity,Positive*%
%FSLAX46Y46*%
G04 Gerber Fmt 4.6, Leading zero omitted, Abs format (unit mm)*
G04 Created by KiCad (PCBNEW 5.1.10-88a1d61d58~88~ubuntu20.04.1) date 2021-07-11 16:49:51*
%MOMM*%
%LPD*%
G01*
G04 APERTURE LIST*
%ADD10C,0.150000*%
%ADD11C,0.120000*%
%ADD12C,0.203200*%
%ADD13C,0.127000*%
G04 APERTURE END LIST*
D10*
X163878857Y-98750380D02*
X163878857Y-97750380D01*
X164307428Y-97845619D02*
X164355047Y-97798000D01*
X164450285Y-97750380D01*
X164688380Y-97750380D01*
X164783619Y-97798000D01*
X164831238Y-97845619D01*
X164878857Y-97940857D01*
X164878857Y-98036095D01*
X164831238Y-98178952D01*
X164259809Y-98750380D01*
X164878857Y-98750380D01*
X165878857Y-98655142D02*
X165831238Y-98702761D01*
X165688380Y-98750380D01*
X165593142Y-98750380D01*
X165450285Y-98702761D01*
X165355047Y-98607523D01*
X165307428Y-98512285D01*
X165259809Y-98321809D01*
X165259809Y-98178952D01*
X165307428Y-97988476D01*
X165355047Y-97893238D01*
X165450285Y-97798000D01*
X165593142Y-97750380D01*
X165688380Y-97750380D01*
X165831238Y-97798000D01*
X165878857Y-97845619D01*
X167640761Y-98750380D02*
X167307428Y-98274190D01*
X167069333Y-98750380D02*
X167069333Y-97750380D01*
X167450285Y-97750380D01*
X167545523Y-97798000D01*
X167593142Y-97845619D01*
X167640761Y-97940857D01*
X167640761Y-98083714D01*
X167593142Y-98178952D01*
X167545523Y-98226571D01*
X167450285Y-98274190D01*
X167069333Y-98274190D01*
X168450285Y-98702761D02*
X168355047Y-98750380D01*
X168164571Y-98750380D01*
X168069333Y-98702761D01*
X168021714Y-98607523D01*
X168021714Y-98226571D01*
X168069333Y-98131333D01*
X168164571Y-98083714D01*
X168355047Y-98083714D01*
X168450285Y-98131333D01*
X168497904Y-98226571D01*
X168497904Y-98321809D01*
X168021714Y-98417047D01*
X169307428Y-98702761D02*
X169212190Y-98750380D01*
X169021714Y-98750380D01*
X168926476Y-98702761D01*
X168878857Y-98607523D01*
X168878857Y-98226571D01*
X168926476Y-98131333D01*
X169021714Y-98083714D01*
X169212190Y-98083714D01*
X169307428Y-98131333D01*
X169355047Y-98226571D01*
X169355047Y-98321809D01*
X168878857Y-98417047D01*
X169926476Y-98750380D02*
X169831238Y-98702761D01*
X169783619Y-98607523D01*
X169783619Y-97750380D01*
X171069333Y-98750380D02*
X171069333Y-97750380D01*
X171402666Y-98464666D01*
X171736000Y-97750380D01*
X171736000Y-98750380D01*
X172355047Y-98750380D02*
X172259809Y-98702761D01*
X172212190Y-98655142D01*
X172164571Y-98559904D01*
X172164571Y-98274190D01*
X172212190Y-98178952D01*
X172259809Y-98131333D01*
X172355047Y-98083714D01*
X172497904Y-98083714D01*
X172593142Y-98131333D01*
X172640761Y-98178952D01*
X172688380Y-98274190D01*
X172688380Y-98559904D01*
X172640761Y-98655142D01*
X172593142Y-98702761D01*
X172497904Y-98750380D01*
X172355047Y-98750380D01*
X172974095Y-98083714D02*
X173355047Y-98083714D01*
X173116952Y-97750380D02*
X173116952Y-98607523D01*
X173164571Y-98702761D01*
X173259809Y-98750380D01*
X173355047Y-98750380D01*
X173831238Y-98750380D02*
X173736000Y-98702761D01*
X173688380Y-98655142D01*
X173640761Y-98559904D01*
X173640761Y-98274190D01*
X173688380Y-98178952D01*
X173736000Y-98131333D01*
X173831238Y-98083714D01*
X173974095Y-98083714D01*
X174069333Y-98131333D01*
X174116952Y-98178952D01*
X174164571Y-98274190D01*
X174164571Y-98559904D01*
X174116952Y-98655142D01*
X174069333Y-98702761D01*
X173974095Y-98750380D01*
X173831238Y-98750380D01*
X174593142Y-98750380D02*
X174593142Y-98083714D01*
X174593142Y-98274190D02*
X174640761Y-98178952D01*
X174688380Y-98131333D01*
X174783619Y-98083714D01*
X174878857Y-98083714D01*
X175974095Y-98750380D02*
X175974095Y-97750380D01*
X176212190Y-97750380D01*
X176355047Y-97798000D01*
X176450285Y-97893238D01*
X176497904Y-97988476D01*
X176545523Y-98178952D01*
X176545523Y-98321809D01*
X176497904Y-98512285D01*
X176450285Y-98607523D01*
X176355047Y-98702761D01*
X176212190Y-98750380D01*
X175974095Y-98750380D01*
X176974095Y-98750380D02*
X176974095Y-98083714D01*
X176974095Y-98274190D02*
X177021714Y-98178952D01*
X177069333Y-98131333D01*
X177164571Y-98083714D01*
X177259809Y-98083714D01*
X177593142Y-98750380D02*
X177593142Y-98083714D01*
X177593142Y-97750380D02*
X177545523Y-97798000D01*
X177593142Y-97845619D01*
X177640761Y-97798000D01*
X177593142Y-97750380D01*
X177593142Y-97845619D01*
X177974095Y-98083714D02*
X178212190Y-98750380D01*
X178450285Y-98083714D01*
X179212190Y-98702761D02*
X179116952Y-98750380D01*
X178926476Y-98750380D01*
X178831238Y-98702761D01*
X178783619Y-98607523D01*
X178783619Y-98226571D01*
X178831238Y-98131333D01*
X178926476Y-98083714D01*
X179116952Y-98083714D01*
X179212190Y-98131333D01*
X179259809Y-98226571D01*
X179259809Y-98321809D01*
X178783619Y-98417047D01*
X179688380Y-98750380D02*
X179688380Y-98083714D01*
X179688380Y-98274190D02*
X179736000Y-98178952D01*
X179783619Y-98131333D01*
X179878857Y-98083714D01*
X179974095Y-98083714D01*
X181069333Y-98750380D02*
X181069333Y-97750380D01*
X181450285Y-97750380D01*
X181545523Y-97798000D01*
X181593142Y-97845619D01*
X181640761Y-97940857D01*
X181640761Y-98083714D01*
X181593142Y-98178952D01*
X181545523Y-98226571D01*
X181450285Y-98274190D01*
X181069333Y-98274190D01*
X182640761Y-98655142D02*
X182593142Y-98702761D01*
X182450285Y-98750380D01*
X182355047Y-98750380D01*
X182212190Y-98702761D01*
X182116952Y-98607523D01*
X182069333Y-98512285D01*
X182021714Y-98321809D01*
X182021714Y-98178952D01*
X182069333Y-97988476D01*
X182116952Y-97893238D01*
X182212190Y-97798000D01*
X182355047Y-97750380D01*
X182450285Y-97750380D01*
X182593142Y-97798000D01*
X182640761Y-97845619D01*
X183402666Y-98226571D02*
X183545523Y-98274190D01*
X183593142Y-98321809D01*
X183640761Y-98417047D01*
X183640761Y-98559904D01*
X183593142Y-98655142D01*
X183545523Y-98702761D01*
X183450285Y-98750380D01*
X183069333Y-98750380D01*
X183069333Y-97750380D01*
X183402666Y-97750380D01*
X183497904Y-97798000D01*
X183545523Y-97845619D01*
X183593142Y-97940857D01*
X183593142Y-98036095D01*
X183545523Y-98131333D01*
X183497904Y-98178952D01*
X183402666Y-98226571D01*
X183069333Y-98226571D01*
D11*
%TO.C,C4*%
X142120000Y-68370000D02*
X139880000Y-68370000D01*
X142120000Y-61130000D02*
X139880000Y-61130000D01*
X139880000Y-61130000D02*
X139880000Y-68370000D01*
X142120000Y-61130000D02*
X142120000Y-68370000D01*
%TO.C,C1*%
X172808000Y-86130000D02*
X170568000Y-86130000D01*
X172808000Y-78890000D02*
X170568000Y-78890000D01*
X170568000Y-78890000D02*
X170568000Y-86130000D01*
X172808000Y-78890000D02*
X172808000Y-86130000D01*
D12*
%TO.C,U3*%
X182098800Y-83499600D02*
X175901200Y-83499600D01*
X182098800Y-64500400D02*
X182098800Y-83499600D01*
X175901200Y-64500400D02*
X182098800Y-64500400D01*
X175901200Y-83499600D02*
X175901200Y-64500400D01*
D11*
%TO.C,D1*%
X130968000Y-64856000D02*
X129128000Y-64856000D01*
X130968000Y-65096000D02*
X129128000Y-65096000D01*
X130968000Y-64976000D02*
X129128000Y-64976000D01*
X130048000Y-68860000D02*
X130048000Y-67680000D01*
X130048000Y-63220000D02*
X130048000Y-64400000D01*
X130968000Y-67680000D02*
X130968000Y-64400000D01*
X129128000Y-67680000D02*
X130968000Y-67680000D01*
X129128000Y-64400000D02*
X129128000Y-67680000D01*
X130968000Y-64400000D02*
X129128000Y-64400000D01*
%TO.C,C3*%
X122883000Y-78455225D02*
X122383000Y-78455225D01*
X122633000Y-78205225D02*
X122633000Y-78705225D01*
X121442000Y-83611000D02*
X120874000Y-83611000D01*
X121676000Y-83571000D02*
X120640000Y-83571000D01*
X121835000Y-83531000D02*
X120481000Y-83531000D01*
X121963000Y-83491000D02*
X120353000Y-83491000D01*
X122073000Y-83451000D02*
X120243000Y-83451000D01*
X122169000Y-83411000D02*
X120147000Y-83411000D01*
X122256000Y-83371000D02*
X120060000Y-83371000D01*
X122336000Y-83331000D02*
X119980000Y-83331000D01*
X122409000Y-83291000D02*
X119907000Y-83291000D01*
X122477000Y-83251000D02*
X119839000Y-83251000D01*
X122541000Y-83211000D02*
X119775000Y-83211000D01*
X122601000Y-83171000D02*
X119715000Y-83171000D01*
X122658000Y-83131000D02*
X119658000Y-83131000D01*
X122712000Y-83091000D02*
X119604000Y-83091000D01*
X122763000Y-83051000D02*
X119553000Y-83051000D01*
X120118000Y-83011000D02*
X119505000Y-83011000D01*
X122811000Y-83011000D02*
X122198000Y-83011000D01*
X120118000Y-82971000D02*
X119459000Y-82971000D01*
X122857000Y-82971000D02*
X122198000Y-82971000D01*
X120118000Y-82931000D02*
X119415000Y-82931000D01*
X122901000Y-82931000D02*
X122198000Y-82931000D01*
X120118000Y-82891000D02*
X119373000Y-82891000D01*
X122943000Y-82891000D02*
X122198000Y-82891000D01*
X120118000Y-82851000D02*
X119332000Y-82851000D01*
X122984000Y-82851000D02*
X122198000Y-82851000D01*
X120118000Y-82811000D02*
X119294000Y-82811000D01*
X123022000Y-82811000D02*
X122198000Y-82811000D01*
X120118000Y-82771000D02*
X119257000Y-82771000D01*
X123059000Y-82771000D02*
X122198000Y-82771000D01*
X120118000Y-82731000D02*
X119221000Y-82731000D01*
X123095000Y-82731000D02*
X122198000Y-82731000D01*
X120118000Y-82691000D02*
X119187000Y-82691000D01*
X123129000Y-82691000D02*
X122198000Y-82691000D01*
X120118000Y-82651000D02*
X119154000Y-82651000D01*
X123162000Y-82651000D02*
X122198000Y-82651000D01*
X120118000Y-82611000D02*
X119123000Y-82611000D01*
X123193000Y-82611000D02*
X122198000Y-82611000D01*
X120118000Y-82571000D02*
X119093000Y-82571000D01*
X123223000Y-82571000D02*
X122198000Y-82571000D01*
X120118000Y-82531000D02*
X119063000Y-82531000D01*
X123253000Y-82531000D02*
X122198000Y-82531000D01*
X120118000Y-82491000D02*
X119036000Y-82491000D01*
X123280000Y-82491000D02*
X122198000Y-82491000D01*
X120118000Y-82451000D02*
X119009000Y-82451000D01*
X123307000Y-82451000D02*
X122198000Y-82451000D01*
X120118000Y-82411000D02*
X118983000Y-82411000D01*
X123333000Y-82411000D02*
X122198000Y-82411000D01*
X120118000Y-82371000D02*
X118958000Y-82371000D01*
X123358000Y-82371000D02*
X122198000Y-82371000D01*
X120118000Y-82331000D02*
X118934000Y-82331000D01*
X123382000Y-82331000D02*
X122198000Y-82331000D01*
X120118000Y-82291000D02*
X118911000Y-82291000D01*
X123405000Y-82291000D02*
X122198000Y-82291000D01*
X120118000Y-82251000D02*
X118890000Y-82251000D01*
X123426000Y-82251000D02*
X122198000Y-82251000D01*
X120118000Y-82211000D02*
X118868000Y-82211000D01*
X123448000Y-82211000D02*
X122198000Y-82211000D01*
X120118000Y-82171000D02*
X118848000Y-82171000D01*
X123468000Y-82171000D02*
X122198000Y-82171000D01*
X120118000Y-82131000D02*
X118829000Y-82131000D01*
X123487000Y-82131000D02*
X122198000Y-82131000D01*
X120118000Y-82091000D02*
X118810000Y-82091000D01*
X123506000Y-82091000D02*
X122198000Y-82091000D01*
X120118000Y-82051000D02*
X118793000Y-82051000D01*
X123523000Y-82051000D02*
X122198000Y-82051000D01*
X120118000Y-82011000D02*
X118776000Y-82011000D01*
X123540000Y-82011000D02*
X122198000Y-82011000D01*
X120118000Y-81971000D02*
X118760000Y-81971000D01*
X123556000Y-81971000D02*
X122198000Y-81971000D01*
X120118000Y-81931000D02*
X118744000Y-81931000D01*
X123572000Y-81931000D02*
X122198000Y-81931000D01*
X120118000Y-81891000D02*
X118730000Y-81891000D01*
X123586000Y-81891000D02*
X122198000Y-81891000D01*
X120118000Y-81851000D02*
X118716000Y-81851000D01*
X123600000Y-81851000D02*
X122198000Y-81851000D01*
X120118000Y-81811000D02*
X118703000Y-81811000D01*
X123613000Y-81811000D02*
X122198000Y-81811000D01*
X120118000Y-81771000D02*
X118690000Y-81771000D01*
X123626000Y-81771000D02*
X122198000Y-81771000D01*
X120118000Y-81731000D02*
X118678000Y-81731000D01*
X123638000Y-81731000D02*
X122198000Y-81731000D01*
X120118000Y-81690000D02*
X118667000Y-81690000D01*
X123649000Y-81690000D02*
X122198000Y-81690000D01*
X120118000Y-81650000D02*
X118657000Y-81650000D01*
X123659000Y-81650000D02*
X122198000Y-81650000D01*
X120118000Y-81610000D02*
X118647000Y-81610000D01*
X123669000Y-81610000D02*
X122198000Y-81610000D01*
X120118000Y-81570000D02*
X118638000Y-81570000D01*
X123678000Y-81570000D02*
X122198000Y-81570000D01*
X120118000Y-81530000D02*
X118630000Y-81530000D01*
X123686000Y-81530000D02*
X122198000Y-81530000D01*
X120118000Y-81490000D02*
X118622000Y-81490000D01*
X123694000Y-81490000D02*
X122198000Y-81490000D01*
X120118000Y-81450000D02*
X118615000Y-81450000D01*
X123701000Y-81450000D02*
X122198000Y-81450000D01*
X120118000Y-81410000D02*
X118608000Y-81410000D01*
X123708000Y-81410000D02*
X122198000Y-81410000D01*
X120118000Y-81370000D02*
X118602000Y-81370000D01*
X123714000Y-81370000D02*
X122198000Y-81370000D01*
X120118000Y-81330000D02*
X118597000Y-81330000D01*
X123719000Y-81330000D02*
X122198000Y-81330000D01*
X120118000Y-81290000D02*
X118593000Y-81290000D01*
X123723000Y-81290000D02*
X122198000Y-81290000D01*
X120118000Y-81250000D02*
X118589000Y-81250000D01*
X123727000Y-81250000D02*
X122198000Y-81250000D01*
X120118000Y-81210000D02*
X118585000Y-81210000D01*
X123731000Y-81210000D02*
X122198000Y-81210000D01*
X120118000Y-81170000D02*
X118582000Y-81170000D01*
X123734000Y-81170000D02*
X122198000Y-81170000D01*
X120118000Y-81130000D02*
X118580000Y-81130000D01*
X123736000Y-81130000D02*
X122198000Y-81130000D01*
X120118000Y-81090000D02*
X118579000Y-81090000D01*
X123737000Y-81090000D02*
X122198000Y-81090000D01*
X123738000Y-81050000D02*
X122198000Y-81050000D01*
X120118000Y-81050000D02*
X118578000Y-81050000D01*
X123738000Y-81010000D02*
X122198000Y-81010000D01*
X120118000Y-81010000D02*
X118578000Y-81010000D01*
X123778000Y-81010000D02*
G75*
G03*
X123778000Y-81010000I-2620000J0D01*
G01*
%TO.C,JP3*%
X136668000Y-98490000D02*
X136668000Y-97090000D01*
X137368000Y-96390000D02*
X137968000Y-96390000D01*
X138668000Y-97090000D02*
X138668000Y-98490000D01*
X137968000Y-99190000D02*
X137368000Y-99190000D01*
X137368000Y-99190000D02*
G75*
G02*
X136668000Y-98490000I0J700000D01*
G01*
X138668000Y-98490000D02*
G75*
G02*
X137968000Y-99190000I-700000J0D01*
G01*
X137968000Y-96390000D02*
G75*
G02*
X138668000Y-97090000I0J-700000D01*
G01*
X136668000Y-97090000D02*
G75*
G02*
X137368000Y-96390000I700000J0D01*
G01*
%TO.C,JP2*%
X139208000Y-98490000D02*
X139208000Y-97090000D01*
X139908000Y-96390000D02*
X140508000Y-96390000D01*
X141208000Y-97090000D02*
X141208000Y-98490000D01*
X140508000Y-99190000D02*
X139908000Y-99190000D01*
X139908000Y-99190000D02*
G75*
G02*
X139208000Y-98490000I0J700000D01*
G01*
X141208000Y-98490000D02*
G75*
G02*
X140508000Y-99190000I-700000J0D01*
G01*
X140508000Y-96390000D02*
G75*
G02*
X141208000Y-97090000I0J-700000D01*
G01*
X139208000Y-97090000D02*
G75*
G02*
X139908000Y-96390000I700000J0D01*
G01*
%TO.C,JP1*%
X141748000Y-98490000D02*
X141748000Y-97090000D01*
X142448000Y-96390000D02*
X143048000Y-96390000D01*
X143748000Y-97090000D02*
X143748000Y-98490000D01*
X143048000Y-99190000D02*
X142448000Y-99190000D01*
X142448000Y-99190000D02*
G75*
G02*
X141748000Y-98490000I0J700000D01*
G01*
X143748000Y-98490000D02*
G75*
G02*
X143048000Y-99190000I-700000J0D01*
G01*
X143048000Y-96390000D02*
G75*
G02*
X143748000Y-97090000I0J-700000D01*
G01*
X141748000Y-97090000D02*
G75*
G02*
X142448000Y-96390000I700000J0D01*
G01*
%TO.C,R4*%
X157198000Y-89940000D02*
X157198000Y-90710000D01*
X157198000Y-98020000D02*
X157198000Y-97250000D01*
X155828000Y-90710000D02*
X155828000Y-97250000D01*
X158568000Y-90710000D02*
X155828000Y-90710000D01*
X158568000Y-97250000D02*
X158568000Y-90710000D01*
X155828000Y-97250000D02*
X158568000Y-97250000D01*
%TO.C,R3*%
X153148000Y-89940000D02*
X153148000Y-90710000D01*
X153148000Y-98020000D02*
X153148000Y-97250000D01*
X151778000Y-90710000D02*
X151778000Y-97250000D01*
X154518000Y-90710000D02*
X151778000Y-90710000D01*
X154518000Y-97250000D02*
X154518000Y-90710000D01*
X151778000Y-97250000D02*
X154518000Y-97250000D01*
%TO.C,R2*%
X149098000Y-89940000D02*
X149098000Y-90710000D01*
X149098000Y-98020000D02*
X149098000Y-97250000D01*
X147728000Y-90710000D02*
X147728000Y-97250000D01*
X150468000Y-90710000D02*
X147728000Y-90710000D01*
X150468000Y-97250000D02*
X150468000Y-90710000D01*
X147728000Y-97250000D02*
X150468000Y-97250000D01*
%TO.C,U1*%
X166938000Y-68690000D02*
X166938000Y-67040000D01*
X146498000Y-68690000D02*
X166938000Y-68690000D01*
X146498000Y-63390000D02*
X146498000Y-68690000D01*
X166938000Y-63390000D02*
X146498000Y-63390000D01*
X166938000Y-65040000D02*
X166938000Y-63390000D01*
X166938000Y-67040000D02*
G75*
G02*
X166938000Y-65040000I0J1000000D01*
G01*
%TO.C,C2*%
X179629000Y-60524000D02*
X178371000Y-60524000D01*
X179629000Y-62364000D02*
X178371000Y-62364000D01*
%TO.C,R1*%
X187198000Y-73176000D02*
X187198000Y-73946000D01*
X187198000Y-81256000D02*
X187198000Y-80486000D01*
X185828000Y-73946000D02*
X185828000Y-80486000D01*
X188568000Y-73946000D02*
X185828000Y-73946000D01*
X188568000Y-80486000D02*
X188568000Y-73946000D01*
X185828000Y-80486000D02*
X188568000Y-80486000D01*
%TO.C,U2*%
X143958000Y-78630000D02*
X143958000Y-80280000D01*
X166938000Y-78630000D02*
X143958000Y-78630000D01*
X166938000Y-83930000D02*
X166938000Y-78630000D01*
X143958000Y-83930000D02*
X166938000Y-83930000D01*
X143958000Y-82280000D02*
X143958000Y-83930000D01*
X143958000Y-80280000D02*
G75*
G02*
X143958000Y-82280000I0J-1000000D01*
G01*
%TO.C,J3*%
X99750000Y-74650000D02*
X98500000Y-74650000D01*
X99750000Y-75900000D02*
X99750000Y-74650000D01*
X94250000Y-96800000D02*
X94250000Y-86250000D01*
X97200000Y-96800000D02*
X94250000Y-96800000D01*
X97200000Y-97550000D02*
X97200000Y-96800000D01*
X94250000Y-75700000D02*
X94250000Y-86250000D01*
X97200000Y-75700000D02*
X94250000Y-75700000D01*
X97200000Y-74950000D02*
X97200000Y-75700000D01*
X99450000Y-97550000D02*
X99450000Y-95750000D01*
X98700000Y-97550000D02*
X99450000Y-97550000D01*
X98700000Y-95750000D02*
X98700000Y-97550000D01*
X99450000Y-95750000D02*
X98700000Y-95750000D01*
X99450000Y-76750000D02*
X99450000Y-74950000D01*
X98700000Y-76750000D02*
X99450000Y-76750000D01*
X98700000Y-74950000D02*
X98700000Y-76750000D01*
X99450000Y-74950000D02*
X98700000Y-74950000D01*
X99450000Y-94250000D02*
X99450000Y-78250000D01*
X98700000Y-94250000D02*
X99450000Y-94250000D01*
X98700000Y-78250000D02*
X98700000Y-94250000D01*
X99450000Y-78250000D02*
X98700000Y-78250000D01*
X99460000Y-97560000D02*
X99460000Y-74940000D01*
X93490000Y-97560000D02*
X99460000Y-97560000D01*
X93490000Y-74940000D02*
X93490000Y-97560000D01*
X99460000Y-74940000D02*
X93490000Y-74940000D01*
%TO.C,J2*%
X176078000Y-49750000D02*
X176078000Y-48500000D01*
X174828000Y-49750000D02*
X176078000Y-49750000D01*
X158928000Y-44250000D02*
X166978000Y-44250000D01*
X158928000Y-47200000D02*
X158928000Y-44250000D01*
X158178000Y-47200000D02*
X158928000Y-47200000D01*
X175028000Y-44250000D02*
X166978000Y-44250000D01*
X175028000Y-47200000D02*
X175028000Y-44250000D01*
X175778000Y-47200000D02*
X175028000Y-47200000D01*
X158178000Y-49450000D02*
X159978000Y-49450000D01*
X158178000Y-48700000D02*
X158178000Y-49450000D01*
X159978000Y-48700000D02*
X158178000Y-48700000D01*
X159978000Y-49450000D02*
X159978000Y-48700000D01*
X173978000Y-49450000D02*
X175778000Y-49450000D01*
X173978000Y-48700000D02*
X173978000Y-49450000D01*
X175778000Y-48700000D02*
X173978000Y-48700000D01*
X175778000Y-49450000D02*
X175778000Y-48700000D01*
X161478000Y-49450000D02*
X172478000Y-49450000D01*
X161478000Y-48700000D02*
X161478000Y-49450000D01*
X172478000Y-48700000D02*
X161478000Y-48700000D01*
X172478000Y-49450000D02*
X172478000Y-48700000D01*
X158168000Y-49460000D02*
X175788000Y-49460000D01*
X158168000Y-43490000D02*
X158168000Y-49460000D01*
X175788000Y-43490000D02*
X158168000Y-43490000D01*
X175788000Y-49460000D02*
X175788000Y-43490000D01*
%TO.C,J1*%
X189250000Y-60850000D02*
X190500000Y-60850000D01*
X189250000Y-59600000D02*
X189250000Y-60850000D01*
X194750000Y-48700000D02*
X194750000Y-54250000D01*
X191800000Y-48700000D02*
X194750000Y-48700000D01*
X191800000Y-47950000D02*
X191800000Y-48700000D01*
X194750000Y-59800000D02*
X194750000Y-54250000D01*
X191800000Y-59800000D02*
X194750000Y-59800000D01*
X191800000Y-60550000D02*
X191800000Y-59800000D01*
X189550000Y-47950000D02*
X189550000Y-49750000D01*
X190300000Y-47950000D02*
X189550000Y-47950000D01*
X190300000Y-49750000D02*
X190300000Y-47950000D01*
X189550000Y-49750000D02*
X190300000Y-49750000D01*
X189550000Y-58750000D02*
X189550000Y-60550000D01*
X190300000Y-58750000D02*
X189550000Y-58750000D01*
X190300000Y-60550000D02*
X190300000Y-58750000D01*
X189550000Y-60550000D02*
X190300000Y-60550000D01*
X189550000Y-51250000D02*
X189550000Y-57250000D01*
X190300000Y-51250000D02*
X189550000Y-51250000D01*
X190300000Y-57250000D02*
X190300000Y-51250000D01*
X189550000Y-57250000D02*
X190300000Y-57250000D01*
X189540000Y-47940000D02*
X189540000Y-60560000D01*
X195510000Y-47940000D02*
X189540000Y-47940000D01*
X195510000Y-60560000D02*
X195510000Y-47940000D01*
X189540000Y-60560000D02*
X195510000Y-60560000D01*
%TO.C,C4*%
D10*
X143607142Y-64916666D02*
X143654761Y-64964285D01*
X143702380Y-65107142D01*
X143702380Y-65202380D01*
X143654761Y-65345238D01*
X143559523Y-65440476D01*
X143464285Y-65488095D01*
X143273809Y-65535714D01*
X143130952Y-65535714D01*
X142940476Y-65488095D01*
X142845238Y-65440476D01*
X142750000Y-65345238D01*
X142702380Y-65202380D01*
X142702380Y-65107142D01*
X142750000Y-64964285D01*
X142797619Y-64916666D01*
X143035714Y-64059523D02*
X143702380Y-64059523D01*
X142654761Y-64297619D02*
X143369047Y-64535714D01*
X143369047Y-63916666D01*
%TO.C,C1*%
X174295142Y-82676666D02*
X174342761Y-82724285D01*
X174390380Y-82867142D01*
X174390380Y-82962380D01*
X174342761Y-83105238D01*
X174247523Y-83200476D01*
X174152285Y-83248095D01*
X173961809Y-83295714D01*
X173818952Y-83295714D01*
X173628476Y-83248095D01*
X173533238Y-83200476D01*
X173438000Y-83105238D01*
X173390380Y-82962380D01*
X173390380Y-82867142D01*
X173438000Y-82724285D01*
X173485619Y-82676666D01*
X174390380Y-81724285D02*
X174390380Y-82295714D01*
X174390380Y-82010000D02*
X173390380Y-82010000D01*
X173533238Y-82105238D01*
X173628476Y-82200476D01*
X173676095Y-82295714D01*
%TO.C,U3*%
D13*
X174856171Y-74464457D02*
X175349657Y-74464457D01*
X175407714Y-74435428D01*
X175436742Y-74406400D01*
X175465771Y-74348342D01*
X175465771Y-74232228D01*
X175436742Y-74174171D01*
X175407714Y-74145142D01*
X175349657Y-74116114D01*
X174856171Y-74116114D01*
X174856171Y-73883885D02*
X174856171Y-73506514D01*
X175088400Y-73709714D01*
X175088400Y-73622628D01*
X175117428Y-73564571D01*
X175146457Y-73535542D01*
X175204514Y-73506514D01*
X175349657Y-73506514D01*
X175407714Y-73535542D01*
X175436742Y-73564571D01*
X175465771Y-73622628D01*
X175465771Y-73796800D01*
X175436742Y-73854857D01*
X175407714Y-73883885D01*
X182505200Y-75901371D02*
X182476171Y-75959428D01*
X182476171Y-76046514D01*
X182505200Y-76133600D01*
X182563257Y-76191657D01*
X182621314Y-76220685D01*
X182737428Y-76249714D01*
X182824514Y-76249714D01*
X182940628Y-76220685D01*
X182998685Y-76191657D01*
X183056742Y-76133600D01*
X183085771Y-76046514D01*
X183085771Y-75988457D01*
X183056742Y-75901371D01*
X183027714Y-75872342D01*
X182824514Y-75872342D01*
X182824514Y-75988457D01*
X183085771Y-75611085D02*
X182476171Y-75611085D01*
X182476171Y-75378857D01*
X182505200Y-75320800D01*
X182534228Y-75291771D01*
X182592285Y-75262742D01*
X182679371Y-75262742D01*
X182737428Y-75291771D01*
X182766457Y-75320800D01*
X182795485Y-75378857D01*
X182795485Y-75611085D01*
X183085771Y-74682171D02*
X183085771Y-75030514D01*
X183085771Y-74856342D02*
X182476171Y-74856342D01*
X182563257Y-74914400D01*
X182621314Y-74972457D01*
X182650342Y-75030514D01*
X182911600Y-74449942D02*
X182911600Y-74159657D01*
X183085771Y-74508000D02*
X182476171Y-74304800D01*
X183085771Y-74101600D01*
X182476171Y-73608114D02*
X182476171Y-73898400D01*
X182766457Y-73927428D01*
X182737428Y-73898400D01*
X182708400Y-73840342D01*
X182708400Y-73695200D01*
X182737428Y-73637142D01*
X182766457Y-73608114D01*
X182824514Y-73579085D01*
X182969657Y-73579085D01*
X183027714Y-73608114D01*
X183056742Y-73637142D01*
X183085771Y-73695200D01*
X183085771Y-73840342D01*
X183056742Y-73898400D01*
X183027714Y-73927428D01*
X182476171Y-73375885D02*
X182476171Y-72969485D01*
X183085771Y-73230742D01*
X183085771Y-72737257D02*
X182476171Y-72737257D01*
X182766457Y-72737257D02*
X182766457Y-72388914D01*
X183085771Y-72388914D02*
X182476171Y-72388914D01*
X183085771Y-71750285D02*
X182795485Y-71953485D01*
X183085771Y-72098628D02*
X182476171Y-72098628D01*
X182476171Y-71866400D01*
X182505200Y-71808342D01*
X182534228Y-71779314D01*
X182592285Y-71750285D01*
X182679371Y-71750285D01*
X182737428Y-71779314D01*
X182766457Y-71808342D01*
X182795485Y-71866400D01*
X182795485Y-72098628D01*
%TO.C,D1*%
D10*
X132420380Y-66778095D02*
X131420380Y-66778095D01*
X131420380Y-66540000D01*
X131468000Y-66397142D01*
X131563238Y-66301904D01*
X131658476Y-66254285D01*
X131848952Y-66206666D01*
X131991809Y-66206666D01*
X132182285Y-66254285D01*
X132277523Y-66301904D01*
X132372761Y-66397142D01*
X132420380Y-66540000D01*
X132420380Y-66778095D01*
X132420380Y-65254285D02*
X132420380Y-65825714D01*
X132420380Y-65540000D02*
X131420380Y-65540000D01*
X131563238Y-65635238D01*
X131658476Y-65730476D01*
X131706095Y-65825714D01*
X132250380Y-62491904D02*
X131250380Y-62491904D01*
X132250380Y-61920476D02*
X131678952Y-62349047D01*
X131250380Y-61920476D02*
X131821809Y-62491904D01*
%TO.C,C3*%
X120991333Y-85447142D02*
X120943714Y-85494761D01*
X120800857Y-85542380D01*
X120705619Y-85542380D01*
X120562761Y-85494761D01*
X120467523Y-85399523D01*
X120419904Y-85304285D01*
X120372285Y-85113809D01*
X120372285Y-84970952D01*
X120419904Y-84780476D01*
X120467523Y-84685238D01*
X120562761Y-84590000D01*
X120705619Y-84542380D01*
X120800857Y-84542380D01*
X120943714Y-84590000D01*
X120991333Y-84637619D01*
X121324666Y-84542380D02*
X121943714Y-84542380D01*
X121610380Y-84923333D01*
X121753238Y-84923333D01*
X121848476Y-84970952D01*
X121896095Y-85018571D01*
X121943714Y-85113809D01*
X121943714Y-85351904D01*
X121896095Y-85447142D01*
X121848476Y-85494761D01*
X121753238Y-85542380D01*
X121467523Y-85542380D01*
X121372285Y-85494761D01*
X121324666Y-85447142D01*
%TO.C,JP3*%
X136953714Y-100496666D02*
X137429904Y-100496666D01*
X136858476Y-100782380D02*
X137191809Y-99782380D01*
X137525142Y-100782380D01*
X138048952Y-99782380D02*
X138144190Y-99782380D01*
X138239428Y-99830000D01*
X138287047Y-99877619D01*
X138334666Y-99972857D01*
X138382285Y-100163333D01*
X138382285Y-100401428D01*
X138334666Y-100591904D01*
X138287047Y-100687142D01*
X138239428Y-100734761D01*
X138144190Y-100782380D01*
X138048952Y-100782380D01*
X137953714Y-100734761D01*
X137906095Y-100687142D01*
X137858476Y-100591904D01*
X137810857Y-100401428D01*
X137810857Y-100163333D01*
X137858476Y-99972857D01*
X137906095Y-99877619D01*
X137953714Y-99830000D01*
X138048952Y-99782380D01*
%TO.C,JP2*%
X139493714Y-100496666D02*
X139969904Y-100496666D01*
X139398476Y-100782380D02*
X139731809Y-99782380D01*
X140065142Y-100782380D01*
X140922285Y-100782380D02*
X140350857Y-100782380D01*
X140636571Y-100782380D02*
X140636571Y-99782380D01*
X140541333Y-99925238D01*
X140446095Y-100020476D01*
X140350857Y-100068095D01*
%TO.C,JP1*%
X142033714Y-100496666D02*
X142509904Y-100496666D01*
X141938476Y-100782380D02*
X142271809Y-99782380D01*
X142605142Y-100782380D01*
X142890857Y-99877619D02*
X142938476Y-99830000D01*
X143033714Y-99782380D01*
X143271809Y-99782380D01*
X143367047Y-99830000D01*
X143414666Y-99877619D01*
X143462285Y-99972857D01*
X143462285Y-100068095D01*
X143414666Y-100210952D01*
X142843238Y-100782380D01*
X143462285Y-100782380D01*
%TO.C,R4*%
X156833333Y-101452380D02*
X156500000Y-100976190D01*
X156261904Y-101452380D02*
X156261904Y-100452380D01*
X156642857Y-100452380D01*
X156738095Y-100500000D01*
X156785714Y-100547619D01*
X156833333Y-100642857D01*
X156833333Y-100785714D01*
X156785714Y-100880952D01*
X156738095Y-100928571D01*
X156642857Y-100976190D01*
X156261904Y-100976190D01*
X157690476Y-100785714D02*
X157690476Y-101452380D01*
X157452380Y-100404761D02*
X157214285Y-101119047D01*
X157833333Y-101119047D01*
%TO.C,R3*%
X152833333Y-101452380D02*
X152500000Y-100976190D01*
X152261904Y-101452380D02*
X152261904Y-100452380D01*
X152642857Y-100452380D01*
X152738095Y-100500000D01*
X152785714Y-100547619D01*
X152833333Y-100642857D01*
X152833333Y-100785714D01*
X152785714Y-100880952D01*
X152738095Y-100928571D01*
X152642857Y-100976190D01*
X152261904Y-100976190D01*
X153166666Y-100452380D02*
X153785714Y-100452380D01*
X153452380Y-100833333D01*
X153595238Y-100833333D01*
X153690476Y-100880952D01*
X153738095Y-100928571D01*
X153785714Y-101023809D01*
X153785714Y-101261904D01*
X153738095Y-101357142D01*
X153690476Y-101404761D01*
X153595238Y-101452380D01*
X153309523Y-101452380D01*
X153214285Y-101404761D01*
X153166666Y-101357142D01*
%TO.C,R2*%
X148833333Y-101452380D02*
X148500000Y-100976190D01*
X148261904Y-101452380D02*
X148261904Y-100452380D01*
X148642857Y-100452380D01*
X148738095Y-100500000D01*
X148785714Y-100547619D01*
X148833333Y-100642857D01*
X148833333Y-100785714D01*
X148785714Y-100880952D01*
X148738095Y-100928571D01*
X148642857Y-100976190D01*
X148261904Y-100976190D01*
X149214285Y-100547619D02*
X149261904Y-100500000D01*
X149357142Y-100452380D01*
X149595238Y-100452380D01*
X149690476Y-100500000D01*
X149738095Y-100547619D01*
X149785714Y-100642857D01*
X149785714Y-100738095D01*
X149738095Y-100880952D01*
X149166666Y-101452380D01*
X149785714Y-101452380D01*
%TO.C,U1*%
X167390380Y-66801904D02*
X168199904Y-66801904D01*
X168295142Y-66754285D01*
X168342761Y-66706666D01*
X168390380Y-66611428D01*
X168390380Y-66420952D01*
X168342761Y-66325714D01*
X168295142Y-66278095D01*
X168199904Y-66230476D01*
X167390380Y-66230476D01*
X168390380Y-65230476D02*
X168390380Y-65801904D01*
X168390380Y-65516190D02*
X167390380Y-65516190D01*
X167533238Y-65611428D01*
X167628476Y-65706666D01*
X167676095Y-65801904D01*
%TO.C,C2*%
X178833333Y-59801142D02*
X178785714Y-59848761D01*
X178642857Y-59896380D01*
X178547619Y-59896380D01*
X178404761Y-59848761D01*
X178309523Y-59753523D01*
X178261904Y-59658285D01*
X178214285Y-59467809D01*
X178214285Y-59324952D01*
X178261904Y-59134476D01*
X178309523Y-59039238D01*
X178404761Y-58944000D01*
X178547619Y-58896380D01*
X178642857Y-58896380D01*
X178785714Y-58944000D01*
X178833333Y-58991619D01*
X179214285Y-58991619D02*
X179261904Y-58944000D01*
X179357142Y-58896380D01*
X179595238Y-58896380D01*
X179690476Y-58944000D01*
X179738095Y-58991619D01*
X179785714Y-59086857D01*
X179785714Y-59182095D01*
X179738095Y-59324952D01*
X179166666Y-59896380D01*
X179785714Y-59896380D01*
%TO.C,R1*%
X185280380Y-77382666D02*
X184804190Y-77716000D01*
X185280380Y-77954095D02*
X184280380Y-77954095D01*
X184280380Y-77573142D01*
X184328000Y-77477904D01*
X184375619Y-77430285D01*
X184470857Y-77382666D01*
X184613714Y-77382666D01*
X184708952Y-77430285D01*
X184756571Y-77477904D01*
X184804190Y-77573142D01*
X184804190Y-77954095D01*
X185280380Y-76430285D02*
X185280380Y-77001714D01*
X185280380Y-76716000D02*
X184280380Y-76716000D01*
X184423238Y-76811238D01*
X184518476Y-76906476D01*
X184566095Y-77001714D01*
%TO.C,U2*%
X142410380Y-82041904D02*
X143219904Y-82041904D01*
X143315142Y-81994285D01*
X143362761Y-81946666D01*
X143410380Y-81851428D01*
X143410380Y-81660952D01*
X143362761Y-81565714D01*
X143315142Y-81518095D01*
X143219904Y-81470476D01*
X142410380Y-81470476D01*
X142505619Y-81041904D02*
X142458000Y-80994285D01*
X142410380Y-80899047D01*
X142410380Y-80660952D01*
X142458000Y-80565714D01*
X142505619Y-80518095D01*
X142600857Y-80470476D01*
X142696095Y-80470476D01*
X142838952Y-80518095D01*
X143410380Y-81089523D01*
X143410380Y-80470476D01*
%TO.C,J3*%
X100002380Y-86583333D02*
X100716666Y-86583333D01*
X100859523Y-86630952D01*
X100954761Y-86726190D01*
X101002380Y-86869047D01*
X101002380Y-86964285D01*
X100002380Y-86202380D02*
X100002380Y-85583333D01*
X100383333Y-85916666D01*
X100383333Y-85773809D01*
X100430952Y-85678571D01*
X100478571Y-85630952D01*
X100573809Y-85583333D01*
X100811904Y-85583333D01*
X100907142Y-85630952D01*
X100954761Y-85678571D01*
X101002380Y-85773809D01*
X101002380Y-86059523D01*
X100954761Y-86154761D01*
X100907142Y-86202380D01*
X95285714Y-73357142D02*
X95238095Y-73404761D01*
X95095238Y-73452380D01*
X95000000Y-73452380D01*
X94857142Y-73404761D01*
X94761904Y-73309523D01*
X94714285Y-73214285D01*
X94666666Y-73023809D01*
X94666666Y-72880952D01*
X94714285Y-72690476D01*
X94761904Y-72595238D01*
X94857142Y-72500000D01*
X95000000Y-72452380D01*
X95095238Y-72452380D01*
X95238095Y-72500000D01*
X95285714Y-72547619D01*
X95714285Y-73452380D02*
X95714285Y-72452380D01*
X96095238Y-72452380D01*
X96190476Y-72500000D01*
X96238095Y-72547619D01*
X96285714Y-72642857D01*
X96285714Y-72785714D01*
X96238095Y-72880952D01*
X96190476Y-72928571D01*
X96095238Y-72976190D01*
X95714285Y-72976190D01*
X96714285Y-72452380D02*
X96714285Y-73261904D01*
X96761904Y-73357142D01*
X96809523Y-73404761D01*
X96904761Y-73452380D01*
X97095238Y-73452380D01*
X97190476Y-73404761D01*
X97238095Y-73357142D01*
X97285714Y-73261904D01*
X97285714Y-72452380D01*
%TO.C,J2*%
X166644666Y-50002380D02*
X166644666Y-50716666D01*
X166597047Y-50859523D01*
X166501809Y-50954761D01*
X166358952Y-51002380D01*
X166263714Y-51002380D01*
X167073238Y-50097619D02*
X167120857Y-50050000D01*
X167216095Y-50002380D01*
X167454190Y-50002380D01*
X167549428Y-50050000D01*
X167597047Y-50097619D01*
X167644666Y-50192857D01*
X167644666Y-50288095D01*
X167597047Y-50430952D01*
X167025619Y-51002380D01*
X167644666Y-51002380D01*
X164716095Y-42452380D02*
X164716095Y-41452380D01*
X165049428Y-42166666D01*
X165382761Y-41452380D01*
X165382761Y-42452380D01*
X166049428Y-41452380D02*
X166239904Y-41452380D01*
X166335142Y-41500000D01*
X166430380Y-41595238D01*
X166478000Y-41785714D01*
X166478000Y-42119047D01*
X166430380Y-42309523D01*
X166335142Y-42404761D01*
X166239904Y-42452380D01*
X166049428Y-42452380D01*
X165954190Y-42404761D01*
X165858952Y-42309523D01*
X165811333Y-42119047D01*
X165811333Y-41785714D01*
X165858952Y-41595238D01*
X165954190Y-41500000D01*
X166049428Y-41452380D01*
X166763714Y-41452380D02*
X167335142Y-41452380D01*
X167049428Y-42452380D02*
X167049428Y-41452380D01*
X167858952Y-41452380D02*
X168049428Y-41452380D01*
X168144666Y-41500000D01*
X168239904Y-41595238D01*
X168287523Y-41785714D01*
X168287523Y-42119047D01*
X168239904Y-42309523D01*
X168144666Y-42404761D01*
X168049428Y-42452380D01*
X167858952Y-42452380D01*
X167763714Y-42404761D01*
X167668476Y-42309523D01*
X167620857Y-42119047D01*
X167620857Y-41785714D01*
X167668476Y-41595238D01*
X167763714Y-41500000D01*
X167858952Y-41452380D01*
X169287523Y-42452380D02*
X168954190Y-41976190D01*
X168716095Y-42452380D02*
X168716095Y-41452380D01*
X169097047Y-41452380D01*
X169192285Y-41500000D01*
X169239904Y-41547619D01*
X169287523Y-41642857D01*
X169287523Y-41785714D01*
X169239904Y-41880952D01*
X169192285Y-41928571D01*
X169097047Y-41976190D01*
X168716095Y-41976190D01*
%TO.C,J1*%
X187902380Y-54583333D02*
X188616666Y-54583333D01*
X188759523Y-54630952D01*
X188854761Y-54726190D01*
X188902380Y-54869047D01*
X188902380Y-54964285D01*
X188902380Y-53583333D02*
X188902380Y-54154761D01*
X188902380Y-53869047D02*
X187902380Y-53869047D01*
X188045238Y-53964285D01*
X188140476Y-54059523D01*
X188188095Y-54154761D01*
X197052380Y-54892857D02*
X197052380Y-55369047D01*
X196052380Y-55369047D01*
X196528571Y-54559523D02*
X196528571Y-54226190D01*
X197052380Y-54083333D02*
X197052380Y-54559523D01*
X196052380Y-54559523D01*
X196052380Y-54083333D01*
X197052380Y-53654761D02*
X196052380Y-53654761D01*
X196052380Y-53416666D01*
X196100000Y-53273809D01*
X196195238Y-53178571D01*
X196290476Y-53130952D01*
X196480952Y-53083333D01*
X196623809Y-53083333D01*
X196814285Y-53130952D01*
X196909523Y-53178571D01*
X197004761Y-53273809D01*
X197052380Y-53416666D01*
X197052380Y-53654761D01*
%TO.C,H2*%
X191988095Y-91202380D02*
X191988095Y-90202380D01*
X191988095Y-90678571D02*
X192559523Y-90678571D01*
X192559523Y-91202380D02*
X192559523Y-90202380D01*
X192988095Y-90297619D02*
X193035714Y-90250000D01*
X193130952Y-90202380D01*
X193369047Y-90202380D01*
X193464285Y-90250000D01*
X193511904Y-90297619D01*
X193559523Y-90392857D01*
X193559523Y-90488095D01*
X193511904Y-90630952D01*
X192940476Y-91202380D01*
X193559523Y-91202380D01*
%TO.C,H1*%
X114738095Y-67952380D02*
X114738095Y-66952380D01*
X114738095Y-67428571D02*
X115309523Y-67428571D01*
X115309523Y-67952380D02*
X115309523Y-66952380D01*
X116309523Y-67952380D02*
X115738095Y-67952380D01*
X116023809Y-67952380D02*
X116023809Y-66952380D01*
X115928571Y-67095238D01*
X115833333Y-67190476D01*
X115738095Y-67238095D01*
%TD*%
M02*
