M48
; DRILL file {KiCad 5.1.10-88a1d61d58~88~ubuntu20.04.1} date Sun Jul 11 16:49:48 2021
; FORMAT={-:-/ absolute / inch / decimal}
; #@! TF.CreationDate,2021-07-11T16:49:48+02:00
; #@! TF.GenerationSoftware,Kicad,Pcbnew,5.1.10-88a1d61d58~88~ubuntu20.04.1
; #@! TF.FileFunction,Plated,1,2,PTH
FMAT,2
INCH
T1C0.0157
T2C0.0275
T3C0.0295
T4C0.0315
T5C0.0374
%
G90
G05
T1
X5.37Y-3.35
X5.42Y-3.7
X5.52Y-3.6
X5.62Y-3.5
X5.72Y-3.65
X5.82Y-3.75
X5.87Y-2.95
X5.92Y-2.9
X5.97Y-2.15
X6.02Y-2.2
X6.02Y-3.6
X6.12Y-3.1
X6.17Y-3.7
X6.22Y-2.85
X6.32Y-2.25
X6.32Y-2.9
X6.37Y-2.3
X6.37Y-2.95
X6.42Y-2.85
X6.52Y-2.3
X6.62Y-2.15
X6.72Y-2.2
X6.77Y-3.05
X6.82Y-2.25
X7.65Y-3.45
X7.7Y-3.55
T2
X6.9972Y-2.6134
X6.9984Y-3.2126
X7.0472Y-2.6713
X7.0972Y-3.2134
X7.0983Y-2.6142
T3
X5.12Y-2.45
X5.12Y-2.75
T4
X4.17Y-2.45
X4.17Y-3.25
X4.77Y-3.15
X4.77Y-3.2287
X4.97Y-3.15
X5.5512Y-2.4508
X5.5512Y-2.6476
X5.72Y-3.05
X5.72Y-3.35
X5.82Y-2.45
X5.82Y-2.75
X5.82Y-3.05
X5.82Y-3.35
X5.87Y-3.5
X5.87Y-3.9
X5.92Y-2.45
X5.92Y-2.75
X5.92Y-3.05
X5.92Y-3.35
X6.02Y-2.45
X6.02Y-2.75
X6.02Y-3.05
X6.02Y-3.35
X6.0294Y-3.5
X6.0294Y-3.9
X6.12Y-2.45
X6.12Y-2.75
X6.12Y-3.05
X6.12Y-3.35
X6.1889Y-3.5
X6.1889Y-3.9
X6.22Y-2.45
X6.22Y-2.75
X6.22Y-3.05
X6.22Y-3.35
X6.32Y-2.45
X6.32Y-2.75
X6.32Y-3.05
X6.32Y-3.35
X6.42Y-2.45
X6.42Y-2.75
X6.42Y-3.05
X6.42Y-3.35
X6.52Y-2.45
X6.52Y-2.75
X6.52Y-3.05
X6.52Y-3.35
X6.7594Y-3.15
X6.7594Y-3.3469
X6.998Y-2.4191
X7.0965Y-2.4191
X7.37Y-2.84
X7.37Y-3.24
T5
X3.8189Y-3.0512
X3.8189Y-3.1496
X3.8189Y-3.248
X3.8189Y-3.3465
X3.8189Y-3.4449
X3.8189Y-3.5433
X3.8189Y-3.6417
X3.8189Y-3.7402
X6.3279Y-1.8504
X6.4263Y-1.8504
X6.5247Y-1.8504
X6.6231Y-1.8504
X6.7216Y-1.8504
X6.82Y-1.8504
X7.5591Y-1.9882
X7.5591Y-2.0866
X7.5591Y-2.185
X7.5591Y-2.2835
T0
M30
