%TF.GenerationSoftware,KiCad,Pcbnew,5.1.10-88a1d61d58~88~ubuntu20.04.1*%
%TF.CreationDate,2021-07-11T16:49:51+02:00*%
%TF.ProjectId,anna_elsa_reel_pcb,616e6e61-5f65-46c7-9361-5f7265656c5f,rev?*%
%TF.SameCoordinates,Original*%
%TF.FileFunction,Soldermask,Top*%
%TF.FilePolarity,Negative*%
%FSLAX46Y46*%
G04 Gerber Fmt 4.6, Leading zero omitted, Abs format (unit mm)*
G04 Created by KiCad (PCBNEW 5.1.10-88a1d61d58~88~ubuntu20.04.1) date 2021-07-11 16:49:51*
%MOMM*%
%LPD*%
G01*
G04 APERTURE LIST*
%ADD10C,1.600000*%
%ADD11C,0.901700*%
%ADD12C,1.701800*%
%ADD13C,1.409700*%
%ADD14O,1.500000X1.500000*%
%ADD15R,1.500000X1.500000*%
%ADD16R,1.600000X1.600000*%
%ADD17C,0.100000*%
%ADD18O,1.600000X1.600000*%
%ADD19O,1.950000X1.700000*%
%ADD20O,1.700000X1.950000*%
%ADD21C,3.000000*%
G04 APERTURE END LIST*
D10*
%TO.C,C4*%
X141000000Y-67250000D03*
X141000000Y-62250000D03*
%TD*%
%TO.C,C1*%
X171688000Y-85010000D03*
X171688000Y-80010000D03*
%TD*%
D11*
%TO.C,U3*%
X177001020Y-82948420D03*
D12*
X179000000Y-74000000D03*
D13*
X177730000Y-66380000D03*
X179000000Y-67850660D03*
X180297940Y-66400320D03*
X180270000Y-81620000D03*
X177760480Y-81599680D03*
%TD*%
D14*
%TO.C,D1*%
X130048000Y-69850000D03*
D15*
X130048000Y-62230000D03*
%TD*%
D10*
%TO.C,C3*%
X121158000Y-82010000D03*
D16*
X121158000Y-80010000D03*
%TD*%
D17*
%TO.C,JP3*%
G36*
X136918602Y-97140000D02*
G01*
X136918602Y-97115466D01*
X136923412Y-97066635D01*
X136932984Y-97018510D01*
X136947228Y-96971555D01*
X136966005Y-96926222D01*
X136989136Y-96882949D01*
X137016396Y-96842150D01*
X137047524Y-96804221D01*
X137082221Y-96769524D01*
X137120150Y-96738396D01*
X137160949Y-96711136D01*
X137204222Y-96688005D01*
X137249555Y-96669228D01*
X137296510Y-96654984D01*
X137344635Y-96645412D01*
X137393466Y-96640602D01*
X137418000Y-96640602D01*
X137418000Y-96640000D01*
X137918000Y-96640000D01*
X137918000Y-96640602D01*
X137942534Y-96640602D01*
X137991365Y-96645412D01*
X138039490Y-96654984D01*
X138086445Y-96669228D01*
X138131778Y-96688005D01*
X138175051Y-96711136D01*
X138215850Y-96738396D01*
X138253779Y-96769524D01*
X138288476Y-96804221D01*
X138319604Y-96842150D01*
X138346864Y-96882949D01*
X138369995Y-96926222D01*
X138388772Y-96971555D01*
X138403016Y-97018510D01*
X138412588Y-97066635D01*
X138417398Y-97115466D01*
X138417398Y-97140000D01*
X138418000Y-97140000D01*
X138418000Y-97640000D01*
X136918000Y-97640000D01*
X136918000Y-97140000D01*
X136918602Y-97140000D01*
G37*
G36*
X138418000Y-97940000D02*
G01*
X138418000Y-98440000D01*
X138417398Y-98440000D01*
X138417398Y-98464534D01*
X138412588Y-98513365D01*
X138403016Y-98561490D01*
X138388772Y-98608445D01*
X138369995Y-98653778D01*
X138346864Y-98697051D01*
X138319604Y-98737850D01*
X138288476Y-98775779D01*
X138253779Y-98810476D01*
X138215850Y-98841604D01*
X138175051Y-98868864D01*
X138131778Y-98891995D01*
X138086445Y-98910772D01*
X138039490Y-98925016D01*
X137991365Y-98934588D01*
X137942534Y-98939398D01*
X137918000Y-98939398D01*
X137918000Y-98940000D01*
X137418000Y-98940000D01*
X137418000Y-98939398D01*
X137393466Y-98939398D01*
X137344635Y-98934588D01*
X137296510Y-98925016D01*
X137249555Y-98910772D01*
X137204222Y-98891995D01*
X137160949Y-98868864D01*
X137120150Y-98841604D01*
X137082221Y-98810476D01*
X137047524Y-98775779D01*
X137016396Y-98737850D01*
X136989136Y-98697051D01*
X136966005Y-98653778D01*
X136947228Y-98608445D01*
X136932984Y-98561490D01*
X136923412Y-98513365D01*
X136918602Y-98464534D01*
X136918602Y-98440000D01*
X136918000Y-98440000D01*
X136918000Y-97940000D01*
X138418000Y-97940000D01*
G37*
%TD*%
%TO.C,JP2*%
G36*
X139458602Y-97140000D02*
G01*
X139458602Y-97115466D01*
X139463412Y-97066635D01*
X139472984Y-97018510D01*
X139487228Y-96971555D01*
X139506005Y-96926222D01*
X139529136Y-96882949D01*
X139556396Y-96842150D01*
X139587524Y-96804221D01*
X139622221Y-96769524D01*
X139660150Y-96738396D01*
X139700949Y-96711136D01*
X139744222Y-96688005D01*
X139789555Y-96669228D01*
X139836510Y-96654984D01*
X139884635Y-96645412D01*
X139933466Y-96640602D01*
X139958000Y-96640602D01*
X139958000Y-96640000D01*
X140458000Y-96640000D01*
X140458000Y-96640602D01*
X140482534Y-96640602D01*
X140531365Y-96645412D01*
X140579490Y-96654984D01*
X140626445Y-96669228D01*
X140671778Y-96688005D01*
X140715051Y-96711136D01*
X140755850Y-96738396D01*
X140793779Y-96769524D01*
X140828476Y-96804221D01*
X140859604Y-96842150D01*
X140886864Y-96882949D01*
X140909995Y-96926222D01*
X140928772Y-96971555D01*
X140943016Y-97018510D01*
X140952588Y-97066635D01*
X140957398Y-97115466D01*
X140957398Y-97140000D01*
X140958000Y-97140000D01*
X140958000Y-97640000D01*
X139458000Y-97640000D01*
X139458000Y-97140000D01*
X139458602Y-97140000D01*
G37*
G36*
X140958000Y-97940000D02*
G01*
X140958000Y-98440000D01*
X140957398Y-98440000D01*
X140957398Y-98464534D01*
X140952588Y-98513365D01*
X140943016Y-98561490D01*
X140928772Y-98608445D01*
X140909995Y-98653778D01*
X140886864Y-98697051D01*
X140859604Y-98737850D01*
X140828476Y-98775779D01*
X140793779Y-98810476D01*
X140755850Y-98841604D01*
X140715051Y-98868864D01*
X140671778Y-98891995D01*
X140626445Y-98910772D01*
X140579490Y-98925016D01*
X140531365Y-98934588D01*
X140482534Y-98939398D01*
X140458000Y-98939398D01*
X140458000Y-98940000D01*
X139958000Y-98940000D01*
X139958000Y-98939398D01*
X139933466Y-98939398D01*
X139884635Y-98934588D01*
X139836510Y-98925016D01*
X139789555Y-98910772D01*
X139744222Y-98891995D01*
X139700949Y-98868864D01*
X139660150Y-98841604D01*
X139622221Y-98810476D01*
X139587524Y-98775779D01*
X139556396Y-98737850D01*
X139529136Y-98697051D01*
X139506005Y-98653778D01*
X139487228Y-98608445D01*
X139472984Y-98561490D01*
X139463412Y-98513365D01*
X139458602Y-98464534D01*
X139458602Y-98440000D01*
X139458000Y-98440000D01*
X139458000Y-97940000D01*
X140958000Y-97940000D01*
G37*
%TD*%
%TO.C,JP1*%
G36*
X141998602Y-97140000D02*
G01*
X141998602Y-97115466D01*
X142003412Y-97066635D01*
X142012984Y-97018510D01*
X142027228Y-96971555D01*
X142046005Y-96926222D01*
X142069136Y-96882949D01*
X142096396Y-96842150D01*
X142127524Y-96804221D01*
X142162221Y-96769524D01*
X142200150Y-96738396D01*
X142240949Y-96711136D01*
X142284222Y-96688005D01*
X142329555Y-96669228D01*
X142376510Y-96654984D01*
X142424635Y-96645412D01*
X142473466Y-96640602D01*
X142498000Y-96640602D01*
X142498000Y-96640000D01*
X142998000Y-96640000D01*
X142998000Y-96640602D01*
X143022534Y-96640602D01*
X143071365Y-96645412D01*
X143119490Y-96654984D01*
X143166445Y-96669228D01*
X143211778Y-96688005D01*
X143255051Y-96711136D01*
X143295850Y-96738396D01*
X143333779Y-96769524D01*
X143368476Y-96804221D01*
X143399604Y-96842150D01*
X143426864Y-96882949D01*
X143449995Y-96926222D01*
X143468772Y-96971555D01*
X143483016Y-97018510D01*
X143492588Y-97066635D01*
X143497398Y-97115466D01*
X143497398Y-97140000D01*
X143498000Y-97140000D01*
X143498000Y-97640000D01*
X141998000Y-97640000D01*
X141998000Y-97140000D01*
X141998602Y-97140000D01*
G37*
G36*
X143498000Y-97940000D02*
G01*
X143498000Y-98440000D01*
X143497398Y-98440000D01*
X143497398Y-98464534D01*
X143492588Y-98513365D01*
X143483016Y-98561490D01*
X143468772Y-98608445D01*
X143449995Y-98653778D01*
X143426864Y-98697051D01*
X143399604Y-98737850D01*
X143368476Y-98775779D01*
X143333779Y-98810476D01*
X143295850Y-98841604D01*
X143255051Y-98868864D01*
X143211778Y-98891995D01*
X143166445Y-98910772D01*
X143119490Y-98925016D01*
X143071365Y-98934588D01*
X143022534Y-98939398D01*
X142998000Y-98939398D01*
X142998000Y-98940000D01*
X142498000Y-98940000D01*
X142498000Y-98939398D01*
X142473466Y-98939398D01*
X142424635Y-98934588D01*
X142376510Y-98925016D01*
X142329555Y-98910772D01*
X142284222Y-98891995D01*
X142240949Y-98868864D01*
X142200150Y-98841604D01*
X142162221Y-98810476D01*
X142127524Y-98775779D01*
X142096396Y-98737850D01*
X142069136Y-98697051D01*
X142046005Y-98653778D01*
X142027228Y-98608445D01*
X142012984Y-98561490D01*
X142003412Y-98513365D01*
X141998602Y-98464534D01*
X141998602Y-98440000D01*
X141998000Y-98440000D01*
X141998000Y-97940000D01*
X143498000Y-97940000D01*
G37*
%TD*%
D18*
%TO.C,R4*%
X157198000Y-88900000D03*
D10*
X157198000Y-99060000D03*
%TD*%
D18*
%TO.C,R3*%
X153148000Y-88900000D03*
D10*
X153148000Y-99060000D03*
%TD*%
D18*
%TO.C,R2*%
X149098000Y-88900000D03*
D10*
X149098000Y-99060000D03*
%TD*%
D18*
%TO.C,U1*%
X165608000Y-69850000D03*
X147828000Y-62230000D03*
X163068000Y-69850000D03*
X150368000Y-62230000D03*
X160528000Y-69850000D03*
X152908000Y-62230000D03*
X157988000Y-69850000D03*
X155448000Y-62230000D03*
X155448000Y-69850000D03*
X157988000Y-62230000D03*
X152908000Y-69850000D03*
X160528000Y-62230000D03*
X150368000Y-69850000D03*
X163068000Y-62230000D03*
X147828000Y-69850000D03*
D16*
X165608000Y-62230000D03*
%TD*%
D10*
%TO.C,C2*%
X177750000Y-61444000D03*
X180250000Y-61444000D03*
%TD*%
D18*
%TO.C,R1*%
X187198000Y-72136000D03*
D10*
X187198000Y-82296000D03*
%TD*%
D18*
%TO.C,U2*%
X145288000Y-77470000D03*
X165608000Y-85090000D03*
X147828000Y-77470000D03*
X163068000Y-85090000D03*
X150368000Y-77470000D03*
X160528000Y-85090000D03*
X152908000Y-77470000D03*
X157988000Y-85090000D03*
X155448000Y-77470000D03*
X155448000Y-85090000D03*
X157988000Y-77470000D03*
X152908000Y-85090000D03*
X160528000Y-77470000D03*
X150368000Y-85090000D03*
X163068000Y-77470000D03*
X147828000Y-85090000D03*
X165608000Y-77470000D03*
D16*
X145288000Y-85090000D03*
%TD*%
D19*
%TO.C,J3*%
X97000000Y-95000000D03*
X97000000Y-92500000D03*
X97000000Y-90000000D03*
X97000000Y-87500000D03*
X97000000Y-85000000D03*
X97000000Y-82500000D03*
X97000000Y-80000000D03*
G36*
G01*
X96275000Y-76650000D02*
X97725000Y-76650000D01*
G75*
G02*
X97975000Y-76900000I0J-250000D01*
G01*
X97975000Y-78100000D01*
G75*
G02*
X97725000Y-78350000I-250000J0D01*
G01*
X96275000Y-78350000D01*
G75*
G02*
X96025000Y-78100000I0J250000D01*
G01*
X96025000Y-76900000D01*
G75*
G02*
X96275000Y-76650000I250000J0D01*
G01*
G37*
%TD*%
D20*
%TO.C,J2*%
X160728000Y-47000000D03*
X163228000Y-47000000D03*
X165728000Y-47000000D03*
X168228000Y-47000000D03*
X170728000Y-47000000D03*
G36*
G01*
X174078000Y-46275000D02*
X174078000Y-47725000D01*
G75*
G02*
X173828000Y-47975000I-250000J0D01*
G01*
X172628000Y-47975000D01*
G75*
G02*
X172378000Y-47725000I0J250000D01*
G01*
X172378000Y-46275000D01*
G75*
G02*
X172628000Y-46025000I250000J0D01*
G01*
X173828000Y-46025000D01*
G75*
G02*
X174078000Y-46275000I0J-250000D01*
G01*
G37*
%TD*%
D19*
%TO.C,J1*%
X192000000Y-50500000D03*
X192000000Y-53000000D03*
X192000000Y-55500000D03*
G36*
G01*
X192725000Y-58850000D02*
X191275000Y-58850000D01*
G75*
G02*
X191025000Y-58600000I0J250000D01*
G01*
X191025000Y-57400000D01*
G75*
G02*
X191275000Y-57150000I250000J0D01*
G01*
X192725000Y-57150000D01*
G75*
G02*
X192975000Y-57400000I0J-250000D01*
G01*
X192975000Y-58600000D01*
G75*
G02*
X192725000Y-58850000I-250000J0D01*
G01*
G37*
%TD*%
D21*
%TO.C,H2*%
X192750000Y-94750000D03*
%TD*%
%TO.C,H1*%
X115500000Y-71500000D03*
%TD*%
M02*
