%TF.GenerationSoftware,KiCad,Pcbnew,5.1.10-88a1d61d58~88~ubuntu20.04.1*%
%TF.CreationDate,2021-07-11T16:49:51+02:00*%
%TF.ProjectId,anna_elsa_reel_pcb,616e6e61-5f65-46c7-9361-5f7265656c5f,rev?*%
%TF.SameCoordinates,Original*%
%TF.FileFunction,Copper,L2,Bot*%
%TF.FilePolarity,Positive*%
%FSLAX46Y46*%
G04 Gerber Fmt 4.6, Leading zero omitted, Abs format (unit mm)*
G04 Created by KiCad (PCBNEW 5.1.10-88a1d61d58~88~ubuntu20.04.1) date 2021-07-11 16:49:51*
%MOMM*%
%LPD*%
G01*
G04 APERTURE LIST*
%TA.AperFunction,ComponentPad*%
%ADD10C,1.600000*%
%TD*%
%TA.AperFunction,ComponentPad*%
%ADD11C,1.206500*%
%TD*%
%TA.AperFunction,ComponentPad*%
%ADD12O,1.500000X1.500000*%
%TD*%
%TA.AperFunction,ComponentPad*%
%ADD13R,1.500000X1.500000*%
%TD*%
%TA.AperFunction,ComponentPad*%
%ADD14R,1.600000X1.600000*%
%TD*%
%TA.AperFunction,ComponentPad*%
%ADD15O,1.600000X1.600000*%
%TD*%
%TA.AperFunction,ComponentPad*%
%ADD16O,1.950000X1.700000*%
%TD*%
%TA.AperFunction,ComponentPad*%
%ADD17O,1.700000X1.950000*%
%TD*%
%TA.AperFunction,ViaPad*%
%ADD18C,0.800000*%
%TD*%
%TA.AperFunction,ViaPad*%
%ADD19C,1.600000*%
%TD*%
%TA.AperFunction,Conductor*%
%ADD20C,0.250000*%
%TD*%
%TA.AperFunction,Conductor*%
%ADD21C,1.500000*%
%TD*%
%TA.AperFunction,Conductor*%
%ADD22C,0.254000*%
%TD*%
%TA.AperFunction,Conductor*%
%ADD23C,0.100000*%
%TD*%
G04 APERTURE END LIST*
D10*
%TO.P,C4,2*%
%TO.N,GND*%
X141000000Y-67250000D03*
%TO.P,C4,1*%
%TO.N,+24V*%
X141000000Y-62250000D03*
%TD*%
%TO.P,C1,2*%
%TO.N,GND*%
X171688000Y-85010000D03*
%TO.P,C1,1*%
%TO.N,+5V*%
X171688000Y-80010000D03*
%TD*%
D11*
%TO.P,U3,5*%
%TO.N,GND*%
X177730000Y-66380000D03*
%TO.P,U3,4*%
%TO.N,/PHOTOINTERRUPTER*%
X179000000Y-67850660D03*
%TO.P,U3,3*%
%TO.N,+5V*%
X180297940Y-66400320D03*
%TO.P,U3,2*%
%TO.N,GND*%
X180270000Y-81620000D03*
%TO.P,U3,1*%
%TO.N,Net-(R1-Pad1)*%
X177760480Y-81599680D03*
%TD*%
D12*
%TO.P,D1,2*%
%TO.N,GND*%
X130048000Y-69850000D03*
D13*
%TO.P,D1,1*%
%TO.N,+24V*%
X130048000Y-62230000D03*
%TD*%
D10*
%TO.P,C3,2*%
%TO.N,GND*%
X121158000Y-82010000D03*
D14*
%TO.P,C3,1*%
%TO.N,+5V*%
X121158000Y-80010000D03*
%TD*%
D15*
%TO.P,R4,2*%
%TO.N,Net-(JP3-Pad2)*%
X157198000Y-88900000D03*
D10*
%TO.P,R4,1*%
%TO.N,GND*%
X157198000Y-99060000D03*
%TD*%
D15*
%TO.P,R3,2*%
%TO.N,Net-(JP2-Pad2)*%
X153148000Y-88900000D03*
D10*
%TO.P,R3,1*%
%TO.N,GND*%
X153148000Y-99060000D03*
%TD*%
D15*
%TO.P,R2,2*%
%TO.N,Net-(JP1-Pad2)*%
X149098000Y-88900000D03*
D10*
%TO.P,R2,1*%
%TO.N,GND*%
X149098000Y-99060000D03*
%TD*%
D15*
%TO.P,U1,16*%
%TO.N,+5V*%
X165608000Y-69850000D03*
%TO.P,U1,8*%
%TO.N,+24V*%
X147828000Y-62230000D03*
%TO.P,U1,15*%
%TO.N,/M4_IN*%
X163068000Y-69850000D03*
%TO.P,U1,7*%
%TO.N,/M2_IN*%
X150368000Y-62230000D03*
%TO.P,U1,14*%
%TO.N,/M4_OUT*%
X160528000Y-69850000D03*
%TO.P,U1,6*%
%TO.N,/M2_OUT*%
X152908000Y-62230000D03*
%TO.P,U1,13*%
%TO.N,GND*%
X157988000Y-69850000D03*
%TO.P,U1,5*%
X155448000Y-62230000D03*
%TO.P,U1,12*%
X155448000Y-69850000D03*
%TO.P,U1,4*%
X157988000Y-62230000D03*
%TO.P,U1,11*%
%TO.N,/M3_OUT*%
X152908000Y-69850000D03*
%TO.P,U1,3*%
%TO.N,/M1_OUT*%
X160528000Y-62230000D03*
%TO.P,U1,10*%
%TO.N,/M3_IN*%
X150368000Y-69850000D03*
%TO.P,U1,2*%
%TO.N,/M1_IN*%
X163068000Y-62230000D03*
%TO.P,U1,9*%
%TO.N,/EN_PWM*%
X147828000Y-69850000D03*
D14*
%TO.P,U1,1*%
X165608000Y-62230000D03*
%TD*%
D10*
%TO.P,C2,2*%
%TO.N,GND*%
X177750000Y-61444000D03*
%TO.P,C2,1*%
%TO.N,+5V*%
X180250000Y-61444000D03*
%TD*%
D15*
%TO.P,R1,2*%
%TO.N,+5V*%
X187198000Y-72136000D03*
D10*
%TO.P,R1,1*%
%TO.N,Net-(R1-Pad1)*%
X187198000Y-82296000D03*
%TD*%
D15*
%TO.P,U2,18*%
%TO.N,+5V*%
X145288000Y-77470000D03*
%TO.P,U2,9*%
%TO.N,GND*%
X165608000Y-85090000D03*
%TO.P,U2,17*%
%TO.N,Net-(U2-Pad17)*%
X147828000Y-77470000D03*
%TO.P,U2,8*%
%TO.N,Net-(U2-Pad8)*%
X163068000Y-85090000D03*
%TO.P,U2,16*%
%TO.N,Net-(U2-Pad16)*%
X150368000Y-77470000D03*
%TO.P,U2,7*%
%TO.N,Net-(U2-Pad7)*%
X160528000Y-85090000D03*
%TO.P,U2,15*%
%TO.N,Net-(U2-Pad15)*%
X152908000Y-77470000D03*
%TO.P,U2,6*%
%TO.N,+5V*%
X157988000Y-85090000D03*
%TO.P,U2,14*%
%TO.N,/PHOTOINTERRUPTER*%
X155448000Y-77470000D03*
%TO.P,U2,5*%
%TO.N,Net-(JP3-Pad2)*%
X155448000Y-85090000D03*
%TO.P,U2,13*%
%TO.N,/M4_IN*%
X157988000Y-77470000D03*
%TO.P,U2,4*%
%TO.N,Net-(JP2-Pad2)*%
X152908000Y-85090000D03*
%TO.P,U2,12*%
%TO.N,/M3_IN*%
X160528000Y-77470000D03*
%TO.P,U2,3*%
%TO.N,Net-(JP1-Pad2)*%
X150368000Y-85090000D03*
%TO.P,U2,11*%
%TO.N,/M2_IN*%
X163068000Y-77470000D03*
%TO.P,U2,2*%
%TO.N,/SDA*%
X147828000Y-85090000D03*
%TO.P,U2,10*%
%TO.N,/M1_IN*%
X165608000Y-77470000D03*
D14*
%TO.P,U2,1*%
%TO.N,/SCL*%
X145288000Y-85090000D03*
%TD*%
D16*
%TO.P,J3,8*%
%TO.N,/SDA*%
X97000000Y-95000000D03*
%TO.P,J3,7*%
%TO.N,/SCL*%
X97000000Y-92500000D03*
%TO.P,J3,6*%
%TO.N,/LED_DIN*%
X97000000Y-90000000D03*
%TO.P,J3,5*%
%TO.N,/LED_DOUT*%
X97000000Y-87500000D03*
%TO.P,J3,4*%
%TO.N,/EN_PWM*%
X97000000Y-85000000D03*
%TO.P,J3,3*%
%TO.N,+24V*%
X97000000Y-82500000D03*
%TO.P,J3,2*%
%TO.N,+5V*%
X97000000Y-80000000D03*
%TO.P,J3,1*%
%TO.N,GND*%
%TA.AperFunction,ComponentPad*%
G36*
G01*
X96275000Y-76650000D02*
X97725000Y-76650000D01*
G75*
G02*
X97975000Y-76900000I0J-250000D01*
G01*
X97975000Y-78100000D01*
G75*
G02*
X97725000Y-78350000I-250000J0D01*
G01*
X96275000Y-78350000D01*
G75*
G02*
X96025000Y-78100000I0J250000D01*
G01*
X96025000Y-76900000D01*
G75*
G02*
X96275000Y-76650000I250000J0D01*
G01*
G37*
%TD.AperFunction*%
%TD*%
D17*
%TO.P,J2,6*%
%TO.N,Net-(J2-Pad6)*%
X160728000Y-47000000D03*
%TO.P,J2,5*%
%TO.N,Net-(J2-Pad5)*%
X163228000Y-47000000D03*
%TO.P,J2,4*%
%TO.N,/M4_OUT*%
X165728000Y-47000000D03*
%TO.P,J2,3*%
%TO.N,/M3_OUT*%
X168228000Y-47000000D03*
%TO.P,J2,2*%
%TO.N,/M2_OUT*%
X170728000Y-47000000D03*
%TO.P,J2,1*%
%TO.N,/M1_OUT*%
%TA.AperFunction,ComponentPad*%
G36*
G01*
X174078000Y-46275000D02*
X174078000Y-47725000D01*
G75*
G02*
X173828000Y-47975000I-250000J0D01*
G01*
X172628000Y-47975000D01*
G75*
G02*
X172378000Y-47725000I0J250000D01*
G01*
X172378000Y-46275000D01*
G75*
G02*
X172628000Y-46025000I250000J0D01*
G01*
X173828000Y-46025000D01*
G75*
G02*
X174078000Y-46275000I0J-250000D01*
G01*
G37*
%TD.AperFunction*%
%TD*%
D16*
%TO.P,J1,4*%
%TO.N,/LED_DIN*%
X192000000Y-50500000D03*
%TO.P,J1,3*%
%TO.N,/LED_DOUT*%
X192000000Y-53000000D03*
%TO.P,J1,2*%
%TO.N,+5V*%
X192000000Y-55500000D03*
%TO.P,J1,1*%
%TO.N,GND*%
%TA.AperFunction,ComponentPad*%
G36*
G01*
X192725000Y-58850000D02*
X191275000Y-58850000D01*
G75*
G02*
X191025000Y-58600000I0J250000D01*
G01*
X191025000Y-57400000D01*
G75*
G02*
X191275000Y-57150000I250000J0D01*
G01*
X192725000Y-57150000D01*
G75*
G02*
X192975000Y-57400000I0J-250000D01*
G01*
X192975000Y-58600000D01*
G75*
G02*
X192725000Y-58850000I-250000J0D01*
G01*
G37*
%TD.AperFunction*%
%TD*%
D18*
%TO.N,/LED_DIN*%
X195580000Y-90170000D03*
%TO.N,/LED_DOUT*%
X194310000Y-87630000D03*
D19*
%TO.N,+5V*%
X126238000Y-80010000D03*
D18*
%TO.N,/M4_OUT*%
X165608000Y-58420000D03*
X161798000Y-58420000D03*
%TO.N,/M3_OUT*%
X151638000Y-54610000D03*
X168148000Y-54610000D03*
%TO.N,/M2_OUT*%
X152908000Y-55880000D03*
X170688000Y-55880000D03*
%TO.N,/M1_OUT*%
X173228000Y-57150000D03*
X160528000Y-57150000D03*
%TO.N,/EN_PWM*%
X136398000Y-85090000D03*
D19*
%TO.N,+24V*%
X105918000Y-62230000D03*
X105918000Y-82550000D03*
D18*
%TO.N,/PHOTOINTERRUPTER*%
X155448000Y-78740000D03*
X171958000Y-77470000D03*
%TO.N,/M4_IN*%
X163068000Y-72390000D03*
X157988000Y-72390000D03*
%TO.N,/M2_IN*%
X149098000Y-74930000D03*
X161798000Y-74930000D03*
%TO.N,/M3_IN*%
X150368000Y-73660000D03*
X160528000Y-73660000D03*
%TO.N,/SDA*%
X147828000Y-95250000D03*
%TO.N,/SCL*%
X145288000Y-92710000D03*
%TO.N,Net-(JP1-Pad2)*%
X142748000Y-88900000D03*
%TO.N,Net-(JP2-Pad2)*%
X140208000Y-91440000D03*
X152908000Y-91440000D03*
%TO.N,Net-(JP3-Pad2)*%
X137668000Y-93980000D03*
X156718000Y-93980000D03*
%TD*%
D20*
%TO.N,/LED_DIN*%
X192300000Y-50800000D02*
X192000000Y-50500000D01*
X195435001Y-90025001D02*
X195580000Y-90170000D01*
X97025001Y-90025001D02*
X195435001Y-90025001D01*
X97000000Y-90000000D02*
X97025001Y-90025001D01*
%TO.N,/LED_DOUT*%
X194180000Y-87500000D02*
X194310000Y-87630000D01*
X97000000Y-87500000D02*
X194180000Y-87500000D01*
D21*
%TO.N,+5V*%
X142758000Y-80000000D02*
X145288000Y-77470000D01*
X126248000Y-80000000D02*
X126238000Y-80010000D01*
X126238000Y-80010000D02*
X142758000Y-80000000D01*
X100688000Y-80000000D02*
X126248000Y-80000000D01*
X100688000Y-80000000D02*
X97000000Y-80000000D01*
D20*
%TO.N,/M4_OUT*%
X165608000Y-58420000D02*
X161798000Y-58420000D01*
%TO.N,/M3_OUT*%
X151638000Y-54610000D02*
X168148000Y-54610000D01*
%TO.N,/M2_OUT*%
X152908000Y-55880000D02*
X170688000Y-55880000D01*
%TO.N,/M1_OUT*%
X173228000Y-57150000D02*
X160528000Y-57150000D01*
%TO.N,/EN_PWM*%
X136308000Y-85000000D02*
X136398000Y-85090000D01*
X147828000Y-69850000D02*
X147828000Y-67310000D01*
X147828000Y-67310000D02*
X149098000Y-66040000D01*
X149098000Y-66040000D02*
X164338000Y-66040000D01*
X165608000Y-64770000D02*
X165608000Y-62230000D01*
X164338000Y-66040000D02*
X165608000Y-64770000D01*
X101000000Y-85000000D02*
X97000000Y-85000000D01*
X100688000Y-85000000D02*
X101000000Y-85000000D01*
X101000000Y-85000000D02*
X136308000Y-85000000D01*
D21*
%TO.N,+24V*%
X100738000Y-82550000D02*
X100688000Y-82500000D01*
X105918000Y-82550000D02*
X100738000Y-82550000D01*
X141478000Y-62230000D02*
X105918000Y-62230000D01*
X147828000Y-62230000D02*
X141478000Y-62230000D01*
X97050000Y-82550000D02*
X97000000Y-82500000D01*
X100738000Y-82550000D02*
X97050000Y-82550000D01*
D20*
%TO.N,/PHOTOINTERRUPTER*%
X170848998Y-78740000D02*
X171003999Y-78584999D01*
X170688000Y-78740000D02*
X171958000Y-77470000D01*
X155448000Y-78740000D02*
X170688000Y-78740000D01*
%TO.N,/M4_IN*%
X163068000Y-72390000D02*
X157988000Y-72390000D01*
%TO.N,/M2_IN*%
X149098000Y-74930000D02*
X161798000Y-74930000D01*
%TO.N,/M3_IN*%
X150368000Y-73660000D02*
X160528000Y-73660000D01*
%TO.N,/SDA*%
X147578000Y-95000000D02*
X147828000Y-95250000D01*
X101000000Y-95000000D02*
X97000000Y-95000000D01*
X100688000Y-95000000D02*
X101000000Y-95000000D01*
X101000000Y-95000000D02*
X147578000Y-95000000D01*
%TO.N,/SCL*%
X145078000Y-92500000D02*
X145288000Y-92710000D01*
X100688000Y-92500000D02*
X145078000Y-92500000D01*
X100688000Y-92500000D02*
X97000000Y-92500000D01*
%TO.N,Net-(JP1-Pad2)*%
X142748000Y-88900000D02*
X149098000Y-88900000D01*
%TO.N,Net-(JP2-Pad2)*%
X140208000Y-91440000D02*
X152908000Y-91440000D01*
%TO.N,Net-(JP3-Pad2)*%
X137668000Y-93980000D02*
X156718000Y-93980000D01*
%TD*%
D22*
%TO.N,GND*%
X199340001Y-101340000D02*
X91660000Y-101340000D01*
X91660000Y-100052702D01*
X148284903Y-100052702D01*
X148356486Y-100296671D01*
X148611996Y-100417571D01*
X148886184Y-100486300D01*
X149168512Y-100500217D01*
X149448130Y-100458787D01*
X149714292Y-100363603D01*
X149839514Y-100296671D01*
X149911097Y-100052702D01*
X152334903Y-100052702D01*
X152406486Y-100296671D01*
X152661996Y-100417571D01*
X152936184Y-100486300D01*
X153218512Y-100500217D01*
X153498130Y-100458787D01*
X153764292Y-100363603D01*
X153889514Y-100296671D01*
X153961097Y-100052702D01*
X156384903Y-100052702D01*
X156456486Y-100296671D01*
X156711996Y-100417571D01*
X156986184Y-100486300D01*
X157268512Y-100500217D01*
X157548130Y-100458787D01*
X157814292Y-100363603D01*
X157939514Y-100296671D01*
X158011097Y-100052702D01*
X157198000Y-99239605D01*
X156384903Y-100052702D01*
X153961097Y-100052702D01*
X153148000Y-99239605D01*
X152334903Y-100052702D01*
X149911097Y-100052702D01*
X149098000Y-99239605D01*
X148284903Y-100052702D01*
X91660000Y-100052702D01*
X91660000Y-99130512D01*
X147657783Y-99130512D01*
X147699213Y-99410130D01*
X147794397Y-99676292D01*
X147861329Y-99801514D01*
X148105298Y-99873097D01*
X148918395Y-99060000D01*
X149277605Y-99060000D01*
X150090702Y-99873097D01*
X150334671Y-99801514D01*
X150455571Y-99546004D01*
X150524300Y-99271816D01*
X150531265Y-99130512D01*
X151707783Y-99130512D01*
X151749213Y-99410130D01*
X151844397Y-99676292D01*
X151911329Y-99801514D01*
X152155298Y-99873097D01*
X152968395Y-99060000D01*
X153327605Y-99060000D01*
X154140702Y-99873097D01*
X154384671Y-99801514D01*
X154505571Y-99546004D01*
X154574300Y-99271816D01*
X154581265Y-99130512D01*
X155757783Y-99130512D01*
X155799213Y-99410130D01*
X155894397Y-99676292D01*
X155961329Y-99801514D01*
X156205298Y-99873097D01*
X157018395Y-99060000D01*
X157377605Y-99060000D01*
X158190702Y-99873097D01*
X158434671Y-99801514D01*
X158555571Y-99546004D01*
X158624300Y-99271816D01*
X158638217Y-98989488D01*
X158596787Y-98709870D01*
X158501603Y-98443708D01*
X158434671Y-98318486D01*
X158190702Y-98246903D01*
X157377605Y-99060000D01*
X157018395Y-99060000D01*
X156205298Y-98246903D01*
X155961329Y-98318486D01*
X155840429Y-98573996D01*
X155771700Y-98848184D01*
X155757783Y-99130512D01*
X154581265Y-99130512D01*
X154588217Y-98989488D01*
X154546787Y-98709870D01*
X154451603Y-98443708D01*
X154384671Y-98318486D01*
X154140702Y-98246903D01*
X153327605Y-99060000D01*
X152968395Y-99060000D01*
X152155298Y-98246903D01*
X151911329Y-98318486D01*
X151790429Y-98573996D01*
X151721700Y-98848184D01*
X151707783Y-99130512D01*
X150531265Y-99130512D01*
X150538217Y-98989488D01*
X150496787Y-98709870D01*
X150401603Y-98443708D01*
X150334671Y-98318486D01*
X150090702Y-98246903D01*
X149277605Y-99060000D01*
X148918395Y-99060000D01*
X148105298Y-98246903D01*
X147861329Y-98318486D01*
X147740429Y-98573996D01*
X147671700Y-98848184D01*
X147657783Y-99130512D01*
X91660000Y-99130512D01*
X91660000Y-98067298D01*
X148284903Y-98067298D01*
X149098000Y-98880395D01*
X149911097Y-98067298D01*
X152334903Y-98067298D01*
X153148000Y-98880395D01*
X153961097Y-98067298D01*
X156384903Y-98067298D01*
X157198000Y-98880395D01*
X158011097Y-98067298D01*
X157939514Y-97823329D01*
X157684004Y-97702429D01*
X157409816Y-97633700D01*
X157127488Y-97619783D01*
X156847870Y-97661213D01*
X156581708Y-97756397D01*
X156456486Y-97823329D01*
X156384903Y-98067298D01*
X153961097Y-98067298D01*
X153889514Y-97823329D01*
X153634004Y-97702429D01*
X153359816Y-97633700D01*
X153077488Y-97619783D01*
X152797870Y-97661213D01*
X152531708Y-97756397D01*
X152406486Y-97823329D01*
X152334903Y-98067298D01*
X149911097Y-98067298D01*
X149839514Y-97823329D01*
X149584004Y-97702429D01*
X149309816Y-97633700D01*
X149027488Y-97619783D01*
X148747870Y-97661213D01*
X148481708Y-97756397D01*
X148356486Y-97823329D01*
X148284903Y-98067298D01*
X91660000Y-98067298D01*
X91660000Y-80000000D01*
X95382815Y-80000000D01*
X95411487Y-80291111D01*
X95496401Y-80571034D01*
X95634294Y-80829014D01*
X95819866Y-81055134D01*
X96045986Y-81240706D01*
X96063374Y-81250000D01*
X96045986Y-81259294D01*
X95819866Y-81444866D01*
X95634294Y-81670986D01*
X95496401Y-81928966D01*
X95411487Y-82208889D01*
X95382815Y-82500000D01*
X95411487Y-82791111D01*
X95496401Y-83071034D01*
X95634294Y-83329014D01*
X95819866Y-83555134D01*
X96045986Y-83740706D01*
X96063374Y-83750000D01*
X96045986Y-83759294D01*
X95819866Y-83944866D01*
X95634294Y-84170986D01*
X95496401Y-84428966D01*
X95411487Y-84708889D01*
X95382815Y-85000000D01*
X95411487Y-85291111D01*
X95496401Y-85571034D01*
X95634294Y-85829014D01*
X95819866Y-86055134D01*
X96045986Y-86240706D01*
X96063374Y-86250000D01*
X96045986Y-86259294D01*
X95819866Y-86444866D01*
X95634294Y-86670986D01*
X95496401Y-86928966D01*
X95411487Y-87208889D01*
X95382815Y-87500000D01*
X95411487Y-87791111D01*
X95496401Y-88071034D01*
X95634294Y-88329014D01*
X95819866Y-88555134D01*
X96045986Y-88740706D01*
X96063374Y-88750000D01*
X96045986Y-88759294D01*
X95819866Y-88944866D01*
X95634294Y-89170986D01*
X95496401Y-89428966D01*
X95411487Y-89708889D01*
X95382815Y-90000000D01*
X95411487Y-90291111D01*
X95496401Y-90571034D01*
X95634294Y-90829014D01*
X95819866Y-91055134D01*
X96045986Y-91240706D01*
X96063374Y-91250000D01*
X96045986Y-91259294D01*
X95819866Y-91444866D01*
X95634294Y-91670986D01*
X95496401Y-91928966D01*
X95411487Y-92208889D01*
X95382815Y-92500000D01*
X95411487Y-92791111D01*
X95496401Y-93071034D01*
X95634294Y-93329014D01*
X95819866Y-93555134D01*
X96045986Y-93740706D01*
X96063374Y-93750000D01*
X96045986Y-93759294D01*
X95819866Y-93944866D01*
X95634294Y-94170986D01*
X95496401Y-94428966D01*
X95411487Y-94708889D01*
X95382815Y-95000000D01*
X95411487Y-95291111D01*
X95496401Y-95571034D01*
X95634294Y-95829014D01*
X95819866Y-96055134D01*
X96045986Y-96240706D01*
X96303966Y-96378599D01*
X96583889Y-96463513D01*
X96802050Y-96485000D01*
X97197950Y-96485000D01*
X97416111Y-96463513D01*
X97696034Y-96378599D01*
X97954014Y-96240706D01*
X98180134Y-96055134D01*
X98365706Y-95829014D01*
X98402595Y-95760000D01*
X146923987Y-95760000D01*
X147024063Y-95909774D01*
X147168226Y-96053937D01*
X147337744Y-96167205D01*
X147526102Y-96245226D01*
X147726061Y-96285000D01*
X147929939Y-96285000D01*
X148129898Y-96245226D01*
X148318256Y-96167205D01*
X148487774Y-96053937D01*
X148631937Y-95909774D01*
X148745205Y-95740256D01*
X148823226Y-95551898D01*
X148863000Y-95351939D01*
X148863000Y-95148061D01*
X148823226Y-94948102D01*
X148745205Y-94759744D01*
X148732013Y-94740000D01*
X156014289Y-94740000D01*
X156058226Y-94783937D01*
X156227744Y-94897205D01*
X156416102Y-94975226D01*
X156616061Y-95015000D01*
X156819939Y-95015000D01*
X157019898Y-94975226D01*
X157208256Y-94897205D01*
X157377774Y-94783937D01*
X157521937Y-94639774D01*
X157588790Y-94539721D01*
X190615000Y-94539721D01*
X190615000Y-94960279D01*
X190697047Y-95372756D01*
X190857988Y-95761302D01*
X191091637Y-96110983D01*
X191389017Y-96408363D01*
X191738698Y-96642012D01*
X192127244Y-96802953D01*
X192539721Y-96885000D01*
X192960279Y-96885000D01*
X193372756Y-96802953D01*
X193761302Y-96642012D01*
X194110983Y-96408363D01*
X194408363Y-96110983D01*
X194642012Y-95761302D01*
X194802953Y-95372756D01*
X194885000Y-94960279D01*
X194885000Y-94539721D01*
X194802953Y-94127244D01*
X194642012Y-93738698D01*
X194408363Y-93389017D01*
X194110983Y-93091637D01*
X193761302Y-92857988D01*
X193372756Y-92697047D01*
X192960279Y-92615000D01*
X192539721Y-92615000D01*
X192127244Y-92697047D01*
X191738698Y-92857988D01*
X191389017Y-93091637D01*
X191091637Y-93389017D01*
X190857988Y-93738698D01*
X190697047Y-94127244D01*
X190615000Y-94539721D01*
X157588790Y-94539721D01*
X157635205Y-94470256D01*
X157713226Y-94281898D01*
X157753000Y-94081939D01*
X157753000Y-93878061D01*
X157713226Y-93678102D01*
X157635205Y-93489744D01*
X157521937Y-93320226D01*
X157377774Y-93176063D01*
X157208256Y-93062795D01*
X157019898Y-92984774D01*
X156819939Y-92945000D01*
X156616061Y-92945000D01*
X156416102Y-92984774D01*
X156227744Y-93062795D01*
X156058226Y-93176063D01*
X156014289Y-93220000D01*
X146192013Y-93220000D01*
X146205205Y-93200256D01*
X146283226Y-93011898D01*
X146323000Y-92811939D01*
X146323000Y-92608061D01*
X146283226Y-92408102D01*
X146205205Y-92219744D01*
X146192013Y-92200000D01*
X152204289Y-92200000D01*
X152248226Y-92243937D01*
X152417744Y-92357205D01*
X152606102Y-92435226D01*
X152806061Y-92475000D01*
X153009939Y-92475000D01*
X153209898Y-92435226D01*
X153398256Y-92357205D01*
X153567774Y-92243937D01*
X153711937Y-92099774D01*
X153825205Y-91930256D01*
X153903226Y-91741898D01*
X153943000Y-91541939D01*
X153943000Y-91338061D01*
X153903226Y-91138102D01*
X153825205Y-90949744D01*
X153715128Y-90785001D01*
X194746147Y-90785001D01*
X194776063Y-90829774D01*
X194920226Y-90973937D01*
X195089744Y-91087205D01*
X195278102Y-91165226D01*
X195478061Y-91205000D01*
X195681939Y-91205000D01*
X195881898Y-91165226D01*
X196070256Y-91087205D01*
X196239774Y-90973937D01*
X196383937Y-90829774D01*
X196497205Y-90660256D01*
X196575226Y-90471898D01*
X196615000Y-90271939D01*
X196615000Y-90068061D01*
X196575226Y-89868102D01*
X196497205Y-89679744D01*
X196383937Y-89510226D01*
X196239774Y-89366063D01*
X196070256Y-89252795D01*
X195881898Y-89174774D01*
X195681939Y-89135000D01*
X195478061Y-89135000D01*
X195278102Y-89174774D01*
X195089744Y-89252795D01*
X195071476Y-89265001D01*
X158588509Y-89265001D01*
X158633000Y-89041335D01*
X158633000Y-88758665D01*
X158577853Y-88481426D01*
X158486135Y-88260000D01*
X193486169Y-88260000D01*
X193506063Y-88289774D01*
X193650226Y-88433937D01*
X193819744Y-88547205D01*
X194008102Y-88625226D01*
X194208061Y-88665000D01*
X194411939Y-88665000D01*
X194611898Y-88625226D01*
X194800256Y-88547205D01*
X194969774Y-88433937D01*
X195113937Y-88289774D01*
X195227205Y-88120256D01*
X195305226Y-87931898D01*
X195345000Y-87731939D01*
X195345000Y-87528061D01*
X195305226Y-87328102D01*
X195227205Y-87139744D01*
X195113937Y-86970226D01*
X194969774Y-86826063D01*
X194800256Y-86712795D01*
X194611898Y-86634774D01*
X194411939Y-86595000D01*
X194208061Y-86595000D01*
X194008102Y-86634774D01*
X193819744Y-86712795D01*
X193779029Y-86740000D01*
X98402595Y-86740000D01*
X98365706Y-86670986D01*
X98180134Y-86444866D01*
X97954014Y-86259294D01*
X97936626Y-86250000D01*
X97954014Y-86240706D01*
X98180134Y-86055134D01*
X98365706Y-85829014D01*
X98402595Y-85760000D01*
X135604289Y-85760000D01*
X135738226Y-85893937D01*
X135907744Y-86007205D01*
X136096102Y-86085226D01*
X136296061Y-86125000D01*
X136499939Y-86125000D01*
X136699898Y-86085226D01*
X136888256Y-86007205D01*
X137057774Y-85893937D01*
X137201937Y-85749774D01*
X137315205Y-85580256D01*
X137393226Y-85391898D01*
X137433000Y-85191939D01*
X137433000Y-84988061D01*
X137393226Y-84788102D01*
X137315205Y-84599744D01*
X137201937Y-84430226D01*
X137061711Y-84290000D01*
X143849928Y-84290000D01*
X143849928Y-85890000D01*
X143862188Y-86014482D01*
X143898498Y-86134180D01*
X143957463Y-86244494D01*
X144036815Y-86341185D01*
X144133506Y-86420537D01*
X144243820Y-86479502D01*
X144363518Y-86515812D01*
X144488000Y-86528072D01*
X146088000Y-86528072D01*
X146212482Y-86515812D01*
X146332180Y-86479502D01*
X146442494Y-86420537D01*
X146539185Y-86341185D01*
X146618537Y-86244494D01*
X146677502Y-86134180D01*
X146713812Y-86014482D01*
X146714643Y-86006039D01*
X146913241Y-86204637D01*
X147148273Y-86361680D01*
X147409426Y-86469853D01*
X147686665Y-86525000D01*
X147969335Y-86525000D01*
X148246574Y-86469853D01*
X148507727Y-86361680D01*
X148742759Y-86204637D01*
X148942637Y-86004759D01*
X149098000Y-85772241D01*
X149253363Y-86004759D01*
X149453241Y-86204637D01*
X149688273Y-86361680D01*
X149949426Y-86469853D01*
X150226665Y-86525000D01*
X150509335Y-86525000D01*
X150786574Y-86469853D01*
X151047727Y-86361680D01*
X151282759Y-86204637D01*
X151482637Y-86004759D01*
X151638000Y-85772241D01*
X151793363Y-86004759D01*
X151993241Y-86204637D01*
X152228273Y-86361680D01*
X152489426Y-86469853D01*
X152766665Y-86525000D01*
X153049335Y-86525000D01*
X153326574Y-86469853D01*
X153587727Y-86361680D01*
X153822759Y-86204637D01*
X154022637Y-86004759D01*
X154178000Y-85772241D01*
X154333363Y-86004759D01*
X154533241Y-86204637D01*
X154768273Y-86361680D01*
X155029426Y-86469853D01*
X155306665Y-86525000D01*
X155589335Y-86525000D01*
X155866574Y-86469853D01*
X156127727Y-86361680D01*
X156362759Y-86204637D01*
X156562637Y-86004759D01*
X156718000Y-85772241D01*
X156873363Y-86004759D01*
X157073241Y-86204637D01*
X157308273Y-86361680D01*
X157569426Y-86469853D01*
X157846665Y-86525000D01*
X158129335Y-86525000D01*
X158406574Y-86469853D01*
X158667727Y-86361680D01*
X158902759Y-86204637D01*
X159102637Y-86004759D01*
X159258000Y-85772241D01*
X159413363Y-86004759D01*
X159613241Y-86204637D01*
X159848273Y-86361680D01*
X160109426Y-86469853D01*
X160386665Y-86525000D01*
X160669335Y-86525000D01*
X160946574Y-86469853D01*
X161207727Y-86361680D01*
X161442759Y-86204637D01*
X161642637Y-86004759D01*
X161798000Y-85772241D01*
X161953363Y-86004759D01*
X162153241Y-86204637D01*
X162388273Y-86361680D01*
X162649426Y-86469853D01*
X162926665Y-86525000D01*
X163209335Y-86525000D01*
X163486574Y-86469853D01*
X163747727Y-86361680D01*
X163982759Y-86204637D01*
X164182637Y-86004759D01*
X164339680Y-85769727D01*
X164344067Y-85759135D01*
X164455615Y-85945131D01*
X164644586Y-86153519D01*
X164870580Y-86321037D01*
X165124913Y-86441246D01*
X165258961Y-86481904D01*
X165481000Y-86359915D01*
X165481000Y-85217000D01*
X165735000Y-85217000D01*
X165735000Y-86359915D01*
X165957039Y-86481904D01*
X166091087Y-86441246D01*
X166345420Y-86321037D01*
X166571414Y-86153519D01*
X166708178Y-86002702D01*
X170874903Y-86002702D01*
X170946486Y-86246671D01*
X171201996Y-86367571D01*
X171476184Y-86436300D01*
X171758512Y-86450217D01*
X172038130Y-86408787D01*
X172304292Y-86313603D01*
X172429514Y-86246671D01*
X172501097Y-86002702D01*
X171688000Y-85189605D01*
X170874903Y-86002702D01*
X166708178Y-86002702D01*
X166760385Y-85945131D01*
X166905070Y-85703881D01*
X166999909Y-85439040D01*
X166878624Y-85217000D01*
X165735000Y-85217000D01*
X165481000Y-85217000D01*
X165461000Y-85217000D01*
X165461000Y-85080512D01*
X170247783Y-85080512D01*
X170289213Y-85360130D01*
X170384397Y-85626292D01*
X170451329Y-85751514D01*
X170695298Y-85823097D01*
X171508395Y-85010000D01*
X171867605Y-85010000D01*
X172680702Y-85823097D01*
X172924671Y-85751514D01*
X173045571Y-85496004D01*
X173114300Y-85221816D01*
X173128217Y-84939488D01*
X173086787Y-84659870D01*
X172991603Y-84393708D01*
X172924671Y-84268486D01*
X172680702Y-84196903D01*
X171867605Y-85010000D01*
X171508395Y-85010000D01*
X170695298Y-84196903D01*
X170451329Y-84268486D01*
X170330429Y-84523996D01*
X170261700Y-84798184D01*
X170247783Y-85080512D01*
X165461000Y-85080512D01*
X165461000Y-84963000D01*
X165481000Y-84963000D01*
X165481000Y-83820085D01*
X165735000Y-83820085D01*
X165735000Y-84963000D01*
X166878624Y-84963000D01*
X166999909Y-84740960D01*
X166905070Y-84476119D01*
X166760385Y-84234869D01*
X166571414Y-84026481D01*
X166559026Y-84017298D01*
X170874903Y-84017298D01*
X171688000Y-84830395D01*
X172501097Y-84017298D01*
X172429514Y-83773329D01*
X172174004Y-83652429D01*
X171899816Y-83583700D01*
X171617488Y-83569783D01*
X171337870Y-83611213D01*
X171071708Y-83706397D01*
X170946486Y-83773329D01*
X170874903Y-84017298D01*
X166559026Y-84017298D01*
X166345420Y-83858963D01*
X166091087Y-83738754D01*
X165957039Y-83698096D01*
X165735000Y-83820085D01*
X165481000Y-83820085D01*
X165258961Y-83698096D01*
X165124913Y-83738754D01*
X164870580Y-83858963D01*
X164644586Y-84026481D01*
X164455615Y-84234869D01*
X164344067Y-84420865D01*
X164339680Y-84410273D01*
X164182637Y-84175241D01*
X163982759Y-83975363D01*
X163747727Y-83818320D01*
X163486574Y-83710147D01*
X163209335Y-83655000D01*
X162926665Y-83655000D01*
X162649426Y-83710147D01*
X162388273Y-83818320D01*
X162153241Y-83975363D01*
X161953363Y-84175241D01*
X161798000Y-84407759D01*
X161642637Y-84175241D01*
X161442759Y-83975363D01*
X161207727Y-83818320D01*
X160946574Y-83710147D01*
X160669335Y-83655000D01*
X160386665Y-83655000D01*
X160109426Y-83710147D01*
X159848273Y-83818320D01*
X159613241Y-83975363D01*
X159413363Y-84175241D01*
X159258000Y-84407759D01*
X159102637Y-84175241D01*
X158902759Y-83975363D01*
X158667727Y-83818320D01*
X158406574Y-83710147D01*
X158129335Y-83655000D01*
X157846665Y-83655000D01*
X157569426Y-83710147D01*
X157308273Y-83818320D01*
X157073241Y-83975363D01*
X156873363Y-84175241D01*
X156718000Y-84407759D01*
X156562637Y-84175241D01*
X156362759Y-83975363D01*
X156127727Y-83818320D01*
X155866574Y-83710147D01*
X155589335Y-83655000D01*
X155306665Y-83655000D01*
X155029426Y-83710147D01*
X154768273Y-83818320D01*
X154533241Y-83975363D01*
X154333363Y-84175241D01*
X154178000Y-84407759D01*
X154022637Y-84175241D01*
X153822759Y-83975363D01*
X153587727Y-83818320D01*
X153326574Y-83710147D01*
X153049335Y-83655000D01*
X152766665Y-83655000D01*
X152489426Y-83710147D01*
X152228273Y-83818320D01*
X151993241Y-83975363D01*
X151793363Y-84175241D01*
X151638000Y-84407759D01*
X151482637Y-84175241D01*
X151282759Y-83975363D01*
X151047727Y-83818320D01*
X150786574Y-83710147D01*
X150509335Y-83655000D01*
X150226665Y-83655000D01*
X149949426Y-83710147D01*
X149688273Y-83818320D01*
X149453241Y-83975363D01*
X149253363Y-84175241D01*
X149098000Y-84407759D01*
X148942637Y-84175241D01*
X148742759Y-83975363D01*
X148507727Y-83818320D01*
X148246574Y-83710147D01*
X147969335Y-83655000D01*
X147686665Y-83655000D01*
X147409426Y-83710147D01*
X147148273Y-83818320D01*
X146913241Y-83975363D01*
X146714643Y-84173961D01*
X146713812Y-84165518D01*
X146677502Y-84045820D01*
X146618537Y-83935506D01*
X146539185Y-83838815D01*
X146442494Y-83759463D01*
X146332180Y-83700498D01*
X146212482Y-83664188D01*
X146088000Y-83651928D01*
X144488000Y-83651928D01*
X144363518Y-83664188D01*
X144243820Y-83700498D01*
X144133506Y-83759463D01*
X144036815Y-83838815D01*
X143957463Y-83935506D01*
X143898498Y-84045820D01*
X143862188Y-84165518D01*
X143849928Y-84290000D01*
X137061711Y-84290000D01*
X137057774Y-84286063D01*
X136888256Y-84172795D01*
X136699898Y-84094774D01*
X136499939Y-84055000D01*
X136296061Y-84055000D01*
X136096102Y-84094774D01*
X135907744Y-84172795D01*
X135807164Y-84240000D01*
X98402595Y-84240000D01*
X98365706Y-84170986D01*
X98180134Y-83944866D01*
X98168112Y-83935000D01*
X100669971Y-83935000D01*
X100738000Y-83941700D01*
X100806029Y-83935000D01*
X105525301Y-83935000D01*
X105776665Y-83985000D01*
X106059335Y-83985000D01*
X106336574Y-83929853D01*
X106597727Y-83821680D01*
X106832759Y-83664637D01*
X107032637Y-83464759D01*
X107189680Y-83229727D01*
X107283716Y-83002702D01*
X120344903Y-83002702D01*
X120416486Y-83246671D01*
X120671996Y-83367571D01*
X120946184Y-83436300D01*
X121228512Y-83450217D01*
X121508130Y-83408787D01*
X121774292Y-83313603D01*
X121899514Y-83246671D01*
X121971097Y-83002702D01*
X121819875Y-82851480D01*
X176016770Y-82851480D01*
X176016770Y-83045360D01*
X176054595Y-83235515D01*
X176128789Y-83414637D01*
X176236503Y-83575843D01*
X176373597Y-83712937D01*
X176534803Y-83820651D01*
X176713925Y-83894845D01*
X176904080Y-83932670D01*
X177097960Y-83932670D01*
X177288115Y-83894845D01*
X177467237Y-83820651D01*
X177628443Y-83712937D01*
X177765537Y-83575843D01*
X177873251Y-83414637D01*
X177947445Y-83235515D01*
X177985270Y-83045360D01*
X177985270Y-82851480D01*
X177978763Y-82818769D01*
X178121664Y-82790344D01*
X178347011Y-82697003D01*
X178549818Y-82561491D01*
X178639220Y-82472089D01*
X179597516Y-82472089D01*
X179645218Y-82696004D01*
X179867141Y-82797218D01*
X180104545Y-82853191D01*
X180348309Y-82861775D01*
X180589062Y-82822637D01*
X180817554Y-82737283D01*
X180894782Y-82696004D01*
X180942484Y-82472089D01*
X180270000Y-81799605D01*
X179597516Y-82472089D01*
X178639220Y-82472089D01*
X178722291Y-82389018D01*
X178857803Y-82186211D01*
X178951144Y-81960864D01*
X178998730Y-81721637D01*
X178998730Y-81698309D01*
X179028225Y-81698309D01*
X179067363Y-81939062D01*
X179152717Y-82167554D01*
X179193996Y-82244782D01*
X179417911Y-82292484D01*
X180090395Y-81620000D01*
X180449605Y-81620000D01*
X181122089Y-82292484D01*
X181346004Y-82244782D01*
X181387104Y-82154665D01*
X185763000Y-82154665D01*
X185763000Y-82437335D01*
X185818147Y-82714574D01*
X185926320Y-82975727D01*
X186083363Y-83210759D01*
X186283241Y-83410637D01*
X186518273Y-83567680D01*
X186779426Y-83675853D01*
X187056665Y-83731000D01*
X187339335Y-83731000D01*
X187616574Y-83675853D01*
X187877727Y-83567680D01*
X188112759Y-83410637D01*
X188312637Y-83210759D01*
X188469680Y-82975727D01*
X188577853Y-82714574D01*
X188633000Y-82437335D01*
X188633000Y-82154665D01*
X188577853Y-81877426D01*
X188469680Y-81616273D01*
X188312637Y-81381241D01*
X188112759Y-81181363D01*
X187877727Y-81024320D01*
X187616574Y-80916147D01*
X187339335Y-80861000D01*
X187056665Y-80861000D01*
X186779426Y-80916147D01*
X186518273Y-81024320D01*
X186283241Y-81181363D01*
X186083363Y-81381241D01*
X185926320Y-81616273D01*
X185818147Y-81877426D01*
X185763000Y-82154665D01*
X181387104Y-82154665D01*
X181447218Y-82022859D01*
X181503191Y-81785455D01*
X181511775Y-81541691D01*
X181472637Y-81300938D01*
X181387283Y-81072446D01*
X181346004Y-80995218D01*
X181122089Y-80947516D01*
X180449605Y-81620000D01*
X180090395Y-81620000D01*
X179417911Y-80947516D01*
X179193996Y-80995218D01*
X179092782Y-81217141D01*
X179036809Y-81454545D01*
X179028225Y-81698309D01*
X178998730Y-81698309D01*
X178998730Y-81477723D01*
X178951144Y-81238496D01*
X178857803Y-81013149D01*
X178722291Y-80810342D01*
X178679860Y-80767911D01*
X179597516Y-80767911D01*
X180270000Y-81440395D01*
X180942484Y-80767911D01*
X180894782Y-80543996D01*
X180672859Y-80442782D01*
X180435455Y-80386809D01*
X180191691Y-80378225D01*
X179950938Y-80417363D01*
X179722446Y-80502717D01*
X179645218Y-80543996D01*
X179597516Y-80767911D01*
X178679860Y-80767911D01*
X178549818Y-80637869D01*
X178347011Y-80502357D01*
X178121664Y-80409016D01*
X177882437Y-80361430D01*
X177638523Y-80361430D01*
X177399296Y-80409016D01*
X177173949Y-80502357D01*
X176971142Y-80637869D01*
X176798669Y-80810342D01*
X176663157Y-81013149D01*
X176569816Y-81238496D01*
X176522230Y-81477723D01*
X176522230Y-81721637D01*
X176569816Y-81960864D01*
X176605462Y-82046921D01*
X176534803Y-82076189D01*
X176373597Y-82183903D01*
X176236503Y-82320997D01*
X176128789Y-82482203D01*
X176054595Y-82661325D01*
X176016770Y-82851480D01*
X121819875Y-82851480D01*
X121158000Y-82189605D01*
X120344903Y-83002702D01*
X107283716Y-83002702D01*
X107297853Y-82968574D01*
X107353000Y-82691335D01*
X107353000Y-82408665D01*
X107297853Y-82131426D01*
X107189680Y-81870273D01*
X107032637Y-81635241D01*
X106832759Y-81435363D01*
X106757385Y-81385000D01*
X119866198Y-81385000D01*
X119800429Y-81523996D01*
X119731700Y-81798184D01*
X119717783Y-82080512D01*
X119759213Y-82360130D01*
X119854397Y-82626292D01*
X119921329Y-82751514D01*
X120165298Y-82823097D01*
X120978395Y-82010000D01*
X120964253Y-81995858D01*
X121143858Y-81816253D01*
X121158000Y-81830395D01*
X121172143Y-81816253D01*
X121351748Y-81995858D01*
X121337605Y-82010000D01*
X122150702Y-82823097D01*
X122394671Y-82751514D01*
X122515571Y-82496004D01*
X122584300Y-82221816D01*
X122598217Y-81939488D01*
X122556787Y-81659870D01*
X122461603Y-81393708D01*
X122456949Y-81385000D01*
X125807710Y-81385000D01*
X125819426Y-81389853D01*
X126096665Y-81445000D01*
X126379335Y-81445000D01*
X126631901Y-81394761D01*
X142690383Y-81385041D01*
X142758000Y-81391700D01*
X142826453Y-81384958D01*
X142826875Y-81384958D01*
X142894141Y-81378292D01*
X143029507Y-81364960D01*
X143029914Y-81364837D01*
X143030333Y-81364795D01*
X143159993Y-81325377D01*
X143290580Y-81285764D01*
X143290954Y-81285564D01*
X143291359Y-81285441D01*
X143411331Y-81221221D01*
X143531188Y-81157156D01*
X143531515Y-81156888D01*
X143531888Y-81156688D01*
X143636765Y-81070511D01*
X143689233Y-81027452D01*
X143689532Y-81027153D01*
X143742676Y-80983485D01*
X143785747Y-80930938D01*
X145989663Y-78727023D01*
X146202759Y-78584637D01*
X146402637Y-78384759D01*
X146558000Y-78152241D01*
X146713363Y-78384759D01*
X146913241Y-78584637D01*
X147148273Y-78741680D01*
X147409426Y-78849853D01*
X147686665Y-78905000D01*
X147969335Y-78905000D01*
X148246574Y-78849853D01*
X148507727Y-78741680D01*
X148742759Y-78584637D01*
X148942637Y-78384759D01*
X149098000Y-78152241D01*
X149253363Y-78384759D01*
X149453241Y-78584637D01*
X149688273Y-78741680D01*
X149949426Y-78849853D01*
X150226665Y-78905000D01*
X150509335Y-78905000D01*
X150786574Y-78849853D01*
X151047727Y-78741680D01*
X151282759Y-78584637D01*
X151482637Y-78384759D01*
X151638000Y-78152241D01*
X151793363Y-78384759D01*
X151993241Y-78584637D01*
X152228273Y-78741680D01*
X152489426Y-78849853D01*
X152766665Y-78905000D01*
X153049335Y-78905000D01*
X153326574Y-78849853D01*
X153587727Y-78741680D01*
X153822759Y-78584637D01*
X154022637Y-78384759D01*
X154178000Y-78152241D01*
X154333363Y-78384759D01*
X154441813Y-78493209D01*
X154413000Y-78638061D01*
X154413000Y-78841939D01*
X154452774Y-79041898D01*
X154530795Y-79230256D01*
X154644063Y-79399774D01*
X154788226Y-79543937D01*
X154957744Y-79657205D01*
X155146102Y-79735226D01*
X155346061Y-79775000D01*
X155549939Y-79775000D01*
X155749898Y-79735226D01*
X155938256Y-79657205D01*
X156107774Y-79543937D01*
X156151711Y-79500000D01*
X170346017Y-79500000D01*
X170308147Y-79591426D01*
X170253000Y-79868665D01*
X170253000Y-80151335D01*
X170308147Y-80428574D01*
X170416320Y-80689727D01*
X170573363Y-80924759D01*
X170773241Y-81124637D01*
X171008273Y-81281680D01*
X171269426Y-81389853D01*
X171546665Y-81445000D01*
X171829335Y-81445000D01*
X172106574Y-81389853D01*
X172367727Y-81281680D01*
X172602759Y-81124637D01*
X172802637Y-80924759D01*
X172959680Y-80689727D01*
X173067853Y-80428574D01*
X173123000Y-80151335D01*
X173123000Y-79868665D01*
X173067853Y-79591426D01*
X172959680Y-79330273D01*
X172802637Y-79095241D01*
X172602759Y-78895363D01*
X172367727Y-78738320D01*
X172106574Y-78630147D01*
X171911465Y-78591337D01*
X171997802Y-78505000D01*
X172059939Y-78505000D01*
X172259898Y-78465226D01*
X172448256Y-78387205D01*
X172617774Y-78273937D01*
X172761937Y-78129774D01*
X172875205Y-77960256D01*
X172953226Y-77771898D01*
X172993000Y-77571939D01*
X172993000Y-77368061D01*
X172953226Y-77168102D01*
X172875205Y-76979744D01*
X172761937Y-76810226D01*
X172617774Y-76666063D01*
X172448256Y-76552795D01*
X172259898Y-76474774D01*
X172059939Y-76435000D01*
X171856061Y-76435000D01*
X171656102Y-76474774D01*
X171467744Y-76552795D01*
X171298226Y-76666063D01*
X171154063Y-76810226D01*
X171040795Y-76979744D01*
X170962774Y-77168102D01*
X170923000Y-77368061D01*
X170923000Y-77430198D01*
X170373199Y-77980000D01*
X166949983Y-77980000D01*
X166987853Y-77888574D01*
X167043000Y-77611335D01*
X167043000Y-77328665D01*
X166987853Y-77051426D01*
X166879680Y-76790273D01*
X166722637Y-76555241D01*
X166522759Y-76355363D01*
X166287727Y-76198320D01*
X166026574Y-76090147D01*
X165749335Y-76035000D01*
X165466665Y-76035000D01*
X165189426Y-76090147D01*
X164928273Y-76198320D01*
X164693241Y-76355363D01*
X164493363Y-76555241D01*
X164338000Y-76787759D01*
X164182637Y-76555241D01*
X163982759Y-76355363D01*
X163747727Y-76198320D01*
X163486574Y-76090147D01*
X163209335Y-76035000D01*
X162926665Y-76035000D01*
X162649426Y-76090147D01*
X162388273Y-76198320D01*
X162153241Y-76355363D01*
X161953363Y-76555241D01*
X161798000Y-76787759D01*
X161642637Y-76555241D01*
X161442759Y-76355363D01*
X161207727Y-76198320D01*
X160946574Y-76090147D01*
X160669335Y-76035000D01*
X160386665Y-76035000D01*
X160109426Y-76090147D01*
X159848273Y-76198320D01*
X159613241Y-76355363D01*
X159413363Y-76555241D01*
X159258000Y-76787759D01*
X159102637Y-76555241D01*
X158902759Y-76355363D01*
X158667727Y-76198320D01*
X158406574Y-76090147D01*
X158129335Y-76035000D01*
X157846665Y-76035000D01*
X157569426Y-76090147D01*
X157308273Y-76198320D01*
X157073241Y-76355363D01*
X156873363Y-76555241D01*
X156718000Y-76787759D01*
X156562637Y-76555241D01*
X156362759Y-76355363D01*
X156127727Y-76198320D01*
X155866574Y-76090147D01*
X155589335Y-76035000D01*
X155306665Y-76035000D01*
X155029426Y-76090147D01*
X154768273Y-76198320D01*
X154533241Y-76355363D01*
X154333363Y-76555241D01*
X154178000Y-76787759D01*
X154022637Y-76555241D01*
X153822759Y-76355363D01*
X153587727Y-76198320D01*
X153326574Y-76090147D01*
X153049335Y-76035000D01*
X152766665Y-76035000D01*
X152489426Y-76090147D01*
X152228273Y-76198320D01*
X151993241Y-76355363D01*
X151793363Y-76555241D01*
X151638000Y-76787759D01*
X151482637Y-76555241D01*
X151282759Y-76355363D01*
X151047727Y-76198320D01*
X150786574Y-76090147D01*
X150509335Y-76035000D01*
X150226665Y-76035000D01*
X149949426Y-76090147D01*
X149688273Y-76198320D01*
X149453241Y-76355363D01*
X149253363Y-76555241D01*
X149098000Y-76787759D01*
X148942637Y-76555241D01*
X148742759Y-76355363D01*
X148507727Y-76198320D01*
X148246574Y-76090147D01*
X147969335Y-76035000D01*
X147686665Y-76035000D01*
X147409426Y-76090147D01*
X147148273Y-76198320D01*
X146913241Y-76355363D01*
X146713363Y-76555241D01*
X146558000Y-76787759D01*
X146402637Y-76555241D01*
X146202759Y-76355363D01*
X145967727Y-76198320D01*
X145706574Y-76090147D01*
X145429335Y-76035000D01*
X145146665Y-76035000D01*
X144869426Y-76090147D01*
X144608273Y-76198320D01*
X144373241Y-76355363D01*
X144173363Y-76555241D01*
X144030977Y-76768337D01*
X142183967Y-78615348D01*
X126629509Y-78624763D01*
X126379335Y-78575000D01*
X126096665Y-78575000D01*
X125895574Y-78615000D01*
X122184056Y-78615000D01*
X122082482Y-78584188D01*
X121958000Y-78571928D01*
X120358000Y-78571928D01*
X120233518Y-78584188D01*
X120131944Y-78615000D01*
X98553373Y-78615000D01*
X98564502Y-78594180D01*
X98600812Y-78474482D01*
X98613072Y-78350000D01*
X98610000Y-77785750D01*
X98451250Y-77627000D01*
X97127000Y-77627000D01*
X97127000Y-77647000D01*
X96873000Y-77647000D01*
X96873000Y-77627000D01*
X95548750Y-77627000D01*
X95390000Y-77785750D01*
X95386928Y-78350000D01*
X95399188Y-78474482D01*
X95435498Y-78594180D01*
X95494463Y-78704494D01*
X95573815Y-78801185D01*
X95670506Y-78880537D01*
X95780820Y-78939502D01*
X95815608Y-78950055D01*
X95634294Y-79170986D01*
X95496401Y-79428966D01*
X95411487Y-79708889D01*
X95382815Y-80000000D01*
X91660000Y-80000000D01*
X91660000Y-76650000D01*
X95386928Y-76650000D01*
X95390000Y-77214250D01*
X95548750Y-77373000D01*
X96873000Y-77373000D01*
X96873000Y-76173750D01*
X97127000Y-76173750D01*
X97127000Y-77373000D01*
X98451250Y-77373000D01*
X98610000Y-77214250D01*
X98613072Y-76650000D01*
X98600812Y-76525518D01*
X98564502Y-76405820D01*
X98505537Y-76295506D01*
X98426185Y-76198815D01*
X98329494Y-76119463D01*
X98219180Y-76060498D01*
X98099482Y-76024188D01*
X97975000Y-76011928D01*
X97285750Y-76015000D01*
X97127000Y-76173750D01*
X96873000Y-76173750D01*
X96714250Y-76015000D01*
X96025000Y-76011928D01*
X95900518Y-76024188D01*
X95780820Y-76060498D01*
X95670506Y-76119463D01*
X95573815Y-76198815D01*
X95494463Y-76295506D01*
X95435498Y-76405820D01*
X95399188Y-76525518D01*
X95386928Y-76650000D01*
X91660000Y-76650000D01*
X91660000Y-74828061D01*
X148063000Y-74828061D01*
X148063000Y-75031939D01*
X148102774Y-75231898D01*
X148180795Y-75420256D01*
X148294063Y-75589774D01*
X148438226Y-75733937D01*
X148607744Y-75847205D01*
X148796102Y-75925226D01*
X148996061Y-75965000D01*
X149199939Y-75965000D01*
X149399898Y-75925226D01*
X149588256Y-75847205D01*
X149757774Y-75733937D01*
X149801711Y-75690000D01*
X161094289Y-75690000D01*
X161138226Y-75733937D01*
X161307744Y-75847205D01*
X161496102Y-75925226D01*
X161696061Y-75965000D01*
X161899939Y-75965000D01*
X162099898Y-75925226D01*
X162288256Y-75847205D01*
X162457774Y-75733937D01*
X162601937Y-75589774D01*
X162715205Y-75420256D01*
X162793226Y-75231898D01*
X162833000Y-75031939D01*
X162833000Y-74828061D01*
X162793226Y-74628102D01*
X162715205Y-74439744D01*
X162601937Y-74270226D01*
X162457774Y-74126063D01*
X162288256Y-74012795D01*
X162099898Y-73934774D01*
X161899939Y-73895000D01*
X161696061Y-73895000D01*
X161529961Y-73928039D01*
X161542767Y-73863658D01*
X177615700Y-73863658D01*
X177615700Y-74136342D01*
X177668898Y-74403785D01*
X177773249Y-74655712D01*
X177924744Y-74882440D01*
X178117560Y-75075256D01*
X178344288Y-75226751D01*
X178596215Y-75331102D01*
X178863658Y-75384300D01*
X179136342Y-75384300D01*
X179403785Y-75331102D01*
X179655712Y-75226751D01*
X179882440Y-75075256D01*
X180075256Y-74882440D01*
X180226751Y-74655712D01*
X180331102Y-74403785D01*
X180384300Y-74136342D01*
X180384300Y-73863658D01*
X180331102Y-73596215D01*
X180226751Y-73344288D01*
X180075256Y-73117560D01*
X179882440Y-72924744D01*
X179655712Y-72773249D01*
X179403785Y-72668898D01*
X179136342Y-72615700D01*
X178863658Y-72615700D01*
X178596215Y-72668898D01*
X178344288Y-72773249D01*
X178117560Y-72924744D01*
X177924744Y-73117560D01*
X177773249Y-73344288D01*
X177668898Y-73596215D01*
X177615700Y-73863658D01*
X161542767Y-73863658D01*
X161563000Y-73761939D01*
X161563000Y-73558061D01*
X161523226Y-73358102D01*
X161445205Y-73169744D01*
X161432013Y-73150000D01*
X162364289Y-73150000D01*
X162408226Y-73193937D01*
X162577744Y-73307205D01*
X162766102Y-73385226D01*
X162966061Y-73425000D01*
X163169939Y-73425000D01*
X163369898Y-73385226D01*
X163558256Y-73307205D01*
X163727774Y-73193937D01*
X163871937Y-73049774D01*
X163985205Y-72880256D01*
X164063226Y-72691898D01*
X164103000Y-72491939D01*
X164103000Y-72288061D01*
X164063226Y-72088102D01*
X164024523Y-71994665D01*
X185763000Y-71994665D01*
X185763000Y-72277335D01*
X185818147Y-72554574D01*
X185926320Y-72815727D01*
X186083363Y-73050759D01*
X186283241Y-73250637D01*
X186518273Y-73407680D01*
X186779426Y-73515853D01*
X187056665Y-73571000D01*
X187339335Y-73571000D01*
X187616574Y-73515853D01*
X187877727Y-73407680D01*
X188112759Y-73250637D01*
X188312637Y-73050759D01*
X188469680Y-72815727D01*
X188577853Y-72554574D01*
X188633000Y-72277335D01*
X188633000Y-71994665D01*
X188577853Y-71717426D01*
X188469680Y-71456273D01*
X188312637Y-71221241D01*
X188112759Y-71021363D01*
X187877727Y-70864320D01*
X187616574Y-70756147D01*
X187339335Y-70701000D01*
X187056665Y-70701000D01*
X186779426Y-70756147D01*
X186518273Y-70864320D01*
X186283241Y-71021363D01*
X186083363Y-71221241D01*
X185926320Y-71456273D01*
X185818147Y-71717426D01*
X185763000Y-71994665D01*
X164024523Y-71994665D01*
X163985205Y-71899744D01*
X163871937Y-71730226D01*
X163727774Y-71586063D01*
X163558256Y-71472795D01*
X163369898Y-71394774D01*
X163169939Y-71355000D01*
X162966061Y-71355000D01*
X162766102Y-71394774D01*
X162577744Y-71472795D01*
X162408226Y-71586063D01*
X162364289Y-71630000D01*
X158691711Y-71630000D01*
X158647774Y-71586063D01*
X158478256Y-71472795D01*
X158289898Y-71394774D01*
X158089939Y-71355000D01*
X157886061Y-71355000D01*
X157686102Y-71394774D01*
X157497744Y-71472795D01*
X157328226Y-71586063D01*
X157184063Y-71730226D01*
X157070795Y-71899744D01*
X156992774Y-72088102D01*
X156953000Y-72288061D01*
X156953000Y-72491939D01*
X156992774Y-72691898D01*
X157070795Y-72880256D01*
X157083987Y-72900000D01*
X151071711Y-72900000D01*
X151027774Y-72856063D01*
X150858256Y-72742795D01*
X150669898Y-72664774D01*
X150469939Y-72625000D01*
X150266061Y-72625000D01*
X150066102Y-72664774D01*
X149877744Y-72742795D01*
X149708226Y-72856063D01*
X149564063Y-73000226D01*
X149450795Y-73169744D01*
X149372774Y-73358102D01*
X149333000Y-73558061D01*
X149333000Y-73761939D01*
X149366039Y-73928039D01*
X149199939Y-73895000D01*
X148996061Y-73895000D01*
X148796102Y-73934774D01*
X148607744Y-74012795D01*
X148438226Y-74126063D01*
X148294063Y-74270226D01*
X148180795Y-74439744D01*
X148102774Y-74628102D01*
X148063000Y-74828061D01*
X91660000Y-74828061D01*
X91660000Y-71289721D01*
X113365000Y-71289721D01*
X113365000Y-71710279D01*
X113447047Y-72122756D01*
X113607988Y-72511302D01*
X113841637Y-72860983D01*
X114139017Y-73158363D01*
X114488698Y-73392012D01*
X114877244Y-73552953D01*
X115289721Y-73635000D01*
X115710279Y-73635000D01*
X116122756Y-73552953D01*
X116511302Y-73392012D01*
X116860983Y-73158363D01*
X117158363Y-72860983D01*
X117392012Y-72511302D01*
X117552953Y-72122756D01*
X117635000Y-71710279D01*
X117635000Y-71289721D01*
X117552953Y-70877244D01*
X117392012Y-70488698D01*
X117193222Y-70191186D01*
X128705677Y-70191186D01*
X128798031Y-70446504D01*
X128938421Y-70678899D01*
X129121451Y-70879440D01*
X129340088Y-71040420D01*
X129585930Y-71155653D01*
X129706815Y-71192318D01*
X129921000Y-71069656D01*
X129921000Y-69977000D01*
X130175000Y-69977000D01*
X130175000Y-71069656D01*
X130389185Y-71192318D01*
X130510070Y-71155653D01*
X130755912Y-71040420D01*
X130974549Y-70879440D01*
X131157579Y-70678899D01*
X131297969Y-70446504D01*
X131390323Y-70191186D01*
X131268420Y-69977000D01*
X130175000Y-69977000D01*
X129921000Y-69977000D01*
X128827580Y-69977000D01*
X128705677Y-70191186D01*
X117193222Y-70191186D01*
X117158363Y-70139017D01*
X116860983Y-69841637D01*
X116511302Y-69607988D01*
X116271875Y-69508814D01*
X128705677Y-69508814D01*
X128827580Y-69723000D01*
X129921000Y-69723000D01*
X129921000Y-68630344D01*
X130175000Y-68630344D01*
X130175000Y-69723000D01*
X131268420Y-69723000D01*
X131276578Y-69708665D01*
X146393000Y-69708665D01*
X146393000Y-69991335D01*
X146448147Y-70268574D01*
X146556320Y-70529727D01*
X146713363Y-70764759D01*
X146913241Y-70964637D01*
X147148273Y-71121680D01*
X147409426Y-71229853D01*
X147686665Y-71285000D01*
X147969335Y-71285000D01*
X148246574Y-71229853D01*
X148507727Y-71121680D01*
X148742759Y-70964637D01*
X148942637Y-70764759D01*
X149098000Y-70532241D01*
X149253363Y-70764759D01*
X149453241Y-70964637D01*
X149688273Y-71121680D01*
X149949426Y-71229853D01*
X150226665Y-71285000D01*
X150509335Y-71285000D01*
X150786574Y-71229853D01*
X151047727Y-71121680D01*
X151282759Y-70964637D01*
X151482637Y-70764759D01*
X151638000Y-70532241D01*
X151793363Y-70764759D01*
X151993241Y-70964637D01*
X152228273Y-71121680D01*
X152489426Y-71229853D01*
X152766665Y-71285000D01*
X153049335Y-71285000D01*
X153326574Y-71229853D01*
X153587727Y-71121680D01*
X153822759Y-70964637D01*
X154022637Y-70764759D01*
X154179680Y-70529727D01*
X154184067Y-70519135D01*
X154295615Y-70705131D01*
X154484586Y-70913519D01*
X154710580Y-71081037D01*
X154964913Y-71201246D01*
X155098961Y-71241904D01*
X155321000Y-71119915D01*
X155321000Y-69977000D01*
X155575000Y-69977000D01*
X155575000Y-71119915D01*
X155797039Y-71241904D01*
X155931087Y-71201246D01*
X156185420Y-71081037D01*
X156411414Y-70913519D01*
X156600385Y-70705131D01*
X156718000Y-70509018D01*
X156835615Y-70705131D01*
X157024586Y-70913519D01*
X157250580Y-71081037D01*
X157504913Y-71201246D01*
X157638961Y-71241904D01*
X157861000Y-71119915D01*
X157861000Y-69977000D01*
X155575000Y-69977000D01*
X155321000Y-69977000D01*
X155301000Y-69977000D01*
X155301000Y-69723000D01*
X155321000Y-69723000D01*
X155321000Y-68580085D01*
X155575000Y-68580085D01*
X155575000Y-69723000D01*
X157861000Y-69723000D01*
X157861000Y-68580085D01*
X158115000Y-68580085D01*
X158115000Y-69723000D01*
X158135000Y-69723000D01*
X158135000Y-69977000D01*
X158115000Y-69977000D01*
X158115000Y-71119915D01*
X158337039Y-71241904D01*
X158471087Y-71201246D01*
X158725420Y-71081037D01*
X158951414Y-70913519D01*
X159140385Y-70705131D01*
X159251933Y-70519135D01*
X159256320Y-70529727D01*
X159413363Y-70764759D01*
X159613241Y-70964637D01*
X159848273Y-71121680D01*
X160109426Y-71229853D01*
X160386665Y-71285000D01*
X160669335Y-71285000D01*
X160946574Y-71229853D01*
X161207727Y-71121680D01*
X161442759Y-70964637D01*
X161642637Y-70764759D01*
X161798000Y-70532241D01*
X161953363Y-70764759D01*
X162153241Y-70964637D01*
X162388273Y-71121680D01*
X162649426Y-71229853D01*
X162926665Y-71285000D01*
X163209335Y-71285000D01*
X163486574Y-71229853D01*
X163747727Y-71121680D01*
X163982759Y-70964637D01*
X164182637Y-70764759D01*
X164338000Y-70532241D01*
X164493363Y-70764759D01*
X164693241Y-70964637D01*
X164928273Y-71121680D01*
X165189426Y-71229853D01*
X165466665Y-71285000D01*
X165749335Y-71285000D01*
X166026574Y-71229853D01*
X166287727Y-71121680D01*
X166522759Y-70964637D01*
X166722637Y-70764759D01*
X166879680Y-70529727D01*
X166987853Y-70268574D01*
X167043000Y-69991335D01*
X167043000Y-69708665D01*
X166987853Y-69431426D01*
X166879680Y-69170273D01*
X166722637Y-68935241D01*
X166522759Y-68735363D01*
X166287727Y-68578320D01*
X166026574Y-68470147D01*
X165749335Y-68415000D01*
X165466665Y-68415000D01*
X165189426Y-68470147D01*
X164928273Y-68578320D01*
X164693241Y-68735363D01*
X164493363Y-68935241D01*
X164338000Y-69167759D01*
X164182637Y-68935241D01*
X163982759Y-68735363D01*
X163747727Y-68578320D01*
X163486574Y-68470147D01*
X163209335Y-68415000D01*
X162926665Y-68415000D01*
X162649426Y-68470147D01*
X162388273Y-68578320D01*
X162153241Y-68735363D01*
X161953363Y-68935241D01*
X161798000Y-69167759D01*
X161642637Y-68935241D01*
X161442759Y-68735363D01*
X161207727Y-68578320D01*
X160946574Y-68470147D01*
X160669335Y-68415000D01*
X160386665Y-68415000D01*
X160109426Y-68470147D01*
X159848273Y-68578320D01*
X159613241Y-68735363D01*
X159413363Y-68935241D01*
X159256320Y-69170273D01*
X159251933Y-69180865D01*
X159140385Y-68994869D01*
X158951414Y-68786481D01*
X158725420Y-68618963D01*
X158471087Y-68498754D01*
X158337039Y-68458096D01*
X158115000Y-68580085D01*
X157861000Y-68580085D01*
X157638961Y-68458096D01*
X157504913Y-68498754D01*
X157250580Y-68618963D01*
X157024586Y-68786481D01*
X156835615Y-68994869D01*
X156718000Y-69190982D01*
X156600385Y-68994869D01*
X156411414Y-68786481D01*
X156185420Y-68618963D01*
X155931087Y-68498754D01*
X155797039Y-68458096D01*
X155575000Y-68580085D01*
X155321000Y-68580085D01*
X155098961Y-68458096D01*
X154964913Y-68498754D01*
X154710580Y-68618963D01*
X154484586Y-68786481D01*
X154295615Y-68994869D01*
X154184067Y-69180865D01*
X154179680Y-69170273D01*
X154022637Y-68935241D01*
X153822759Y-68735363D01*
X153587727Y-68578320D01*
X153326574Y-68470147D01*
X153049335Y-68415000D01*
X152766665Y-68415000D01*
X152489426Y-68470147D01*
X152228273Y-68578320D01*
X151993241Y-68735363D01*
X151793363Y-68935241D01*
X151638000Y-69167759D01*
X151482637Y-68935241D01*
X151282759Y-68735363D01*
X151047727Y-68578320D01*
X150786574Y-68470147D01*
X150509335Y-68415000D01*
X150226665Y-68415000D01*
X149949426Y-68470147D01*
X149688273Y-68578320D01*
X149453241Y-68735363D01*
X149253363Y-68935241D01*
X149098000Y-69167759D01*
X148942637Y-68935241D01*
X148742759Y-68735363D01*
X148588000Y-68631957D01*
X148588000Y-67624801D01*
X148980712Y-67232089D01*
X177057516Y-67232089D01*
X177105218Y-67456004D01*
X177327141Y-67557218D01*
X177564545Y-67613191D01*
X177783196Y-67620891D01*
X177761750Y-67728703D01*
X177761750Y-67972617D01*
X177809336Y-68211844D01*
X177902677Y-68437191D01*
X178038189Y-68639998D01*
X178210662Y-68812471D01*
X178413469Y-68947983D01*
X178638816Y-69041324D01*
X178878043Y-69088910D01*
X179121957Y-69088910D01*
X179361184Y-69041324D01*
X179586531Y-68947983D01*
X179789338Y-68812471D01*
X179961811Y-68639998D01*
X180097323Y-68437191D01*
X180190664Y-68211844D01*
X180238250Y-67972617D01*
X180238250Y-67728703D01*
X180220321Y-67638570D01*
X180419897Y-67638570D01*
X180659124Y-67590984D01*
X180884471Y-67497643D01*
X181087278Y-67362131D01*
X181259751Y-67189658D01*
X181395263Y-66986851D01*
X181488604Y-66761504D01*
X181536190Y-66522277D01*
X181536190Y-66278363D01*
X181488604Y-66039136D01*
X181395263Y-65813789D01*
X181259751Y-65610982D01*
X181087278Y-65438509D01*
X180884471Y-65302997D01*
X180659124Y-65209656D01*
X180419897Y-65162070D01*
X180175983Y-65162070D01*
X179936756Y-65209656D01*
X179711409Y-65302997D01*
X179508602Y-65438509D01*
X179336129Y-65610982D01*
X179200617Y-65813789D01*
X179107276Y-66039136D01*
X179059690Y-66278363D01*
X179059690Y-66522277D01*
X179077619Y-66612410D01*
X178947405Y-66612410D01*
X178963191Y-66545455D01*
X178971775Y-66301691D01*
X178932637Y-66060938D01*
X178847283Y-65832446D01*
X178806004Y-65755218D01*
X178582089Y-65707516D01*
X177909605Y-66380000D01*
X177923748Y-66394143D01*
X177744143Y-66573748D01*
X177730000Y-66559605D01*
X177057516Y-67232089D01*
X148980712Y-67232089D01*
X149412802Y-66800000D01*
X164300678Y-66800000D01*
X164338000Y-66803676D01*
X164375322Y-66800000D01*
X164375333Y-66800000D01*
X164486986Y-66789003D01*
X164630247Y-66745546D01*
X164762276Y-66674974D01*
X164878001Y-66580001D01*
X164901804Y-66550997D01*
X164994492Y-66458309D01*
X176488225Y-66458309D01*
X176527363Y-66699062D01*
X176612717Y-66927554D01*
X176653996Y-67004782D01*
X176877911Y-67052484D01*
X177550395Y-66380000D01*
X176877911Y-65707516D01*
X176653996Y-65755218D01*
X176552782Y-65977141D01*
X176496809Y-66214545D01*
X176488225Y-66458309D01*
X164994492Y-66458309D01*
X165924890Y-65527911D01*
X177057516Y-65527911D01*
X177730000Y-66200395D01*
X178402484Y-65527911D01*
X178354782Y-65303996D01*
X178132859Y-65202782D01*
X177895455Y-65146809D01*
X177651691Y-65138225D01*
X177410938Y-65177363D01*
X177182446Y-65262717D01*
X177105218Y-65303996D01*
X177057516Y-65527911D01*
X165924890Y-65527911D01*
X166119004Y-65333798D01*
X166148001Y-65310001D01*
X166242974Y-65194276D01*
X166313546Y-65062247D01*
X166357003Y-64918986D01*
X166368000Y-64807333D01*
X166368000Y-64807324D01*
X166371676Y-64770001D01*
X166368000Y-64732678D01*
X166368000Y-63668072D01*
X166408000Y-63668072D01*
X166532482Y-63655812D01*
X166652180Y-63619502D01*
X166762494Y-63560537D01*
X166859185Y-63481185D01*
X166938537Y-63384494D01*
X166997502Y-63274180D01*
X167033812Y-63154482D01*
X167046072Y-63030000D01*
X167046072Y-62436702D01*
X176936903Y-62436702D01*
X177008486Y-62680671D01*
X177263996Y-62801571D01*
X177538184Y-62870300D01*
X177820512Y-62884217D01*
X178100130Y-62842787D01*
X178366292Y-62747603D01*
X178491514Y-62680671D01*
X178563097Y-62436702D01*
X177750000Y-61623605D01*
X176936903Y-62436702D01*
X167046072Y-62436702D01*
X167046072Y-61514512D01*
X176309783Y-61514512D01*
X176351213Y-61794130D01*
X176446397Y-62060292D01*
X176513329Y-62185514D01*
X176757298Y-62257097D01*
X177570395Y-61444000D01*
X177929605Y-61444000D01*
X178742702Y-62257097D01*
X178986671Y-62185514D01*
X179000324Y-62156659D01*
X179135363Y-62358759D01*
X179335241Y-62558637D01*
X179570273Y-62715680D01*
X179831426Y-62823853D01*
X180108665Y-62879000D01*
X180391335Y-62879000D01*
X180668574Y-62823853D01*
X180929727Y-62715680D01*
X181164759Y-62558637D01*
X181364637Y-62358759D01*
X181521680Y-62123727D01*
X181629853Y-61862574D01*
X181685000Y-61585335D01*
X181685000Y-61302665D01*
X181629853Y-61025426D01*
X181521680Y-60764273D01*
X181364637Y-60529241D01*
X181164759Y-60329363D01*
X180929727Y-60172320D01*
X180668574Y-60064147D01*
X180391335Y-60009000D01*
X180108665Y-60009000D01*
X179831426Y-60064147D01*
X179570273Y-60172320D01*
X179335241Y-60329363D01*
X179135363Y-60529241D01*
X179001308Y-60729869D01*
X178986671Y-60702486D01*
X178742702Y-60630903D01*
X177929605Y-61444000D01*
X177570395Y-61444000D01*
X176757298Y-60630903D01*
X176513329Y-60702486D01*
X176392429Y-60957996D01*
X176323700Y-61232184D01*
X176309783Y-61514512D01*
X167046072Y-61514512D01*
X167046072Y-61430000D01*
X167033812Y-61305518D01*
X166997502Y-61185820D01*
X166938537Y-61075506D01*
X166859185Y-60978815D01*
X166762494Y-60899463D01*
X166652180Y-60840498D01*
X166532482Y-60804188D01*
X166408000Y-60791928D01*
X164808000Y-60791928D01*
X164683518Y-60804188D01*
X164563820Y-60840498D01*
X164453506Y-60899463D01*
X164356815Y-60978815D01*
X164277463Y-61075506D01*
X164218498Y-61185820D01*
X164182188Y-61305518D01*
X164181357Y-61313961D01*
X163982759Y-61115363D01*
X163747727Y-60958320D01*
X163486574Y-60850147D01*
X163209335Y-60795000D01*
X162926665Y-60795000D01*
X162649426Y-60850147D01*
X162388273Y-60958320D01*
X162153241Y-61115363D01*
X161953363Y-61315241D01*
X161798000Y-61547759D01*
X161642637Y-61315241D01*
X161442759Y-61115363D01*
X161207727Y-60958320D01*
X160946574Y-60850147D01*
X160669335Y-60795000D01*
X160386665Y-60795000D01*
X160109426Y-60850147D01*
X159848273Y-60958320D01*
X159613241Y-61115363D01*
X159413363Y-61315241D01*
X159256320Y-61550273D01*
X159251933Y-61560865D01*
X159140385Y-61374869D01*
X158951414Y-61166481D01*
X158725420Y-60998963D01*
X158471087Y-60878754D01*
X158337039Y-60838096D01*
X158115000Y-60960085D01*
X158115000Y-62103000D01*
X158135000Y-62103000D01*
X158135000Y-62357000D01*
X158115000Y-62357000D01*
X158115000Y-63499915D01*
X158337039Y-63621904D01*
X158471087Y-63581246D01*
X158725420Y-63461037D01*
X158951414Y-63293519D01*
X159140385Y-63085131D01*
X159251933Y-62899135D01*
X159256320Y-62909727D01*
X159413363Y-63144759D01*
X159613241Y-63344637D01*
X159848273Y-63501680D01*
X160109426Y-63609853D01*
X160386665Y-63665000D01*
X160669335Y-63665000D01*
X160946574Y-63609853D01*
X161207727Y-63501680D01*
X161442759Y-63344637D01*
X161642637Y-63144759D01*
X161798000Y-62912241D01*
X161953363Y-63144759D01*
X162153241Y-63344637D01*
X162388273Y-63501680D01*
X162649426Y-63609853D01*
X162926665Y-63665000D01*
X163209335Y-63665000D01*
X163486574Y-63609853D01*
X163747727Y-63501680D01*
X163982759Y-63344637D01*
X164181357Y-63146039D01*
X164182188Y-63154482D01*
X164218498Y-63274180D01*
X164277463Y-63384494D01*
X164356815Y-63481185D01*
X164453506Y-63560537D01*
X164563820Y-63619502D01*
X164683518Y-63655812D01*
X164808000Y-63668072D01*
X164848000Y-63668072D01*
X164848000Y-64455198D01*
X164023199Y-65280000D01*
X149135322Y-65280000D01*
X149097999Y-65276324D01*
X149060676Y-65280000D01*
X149060667Y-65280000D01*
X148949014Y-65290997D01*
X148805753Y-65334454D01*
X148673724Y-65405026D01*
X148557999Y-65499999D01*
X148534201Y-65528997D01*
X147316998Y-66746201D01*
X147288000Y-66769999D01*
X147264202Y-66798997D01*
X147264201Y-66798998D01*
X147193026Y-66885724D01*
X147122454Y-67017754D01*
X147106486Y-67070395D01*
X147078998Y-67161014D01*
X147076177Y-67189658D01*
X147064324Y-67310000D01*
X147068001Y-67347332D01*
X147068000Y-68631956D01*
X146913241Y-68735363D01*
X146713363Y-68935241D01*
X146556320Y-69170273D01*
X146448147Y-69431426D01*
X146393000Y-69708665D01*
X131276578Y-69708665D01*
X131390323Y-69508814D01*
X131297969Y-69253496D01*
X131157579Y-69021101D01*
X130974549Y-68820560D01*
X130755912Y-68659580D01*
X130510070Y-68544347D01*
X130389185Y-68507682D01*
X130175000Y-68630344D01*
X129921000Y-68630344D01*
X129706815Y-68507682D01*
X129585930Y-68544347D01*
X129340088Y-68659580D01*
X129121451Y-68820560D01*
X128938421Y-69021101D01*
X128798031Y-69253496D01*
X128705677Y-69508814D01*
X116271875Y-69508814D01*
X116122756Y-69447047D01*
X115710279Y-69365000D01*
X115289721Y-69365000D01*
X114877244Y-69447047D01*
X114488698Y-69607988D01*
X114139017Y-69841637D01*
X113841637Y-70139017D01*
X113607988Y-70488698D01*
X113447047Y-70877244D01*
X113365000Y-71289721D01*
X91660000Y-71289721D01*
X91660000Y-68242702D01*
X140186903Y-68242702D01*
X140258486Y-68486671D01*
X140513996Y-68607571D01*
X140788184Y-68676300D01*
X141070512Y-68690217D01*
X141350130Y-68648787D01*
X141616292Y-68553603D01*
X141741514Y-68486671D01*
X141813097Y-68242702D01*
X141000000Y-67429605D01*
X140186903Y-68242702D01*
X91660000Y-68242702D01*
X91660000Y-67320512D01*
X139559783Y-67320512D01*
X139601213Y-67600130D01*
X139696397Y-67866292D01*
X139763329Y-67991514D01*
X140007298Y-68063097D01*
X140820395Y-67250000D01*
X141179605Y-67250000D01*
X141992702Y-68063097D01*
X142236671Y-67991514D01*
X142357571Y-67736004D01*
X142426300Y-67461816D01*
X142440217Y-67179488D01*
X142398787Y-66899870D01*
X142303603Y-66633708D01*
X142236671Y-66508486D01*
X141992702Y-66436903D01*
X141179605Y-67250000D01*
X140820395Y-67250000D01*
X140007298Y-66436903D01*
X139763329Y-66508486D01*
X139642429Y-66763996D01*
X139573700Y-67038184D01*
X139559783Y-67320512D01*
X91660000Y-67320512D01*
X91660000Y-66257298D01*
X140186903Y-66257298D01*
X141000000Y-67070395D01*
X141813097Y-66257298D01*
X141741514Y-66013329D01*
X141486004Y-65892429D01*
X141211816Y-65823700D01*
X140929488Y-65809783D01*
X140649870Y-65851213D01*
X140383708Y-65946397D01*
X140258486Y-66013329D01*
X140186903Y-66257298D01*
X91660000Y-66257298D01*
X91660000Y-62088665D01*
X104483000Y-62088665D01*
X104483000Y-62371335D01*
X104538147Y-62648574D01*
X104646320Y-62909727D01*
X104803363Y-63144759D01*
X105003241Y-63344637D01*
X105238273Y-63501680D01*
X105499426Y-63609853D01*
X105776665Y-63665000D01*
X106059335Y-63665000D01*
X106310699Y-63615000D01*
X129266808Y-63615000D01*
X129298000Y-63618072D01*
X130798000Y-63618072D01*
X130829192Y-63615000D01*
X140545568Y-63615000D01*
X140581426Y-63629853D01*
X140858665Y-63685000D01*
X141141335Y-63685000D01*
X141418574Y-63629853D01*
X141454432Y-63615000D01*
X147435301Y-63615000D01*
X147686665Y-63665000D01*
X147969335Y-63665000D01*
X148246574Y-63609853D01*
X148507727Y-63501680D01*
X148742759Y-63344637D01*
X148942637Y-63144759D01*
X149098000Y-62912241D01*
X149253363Y-63144759D01*
X149453241Y-63344637D01*
X149688273Y-63501680D01*
X149949426Y-63609853D01*
X150226665Y-63665000D01*
X150509335Y-63665000D01*
X150786574Y-63609853D01*
X151047727Y-63501680D01*
X151282759Y-63344637D01*
X151482637Y-63144759D01*
X151638000Y-62912241D01*
X151793363Y-63144759D01*
X151993241Y-63344637D01*
X152228273Y-63501680D01*
X152489426Y-63609853D01*
X152766665Y-63665000D01*
X153049335Y-63665000D01*
X153326574Y-63609853D01*
X153587727Y-63501680D01*
X153822759Y-63344637D01*
X154022637Y-63144759D01*
X154179680Y-62909727D01*
X154184067Y-62899135D01*
X154295615Y-63085131D01*
X154484586Y-63293519D01*
X154710580Y-63461037D01*
X154964913Y-63581246D01*
X155098961Y-63621904D01*
X155321000Y-63499915D01*
X155321000Y-62357000D01*
X155575000Y-62357000D01*
X155575000Y-63499915D01*
X155797039Y-63621904D01*
X155931087Y-63581246D01*
X156185420Y-63461037D01*
X156411414Y-63293519D01*
X156600385Y-63085131D01*
X156718000Y-62889018D01*
X156835615Y-63085131D01*
X157024586Y-63293519D01*
X157250580Y-63461037D01*
X157504913Y-63581246D01*
X157638961Y-63621904D01*
X157861000Y-63499915D01*
X157861000Y-62357000D01*
X155575000Y-62357000D01*
X155321000Y-62357000D01*
X155301000Y-62357000D01*
X155301000Y-62103000D01*
X155321000Y-62103000D01*
X155321000Y-60960085D01*
X155575000Y-60960085D01*
X155575000Y-62103000D01*
X157861000Y-62103000D01*
X157861000Y-60960085D01*
X157638961Y-60838096D01*
X157504913Y-60878754D01*
X157250580Y-60998963D01*
X157024586Y-61166481D01*
X156835615Y-61374869D01*
X156718000Y-61570982D01*
X156600385Y-61374869D01*
X156411414Y-61166481D01*
X156185420Y-60998963D01*
X155931087Y-60878754D01*
X155797039Y-60838096D01*
X155575000Y-60960085D01*
X155321000Y-60960085D01*
X155098961Y-60838096D01*
X154964913Y-60878754D01*
X154710580Y-60998963D01*
X154484586Y-61166481D01*
X154295615Y-61374869D01*
X154184067Y-61560865D01*
X154179680Y-61550273D01*
X154022637Y-61315241D01*
X153822759Y-61115363D01*
X153587727Y-60958320D01*
X153326574Y-60850147D01*
X153049335Y-60795000D01*
X152766665Y-60795000D01*
X152489426Y-60850147D01*
X152228273Y-60958320D01*
X151993241Y-61115363D01*
X151793363Y-61315241D01*
X151638000Y-61547759D01*
X151482637Y-61315241D01*
X151282759Y-61115363D01*
X151047727Y-60958320D01*
X150786574Y-60850147D01*
X150509335Y-60795000D01*
X150226665Y-60795000D01*
X149949426Y-60850147D01*
X149688273Y-60958320D01*
X149453241Y-61115363D01*
X149253363Y-61315241D01*
X149098000Y-61547759D01*
X148942637Y-61315241D01*
X148742759Y-61115363D01*
X148507727Y-60958320D01*
X148246574Y-60850147D01*
X147969335Y-60795000D01*
X147686665Y-60795000D01*
X147435301Y-60845000D01*
X141292153Y-60845000D01*
X141141335Y-60815000D01*
X140858665Y-60815000D01*
X140707847Y-60845000D01*
X130829192Y-60845000D01*
X130798000Y-60841928D01*
X129298000Y-60841928D01*
X129266808Y-60845000D01*
X106310699Y-60845000D01*
X106059335Y-60795000D01*
X105776665Y-60795000D01*
X105499426Y-60850147D01*
X105238273Y-60958320D01*
X105003241Y-61115363D01*
X104803363Y-61315241D01*
X104646320Y-61550273D01*
X104538147Y-61811426D01*
X104483000Y-62088665D01*
X91660000Y-62088665D01*
X91660000Y-60451298D01*
X176936903Y-60451298D01*
X177750000Y-61264395D01*
X178563097Y-60451298D01*
X178491514Y-60207329D01*
X178236004Y-60086429D01*
X177961816Y-60017700D01*
X177679488Y-60003783D01*
X177399870Y-60045213D01*
X177133708Y-60140397D01*
X177008486Y-60207329D01*
X176936903Y-60451298D01*
X91660000Y-60451298D01*
X91660000Y-54508061D01*
X150603000Y-54508061D01*
X150603000Y-54711939D01*
X150642774Y-54911898D01*
X150720795Y-55100256D01*
X150834063Y-55269774D01*
X150978226Y-55413937D01*
X151147744Y-55527205D01*
X151336102Y-55605226D01*
X151536061Y-55645000D01*
X151739939Y-55645000D01*
X151906039Y-55611961D01*
X151873000Y-55778061D01*
X151873000Y-55981939D01*
X151912774Y-56181898D01*
X151990795Y-56370256D01*
X152104063Y-56539774D01*
X152248226Y-56683937D01*
X152417744Y-56797205D01*
X152606102Y-56875226D01*
X152806061Y-56915000D01*
X153009939Y-56915000D01*
X153209898Y-56875226D01*
X153398256Y-56797205D01*
X153567774Y-56683937D01*
X153611711Y-56640000D01*
X159623987Y-56640000D01*
X159610795Y-56659744D01*
X159532774Y-56848102D01*
X159493000Y-57048061D01*
X159493000Y-57251939D01*
X159532774Y-57451898D01*
X159610795Y-57640256D01*
X159724063Y-57809774D01*
X159868226Y-57953937D01*
X160037744Y-58067205D01*
X160226102Y-58145226D01*
X160426061Y-58185000D01*
X160629939Y-58185000D01*
X160796039Y-58151961D01*
X160763000Y-58318061D01*
X160763000Y-58521939D01*
X160802774Y-58721898D01*
X160880795Y-58910256D01*
X160994063Y-59079774D01*
X161138226Y-59223937D01*
X161307744Y-59337205D01*
X161496102Y-59415226D01*
X161696061Y-59455000D01*
X161899939Y-59455000D01*
X162099898Y-59415226D01*
X162288256Y-59337205D01*
X162457774Y-59223937D01*
X162501711Y-59180000D01*
X164904289Y-59180000D01*
X164948226Y-59223937D01*
X165117744Y-59337205D01*
X165306102Y-59415226D01*
X165506061Y-59455000D01*
X165709939Y-59455000D01*
X165909898Y-59415226D01*
X166098256Y-59337205D01*
X166267774Y-59223937D01*
X166411937Y-59079774D01*
X166525205Y-58910256D01*
X166550164Y-58850000D01*
X190386928Y-58850000D01*
X190399188Y-58974482D01*
X190435498Y-59094180D01*
X190494463Y-59204494D01*
X190573815Y-59301185D01*
X190670506Y-59380537D01*
X190780820Y-59439502D01*
X190900518Y-59475812D01*
X191025000Y-59488072D01*
X191714250Y-59485000D01*
X191873000Y-59326250D01*
X191873000Y-58127000D01*
X192127000Y-58127000D01*
X192127000Y-59326250D01*
X192285750Y-59485000D01*
X192975000Y-59488072D01*
X193099482Y-59475812D01*
X193219180Y-59439502D01*
X193329494Y-59380537D01*
X193426185Y-59301185D01*
X193505537Y-59204494D01*
X193564502Y-59094180D01*
X193600812Y-58974482D01*
X193613072Y-58850000D01*
X193610000Y-58285750D01*
X193451250Y-58127000D01*
X192127000Y-58127000D01*
X191873000Y-58127000D01*
X190548750Y-58127000D01*
X190390000Y-58285750D01*
X190386928Y-58850000D01*
X166550164Y-58850000D01*
X166603226Y-58721898D01*
X166643000Y-58521939D01*
X166643000Y-58318061D01*
X166603226Y-58118102D01*
X166525205Y-57929744D01*
X166512013Y-57910000D01*
X172524289Y-57910000D01*
X172568226Y-57953937D01*
X172737744Y-58067205D01*
X172926102Y-58145226D01*
X173126061Y-58185000D01*
X173329939Y-58185000D01*
X173529898Y-58145226D01*
X173718256Y-58067205D01*
X173887774Y-57953937D01*
X174031937Y-57809774D01*
X174145205Y-57640256D01*
X174223226Y-57451898D01*
X174263000Y-57251939D01*
X174263000Y-57048061D01*
X174223226Y-56848102D01*
X174145205Y-56659744D01*
X174031937Y-56490226D01*
X173887774Y-56346063D01*
X173718256Y-56232795D01*
X173529898Y-56154774D01*
X173329939Y-56115000D01*
X173126061Y-56115000D01*
X172926102Y-56154774D01*
X172737744Y-56232795D01*
X172568226Y-56346063D01*
X172524289Y-56390000D01*
X171592013Y-56390000D01*
X171605205Y-56370256D01*
X171683226Y-56181898D01*
X171723000Y-55981939D01*
X171723000Y-55778061D01*
X171683226Y-55578102D01*
X171605205Y-55389744D01*
X171491937Y-55220226D01*
X171347774Y-55076063D01*
X171178256Y-54962795D01*
X170989898Y-54884774D01*
X170789939Y-54845000D01*
X170586061Y-54845000D01*
X170386102Y-54884774D01*
X170197744Y-54962795D01*
X170028226Y-55076063D01*
X169984289Y-55120000D01*
X169052013Y-55120000D01*
X169065205Y-55100256D01*
X169143226Y-54911898D01*
X169183000Y-54711939D01*
X169183000Y-54508061D01*
X169143226Y-54308102D01*
X169065205Y-54119744D01*
X168951937Y-53950226D01*
X168807774Y-53806063D01*
X168638256Y-53692795D01*
X168449898Y-53614774D01*
X168249939Y-53575000D01*
X168046061Y-53575000D01*
X167846102Y-53614774D01*
X167657744Y-53692795D01*
X167488226Y-53806063D01*
X167444289Y-53850000D01*
X152341711Y-53850000D01*
X152297774Y-53806063D01*
X152128256Y-53692795D01*
X151939898Y-53614774D01*
X151739939Y-53575000D01*
X151536061Y-53575000D01*
X151336102Y-53614774D01*
X151147744Y-53692795D01*
X150978226Y-53806063D01*
X150834063Y-53950226D01*
X150720795Y-54119744D01*
X150642774Y-54308102D01*
X150603000Y-54508061D01*
X91660000Y-54508061D01*
X91660000Y-50500000D01*
X190382815Y-50500000D01*
X190411487Y-50791111D01*
X190496401Y-51071034D01*
X190634294Y-51329014D01*
X190819866Y-51555134D01*
X191045986Y-51740706D01*
X191063374Y-51750000D01*
X191045986Y-51759294D01*
X190819866Y-51944866D01*
X190634294Y-52170986D01*
X190496401Y-52428966D01*
X190411487Y-52708889D01*
X190382815Y-53000000D01*
X190411487Y-53291111D01*
X190496401Y-53571034D01*
X190634294Y-53829014D01*
X190819866Y-54055134D01*
X191045986Y-54240706D01*
X191063374Y-54250000D01*
X191045986Y-54259294D01*
X190819866Y-54444866D01*
X190634294Y-54670986D01*
X190496401Y-54928966D01*
X190411487Y-55208889D01*
X190382815Y-55500000D01*
X190411487Y-55791111D01*
X190496401Y-56071034D01*
X190634294Y-56329014D01*
X190815608Y-56549945D01*
X190780820Y-56560498D01*
X190670506Y-56619463D01*
X190573815Y-56698815D01*
X190494463Y-56795506D01*
X190435498Y-56905820D01*
X190399188Y-57025518D01*
X190386928Y-57150000D01*
X190390000Y-57714250D01*
X190548750Y-57873000D01*
X191873000Y-57873000D01*
X191873000Y-57853000D01*
X192127000Y-57853000D01*
X192127000Y-57873000D01*
X193451250Y-57873000D01*
X193610000Y-57714250D01*
X193613072Y-57150000D01*
X193600812Y-57025518D01*
X193564502Y-56905820D01*
X193505537Y-56795506D01*
X193426185Y-56698815D01*
X193329494Y-56619463D01*
X193219180Y-56560498D01*
X193184392Y-56549945D01*
X193365706Y-56329014D01*
X193503599Y-56071034D01*
X193588513Y-55791111D01*
X193617185Y-55500000D01*
X193588513Y-55208889D01*
X193503599Y-54928966D01*
X193365706Y-54670986D01*
X193180134Y-54444866D01*
X192954014Y-54259294D01*
X192936626Y-54250000D01*
X192954014Y-54240706D01*
X193180134Y-54055134D01*
X193365706Y-53829014D01*
X193503599Y-53571034D01*
X193588513Y-53291111D01*
X193617185Y-53000000D01*
X193588513Y-52708889D01*
X193503599Y-52428966D01*
X193365706Y-52170986D01*
X193180134Y-51944866D01*
X192954014Y-51759294D01*
X192936626Y-51750000D01*
X192954014Y-51740706D01*
X193180134Y-51555134D01*
X193365706Y-51329014D01*
X193503599Y-51071034D01*
X193588513Y-50791111D01*
X193617185Y-50500000D01*
X193588513Y-50208889D01*
X193503599Y-49928966D01*
X193365706Y-49670986D01*
X193180134Y-49444866D01*
X192954014Y-49259294D01*
X192696034Y-49121401D01*
X192416111Y-49036487D01*
X192197950Y-49015000D01*
X191802050Y-49015000D01*
X191583889Y-49036487D01*
X191303966Y-49121401D01*
X191045986Y-49259294D01*
X190819866Y-49444866D01*
X190634294Y-49670986D01*
X190496401Y-49928966D01*
X190411487Y-50208889D01*
X190382815Y-50500000D01*
X91660000Y-50500000D01*
X91660000Y-46802050D01*
X159243000Y-46802050D01*
X159243000Y-47197949D01*
X159264487Y-47416110D01*
X159349401Y-47696033D01*
X159487294Y-47954013D01*
X159672866Y-48180134D01*
X159898986Y-48365706D01*
X160156966Y-48503599D01*
X160436889Y-48588513D01*
X160728000Y-48617185D01*
X161019110Y-48588513D01*
X161299033Y-48503599D01*
X161557013Y-48365706D01*
X161783134Y-48180134D01*
X161968706Y-47954014D01*
X161978000Y-47936626D01*
X161987294Y-47954013D01*
X162172866Y-48180134D01*
X162398986Y-48365706D01*
X162656966Y-48503599D01*
X162936889Y-48588513D01*
X163228000Y-48617185D01*
X163519110Y-48588513D01*
X163799033Y-48503599D01*
X164057013Y-48365706D01*
X164283134Y-48180134D01*
X164468706Y-47954014D01*
X164478000Y-47936626D01*
X164487294Y-47954013D01*
X164672866Y-48180134D01*
X164898986Y-48365706D01*
X165156966Y-48503599D01*
X165436889Y-48588513D01*
X165728000Y-48617185D01*
X166019110Y-48588513D01*
X166299033Y-48503599D01*
X166557013Y-48365706D01*
X166783134Y-48180134D01*
X166968706Y-47954014D01*
X166978000Y-47936626D01*
X166987294Y-47954013D01*
X167172866Y-48180134D01*
X167398986Y-48365706D01*
X167656966Y-48503599D01*
X167936889Y-48588513D01*
X168228000Y-48617185D01*
X168519110Y-48588513D01*
X168799033Y-48503599D01*
X169057013Y-48365706D01*
X169283134Y-48180134D01*
X169468706Y-47954014D01*
X169478000Y-47936626D01*
X169487294Y-47954013D01*
X169672866Y-48180134D01*
X169898986Y-48365706D01*
X170156966Y-48503599D01*
X170436889Y-48588513D01*
X170728000Y-48617185D01*
X171019110Y-48588513D01*
X171299033Y-48503599D01*
X171557013Y-48365706D01*
X171783134Y-48180134D01*
X171835223Y-48116663D01*
X171889595Y-48218386D01*
X172000038Y-48352962D01*
X172134614Y-48463405D01*
X172288150Y-48545472D01*
X172454746Y-48596008D01*
X172628000Y-48613072D01*
X173828000Y-48613072D01*
X174001254Y-48596008D01*
X174167850Y-48545472D01*
X174321386Y-48463405D01*
X174455962Y-48352962D01*
X174566405Y-48218386D01*
X174648472Y-48064850D01*
X174699008Y-47898254D01*
X174716072Y-47725000D01*
X174716072Y-46275000D01*
X174699008Y-46101746D01*
X174648472Y-45935150D01*
X174566405Y-45781614D01*
X174455962Y-45647038D01*
X174321386Y-45536595D01*
X174167850Y-45454528D01*
X174001254Y-45403992D01*
X173828000Y-45386928D01*
X172628000Y-45386928D01*
X172454746Y-45403992D01*
X172288150Y-45454528D01*
X172134614Y-45536595D01*
X172000038Y-45647038D01*
X171889595Y-45781614D01*
X171835223Y-45883337D01*
X171783134Y-45819866D01*
X171557014Y-45634294D01*
X171299034Y-45496401D01*
X171019111Y-45411487D01*
X170728000Y-45382815D01*
X170436890Y-45411487D01*
X170156967Y-45496401D01*
X169898987Y-45634294D01*
X169672866Y-45819866D01*
X169487294Y-46045986D01*
X169478000Y-46063374D01*
X169468706Y-46045986D01*
X169283134Y-45819866D01*
X169057014Y-45634294D01*
X168799034Y-45496401D01*
X168519111Y-45411487D01*
X168228000Y-45382815D01*
X167936890Y-45411487D01*
X167656967Y-45496401D01*
X167398987Y-45634294D01*
X167172866Y-45819866D01*
X166987294Y-46045986D01*
X166978000Y-46063374D01*
X166968706Y-46045986D01*
X166783134Y-45819866D01*
X166557014Y-45634294D01*
X166299034Y-45496401D01*
X166019111Y-45411487D01*
X165728000Y-45382815D01*
X165436890Y-45411487D01*
X165156967Y-45496401D01*
X164898987Y-45634294D01*
X164672866Y-45819866D01*
X164487294Y-46045986D01*
X164478000Y-46063374D01*
X164468706Y-46045986D01*
X164283134Y-45819866D01*
X164057014Y-45634294D01*
X163799034Y-45496401D01*
X163519111Y-45411487D01*
X163228000Y-45382815D01*
X162936890Y-45411487D01*
X162656967Y-45496401D01*
X162398987Y-45634294D01*
X162172866Y-45819866D01*
X161987294Y-46045986D01*
X161978000Y-46063374D01*
X161968706Y-46045986D01*
X161783134Y-45819866D01*
X161557014Y-45634294D01*
X161299034Y-45496401D01*
X161019111Y-45411487D01*
X160728000Y-45382815D01*
X160436890Y-45411487D01*
X160156967Y-45496401D01*
X159898987Y-45634294D01*
X159672866Y-45819866D01*
X159487294Y-46045986D01*
X159349401Y-46303966D01*
X159264487Y-46583889D01*
X159243000Y-46802050D01*
X91660000Y-46802050D01*
X91660000Y-40660000D01*
X199340000Y-40660000D01*
X199340001Y-101340000D01*
%TA.AperFunction,Conductor*%
D23*
G36*
X199340001Y-101340000D02*
G01*
X91660000Y-101340000D01*
X91660000Y-100052702D01*
X148284903Y-100052702D01*
X148356486Y-100296671D01*
X148611996Y-100417571D01*
X148886184Y-100486300D01*
X149168512Y-100500217D01*
X149448130Y-100458787D01*
X149714292Y-100363603D01*
X149839514Y-100296671D01*
X149911097Y-100052702D01*
X152334903Y-100052702D01*
X152406486Y-100296671D01*
X152661996Y-100417571D01*
X152936184Y-100486300D01*
X153218512Y-100500217D01*
X153498130Y-100458787D01*
X153764292Y-100363603D01*
X153889514Y-100296671D01*
X153961097Y-100052702D01*
X156384903Y-100052702D01*
X156456486Y-100296671D01*
X156711996Y-100417571D01*
X156986184Y-100486300D01*
X157268512Y-100500217D01*
X157548130Y-100458787D01*
X157814292Y-100363603D01*
X157939514Y-100296671D01*
X158011097Y-100052702D01*
X157198000Y-99239605D01*
X156384903Y-100052702D01*
X153961097Y-100052702D01*
X153148000Y-99239605D01*
X152334903Y-100052702D01*
X149911097Y-100052702D01*
X149098000Y-99239605D01*
X148284903Y-100052702D01*
X91660000Y-100052702D01*
X91660000Y-99130512D01*
X147657783Y-99130512D01*
X147699213Y-99410130D01*
X147794397Y-99676292D01*
X147861329Y-99801514D01*
X148105298Y-99873097D01*
X148918395Y-99060000D01*
X149277605Y-99060000D01*
X150090702Y-99873097D01*
X150334671Y-99801514D01*
X150455571Y-99546004D01*
X150524300Y-99271816D01*
X150531265Y-99130512D01*
X151707783Y-99130512D01*
X151749213Y-99410130D01*
X151844397Y-99676292D01*
X151911329Y-99801514D01*
X152155298Y-99873097D01*
X152968395Y-99060000D01*
X153327605Y-99060000D01*
X154140702Y-99873097D01*
X154384671Y-99801514D01*
X154505571Y-99546004D01*
X154574300Y-99271816D01*
X154581265Y-99130512D01*
X155757783Y-99130512D01*
X155799213Y-99410130D01*
X155894397Y-99676292D01*
X155961329Y-99801514D01*
X156205298Y-99873097D01*
X157018395Y-99060000D01*
X157377605Y-99060000D01*
X158190702Y-99873097D01*
X158434671Y-99801514D01*
X158555571Y-99546004D01*
X158624300Y-99271816D01*
X158638217Y-98989488D01*
X158596787Y-98709870D01*
X158501603Y-98443708D01*
X158434671Y-98318486D01*
X158190702Y-98246903D01*
X157377605Y-99060000D01*
X157018395Y-99060000D01*
X156205298Y-98246903D01*
X155961329Y-98318486D01*
X155840429Y-98573996D01*
X155771700Y-98848184D01*
X155757783Y-99130512D01*
X154581265Y-99130512D01*
X154588217Y-98989488D01*
X154546787Y-98709870D01*
X154451603Y-98443708D01*
X154384671Y-98318486D01*
X154140702Y-98246903D01*
X153327605Y-99060000D01*
X152968395Y-99060000D01*
X152155298Y-98246903D01*
X151911329Y-98318486D01*
X151790429Y-98573996D01*
X151721700Y-98848184D01*
X151707783Y-99130512D01*
X150531265Y-99130512D01*
X150538217Y-98989488D01*
X150496787Y-98709870D01*
X150401603Y-98443708D01*
X150334671Y-98318486D01*
X150090702Y-98246903D01*
X149277605Y-99060000D01*
X148918395Y-99060000D01*
X148105298Y-98246903D01*
X147861329Y-98318486D01*
X147740429Y-98573996D01*
X147671700Y-98848184D01*
X147657783Y-99130512D01*
X91660000Y-99130512D01*
X91660000Y-98067298D01*
X148284903Y-98067298D01*
X149098000Y-98880395D01*
X149911097Y-98067298D01*
X152334903Y-98067298D01*
X153148000Y-98880395D01*
X153961097Y-98067298D01*
X156384903Y-98067298D01*
X157198000Y-98880395D01*
X158011097Y-98067298D01*
X157939514Y-97823329D01*
X157684004Y-97702429D01*
X157409816Y-97633700D01*
X157127488Y-97619783D01*
X156847870Y-97661213D01*
X156581708Y-97756397D01*
X156456486Y-97823329D01*
X156384903Y-98067298D01*
X153961097Y-98067298D01*
X153889514Y-97823329D01*
X153634004Y-97702429D01*
X153359816Y-97633700D01*
X153077488Y-97619783D01*
X152797870Y-97661213D01*
X152531708Y-97756397D01*
X152406486Y-97823329D01*
X152334903Y-98067298D01*
X149911097Y-98067298D01*
X149839514Y-97823329D01*
X149584004Y-97702429D01*
X149309816Y-97633700D01*
X149027488Y-97619783D01*
X148747870Y-97661213D01*
X148481708Y-97756397D01*
X148356486Y-97823329D01*
X148284903Y-98067298D01*
X91660000Y-98067298D01*
X91660000Y-80000000D01*
X95382815Y-80000000D01*
X95411487Y-80291111D01*
X95496401Y-80571034D01*
X95634294Y-80829014D01*
X95819866Y-81055134D01*
X96045986Y-81240706D01*
X96063374Y-81250000D01*
X96045986Y-81259294D01*
X95819866Y-81444866D01*
X95634294Y-81670986D01*
X95496401Y-81928966D01*
X95411487Y-82208889D01*
X95382815Y-82500000D01*
X95411487Y-82791111D01*
X95496401Y-83071034D01*
X95634294Y-83329014D01*
X95819866Y-83555134D01*
X96045986Y-83740706D01*
X96063374Y-83750000D01*
X96045986Y-83759294D01*
X95819866Y-83944866D01*
X95634294Y-84170986D01*
X95496401Y-84428966D01*
X95411487Y-84708889D01*
X95382815Y-85000000D01*
X95411487Y-85291111D01*
X95496401Y-85571034D01*
X95634294Y-85829014D01*
X95819866Y-86055134D01*
X96045986Y-86240706D01*
X96063374Y-86250000D01*
X96045986Y-86259294D01*
X95819866Y-86444866D01*
X95634294Y-86670986D01*
X95496401Y-86928966D01*
X95411487Y-87208889D01*
X95382815Y-87500000D01*
X95411487Y-87791111D01*
X95496401Y-88071034D01*
X95634294Y-88329014D01*
X95819866Y-88555134D01*
X96045986Y-88740706D01*
X96063374Y-88750000D01*
X96045986Y-88759294D01*
X95819866Y-88944866D01*
X95634294Y-89170986D01*
X95496401Y-89428966D01*
X95411487Y-89708889D01*
X95382815Y-90000000D01*
X95411487Y-90291111D01*
X95496401Y-90571034D01*
X95634294Y-90829014D01*
X95819866Y-91055134D01*
X96045986Y-91240706D01*
X96063374Y-91250000D01*
X96045986Y-91259294D01*
X95819866Y-91444866D01*
X95634294Y-91670986D01*
X95496401Y-91928966D01*
X95411487Y-92208889D01*
X95382815Y-92500000D01*
X95411487Y-92791111D01*
X95496401Y-93071034D01*
X95634294Y-93329014D01*
X95819866Y-93555134D01*
X96045986Y-93740706D01*
X96063374Y-93750000D01*
X96045986Y-93759294D01*
X95819866Y-93944866D01*
X95634294Y-94170986D01*
X95496401Y-94428966D01*
X95411487Y-94708889D01*
X95382815Y-95000000D01*
X95411487Y-95291111D01*
X95496401Y-95571034D01*
X95634294Y-95829014D01*
X95819866Y-96055134D01*
X96045986Y-96240706D01*
X96303966Y-96378599D01*
X96583889Y-96463513D01*
X96802050Y-96485000D01*
X97197950Y-96485000D01*
X97416111Y-96463513D01*
X97696034Y-96378599D01*
X97954014Y-96240706D01*
X98180134Y-96055134D01*
X98365706Y-95829014D01*
X98402595Y-95760000D01*
X146923987Y-95760000D01*
X147024063Y-95909774D01*
X147168226Y-96053937D01*
X147337744Y-96167205D01*
X147526102Y-96245226D01*
X147726061Y-96285000D01*
X147929939Y-96285000D01*
X148129898Y-96245226D01*
X148318256Y-96167205D01*
X148487774Y-96053937D01*
X148631937Y-95909774D01*
X148745205Y-95740256D01*
X148823226Y-95551898D01*
X148863000Y-95351939D01*
X148863000Y-95148061D01*
X148823226Y-94948102D01*
X148745205Y-94759744D01*
X148732013Y-94740000D01*
X156014289Y-94740000D01*
X156058226Y-94783937D01*
X156227744Y-94897205D01*
X156416102Y-94975226D01*
X156616061Y-95015000D01*
X156819939Y-95015000D01*
X157019898Y-94975226D01*
X157208256Y-94897205D01*
X157377774Y-94783937D01*
X157521937Y-94639774D01*
X157588790Y-94539721D01*
X190615000Y-94539721D01*
X190615000Y-94960279D01*
X190697047Y-95372756D01*
X190857988Y-95761302D01*
X191091637Y-96110983D01*
X191389017Y-96408363D01*
X191738698Y-96642012D01*
X192127244Y-96802953D01*
X192539721Y-96885000D01*
X192960279Y-96885000D01*
X193372756Y-96802953D01*
X193761302Y-96642012D01*
X194110983Y-96408363D01*
X194408363Y-96110983D01*
X194642012Y-95761302D01*
X194802953Y-95372756D01*
X194885000Y-94960279D01*
X194885000Y-94539721D01*
X194802953Y-94127244D01*
X194642012Y-93738698D01*
X194408363Y-93389017D01*
X194110983Y-93091637D01*
X193761302Y-92857988D01*
X193372756Y-92697047D01*
X192960279Y-92615000D01*
X192539721Y-92615000D01*
X192127244Y-92697047D01*
X191738698Y-92857988D01*
X191389017Y-93091637D01*
X191091637Y-93389017D01*
X190857988Y-93738698D01*
X190697047Y-94127244D01*
X190615000Y-94539721D01*
X157588790Y-94539721D01*
X157635205Y-94470256D01*
X157713226Y-94281898D01*
X157753000Y-94081939D01*
X157753000Y-93878061D01*
X157713226Y-93678102D01*
X157635205Y-93489744D01*
X157521937Y-93320226D01*
X157377774Y-93176063D01*
X157208256Y-93062795D01*
X157019898Y-92984774D01*
X156819939Y-92945000D01*
X156616061Y-92945000D01*
X156416102Y-92984774D01*
X156227744Y-93062795D01*
X156058226Y-93176063D01*
X156014289Y-93220000D01*
X146192013Y-93220000D01*
X146205205Y-93200256D01*
X146283226Y-93011898D01*
X146323000Y-92811939D01*
X146323000Y-92608061D01*
X146283226Y-92408102D01*
X146205205Y-92219744D01*
X146192013Y-92200000D01*
X152204289Y-92200000D01*
X152248226Y-92243937D01*
X152417744Y-92357205D01*
X152606102Y-92435226D01*
X152806061Y-92475000D01*
X153009939Y-92475000D01*
X153209898Y-92435226D01*
X153398256Y-92357205D01*
X153567774Y-92243937D01*
X153711937Y-92099774D01*
X153825205Y-91930256D01*
X153903226Y-91741898D01*
X153943000Y-91541939D01*
X153943000Y-91338061D01*
X153903226Y-91138102D01*
X153825205Y-90949744D01*
X153715128Y-90785001D01*
X194746147Y-90785001D01*
X194776063Y-90829774D01*
X194920226Y-90973937D01*
X195089744Y-91087205D01*
X195278102Y-91165226D01*
X195478061Y-91205000D01*
X195681939Y-91205000D01*
X195881898Y-91165226D01*
X196070256Y-91087205D01*
X196239774Y-90973937D01*
X196383937Y-90829774D01*
X196497205Y-90660256D01*
X196575226Y-90471898D01*
X196615000Y-90271939D01*
X196615000Y-90068061D01*
X196575226Y-89868102D01*
X196497205Y-89679744D01*
X196383937Y-89510226D01*
X196239774Y-89366063D01*
X196070256Y-89252795D01*
X195881898Y-89174774D01*
X195681939Y-89135000D01*
X195478061Y-89135000D01*
X195278102Y-89174774D01*
X195089744Y-89252795D01*
X195071476Y-89265001D01*
X158588509Y-89265001D01*
X158633000Y-89041335D01*
X158633000Y-88758665D01*
X158577853Y-88481426D01*
X158486135Y-88260000D01*
X193486169Y-88260000D01*
X193506063Y-88289774D01*
X193650226Y-88433937D01*
X193819744Y-88547205D01*
X194008102Y-88625226D01*
X194208061Y-88665000D01*
X194411939Y-88665000D01*
X194611898Y-88625226D01*
X194800256Y-88547205D01*
X194969774Y-88433937D01*
X195113937Y-88289774D01*
X195227205Y-88120256D01*
X195305226Y-87931898D01*
X195345000Y-87731939D01*
X195345000Y-87528061D01*
X195305226Y-87328102D01*
X195227205Y-87139744D01*
X195113937Y-86970226D01*
X194969774Y-86826063D01*
X194800256Y-86712795D01*
X194611898Y-86634774D01*
X194411939Y-86595000D01*
X194208061Y-86595000D01*
X194008102Y-86634774D01*
X193819744Y-86712795D01*
X193779029Y-86740000D01*
X98402595Y-86740000D01*
X98365706Y-86670986D01*
X98180134Y-86444866D01*
X97954014Y-86259294D01*
X97936626Y-86250000D01*
X97954014Y-86240706D01*
X98180134Y-86055134D01*
X98365706Y-85829014D01*
X98402595Y-85760000D01*
X135604289Y-85760000D01*
X135738226Y-85893937D01*
X135907744Y-86007205D01*
X136096102Y-86085226D01*
X136296061Y-86125000D01*
X136499939Y-86125000D01*
X136699898Y-86085226D01*
X136888256Y-86007205D01*
X137057774Y-85893937D01*
X137201937Y-85749774D01*
X137315205Y-85580256D01*
X137393226Y-85391898D01*
X137433000Y-85191939D01*
X137433000Y-84988061D01*
X137393226Y-84788102D01*
X137315205Y-84599744D01*
X137201937Y-84430226D01*
X137061711Y-84290000D01*
X143849928Y-84290000D01*
X143849928Y-85890000D01*
X143862188Y-86014482D01*
X143898498Y-86134180D01*
X143957463Y-86244494D01*
X144036815Y-86341185D01*
X144133506Y-86420537D01*
X144243820Y-86479502D01*
X144363518Y-86515812D01*
X144488000Y-86528072D01*
X146088000Y-86528072D01*
X146212482Y-86515812D01*
X146332180Y-86479502D01*
X146442494Y-86420537D01*
X146539185Y-86341185D01*
X146618537Y-86244494D01*
X146677502Y-86134180D01*
X146713812Y-86014482D01*
X146714643Y-86006039D01*
X146913241Y-86204637D01*
X147148273Y-86361680D01*
X147409426Y-86469853D01*
X147686665Y-86525000D01*
X147969335Y-86525000D01*
X148246574Y-86469853D01*
X148507727Y-86361680D01*
X148742759Y-86204637D01*
X148942637Y-86004759D01*
X149098000Y-85772241D01*
X149253363Y-86004759D01*
X149453241Y-86204637D01*
X149688273Y-86361680D01*
X149949426Y-86469853D01*
X150226665Y-86525000D01*
X150509335Y-86525000D01*
X150786574Y-86469853D01*
X151047727Y-86361680D01*
X151282759Y-86204637D01*
X151482637Y-86004759D01*
X151638000Y-85772241D01*
X151793363Y-86004759D01*
X151993241Y-86204637D01*
X152228273Y-86361680D01*
X152489426Y-86469853D01*
X152766665Y-86525000D01*
X153049335Y-86525000D01*
X153326574Y-86469853D01*
X153587727Y-86361680D01*
X153822759Y-86204637D01*
X154022637Y-86004759D01*
X154178000Y-85772241D01*
X154333363Y-86004759D01*
X154533241Y-86204637D01*
X154768273Y-86361680D01*
X155029426Y-86469853D01*
X155306665Y-86525000D01*
X155589335Y-86525000D01*
X155866574Y-86469853D01*
X156127727Y-86361680D01*
X156362759Y-86204637D01*
X156562637Y-86004759D01*
X156718000Y-85772241D01*
X156873363Y-86004759D01*
X157073241Y-86204637D01*
X157308273Y-86361680D01*
X157569426Y-86469853D01*
X157846665Y-86525000D01*
X158129335Y-86525000D01*
X158406574Y-86469853D01*
X158667727Y-86361680D01*
X158902759Y-86204637D01*
X159102637Y-86004759D01*
X159258000Y-85772241D01*
X159413363Y-86004759D01*
X159613241Y-86204637D01*
X159848273Y-86361680D01*
X160109426Y-86469853D01*
X160386665Y-86525000D01*
X160669335Y-86525000D01*
X160946574Y-86469853D01*
X161207727Y-86361680D01*
X161442759Y-86204637D01*
X161642637Y-86004759D01*
X161798000Y-85772241D01*
X161953363Y-86004759D01*
X162153241Y-86204637D01*
X162388273Y-86361680D01*
X162649426Y-86469853D01*
X162926665Y-86525000D01*
X163209335Y-86525000D01*
X163486574Y-86469853D01*
X163747727Y-86361680D01*
X163982759Y-86204637D01*
X164182637Y-86004759D01*
X164339680Y-85769727D01*
X164344067Y-85759135D01*
X164455615Y-85945131D01*
X164644586Y-86153519D01*
X164870580Y-86321037D01*
X165124913Y-86441246D01*
X165258961Y-86481904D01*
X165481000Y-86359915D01*
X165481000Y-85217000D01*
X165735000Y-85217000D01*
X165735000Y-86359915D01*
X165957039Y-86481904D01*
X166091087Y-86441246D01*
X166345420Y-86321037D01*
X166571414Y-86153519D01*
X166708178Y-86002702D01*
X170874903Y-86002702D01*
X170946486Y-86246671D01*
X171201996Y-86367571D01*
X171476184Y-86436300D01*
X171758512Y-86450217D01*
X172038130Y-86408787D01*
X172304292Y-86313603D01*
X172429514Y-86246671D01*
X172501097Y-86002702D01*
X171688000Y-85189605D01*
X170874903Y-86002702D01*
X166708178Y-86002702D01*
X166760385Y-85945131D01*
X166905070Y-85703881D01*
X166999909Y-85439040D01*
X166878624Y-85217000D01*
X165735000Y-85217000D01*
X165481000Y-85217000D01*
X165461000Y-85217000D01*
X165461000Y-85080512D01*
X170247783Y-85080512D01*
X170289213Y-85360130D01*
X170384397Y-85626292D01*
X170451329Y-85751514D01*
X170695298Y-85823097D01*
X171508395Y-85010000D01*
X171867605Y-85010000D01*
X172680702Y-85823097D01*
X172924671Y-85751514D01*
X173045571Y-85496004D01*
X173114300Y-85221816D01*
X173128217Y-84939488D01*
X173086787Y-84659870D01*
X172991603Y-84393708D01*
X172924671Y-84268486D01*
X172680702Y-84196903D01*
X171867605Y-85010000D01*
X171508395Y-85010000D01*
X170695298Y-84196903D01*
X170451329Y-84268486D01*
X170330429Y-84523996D01*
X170261700Y-84798184D01*
X170247783Y-85080512D01*
X165461000Y-85080512D01*
X165461000Y-84963000D01*
X165481000Y-84963000D01*
X165481000Y-83820085D01*
X165735000Y-83820085D01*
X165735000Y-84963000D01*
X166878624Y-84963000D01*
X166999909Y-84740960D01*
X166905070Y-84476119D01*
X166760385Y-84234869D01*
X166571414Y-84026481D01*
X166559026Y-84017298D01*
X170874903Y-84017298D01*
X171688000Y-84830395D01*
X172501097Y-84017298D01*
X172429514Y-83773329D01*
X172174004Y-83652429D01*
X171899816Y-83583700D01*
X171617488Y-83569783D01*
X171337870Y-83611213D01*
X171071708Y-83706397D01*
X170946486Y-83773329D01*
X170874903Y-84017298D01*
X166559026Y-84017298D01*
X166345420Y-83858963D01*
X166091087Y-83738754D01*
X165957039Y-83698096D01*
X165735000Y-83820085D01*
X165481000Y-83820085D01*
X165258961Y-83698096D01*
X165124913Y-83738754D01*
X164870580Y-83858963D01*
X164644586Y-84026481D01*
X164455615Y-84234869D01*
X164344067Y-84420865D01*
X164339680Y-84410273D01*
X164182637Y-84175241D01*
X163982759Y-83975363D01*
X163747727Y-83818320D01*
X163486574Y-83710147D01*
X163209335Y-83655000D01*
X162926665Y-83655000D01*
X162649426Y-83710147D01*
X162388273Y-83818320D01*
X162153241Y-83975363D01*
X161953363Y-84175241D01*
X161798000Y-84407759D01*
X161642637Y-84175241D01*
X161442759Y-83975363D01*
X161207727Y-83818320D01*
X160946574Y-83710147D01*
X160669335Y-83655000D01*
X160386665Y-83655000D01*
X160109426Y-83710147D01*
X159848273Y-83818320D01*
X159613241Y-83975363D01*
X159413363Y-84175241D01*
X159258000Y-84407759D01*
X159102637Y-84175241D01*
X158902759Y-83975363D01*
X158667727Y-83818320D01*
X158406574Y-83710147D01*
X158129335Y-83655000D01*
X157846665Y-83655000D01*
X157569426Y-83710147D01*
X157308273Y-83818320D01*
X157073241Y-83975363D01*
X156873363Y-84175241D01*
X156718000Y-84407759D01*
X156562637Y-84175241D01*
X156362759Y-83975363D01*
X156127727Y-83818320D01*
X155866574Y-83710147D01*
X155589335Y-83655000D01*
X155306665Y-83655000D01*
X155029426Y-83710147D01*
X154768273Y-83818320D01*
X154533241Y-83975363D01*
X154333363Y-84175241D01*
X154178000Y-84407759D01*
X154022637Y-84175241D01*
X153822759Y-83975363D01*
X153587727Y-83818320D01*
X153326574Y-83710147D01*
X153049335Y-83655000D01*
X152766665Y-83655000D01*
X152489426Y-83710147D01*
X152228273Y-83818320D01*
X151993241Y-83975363D01*
X151793363Y-84175241D01*
X151638000Y-84407759D01*
X151482637Y-84175241D01*
X151282759Y-83975363D01*
X151047727Y-83818320D01*
X150786574Y-83710147D01*
X150509335Y-83655000D01*
X150226665Y-83655000D01*
X149949426Y-83710147D01*
X149688273Y-83818320D01*
X149453241Y-83975363D01*
X149253363Y-84175241D01*
X149098000Y-84407759D01*
X148942637Y-84175241D01*
X148742759Y-83975363D01*
X148507727Y-83818320D01*
X148246574Y-83710147D01*
X147969335Y-83655000D01*
X147686665Y-83655000D01*
X147409426Y-83710147D01*
X147148273Y-83818320D01*
X146913241Y-83975363D01*
X146714643Y-84173961D01*
X146713812Y-84165518D01*
X146677502Y-84045820D01*
X146618537Y-83935506D01*
X146539185Y-83838815D01*
X146442494Y-83759463D01*
X146332180Y-83700498D01*
X146212482Y-83664188D01*
X146088000Y-83651928D01*
X144488000Y-83651928D01*
X144363518Y-83664188D01*
X144243820Y-83700498D01*
X144133506Y-83759463D01*
X144036815Y-83838815D01*
X143957463Y-83935506D01*
X143898498Y-84045820D01*
X143862188Y-84165518D01*
X143849928Y-84290000D01*
X137061711Y-84290000D01*
X137057774Y-84286063D01*
X136888256Y-84172795D01*
X136699898Y-84094774D01*
X136499939Y-84055000D01*
X136296061Y-84055000D01*
X136096102Y-84094774D01*
X135907744Y-84172795D01*
X135807164Y-84240000D01*
X98402595Y-84240000D01*
X98365706Y-84170986D01*
X98180134Y-83944866D01*
X98168112Y-83935000D01*
X100669971Y-83935000D01*
X100738000Y-83941700D01*
X100806029Y-83935000D01*
X105525301Y-83935000D01*
X105776665Y-83985000D01*
X106059335Y-83985000D01*
X106336574Y-83929853D01*
X106597727Y-83821680D01*
X106832759Y-83664637D01*
X107032637Y-83464759D01*
X107189680Y-83229727D01*
X107283716Y-83002702D01*
X120344903Y-83002702D01*
X120416486Y-83246671D01*
X120671996Y-83367571D01*
X120946184Y-83436300D01*
X121228512Y-83450217D01*
X121508130Y-83408787D01*
X121774292Y-83313603D01*
X121899514Y-83246671D01*
X121971097Y-83002702D01*
X121819875Y-82851480D01*
X176016770Y-82851480D01*
X176016770Y-83045360D01*
X176054595Y-83235515D01*
X176128789Y-83414637D01*
X176236503Y-83575843D01*
X176373597Y-83712937D01*
X176534803Y-83820651D01*
X176713925Y-83894845D01*
X176904080Y-83932670D01*
X177097960Y-83932670D01*
X177288115Y-83894845D01*
X177467237Y-83820651D01*
X177628443Y-83712937D01*
X177765537Y-83575843D01*
X177873251Y-83414637D01*
X177947445Y-83235515D01*
X177985270Y-83045360D01*
X177985270Y-82851480D01*
X177978763Y-82818769D01*
X178121664Y-82790344D01*
X178347011Y-82697003D01*
X178549818Y-82561491D01*
X178639220Y-82472089D01*
X179597516Y-82472089D01*
X179645218Y-82696004D01*
X179867141Y-82797218D01*
X180104545Y-82853191D01*
X180348309Y-82861775D01*
X180589062Y-82822637D01*
X180817554Y-82737283D01*
X180894782Y-82696004D01*
X180942484Y-82472089D01*
X180270000Y-81799605D01*
X179597516Y-82472089D01*
X178639220Y-82472089D01*
X178722291Y-82389018D01*
X178857803Y-82186211D01*
X178951144Y-81960864D01*
X178998730Y-81721637D01*
X178998730Y-81698309D01*
X179028225Y-81698309D01*
X179067363Y-81939062D01*
X179152717Y-82167554D01*
X179193996Y-82244782D01*
X179417911Y-82292484D01*
X180090395Y-81620000D01*
X180449605Y-81620000D01*
X181122089Y-82292484D01*
X181346004Y-82244782D01*
X181387104Y-82154665D01*
X185763000Y-82154665D01*
X185763000Y-82437335D01*
X185818147Y-82714574D01*
X185926320Y-82975727D01*
X186083363Y-83210759D01*
X186283241Y-83410637D01*
X186518273Y-83567680D01*
X186779426Y-83675853D01*
X187056665Y-83731000D01*
X187339335Y-83731000D01*
X187616574Y-83675853D01*
X187877727Y-83567680D01*
X188112759Y-83410637D01*
X188312637Y-83210759D01*
X188469680Y-82975727D01*
X188577853Y-82714574D01*
X188633000Y-82437335D01*
X188633000Y-82154665D01*
X188577853Y-81877426D01*
X188469680Y-81616273D01*
X188312637Y-81381241D01*
X188112759Y-81181363D01*
X187877727Y-81024320D01*
X187616574Y-80916147D01*
X187339335Y-80861000D01*
X187056665Y-80861000D01*
X186779426Y-80916147D01*
X186518273Y-81024320D01*
X186283241Y-81181363D01*
X186083363Y-81381241D01*
X185926320Y-81616273D01*
X185818147Y-81877426D01*
X185763000Y-82154665D01*
X181387104Y-82154665D01*
X181447218Y-82022859D01*
X181503191Y-81785455D01*
X181511775Y-81541691D01*
X181472637Y-81300938D01*
X181387283Y-81072446D01*
X181346004Y-80995218D01*
X181122089Y-80947516D01*
X180449605Y-81620000D01*
X180090395Y-81620000D01*
X179417911Y-80947516D01*
X179193996Y-80995218D01*
X179092782Y-81217141D01*
X179036809Y-81454545D01*
X179028225Y-81698309D01*
X178998730Y-81698309D01*
X178998730Y-81477723D01*
X178951144Y-81238496D01*
X178857803Y-81013149D01*
X178722291Y-80810342D01*
X178679860Y-80767911D01*
X179597516Y-80767911D01*
X180270000Y-81440395D01*
X180942484Y-80767911D01*
X180894782Y-80543996D01*
X180672859Y-80442782D01*
X180435455Y-80386809D01*
X180191691Y-80378225D01*
X179950938Y-80417363D01*
X179722446Y-80502717D01*
X179645218Y-80543996D01*
X179597516Y-80767911D01*
X178679860Y-80767911D01*
X178549818Y-80637869D01*
X178347011Y-80502357D01*
X178121664Y-80409016D01*
X177882437Y-80361430D01*
X177638523Y-80361430D01*
X177399296Y-80409016D01*
X177173949Y-80502357D01*
X176971142Y-80637869D01*
X176798669Y-80810342D01*
X176663157Y-81013149D01*
X176569816Y-81238496D01*
X176522230Y-81477723D01*
X176522230Y-81721637D01*
X176569816Y-81960864D01*
X176605462Y-82046921D01*
X176534803Y-82076189D01*
X176373597Y-82183903D01*
X176236503Y-82320997D01*
X176128789Y-82482203D01*
X176054595Y-82661325D01*
X176016770Y-82851480D01*
X121819875Y-82851480D01*
X121158000Y-82189605D01*
X120344903Y-83002702D01*
X107283716Y-83002702D01*
X107297853Y-82968574D01*
X107353000Y-82691335D01*
X107353000Y-82408665D01*
X107297853Y-82131426D01*
X107189680Y-81870273D01*
X107032637Y-81635241D01*
X106832759Y-81435363D01*
X106757385Y-81385000D01*
X119866198Y-81385000D01*
X119800429Y-81523996D01*
X119731700Y-81798184D01*
X119717783Y-82080512D01*
X119759213Y-82360130D01*
X119854397Y-82626292D01*
X119921329Y-82751514D01*
X120165298Y-82823097D01*
X120978395Y-82010000D01*
X120964253Y-81995858D01*
X121143858Y-81816253D01*
X121158000Y-81830395D01*
X121172143Y-81816253D01*
X121351748Y-81995858D01*
X121337605Y-82010000D01*
X122150702Y-82823097D01*
X122394671Y-82751514D01*
X122515571Y-82496004D01*
X122584300Y-82221816D01*
X122598217Y-81939488D01*
X122556787Y-81659870D01*
X122461603Y-81393708D01*
X122456949Y-81385000D01*
X125807710Y-81385000D01*
X125819426Y-81389853D01*
X126096665Y-81445000D01*
X126379335Y-81445000D01*
X126631901Y-81394761D01*
X142690383Y-81385041D01*
X142758000Y-81391700D01*
X142826453Y-81384958D01*
X142826875Y-81384958D01*
X142894141Y-81378292D01*
X143029507Y-81364960D01*
X143029914Y-81364837D01*
X143030333Y-81364795D01*
X143159993Y-81325377D01*
X143290580Y-81285764D01*
X143290954Y-81285564D01*
X143291359Y-81285441D01*
X143411331Y-81221221D01*
X143531188Y-81157156D01*
X143531515Y-81156888D01*
X143531888Y-81156688D01*
X143636765Y-81070511D01*
X143689233Y-81027452D01*
X143689532Y-81027153D01*
X143742676Y-80983485D01*
X143785747Y-80930938D01*
X145989663Y-78727023D01*
X146202759Y-78584637D01*
X146402637Y-78384759D01*
X146558000Y-78152241D01*
X146713363Y-78384759D01*
X146913241Y-78584637D01*
X147148273Y-78741680D01*
X147409426Y-78849853D01*
X147686665Y-78905000D01*
X147969335Y-78905000D01*
X148246574Y-78849853D01*
X148507727Y-78741680D01*
X148742759Y-78584637D01*
X148942637Y-78384759D01*
X149098000Y-78152241D01*
X149253363Y-78384759D01*
X149453241Y-78584637D01*
X149688273Y-78741680D01*
X149949426Y-78849853D01*
X150226665Y-78905000D01*
X150509335Y-78905000D01*
X150786574Y-78849853D01*
X151047727Y-78741680D01*
X151282759Y-78584637D01*
X151482637Y-78384759D01*
X151638000Y-78152241D01*
X151793363Y-78384759D01*
X151993241Y-78584637D01*
X152228273Y-78741680D01*
X152489426Y-78849853D01*
X152766665Y-78905000D01*
X153049335Y-78905000D01*
X153326574Y-78849853D01*
X153587727Y-78741680D01*
X153822759Y-78584637D01*
X154022637Y-78384759D01*
X154178000Y-78152241D01*
X154333363Y-78384759D01*
X154441813Y-78493209D01*
X154413000Y-78638061D01*
X154413000Y-78841939D01*
X154452774Y-79041898D01*
X154530795Y-79230256D01*
X154644063Y-79399774D01*
X154788226Y-79543937D01*
X154957744Y-79657205D01*
X155146102Y-79735226D01*
X155346061Y-79775000D01*
X155549939Y-79775000D01*
X155749898Y-79735226D01*
X155938256Y-79657205D01*
X156107774Y-79543937D01*
X156151711Y-79500000D01*
X170346017Y-79500000D01*
X170308147Y-79591426D01*
X170253000Y-79868665D01*
X170253000Y-80151335D01*
X170308147Y-80428574D01*
X170416320Y-80689727D01*
X170573363Y-80924759D01*
X170773241Y-81124637D01*
X171008273Y-81281680D01*
X171269426Y-81389853D01*
X171546665Y-81445000D01*
X171829335Y-81445000D01*
X172106574Y-81389853D01*
X172367727Y-81281680D01*
X172602759Y-81124637D01*
X172802637Y-80924759D01*
X172959680Y-80689727D01*
X173067853Y-80428574D01*
X173123000Y-80151335D01*
X173123000Y-79868665D01*
X173067853Y-79591426D01*
X172959680Y-79330273D01*
X172802637Y-79095241D01*
X172602759Y-78895363D01*
X172367727Y-78738320D01*
X172106574Y-78630147D01*
X171911465Y-78591337D01*
X171997802Y-78505000D01*
X172059939Y-78505000D01*
X172259898Y-78465226D01*
X172448256Y-78387205D01*
X172617774Y-78273937D01*
X172761937Y-78129774D01*
X172875205Y-77960256D01*
X172953226Y-77771898D01*
X172993000Y-77571939D01*
X172993000Y-77368061D01*
X172953226Y-77168102D01*
X172875205Y-76979744D01*
X172761937Y-76810226D01*
X172617774Y-76666063D01*
X172448256Y-76552795D01*
X172259898Y-76474774D01*
X172059939Y-76435000D01*
X171856061Y-76435000D01*
X171656102Y-76474774D01*
X171467744Y-76552795D01*
X171298226Y-76666063D01*
X171154063Y-76810226D01*
X171040795Y-76979744D01*
X170962774Y-77168102D01*
X170923000Y-77368061D01*
X170923000Y-77430198D01*
X170373199Y-77980000D01*
X166949983Y-77980000D01*
X166987853Y-77888574D01*
X167043000Y-77611335D01*
X167043000Y-77328665D01*
X166987853Y-77051426D01*
X166879680Y-76790273D01*
X166722637Y-76555241D01*
X166522759Y-76355363D01*
X166287727Y-76198320D01*
X166026574Y-76090147D01*
X165749335Y-76035000D01*
X165466665Y-76035000D01*
X165189426Y-76090147D01*
X164928273Y-76198320D01*
X164693241Y-76355363D01*
X164493363Y-76555241D01*
X164338000Y-76787759D01*
X164182637Y-76555241D01*
X163982759Y-76355363D01*
X163747727Y-76198320D01*
X163486574Y-76090147D01*
X163209335Y-76035000D01*
X162926665Y-76035000D01*
X162649426Y-76090147D01*
X162388273Y-76198320D01*
X162153241Y-76355363D01*
X161953363Y-76555241D01*
X161798000Y-76787759D01*
X161642637Y-76555241D01*
X161442759Y-76355363D01*
X161207727Y-76198320D01*
X160946574Y-76090147D01*
X160669335Y-76035000D01*
X160386665Y-76035000D01*
X160109426Y-76090147D01*
X159848273Y-76198320D01*
X159613241Y-76355363D01*
X159413363Y-76555241D01*
X159258000Y-76787759D01*
X159102637Y-76555241D01*
X158902759Y-76355363D01*
X158667727Y-76198320D01*
X158406574Y-76090147D01*
X158129335Y-76035000D01*
X157846665Y-76035000D01*
X157569426Y-76090147D01*
X157308273Y-76198320D01*
X157073241Y-76355363D01*
X156873363Y-76555241D01*
X156718000Y-76787759D01*
X156562637Y-76555241D01*
X156362759Y-76355363D01*
X156127727Y-76198320D01*
X155866574Y-76090147D01*
X155589335Y-76035000D01*
X155306665Y-76035000D01*
X155029426Y-76090147D01*
X154768273Y-76198320D01*
X154533241Y-76355363D01*
X154333363Y-76555241D01*
X154178000Y-76787759D01*
X154022637Y-76555241D01*
X153822759Y-76355363D01*
X153587727Y-76198320D01*
X153326574Y-76090147D01*
X153049335Y-76035000D01*
X152766665Y-76035000D01*
X152489426Y-76090147D01*
X152228273Y-76198320D01*
X151993241Y-76355363D01*
X151793363Y-76555241D01*
X151638000Y-76787759D01*
X151482637Y-76555241D01*
X151282759Y-76355363D01*
X151047727Y-76198320D01*
X150786574Y-76090147D01*
X150509335Y-76035000D01*
X150226665Y-76035000D01*
X149949426Y-76090147D01*
X149688273Y-76198320D01*
X149453241Y-76355363D01*
X149253363Y-76555241D01*
X149098000Y-76787759D01*
X148942637Y-76555241D01*
X148742759Y-76355363D01*
X148507727Y-76198320D01*
X148246574Y-76090147D01*
X147969335Y-76035000D01*
X147686665Y-76035000D01*
X147409426Y-76090147D01*
X147148273Y-76198320D01*
X146913241Y-76355363D01*
X146713363Y-76555241D01*
X146558000Y-76787759D01*
X146402637Y-76555241D01*
X146202759Y-76355363D01*
X145967727Y-76198320D01*
X145706574Y-76090147D01*
X145429335Y-76035000D01*
X145146665Y-76035000D01*
X144869426Y-76090147D01*
X144608273Y-76198320D01*
X144373241Y-76355363D01*
X144173363Y-76555241D01*
X144030977Y-76768337D01*
X142183967Y-78615348D01*
X126629509Y-78624763D01*
X126379335Y-78575000D01*
X126096665Y-78575000D01*
X125895574Y-78615000D01*
X122184056Y-78615000D01*
X122082482Y-78584188D01*
X121958000Y-78571928D01*
X120358000Y-78571928D01*
X120233518Y-78584188D01*
X120131944Y-78615000D01*
X98553373Y-78615000D01*
X98564502Y-78594180D01*
X98600812Y-78474482D01*
X98613072Y-78350000D01*
X98610000Y-77785750D01*
X98451250Y-77627000D01*
X97127000Y-77627000D01*
X97127000Y-77647000D01*
X96873000Y-77647000D01*
X96873000Y-77627000D01*
X95548750Y-77627000D01*
X95390000Y-77785750D01*
X95386928Y-78350000D01*
X95399188Y-78474482D01*
X95435498Y-78594180D01*
X95494463Y-78704494D01*
X95573815Y-78801185D01*
X95670506Y-78880537D01*
X95780820Y-78939502D01*
X95815608Y-78950055D01*
X95634294Y-79170986D01*
X95496401Y-79428966D01*
X95411487Y-79708889D01*
X95382815Y-80000000D01*
X91660000Y-80000000D01*
X91660000Y-76650000D01*
X95386928Y-76650000D01*
X95390000Y-77214250D01*
X95548750Y-77373000D01*
X96873000Y-77373000D01*
X96873000Y-76173750D01*
X97127000Y-76173750D01*
X97127000Y-77373000D01*
X98451250Y-77373000D01*
X98610000Y-77214250D01*
X98613072Y-76650000D01*
X98600812Y-76525518D01*
X98564502Y-76405820D01*
X98505537Y-76295506D01*
X98426185Y-76198815D01*
X98329494Y-76119463D01*
X98219180Y-76060498D01*
X98099482Y-76024188D01*
X97975000Y-76011928D01*
X97285750Y-76015000D01*
X97127000Y-76173750D01*
X96873000Y-76173750D01*
X96714250Y-76015000D01*
X96025000Y-76011928D01*
X95900518Y-76024188D01*
X95780820Y-76060498D01*
X95670506Y-76119463D01*
X95573815Y-76198815D01*
X95494463Y-76295506D01*
X95435498Y-76405820D01*
X95399188Y-76525518D01*
X95386928Y-76650000D01*
X91660000Y-76650000D01*
X91660000Y-74828061D01*
X148063000Y-74828061D01*
X148063000Y-75031939D01*
X148102774Y-75231898D01*
X148180795Y-75420256D01*
X148294063Y-75589774D01*
X148438226Y-75733937D01*
X148607744Y-75847205D01*
X148796102Y-75925226D01*
X148996061Y-75965000D01*
X149199939Y-75965000D01*
X149399898Y-75925226D01*
X149588256Y-75847205D01*
X149757774Y-75733937D01*
X149801711Y-75690000D01*
X161094289Y-75690000D01*
X161138226Y-75733937D01*
X161307744Y-75847205D01*
X161496102Y-75925226D01*
X161696061Y-75965000D01*
X161899939Y-75965000D01*
X162099898Y-75925226D01*
X162288256Y-75847205D01*
X162457774Y-75733937D01*
X162601937Y-75589774D01*
X162715205Y-75420256D01*
X162793226Y-75231898D01*
X162833000Y-75031939D01*
X162833000Y-74828061D01*
X162793226Y-74628102D01*
X162715205Y-74439744D01*
X162601937Y-74270226D01*
X162457774Y-74126063D01*
X162288256Y-74012795D01*
X162099898Y-73934774D01*
X161899939Y-73895000D01*
X161696061Y-73895000D01*
X161529961Y-73928039D01*
X161542767Y-73863658D01*
X177615700Y-73863658D01*
X177615700Y-74136342D01*
X177668898Y-74403785D01*
X177773249Y-74655712D01*
X177924744Y-74882440D01*
X178117560Y-75075256D01*
X178344288Y-75226751D01*
X178596215Y-75331102D01*
X178863658Y-75384300D01*
X179136342Y-75384300D01*
X179403785Y-75331102D01*
X179655712Y-75226751D01*
X179882440Y-75075256D01*
X180075256Y-74882440D01*
X180226751Y-74655712D01*
X180331102Y-74403785D01*
X180384300Y-74136342D01*
X180384300Y-73863658D01*
X180331102Y-73596215D01*
X180226751Y-73344288D01*
X180075256Y-73117560D01*
X179882440Y-72924744D01*
X179655712Y-72773249D01*
X179403785Y-72668898D01*
X179136342Y-72615700D01*
X178863658Y-72615700D01*
X178596215Y-72668898D01*
X178344288Y-72773249D01*
X178117560Y-72924744D01*
X177924744Y-73117560D01*
X177773249Y-73344288D01*
X177668898Y-73596215D01*
X177615700Y-73863658D01*
X161542767Y-73863658D01*
X161563000Y-73761939D01*
X161563000Y-73558061D01*
X161523226Y-73358102D01*
X161445205Y-73169744D01*
X161432013Y-73150000D01*
X162364289Y-73150000D01*
X162408226Y-73193937D01*
X162577744Y-73307205D01*
X162766102Y-73385226D01*
X162966061Y-73425000D01*
X163169939Y-73425000D01*
X163369898Y-73385226D01*
X163558256Y-73307205D01*
X163727774Y-73193937D01*
X163871937Y-73049774D01*
X163985205Y-72880256D01*
X164063226Y-72691898D01*
X164103000Y-72491939D01*
X164103000Y-72288061D01*
X164063226Y-72088102D01*
X164024523Y-71994665D01*
X185763000Y-71994665D01*
X185763000Y-72277335D01*
X185818147Y-72554574D01*
X185926320Y-72815727D01*
X186083363Y-73050759D01*
X186283241Y-73250637D01*
X186518273Y-73407680D01*
X186779426Y-73515853D01*
X187056665Y-73571000D01*
X187339335Y-73571000D01*
X187616574Y-73515853D01*
X187877727Y-73407680D01*
X188112759Y-73250637D01*
X188312637Y-73050759D01*
X188469680Y-72815727D01*
X188577853Y-72554574D01*
X188633000Y-72277335D01*
X188633000Y-71994665D01*
X188577853Y-71717426D01*
X188469680Y-71456273D01*
X188312637Y-71221241D01*
X188112759Y-71021363D01*
X187877727Y-70864320D01*
X187616574Y-70756147D01*
X187339335Y-70701000D01*
X187056665Y-70701000D01*
X186779426Y-70756147D01*
X186518273Y-70864320D01*
X186283241Y-71021363D01*
X186083363Y-71221241D01*
X185926320Y-71456273D01*
X185818147Y-71717426D01*
X185763000Y-71994665D01*
X164024523Y-71994665D01*
X163985205Y-71899744D01*
X163871937Y-71730226D01*
X163727774Y-71586063D01*
X163558256Y-71472795D01*
X163369898Y-71394774D01*
X163169939Y-71355000D01*
X162966061Y-71355000D01*
X162766102Y-71394774D01*
X162577744Y-71472795D01*
X162408226Y-71586063D01*
X162364289Y-71630000D01*
X158691711Y-71630000D01*
X158647774Y-71586063D01*
X158478256Y-71472795D01*
X158289898Y-71394774D01*
X158089939Y-71355000D01*
X157886061Y-71355000D01*
X157686102Y-71394774D01*
X157497744Y-71472795D01*
X157328226Y-71586063D01*
X157184063Y-71730226D01*
X157070795Y-71899744D01*
X156992774Y-72088102D01*
X156953000Y-72288061D01*
X156953000Y-72491939D01*
X156992774Y-72691898D01*
X157070795Y-72880256D01*
X157083987Y-72900000D01*
X151071711Y-72900000D01*
X151027774Y-72856063D01*
X150858256Y-72742795D01*
X150669898Y-72664774D01*
X150469939Y-72625000D01*
X150266061Y-72625000D01*
X150066102Y-72664774D01*
X149877744Y-72742795D01*
X149708226Y-72856063D01*
X149564063Y-73000226D01*
X149450795Y-73169744D01*
X149372774Y-73358102D01*
X149333000Y-73558061D01*
X149333000Y-73761939D01*
X149366039Y-73928039D01*
X149199939Y-73895000D01*
X148996061Y-73895000D01*
X148796102Y-73934774D01*
X148607744Y-74012795D01*
X148438226Y-74126063D01*
X148294063Y-74270226D01*
X148180795Y-74439744D01*
X148102774Y-74628102D01*
X148063000Y-74828061D01*
X91660000Y-74828061D01*
X91660000Y-71289721D01*
X113365000Y-71289721D01*
X113365000Y-71710279D01*
X113447047Y-72122756D01*
X113607988Y-72511302D01*
X113841637Y-72860983D01*
X114139017Y-73158363D01*
X114488698Y-73392012D01*
X114877244Y-73552953D01*
X115289721Y-73635000D01*
X115710279Y-73635000D01*
X116122756Y-73552953D01*
X116511302Y-73392012D01*
X116860983Y-73158363D01*
X117158363Y-72860983D01*
X117392012Y-72511302D01*
X117552953Y-72122756D01*
X117635000Y-71710279D01*
X117635000Y-71289721D01*
X117552953Y-70877244D01*
X117392012Y-70488698D01*
X117193222Y-70191186D01*
X128705677Y-70191186D01*
X128798031Y-70446504D01*
X128938421Y-70678899D01*
X129121451Y-70879440D01*
X129340088Y-71040420D01*
X129585930Y-71155653D01*
X129706815Y-71192318D01*
X129921000Y-71069656D01*
X129921000Y-69977000D01*
X130175000Y-69977000D01*
X130175000Y-71069656D01*
X130389185Y-71192318D01*
X130510070Y-71155653D01*
X130755912Y-71040420D01*
X130974549Y-70879440D01*
X131157579Y-70678899D01*
X131297969Y-70446504D01*
X131390323Y-70191186D01*
X131268420Y-69977000D01*
X130175000Y-69977000D01*
X129921000Y-69977000D01*
X128827580Y-69977000D01*
X128705677Y-70191186D01*
X117193222Y-70191186D01*
X117158363Y-70139017D01*
X116860983Y-69841637D01*
X116511302Y-69607988D01*
X116271875Y-69508814D01*
X128705677Y-69508814D01*
X128827580Y-69723000D01*
X129921000Y-69723000D01*
X129921000Y-68630344D01*
X130175000Y-68630344D01*
X130175000Y-69723000D01*
X131268420Y-69723000D01*
X131276578Y-69708665D01*
X146393000Y-69708665D01*
X146393000Y-69991335D01*
X146448147Y-70268574D01*
X146556320Y-70529727D01*
X146713363Y-70764759D01*
X146913241Y-70964637D01*
X147148273Y-71121680D01*
X147409426Y-71229853D01*
X147686665Y-71285000D01*
X147969335Y-71285000D01*
X148246574Y-71229853D01*
X148507727Y-71121680D01*
X148742759Y-70964637D01*
X148942637Y-70764759D01*
X149098000Y-70532241D01*
X149253363Y-70764759D01*
X149453241Y-70964637D01*
X149688273Y-71121680D01*
X149949426Y-71229853D01*
X150226665Y-71285000D01*
X150509335Y-71285000D01*
X150786574Y-71229853D01*
X151047727Y-71121680D01*
X151282759Y-70964637D01*
X151482637Y-70764759D01*
X151638000Y-70532241D01*
X151793363Y-70764759D01*
X151993241Y-70964637D01*
X152228273Y-71121680D01*
X152489426Y-71229853D01*
X152766665Y-71285000D01*
X153049335Y-71285000D01*
X153326574Y-71229853D01*
X153587727Y-71121680D01*
X153822759Y-70964637D01*
X154022637Y-70764759D01*
X154179680Y-70529727D01*
X154184067Y-70519135D01*
X154295615Y-70705131D01*
X154484586Y-70913519D01*
X154710580Y-71081037D01*
X154964913Y-71201246D01*
X155098961Y-71241904D01*
X155321000Y-71119915D01*
X155321000Y-69977000D01*
X155575000Y-69977000D01*
X155575000Y-71119915D01*
X155797039Y-71241904D01*
X155931087Y-71201246D01*
X156185420Y-71081037D01*
X156411414Y-70913519D01*
X156600385Y-70705131D01*
X156718000Y-70509018D01*
X156835615Y-70705131D01*
X157024586Y-70913519D01*
X157250580Y-71081037D01*
X157504913Y-71201246D01*
X157638961Y-71241904D01*
X157861000Y-71119915D01*
X157861000Y-69977000D01*
X155575000Y-69977000D01*
X155321000Y-69977000D01*
X155301000Y-69977000D01*
X155301000Y-69723000D01*
X155321000Y-69723000D01*
X155321000Y-68580085D01*
X155575000Y-68580085D01*
X155575000Y-69723000D01*
X157861000Y-69723000D01*
X157861000Y-68580085D01*
X158115000Y-68580085D01*
X158115000Y-69723000D01*
X158135000Y-69723000D01*
X158135000Y-69977000D01*
X158115000Y-69977000D01*
X158115000Y-71119915D01*
X158337039Y-71241904D01*
X158471087Y-71201246D01*
X158725420Y-71081037D01*
X158951414Y-70913519D01*
X159140385Y-70705131D01*
X159251933Y-70519135D01*
X159256320Y-70529727D01*
X159413363Y-70764759D01*
X159613241Y-70964637D01*
X159848273Y-71121680D01*
X160109426Y-71229853D01*
X160386665Y-71285000D01*
X160669335Y-71285000D01*
X160946574Y-71229853D01*
X161207727Y-71121680D01*
X161442759Y-70964637D01*
X161642637Y-70764759D01*
X161798000Y-70532241D01*
X161953363Y-70764759D01*
X162153241Y-70964637D01*
X162388273Y-71121680D01*
X162649426Y-71229853D01*
X162926665Y-71285000D01*
X163209335Y-71285000D01*
X163486574Y-71229853D01*
X163747727Y-71121680D01*
X163982759Y-70964637D01*
X164182637Y-70764759D01*
X164338000Y-70532241D01*
X164493363Y-70764759D01*
X164693241Y-70964637D01*
X164928273Y-71121680D01*
X165189426Y-71229853D01*
X165466665Y-71285000D01*
X165749335Y-71285000D01*
X166026574Y-71229853D01*
X166287727Y-71121680D01*
X166522759Y-70964637D01*
X166722637Y-70764759D01*
X166879680Y-70529727D01*
X166987853Y-70268574D01*
X167043000Y-69991335D01*
X167043000Y-69708665D01*
X166987853Y-69431426D01*
X166879680Y-69170273D01*
X166722637Y-68935241D01*
X166522759Y-68735363D01*
X166287727Y-68578320D01*
X166026574Y-68470147D01*
X165749335Y-68415000D01*
X165466665Y-68415000D01*
X165189426Y-68470147D01*
X164928273Y-68578320D01*
X164693241Y-68735363D01*
X164493363Y-68935241D01*
X164338000Y-69167759D01*
X164182637Y-68935241D01*
X163982759Y-68735363D01*
X163747727Y-68578320D01*
X163486574Y-68470147D01*
X163209335Y-68415000D01*
X162926665Y-68415000D01*
X162649426Y-68470147D01*
X162388273Y-68578320D01*
X162153241Y-68735363D01*
X161953363Y-68935241D01*
X161798000Y-69167759D01*
X161642637Y-68935241D01*
X161442759Y-68735363D01*
X161207727Y-68578320D01*
X160946574Y-68470147D01*
X160669335Y-68415000D01*
X160386665Y-68415000D01*
X160109426Y-68470147D01*
X159848273Y-68578320D01*
X159613241Y-68735363D01*
X159413363Y-68935241D01*
X159256320Y-69170273D01*
X159251933Y-69180865D01*
X159140385Y-68994869D01*
X158951414Y-68786481D01*
X158725420Y-68618963D01*
X158471087Y-68498754D01*
X158337039Y-68458096D01*
X158115000Y-68580085D01*
X157861000Y-68580085D01*
X157638961Y-68458096D01*
X157504913Y-68498754D01*
X157250580Y-68618963D01*
X157024586Y-68786481D01*
X156835615Y-68994869D01*
X156718000Y-69190982D01*
X156600385Y-68994869D01*
X156411414Y-68786481D01*
X156185420Y-68618963D01*
X155931087Y-68498754D01*
X155797039Y-68458096D01*
X155575000Y-68580085D01*
X155321000Y-68580085D01*
X155098961Y-68458096D01*
X154964913Y-68498754D01*
X154710580Y-68618963D01*
X154484586Y-68786481D01*
X154295615Y-68994869D01*
X154184067Y-69180865D01*
X154179680Y-69170273D01*
X154022637Y-68935241D01*
X153822759Y-68735363D01*
X153587727Y-68578320D01*
X153326574Y-68470147D01*
X153049335Y-68415000D01*
X152766665Y-68415000D01*
X152489426Y-68470147D01*
X152228273Y-68578320D01*
X151993241Y-68735363D01*
X151793363Y-68935241D01*
X151638000Y-69167759D01*
X151482637Y-68935241D01*
X151282759Y-68735363D01*
X151047727Y-68578320D01*
X150786574Y-68470147D01*
X150509335Y-68415000D01*
X150226665Y-68415000D01*
X149949426Y-68470147D01*
X149688273Y-68578320D01*
X149453241Y-68735363D01*
X149253363Y-68935241D01*
X149098000Y-69167759D01*
X148942637Y-68935241D01*
X148742759Y-68735363D01*
X148588000Y-68631957D01*
X148588000Y-67624801D01*
X148980712Y-67232089D01*
X177057516Y-67232089D01*
X177105218Y-67456004D01*
X177327141Y-67557218D01*
X177564545Y-67613191D01*
X177783196Y-67620891D01*
X177761750Y-67728703D01*
X177761750Y-67972617D01*
X177809336Y-68211844D01*
X177902677Y-68437191D01*
X178038189Y-68639998D01*
X178210662Y-68812471D01*
X178413469Y-68947983D01*
X178638816Y-69041324D01*
X178878043Y-69088910D01*
X179121957Y-69088910D01*
X179361184Y-69041324D01*
X179586531Y-68947983D01*
X179789338Y-68812471D01*
X179961811Y-68639998D01*
X180097323Y-68437191D01*
X180190664Y-68211844D01*
X180238250Y-67972617D01*
X180238250Y-67728703D01*
X180220321Y-67638570D01*
X180419897Y-67638570D01*
X180659124Y-67590984D01*
X180884471Y-67497643D01*
X181087278Y-67362131D01*
X181259751Y-67189658D01*
X181395263Y-66986851D01*
X181488604Y-66761504D01*
X181536190Y-66522277D01*
X181536190Y-66278363D01*
X181488604Y-66039136D01*
X181395263Y-65813789D01*
X181259751Y-65610982D01*
X181087278Y-65438509D01*
X180884471Y-65302997D01*
X180659124Y-65209656D01*
X180419897Y-65162070D01*
X180175983Y-65162070D01*
X179936756Y-65209656D01*
X179711409Y-65302997D01*
X179508602Y-65438509D01*
X179336129Y-65610982D01*
X179200617Y-65813789D01*
X179107276Y-66039136D01*
X179059690Y-66278363D01*
X179059690Y-66522277D01*
X179077619Y-66612410D01*
X178947405Y-66612410D01*
X178963191Y-66545455D01*
X178971775Y-66301691D01*
X178932637Y-66060938D01*
X178847283Y-65832446D01*
X178806004Y-65755218D01*
X178582089Y-65707516D01*
X177909605Y-66380000D01*
X177923748Y-66394143D01*
X177744143Y-66573748D01*
X177730000Y-66559605D01*
X177057516Y-67232089D01*
X148980712Y-67232089D01*
X149412802Y-66800000D01*
X164300678Y-66800000D01*
X164338000Y-66803676D01*
X164375322Y-66800000D01*
X164375333Y-66800000D01*
X164486986Y-66789003D01*
X164630247Y-66745546D01*
X164762276Y-66674974D01*
X164878001Y-66580001D01*
X164901804Y-66550997D01*
X164994492Y-66458309D01*
X176488225Y-66458309D01*
X176527363Y-66699062D01*
X176612717Y-66927554D01*
X176653996Y-67004782D01*
X176877911Y-67052484D01*
X177550395Y-66380000D01*
X176877911Y-65707516D01*
X176653996Y-65755218D01*
X176552782Y-65977141D01*
X176496809Y-66214545D01*
X176488225Y-66458309D01*
X164994492Y-66458309D01*
X165924890Y-65527911D01*
X177057516Y-65527911D01*
X177730000Y-66200395D01*
X178402484Y-65527911D01*
X178354782Y-65303996D01*
X178132859Y-65202782D01*
X177895455Y-65146809D01*
X177651691Y-65138225D01*
X177410938Y-65177363D01*
X177182446Y-65262717D01*
X177105218Y-65303996D01*
X177057516Y-65527911D01*
X165924890Y-65527911D01*
X166119004Y-65333798D01*
X166148001Y-65310001D01*
X166242974Y-65194276D01*
X166313546Y-65062247D01*
X166357003Y-64918986D01*
X166368000Y-64807333D01*
X166368000Y-64807324D01*
X166371676Y-64770001D01*
X166368000Y-64732678D01*
X166368000Y-63668072D01*
X166408000Y-63668072D01*
X166532482Y-63655812D01*
X166652180Y-63619502D01*
X166762494Y-63560537D01*
X166859185Y-63481185D01*
X166938537Y-63384494D01*
X166997502Y-63274180D01*
X167033812Y-63154482D01*
X167046072Y-63030000D01*
X167046072Y-62436702D01*
X176936903Y-62436702D01*
X177008486Y-62680671D01*
X177263996Y-62801571D01*
X177538184Y-62870300D01*
X177820512Y-62884217D01*
X178100130Y-62842787D01*
X178366292Y-62747603D01*
X178491514Y-62680671D01*
X178563097Y-62436702D01*
X177750000Y-61623605D01*
X176936903Y-62436702D01*
X167046072Y-62436702D01*
X167046072Y-61514512D01*
X176309783Y-61514512D01*
X176351213Y-61794130D01*
X176446397Y-62060292D01*
X176513329Y-62185514D01*
X176757298Y-62257097D01*
X177570395Y-61444000D01*
X177929605Y-61444000D01*
X178742702Y-62257097D01*
X178986671Y-62185514D01*
X179000324Y-62156659D01*
X179135363Y-62358759D01*
X179335241Y-62558637D01*
X179570273Y-62715680D01*
X179831426Y-62823853D01*
X180108665Y-62879000D01*
X180391335Y-62879000D01*
X180668574Y-62823853D01*
X180929727Y-62715680D01*
X181164759Y-62558637D01*
X181364637Y-62358759D01*
X181521680Y-62123727D01*
X181629853Y-61862574D01*
X181685000Y-61585335D01*
X181685000Y-61302665D01*
X181629853Y-61025426D01*
X181521680Y-60764273D01*
X181364637Y-60529241D01*
X181164759Y-60329363D01*
X180929727Y-60172320D01*
X180668574Y-60064147D01*
X180391335Y-60009000D01*
X180108665Y-60009000D01*
X179831426Y-60064147D01*
X179570273Y-60172320D01*
X179335241Y-60329363D01*
X179135363Y-60529241D01*
X179001308Y-60729869D01*
X178986671Y-60702486D01*
X178742702Y-60630903D01*
X177929605Y-61444000D01*
X177570395Y-61444000D01*
X176757298Y-60630903D01*
X176513329Y-60702486D01*
X176392429Y-60957996D01*
X176323700Y-61232184D01*
X176309783Y-61514512D01*
X167046072Y-61514512D01*
X167046072Y-61430000D01*
X167033812Y-61305518D01*
X166997502Y-61185820D01*
X166938537Y-61075506D01*
X166859185Y-60978815D01*
X166762494Y-60899463D01*
X166652180Y-60840498D01*
X166532482Y-60804188D01*
X166408000Y-60791928D01*
X164808000Y-60791928D01*
X164683518Y-60804188D01*
X164563820Y-60840498D01*
X164453506Y-60899463D01*
X164356815Y-60978815D01*
X164277463Y-61075506D01*
X164218498Y-61185820D01*
X164182188Y-61305518D01*
X164181357Y-61313961D01*
X163982759Y-61115363D01*
X163747727Y-60958320D01*
X163486574Y-60850147D01*
X163209335Y-60795000D01*
X162926665Y-60795000D01*
X162649426Y-60850147D01*
X162388273Y-60958320D01*
X162153241Y-61115363D01*
X161953363Y-61315241D01*
X161798000Y-61547759D01*
X161642637Y-61315241D01*
X161442759Y-61115363D01*
X161207727Y-60958320D01*
X160946574Y-60850147D01*
X160669335Y-60795000D01*
X160386665Y-60795000D01*
X160109426Y-60850147D01*
X159848273Y-60958320D01*
X159613241Y-61115363D01*
X159413363Y-61315241D01*
X159256320Y-61550273D01*
X159251933Y-61560865D01*
X159140385Y-61374869D01*
X158951414Y-61166481D01*
X158725420Y-60998963D01*
X158471087Y-60878754D01*
X158337039Y-60838096D01*
X158115000Y-60960085D01*
X158115000Y-62103000D01*
X158135000Y-62103000D01*
X158135000Y-62357000D01*
X158115000Y-62357000D01*
X158115000Y-63499915D01*
X158337039Y-63621904D01*
X158471087Y-63581246D01*
X158725420Y-63461037D01*
X158951414Y-63293519D01*
X159140385Y-63085131D01*
X159251933Y-62899135D01*
X159256320Y-62909727D01*
X159413363Y-63144759D01*
X159613241Y-63344637D01*
X159848273Y-63501680D01*
X160109426Y-63609853D01*
X160386665Y-63665000D01*
X160669335Y-63665000D01*
X160946574Y-63609853D01*
X161207727Y-63501680D01*
X161442759Y-63344637D01*
X161642637Y-63144759D01*
X161798000Y-62912241D01*
X161953363Y-63144759D01*
X162153241Y-63344637D01*
X162388273Y-63501680D01*
X162649426Y-63609853D01*
X162926665Y-63665000D01*
X163209335Y-63665000D01*
X163486574Y-63609853D01*
X163747727Y-63501680D01*
X163982759Y-63344637D01*
X164181357Y-63146039D01*
X164182188Y-63154482D01*
X164218498Y-63274180D01*
X164277463Y-63384494D01*
X164356815Y-63481185D01*
X164453506Y-63560537D01*
X164563820Y-63619502D01*
X164683518Y-63655812D01*
X164808000Y-63668072D01*
X164848000Y-63668072D01*
X164848000Y-64455198D01*
X164023199Y-65280000D01*
X149135322Y-65280000D01*
X149097999Y-65276324D01*
X149060676Y-65280000D01*
X149060667Y-65280000D01*
X148949014Y-65290997D01*
X148805753Y-65334454D01*
X148673724Y-65405026D01*
X148557999Y-65499999D01*
X148534201Y-65528997D01*
X147316998Y-66746201D01*
X147288000Y-66769999D01*
X147264202Y-66798997D01*
X147264201Y-66798998D01*
X147193026Y-66885724D01*
X147122454Y-67017754D01*
X147106486Y-67070395D01*
X147078998Y-67161014D01*
X147076177Y-67189658D01*
X147064324Y-67310000D01*
X147068001Y-67347332D01*
X147068000Y-68631956D01*
X146913241Y-68735363D01*
X146713363Y-68935241D01*
X146556320Y-69170273D01*
X146448147Y-69431426D01*
X146393000Y-69708665D01*
X131276578Y-69708665D01*
X131390323Y-69508814D01*
X131297969Y-69253496D01*
X131157579Y-69021101D01*
X130974549Y-68820560D01*
X130755912Y-68659580D01*
X130510070Y-68544347D01*
X130389185Y-68507682D01*
X130175000Y-68630344D01*
X129921000Y-68630344D01*
X129706815Y-68507682D01*
X129585930Y-68544347D01*
X129340088Y-68659580D01*
X129121451Y-68820560D01*
X128938421Y-69021101D01*
X128798031Y-69253496D01*
X128705677Y-69508814D01*
X116271875Y-69508814D01*
X116122756Y-69447047D01*
X115710279Y-69365000D01*
X115289721Y-69365000D01*
X114877244Y-69447047D01*
X114488698Y-69607988D01*
X114139017Y-69841637D01*
X113841637Y-70139017D01*
X113607988Y-70488698D01*
X113447047Y-70877244D01*
X113365000Y-71289721D01*
X91660000Y-71289721D01*
X91660000Y-68242702D01*
X140186903Y-68242702D01*
X140258486Y-68486671D01*
X140513996Y-68607571D01*
X140788184Y-68676300D01*
X141070512Y-68690217D01*
X141350130Y-68648787D01*
X141616292Y-68553603D01*
X141741514Y-68486671D01*
X141813097Y-68242702D01*
X141000000Y-67429605D01*
X140186903Y-68242702D01*
X91660000Y-68242702D01*
X91660000Y-67320512D01*
X139559783Y-67320512D01*
X139601213Y-67600130D01*
X139696397Y-67866292D01*
X139763329Y-67991514D01*
X140007298Y-68063097D01*
X140820395Y-67250000D01*
X141179605Y-67250000D01*
X141992702Y-68063097D01*
X142236671Y-67991514D01*
X142357571Y-67736004D01*
X142426300Y-67461816D01*
X142440217Y-67179488D01*
X142398787Y-66899870D01*
X142303603Y-66633708D01*
X142236671Y-66508486D01*
X141992702Y-66436903D01*
X141179605Y-67250000D01*
X140820395Y-67250000D01*
X140007298Y-66436903D01*
X139763329Y-66508486D01*
X139642429Y-66763996D01*
X139573700Y-67038184D01*
X139559783Y-67320512D01*
X91660000Y-67320512D01*
X91660000Y-66257298D01*
X140186903Y-66257298D01*
X141000000Y-67070395D01*
X141813097Y-66257298D01*
X141741514Y-66013329D01*
X141486004Y-65892429D01*
X141211816Y-65823700D01*
X140929488Y-65809783D01*
X140649870Y-65851213D01*
X140383708Y-65946397D01*
X140258486Y-66013329D01*
X140186903Y-66257298D01*
X91660000Y-66257298D01*
X91660000Y-62088665D01*
X104483000Y-62088665D01*
X104483000Y-62371335D01*
X104538147Y-62648574D01*
X104646320Y-62909727D01*
X104803363Y-63144759D01*
X105003241Y-63344637D01*
X105238273Y-63501680D01*
X105499426Y-63609853D01*
X105776665Y-63665000D01*
X106059335Y-63665000D01*
X106310699Y-63615000D01*
X129266808Y-63615000D01*
X129298000Y-63618072D01*
X130798000Y-63618072D01*
X130829192Y-63615000D01*
X140545568Y-63615000D01*
X140581426Y-63629853D01*
X140858665Y-63685000D01*
X141141335Y-63685000D01*
X141418574Y-63629853D01*
X141454432Y-63615000D01*
X147435301Y-63615000D01*
X147686665Y-63665000D01*
X147969335Y-63665000D01*
X148246574Y-63609853D01*
X148507727Y-63501680D01*
X148742759Y-63344637D01*
X148942637Y-63144759D01*
X149098000Y-62912241D01*
X149253363Y-63144759D01*
X149453241Y-63344637D01*
X149688273Y-63501680D01*
X149949426Y-63609853D01*
X150226665Y-63665000D01*
X150509335Y-63665000D01*
X150786574Y-63609853D01*
X151047727Y-63501680D01*
X151282759Y-63344637D01*
X151482637Y-63144759D01*
X151638000Y-62912241D01*
X151793363Y-63144759D01*
X151993241Y-63344637D01*
X152228273Y-63501680D01*
X152489426Y-63609853D01*
X152766665Y-63665000D01*
X153049335Y-63665000D01*
X153326574Y-63609853D01*
X153587727Y-63501680D01*
X153822759Y-63344637D01*
X154022637Y-63144759D01*
X154179680Y-62909727D01*
X154184067Y-62899135D01*
X154295615Y-63085131D01*
X154484586Y-63293519D01*
X154710580Y-63461037D01*
X154964913Y-63581246D01*
X155098961Y-63621904D01*
X155321000Y-63499915D01*
X155321000Y-62357000D01*
X155575000Y-62357000D01*
X155575000Y-63499915D01*
X155797039Y-63621904D01*
X155931087Y-63581246D01*
X156185420Y-63461037D01*
X156411414Y-63293519D01*
X156600385Y-63085131D01*
X156718000Y-62889018D01*
X156835615Y-63085131D01*
X157024586Y-63293519D01*
X157250580Y-63461037D01*
X157504913Y-63581246D01*
X157638961Y-63621904D01*
X157861000Y-63499915D01*
X157861000Y-62357000D01*
X155575000Y-62357000D01*
X155321000Y-62357000D01*
X155301000Y-62357000D01*
X155301000Y-62103000D01*
X155321000Y-62103000D01*
X155321000Y-60960085D01*
X155575000Y-60960085D01*
X155575000Y-62103000D01*
X157861000Y-62103000D01*
X157861000Y-60960085D01*
X157638961Y-60838096D01*
X157504913Y-60878754D01*
X157250580Y-60998963D01*
X157024586Y-61166481D01*
X156835615Y-61374869D01*
X156718000Y-61570982D01*
X156600385Y-61374869D01*
X156411414Y-61166481D01*
X156185420Y-60998963D01*
X155931087Y-60878754D01*
X155797039Y-60838096D01*
X155575000Y-60960085D01*
X155321000Y-60960085D01*
X155098961Y-60838096D01*
X154964913Y-60878754D01*
X154710580Y-60998963D01*
X154484586Y-61166481D01*
X154295615Y-61374869D01*
X154184067Y-61560865D01*
X154179680Y-61550273D01*
X154022637Y-61315241D01*
X153822759Y-61115363D01*
X153587727Y-60958320D01*
X153326574Y-60850147D01*
X153049335Y-60795000D01*
X152766665Y-60795000D01*
X152489426Y-60850147D01*
X152228273Y-60958320D01*
X151993241Y-61115363D01*
X151793363Y-61315241D01*
X151638000Y-61547759D01*
X151482637Y-61315241D01*
X151282759Y-61115363D01*
X151047727Y-60958320D01*
X150786574Y-60850147D01*
X150509335Y-60795000D01*
X150226665Y-60795000D01*
X149949426Y-60850147D01*
X149688273Y-60958320D01*
X149453241Y-61115363D01*
X149253363Y-61315241D01*
X149098000Y-61547759D01*
X148942637Y-61315241D01*
X148742759Y-61115363D01*
X148507727Y-60958320D01*
X148246574Y-60850147D01*
X147969335Y-60795000D01*
X147686665Y-60795000D01*
X147435301Y-60845000D01*
X141292153Y-60845000D01*
X141141335Y-60815000D01*
X140858665Y-60815000D01*
X140707847Y-60845000D01*
X130829192Y-60845000D01*
X130798000Y-60841928D01*
X129298000Y-60841928D01*
X129266808Y-60845000D01*
X106310699Y-60845000D01*
X106059335Y-60795000D01*
X105776665Y-60795000D01*
X105499426Y-60850147D01*
X105238273Y-60958320D01*
X105003241Y-61115363D01*
X104803363Y-61315241D01*
X104646320Y-61550273D01*
X104538147Y-61811426D01*
X104483000Y-62088665D01*
X91660000Y-62088665D01*
X91660000Y-60451298D01*
X176936903Y-60451298D01*
X177750000Y-61264395D01*
X178563097Y-60451298D01*
X178491514Y-60207329D01*
X178236004Y-60086429D01*
X177961816Y-60017700D01*
X177679488Y-60003783D01*
X177399870Y-60045213D01*
X177133708Y-60140397D01*
X177008486Y-60207329D01*
X176936903Y-60451298D01*
X91660000Y-60451298D01*
X91660000Y-54508061D01*
X150603000Y-54508061D01*
X150603000Y-54711939D01*
X150642774Y-54911898D01*
X150720795Y-55100256D01*
X150834063Y-55269774D01*
X150978226Y-55413937D01*
X151147744Y-55527205D01*
X151336102Y-55605226D01*
X151536061Y-55645000D01*
X151739939Y-55645000D01*
X151906039Y-55611961D01*
X151873000Y-55778061D01*
X151873000Y-55981939D01*
X151912774Y-56181898D01*
X151990795Y-56370256D01*
X152104063Y-56539774D01*
X152248226Y-56683937D01*
X152417744Y-56797205D01*
X152606102Y-56875226D01*
X152806061Y-56915000D01*
X153009939Y-56915000D01*
X153209898Y-56875226D01*
X153398256Y-56797205D01*
X153567774Y-56683937D01*
X153611711Y-56640000D01*
X159623987Y-56640000D01*
X159610795Y-56659744D01*
X159532774Y-56848102D01*
X159493000Y-57048061D01*
X159493000Y-57251939D01*
X159532774Y-57451898D01*
X159610795Y-57640256D01*
X159724063Y-57809774D01*
X159868226Y-57953937D01*
X160037744Y-58067205D01*
X160226102Y-58145226D01*
X160426061Y-58185000D01*
X160629939Y-58185000D01*
X160796039Y-58151961D01*
X160763000Y-58318061D01*
X160763000Y-58521939D01*
X160802774Y-58721898D01*
X160880795Y-58910256D01*
X160994063Y-59079774D01*
X161138226Y-59223937D01*
X161307744Y-59337205D01*
X161496102Y-59415226D01*
X161696061Y-59455000D01*
X161899939Y-59455000D01*
X162099898Y-59415226D01*
X162288256Y-59337205D01*
X162457774Y-59223937D01*
X162501711Y-59180000D01*
X164904289Y-59180000D01*
X164948226Y-59223937D01*
X165117744Y-59337205D01*
X165306102Y-59415226D01*
X165506061Y-59455000D01*
X165709939Y-59455000D01*
X165909898Y-59415226D01*
X166098256Y-59337205D01*
X166267774Y-59223937D01*
X166411937Y-59079774D01*
X166525205Y-58910256D01*
X166550164Y-58850000D01*
X190386928Y-58850000D01*
X190399188Y-58974482D01*
X190435498Y-59094180D01*
X190494463Y-59204494D01*
X190573815Y-59301185D01*
X190670506Y-59380537D01*
X190780820Y-59439502D01*
X190900518Y-59475812D01*
X191025000Y-59488072D01*
X191714250Y-59485000D01*
X191873000Y-59326250D01*
X191873000Y-58127000D01*
X192127000Y-58127000D01*
X192127000Y-59326250D01*
X192285750Y-59485000D01*
X192975000Y-59488072D01*
X193099482Y-59475812D01*
X193219180Y-59439502D01*
X193329494Y-59380537D01*
X193426185Y-59301185D01*
X193505537Y-59204494D01*
X193564502Y-59094180D01*
X193600812Y-58974482D01*
X193613072Y-58850000D01*
X193610000Y-58285750D01*
X193451250Y-58127000D01*
X192127000Y-58127000D01*
X191873000Y-58127000D01*
X190548750Y-58127000D01*
X190390000Y-58285750D01*
X190386928Y-58850000D01*
X166550164Y-58850000D01*
X166603226Y-58721898D01*
X166643000Y-58521939D01*
X166643000Y-58318061D01*
X166603226Y-58118102D01*
X166525205Y-57929744D01*
X166512013Y-57910000D01*
X172524289Y-57910000D01*
X172568226Y-57953937D01*
X172737744Y-58067205D01*
X172926102Y-58145226D01*
X173126061Y-58185000D01*
X173329939Y-58185000D01*
X173529898Y-58145226D01*
X173718256Y-58067205D01*
X173887774Y-57953937D01*
X174031937Y-57809774D01*
X174145205Y-57640256D01*
X174223226Y-57451898D01*
X174263000Y-57251939D01*
X174263000Y-57048061D01*
X174223226Y-56848102D01*
X174145205Y-56659744D01*
X174031937Y-56490226D01*
X173887774Y-56346063D01*
X173718256Y-56232795D01*
X173529898Y-56154774D01*
X173329939Y-56115000D01*
X173126061Y-56115000D01*
X172926102Y-56154774D01*
X172737744Y-56232795D01*
X172568226Y-56346063D01*
X172524289Y-56390000D01*
X171592013Y-56390000D01*
X171605205Y-56370256D01*
X171683226Y-56181898D01*
X171723000Y-55981939D01*
X171723000Y-55778061D01*
X171683226Y-55578102D01*
X171605205Y-55389744D01*
X171491937Y-55220226D01*
X171347774Y-55076063D01*
X171178256Y-54962795D01*
X170989898Y-54884774D01*
X170789939Y-54845000D01*
X170586061Y-54845000D01*
X170386102Y-54884774D01*
X170197744Y-54962795D01*
X170028226Y-55076063D01*
X169984289Y-55120000D01*
X169052013Y-55120000D01*
X169065205Y-55100256D01*
X169143226Y-54911898D01*
X169183000Y-54711939D01*
X169183000Y-54508061D01*
X169143226Y-54308102D01*
X169065205Y-54119744D01*
X168951937Y-53950226D01*
X168807774Y-53806063D01*
X168638256Y-53692795D01*
X168449898Y-53614774D01*
X168249939Y-53575000D01*
X168046061Y-53575000D01*
X167846102Y-53614774D01*
X167657744Y-53692795D01*
X167488226Y-53806063D01*
X167444289Y-53850000D01*
X152341711Y-53850000D01*
X152297774Y-53806063D01*
X152128256Y-53692795D01*
X151939898Y-53614774D01*
X151739939Y-53575000D01*
X151536061Y-53575000D01*
X151336102Y-53614774D01*
X151147744Y-53692795D01*
X150978226Y-53806063D01*
X150834063Y-53950226D01*
X150720795Y-54119744D01*
X150642774Y-54308102D01*
X150603000Y-54508061D01*
X91660000Y-54508061D01*
X91660000Y-50500000D01*
X190382815Y-50500000D01*
X190411487Y-50791111D01*
X190496401Y-51071034D01*
X190634294Y-51329014D01*
X190819866Y-51555134D01*
X191045986Y-51740706D01*
X191063374Y-51750000D01*
X191045986Y-51759294D01*
X190819866Y-51944866D01*
X190634294Y-52170986D01*
X190496401Y-52428966D01*
X190411487Y-52708889D01*
X190382815Y-53000000D01*
X190411487Y-53291111D01*
X190496401Y-53571034D01*
X190634294Y-53829014D01*
X190819866Y-54055134D01*
X191045986Y-54240706D01*
X191063374Y-54250000D01*
X191045986Y-54259294D01*
X190819866Y-54444866D01*
X190634294Y-54670986D01*
X190496401Y-54928966D01*
X190411487Y-55208889D01*
X190382815Y-55500000D01*
X190411487Y-55791111D01*
X190496401Y-56071034D01*
X190634294Y-56329014D01*
X190815608Y-56549945D01*
X190780820Y-56560498D01*
X190670506Y-56619463D01*
X190573815Y-56698815D01*
X190494463Y-56795506D01*
X190435498Y-56905820D01*
X190399188Y-57025518D01*
X190386928Y-57150000D01*
X190390000Y-57714250D01*
X190548750Y-57873000D01*
X191873000Y-57873000D01*
X191873000Y-57853000D01*
X192127000Y-57853000D01*
X192127000Y-57873000D01*
X193451250Y-57873000D01*
X193610000Y-57714250D01*
X193613072Y-57150000D01*
X193600812Y-57025518D01*
X193564502Y-56905820D01*
X193505537Y-56795506D01*
X193426185Y-56698815D01*
X193329494Y-56619463D01*
X193219180Y-56560498D01*
X193184392Y-56549945D01*
X193365706Y-56329014D01*
X193503599Y-56071034D01*
X193588513Y-55791111D01*
X193617185Y-55500000D01*
X193588513Y-55208889D01*
X193503599Y-54928966D01*
X193365706Y-54670986D01*
X193180134Y-54444866D01*
X192954014Y-54259294D01*
X192936626Y-54250000D01*
X192954014Y-54240706D01*
X193180134Y-54055134D01*
X193365706Y-53829014D01*
X193503599Y-53571034D01*
X193588513Y-53291111D01*
X193617185Y-53000000D01*
X193588513Y-52708889D01*
X193503599Y-52428966D01*
X193365706Y-52170986D01*
X193180134Y-51944866D01*
X192954014Y-51759294D01*
X192936626Y-51750000D01*
X192954014Y-51740706D01*
X193180134Y-51555134D01*
X193365706Y-51329014D01*
X193503599Y-51071034D01*
X193588513Y-50791111D01*
X193617185Y-50500000D01*
X193588513Y-50208889D01*
X193503599Y-49928966D01*
X193365706Y-49670986D01*
X193180134Y-49444866D01*
X192954014Y-49259294D01*
X192696034Y-49121401D01*
X192416111Y-49036487D01*
X192197950Y-49015000D01*
X191802050Y-49015000D01*
X191583889Y-49036487D01*
X191303966Y-49121401D01*
X191045986Y-49259294D01*
X190819866Y-49444866D01*
X190634294Y-49670986D01*
X190496401Y-49928966D01*
X190411487Y-50208889D01*
X190382815Y-50500000D01*
X91660000Y-50500000D01*
X91660000Y-46802050D01*
X159243000Y-46802050D01*
X159243000Y-47197949D01*
X159264487Y-47416110D01*
X159349401Y-47696033D01*
X159487294Y-47954013D01*
X159672866Y-48180134D01*
X159898986Y-48365706D01*
X160156966Y-48503599D01*
X160436889Y-48588513D01*
X160728000Y-48617185D01*
X161019110Y-48588513D01*
X161299033Y-48503599D01*
X161557013Y-48365706D01*
X161783134Y-48180134D01*
X161968706Y-47954014D01*
X161978000Y-47936626D01*
X161987294Y-47954013D01*
X162172866Y-48180134D01*
X162398986Y-48365706D01*
X162656966Y-48503599D01*
X162936889Y-48588513D01*
X163228000Y-48617185D01*
X163519110Y-48588513D01*
X163799033Y-48503599D01*
X164057013Y-48365706D01*
X164283134Y-48180134D01*
X164468706Y-47954014D01*
X164478000Y-47936626D01*
X164487294Y-47954013D01*
X164672866Y-48180134D01*
X164898986Y-48365706D01*
X165156966Y-48503599D01*
X165436889Y-48588513D01*
X165728000Y-48617185D01*
X166019110Y-48588513D01*
X166299033Y-48503599D01*
X166557013Y-48365706D01*
X166783134Y-48180134D01*
X166968706Y-47954014D01*
X166978000Y-47936626D01*
X166987294Y-47954013D01*
X167172866Y-48180134D01*
X167398986Y-48365706D01*
X167656966Y-48503599D01*
X167936889Y-48588513D01*
X168228000Y-48617185D01*
X168519110Y-48588513D01*
X168799033Y-48503599D01*
X169057013Y-48365706D01*
X169283134Y-48180134D01*
X169468706Y-47954014D01*
X169478000Y-47936626D01*
X169487294Y-47954013D01*
X169672866Y-48180134D01*
X169898986Y-48365706D01*
X170156966Y-48503599D01*
X170436889Y-48588513D01*
X170728000Y-48617185D01*
X171019110Y-48588513D01*
X171299033Y-48503599D01*
X171557013Y-48365706D01*
X171783134Y-48180134D01*
X171835223Y-48116663D01*
X171889595Y-48218386D01*
X172000038Y-48352962D01*
X172134614Y-48463405D01*
X172288150Y-48545472D01*
X172454746Y-48596008D01*
X172628000Y-48613072D01*
X173828000Y-48613072D01*
X174001254Y-48596008D01*
X174167850Y-48545472D01*
X174321386Y-48463405D01*
X174455962Y-48352962D01*
X174566405Y-48218386D01*
X174648472Y-48064850D01*
X174699008Y-47898254D01*
X174716072Y-47725000D01*
X174716072Y-46275000D01*
X174699008Y-46101746D01*
X174648472Y-45935150D01*
X174566405Y-45781614D01*
X174455962Y-45647038D01*
X174321386Y-45536595D01*
X174167850Y-45454528D01*
X174001254Y-45403992D01*
X173828000Y-45386928D01*
X172628000Y-45386928D01*
X172454746Y-45403992D01*
X172288150Y-45454528D01*
X172134614Y-45536595D01*
X172000038Y-45647038D01*
X171889595Y-45781614D01*
X171835223Y-45883337D01*
X171783134Y-45819866D01*
X171557014Y-45634294D01*
X171299034Y-45496401D01*
X171019111Y-45411487D01*
X170728000Y-45382815D01*
X170436890Y-45411487D01*
X170156967Y-45496401D01*
X169898987Y-45634294D01*
X169672866Y-45819866D01*
X169487294Y-46045986D01*
X169478000Y-46063374D01*
X169468706Y-46045986D01*
X169283134Y-45819866D01*
X169057014Y-45634294D01*
X168799034Y-45496401D01*
X168519111Y-45411487D01*
X168228000Y-45382815D01*
X167936890Y-45411487D01*
X167656967Y-45496401D01*
X167398987Y-45634294D01*
X167172866Y-45819866D01*
X166987294Y-46045986D01*
X166978000Y-46063374D01*
X166968706Y-46045986D01*
X166783134Y-45819866D01*
X166557014Y-45634294D01*
X166299034Y-45496401D01*
X166019111Y-45411487D01*
X165728000Y-45382815D01*
X165436890Y-45411487D01*
X165156967Y-45496401D01*
X164898987Y-45634294D01*
X164672866Y-45819866D01*
X164487294Y-46045986D01*
X164478000Y-46063374D01*
X164468706Y-46045986D01*
X164283134Y-45819866D01*
X164057014Y-45634294D01*
X163799034Y-45496401D01*
X163519111Y-45411487D01*
X163228000Y-45382815D01*
X162936890Y-45411487D01*
X162656967Y-45496401D01*
X162398987Y-45634294D01*
X162172866Y-45819866D01*
X161987294Y-46045986D01*
X161978000Y-46063374D01*
X161968706Y-46045986D01*
X161783134Y-45819866D01*
X161557014Y-45634294D01*
X161299034Y-45496401D01*
X161019111Y-45411487D01*
X160728000Y-45382815D01*
X160436890Y-45411487D01*
X160156967Y-45496401D01*
X159898987Y-45634294D01*
X159672866Y-45819866D01*
X159487294Y-46045986D01*
X159349401Y-46303966D01*
X159264487Y-46583889D01*
X159243000Y-46802050D01*
X91660000Y-46802050D01*
X91660000Y-40660000D01*
X199340000Y-40660000D01*
X199340001Y-101340000D01*
G37*
%TD.AperFunction*%
%TD*%
M02*
