%TF.GenerationSoftware,KiCad,Pcbnew,5.1.10-88a1d61d58~88~ubuntu20.04.1*%
%TF.CreationDate,2021-07-11T16:49:51+02:00*%
%TF.ProjectId,anna_elsa_reel_pcb,616e6e61-5f65-46c7-9361-5f7265656c5f,rev?*%
%TF.SameCoordinates,Original*%
%TF.FileFunction,Soldermask,Bot*%
%TF.FilePolarity,Negative*%
%FSLAX46Y46*%
G04 Gerber Fmt 4.6, Leading zero omitted, Abs format (unit mm)*
G04 Created by KiCad (PCBNEW 5.1.10-88a1d61d58~88~ubuntu20.04.1) date 2021-07-11 16:49:51*
%MOMM*%
%LPD*%
G01*
G04 APERTURE LIST*
%ADD10C,1.600000*%
%ADD11C,0.901700*%
%ADD12C,1.701800*%
%ADD13C,1.409700*%
%ADD14O,1.500000X1.500000*%
%ADD15R,1.500000X1.500000*%
%ADD16R,1.600000X1.600000*%
%ADD17O,1.600000X1.600000*%
%ADD18O,1.950000X1.700000*%
%ADD19O,1.700000X1.950000*%
%ADD20C,3.000000*%
G04 APERTURE END LIST*
D10*
%TO.C,C4*%
X141000000Y-67250000D03*
X141000000Y-62250000D03*
%TD*%
%TO.C,C1*%
X171688000Y-85010000D03*
X171688000Y-80010000D03*
%TD*%
D11*
%TO.C,U3*%
X177001020Y-82948420D03*
D12*
X179000000Y-74000000D03*
D13*
X177730000Y-66380000D03*
X179000000Y-67850660D03*
X180297940Y-66400320D03*
X180270000Y-81620000D03*
X177760480Y-81599680D03*
%TD*%
D14*
%TO.C,D1*%
X130048000Y-69850000D03*
D15*
X130048000Y-62230000D03*
%TD*%
D10*
%TO.C,C3*%
X121158000Y-82010000D03*
D16*
X121158000Y-80010000D03*
%TD*%
D17*
%TO.C,R4*%
X157198000Y-88900000D03*
D10*
X157198000Y-99060000D03*
%TD*%
D17*
%TO.C,R3*%
X153148000Y-88900000D03*
D10*
X153148000Y-99060000D03*
%TD*%
D17*
%TO.C,R2*%
X149098000Y-88900000D03*
D10*
X149098000Y-99060000D03*
%TD*%
D17*
%TO.C,U1*%
X165608000Y-69850000D03*
X147828000Y-62230000D03*
X163068000Y-69850000D03*
X150368000Y-62230000D03*
X160528000Y-69850000D03*
X152908000Y-62230000D03*
X157988000Y-69850000D03*
X155448000Y-62230000D03*
X155448000Y-69850000D03*
X157988000Y-62230000D03*
X152908000Y-69850000D03*
X160528000Y-62230000D03*
X150368000Y-69850000D03*
X163068000Y-62230000D03*
X147828000Y-69850000D03*
D16*
X165608000Y-62230000D03*
%TD*%
D10*
%TO.C,C2*%
X177750000Y-61444000D03*
X180250000Y-61444000D03*
%TD*%
D17*
%TO.C,R1*%
X187198000Y-72136000D03*
D10*
X187198000Y-82296000D03*
%TD*%
D17*
%TO.C,U2*%
X145288000Y-77470000D03*
X165608000Y-85090000D03*
X147828000Y-77470000D03*
X163068000Y-85090000D03*
X150368000Y-77470000D03*
X160528000Y-85090000D03*
X152908000Y-77470000D03*
X157988000Y-85090000D03*
X155448000Y-77470000D03*
X155448000Y-85090000D03*
X157988000Y-77470000D03*
X152908000Y-85090000D03*
X160528000Y-77470000D03*
X150368000Y-85090000D03*
X163068000Y-77470000D03*
X147828000Y-85090000D03*
X165608000Y-77470000D03*
D16*
X145288000Y-85090000D03*
%TD*%
D18*
%TO.C,J3*%
X97000000Y-95000000D03*
X97000000Y-92500000D03*
X97000000Y-90000000D03*
X97000000Y-87500000D03*
X97000000Y-85000000D03*
X97000000Y-82500000D03*
X97000000Y-80000000D03*
G36*
G01*
X96275000Y-76650000D02*
X97725000Y-76650000D01*
G75*
G02*
X97975000Y-76900000I0J-250000D01*
G01*
X97975000Y-78100000D01*
G75*
G02*
X97725000Y-78350000I-250000J0D01*
G01*
X96275000Y-78350000D01*
G75*
G02*
X96025000Y-78100000I0J250000D01*
G01*
X96025000Y-76900000D01*
G75*
G02*
X96275000Y-76650000I250000J0D01*
G01*
G37*
%TD*%
D19*
%TO.C,J2*%
X160728000Y-47000000D03*
X163228000Y-47000000D03*
X165728000Y-47000000D03*
X168228000Y-47000000D03*
X170728000Y-47000000D03*
G36*
G01*
X174078000Y-46275000D02*
X174078000Y-47725000D01*
G75*
G02*
X173828000Y-47975000I-250000J0D01*
G01*
X172628000Y-47975000D01*
G75*
G02*
X172378000Y-47725000I0J250000D01*
G01*
X172378000Y-46275000D01*
G75*
G02*
X172628000Y-46025000I250000J0D01*
G01*
X173828000Y-46025000D01*
G75*
G02*
X174078000Y-46275000I0J-250000D01*
G01*
G37*
%TD*%
D18*
%TO.C,J1*%
X192000000Y-50500000D03*
X192000000Y-53000000D03*
X192000000Y-55500000D03*
G36*
G01*
X192725000Y-58850000D02*
X191275000Y-58850000D01*
G75*
G02*
X191025000Y-58600000I0J250000D01*
G01*
X191025000Y-57400000D01*
G75*
G02*
X191275000Y-57150000I250000J0D01*
G01*
X192725000Y-57150000D01*
G75*
G02*
X192975000Y-57400000I0J-250000D01*
G01*
X192975000Y-58600000D01*
G75*
G02*
X192725000Y-58850000I-250000J0D01*
G01*
G37*
%TD*%
D20*
%TO.C,H2*%
X192750000Y-94750000D03*
%TD*%
%TO.C,H1*%
X115500000Y-71500000D03*
%TD*%
M02*
