%TF.GenerationSoftware,KiCad,Pcbnew,5.1.12-84ad8e8a86~92~ubuntu20.04.1*%
%TF.CreationDate,2022-01-08T10:03:15+01:00*%
%TF.ProjectId,message_display_interface,6d657373-6167-4655-9f64-6973706c6179,rev?*%
%TF.SameCoordinates,Original*%
%TF.FileFunction,Copper,L1,Top*%
%TF.FilePolarity,Positive*%
%FSLAX46Y46*%
G04 Gerber Fmt 4.6, Leading zero omitted, Abs format (unit mm)*
G04 Created by KiCad (PCBNEW 5.1.12-84ad8e8a86~92~ubuntu20.04.1) date 2022-01-08 10:03:15*
%MOMM*%
%LPD*%
G01*
G04 APERTURE LIST*
%TA.AperFunction,ComponentPad*%
%ADD10C,6.400000*%
%TD*%
%TA.AperFunction,ComponentPad*%
%ADD11O,1.700000X1.950000*%
%TD*%
%TA.AperFunction,ComponentPad*%
%ADD12O,1.950000X1.700000*%
%TD*%
%TA.AperFunction,ComponentPad*%
%ADD13C,1.700000*%
%TD*%
%TA.AperFunction,ViaPad*%
%ADD14C,0.800000*%
%TD*%
%TA.AperFunction,Conductor*%
%ADD15C,0.800000*%
%TD*%
%TA.AperFunction,Conductor*%
%ADD16C,0.400000*%
%TD*%
G04 APERTURE END LIST*
D10*
%TO.P,H4,1*%
%TO.N,GND*%
X177750000Y-88750000D03*
%TD*%
%TO.P,H3,1*%
%TO.N,GND*%
X177750000Y-58000000D03*
%TD*%
%TO.P,H2,1*%
%TO.N,GND*%
X124250000Y-88750000D03*
%TD*%
%TO.P,H1,1*%
%TO.N,GND*%
X124250000Y-58000000D03*
%TD*%
D11*
%TO.P,J4,4*%
%TO.N,/LED_OUT*%
X158250000Y-62000000D03*
%TO.P,J4,3*%
%TO.N,Net-(J3-Pad4)*%
X155750000Y-62000000D03*
%TO.P,J4,2*%
%TO.N,VCC*%
X153250000Y-62000000D03*
%TO.P,J4,1*%
%TO.N,GND*%
%TA.AperFunction,ComponentPad*%
G36*
G01*
X149900000Y-62725000D02*
X149900000Y-61275000D01*
G75*
G02*
X150150000Y-61025000I250000J0D01*
G01*
X151350000Y-61025000D01*
G75*
G02*
X151600000Y-61275000I0J-250000D01*
G01*
X151600000Y-62725000D01*
G75*
G02*
X151350000Y-62975000I-250000J0D01*
G01*
X150150000Y-62975000D01*
G75*
G02*
X149900000Y-62725000I0J250000D01*
G01*
G37*
%TD.AperFunction*%
%TD*%
%TO.P,J3,4*%
%TO.N,Net-(J3-Pad4)*%
X158250000Y-84000000D03*
%TO.P,J3,3*%
%TO.N,/LED_IN*%
X155750000Y-84000000D03*
%TO.P,J3,2*%
%TO.N,VCC*%
X153250000Y-84000000D03*
%TO.P,J3,1*%
%TO.N,GND*%
%TA.AperFunction,ComponentPad*%
G36*
G01*
X149900000Y-84725000D02*
X149900000Y-83275000D01*
G75*
G02*
X150150000Y-83025000I250000J0D01*
G01*
X151350000Y-83025000D01*
G75*
G02*
X151600000Y-83275000I0J-250000D01*
G01*
X151600000Y-84725000D01*
G75*
G02*
X151350000Y-84975000I-250000J0D01*
G01*
X150150000Y-84975000D01*
G75*
G02*
X149900000Y-84725000I0J250000D01*
G01*
G37*
%TD.AperFunction*%
%TD*%
D12*
%TO.P,J1,8*%
%TO.N,/LED_OUT*%
X171750000Y-65000000D03*
%TO.P,J1,7*%
%TO.N,/LED_IN*%
X171750000Y-67500000D03*
%TO.P,J1,6*%
%TO.N,/MD_DOUT*%
X171750000Y-70000000D03*
%TO.P,J1,5*%
%TO.N,/MD_STROBE*%
X171750000Y-72500000D03*
%TO.P,J1,4*%
%TO.N,/MD_CLK*%
X171750000Y-75000000D03*
%TO.P,J1,3*%
%TO.N,/MD_OE*%
X171750000Y-77500000D03*
%TO.P,J1,2*%
%TO.N,VCC*%
X171750000Y-80000000D03*
%TO.P,J1,1*%
%TO.N,GND*%
%TA.AperFunction,ComponentPad*%
G36*
G01*
X172475000Y-83350000D02*
X171025000Y-83350000D01*
G75*
G02*
X170775000Y-83100000I0J250000D01*
G01*
X170775000Y-81900000D01*
G75*
G02*
X171025000Y-81650000I250000J0D01*
G01*
X172475000Y-81650000D01*
G75*
G02*
X172725000Y-81900000I0J-250000D01*
G01*
X172725000Y-83100000D01*
G75*
G02*
X172475000Y-83350000I-250000J0D01*
G01*
G37*
%TD.AperFunction*%
%TD*%
D13*
%TO.P,J2,16*%
%TO.N,/MD_DOUT*%
X136540000Y-82780000D03*
%TO.P,J2,14*%
%TO.N,Net-(J2-Pad10)*%
X136540000Y-80240000D03*
%TO.P,J2,12*%
X136540000Y-77700000D03*
%TO.P,J2,10*%
X136540000Y-75160000D03*
%TO.P,J2,8*%
%TO.N,/MD_OE*%
X136540000Y-72620000D03*
%TO.P,J2,6*%
%TO.N,Net-(J2-Pad6)*%
X136540000Y-70080000D03*
%TO.P,J2,4*%
%TO.N,Net-(J2-Pad4)*%
X136540000Y-67540000D03*
%TO.P,J2,2*%
%TO.N,VCC*%
X136540000Y-65000000D03*
%TO.P,J2,15*%
%TO.N,/MD_CLK*%
X134000000Y-82780000D03*
%TO.P,J2,13*%
%TO.N,Net-(J2-Pad10)*%
X134000000Y-80240000D03*
%TO.P,J2,11*%
X134000000Y-77700000D03*
%TO.P,J2,9*%
X134000000Y-75160000D03*
%TO.P,J2,7*%
%TO.N,/MD_STROBE*%
X134000000Y-72620000D03*
%TO.P,J2,5*%
%TO.N,Net-(J2-Pad5)*%
X134000000Y-70080000D03*
%TO.P,J2,3*%
%TO.N,Net-(J2-Pad10)*%
X134000000Y-67540000D03*
%TO.P,J2,1*%
%TO.N,GND*%
%TA.AperFunction,ComponentPad*%
G36*
G01*
X133150000Y-65600000D02*
X133150000Y-64400000D01*
G75*
G02*
X133400000Y-64150000I250000J0D01*
G01*
X134600000Y-64150000D01*
G75*
G02*
X134850000Y-64400000I0J-250000D01*
G01*
X134850000Y-65600000D01*
G75*
G02*
X134600000Y-65850000I-250000J0D01*
G01*
X133400000Y-65850000D01*
G75*
G02*
X133150000Y-65600000I0J250000D01*
G01*
G37*
%TD.AperFunction*%
%TD*%
D14*
%TO.N,/LED_IN*%
X154500000Y-67500000D03*
%TO.N,/MD_DOUT*%
X142000000Y-70250000D03*
X141250000Y-81750000D03*
%TO.N,/MD_CLK*%
X144750000Y-82750000D03*
X144750000Y-74500000D03*
X167000000Y-74750000D03*
%TD*%
D15*
%TO.N,VCC*%
X153250000Y-63775000D02*
X153250000Y-62000000D01*
X152025000Y-65000000D02*
X153250000Y-63775000D01*
X136540000Y-65000000D02*
X152025000Y-65000000D01*
X155475000Y-80000000D02*
X171750000Y-80000000D01*
X153250000Y-82225000D02*
X155475000Y-80000000D01*
X153250000Y-84000000D02*
X153250000Y-82225000D01*
D16*
%TO.N,/LED_OUT*%
X168750000Y-62000000D02*
X171750000Y-65000000D01*
X158250000Y-62000000D02*
X168750000Y-62000000D01*
%TO.N,/LED_IN*%
X171750000Y-67500000D02*
X154500000Y-67500000D01*
%TO.N,/MD_DOUT*%
X142250000Y-70000000D02*
X142000000Y-70250000D01*
X171750000Y-70000000D02*
X142250000Y-70000000D01*
X137570000Y-81750000D02*
X136540000Y-82780000D01*
X141250000Y-81750000D02*
X137570000Y-81750000D01*
%TO.N,/MD_STROBE*%
X170619999Y-71369999D02*
X171750000Y-72500000D01*
X135250001Y-71369999D02*
X170619999Y-71369999D01*
X134000000Y-72620000D02*
X135250001Y-71369999D01*
%TO.N,/MD_CLK*%
X143469999Y-84030001D02*
X144750000Y-82750000D01*
X135250001Y-84030001D02*
X143469999Y-84030001D01*
X134000000Y-82780000D02*
X135250001Y-84030001D01*
X166750000Y-74500000D02*
X167000000Y-74750000D01*
X144750000Y-74500000D02*
X166750000Y-74500000D01*
%TO.N,/MD_OE*%
X166870000Y-72620000D02*
X171750000Y-77500000D01*
X136540000Y-72620000D02*
X166870000Y-72620000D01*
%TO.N,Net-(J2-Pad10)*%
X132749999Y-73909999D02*
X134000000Y-75160000D01*
X132749999Y-68790001D02*
X132749999Y-73909999D01*
X134000000Y-67540000D02*
X132749999Y-68790001D01*
X134000000Y-75160000D02*
X134000000Y-80240000D01*
X134000000Y-80240000D02*
X136540000Y-80240000D01*
X136540000Y-80240000D02*
X136540000Y-77700000D01*
X136540000Y-77700000D02*
X136540000Y-75160000D01*
%TD*%
M02*
