%TF.GenerationSoftware,KiCad,Pcbnew,5.1.12-84ad8e8a86~92~ubuntu20.04.1*%
%TF.CreationDate,2022-01-08T10:03:17+01:00*%
%TF.ProjectId,message_display_interface,6d657373-6167-4655-9f64-6973706c6179,rev?*%
%TF.SameCoordinates,Original*%
%TF.FileFunction,Soldermask,Top*%
%TF.FilePolarity,Negative*%
%FSLAX46Y46*%
G04 Gerber Fmt 4.6, Leading zero omitted, Abs format (unit mm)*
G04 Created by KiCad (PCBNEW 5.1.12-84ad8e8a86~92~ubuntu20.04.1) date 2022-01-08 10:03:17*
%MOMM*%
%LPD*%
G01*
G04 APERTURE LIST*
%ADD10C,6.400000*%
%ADD11O,1.700000X1.950000*%
%ADD12O,1.950000X1.700000*%
%ADD13C,1.700000*%
G04 APERTURE END LIST*
D10*
%TO.C,H4*%
X177750000Y-88750000D03*
%TD*%
%TO.C,H3*%
X177750000Y-58000000D03*
%TD*%
%TO.C,H2*%
X124250000Y-88750000D03*
%TD*%
%TO.C,H1*%
X124250000Y-58000000D03*
%TD*%
D11*
%TO.C,J4*%
X158250000Y-62000000D03*
X155750000Y-62000000D03*
X153250000Y-62000000D03*
G36*
G01*
X149900000Y-62725000D02*
X149900000Y-61275000D01*
G75*
G02*
X150150000Y-61025000I250000J0D01*
G01*
X151350000Y-61025000D01*
G75*
G02*
X151600000Y-61275000I0J-250000D01*
G01*
X151600000Y-62725000D01*
G75*
G02*
X151350000Y-62975000I-250000J0D01*
G01*
X150150000Y-62975000D01*
G75*
G02*
X149900000Y-62725000I0J250000D01*
G01*
G37*
%TD*%
%TO.C,J3*%
X158250000Y-84000000D03*
X155750000Y-84000000D03*
X153250000Y-84000000D03*
G36*
G01*
X149900000Y-84725000D02*
X149900000Y-83275000D01*
G75*
G02*
X150150000Y-83025000I250000J0D01*
G01*
X151350000Y-83025000D01*
G75*
G02*
X151600000Y-83275000I0J-250000D01*
G01*
X151600000Y-84725000D01*
G75*
G02*
X151350000Y-84975000I-250000J0D01*
G01*
X150150000Y-84975000D01*
G75*
G02*
X149900000Y-84725000I0J250000D01*
G01*
G37*
%TD*%
D12*
%TO.C,J1*%
X171750000Y-65000000D03*
X171750000Y-67500000D03*
X171750000Y-70000000D03*
X171750000Y-72500000D03*
X171750000Y-75000000D03*
X171750000Y-77500000D03*
X171750000Y-80000000D03*
G36*
G01*
X172475000Y-83350000D02*
X171025000Y-83350000D01*
G75*
G02*
X170775000Y-83100000I0J250000D01*
G01*
X170775000Y-81900000D01*
G75*
G02*
X171025000Y-81650000I250000J0D01*
G01*
X172475000Y-81650000D01*
G75*
G02*
X172725000Y-81900000I0J-250000D01*
G01*
X172725000Y-83100000D01*
G75*
G02*
X172475000Y-83350000I-250000J0D01*
G01*
G37*
%TD*%
D13*
%TO.C,J2*%
X136540000Y-82780000D03*
X136540000Y-80240000D03*
X136540000Y-77700000D03*
X136540000Y-75160000D03*
X136540000Y-72620000D03*
X136540000Y-70080000D03*
X136540000Y-67540000D03*
X136540000Y-65000000D03*
X134000000Y-82780000D03*
X134000000Y-80240000D03*
X134000000Y-77700000D03*
X134000000Y-75160000D03*
X134000000Y-72620000D03*
X134000000Y-70080000D03*
X134000000Y-67540000D03*
G36*
G01*
X133150000Y-65600000D02*
X133150000Y-64400000D01*
G75*
G02*
X133400000Y-64150000I250000J0D01*
G01*
X134600000Y-64150000D01*
G75*
G02*
X134850000Y-64400000I0J-250000D01*
G01*
X134850000Y-65600000D01*
G75*
G02*
X134600000Y-65850000I-250000J0D01*
G01*
X133400000Y-65850000D01*
G75*
G02*
X133150000Y-65600000I0J250000D01*
G01*
G37*
%TD*%
M02*
