M48
; DRILL file {KiCad 5.1.12-84ad8e8a86~92~ubuntu20.04.1} date Sa 08 Jan 2022 10:03:19 CET
; FORMAT={-:-/ absolute / inch / decimal}
; #@! TF.CreationDate,2022-01-08T10:03:19+01:00
; #@! TF.GenerationSoftware,Kicad,Pcbnew,5.1.12-84ad8e8a86~92~ubuntu20.04.1
; #@! TF.FileFunction,Plated,1,2,PTH
FMAT,2
INCH
T1C0.0157
T2C0.0374
T3C0.0394
T4C0.1260
%
G90
G05
T1
X5.561Y-3.2185
X5.5906Y-2.7657
X5.6988Y-2.9331
X5.6988Y-3.2579
X6.0827Y-2.6575
X6.5748Y-2.9429
T2
X5.935Y-2.4409
X5.935Y-3.3071
X6.0335Y-2.4409
X6.0335Y-3.3071
X6.1319Y-2.4409
X6.1319Y-3.3071
X6.2303Y-2.4409
X6.2303Y-3.3071
X6.7618Y-2.5591
X6.7618Y-2.6575
X6.7618Y-2.7559
X6.7618Y-2.8543
X6.7618Y-2.9528
X6.7618Y-3.0512
X6.7618Y-3.1496
X6.7618Y-3.248
T3
X5.2756Y-2.5591
X5.2756Y-2.6591
X5.2756Y-2.7591
X5.2756Y-2.8591
X5.2756Y-2.9591
X5.2756Y-3.0591
X5.2756Y-3.1591
X5.2756Y-3.2591
X5.3756Y-2.5591
X5.3756Y-2.6591
X5.3756Y-2.7591
X5.3756Y-2.8591
X5.3756Y-2.9591
X5.3756Y-3.0591
X5.3756Y-3.1591
X5.3756Y-3.2591
T4
X4.8917Y-2.2835
X4.8917Y-3.4941
X6.998Y-2.2835
X6.998Y-3.4941
T0
M30
