%TF.GenerationSoftware,KiCad,Pcbnew,5.1.12-84ad8e8a86~92~ubuntu20.04.1*%
%TF.CreationDate,2022-01-08T10:03:16+01:00*%
%TF.ProjectId,message_display_interface,6d657373-6167-4655-9f64-6973706c6179,rev?*%
%TF.SameCoordinates,Original*%
%TF.FileFunction,Copper,L2,Bot*%
%TF.FilePolarity,Positive*%
%FSLAX46Y46*%
G04 Gerber Fmt 4.6, Leading zero omitted, Abs format (unit mm)*
G04 Created by KiCad (PCBNEW 5.1.12-84ad8e8a86~92~ubuntu20.04.1) date 2022-01-08 10:03:16*
%MOMM*%
%LPD*%
G01*
G04 APERTURE LIST*
%TA.AperFunction,ComponentPad*%
%ADD10C,6.400000*%
%TD*%
%TA.AperFunction,ComponentPad*%
%ADD11O,1.700000X1.950000*%
%TD*%
%TA.AperFunction,ComponentPad*%
%ADD12O,1.950000X1.700000*%
%TD*%
%TA.AperFunction,ComponentPad*%
%ADD13C,1.700000*%
%TD*%
%TA.AperFunction,ViaPad*%
%ADD14C,0.800000*%
%TD*%
%TA.AperFunction,Conductor*%
%ADD15C,0.800000*%
%TD*%
%TA.AperFunction,Conductor*%
%ADD16C,0.400000*%
%TD*%
%TA.AperFunction,Conductor*%
%ADD17C,0.254000*%
%TD*%
%TA.AperFunction,Conductor*%
%ADD18C,0.100000*%
%TD*%
G04 APERTURE END LIST*
D10*
%TO.P,H4,1*%
%TO.N,GND*%
X177750000Y-88750000D03*
%TD*%
%TO.P,H3,1*%
%TO.N,GND*%
X177750000Y-58000000D03*
%TD*%
%TO.P,H2,1*%
%TO.N,GND*%
X124250000Y-88750000D03*
%TD*%
%TO.P,H1,1*%
%TO.N,GND*%
X124250000Y-58000000D03*
%TD*%
D11*
%TO.P,J4,4*%
%TO.N,/LED_OUT*%
X158250000Y-62000000D03*
%TO.P,J4,3*%
%TO.N,Net-(J3-Pad4)*%
X155750000Y-62000000D03*
%TO.P,J4,2*%
%TO.N,VCC*%
X153250000Y-62000000D03*
%TO.P,J4,1*%
%TO.N,GND*%
%TA.AperFunction,ComponentPad*%
G36*
G01*
X149900000Y-62725000D02*
X149900000Y-61275000D01*
G75*
G02*
X150150000Y-61025000I250000J0D01*
G01*
X151350000Y-61025000D01*
G75*
G02*
X151600000Y-61275000I0J-250000D01*
G01*
X151600000Y-62725000D01*
G75*
G02*
X151350000Y-62975000I-250000J0D01*
G01*
X150150000Y-62975000D01*
G75*
G02*
X149900000Y-62725000I0J250000D01*
G01*
G37*
%TD.AperFunction*%
%TD*%
%TO.P,J3,4*%
%TO.N,Net-(J3-Pad4)*%
X158250000Y-84000000D03*
%TO.P,J3,3*%
%TO.N,/LED_IN*%
X155750000Y-84000000D03*
%TO.P,J3,2*%
%TO.N,VCC*%
X153250000Y-84000000D03*
%TO.P,J3,1*%
%TO.N,GND*%
%TA.AperFunction,ComponentPad*%
G36*
G01*
X149900000Y-84725000D02*
X149900000Y-83275000D01*
G75*
G02*
X150150000Y-83025000I250000J0D01*
G01*
X151350000Y-83025000D01*
G75*
G02*
X151600000Y-83275000I0J-250000D01*
G01*
X151600000Y-84725000D01*
G75*
G02*
X151350000Y-84975000I-250000J0D01*
G01*
X150150000Y-84975000D01*
G75*
G02*
X149900000Y-84725000I0J250000D01*
G01*
G37*
%TD.AperFunction*%
%TD*%
D12*
%TO.P,J1,8*%
%TO.N,/LED_OUT*%
X171750000Y-65000000D03*
%TO.P,J1,7*%
%TO.N,/LED_IN*%
X171750000Y-67500000D03*
%TO.P,J1,6*%
%TO.N,/MD_DOUT*%
X171750000Y-70000000D03*
%TO.P,J1,5*%
%TO.N,/MD_STROBE*%
X171750000Y-72500000D03*
%TO.P,J1,4*%
%TO.N,/MD_CLK*%
X171750000Y-75000000D03*
%TO.P,J1,3*%
%TO.N,/MD_OE*%
X171750000Y-77500000D03*
%TO.P,J1,2*%
%TO.N,VCC*%
X171750000Y-80000000D03*
%TO.P,J1,1*%
%TO.N,GND*%
%TA.AperFunction,ComponentPad*%
G36*
G01*
X172475000Y-83350000D02*
X171025000Y-83350000D01*
G75*
G02*
X170775000Y-83100000I0J250000D01*
G01*
X170775000Y-81900000D01*
G75*
G02*
X171025000Y-81650000I250000J0D01*
G01*
X172475000Y-81650000D01*
G75*
G02*
X172725000Y-81900000I0J-250000D01*
G01*
X172725000Y-83100000D01*
G75*
G02*
X172475000Y-83350000I-250000J0D01*
G01*
G37*
%TD.AperFunction*%
%TD*%
D13*
%TO.P,J2,16*%
%TO.N,/MD_DOUT*%
X136540000Y-82780000D03*
%TO.P,J2,14*%
%TO.N,Net-(J2-Pad10)*%
X136540000Y-80240000D03*
%TO.P,J2,12*%
X136540000Y-77700000D03*
%TO.P,J2,10*%
X136540000Y-75160000D03*
%TO.P,J2,8*%
%TO.N,/MD_OE*%
X136540000Y-72620000D03*
%TO.P,J2,6*%
%TO.N,Net-(J2-Pad6)*%
X136540000Y-70080000D03*
%TO.P,J2,4*%
%TO.N,Net-(J2-Pad4)*%
X136540000Y-67540000D03*
%TO.P,J2,2*%
%TO.N,VCC*%
X136540000Y-65000000D03*
%TO.P,J2,15*%
%TO.N,/MD_CLK*%
X134000000Y-82780000D03*
%TO.P,J2,13*%
%TO.N,Net-(J2-Pad10)*%
X134000000Y-80240000D03*
%TO.P,J2,11*%
X134000000Y-77700000D03*
%TO.P,J2,9*%
X134000000Y-75160000D03*
%TO.P,J2,7*%
%TO.N,/MD_STROBE*%
X134000000Y-72620000D03*
%TO.P,J2,5*%
%TO.N,Net-(J2-Pad5)*%
X134000000Y-70080000D03*
%TO.P,J2,3*%
%TO.N,Net-(J2-Pad10)*%
X134000000Y-67540000D03*
%TO.P,J2,1*%
%TO.N,GND*%
%TA.AperFunction,ComponentPad*%
G36*
G01*
X133150000Y-65600000D02*
X133150000Y-64400000D01*
G75*
G02*
X133400000Y-64150000I250000J0D01*
G01*
X134600000Y-64150000D01*
G75*
G02*
X134850000Y-64400000I0J-250000D01*
G01*
X134850000Y-65600000D01*
G75*
G02*
X134600000Y-65850000I-250000J0D01*
G01*
X133400000Y-65850000D01*
G75*
G02*
X133150000Y-65600000I0J250000D01*
G01*
G37*
%TD.AperFunction*%
%TD*%
D14*
%TO.N,/LED_IN*%
X154500000Y-67500000D03*
%TO.N,/MD_DOUT*%
X142000000Y-70250000D03*
X141250000Y-81750000D03*
%TO.N,/MD_CLK*%
X144750000Y-82750000D03*
X144750000Y-74500000D03*
X167000000Y-74750000D03*
%TD*%
D15*
%TO.N,VCC*%
X153250000Y-62000000D02*
X153250000Y-84000000D01*
D16*
%TO.N,/LED_IN*%
X154500000Y-82750000D02*
X155750000Y-84000000D01*
X154500000Y-67500000D02*
X154500000Y-82750000D01*
%TO.N,/MD_DOUT*%
X141250000Y-71000000D02*
X141250000Y-81750000D01*
X142000000Y-70250000D02*
X141250000Y-71000000D01*
%TO.N,/MD_CLK*%
X144750000Y-82750000D02*
X144750000Y-74500000D01*
X171500000Y-74750000D02*
X171750000Y-75000000D01*
X167000000Y-74750000D02*
X171500000Y-74750000D01*
%TO.N,Net-(J3-Pad4)*%
X155750000Y-62000000D02*
X155750000Y-75250000D01*
X158250000Y-77750000D02*
X158250000Y-84000000D01*
X155750000Y-75250000D02*
X158250000Y-77750000D01*
%TD*%
D17*
%TO.N,GND*%
X123522062Y-54215822D02*
X122797792Y-54430548D01*
X122129330Y-54782445D01*
X122088912Y-54809452D01*
X121728724Y-55299119D01*
X124250000Y-57820395D01*
X126771276Y-55299119D01*
X126411088Y-54809452D01*
X125747118Y-54449151D01*
X125025615Y-54225306D01*
X124402851Y-54160000D01*
X177627985Y-54160000D01*
X177022062Y-54215822D01*
X176297792Y-54430548D01*
X175629330Y-54782445D01*
X175588912Y-54809452D01*
X175228724Y-55299119D01*
X177750000Y-57820395D01*
X180271276Y-55299119D01*
X179911088Y-54809452D01*
X179247118Y-54449151D01*
X178525615Y-54225306D01*
X177902851Y-54160000D01*
X181840000Y-54160000D01*
X181840001Y-92340000D01*
X179132900Y-92340000D01*
X179202208Y-92319452D01*
X179870670Y-91967555D01*
X179911088Y-91940548D01*
X180271276Y-91450881D01*
X177750000Y-88929605D01*
X175228724Y-91450881D01*
X175588912Y-91940548D01*
X176252882Y-92300849D01*
X176379075Y-92340000D01*
X125632900Y-92340000D01*
X125702208Y-92319452D01*
X126370670Y-91967555D01*
X126411088Y-91940548D01*
X126771276Y-91450881D01*
X124250000Y-88929605D01*
X121728724Y-91450881D01*
X122088912Y-91940548D01*
X122752882Y-92300849D01*
X122879075Y-92340000D01*
X120410000Y-92340000D01*
X120410000Y-88872015D01*
X120465822Y-89477938D01*
X120680548Y-90202208D01*
X121032445Y-90870670D01*
X121059452Y-90911088D01*
X121549119Y-91271276D01*
X124070395Y-88750000D01*
X124429605Y-88750000D01*
X126950881Y-91271276D01*
X127440548Y-90911088D01*
X127800849Y-90247118D01*
X128024694Y-89525615D01*
X128103480Y-88774305D01*
X128099002Y-88725695D01*
X173896520Y-88725695D01*
X173965822Y-89477938D01*
X174180548Y-90202208D01*
X174532445Y-90870670D01*
X174559452Y-90911088D01*
X175049119Y-91271276D01*
X177570395Y-88750000D01*
X177929605Y-88750000D01*
X180450881Y-91271276D01*
X180940548Y-90911088D01*
X181300849Y-90247118D01*
X181524694Y-89525615D01*
X181603480Y-88774305D01*
X181534178Y-88022062D01*
X181319452Y-87297792D01*
X180967555Y-86629330D01*
X180940548Y-86588912D01*
X180450881Y-86228724D01*
X177929605Y-88750000D01*
X177570395Y-88750000D01*
X175049119Y-86228724D01*
X174559452Y-86588912D01*
X174199151Y-87252882D01*
X173975306Y-87974385D01*
X173896520Y-88725695D01*
X128099002Y-88725695D01*
X128034178Y-88022062D01*
X127819452Y-87297792D01*
X127467555Y-86629330D01*
X127440548Y-86588912D01*
X126950881Y-86228724D01*
X124429605Y-88750000D01*
X124070395Y-88750000D01*
X121549119Y-86228724D01*
X121059452Y-86588912D01*
X120699151Y-87252882D01*
X120475306Y-87974385D01*
X120410000Y-88597149D01*
X120410000Y-86049119D01*
X121728724Y-86049119D01*
X124250000Y-88570395D01*
X126771276Y-86049119D01*
X175228724Y-86049119D01*
X177750000Y-88570395D01*
X180271276Y-86049119D01*
X179911088Y-85559452D01*
X179247118Y-85199151D01*
X178525615Y-84975306D01*
X177774305Y-84896520D01*
X177022062Y-84965822D01*
X176297792Y-85180548D01*
X175629330Y-85532445D01*
X175588912Y-85559452D01*
X175228724Y-86049119D01*
X126771276Y-86049119D01*
X126411088Y-85559452D01*
X125747118Y-85199151D01*
X125025615Y-84975306D01*
X125022697Y-84975000D01*
X149261928Y-84975000D01*
X149274188Y-85099482D01*
X149310498Y-85219180D01*
X149369463Y-85329494D01*
X149448815Y-85426185D01*
X149545506Y-85505537D01*
X149655820Y-85564502D01*
X149775518Y-85600812D01*
X149900000Y-85613072D01*
X150464250Y-85610000D01*
X150623000Y-85451250D01*
X150623000Y-84127000D01*
X149423750Y-84127000D01*
X149265000Y-84285750D01*
X149261928Y-84975000D01*
X125022697Y-84975000D01*
X124274305Y-84896520D01*
X123522062Y-84965822D01*
X122797792Y-85180548D01*
X122129330Y-85532445D01*
X122088912Y-85559452D01*
X121728724Y-86049119D01*
X120410000Y-86049119D01*
X120410000Y-65850000D01*
X132511928Y-65850000D01*
X132524188Y-65974482D01*
X132560498Y-66094180D01*
X132619463Y-66204494D01*
X132698815Y-66301185D01*
X132795506Y-66380537D01*
X132905820Y-66439502D01*
X132978380Y-66461513D01*
X132846525Y-66593368D01*
X132684010Y-66836589D01*
X132572068Y-67106842D01*
X132515000Y-67393740D01*
X132515000Y-67686260D01*
X132572068Y-67973158D01*
X132684010Y-68243411D01*
X132846525Y-68486632D01*
X133053368Y-68693475D01*
X133227760Y-68810000D01*
X133053368Y-68926525D01*
X132846525Y-69133368D01*
X132684010Y-69376589D01*
X132572068Y-69646842D01*
X132515000Y-69933740D01*
X132515000Y-70226260D01*
X132572068Y-70513158D01*
X132684010Y-70783411D01*
X132846525Y-71026632D01*
X133053368Y-71233475D01*
X133227760Y-71350000D01*
X133053368Y-71466525D01*
X132846525Y-71673368D01*
X132684010Y-71916589D01*
X132572068Y-72186842D01*
X132515000Y-72473740D01*
X132515000Y-72766260D01*
X132572068Y-73053158D01*
X132684010Y-73323411D01*
X132846525Y-73566632D01*
X133053368Y-73773475D01*
X133227760Y-73890000D01*
X133053368Y-74006525D01*
X132846525Y-74213368D01*
X132684010Y-74456589D01*
X132572068Y-74726842D01*
X132515000Y-75013740D01*
X132515000Y-75306260D01*
X132572068Y-75593158D01*
X132684010Y-75863411D01*
X132846525Y-76106632D01*
X133053368Y-76313475D01*
X133227760Y-76430000D01*
X133053368Y-76546525D01*
X132846525Y-76753368D01*
X132684010Y-76996589D01*
X132572068Y-77266842D01*
X132515000Y-77553740D01*
X132515000Y-77846260D01*
X132572068Y-78133158D01*
X132684010Y-78403411D01*
X132846525Y-78646632D01*
X133053368Y-78853475D01*
X133227760Y-78970000D01*
X133053368Y-79086525D01*
X132846525Y-79293368D01*
X132684010Y-79536589D01*
X132572068Y-79806842D01*
X132515000Y-80093740D01*
X132515000Y-80386260D01*
X132572068Y-80673158D01*
X132684010Y-80943411D01*
X132846525Y-81186632D01*
X133053368Y-81393475D01*
X133227760Y-81510000D01*
X133053368Y-81626525D01*
X132846525Y-81833368D01*
X132684010Y-82076589D01*
X132572068Y-82346842D01*
X132515000Y-82633740D01*
X132515000Y-82926260D01*
X132572068Y-83213158D01*
X132684010Y-83483411D01*
X132846525Y-83726632D01*
X133053368Y-83933475D01*
X133296589Y-84095990D01*
X133566842Y-84207932D01*
X133853740Y-84265000D01*
X134146260Y-84265000D01*
X134433158Y-84207932D01*
X134703411Y-84095990D01*
X134946632Y-83933475D01*
X135153475Y-83726632D01*
X135270000Y-83552240D01*
X135386525Y-83726632D01*
X135593368Y-83933475D01*
X135836589Y-84095990D01*
X136106842Y-84207932D01*
X136393740Y-84265000D01*
X136686260Y-84265000D01*
X136973158Y-84207932D01*
X137243411Y-84095990D01*
X137486632Y-83933475D01*
X137693475Y-83726632D01*
X137855990Y-83483411D01*
X137967932Y-83213158D01*
X138025000Y-82926260D01*
X138025000Y-82633740D01*
X137967932Y-82346842D01*
X137855990Y-82076589D01*
X137693475Y-81833368D01*
X137508168Y-81648061D01*
X140215000Y-81648061D01*
X140215000Y-81851939D01*
X140254774Y-82051898D01*
X140332795Y-82240256D01*
X140446063Y-82409774D01*
X140590226Y-82553937D01*
X140759744Y-82667205D01*
X140948102Y-82745226D01*
X141148061Y-82785000D01*
X141351939Y-82785000D01*
X141551898Y-82745226D01*
X141740256Y-82667205D01*
X141909774Y-82553937D01*
X142053937Y-82409774D01*
X142167205Y-82240256D01*
X142245226Y-82051898D01*
X142285000Y-81851939D01*
X142285000Y-81648061D01*
X142245226Y-81448102D01*
X142167205Y-81259744D01*
X142085000Y-81136715D01*
X142085000Y-74398061D01*
X143715000Y-74398061D01*
X143715000Y-74601939D01*
X143754774Y-74801898D01*
X143832795Y-74990256D01*
X143915001Y-75113286D01*
X143915000Y-82136715D01*
X143832795Y-82259744D01*
X143754774Y-82448102D01*
X143715000Y-82648061D01*
X143715000Y-82851939D01*
X143754774Y-83051898D01*
X143832795Y-83240256D01*
X143946063Y-83409774D01*
X144090226Y-83553937D01*
X144259744Y-83667205D01*
X144448102Y-83745226D01*
X144648061Y-83785000D01*
X144851939Y-83785000D01*
X145051898Y-83745226D01*
X145240256Y-83667205D01*
X145409774Y-83553937D01*
X145553937Y-83409774D01*
X145667205Y-83240256D01*
X145745226Y-83051898D01*
X145750576Y-83025000D01*
X149261928Y-83025000D01*
X149265000Y-83714250D01*
X149423750Y-83873000D01*
X150623000Y-83873000D01*
X150623000Y-82548750D01*
X150464250Y-82390000D01*
X149900000Y-82386928D01*
X149775518Y-82399188D01*
X149655820Y-82435498D01*
X149545506Y-82494463D01*
X149448815Y-82573815D01*
X149369463Y-82670506D01*
X149310498Y-82780820D01*
X149274188Y-82900518D01*
X149261928Y-83025000D01*
X145750576Y-83025000D01*
X145785000Y-82851939D01*
X145785000Y-82648061D01*
X145745226Y-82448102D01*
X145667205Y-82259744D01*
X145585000Y-82136715D01*
X145585000Y-75113285D01*
X145667205Y-74990256D01*
X145745226Y-74801898D01*
X145785000Y-74601939D01*
X145785000Y-74398061D01*
X145745226Y-74198102D01*
X145667205Y-74009744D01*
X145553937Y-73840226D01*
X145409774Y-73696063D01*
X145240256Y-73582795D01*
X145051898Y-73504774D01*
X144851939Y-73465000D01*
X144648061Y-73465000D01*
X144448102Y-73504774D01*
X144259744Y-73582795D01*
X144090226Y-73696063D01*
X143946063Y-73840226D01*
X143832795Y-74009744D01*
X143754774Y-74198102D01*
X143715000Y-74398061D01*
X142085000Y-74398061D01*
X142085000Y-71345867D01*
X142156775Y-71274093D01*
X142301898Y-71245226D01*
X142490256Y-71167205D01*
X142659774Y-71053937D01*
X142803937Y-70909774D01*
X142917205Y-70740256D01*
X142995226Y-70551898D01*
X143035000Y-70351939D01*
X143035000Y-70148061D01*
X142995226Y-69948102D01*
X142917205Y-69759744D01*
X142803937Y-69590226D01*
X142659774Y-69446063D01*
X142490256Y-69332795D01*
X142301898Y-69254774D01*
X142101939Y-69215000D01*
X141898061Y-69215000D01*
X141698102Y-69254774D01*
X141509744Y-69332795D01*
X141340226Y-69446063D01*
X141196063Y-69590226D01*
X141082795Y-69759744D01*
X141004774Y-69948102D01*
X140975907Y-70093225D01*
X140688578Y-70380554D01*
X140656709Y-70406709D01*
X140552365Y-70533854D01*
X140552364Y-70533855D01*
X140474828Y-70678914D01*
X140427082Y-70836312D01*
X140410960Y-71000000D01*
X140415000Y-71041019D01*
X140415001Y-81136714D01*
X140332795Y-81259744D01*
X140254774Y-81448102D01*
X140215000Y-81648061D01*
X137508168Y-81648061D01*
X137486632Y-81626525D01*
X137312240Y-81510000D01*
X137486632Y-81393475D01*
X137693475Y-81186632D01*
X137855990Y-80943411D01*
X137967932Y-80673158D01*
X138025000Y-80386260D01*
X138025000Y-80093740D01*
X137967932Y-79806842D01*
X137855990Y-79536589D01*
X137693475Y-79293368D01*
X137486632Y-79086525D01*
X137312240Y-78970000D01*
X137486632Y-78853475D01*
X137693475Y-78646632D01*
X137855990Y-78403411D01*
X137967932Y-78133158D01*
X138025000Y-77846260D01*
X138025000Y-77553740D01*
X137967932Y-77266842D01*
X137855990Y-76996589D01*
X137693475Y-76753368D01*
X137486632Y-76546525D01*
X137312240Y-76430000D01*
X137486632Y-76313475D01*
X137693475Y-76106632D01*
X137855990Y-75863411D01*
X137967932Y-75593158D01*
X138025000Y-75306260D01*
X138025000Y-75013740D01*
X137967932Y-74726842D01*
X137855990Y-74456589D01*
X137693475Y-74213368D01*
X137486632Y-74006525D01*
X137312240Y-73890000D01*
X137486632Y-73773475D01*
X137693475Y-73566632D01*
X137855990Y-73323411D01*
X137967932Y-73053158D01*
X138025000Y-72766260D01*
X138025000Y-72473740D01*
X137967932Y-72186842D01*
X137855990Y-71916589D01*
X137693475Y-71673368D01*
X137486632Y-71466525D01*
X137312240Y-71350000D01*
X137486632Y-71233475D01*
X137693475Y-71026632D01*
X137855990Y-70783411D01*
X137967932Y-70513158D01*
X138025000Y-70226260D01*
X138025000Y-69933740D01*
X137967932Y-69646842D01*
X137855990Y-69376589D01*
X137693475Y-69133368D01*
X137486632Y-68926525D01*
X137312240Y-68810000D01*
X137486632Y-68693475D01*
X137693475Y-68486632D01*
X137855990Y-68243411D01*
X137967932Y-67973158D01*
X138025000Y-67686260D01*
X138025000Y-67393740D01*
X137967932Y-67106842D01*
X137855990Y-66836589D01*
X137693475Y-66593368D01*
X137486632Y-66386525D01*
X137312240Y-66270000D01*
X137486632Y-66153475D01*
X137693475Y-65946632D01*
X137855990Y-65703411D01*
X137967932Y-65433158D01*
X138025000Y-65146260D01*
X138025000Y-64853740D01*
X137967932Y-64566842D01*
X137855990Y-64296589D01*
X137693475Y-64053368D01*
X137486632Y-63846525D01*
X137243411Y-63684010D01*
X136973158Y-63572068D01*
X136686260Y-63515000D01*
X136393740Y-63515000D01*
X136106842Y-63572068D01*
X135836589Y-63684010D01*
X135593368Y-63846525D01*
X135461513Y-63978380D01*
X135439502Y-63905820D01*
X135380537Y-63795506D01*
X135301185Y-63698815D01*
X135204494Y-63619463D01*
X135094180Y-63560498D01*
X134974482Y-63524188D01*
X134850000Y-63511928D01*
X134285750Y-63515000D01*
X134127000Y-63673750D01*
X134127000Y-64873000D01*
X134147000Y-64873000D01*
X134147000Y-65127000D01*
X134127000Y-65127000D01*
X134127000Y-65147000D01*
X133873000Y-65147000D01*
X133873000Y-65127000D01*
X132673750Y-65127000D01*
X132515000Y-65285750D01*
X132511928Y-65850000D01*
X120410000Y-65850000D01*
X120410000Y-64150000D01*
X132511928Y-64150000D01*
X132515000Y-64714250D01*
X132673750Y-64873000D01*
X133873000Y-64873000D01*
X133873000Y-63673750D01*
X133714250Y-63515000D01*
X133150000Y-63511928D01*
X133025518Y-63524188D01*
X132905820Y-63560498D01*
X132795506Y-63619463D01*
X132698815Y-63698815D01*
X132619463Y-63795506D01*
X132560498Y-63905820D01*
X132524188Y-64025518D01*
X132511928Y-64150000D01*
X120410000Y-64150000D01*
X120410000Y-62975000D01*
X149261928Y-62975000D01*
X149274188Y-63099482D01*
X149310498Y-63219180D01*
X149369463Y-63329494D01*
X149448815Y-63426185D01*
X149545506Y-63505537D01*
X149655820Y-63564502D01*
X149775518Y-63600812D01*
X149900000Y-63613072D01*
X150464250Y-63610000D01*
X150623000Y-63451250D01*
X150623000Y-62127000D01*
X149423750Y-62127000D01*
X149265000Y-62285750D01*
X149261928Y-62975000D01*
X120410000Y-62975000D01*
X120410000Y-60700881D01*
X121728724Y-60700881D01*
X122088912Y-61190548D01*
X122752882Y-61550849D01*
X123474385Y-61774694D01*
X124225695Y-61853480D01*
X124977938Y-61784178D01*
X125702208Y-61569452D01*
X126370670Y-61217555D01*
X126411088Y-61190548D01*
X126532861Y-61025000D01*
X149261928Y-61025000D01*
X149265000Y-61714250D01*
X149423750Y-61873000D01*
X150623000Y-61873000D01*
X150623000Y-60548750D01*
X150877000Y-60548750D01*
X150877000Y-61873000D01*
X150897000Y-61873000D01*
X150897000Y-62127000D01*
X150877000Y-62127000D01*
X150877000Y-63451250D01*
X151035750Y-63610000D01*
X151600000Y-63613072D01*
X151724482Y-63600812D01*
X151844180Y-63564502D01*
X151954494Y-63505537D01*
X152051185Y-63426185D01*
X152130537Y-63329494D01*
X152189502Y-63219180D01*
X152200055Y-63184392D01*
X152215000Y-63196658D01*
X152215001Y-82803342D01*
X152200055Y-82815608D01*
X152189502Y-82780820D01*
X152130537Y-82670506D01*
X152051185Y-82573815D01*
X151954494Y-82494463D01*
X151844180Y-82435498D01*
X151724482Y-82399188D01*
X151600000Y-82386928D01*
X151035750Y-82390000D01*
X150877000Y-82548750D01*
X150877000Y-83873000D01*
X150897000Y-83873000D01*
X150897000Y-84127000D01*
X150877000Y-84127000D01*
X150877000Y-85451250D01*
X151035750Y-85610000D01*
X151600000Y-85613072D01*
X151724482Y-85600812D01*
X151844180Y-85564502D01*
X151954494Y-85505537D01*
X152051185Y-85426185D01*
X152130537Y-85329494D01*
X152189502Y-85219180D01*
X152200055Y-85184392D01*
X152420987Y-85365706D01*
X152678967Y-85503599D01*
X152958890Y-85588513D01*
X153250000Y-85617185D01*
X153541111Y-85588513D01*
X153821034Y-85503599D01*
X154079014Y-85365706D01*
X154305134Y-85180134D01*
X154490706Y-84954014D01*
X154500000Y-84936626D01*
X154509294Y-84954014D01*
X154694866Y-85180134D01*
X154920987Y-85365706D01*
X155178967Y-85503599D01*
X155458890Y-85588513D01*
X155750000Y-85617185D01*
X156041111Y-85588513D01*
X156321034Y-85503599D01*
X156579014Y-85365706D01*
X156805134Y-85180134D01*
X156990706Y-84954014D01*
X157000000Y-84936626D01*
X157009294Y-84954014D01*
X157194866Y-85180134D01*
X157420987Y-85365706D01*
X157678967Y-85503599D01*
X157958890Y-85588513D01*
X158250000Y-85617185D01*
X158541111Y-85588513D01*
X158821034Y-85503599D01*
X159079014Y-85365706D01*
X159305134Y-85180134D01*
X159490706Y-84954014D01*
X159628599Y-84696033D01*
X159713513Y-84416110D01*
X159735000Y-84197949D01*
X159735000Y-83802050D01*
X159713513Y-83583889D01*
X159642564Y-83350000D01*
X170136928Y-83350000D01*
X170149188Y-83474482D01*
X170185498Y-83594180D01*
X170244463Y-83704494D01*
X170323815Y-83801185D01*
X170420506Y-83880537D01*
X170530820Y-83939502D01*
X170650518Y-83975812D01*
X170775000Y-83988072D01*
X171464250Y-83985000D01*
X171623000Y-83826250D01*
X171623000Y-82627000D01*
X171877000Y-82627000D01*
X171877000Y-83826250D01*
X172035750Y-83985000D01*
X172725000Y-83988072D01*
X172849482Y-83975812D01*
X172969180Y-83939502D01*
X173079494Y-83880537D01*
X173176185Y-83801185D01*
X173255537Y-83704494D01*
X173314502Y-83594180D01*
X173350812Y-83474482D01*
X173363072Y-83350000D01*
X173360000Y-82785750D01*
X173201250Y-82627000D01*
X171877000Y-82627000D01*
X171623000Y-82627000D01*
X170298750Y-82627000D01*
X170140000Y-82785750D01*
X170136928Y-83350000D01*
X159642564Y-83350000D01*
X159628599Y-83303966D01*
X159490706Y-83045986D01*
X159305134Y-82819866D01*
X159085000Y-82639207D01*
X159085000Y-77791018D01*
X159089040Y-77750000D01*
X159072918Y-77586311D01*
X159025172Y-77428913D01*
X158947636Y-77283854D01*
X158869439Y-77188570D01*
X158869437Y-77188568D01*
X158843291Y-77156709D01*
X158811433Y-77130564D01*
X156585000Y-74904133D01*
X156585000Y-74648061D01*
X165965000Y-74648061D01*
X165965000Y-74851939D01*
X166004774Y-75051898D01*
X166082795Y-75240256D01*
X166196063Y-75409774D01*
X166340226Y-75553937D01*
X166509744Y-75667205D01*
X166698102Y-75745226D01*
X166898061Y-75785000D01*
X167101939Y-75785000D01*
X167301898Y-75745226D01*
X167490256Y-75667205D01*
X167613285Y-75585000D01*
X170253866Y-75585000D01*
X170384294Y-75829014D01*
X170569866Y-76055134D01*
X170795986Y-76240706D01*
X170813374Y-76250000D01*
X170795986Y-76259294D01*
X170569866Y-76444866D01*
X170384294Y-76670986D01*
X170246401Y-76928966D01*
X170161487Y-77208889D01*
X170132815Y-77500000D01*
X170161487Y-77791111D01*
X170246401Y-78071034D01*
X170384294Y-78329014D01*
X170569866Y-78555134D01*
X170795986Y-78740706D01*
X170813374Y-78750000D01*
X170795986Y-78759294D01*
X170569866Y-78944866D01*
X170384294Y-79170986D01*
X170246401Y-79428966D01*
X170161487Y-79708889D01*
X170132815Y-80000000D01*
X170161487Y-80291111D01*
X170246401Y-80571034D01*
X170384294Y-80829014D01*
X170565608Y-81049945D01*
X170530820Y-81060498D01*
X170420506Y-81119463D01*
X170323815Y-81198815D01*
X170244463Y-81295506D01*
X170185498Y-81405820D01*
X170149188Y-81525518D01*
X170136928Y-81650000D01*
X170140000Y-82214250D01*
X170298750Y-82373000D01*
X171623000Y-82373000D01*
X171623000Y-82353000D01*
X171877000Y-82353000D01*
X171877000Y-82373000D01*
X173201250Y-82373000D01*
X173360000Y-82214250D01*
X173363072Y-81650000D01*
X173350812Y-81525518D01*
X173314502Y-81405820D01*
X173255537Y-81295506D01*
X173176185Y-81198815D01*
X173079494Y-81119463D01*
X172969180Y-81060498D01*
X172934392Y-81049945D01*
X173115706Y-80829014D01*
X173253599Y-80571034D01*
X173338513Y-80291111D01*
X173367185Y-80000000D01*
X173338513Y-79708889D01*
X173253599Y-79428966D01*
X173115706Y-79170986D01*
X172930134Y-78944866D01*
X172704014Y-78759294D01*
X172686626Y-78750000D01*
X172704014Y-78740706D01*
X172930134Y-78555134D01*
X173115706Y-78329014D01*
X173253599Y-78071034D01*
X173338513Y-77791111D01*
X173367185Y-77500000D01*
X173338513Y-77208889D01*
X173253599Y-76928966D01*
X173115706Y-76670986D01*
X172930134Y-76444866D01*
X172704014Y-76259294D01*
X172686626Y-76250000D01*
X172704014Y-76240706D01*
X172930134Y-76055134D01*
X173115706Y-75829014D01*
X173253599Y-75571034D01*
X173338513Y-75291111D01*
X173367185Y-75000000D01*
X173338513Y-74708889D01*
X173253599Y-74428966D01*
X173115706Y-74170986D01*
X172930134Y-73944866D01*
X172704014Y-73759294D01*
X172686626Y-73750000D01*
X172704014Y-73740706D01*
X172930134Y-73555134D01*
X173115706Y-73329014D01*
X173253599Y-73071034D01*
X173338513Y-72791111D01*
X173367185Y-72500000D01*
X173338513Y-72208889D01*
X173253599Y-71928966D01*
X173115706Y-71670986D01*
X172930134Y-71444866D01*
X172704014Y-71259294D01*
X172686626Y-71250000D01*
X172704014Y-71240706D01*
X172930134Y-71055134D01*
X173115706Y-70829014D01*
X173253599Y-70571034D01*
X173338513Y-70291111D01*
X173367185Y-70000000D01*
X173338513Y-69708889D01*
X173253599Y-69428966D01*
X173115706Y-69170986D01*
X172930134Y-68944866D01*
X172704014Y-68759294D01*
X172686626Y-68750000D01*
X172704014Y-68740706D01*
X172930134Y-68555134D01*
X173115706Y-68329014D01*
X173253599Y-68071034D01*
X173338513Y-67791111D01*
X173367185Y-67500000D01*
X173338513Y-67208889D01*
X173253599Y-66928966D01*
X173115706Y-66670986D01*
X172930134Y-66444866D01*
X172704014Y-66259294D01*
X172686626Y-66250000D01*
X172704014Y-66240706D01*
X172930134Y-66055134D01*
X173115706Y-65829014D01*
X173253599Y-65571034D01*
X173338513Y-65291111D01*
X173367185Y-65000000D01*
X173338513Y-64708889D01*
X173253599Y-64428966D01*
X173115706Y-64170986D01*
X172930134Y-63944866D01*
X172704014Y-63759294D01*
X172446034Y-63621401D01*
X172166111Y-63536487D01*
X171947950Y-63515000D01*
X171552050Y-63515000D01*
X171333889Y-63536487D01*
X171053966Y-63621401D01*
X170795986Y-63759294D01*
X170569866Y-63944866D01*
X170384294Y-64170986D01*
X170246401Y-64428966D01*
X170161487Y-64708889D01*
X170132815Y-65000000D01*
X170161487Y-65291111D01*
X170246401Y-65571034D01*
X170384294Y-65829014D01*
X170569866Y-66055134D01*
X170795986Y-66240706D01*
X170813374Y-66250000D01*
X170795986Y-66259294D01*
X170569866Y-66444866D01*
X170384294Y-66670986D01*
X170246401Y-66928966D01*
X170161487Y-67208889D01*
X170132815Y-67500000D01*
X170161487Y-67791111D01*
X170246401Y-68071034D01*
X170384294Y-68329014D01*
X170569866Y-68555134D01*
X170795986Y-68740706D01*
X170813374Y-68750000D01*
X170795986Y-68759294D01*
X170569866Y-68944866D01*
X170384294Y-69170986D01*
X170246401Y-69428966D01*
X170161487Y-69708889D01*
X170132815Y-70000000D01*
X170161487Y-70291111D01*
X170246401Y-70571034D01*
X170384294Y-70829014D01*
X170569866Y-71055134D01*
X170795986Y-71240706D01*
X170813374Y-71250000D01*
X170795986Y-71259294D01*
X170569866Y-71444866D01*
X170384294Y-71670986D01*
X170246401Y-71928966D01*
X170161487Y-72208889D01*
X170132815Y-72500000D01*
X170161487Y-72791111D01*
X170246401Y-73071034D01*
X170384294Y-73329014D01*
X170569866Y-73555134D01*
X170795986Y-73740706D01*
X170813374Y-73750000D01*
X170795986Y-73759294D01*
X170606258Y-73915000D01*
X167613285Y-73915000D01*
X167490256Y-73832795D01*
X167301898Y-73754774D01*
X167101939Y-73715000D01*
X166898061Y-73715000D01*
X166698102Y-73754774D01*
X166509744Y-73832795D01*
X166340226Y-73946063D01*
X166196063Y-74090226D01*
X166082795Y-74259744D01*
X166004774Y-74448102D01*
X165965000Y-74648061D01*
X156585000Y-74648061D01*
X156585000Y-63360793D01*
X156805134Y-63180134D01*
X156990706Y-62954014D01*
X157000000Y-62936626D01*
X157009294Y-62954014D01*
X157194866Y-63180134D01*
X157420987Y-63365706D01*
X157678967Y-63503599D01*
X157958890Y-63588513D01*
X158250000Y-63617185D01*
X158541111Y-63588513D01*
X158821034Y-63503599D01*
X159079014Y-63365706D01*
X159305134Y-63180134D01*
X159490706Y-62954014D01*
X159628599Y-62696033D01*
X159713513Y-62416110D01*
X159735000Y-62197949D01*
X159735000Y-61802050D01*
X159713513Y-61583889D01*
X159628599Y-61303966D01*
X159490706Y-61045986D01*
X159305134Y-60819866D01*
X159160150Y-60700881D01*
X175228724Y-60700881D01*
X175588912Y-61190548D01*
X176252882Y-61550849D01*
X176974385Y-61774694D01*
X177725695Y-61853480D01*
X178477938Y-61784178D01*
X179202208Y-61569452D01*
X179870670Y-61217555D01*
X179911088Y-61190548D01*
X180271276Y-60700881D01*
X177750000Y-58179605D01*
X175228724Y-60700881D01*
X159160150Y-60700881D01*
X159079013Y-60634294D01*
X158821033Y-60496401D01*
X158541110Y-60411487D01*
X158250000Y-60382815D01*
X157958889Y-60411487D01*
X157678966Y-60496401D01*
X157420986Y-60634294D01*
X157194866Y-60819866D01*
X157009294Y-61045987D01*
X157000000Y-61063374D01*
X156990706Y-61045986D01*
X156805134Y-60819866D01*
X156579013Y-60634294D01*
X156321033Y-60496401D01*
X156041110Y-60411487D01*
X155750000Y-60382815D01*
X155458889Y-60411487D01*
X155178966Y-60496401D01*
X154920986Y-60634294D01*
X154694866Y-60819866D01*
X154509294Y-61045987D01*
X154500000Y-61063374D01*
X154490706Y-61045986D01*
X154305134Y-60819866D01*
X154079013Y-60634294D01*
X153821033Y-60496401D01*
X153541110Y-60411487D01*
X153250000Y-60382815D01*
X152958889Y-60411487D01*
X152678966Y-60496401D01*
X152420986Y-60634294D01*
X152200055Y-60815608D01*
X152189502Y-60780820D01*
X152130537Y-60670506D01*
X152051185Y-60573815D01*
X151954494Y-60494463D01*
X151844180Y-60435498D01*
X151724482Y-60399188D01*
X151600000Y-60386928D01*
X151035750Y-60390000D01*
X150877000Y-60548750D01*
X150623000Y-60548750D01*
X150464250Y-60390000D01*
X149900000Y-60386928D01*
X149775518Y-60399188D01*
X149655820Y-60435498D01*
X149545506Y-60494463D01*
X149448815Y-60573815D01*
X149369463Y-60670506D01*
X149310498Y-60780820D01*
X149274188Y-60900518D01*
X149261928Y-61025000D01*
X126532861Y-61025000D01*
X126771276Y-60700881D01*
X124250000Y-58179605D01*
X121728724Y-60700881D01*
X120410000Y-60700881D01*
X120410000Y-58122015D01*
X120465822Y-58727938D01*
X120680548Y-59452208D01*
X121032445Y-60120670D01*
X121059452Y-60161088D01*
X121549119Y-60521276D01*
X124070395Y-58000000D01*
X124429605Y-58000000D01*
X126950881Y-60521276D01*
X127440548Y-60161088D01*
X127800849Y-59497118D01*
X128024694Y-58775615D01*
X128103480Y-58024305D01*
X128099002Y-57975695D01*
X173896520Y-57975695D01*
X173965822Y-58727938D01*
X174180548Y-59452208D01*
X174532445Y-60120670D01*
X174559452Y-60161088D01*
X175049119Y-60521276D01*
X177570395Y-58000000D01*
X177929605Y-58000000D01*
X180450881Y-60521276D01*
X180940548Y-60161088D01*
X181300849Y-59497118D01*
X181524694Y-58775615D01*
X181603480Y-58024305D01*
X181534178Y-57272062D01*
X181319452Y-56547792D01*
X180967555Y-55879330D01*
X180940548Y-55838912D01*
X180450881Y-55478724D01*
X177929605Y-58000000D01*
X177570395Y-58000000D01*
X175049119Y-55478724D01*
X174559452Y-55838912D01*
X174199151Y-56502882D01*
X173975306Y-57224385D01*
X173896520Y-57975695D01*
X128099002Y-57975695D01*
X128034178Y-57272062D01*
X127819452Y-56547792D01*
X127467555Y-55879330D01*
X127440548Y-55838912D01*
X126950881Y-55478724D01*
X124429605Y-58000000D01*
X124070395Y-58000000D01*
X121549119Y-55478724D01*
X121059452Y-55838912D01*
X120699151Y-56502882D01*
X120475306Y-57224385D01*
X120410000Y-57847149D01*
X120410000Y-54160000D01*
X124127985Y-54160000D01*
X123522062Y-54215822D01*
%TA.AperFunction,Conductor*%
D18*
G36*
X123522062Y-54215822D02*
G01*
X122797792Y-54430548D01*
X122129330Y-54782445D01*
X122088912Y-54809452D01*
X121728724Y-55299119D01*
X124250000Y-57820395D01*
X126771276Y-55299119D01*
X126411088Y-54809452D01*
X125747118Y-54449151D01*
X125025615Y-54225306D01*
X124402851Y-54160000D01*
X177627985Y-54160000D01*
X177022062Y-54215822D01*
X176297792Y-54430548D01*
X175629330Y-54782445D01*
X175588912Y-54809452D01*
X175228724Y-55299119D01*
X177750000Y-57820395D01*
X180271276Y-55299119D01*
X179911088Y-54809452D01*
X179247118Y-54449151D01*
X178525615Y-54225306D01*
X177902851Y-54160000D01*
X181840000Y-54160000D01*
X181840001Y-92340000D01*
X179132900Y-92340000D01*
X179202208Y-92319452D01*
X179870670Y-91967555D01*
X179911088Y-91940548D01*
X180271276Y-91450881D01*
X177750000Y-88929605D01*
X175228724Y-91450881D01*
X175588912Y-91940548D01*
X176252882Y-92300849D01*
X176379075Y-92340000D01*
X125632900Y-92340000D01*
X125702208Y-92319452D01*
X126370670Y-91967555D01*
X126411088Y-91940548D01*
X126771276Y-91450881D01*
X124250000Y-88929605D01*
X121728724Y-91450881D01*
X122088912Y-91940548D01*
X122752882Y-92300849D01*
X122879075Y-92340000D01*
X120410000Y-92340000D01*
X120410000Y-88872015D01*
X120465822Y-89477938D01*
X120680548Y-90202208D01*
X121032445Y-90870670D01*
X121059452Y-90911088D01*
X121549119Y-91271276D01*
X124070395Y-88750000D01*
X124429605Y-88750000D01*
X126950881Y-91271276D01*
X127440548Y-90911088D01*
X127800849Y-90247118D01*
X128024694Y-89525615D01*
X128103480Y-88774305D01*
X128099002Y-88725695D01*
X173896520Y-88725695D01*
X173965822Y-89477938D01*
X174180548Y-90202208D01*
X174532445Y-90870670D01*
X174559452Y-90911088D01*
X175049119Y-91271276D01*
X177570395Y-88750000D01*
X177929605Y-88750000D01*
X180450881Y-91271276D01*
X180940548Y-90911088D01*
X181300849Y-90247118D01*
X181524694Y-89525615D01*
X181603480Y-88774305D01*
X181534178Y-88022062D01*
X181319452Y-87297792D01*
X180967555Y-86629330D01*
X180940548Y-86588912D01*
X180450881Y-86228724D01*
X177929605Y-88750000D01*
X177570395Y-88750000D01*
X175049119Y-86228724D01*
X174559452Y-86588912D01*
X174199151Y-87252882D01*
X173975306Y-87974385D01*
X173896520Y-88725695D01*
X128099002Y-88725695D01*
X128034178Y-88022062D01*
X127819452Y-87297792D01*
X127467555Y-86629330D01*
X127440548Y-86588912D01*
X126950881Y-86228724D01*
X124429605Y-88750000D01*
X124070395Y-88750000D01*
X121549119Y-86228724D01*
X121059452Y-86588912D01*
X120699151Y-87252882D01*
X120475306Y-87974385D01*
X120410000Y-88597149D01*
X120410000Y-86049119D01*
X121728724Y-86049119D01*
X124250000Y-88570395D01*
X126771276Y-86049119D01*
X175228724Y-86049119D01*
X177750000Y-88570395D01*
X180271276Y-86049119D01*
X179911088Y-85559452D01*
X179247118Y-85199151D01*
X178525615Y-84975306D01*
X177774305Y-84896520D01*
X177022062Y-84965822D01*
X176297792Y-85180548D01*
X175629330Y-85532445D01*
X175588912Y-85559452D01*
X175228724Y-86049119D01*
X126771276Y-86049119D01*
X126411088Y-85559452D01*
X125747118Y-85199151D01*
X125025615Y-84975306D01*
X125022697Y-84975000D01*
X149261928Y-84975000D01*
X149274188Y-85099482D01*
X149310498Y-85219180D01*
X149369463Y-85329494D01*
X149448815Y-85426185D01*
X149545506Y-85505537D01*
X149655820Y-85564502D01*
X149775518Y-85600812D01*
X149900000Y-85613072D01*
X150464250Y-85610000D01*
X150623000Y-85451250D01*
X150623000Y-84127000D01*
X149423750Y-84127000D01*
X149265000Y-84285750D01*
X149261928Y-84975000D01*
X125022697Y-84975000D01*
X124274305Y-84896520D01*
X123522062Y-84965822D01*
X122797792Y-85180548D01*
X122129330Y-85532445D01*
X122088912Y-85559452D01*
X121728724Y-86049119D01*
X120410000Y-86049119D01*
X120410000Y-65850000D01*
X132511928Y-65850000D01*
X132524188Y-65974482D01*
X132560498Y-66094180D01*
X132619463Y-66204494D01*
X132698815Y-66301185D01*
X132795506Y-66380537D01*
X132905820Y-66439502D01*
X132978380Y-66461513D01*
X132846525Y-66593368D01*
X132684010Y-66836589D01*
X132572068Y-67106842D01*
X132515000Y-67393740D01*
X132515000Y-67686260D01*
X132572068Y-67973158D01*
X132684010Y-68243411D01*
X132846525Y-68486632D01*
X133053368Y-68693475D01*
X133227760Y-68810000D01*
X133053368Y-68926525D01*
X132846525Y-69133368D01*
X132684010Y-69376589D01*
X132572068Y-69646842D01*
X132515000Y-69933740D01*
X132515000Y-70226260D01*
X132572068Y-70513158D01*
X132684010Y-70783411D01*
X132846525Y-71026632D01*
X133053368Y-71233475D01*
X133227760Y-71350000D01*
X133053368Y-71466525D01*
X132846525Y-71673368D01*
X132684010Y-71916589D01*
X132572068Y-72186842D01*
X132515000Y-72473740D01*
X132515000Y-72766260D01*
X132572068Y-73053158D01*
X132684010Y-73323411D01*
X132846525Y-73566632D01*
X133053368Y-73773475D01*
X133227760Y-73890000D01*
X133053368Y-74006525D01*
X132846525Y-74213368D01*
X132684010Y-74456589D01*
X132572068Y-74726842D01*
X132515000Y-75013740D01*
X132515000Y-75306260D01*
X132572068Y-75593158D01*
X132684010Y-75863411D01*
X132846525Y-76106632D01*
X133053368Y-76313475D01*
X133227760Y-76430000D01*
X133053368Y-76546525D01*
X132846525Y-76753368D01*
X132684010Y-76996589D01*
X132572068Y-77266842D01*
X132515000Y-77553740D01*
X132515000Y-77846260D01*
X132572068Y-78133158D01*
X132684010Y-78403411D01*
X132846525Y-78646632D01*
X133053368Y-78853475D01*
X133227760Y-78970000D01*
X133053368Y-79086525D01*
X132846525Y-79293368D01*
X132684010Y-79536589D01*
X132572068Y-79806842D01*
X132515000Y-80093740D01*
X132515000Y-80386260D01*
X132572068Y-80673158D01*
X132684010Y-80943411D01*
X132846525Y-81186632D01*
X133053368Y-81393475D01*
X133227760Y-81510000D01*
X133053368Y-81626525D01*
X132846525Y-81833368D01*
X132684010Y-82076589D01*
X132572068Y-82346842D01*
X132515000Y-82633740D01*
X132515000Y-82926260D01*
X132572068Y-83213158D01*
X132684010Y-83483411D01*
X132846525Y-83726632D01*
X133053368Y-83933475D01*
X133296589Y-84095990D01*
X133566842Y-84207932D01*
X133853740Y-84265000D01*
X134146260Y-84265000D01*
X134433158Y-84207932D01*
X134703411Y-84095990D01*
X134946632Y-83933475D01*
X135153475Y-83726632D01*
X135270000Y-83552240D01*
X135386525Y-83726632D01*
X135593368Y-83933475D01*
X135836589Y-84095990D01*
X136106842Y-84207932D01*
X136393740Y-84265000D01*
X136686260Y-84265000D01*
X136973158Y-84207932D01*
X137243411Y-84095990D01*
X137486632Y-83933475D01*
X137693475Y-83726632D01*
X137855990Y-83483411D01*
X137967932Y-83213158D01*
X138025000Y-82926260D01*
X138025000Y-82633740D01*
X137967932Y-82346842D01*
X137855990Y-82076589D01*
X137693475Y-81833368D01*
X137508168Y-81648061D01*
X140215000Y-81648061D01*
X140215000Y-81851939D01*
X140254774Y-82051898D01*
X140332795Y-82240256D01*
X140446063Y-82409774D01*
X140590226Y-82553937D01*
X140759744Y-82667205D01*
X140948102Y-82745226D01*
X141148061Y-82785000D01*
X141351939Y-82785000D01*
X141551898Y-82745226D01*
X141740256Y-82667205D01*
X141909774Y-82553937D01*
X142053937Y-82409774D01*
X142167205Y-82240256D01*
X142245226Y-82051898D01*
X142285000Y-81851939D01*
X142285000Y-81648061D01*
X142245226Y-81448102D01*
X142167205Y-81259744D01*
X142085000Y-81136715D01*
X142085000Y-74398061D01*
X143715000Y-74398061D01*
X143715000Y-74601939D01*
X143754774Y-74801898D01*
X143832795Y-74990256D01*
X143915001Y-75113286D01*
X143915000Y-82136715D01*
X143832795Y-82259744D01*
X143754774Y-82448102D01*
X143715000Y-82648061D01*
X143715000Y-82851939D01*
X143754774Y-83051898D01*
X143832795Y-83240256D01*
X143946063Y-83409774D01*
X144090226Y-83553937D01*
X144259744Y-83667205D01*
X144448102Y-83745226D01*
X144648061Y-83785000D01*
X144851939Y-83785000D01*
X145051898Y-83745226D01*
X145240256Y-83667205D01*
X145409774Y-83553937D01*
X145553937Y-83409774D01*
X145667205Y-83240256D01*
X145745226Y-83051898D01*
X145750576Y-83025000D01*
X149261928Y-83025000D01*
X149265000Y-83714250D01*
X149423750Y-83873000D01*
X150623000Y-83873000D01*
X150623000Y-82548750D01*
X150464250Y-82390000D01*
X149900000Y-82386928D01*
X149775518Y-82399188D01*
X149655820Y-82435498D01*
X149545506Y-82494463D01*
X149448815Y-82573815D01*
X149369463Y-82670506D01*
X149310498Y-82780820D01*
X149274188Y-82900518D01*
X149261928Y-83025000D01*
X145750576Y-83025000D01*
X145785000Y-82851939D01*
X145785000Y-82648061D01*
X145745226Y-82448102D01*
X145667205Y-82259744D01*
X145585000Y-82136715D01*
X145585000Y-75113285D01*
X145667205Y-74990256D01*
X145745226Y-74801898D01*
X145785000Y-74601939D01*
X145785000Y-74398061D01*
X145745226Y-74198102D01*
X145667205Y-74009744D01*
X145553937Y-73840226D01*
X145409774Y-73696063D01*
X145240256Y-73582795D01*
X145051898Y-73504774D01*
X144851939Y-73465000D01*
X144648061Y-73465000D01*
X144448102Y-73504774D01*
X144259744Y-73582795D01*
X144090226Y-73696063D01*
X143946063Y-73840226D01*
X143832795Y-74009744D01*
X143754774Y-74198102D01*
X143715000Y-74398061D01*
X142085000Y-74398061D01*
X142085000Y-71345867D01*
X142156775Y-71274093D01*
X142301898Y-71245226D01*
X142490256Y-71167205D01*
X142659774Y-71053937D01*
X142803937Y-70909774D01*
X142917205Y-70740256D01*
X142995226Y-70551898D01*
X143035000Y-70351939D01*
X143035000Y-70148061D01*
X142995226Y-69948102D01*
X142917205Y-69759744D01*
X142803937Y-69590226D01*
X142659774Y-69446063D01*
X142490256Y-69332795D01*
X142301898Y-69254774D01*
X142101939Y-69215000D01*
X141898061Y-69215000D01*
X141698102Y-69254774D01*
X141509744Y-69332795D01*
X141340226Y-69446063D01*
X141196063Y-69590226D01*
X141082795Y-69759744D01*
X141004774Y-69948102D01*
X140975907Y-70093225D01*
X140688578Y-70380554D01*
X140656709Y-70406709D01*
X140552365Y-70533854D01*
X140552364Y-70533855D01*
X140474828Y-70678914D01*
X140427082Y-70836312D01*
X140410960Y-71000000D01*
X140415000Y-71041019D01*
X140415001Y-81136714D01*
X140332795Y-81259744D01*
X140254774Y-81448102D01*
X140215000Y-81648061D01*
X137508168Y-81648061D01*
X137486632Y-81626525D01*
X137312240Y-81510000D01*
X137486632Y-81393475D01*
X137693475Y-81186632D01*
X137855990Y-80943411D01*
X137967932Y-80673158D01*
X138025000Y-80386260D01*
X138025000Y-80093740D01*
X137967932Y-79806842D01*
X137855990Y-79536589D01*
X137693475Y-79293368D01*
X137486632Y-79086525D01*
X137312240Y-78970000D01*
X137486632Y-78853475D01*
X137693475Y-78646632D01*
X137855990Y-78403411D01*
X137967932Y-78133158D01*
X138025000Y-77846260D01*
X138025000Y-77553740D01*
X137967932Y-77266842D01*
X137855990Y-76996589D01*
X137693475Y-76753368D01*
X137486632Y-76546525D01*
X137312240Y-76430000D01*
X137486632Y-76313475D01*
X137693475Y-76106632D01*
X137855990Y-75863411D01*
X137967932Y-75593158D01*
X138025000Y-75306260D01*
X138025000Y-75013740D01*
X137967932Y-74726842D01*
X137855990Y-74456589D01*
X137693475Y-74213368D01*
X137486632Y-74006525D01*
X137312240Y-73890000D01*
X137486632Y-73773475D01*
X137693475Y-73566632D01*
X137855990Y-73323411D01*
X137967932Y-73053158D01*
X138025000Y-72766260D01*
X138025000Y-72473740D01*
X137967932Y-72186842D01*
X137855990Y-71916589D01*
X137693475Y-71673368D01*
X137486632Y-71466525D01*
X137312240Y-71350000D01*
X137486632Y-71233475D01*
X137693475Y-71026632D01*
X137855990Y-70783411D01*
X137967932Y-70513158D01*
X138025000Y-70226260D01*
X138025000Y-69933740D01*
X137967932Y-69646842D01*
X137855990Y-69376589D01*
X137693475Y-69133368D01*
X137486632Y-68926525D01*
X137312240Y-68810000D01*
X137486632Y-68693475D01*
X137693475Y-68486632D01*
X137855990Y-68243411D01*
X137967932Y-67973158D01*
X138025000Y-67686260D01*
X138025000Y-67393740D01*
X137967932Y-67106842D01*
X137855990Y-66836589D01*
X137693475Y-66593368D01*
X137486632Y-66386525D01*
X137312240Y-66270000D01*
X137486632Y-66153475D01*
X137693475Y-65946632D01*
X137855990Y-65703411D01*
X137967932Y-65433158D01*
X138025000Y-65146260D01*
X138025000Y-64853740D01*
X137967932Y-64566842D01*
X137855990Y-64296589D01*
X137693475Y-64053368D01*
X137486632Y-63846525D01*
X137243411Y-63684010D01*
X136973158Y-63572068D01*
X136686260Y-63515000D01*
X136393740Y-63515000D01*
X136106842Y-63572068D01*
X135836589Y-63684010D01*
X135593368Y-63846525D01*
X135461513Y-63978380D01*
X135439502Y-63905820D01*
X135380537Y-63795506D01*
X135301185Y-63698815D01*
X135204494Y-63619463D01*
X135094180Y-63560498D01*
X134974482Y-63524188D01*
X134850000Y-63511928D01*
X134285750Y-63515000D01*
X134127000Y-63673750D01*
X134127000Y-64873000D01*
X134147000Y-64873000D01*
X134147000Y-65127000D01*
X134127000Y-65127000D01*
X134127000Y-65147000D01*
X133873000Y-65147000D01*
X133873000Y-65127000D01*
X132673750Y-65127000D01*
X132515000Y-65285750D01*
X132511928Y-65850000D01*
X120410000Y-65850000D01*
X120410000Y-64150000D01*
X132511928Y-64150000D01*
X132515000Y-64714250D01*
X132673750Y-64873000D01*
X133873000Y-64873000D01*
X133873000Y-63673750D01*
X133714250Y-63515000D01*
X133150000Y-63511928D01*
X133025518Y-63524188D01*
X132905820Y-63560498D01*
X132795506Y-63619463D01*
X132698815Y-63698815D01*
X132619463Y-63795506D01*
X132560498Y-63905820D01*
X132524188Y-64025518D01*
X132511928Y-64150000D01*
X120410000Y-64150000D01*
X120410000Y-62975000D01*
X149261928Y-62975000D01*
X149274188Y-63099482D01*
X149310498Y-63219180D01*
X149369463Y-63329494D01*
X149448815Y-63426185D01*
X149545506Y-63505537D01*
X149655820Y-63564502D01*
X149775518Y-63600812D01*
X149900000Y-63613072D01*
X150464250Y-63610000D01*
X150623000Y-63451250D01*
X150623000Y-62127000D01*
X149423750Y-62127000D01*
X149265000Y-62285750D01*
X149261928Y-62975000D01*
X120410000Y-62975000D01*
X120410000Y-60700881D01*
X121728724Y-60700881D01*
X122088912Y-61190548D01*
X122752882Y-61550849D01*
X123474385Y-61774694D01*
X124225695Y-61853480D01*
X124977938Y-61784178D01*
X125702208Y-61569452D01*
X126370670Y-61217555D01*
X126411088Y-61190548D01*
X126532861Y-61025000D01*
X149261928Y-61025000D01*
X149265000Y-61714250D01*
X149423750Y-61873000D01*
X150623000Y-61873000D01*
X150623000Y-60548750D01*
X150877000Y-60548750D01*
X150877000Y-61873000D01*
X150897000Y-61873000D01*
X150897000Y-62127000D01*
X150877000Y-62127000D01*
X150877000Y-63451250D01*
X151035750Y-63610000D01*
X151600000Y-63613072D01*
X151724482Y-63600812D01*
X151844180Y-63564502D01*
X151954494Y-63505537D01*
X152051185Y-63426185D01*
X152130537Y-63329494D01*
X152189502Y-63219180D01*
X152200055Y-63184392D01*
X152215000Y-63196658D01*
X152215001Y-82803342D01*
X152200055Y-82815608D01*
X152189502Y-82780820D01*
X152130537Y-82670506D01*
X152051185Y-82573815D01*
X151954494Y-82494463D01*
X151844180Y-82435498D01*
X151724482Y-82399188D01*
X151600000Y-82386928D01*
X151035750Y-82390000D01*
X150877000Y-82548750D01*
X150877000Y-83873000D01*
X150897000Y-83873000D01*
X150897000Y-84127000D01*
X150877000Y-84127000D01*
X150877000Y-85451250D01*
X151035750Y-85610000D01*
X151600000Y-85613072D01*
X151724482Y-85600812D01*
X151844180Y-85564502D01*
X151954494Y-85505537D01*
X152051185Y-85426185D01*
X152130537Y-85329494D01*
X152189502Y-85219180D01*
X152200055Y-85184392D01*
X152420987Y-85365706D01*
X152678967Y-85503599D01*
X152958890Y-85588513D01*
X153250000Y-85617185D01*
X153541111Y-85588513D01*
X153821034Y-85503599D01*
X154079014Y-85365706D01*
X154305134Y-85180134D01*
X154490706Y-84954014D01*
X154500000Y-84936626D01*
X154509294Y-84954014D01*
X154694866Y-85180134D01*
X154920987Y-85365706D01*
X155178967Y-85503599D01*
X155458890Y-85588513D01*
X155750000Y-85617185D01*
X156041111Y-85588513D01*
X156321034Y-85503599D01*
X156579014Y-85365706D01*
X156805134Y-85180134D01*
X156990706Y-84954014D01*
X157000000Y-84936626D01*
X157009294Y-84954014D01*
X157194866Y-85180134D01*
X157420987Y-85365706D01*
X157678967Y-85503599D01*
X157958890Y-85588513D01*
X158250000Y-85617185D01*
X158541111Y-85588513D01*
X158821034Y-85503599D01*
X159079014Y-85365706D01*
X159305134Y-85180134D01*
X159490706Y-84954014D01*
X159628599Y-84696033D01*
X159713513Y-84416110D01*
X159735000Y-84197949D01*
X159735000Y-83802050D01*
X159713513Y-83583889D01*
X159642564Y-83350000D01*
X170136928Y-83350000D01*
X170149188Y-83474482D01*
X170185498Y-83594180D01*
X170244463Y-83704494D01*
X170323815Y-83801185D01*
X170420506Y-83880537D01*
X170530820Y-83939502D01*
X170650518Y-83975812D01*
X170775000Y-83988072D01*
X171464250Y-83985000D01*
X171623000Y-83826250D01*
X171623000Y-82627000D01*
X171877000Y-82627000D01*
X171877000Y-83826250D01*
X172035750Y-83985000D01*
X172725000Y-83988072D01*
X172849482Y-83975812D01*
X172969180Y-83939502D01*
X173079494Y-83880537D01*
X173176185Y-83801185D01*
X173255537Y-83704494D01*
X173314502Y-83594180D01*
X173350812Y-83474482D01*
X173363072Y-83350000D01*
X173360000Y-82785750D01*
X173201250Y-82627000D01*
X171877000Y-82627000D01*
X171623000Y-82627000D01*
X170298750Y-82627000D01*
X170140000Y-82785750D01*
X170136928Y-83350000D01*
X159642564Y-83350000D01*
X159628599Y-83303966D01*
X159490706Y-83045986D01*
X159305134Y-82819866D01*
X159085000Y-82639207D01*
X159085000Y-77791018D01*
X159089040Y-77750000D01*
X159072918Y-77586311D01*
X159025172Y-77428913D01*
X158947636Y-77283854D01*
X158869439Y-77188570D01*
X158869437Y-77188568D01*
X158843291Y-77156709D01*
X158811433Y-77130564D01*
X156585000Y-74904133D01*
X156585000Y-74648061D01*
X165965000Y-74648061D01*
X165965000Y-74851939D01*
X166004774Y-75051898D01*
X166082795Y-75240256D01*
X166196063Y-75409774D01*
X166340226Y-75553937D01*
X166509744Y-75667205D01*
X166698102Y-75745226D01*
X166898061Y-75785000D01*
X167101939Y-75785000D01*
X167301898Y-75745226D01*
X167490256Y-75667205D01*
X167613285Y-75585000D01*
X170253866Y-75585000D01*
X170384294Y-75829014D01*
X170569866Y-76055134D01*
X170795986Y-76240706D01*
X170813374Y-76250000D01*
X170795986Y-76259294D01*
X170569866Y-76444866D01*
X170384294Y-76670986D01*
X170246401Y-76928966D01*
X170161487Y-77208889D01*
X170132815Y-77500000D01*
X170161487Y-77791111D01*
X170246401Y-78071034D01*
X170384294Y-78329014D01*
X170569866Y-78555134D01*
X170795986Y-78740706D01*
X170813374Y-78750000D01*
X170795986Y-78759294D01*
X170569866Y-78944866D01*
X170384294Y-79170986D01*
X170246401Y-79428966D01*
X170161487Y-79708889D01*
X170132815Y-80000000D01*
X170161487Y-80291111D01*
X170246401Y-80571034D01*
X170384294Y-80829014D01*
X170565608Y-81049945D01*
X170530820Y-81060498D01*
X170420506Y-81119463D01*
X170323815Y-81198815D01*
X170244463Y-81295506D01*
X170185498Y-81405820D01*
X170149188Y-81525518D01*
X170136928Y-81650000D01*
X170140000Y-82214250D01*
X170298750Y-82373000D01*
X171623000Y-82373000D01*
X171623000Y-82353000D01*
X171877000Y-82353000D01*
X171877000Y-82373000D01*
X173201250Y-82373000D01*
X173360000Y-82214250D01*
X173363072Y-81650000D01*
X173350812Y-81525518D01*
X173314502Y-81405820D01*
X173255537Y-81295506D01*
X173176185Y-81198815D01*
X173079494Y-81119463D01*
X172969180Y-81060498D01*
X172934392Y-81049945D01*
X173115706Y-80829014D01*
X173253599Y-80571034D01*
X173338513Y-80291111D01*
X173367185Y-80000000D01*
X173338513Y-79708889D01*
X173253599Y-79428966D01*
X173115706Y-79170986D01*
X172930134Y-78944866D01*
X172704014Y-78759294D01*
X172686626Y-78750000D01*
X172704014Y-78740706D01*
X172930134Y-78555134D01*
X173115706Y-78329014D01*
X173253599Y-78071034D01*
X173338513Y-77791111D01*
X173367185Y-77500000D01*
X173338513Y-77208889D01*
X173253599Y-76928966D01*
X173115706Y-76670986D01*
X172930134Y-76444866D01*
X172704014Y-76259294D01*
X172686626Y-76250000D01*
X172704014Y-76240706D01*
X172930134Y-76055134D01*
X173115706Y-75829014D01*
X173253599Y-75571034D01*
X173338513Y-75291111D01*
X173367185Y-75000000D01*
X173338513Y-74708889D01*
X173253599Y-74428966D01*
X173115706Y-74170986D01*
X172930134Y-73944866D01*
X172704014Y-73759294D01*
X172686626Y-73750000D01*
X172704014Y-73740706D01*
X172930134Y-73555134D01*
X173115706Y-73329014D01*
X173253599Y-73071034D01*
X173338513Y-72791111D01*
X173367185Y-72500000D01*
X173338513Y-72208889D01*
X173253599Y-71928966D01*
X173115706Y-71670986D01*
X172930134Y-71444866D01*
X172704014Y-71259294D01*
X172686626Y-71250000D01*
X172704014Y-71240706D01*
X172930134Y-71055134D01*
X173115706Y-70829014D01*
X173253599Y-70571034D01*
X173338513Y-70291111D01*
X173367185Y-70000000D01*
X173338513Y-69708889D01*
X173253599Y-69428966D01*
X173115706Y-69170986D01*
X172930134Y-68944866D01*
X172704014Y-68759294D01*
X172686626Y-68750000D01*
X172704014Y-68740706D01*
X172930134Y-68555134D01*
X173115706Y-68329014D01*
X173253599Y-68071034D01*
X173338513Y-67791111D01*
X173367185Y-67500000D01*
X173338513Y-67208889D01*
X173253599Y-66928966D01*
X173115706Y-66670986D01*
X172930134Y-66444866D01*
X172704014Y-66259294D01*
X172686626Y-66250000D01*
X172704014Y-66240706D01*
X172930134Y-66055134D01*
X173115706Y-65829014D01*
X173253599Y-65571034D01*
X173338513Y-65291111D01*
X173367185Y-65000000D01*
X173338513Y-64708889D01*
X173253599Y-64428966D01*
X173115706Y-64170986D01*
X172930134Y-63944866D01*
X172704014Y-63759294D01*
X172446034Y-63621401D01*
X172166111Y-63536487D01*
X171947950Y-63515000D01*
X171552050Y-63515000D01*
X171333889Y-63536487D01*
X171053966Y-63621401D01*
X170795986Y-63759294D01*
X170569866Y-63944866D01*
X170384294Y-64170986D01*
X170246401Y-64428966D01*
X170161487Y-64708889D01*
X170132815Y-65000000D01*
X170161487Y-65291111D01*
X170246401Y-65571034D01*
X170384294Y-65829014D01*
X170569866Y-66055134D01*
X170795986Y-66240706D01*
X170813374Y-66250000D01*
X170795986Y-66259294D01*
X170569866Y-66444866D01*
X170384294Y-66670986D01*
X170246401Y-66928966D01*
X170161487Y-67208889D01*
X170132815Y-67500000D01*
X170161487Y-67791111D01*
X170246401Y-68071034D01*
X170384294Y-68329014D01*
X170569866Y-68555134D01*
X170795986Y-68740706D01*
X170813374Y-68750000D01*
X170795986Y-68759294D01*
X170569866Y-68944866D01*
X170384294Y-69170986D01*
X170246401Y-69428966D01*
X170161487Y-69708889D01*
X170132815Y-70000000D01*
X170161487Y-70291111D01*
X170246401Y-70571034D01*
X170384294Y-70829014D01*
X170569866Y-71055134D01*
X170795986Y-71240706D01*
X170813374Y-71250000D01*
X170795986Y-71259294D01*
X170569866Y-71444866D01*
X170384294Y-71670986D01*
X170246401Y-71928966D01*
X170161487Y-72208889D01*
X170132815Y-72500000D01*
X170161487Y-72791111D01*
X170246401Y-73071034D01*
X170384294Y-73329014D01*
X170569866Y-73555134D01*
X170795986Y-73740706D01*
X170813374Y-73750000D01*
X170795986Y-73759294D01*
X170606258Y-73915000D01*
X167613285Y-73915000D01*
X167490256Y-73832795D01*
X167301898Y-73754774D01*
X167101939Y-73715000D01*
X166898061Y-73715000D01*
X166698102Y-73754774D01*
X166509744Y-73832795D01*
X166340226Y-73946063D01*
X166196063Y-74090226D01*
X166082795Y-74259744D01*
X166004774Y-74448102D01*
X165965000Y-74648061D01*
X156585000Y-74648061D01*
X156585000Y-63360793D01*
X156805134Y-63180134D01*
X156990706Y-62954014D01*
X157000000Y-62936626D01*
X157009294Y-62954014D01*
X157194866Y-63180134D01*
X157420987Y-63365706D01*
X157678967Y-63503599D01*
X157958890Y-63588513D01*
X158250000Y-63617185D01*
X158541111Y-63588513D01*
X158821034Y-63503599D01*
X159079014Y-63365706D01*
X159305134Y-63180134D01*
X159490706Y-62954014D01*
X159628599Y-62696033D01*
X159713513Y-62416110D01*
X159735000Y-62197949D01*
X159735000Y-61802050D01*
X159713513Y-61583889D01*
X159628599Y-61303966D01*
X159490706Y-61045986D01*
X159305134Y-60819866D01*
X159160150Y-60700881D01*
X175228724Y-60700881D01*
X175588912Y-61190548D01*
X176252882Y-61550849D01*
X176974385Y-61774694D01*
X177725695Y-61853480D01*
X178477938Y-61784178D01*
X179202208Y-61569452D01*
X179870670Y-61217555D01*
X179911088Y-61190548D01*
X180271276Y-60700881D01*
X177750000Y-58179605D01*
X175228724Y-60700881D01*
X159160150Y-60700881D01*
X159079013Y-60634294D01*
X158821033Y-60496401D01*
X158541110Y-60411487D01*
X158250000Y-60382815D01*
X157958889Y-60411487D01*
X157678966Y-60496401D01*
X157420986Y-60634294D01*
X157194866Y-60819866D01*
X157009294Y-61045987D01*
X157000000Y-61063374D01*
X156990706Y-61045986D01*
X156805134Y-60819866D01*
X156579013Y-60634294D01*
X156321033Y-60496401D01*
X156041110Y-60411487D01*
X155750000Y-60382815D01*
X155458889Y-60411487D01*
X155178966Y-60496401D01*
X154920986Y-60634294D01*
X154694866Y-60819866D01*
X154509294Y-61045987D01*
X154500000Y-61063374D01*
X154490706Y-61045986D01*
X154305134Y-60819866D01*
X154079013Y-60634294D01*
X153821033Y-60496401D01*
X153541110Y-60411487D01*
X153250000Y-60382815D01*
X152958889Y-60411487D01*
X152678966Y-60496401D01*
X152420986Y-60634294D01*
X152200055Y-60815608D01*
X152189502Y-60780820D01*
X152130537Y-60670506D01*
X152051185Y-60573815D01*
X151954494Y-60494463D01*
X151844180Y-60435498D01*
X151724482Y-60399188D01*
X151600000Y-60386928D01*
X151035750Y-60390000D01*
X150877000Y-60548750D01*
X150623000Y-60548750D01*
X150464250Y-60390000D01*
X149900000Y-60386928D01*
X149775518Y-60399188D01*
X149655820Y-60435498D01*
X149545506Y-60494463D01*
X149448815Y-60573815D01*
X149369463Y-60670506D01*
X149310498Y-60780820D01*
X149274188Y-60900518D01*
X149261928Y-61025000D01*
X126532861Y-61025000D01*
X126771276Y-60700881D01*
X124250000Y-58179605D01*
X121728724Y-60700881D01*
X120410000Y-60700881D01*
X120410000Y-58122015D01*
X120465822Y-58727938D01*
X120680548Y-59452208D01*
X121032445Y-60120670D01*
X121059452Y-60161088D01*
X121549119Y-60521276D01*
X124070395Y-58000000D01*
X124429605Y-58000000D01*
X126950881Y-60521276D01*
X127440548Y-60161088D01*
X127800849Y-59497118D01*
X128024694Y-58775615D01*
X128103480Y-58024305D01*
X128099002Y-57975695D01*
X173896520Y-57975695D01*
X173965822Y-58727938D01*
X174180548Y-59452208D01*
X174532445Y-60120670D01*
X174559452Y-60161088D01*
X175049119Y-60521276D01*
X177570395Y-58000000D01*
X177929605Y-58000000D01*
X180450881Y-60521276D01*
X180940548Y-60161088D01*
X181300849Y-59497118D01*
X181524694Y-58775615D01*
X181603480Y-58024305D01*
X181534178Y-57272062D01*
X181319452Y-56547792D01*
X180967555Y-55879330D01*
X180940548Y-55838912D01*
X180450881Y-55478724D01*
X177929605Y-58000000D01*
X177570395Y-58000000D01*
X175049119Y-55478724D01*
X174559452Y-55838912D01*
X174199151Y-56502882D01*
X173975306Y-57224385D01*
X173896520Y-57975695D01*
X128099002Y-57975695D01*
X128034178Y-57272062D01*
X127819452Y-56547792D01*
X127467555Y-55879330D01*
X127440548Y-55838912D01*
X126950881Y-55478724D01*
X124429605Y-58000000D01*
X124070395Y-58000000D01*
X121549119Y-55478724D01*
X121059452Y-55838912D01*
X120699151Y-56502882D01*
X120475306Y-57224385D01*
X120410000Y-57847149D01*
X120410000Y-54160000D01*
X124127985Y-54160000D01*
X123522062Y-54215822D01*
G37*
%TD.AperFunction*%
%TD*%
M02*
