%TF.GenerationSoftware,KiCad,Pcbnew,5.1.10-88a1d61d58~88~ubuntu20.04.1*%
%TF.CreationDate,2021-05-13T20:29:17+02:00*%
%TF.ProjectId,anna_elsa_moves_display,616e6e61-5f65-46c7-9361-5f6d6f766573,rev?*%
%TF.SameCoordinates,Original*%
%TF.FileFunction,Soldermask,Top*%
%TF.FilePolarity,Negative*%
%FSLAX46Y46*%
G04 Gerber Fmt 4.6, Leading zero omitted, Abs format (unit mm)*
G04 Created by KiCad (PCBNEW 5.1.10-88a1d61d58~88~ubuntu20.04.1) date 2021-05-13 20:29:17*
%MOMM*%
%LPD*%
G01*
G04 APERTURE LIST*
%ADD10O,1.600000X1.600000*%
%ADD11C,1.600000*%
%ADD12O,1.700000X1.950000*%
%ADD13C,6.400000*%
%ADD14O,1.800000X1.800000*%
%ADD15R,1.800000X1.800000*%
%ADD16C,1.524000*%
%ADD17R,1.600000X1.600000*%
G04 APERTURE END LIST*
D10*
%TO.C,R6*%
X147620000Y-96000000D03*
D11*
X140000000Y-96000000D03*
%TD*%
D10*
%TO.C,R5*%
X147620000Y-92000000D03*
D11*
X140000000Y-92000000D03*
%TD*%
D10*
%TO.C,R4*%
X147620000Y-88000000D03*
D11*
X140000000Y-88000000D03*
%TD*%
D12*
%TO.C,J3*%
X117990000Y-110490000D03*
X115490000Y-110490000D03*
X112990000Y-110490000D03*
G36*
G01*
X109640000Y-111215000D02*
X109640000Y-109765000D01*
G75*
G02*
X109890000Y-109515000I250000J0D01*
G01*
X111090000Y-109515000D01*
G75*
G02*
X111340000Y-109765000I0J-250000D01*
G01*
X111340000Y-111215000D01*
G75*
G02*
X111090000Y-111465000I-250000J0D01*
G01*
X109890000Y-111465000D01*
G75*
G02*
X109640000Y-111215000I0J250000D01*
G01*
G37*
%TD*%
%TO.C,J2*%
X131960000Y-110490000D03*
X129460000Y-110490000D03*
X126960000Y-110490000D03*
G36*
G01*
X123610000Y-111215000D02*
X123610000Y-109765000D01*
G75*
G02*
X123860000Y-109515000I250000J0D01*
G01*
X125060000Y-109515000D01*
G75*
G02*
X125310000Y-109765000I0J-250000D01*
G01*
X125310000Y-111215000D01*
G75*
G02*
X125060000Y-111465000I-250000J0D01*
G01*
X123860000Y-111465000D01*
G75*
G02*
X123610000Y-111215000I0J250000D01*
G01*
G37*
%TD*%
D13*
%TO.C,H4*%
X146000000Y-45000000D03*
%TD*%
%TO.C,H3*%
X96000000Y-115000000D03*
%TD*%
%TO.C,H2*%
X145000000Y-115000000D03*
%TD*%
%TO.C,H1*%
X96000000Y-45000000D03*
%TD*%
D14*
%TO.C,D12*%
X139380000Y-104000000D03*
D15*
X147000000Y-104000000D03*
%TD*%
D16*
%TO.C,D2*%
X137615000Y-51735000D03*
X137615000Y-54275000D03*
X137615000Y-56815000D03*
X137615000Y-59355000D03*
X137615000Y-61895000D03*
X137615000Y-64435000D03*
X137615000Y-66975000D03*
X137615000Y-69515000D03*
X122375000Y-69515000D03*
X122375000Y-66975000D03*
X122375000Y-64435000D03*
X122375000Y-61895000D03*
X122375000Y-59355000D03*
X122375000Y-56815000D03*
X122375000Y-54275000D03*
X122375000Y-51735000D03*
%TD*%
%TO.C,D1*%
X117600000Y-51735000D03*
X117600000Y-54275000D03*
X117600000Y-56815000D03*
X117600000Y-59355000D03*
X117600000Y-61895000D03*
X117600000Y-64435000D03*
X117600000Y-66975000D03*
X117600000Y-69515000D03*
X102360000Y-69515000D03*
X102360000Y-66975000D03*
X102360000Y-64435000D03*
X102360000Y-61895000D03*
X102360000Y-59355000D03*
X102360000Y-56815000D03*
X102360000Y-54275000D03*
X102360000Y-51735000D03*
%TD*%
D11*
%TO.C,C2*%
X127000000Y-99500000D03*
D17*
X127000000Y-102000000D03*
%TD*%
D11*
%TO.C,C1*%
X132080000Y-90090000D03*
X132080000Y-85090000D03*
%TD*%
M02*
