%TF.GenerationSoftware,KiCad,Pcbnew,5.1.10-88a1d61d58~88~ubuntu20.04.1*%
%TF.CreationDate,2021-05-13T20:29:17+02:00*%
%TF.ProjectId,anna_elsa_moves_display,616e6e61-5f65-46c7-9361-5f6d6f766573,rev?*%
%TF.SameCoordinates,Original*%
%TF.FileFunction,Copper,L2,Bot*%
%TF.FilePolarity,Positive*%
%FSLAX46Y46*%
G04 Gerber Fmt 4.6, Leading zero omitted, Abs format (unit mm)*
G04 Created by KiCad (PCBNEW 5.1.10-88a1d61d58~88~ubuntu20.04.1) date 2021-05-13 20:29:17*
%MOMM*%
%LPD*%
G01*
G04 APERTURE LIST*
%TA.AperFunction,ComponentPad*%
%ADD10O,1.600000X1.600000*%
%TD*%
%TA.AperFunction,ComponentPad*%
%ADD11C,1.600000*%
%TD*%
%TA.AperFunction,SMDPad,CuDef*%
%ADD12R,1.500000X1.000000*%
%TD*%
%TA.AperFunction,ComponentPad*%
%ADD13O,1.700000X1.950000*%
%TD*%
%TA.AperFunction,ComponentPad*%
%ADD14C,6.400000*%
%TD*%
%TA.AperFunction,ComponentPad*%
%ADD15O,1.800000X1.800000*%
%TD*%
%TA.AperFunction,ComponentPad*%
%ADD16R,1.800000X1.800000*%
%TD*%
%TA.AperFunction,ComponentPad*%
%ADD17C,1.524000*%
%TD*%
%TA.AperFunction,ComponentPad*%
%ADD18R,1.600000X1.600000*%
%TD*%
%TA.AperFunction,ViaPad*%
%ADD19C,0.800000*%
%TD*%
%TA.AperFunction,ViaPad*%
%ADD20C,1.000000*%
%TD*%
%TA.AperFunction,Conductor*%
%ADD21C,0.250000*%
%TD*%
%TA.AperFunction,Conductor*%
%ADD22C,0.500000*%
%TD*%
G04 APERTURE END LIST*
D10*
%TO.P,R6,2*%
%TO.N,Net-(D12-Pad1)*%
X147620000Y-96000000D03*
D11*
%TO.P,R6,1*%
%TO.N,Net-(JP6-Pad1)*%
X140000000Y-96000000D03*
%TD*%
D10*
%TO.P,R5,2*%
%TO.N,Net-(D12-Pad1)*%
X147620000Y-92000000D03*
D11*
%TO.P,R5,1*%
%TO.N,Net-(JP5-Pad1)*%
X140000000Y-92000000D03*
%TD*%
D10*
%TO.P,R4,2*%
%TO.N,Net-(D12-Pad1)*%
X147620000Y-88000000D03*
D11*
%TO.P,R4,1*%
%TO.N,Net-(JP4-Pad1)*%
X140000000Y-88000000D03*
%TD*%
D12*
%TO.P,JP6,1*%
%TO.N,Net-(JP6-Pad1)*%
X145000000Y-77350000D03*
%TO.P,JP6,2*%
%TO.N,/A_1*%
X145000000Y-78650000D03*
%TD*%
%TO.P,JP5,1*%
%TO.N,Net-(JP5-Pad1)*%
X141000000Y-77350000D03*
%TO.P,JP5,2*%
%TO.N,/B_1*%
X141000000Y-78650000D03*
%TD*%
%TO.P,JP4,1*%
%TO.N,Net-(JP4-Pad1)*%
X137000000Y-77350000D03*
%TO.P,JP4,2*%
%TO.N,/C_1*%
X137000000Y-78650000D03*
%TD*%
D13*
%TO.P,J3,4*%
%TO.N,SCL*%
X117990000Y-110490000D03*
%TO.P,J3,3*%
%TO.N,SDA*%
X115490000Y-110490000D03*
%TO.P,J3,2*%
%TO.N,+5V*%
X112990000Y-110490000D03*
%TO.P,J3,1*%
%TO.N,GND*%
%TA.AperFunction,ComponentPad*%
G36*
G01*
X109640000Y-111215000D02*
X109640000Y-109765000D01*
G75*
G02*
X109890000Y-109515000I250000J0D01*
G01*
X111090000Y-109515000D01*
G75*
G02*
X111340000Y-109765000I0J-250000D01*
G01*
X111340000Y-111215000D01*
G75*
G02*
X111090000Y-111465000I-250000J0D01*
G01*
X109890000Y-111465000D01*
G75*
G02*
X109640000Y-111215000I0J250000D01*
G01*
G37*
%TD.AperFunction*%
%TD*%
%TO.P,J2,4*%
%TO.N,SCL*%
X131960000Y-110490000D03*
%TO.P,J2,3*%
%TO.N,SDA*%
X129460000Y-110490000D03*
%TO.P,J2,2*%
%TO.N,+5V*%
X126960000Y-110490000D03*
%TO.P,J2,1*%
%TO.N,GND*%
%TA.AperFunction,ComponentPad*%
G36*
G01*
X123610000Y-111215000D02*
X123610000Y-109765000D01*
G75*
G02*
X123860000Y-109515000I250000J0D01*
G01*
X125060000Y-109515000D01*
G75*
G02*
X125310000Y-109765000I0J-250000D01*
G01*
X125310000Y-111215000D01*
G75*
G02*
X125060000Y-111465000I-250000J0D01*
G01*
X123860000Y-111465000D01*
G75*
G02*
X123610000Y-111215000I0J250000D01*
G01*
G37*
%TD.AperFunction*%
%TD*%
%TO.P,J1,15*%
%TO.N,Net-(J1-Pad15)*%
%TA.AperFunction,SMDPad,CuDef*%
G36*
G01*
X111262500Y-83980000D02*
X110987500Y-83980000D01*
G75*
G02*
X110850000Y-83842500I0J137500D01*
G01*
X110850000Y-82117500D01*
G75*
G02*
X110987500Y-81980000I137500J0D01*
G01*
X111262500Y-81980000D01*
G75*
G02*
X111400000Y-82117500I0J-137500D01*
G01*
X111400000Y-83842500D01*
G75*
G02*
X111262500Y-83980000I-137500J0D01*
G01*
G37*
%TD.AperFunction*%
%TO.P,J1,16*%
%TO.N,Net-(J1-Pad16)*%
%TA.AperFunction,SMDPad,CuDef*%
G36*
G01*
X112532500Y-83980000D02*
X112257500Y-83980000D01*
G75*
G02*
X112120000Y-83842500I0J137500D01*
G01*
X112120000Y-82117500D01*
G75*
G02*
X112257500Y-81980000I137500J0D01*
G01*
X112532500Y-81980000D01*
G75*
G02*
X112670000Y-82117500I0J-137500D01*
G01*
X112670000Y-83842500D01*
G75*
G02*
X112532500Y-83980000I-137500J0D01*
G01*
G37*
%TD.AperFunction*%
%TO.P,J1,14*%
%TO.N,Net-(J1-Pad14)*%
%TA.AperFunction,SMDPad,CuDef*%
G36*
G01*
X111262500Y-93280000D02*
X110987500Y-93280000D01*
G75*
G02*
X110850000Y-93142500I0J137500D01*
G01*
X110850000Y-91417500D01*
G75*
G02*
X110987500Y-91280000I137500J0D01*
G01*
X111262500Y-91280000D01*
G75*
G02*
X111400000Y-91417500I0J-137500D01*
G01*
X111400000Y-93142500D01*
G75*
G02*
X111262500Y-93280000I-137500J0D01*
G01*
G37*
%TD.AperFunction*%
%TO.P,J1,13*%
%TO.N,Net-(J1-Pad13)*%
%TA.AperFunction,SMDPad,CuDef*%
G36*
G01*
X112532500Y-93280000D02*
X112257500Y-93280000D01*
G75*
G02*
X112120000Y-93142500I0J137500D01*
G01*
X112120000Y-91417500D01*
G75*
G02*
X112257500Y-91280000I137500J0D01*
G01*
X112532500Y-91280000D01*
G75*
G02*
X112670000Y-91417500I0J-137500D01*
G01*
X112670000Y-93142500D01*
G75*
G02*
X112532500Y-93280000I-137500J0D01*
G01*
G37*
%TD.AperFunction*%
%TO.P,J1,28*%
%TO.N,+5V*%
%TA.AperFunction,SMDPad,CuDef*%
G36*
G01*
X127772500Y-83980000D02*
X127497500Y-83980000D01*
G75*
G02*
X127360000Y-83842500I0J137500D01*
G01*
X127360000Y-82117500D01*
G75*
G02*
X127497500Y-81980000I137500J0D01*
G01*
X127772500Y-81980000D01*
G75*
G02*
X127910000Y-82117500I0J-137500D01*
G01*
X127910000Y-83842500D01*
G75*
G02*
X127772500Y-83980000I-137500J0D01*
G01*
G37*
%TD.AperFunction*%
%TO.P,J1,27*%
%TO.N,SDA*%
%TA.AperFunction,SMDPad,CuDef*%
G36*
G01*
X126502500Y-83980000D02*
X126227500Y-83980000D01*
G75*
G02*
X126090000Y-83842500I0J137500D01*
G01*
X126090000Y-82117500D01*
G75*
G02*
X126227500Y-81980000I137500J0D01*
G01*
X126502500Y-81980000D01*
G75*
G02*
X126640000Y-82117500I0J-137500D01*
G01*
X126640000Y-83842500D01*
G75*
G02*
X126502500Y-83980000I-137500J0D01*
G01*
G37*
%TD.AperFunction*%
%TO.P,J1,26*%
%TO.N,SCL*%
%TA.AperFunction,SMDPad,CuDef*%
G36*
G01*
X125232500Y-83980000D02*
X124957500Y-83980000D01*
G75*
G02*
X124820000Y-83842500I0J137500D01*
G01*
X124820000Y-82117500D01*
G75*
G02*
X124957500Y-81980000I137500J0D01*
G01*
X125232500Y-81980000D01*
G75*
G02*
X125370000Y-82117500I0J-137500D01*
G01*
X125370000Y-83842500D01*
G75*
G02*
X125232500Y-83980000I-137500J0D01*
G01*
G37*
%TD.AperFunction*%
%TO.P,J1,25*%
%TO.N,/A_1*%
%TA.AperFunction,SMDPad,CuDef*%
G36*
G01*
X123962500Y-83980000D02*
X123687500Y-83980000D01*
G75*
G02*
X123550000Y-83842500I0J137500D01*
G01*
X123550000Y-82117500D01*
G75*
G02*
X123687500Y-81980000I137500J0D01*
G01*
X123962500Y-81980000D01*
G75*
G02*
X124100000Y-82117500I0J-137500D01*
G01*
X124100000Y-83842500D01*
G75*
G02*
X123962500Y-83980000I-137500J0D01*
G01*
G37*
%TD.AperFunction*%
%TO.P,J1,24*%
%TO.N,/B_1*%
%TA.AperFunction,SMDPad,CuDef*%
G36*
G01*
X122692500Y-83980000D02*
X122417500Y-83980000D01*
G75*
G02*
X122280000Y-83842500I0J137500D01*
G01*
X122280000Y-82117500D01*
G75*
G02*
X122417500Y-81980000I137500J0D01*
G01*
X122692500Y-81980000D01*
G75*
G02*
X122830000Y-82117500I0J-137500D01*
G01*
X122830000Y-83842500D01*
G75*
G02*
X122692500Y-83980000I-137500J0D01*
G01*
G37*
%TD.AperFunction*%
%TO.P,J1,23*%
%TO.N,/C_1*%
%TA.AperFunction,SMDPad,CuDef*%
G36*
G01*
X121422500Y-83980000D02*
X121147500Y-83980000D01*
G75*
G02*
X121010000Y-83842500I0J137500D01*
G01*
X121010000Y-82117500D01*
G75*
G02*
X121147500Y-81980000I137500J0D01*
G01*
X121422500Y-81980000D01*
G75*
G02*
X121560000Y-82117500I0J-137500D01*
G01*
X121560000Y-83842500D01*
G75*
G02*
X121422500Y-83980000I-137500J0D01*
G01*
G37*
%TD.AperFunction*%
%TO.P,J1,22*%
%TO.N,/D_1*%
%TA.AperFunction,SMDPad,CuDef*%
G36*
G01*
X120152500Y-83980000D02*
X119877500Y-83980000D01*
G75*
G02*
X119740000Y-83842500I0J137500D01*
G01*
X119740000Y-82117500D01*
G75*
G02*
X119877500Y-81980000I137500J0D01*
G01*
X120152500Y-81980000D01*
G75*
G02*
X120290000Y-82117500I0J-137500D01*
G01*
X120290000Y-83842500D01*
G75*
G02*
X120152500Y-83980000I-137500J0D01*
G01*
G37*
%TD.AperFunction*%
%TO.P,J1,21*%
%TO.N,/E_1*%
%TA.AperFunction,SMDPad,CuDef*%
G36*
G01*
X118882500Y-83980000D02*
X118607500Y-83980000D01*
G75*
G02*
X118470000Y-83842500I0J137500D01*
G01*
X118470000Y-82117500D01*
G75*
G02*
X118607500Y-81980000I137500J0D01*
G01*
X118882500Y-81980000D01*
G75*
G02*
X119020000Y-82117500I0J-137500D01*
G01*
X119020000Y-83842500D01*
G75*
G02*
X118882500Y-83980000I-137500J0D01*
G01*
G37*
%TD.AperFunction*%
%TO.P,J1,20*%
%TO.N,/F_1*%
%TA.AperFunction,SMDPad,CuDef*%
G36*
G01*
X117612500Y-83980000D02*
X117337500Y-83980000D01*
G75*
G02*
X117200000Y-83842500I0J137500D01*
G01*
X117200000Y-82117500D01*
G75*
G02*
X117337500Y-81980000I137500J0D01*
G01*
X117612500Y-81980000D01*
G75*
G02*
X117750000Y-82117500I0J-137500D01*
G01*
X117750000Y-83842500D01*
G75*
G02*
X117612500Y-83980000I-137500J0D01*
G01*
G37*
%TD.AperFunction*%
%TO.P,J1,19*%
%TO.N,/G_1*%
%TA.AperFunction,SMDPad,CuDef*%
G36*
G01*
X116342500Y-83980000D02*
X116067500Y-83980000D01*
G75*
G02*
X115930000Y-83842500I0J137500D01*
G01*
X115930000Y-82117500D01*
G75*
G02*
X116067500Y-81980000I137500J0D01*
G01*
X116342500Y-81980000D01*
G75*
G02*
X116480000Y-82117500I0J-137500D01*
G01*
X116480000Y-83842500D01*
G75*
G02*
X116342500Y-83980000I-137500J0D01*
G01*
G37*
%TD.AperFunction*%
%TO.P,J1,18*%
%TO.N,/DP_1*%
%TA.AperFunction,SMDPad,CuDef*%
G36*
G01*
X115072500Y-83980000D02*
X114797500Y-83980000D01*
G75*
G02*
X114660000Y-83842500I0J137500D01*
G01*
X114660000Y-82117500D01*
G75*
G02*
X114797500Y-81980000I137500J0D01*
G01*
X115072500Y-81980000D01*
G75*
G02*
X115210000Y-82117500I0J-137500D01*
G01*
X115210000Y-83842500D01*
G75*
G02*
X115072500Y-83980000I-137500J0D01*
G01*
G37*
%TD.AperFunction*%
%TO.P,J1,17*%
%TO.N,Net-(J1-Pad17)*%
%TA.AperFunction,SMDPad,CuDef*%
G36*
G01*
X113802500Y-83980000D02*
X113527500Y-83980000D01*
G75*
G02*
X113390000Y-83842500I0J137500D01*
G01*
X113390000Y-82117500D01*
G75*
G02*
X113527500Y-81980000I137500J0D01*
G01*
X113802500Y-81980000D01*
G75*
G02*
X113940000Y-82117500I0J-137500D01*
G01*
X113940000Y-83842500D01*
G75*
G02*
X113802500Y-83980000I-137500J0D01*
G01*
G37*
%TD.AperFunction*%
%TO.P,J1,12*%
%TO.N,Net-(J1-Pad12)*%
%TA.AperFunction,SMDPad,CuDef*%
G36*
G01*
X113802500Y-93280000D02*
X113527500Y-93280000D01*
G75*
G02*
X113390000Y-93142500I0J137500D01*
G01*
X113390000Y-91417500D01*
G75*
G02*
X113527500Y-91280000I137500J0D01*
G01*
X113802500Y-91280000D01*
G75*
G02*
X113940000Y-91417500I0J-137500D01*
G01*
X113940000Y-93142500D01*
G75*
G02*
X113802500Y-93280000I-137500J0D01*
G01*
G37*
%TD.AperFunction*%
%TO.P,J1,11*%
%TO.N,Net-(J1-Pad11)*%
%TA.AperFunction,SMDPad,CuDef*%
G36*
G01*
X115072500Y-93280000D02*
X114797500Y-93280000D01*
G75*
G02*
X114660000Y-93142500I0J137500D01*
G01*
X114660000Y-91417500D01*
G75*
G02*
X114797500Y-91280000I137500J0D01*
G01*
X115072500Y-91280000D01*
G75*
G02*
X115210000Y-91417500I0J-137500D01*
G01*
X115210000Y-93142500D01*
G75*
G02*
X115072500Y-93280000I-137500J0D01*
G01*
G37*
%TD.AperFunction*%
%TO.P,J1,10*%
%TO.N,Net-(J1-Pad10)*%
%TA.AperFunction,SMDPad,CuDef*%
G36*
G01*
X116342500Y-93280000D02*
X116067500Y-93280000D01*
G75*
G02*
X115930000Y-93142500I0J137500D01*
G01*
X115930000Y-91417500D01*
G75*
G02*
X116067500Y-91280000I137500J0D01*
G01*
X116342500Y-91280000D01*
G75*
G02*
X116480000Y-91417500I0J-137500D01*
G01*
X116480000Y-93142500D01*
G75*
G02*
X116342500Y-93280000I-137500J0D01*
G01*
G37*
%TD.AperFunction*%
%TO.P,J1,9*%
%TO.N,Net-(J1-Pad9)*%
%TA.AperFunction,SMDPad,CuDef*%
G36*
G01*
X117612500Y-93280000D02*
X117337500Y-93280000D01*
G75*
G02*
X117200000Y-93142500I0J137500D01*
G01*
X117200000Y-91417500D01*
G75*
G02*
X117337500Y-91280000I137500J0D01*
G01*
X117612500Y-91280000D01*
G75*
G02*
X117750000Y-91417500I0J-137500D01*
G01*
X117750000Y-93142500D01*
G75*
G02*
X117612500Y-93280000I-137500J0D01*
G01*
G37*
%TD.AperFunction*%
%TO.P,J1,8*%
%TO.N,Net-(J1-Pad8)*%
%TA.AperFunction,SMDPad,CuDef*%
G36*
G01*
X118882500Y-93280000D02*
X118607500Y-93280000D01*
G75*
G02*
X118470000Y-93142500I0J137500D01*
G01*
X118470000Y-91417500D01*
G75*
G02*
X118607500Y-91280000I137500J0D01*
G01*
X118882500Y-91280000D01*
G75*
G02*
X119020000Y-91417500I0J-137500D01*
G01*
X119020000Y-93142500D01*
G75*
G02*
X118882500Y-93280000I-137500J0D01*
G01*
G37*
%TD.AperFunction*%
%TO.P,J1,7*%
%TO.N,Net-(J1-Pad7)*%
%TA.AperFunction,SMDPad,CuDef*%
G36*
G01*
X120152500Y-93280000D02*
X119877500Y-93280000D01*
G75*
G02*
X119740000Y-93142500I0J137500D01*
G01*
X119740000Y-91417500D01*
G75*
G02*
X119877500Y-91280000I137500J0D01*
G01*
X120152500Y-91280000D01*
G75*
G02*
X120290000Y-91417500I0J-137500D01*
G01*
X120290000Y-93142500D01*
G75*
G02*
X120152500Y-93280000I-137500J0D01*
G01*
G37*
%TD.AperFunction*%
%TO.P,J1,6*%
%TO.N,Net-(J1-Pad6)*%
%TA.AperFunction,SMDPad,CuDef*%
G36*
G01*
X121422500Y-93280000D02*
X121147500Y-93280000D01*
G75*
G02*
X121010000Y-93142500I0J137500D01*
G01*
X121010000Y-91417500D01*
G75*
G02*
X121147500Y-91280000I137500J0D01*
G01*
X121422500Y-91280000D01*
G75*
G02*
X121560000Y-91417500I0J-137500D01*
G01*
X121560000Y-93142500D01*
G75*
G02*
X121422500Y-93280000I-137500J0D01*
G01*
G37*
%TD.AperFunction*%
%TO.P,J1,5*%
%TO.N,Net-(J1-Pad5)*%
%TA.AperFunction,SMDPad,CuDef*%
G36*
G01*
X122692500Y-93280000D02*
X122417500Y-93280000D01*
G75*
G02*
X122280000Y-93142500I0J137500D01*
G01*
X122280000Y-91417500D01*
G75*
G02*
X122417500Y-91280000I137500J0D01*
G01*
X122692500Y-91280000D01*
G75*
G02*
X122830000Y-91417500I0J-137500D01*
G01*
X122830000Y-93142500D01*
G75*
G02*
X122692500Y-93280000I-137500J0D01*
G01*
G37*
%TD.AperFunction*%
%TO.P,J1,4*%
%TO.N,Net-(J1-Pad4)*%
%TA.AperFunction,SMDPad,CuDef*%
G36*
G01*
X123962500Y-93280000D02*
X123687500Y-93280000D01*
G75*
G02*
X123550000Y-93142500I0J137500D01*
G01*
X123550000Y-91417500D01*
G75*
G02*
X123687500Y-91280000I137500J0D01*
G01*
X123962500Y-91280000D01*
G75*
G02*
X124100000Y-91417500I0J-137500D01*
G01*
X124100000Y-93142500D01*
G75*
G02*
X123962500Y-93280000I-137500J0D01*
G01*
G37*
%TD.AperFunction*%
%TO.P,J1,3*%
%TO.N,/7_SEG_2*%
%TA.AperFunction,SMDPad,CuDef*%
G36*
G01*
X125232500Y-93280000D02*
X124957500Y-93280000D01*
G75*
G02*
X124820000Y-93142500I0J137500D01*
G01*
X124820000Y-91417500D01*
G75*
G02*
X124957500Y-91280000I137500J0D01*
G01*
X125232500Y-91280000D01*
G75*
G02*
X125370000Y-91417500I0J-137500D01*
G01*
X125370000Y-93142500D01*
G75*
G02*
X125232500Y-93280000I-137500J0D01*
G01*
G37*
%TD.AperFunction*%
%TO.P,J1,2*%
%TO.N,/7_SEG_1*%
%TA.AperFunction,SMDPad,CuDef*%
G36*
G01*
X126502500Y-93280000D02*
X126227500Y-93280000D01*
G75*
G02*
X126090000Y-93142500I0J137500D01*
G01*
X126090000Y-91417500D01*
G75*
G02*
X126227500Y-91280000I137500J0D01*
G01*
X126502500Y-91280000D01*
G75*
G02*
X126640000Y-91417500I0J-137500D01*
G01*
X126640000Y-93142500D01*
G75*
G02*
X126502500Y-93280000I-137500J0D01*
G01*
G37*
%TD.AperFunction*%
%TO.P,J1,1*%
%TO.N,GND*%
%TA.AperFunction,SMDPad,CuDef*%
G36*
G01*
X127772500Y-93280000D02*
X127497500Y-93280000D01*
G75*
G02*
X127360000Y-93142500I0J137500D01*
G01*
X127360000Y-91417500D01*
G75*
G02*
X127497500Y-91280000I137500J0D01*
G01*
X127772500Y-91280000D01*
G75*
G02*
X127910000Y-91417500I0J-137500D01*
G01*
X127910000Y-93142500D01*
G75*
G02*
X127772500Y-93280000I-137500J0D01*
G01*
G37*
%TD.AperFunction*%
%TD*%
D14*
%TO.P,H4,1*%
%TO.N,GND*%
X146000000Y-45000000D03*
%TD*%
%TO.P,H3,1*%
%TO.N,GND*%
X96000000Y-115000000D03*
%TD*%
%TO.P,H2,1*%
%TO.N,GND*%
X145000000Y-115000000D03*
%TD*%
%TO.P,H1,1*%
%TO.N,GND*%
X96000000Y-45000000D03*
%TD*%
D15*
%TO.P,D12,2*%
%TO.N,/7_SEG_1*%
X139380000Y-104000000D03*
D16*
%TO.P,D12,1*%
%TO.N,Net-(D12-Pad1)*%
X147000000Y-104000000D03*
%TD*%
D17*
%TO.P,D2,16*%
%TO.N,/7_SEG_2*%
X137615000Y-51735000D03*
%TO.P,D2,15*%
%TO.N,N/C*%
X137615000Y-54275000D03*
%TO.P,D2,14*%
%TO.N,/B_1*%
X137615000Y-56815000D03*
%TO.P,D2,13*%
%TO.N,/G_1*%
X137615000Y-59355000D03*
%TO.P,D2,12*%
%TO.N,/C_1*%
X137615000Y-61895000D03*
%TO.P,D2,11*%
%TO.N,/7_SEG_2*%
X137615000Y-64435000D03*
%TO.P,D2,10*%
%TO.N,/D_1*%
X137615000Y-66975000D03*
%TO.P,D2,9*%
%TO.N,/DP_1*%
X137615000Y-69515000D03*
%TO.P,D2,8*%
%TO.N,N/C*%
X122375000Y-69515000D03*
%TO.P,D2,7*%
X122375000Y-66975000D03*
%TO.P,D2,6*%
X122375000Y-64435000D03*
%TO.P,D2,5*%
%TO.N,/7_SEG_2*%
X122375000Y-61895000D03*
%TO.P,D2,4*%
%TO.N,/E_1*%
X122375000Y-59355000D03*
%TO.P,D2,3*%
%TO.N,/7_SEG_2*%
X122375000Y-56815000D03*
%TO.P,D2,2*%
%TO.N,/F_1*%
X122375000Y-54275000D03*
%TO.P,D2,1*%
%TO.N,/A_1*%
X122375000Y-51735000D03*
%TD*%
%TO.P,D1,16*%
%TO.N,/7_SEG_1*%
X117600000Y-51735000D03*
%TO.P,D1,15*%
%TO.N,N/C*%
X117600000Y-54275000D03*
%TO.P,D1,14*%
%TO.N,/B_1*%
X117600000Y-56815000D03*
%TO.P,D1,13*%
%TO.N,/G_1*%
X117600000Y-59355000D03*
%TO.P,D1,12*%
%TO.N,/C_1*%
X117600000Y-61895000D03*
%TO.P,D1,11*%
%TO.N,/7_SEG_1*%
X117600000Y-64435000D03*
%TO.P,D1,10*%
%TO.N,/D_1*%
X117600000Y-66975000D03*
%TO.P,D1,9*%
%TO.N,/DP_1*%
X117600000Y-69515000D03*
%TO.P,D1,8*%
%TO.N,N/C*%
X102360000Y-69515000D03*
%TO.P,D1,7*%
X102360000Y-66975000D03*
%TO.P,D1,6*%
X102360000Y-64435000D03*
%TO.P,D1,5*%
%TO.N,/7_SEG_1*%
X102360000Y-61895000D03*
%TO.P,D1,4*%
%TO.N,/E_1*%
X102360000Y-59355000D03*
%TO.P,D1,3*%
%TO.N,/7_SEG_1*%
X102360000Y-56815000D03*
%TO.P,D1,2*%
%TO.N,/F_1*%
X102360000Y-54275000D03*
%TO.P,D1,1*%
%TO.N,/A_1*%
X102360000Y-51735000D03*
%TD*%
D11*
%TO.P,C2,2*%
%TO.N,GND*%
X127000000Y-99500000D03*
D18*
%TO.P,C2,1*%
%TO.N,+5V*%
X127000000Y-102000000D03*
%TD*%
D11*
%TO.P,C1,2*%
%TO.N,GND*%
X132080000Y-90090000D03*
%TO.P,C1,1*%
%TO.N,+5V*%
X132080000Y-85090000D03*
%TD*%
D19*
%TO.N,SCL*%
X118110000Y-106680000D03*
X130810000Y-106680000D03*
X125730000Y-86360000D03*
X134620000Y-87630000D03*
X134620000Y-106680000D03*
%TO.N,SDA*%
X115570000Y-105410000D03*
X128270000Y-105410000D03*
X121920000Y-105410000D03*
X121920000Y-87630000D03*
X127000000Y-87630000D03*
D20*
%TO.N,+5V*%
X113030000Y-107950000D03*
X127000000Y-107950000D03*
X133350000Y-101600000D03*
D19*
%TO.N,/A_1*%
X145000000Y-80000000D03*
X125000000Y-80000000D03*
%TO.N,/B_1*%
X140970000Y-82550000D03*
X123190000Y-85090000D03*
%TO.N,/C_1*%
X135890000Y-81280000D03*
X121920000Y-81280000D03*
X135137999Y-62982001D03*
%TO.N,/E_1*%
X127000000Y-59690000D03*
X127000000Y-78740000D03*
X119380000Y-78740000D03*
%TO.N,/F_1*%
X124460000Y-77470000D03*
X118110000Y-77470000D03*
%TO.N,/G_1*%
X119897999Y-60442001D03*
%TO.N,/7_SEG_2*%
X135890000Y-57150000D03*
X128270000Y-62230000D03*
%TO.N,/7_SEG_1*%
X120650000Y-88900000D03*
X125730000Y-88900000D03*
X120650000Y-64770000D03*
X128270000Y-95250000D03*
X137160000Y-95250000D03*
%TD*%
D21*
%TO.N,SCL*%
X117990000Y-106800000D02*
X118110000Y-106680000D01*
X117990000Y-110490000D02*
X117990000Y-106800000D01*
X130810000Y-109340000D02*
X131960000Y-110490000D01*
X130810000Y-106680000D02*
X130810000Y-109340000D01*
X125095000Y-85725000D02*
X125095000Y-82980000D01*
X125730000Y-86360000D02*
X125095000Y-85725000D01*
X134620000Y-87630000D02*
X134620000Y-106680000D01*
%TO.N,SDA*%
X115490000Y-105490000D02*
X115570000Y-105410000D01*
X115490000Y-110490000D02*
X115490000Y-105490000D01*
X128270000Y-109300000D02*
X129460000Y-110490000D01*
X128270000Y-105410000D02*
X128270000Y-109300000D01*
X121920000Y-105410000D02*
X121920000Y-87630000D01*
X127000000Y-83615000D02*
X126365000Y-82980000D01*
X127000000Y-87630000D02*
X127000000Y-83615000D01*
D22*
%TO.N,+5V*%
X129970000Y-82980000D02*
X132080000Y-85090000D01*
X127635000Y-82980000D02*
X129970000Y-82980000D01*
X127000000Y-110180000D02*
X126760000Y-110420000D01*
X127000000Y-102000000D02*
X127000000Y-110450000D01*
X112990000Y-107990000D02*
X113030000Y-107950000D01*
X112990000Y-110490000D02*
X112990000Y-107990000D01*
X127000000Y-110450000D02*
X126960000Y-110490000D01*
X127000000Y-107950000D02*
X127000000Y-110450000D01*
X132080000Y-85090000D02*
X133330001Y-86340001D01*
X133350000Y-101600000D02*
X133350000Y-95289998D01*
X133330001Y-95269999D02*
X133330001Y-95669999D01*
X133350000Y-95289998D02*
X133330001Y-95269999D01*
X133330001Y-86340001D02*
X133330001Y-95269999D01*
%TO.N,GND*%
X129890000Y-92280000D02*
X132080000Y-90090000D01*
X127635000Y-92280000D02*
X129890000Y-92280000D01*
D21*
%TO.N,/A_1*%
X145000000Y-78650000D02*
X145000000Y-80000000D01*
X123825000Y-81175000D02*
X123825000Y-82980000D01*
X125000000Y-80000000D02*
X123825000Y-81175000D01*
X122375000Y-51735000D02*
X125399999Y-54759999D01*
X125399999Y-79600001D02*
X125000000Y-80000000D01*
X125399999Y-54759999D02*
X125399999Y-79600001D01*
%TO.N,/B_1*%
X141000000Y-81250000D02*
X140970000Y-81280000D01*
X141000000Y-82520000D02*
X140970000Y-82550000D01*
X141000000Y-78650000D02*
X141000000Y-82520000D01*
X123190000Y-83615000D02*
X122555000Y-82980000D01*
X123190000Y-85090000D02*
X123190000Y-83615000D01*
X142075001Y-61275001D02*
X137615000Y-56815000D01*
X142075001Y-78574999D02*
X142075001Y-61275001D01*
X142000000Y-78650000D02*
X142075001Y-78574999D01*
X141000000Y-78650000D02*
X142000000Y-78650000D01*
%TO.N,/C_1*%
X137000000Y-80170000D02*
X135890000Y-81280000D01*
X137000000Y-78650000D02*
X137000000Y-80170000D01*
X121920000Y-82345000D02*
X121285000Y-82980000D01*
X121920000Y-81280000D02*
X121920000Y-82345000D01*
X136464998Y-78650000D02*
X135137999Y-77323001D01*
X137000000Y-78650000D02*
X136464998Y-78650000D01*
X135137999Y-77323001D02*
X135137999Y-62982001D01*
%TO.N,/D_1*%
X117600000Y-66975000D02*
X114300000Y-70275000D01*
X120015000Y-83364088D02*
X120015000Y-82980000D01*
X119074078Y-84305010D02*
X120015000Y-83364088D01*
X114605922Y-84305010D02*
X119074078Y-84305010D01*
X114300000Y-83999088D02*
X114605922Y-84305010D01*
X114300000Y-70275000D02*
X114300000Y-83999088D01*
%TO.N,/E_1*%
X127000000Y-59690000D02*
X127000000Y-78740000D01*
X119380000Y-82345000D02*
X118745000Y-82980000D01*
X119380000Y-78740000D02*
X119380000Y-82345000D01*
%TO.N,/F_1*%
X122375000Y-54275000D02*
X124460000Y-56360000D01*
X124460000Y-56360000D02*
X124460000Y-77470000D01*
X118110000Y-82345000D02*
X117475000Y-82980000D01*
X118110000Y-77470000D02*
X118110000Y-82345000D01*
%TO.N,/G_1*%
X116205000Y-78301998D02*
X116205000Y-82980000D01*
X119897999Y-74608999D02*
X116205000Y-78301998D01*
X119897999Y-60442001D02*
X119897999Y-74608999D01*
%TO.N,/DP_1*%
X114935000Y-72180000D02*
X114935000Y-82980000D01*
X117600000Y-69515000D02*
X114935000Y-72180000D01*
%TO.N,/7_SEG_2*%
X121287999Y-57902001D02*
X121287999Y-60807999D01*
X121287999Y-60807999D02*
X122375000Y-61895000D01*
X122375000Y-56815000D02*
X121287999Y-57902001D01*
X137615000Y-51735000D02*
X135890000Y-53460000D01*
X135890000Y-53460000D02*
X135890000Y-57150000D01*
X135890000Y-57150000D02*
X135890000Y-58420000D01*
X135890000Y-62710000D02*
X137615000Y-64435000D01*
X135890000Y-57150000D02*
X135890000Y-62710000D01*
X124494990Y-91679990D02*
X125095000Y-92280000D01*
X124494990Y-81925922D02*
X124494990Y-91679990D01*
X124765922Y-81654990D02*
X124494990Y-81925922D01*
X127964078Y-62535922D02*
X128270000Y-62230000D01*
X127374990Y-81563166D02*
X127964078Y-80974078D01*
X127374990Y-81654990D02*
X127374990Y-81563166D01*
X127964078Y-80974078D02*
X127964078Y-62535922D01*
X127374990Y-81654990D02*
X124765922Y-81654990D01*
%TO.N,/7_SEG_1*%
X101272999Y-60807999D02*
X102360000Y-61895000D01*
X101272999Y-57902001D02*
X101272999Y-60807999D01*
X102360000Y-56815000D02*
X101272999Y-57902001D01*
X115060000Y-61895000D02*
X117600000Y-64435000D01*
X102360000Y-61895000D02*
X115060000Y-61895000D01*
X115060000Y-54275000D02*
X115060000Y-61895000D01*
X117600000Y-51735000D02*
X115060000Y-54275000D01*
X126365000Y-93280000D02*
X126365000Y-92280000D01*
X128335000Y-95250000D02*
X126365000Y-93280000D01*
X125730000Y-91645000D02*
X126365000Y-92280000D01*
X125730000Y-88900000D02*
X125730000Y-91645000D01*
X120650000Y-68580000D02*
X120650000Y-69850000D01*
X120650000Y-64770000D02*
X120650000Y-68580000D01*
X120650000Y-69850000D02*
X120650000Y-88900000D01*
X120650000Y-67485000D02*
X120650000Y-69850000D01*
X128335000Y-95250000D02*
X128270000Y-95250000D01*
X137160000Y-101780000D02*
X139380000Y-104000000D01*
X137160000Y-95250000D02*
X137160000Y-101780000D01*
%TO.N,Net-(D12-Pad1)*%
X147620000Y-103380000D02*
X147000000Y-104000000D01*
X147620000Y-88000000D02*
X147620000Y-103380000D01*
%TO.N,Net-(JP4-Pad1)*%
X139200001Y-78550001D02*
X139200001Y-87200001D01*
X138000000Y-77350000D02*
X139200001Y-78550001D01*
X139200001Y-87200001D02*
X140000000Y-88000000D01*
X137000000Y-77350000D02*
X138000000Y-77350000D01*
%TO.N,Net-(JP5-Pad1)*%
X141125001Y-90874999D02*
X140000000Y-92000000D01*
X141125001Y-87459999D02*
X141125001Y-90874999D01*
X139924999Y-77425001D02*
X139924999Y-86259997D01*
X140000000Y-77350000D02*
X139924999Y-77425001D01*
X139924999Y-86259997D02*
X141125001Y-87459999D01*
X141000000Y-77350000D02*
X140000000Y-77350000D01*
%TO.N,Net-(JP6-Pad1)*%
X144000000Y-77350000D02*
X142075001Y-79274999D01*
X142075001Y-93924999D02*
X140000000Y-96000000D01*
X142075001Y-79274999D02*
X142075001Y-93924999D01*
X145000000Y-77350000D02*
X144000000Y-77350000D01*
%TD*%
M02*
