M48
; DRILL file {KiCad 5.1.10-88a1d61d58~88~ubuntu20.04.1} date Thu May 13 20:29:20 2021
; FORMAT={-:-/ absolute / inch / decimal}
; #@! TF.CreationDate,2021-05-13T20:29:20+02:00
; #@! TF.GenerationSoftware,Kicad,Pcbnew,5.1.10-88a1d61d58~88~ubuntu20.04.1
; #@! TF.FileFunction,Plated,1,2,PTH
FMAT,2
INCH
T1C0.0157
T2C0.0300
T3C0.0315
T4C0.0354
T5C0.0374
T6C0.1260
%
G90
G05
T1
X4.45Y-4.25
X4.55Y-4.15
X4.65Y-3.05
X4.65Y-4.2
X4.7Y-3.1
X4.7204Y-2.3796
X4.75Y-2.55
X4.75Y-3.5
X4.8Y-3.2
X4.8Y-3.45
X4.8Y-4.15
X4.85Y-3.35
X4.9Y-3.05
X4.9213Y-3.1496
X4.95Y-3.4
X4.95Y-3.5
X5.0Y-2.35
X5.0Y-3.1
X5.0Y-3.45
X5.0Y-4.25
X5.05Y-2.45
X5.05Y-3.75
X5.05Y-4.15
X5.15Y-4.2
X5.25Y-4.0
X5.3Y-3.45
X5.3Y-4.2
X5.3204Y-2.4796
X5.35Y-2.25
X5.35Y-3.2
X5.4Y-3.75
X5.55Y-3.25
X5.7087Y-3.1496
T2
X4.0299Y-2.0368
X4.0299Y-2.1368
X4.0299Y-2.2368
X4.0299Y-2.3368
X4.0299Y-2.4368
X4.0299Y-2.5368
X4.0299Y-2.6368
X4.0299Y-2.7368
X4.6299Y-2.0368
X4.6299Y-2.1368
X4.6299Y-2.2368
X4.6299Y-2.3368
X4.6299Y-2.4368
X4.6299Y-2.5368
X4.6299Y-2.6368
X4.6299Y-2.7368
X4.8179Y-2.0368
X4.8179Y-2.1368
X4.8179Y-2.2368
X4.8179Y-2.3368
X4.8179Y-2.4368
X4.8179Y-2.5368
X4.8179Y-2.6368
X4.8179Y-2.7368
X5.4179Y-2.0368
X5.4179Y-2.1368
X5.4179Y-2.2368
X5.4179Y-2.3368
X5.4179Y-2.4368
X5.4179Y-2.5368
X5.4179Y-2.6368
X5.4179Y-2.7368
T3
X5.0Y-3.9173
X5.0Y-4.0157
X5.2Y-3.35
X5.2Y-3.5469
X5.5118Y-3.4646
X5.5118Y-3.622
X5.5118Y-3.7795
X5.8118Y-3.4646
X5.8118Y-3.622
X5.8118Y-3.7795
T4
X5.4874Y-4.0945
X5.7874Y-4.0945
T5
X4.35Y-4.35
X4.4484Y-4.35
X4.5469Y-4.35
X4.6453Y-4.35
X4.9Y-4.35
X4.9984Y-4.35
X5.0969Y-4.35
X5.1953Y-4.35
T6
X3.7795Y-1.7717
X3.7795Y-4.5276
X5.7087Y-4.5276
X5.748Y-1.7717
T0
M30
