%TF.GenerationSoftware,KiCad,Pcbnew,5.1.10-88a1d61d58~88~ubuntu20.04.1*%
%TF.CreationDate,2021-05-13T20:29:17+02:00*%
%TF.ProjectId,anna_elsa_moves_display,616e6e61-5f65-46c7-9361-5f6d6f766573,rev?*%
%TF.SameCoordinates,Original*%
%TF.FileFunction,Legend,Bot*%
%TF.FilePolarity,Positive*%
%FSLAX46Y46*%
G04 Gerber Fmt 4.6, Leading zero omitted, Abs format (unit mm)*
G04 Created by KiCad (PCBNEW 5.1.10-88a1d61d58~88~ubuntu20.04.1) date 2021-05-13 20:29:17*
%MOMM*%
%LPD*%
G01*
G04 APERTURE LIST*
%ADD10C,0.300000*%
%ADD11C,0.120000*%
%ADD12C,0.150000*%
G04 APERTURE END LIST*
D10*
X93730000Y-109400000D02*
X93730000Y-108685714D01*
X93301428Y-109542857D02*
X94801428Y-109042857D01*
X93301428Y-108542857D01*
X94301428Y-108042857D02*
X93301428Y-108042857D01*
X94158571Y-108042857D02*
X94230000Y-107971428D01*
X94301428Y-107828571D01*
X94301428Y-107614285D01*
X94230000Y-107471428D01*
X94087142Y-107400000D01*
X93301428Y-107400000D01*
X94301428Y-106685714D02*
X93301428Y-106685714D01*
X94158571Y-106685714D02*
X94230000Y-106614285D01*
X94301428Y-106471428D01*
X94301428Y-106257142D01*
X94230000Y-106114285D01*
X94087142Y-106042857D01*
X93301428Y-106042857D01*
X93301428Y-104685714D02*
X94087142Y-104685714D01*
X94230000Y-104757142D01*
X94301428Y-104900000D01*
X94301428Y-105185714D01*
X94230000Y-105328571D01*
X93372857Y-104685714D02*
X93301428Y-104828571D01*
X93301428Y-105185714D01*
X93372857Y-105328571D01*
X93515714Y-105400000D01*
X93658571Y-105400000D01*
X93801428Y-105328571D01*
X93872857Y-105185714D01*
X93872857Y-104828571D01*
X93944285Y-104685714D01*
X94087142Y-102828571D02*
X94087142Y-102328571D01*
X93301428Y-102114285D02*
X93301428Y-102828571D01*
X94801428Y-102828571D01*
X94801428Y-102114285D01*
X93301428Y-101257142D02*
X93372857Y-101400000D01*
X93515714Y-101471428D01*
X94801428Y-101471428D01*
X93372857Y-100757142D02*
X93301428Y-100614285D01*
X93301428Y-100328571D01*
X93372857Y-100185714D01*
X93515714Y-100114285D01*
X93587142Y-100114285D01*
X93730000Y-100185714D01*
X93801428Y-100328571D01*
X93801428Y-100542857D01*
X93872857Y-100685714D01*
X94015714Y-100757142D01*
X94087142Y-100757142D01*
X94230000Y-100685714D01*
X94301428Y-100542857D01*
X94301428Y-100328571D01*
X94230000Y-100185714D01*
X93301428Y-98828571D02*
X94087142Y-98828571D01*
X94230000Y-98900000D01*
X94301428Y-99042857D01*
X94301428Y-99328571D01*
X94230000Y-99471428D01*
X93372857Y-98828571D02*
X93301428Y-98971428D01*
X93301428Y-99328571D01*
X93372857Y-99471428D01*
X93515714Y-99542857D01*
X93658571Y-99542857D01*
X93801428Y-99471428D01*
X93872857Y-99328571D01*
X93872857Y-98971428D01*
X93944285Y-98828571D01*
X93301428Y-96971428D02*
X94301428Y-96971428D01*
X94158571Y-96971428D02*
X94230000Y-96900000D01*
X94301428Y-96757142D01*
X94301428Y-96542857D01*
X94230000Y-96400000D01*
X94087142Y-96328571D01*
X93301428Y-96328571D01*
X94087142Y-96328571D02*
X94230000Y-96257142D01*
X94301428Y-96114285D01*
X94301428Y-95900000D01*
X94230000Y-95757142D01*
X94087142Y-95685714D01*
X93301428Y-95685714D01*
X93301428Y-94757142D02*
X93372857Y-94900000D01*
X93444285Y-94971428D01*
X93587142Y-95042857D01*
X94015714Y-95042857D01*
X94158571Y-94971428D01*
X94230000Y-94900000D01*
X94301428Y-94757142D01*
X94301428Y-94542857D01*
X94230000Y-94400000D01*
X94158571Y-94328571D01*
X94015714Y-94257142D01*
X93587142Y-94257142D01*
X93444285Y-94328571D01*
X93372857Y-94400000D01*
X93301428Y-94542857D01*
X93301428Y-94757142D01*
X94301428Y-93757142D02*
X93301428Y-93400000D01*
X94301428Y-93042857D01*
X93372857Y-91900000D02*
X93301428Y-92042857D01*
X93301428Y-92328571D01*
X93372857Y-92471428D01*
X93515714Y-92542857D01*
X94087142Y-92542857D01*
X94230000Y-92471428D01*
X94301428Y-92328571D01*
X94301428Y-92042857D01*
X94230000Y-91900000D01*
X94087142Y-91828571D01*
X93944285Y-91828571D01*
X93801428Y-92542857D01*
X93372857Y-91257142D02*
X93301428Y-91114285D01*
X93301428Y-90828571D01*
X93372857Y-90685714D01*
X93515714Y-90614285D01*
X93587142Y-90614285D01*
X93730000Y-90685714D01*
X93801428Y-90828571D01*
X93801428Y-91042857D01*
X93872857Y-91185714D01*
X94015714Y-91257142D01*
X94087142Y-91257142D01*
X94230000Y-91185714D01*
X94301428Y-91042857D01*
X94301428Y-90828571D01*
X94230000Y-90685714D01*
X93301428Y-88185714D02*
X94801428Y-88185714D01*
X93372857Y-88185714D02*
X93301428Y-88328571D01*
X93301428Y-88614285D01*
X93372857Y-88757142D01*
X93444285Y-88828571D01*
X93587142Y-88900000D01*
X94015714Y-88900000D01*
X94158571Y-88828571D01*
X94230000Y-88757142D01*
X94301428Y-88614285D01*
X94301428Y-88328571D01*
X94230000Y-88185714D01*
X93301428Y-87471428D02*
X94301428Y-87471428D01*
X94801428Y-87471428D02*
X94730000Y-87542857D01*
X94658571Y-87471428D01*
X94730000Y-87400000D01*
X94801428Y-87471428D01*
X94658571Y-87471428D01*
X93372857Y-86828571D02*
X93301428Y-86685714D01*
X93301428Y-86400000D01*
X93372857Y-86257142D01*
X93515714Y-86185714D01*
X93587142Y-86185714D01*
X93730000Y-86257142D01*
X93801428Y-86400000D01*
X93801428Y-86614285D01*
X93872857Y-86757142D01*
X94015714Y-86828571D01*
X94087142Y-86828571D01*
X94230000Y-86757142D01*
X94301428Y-86614285D01*
X94301428Y-86400000D01*
X94230000Y-86257142D01*
X94301428Y-85542857D02*
X92801428Y-85542857D01*
X94230000Y-85542857D02*
X94301428Y-85400000D01*
X94301428Y-85114285D01*
X94230000Y-84971428D01*
X94158571Y-84900000D01*
X94015714Y-84828571D01*
X93587142Y-84828571D01*
X93444285Y-84900000D01*
X93372857Y-84971428D01*
X93301428Y-85114285D01*
X93301428Y-85400000D01*
X93372857Y-85542857D01*
X93301428Y-83971428D02*
X93372857Y-84114285D01*
X93515714Y-84185714D01*
X94801428Y-84185714D01*
X93301428Y-82757142D02*
X94087142Y-82757142D01*
X94230000Y-82828571D01*
X94301428Y-82971428D01*
X94301428Y-83257142D01*
X94230000Y-83400000D01*
X93372857Y-82757142D02*
X93301428Y-82900000D01*
X93301428Y-83257142D01*
X93372857Y-83400000D01*
X93515714Y-83471428D01*
X93658571Y-83471428D01*
X93801428Y-83400000D01*
X93872857Y-83257142D01*
X93872857Y-82900000D01*
X93944285Y-82757142D01*
X94301428Y-82185714D02*
X93301428Y-81828571D01*
X94301428Y-81471428D02*
X93301428Y-81828571D01*
X92944285Y-81971428D01*
X92872857Y-82042857D01*
X92801428Y-82185714D01*
X93301428Y-79114285D02*
X94801428Y-79114285D01*
X93372857Y-79114285D02*
X93301428Y-79257142D01*
X93301428Y-79542857D01*
X93372857Y-79685714D01*
X93444285Y-79757142D01*
X93587142Y-79828571D01*
X94015714Y-79828571D01*
X94158571Y-79757142D01*
X94230000Y-79685714D01*
X94301428Y-79542857D01*
X94301428Y-79257142D01*
X94230000Y-79114285D01*
X93301428Y-78400000D02*
X94301428Y-78400000D01*
X94015714Y-78400000D02*
X94158571Y-78328571D01*
X94230000Y-78257142D01*
X94301428Y-78114285D01*
X94301428Y-77971428D01*
X93301428Y-77471428D02*
X94301428Y-77471428D01*
X94801428Y-77471428D02*
X94730000Y-77542857D01*
X94658571Y-77471428D01*
X94730000Y-77400000D01*
X94801428Y-77471428D01*
X94658571Y-77471428D01*
X94301428Y-76900000D02*
X93301428Y-76542857D01*
X94301428Y-76185714D01*
X93372857Y-75042857D02*
X93301428Y-75185714D01*
X93301428Y-75471428D01*
X93372857Y-75614285D01*
X93515714Y-75685714D01*
X94087142Y-75685714D01*
X94230000Y-75614285D01*
X94301428Y-75471428D01*
X94301428Y-75185714D01*
X94230000Y-75042857D01*
X94087142Y-74971428D01*
X93944285Y-74971428D01*
X93801428Y-75685714D01*
X93301428Y-74328571D02*
X94301428Y-74328571D01*
X94015714Y-74328571D02*
X94158571Y-74257142D01*
X94230000Y-74185714D01*
X94301428Y-74042857D01*
X94301428Y-73900000D01*
X93301428Y-72257142D02*
X94801428Y-72257142D01*
X94801428Y-71685714D01*
X94730000Y-71542857D01*
X94658571Y-71471428D01*
X94515714Y-71400000D01*
X94301428Y-71400000D01*
X94158571Y-71471428D01*
X94087142Y-71542857D01*
X94015714Y-71685714D01*
X94015714Y-72257142D01*
X93444285Y-69900000D02*
X93372857Y-69971428D01*
X93301428Y-70185714D01*
X93301428Y-70328571D01*
X93372857Y-70542857D01*
X93515714Y-70685714D01*
X93658571Y-70757142D01*
X93944285Y-70828571D01*
X94158571Y-70828571D01*
X94444285Y-70757142D01*
X94587142Y-70685714D01*
X94730000Y-70542857D01*
X94801428Y-70328571D01*
X94801428Y-70185714D01*
X94730000Y-69971428D01*
X94658571Y-69900000D01*
X94087142Y-68757142D02*
X94015714Y-68542857D01*
X93944285Y-68471428D01*
X93801428Y-68400000D01*
X93587142Y-68400000D01*
X93444285Y-68471428D01*
X93372857Y-68542857D01*
X93301428Y-68685714D01*
X93301428Y-69257142D01*
X94801428Y-69257142D01*
X94801428Y-68757142D01*
X94730000Y-68614285D01*
X94658571Y-68542857D01*
X94515714Y-68471428D01*
X94372857Y-68471428D01*
X94230000Y-68542857D01*
X94158571Y-68614285D01*
X94087142Y-68757142D01*
X94087142Y-69257142D01*
D11*
%TO.C,R6*%
X140540000Y-97040000D02*
X140540000Y-97370000D01*
X140540000Y-97370000D02*
X147080000Y-97370000D01*
X147080000Y-97370000D02*
X147080000Y-97040000D01*
X140540000Y-94960000D02*
X140540000Y-94630000D01*
X140540000Y-94630000D02*
X147080000Y-94630000D01*
X147080000Y-94630000D02*
X147080000Y-94960000D01*
%TO.C,R5*%
X140540000Y-93040000D02*
X140540000Y-93370000D01*
X140540000Y-93370000D02*
X147080000Y-93370000D01*
X147080000Y-93370000D02*
X147080000Y-93040000D01*
X140540000Y-90960000D02*
X140540000Y-90630000D01*
X140540000Y-90630000D02*
X147080000Y-90630000D01*
X147080000Y-90630000D02*
X147080000Y-90960000D01*
%TO.C,R4*%
X140540000Y-89040000D02*
X140540000Y-89370000D01*
X140540000Y-89370000D02*
X147080000Y-89370000D01*
X147080000Y-89370000D02*
X147080000Y-89040000D01*
X140540000Y-86960000D02*
X140540000Y-86630000D01*
X140540000Y-86630000D02*
X147080000Y-86630000D01*
X147080000Y-86630000D02*
X147080000Y-86960000D01*
%TO.C,JP6*%
X146000000Y-76600000D02*
X144000000Y-76600000D01*
X146000000Y-79400000D02*
X146000000Y-76600000D01*
X144000000Y-79400000D02*
X146000000Y-79400000D01*
X144000000Y-76600000D02*
X144000000Y-79400000D01*
%TO.C,JP5*%
X142000000Y-76600000D02*
X140000000Y-76600000D01*
X142000000Y-79400000D02*
X142000000Y-76600000D01*
X140000000Y-79400000D02*
X142000000Y-79400000D01*
X140000000Y-76600000D02*
X140000000Y-79400000D01*
%TO.C,JP4*%
X138000000Y-76600000D02*
X136000000Y-76600000D01*
X138000000Y-79400000D02*
X138000000Y-76600000D01*
X136000000Y-79400000D02*
X138000000Y-79400000D01*
X136000000Y-76600000D02*
X136000000Y-79400000D01*
%TO.C,J3*%
X107930000Y-112950000D02*
X107930000Y-106980000D01*
X107930000Y-106980000D02*
X120550000Y-106980000D01*
X120550000Y-106980000D02*
X120550000Y-112950000D01*
X120550000Y-112950000D02*
X107930000Y-112950000D01*
X111240000Y-112940000D02*
X111240000Y-112190000D01*
X111240000Y-112190000D02*
X117240000Y-112190000D01*
X117240000Y-112190000D02*
X117240000Y-112940000D01*
X117240000Y-112940000D02*
X111240000Y-112940000D01*
X107940000Y-112940000D02*
X107940000Y-112190000D01*
X107940000Y-112190000D02*
X109740000Y-112190000D01*
X109740000Y-112190000D02*
X109740000Y-112940000D01*
X109740000Y-112940000D02*
X107940000Y-112940000D01*
X118740000Y-112940000D02*
X118740000Y-112190000D01*
X118740000Y-112190000D02*
X120540000Y-112190000D01*
X120540000Y-112190000D02*
X120540000Y-112940000D01*
X120540000Y-112940000D02*
X118740000Y-112940000D01*
X107940000Y-110690000D02*
X108690000Y-110690000D01*
X108690000Y-110690000D02*
X108690000Y-107740000D01*
X108690000Y-107740000D02*
X114240000Y-107740000D01*
X120540000Y-110690000D02*
X119790000Y-110690000D01*
X119790000Y-110690000D02*
X119790000Y-107740000D01*
X119790000Y-107740000D02*
X114240000Y-107740000D01*
X108890000Y-113240000D02*
X107640000Y-113240000D01*
X107640000Y-113240000D02*
X107640000Y-111990000D01*
%TO.C,J2*%
X121900000Y-112950000D02*
X121900000Y-106980000D01*
X121900000Y-106980000D02*
X134520000Y-106980000D01*
X134520000Y-106980000D02*
X134520000Y-112950000D01*
X134520000Y-112950000D02*
X121900000Y-112950000D01*
X125210000Y-112940000D02*
X125210000Y-112190000D01*
X125210000Y-112190000D02*
X131210000Y-112190000D01*
X131210000Y-112190000D02*
X131210000Y-112940000D01*
X131210000Y-112940000D02*
X125210000Y-112940000D01*
X121910000Y-112940000D02*
X121910000Y-112190000D01*
X121910000Y-112190000D02*
X123710000Y-112190000D01*
X123710000Y-112190000D02*
X123710000Y-112940000D01*
X123710000Y-112940000D02*
X121910000Y-112940000D01*
X132710000Y-112940000D02*
X132710000Y-112190000D01*
X132710000Y-112190000D02*
X134510000Y-112190000D01*
X134510000Y-112190000D02*
X134510000Y-112940000D01*
X134510000Y-112940000D02*
X132710000Y-112940000D01*
X121910000Y-110690000D02*
X122660000Y-110690000D01*
X122660000Y-110690000D02*
X122660000Y-107740000D01*
X122660000Y-107740000D02*
X128210000Y-107740000D01*
X134510000Y-110690000D02*
X133760000Y-110690000D01*
X133760000Y-110690000D02*
X133760000Y-107740000D01*
X133760000Y-107740000D02*
X128210000Y-107740000D01*
X122860000Y-113240000D02*
X121610000Y-113240000D01*
X121610000Y-113240000D02*
X121610000Y-111990000D01*
%TO.C,J1*%
X128170000Y-91490000D02*
X128170000Y-93280000D01*
X128460000Y-91490000D02*
X128170000Y-91490000D01*
X128460000Y-87630000D02*
X128460000Y-91490000D01*
X128460000Y-83770000D02*
X128170000Y-83770000D01*
X128460000Y-87630000D02*
X128460000Y-83770000D01*
X110300000Y-91490000D02*
X110590000Y-91490000D01*
X110300000Y-87630000D02*
X110300000Y-91490000D01*
X110300000Y-83770000D02*
X110590000Y-83770000D01*
X110300000Y-87630000D02*
X110300000Y-83770000D01*
%TO.C,D12*%
X145910000Y-102860000D02*
X145910000Y-102530000D01*
X145910000Y-102530000D02*
X140470000Y-102530000D01*
X140470000Y-102530000D02*
X140470000Y-102860000D01*
X145910000Y-105140000D02*
X145910000Y-105470000D01*
X145910000Y-105470000D02*
X140470000Y-105470000D01*
X140470000Y-105470000D02*
X140470000Y-105140000D01*
X145010000Y-102530000D02*
X145010000Y-105470000D01*
X144890000Y-102530000D02*
X144890000Y-105470000D01*
X145130000Y-102530000D02*
X145130000Y-105470000D01*
%TO.C,C2*%
X130270000Y-100750000D02*
G75*
G03*
X130270000Y-100750000I-3270000J0D01*
G01*
X130230000Y-100750000D02*
X123770000Y-100750000D01*
X130230000Y-100710000D02*
X123770000Y-100710000D01*
X130230000Y-100670000D02*
X123770000Y-100670000D01*
X130228000Y-100630000D02*
X123772000Y-100630000D01*
X130227000Y-100590000D02*
X123773000Y-100590000D01*
X130224000Y-100550000D02*
X123776000Y-100550000D01*
X130222000Y-100510000D02*
X128040000Y-100510000D01*
X125960000Y-100510000D02*
X123778000Y-100510000D01*
X130218000Y-100470000D02*
X128040000Y-100470000D01*
X125960000Y-100470000D02*
X123782000Y-100470000D01*
X130215000Y-100430000D02*
X128040000Y-100430000D01*
X125960000Y-100430000D02*
X123785000Y-100430000D01*
X130211000Y-100390000D02*
X128040000Y-100390000D01*
X125960000Y-100390000D02*
X123789000Y-100390000D01*
X130206000Y-100350000D02*
X128040000Y-100350000D01*
X125960000Y-100350000D02*
X123794000Y-100350000D01*
X130201000Y-100310000D02*
X128040000Y-100310000D01*
X125960000Y-100310000D02*
X123799000Y-100310000D01*
X130195000Y-100270000D02*
X128040000Y-100270000D01*
X125960000Y-100270000D02*
X123805000Y-100270000D01*
X130189000Y-100230000D02*
X128040000Y-100230000D01*
X125960000Y-100230000D02*
X123811000Y-100230000D01*
X130182000Y-100190000D02*
X128040000Y-100190000D01*
X125960000Y-100190000D02*
X123818000Y-100190000D01*
X130175000Y-100150000D02*
X128040000Y-100150000D01*
X125960000Y-100150000D02*
X123825000Y-100150000D01*
X130167000Y-100110000D02*
X128040000Y-100110000D01*
X125960000Y-100110000D02*
X123833000Y-100110000D01*
X130159000Y-100070000D02*
X128040000Y-100070000D01*
X125960000Y-100070000D02*
X123841000Y-100070000D01*
X130150000Y-100029000D02*
X128040000Y-100029000D01*
X125960000Y-100029000D02*
X123850000Y-100029000D01*
X130141000Y-99989000D02*
X128040000Y-99989000D01*
X125960000Y-99989000D02*
X123859000Y-99989000D01*
X130131000Y-99949000D02*
X128040000Y-99949000D01*
X125960000Y-99949000D02*
X123869000Y-99949000D01*
X130121000Y-99909000D02*
X128040000Y-99909000D01*
X125960000Y-99909000D02*
X123879000Y-99909000D01*
X130110000Y-99869000D02*
X128040000Y-99869000D01*
X125960000Y-99869000D02*
X123890000Y-99869000D01*
X130098000Y-99829000D02*
X128040000Y-99829000D01*
X125960000Y-99829000D02*
X123902000Y-99829000D01*
X130086000Y-99789000D02*
X128040000Y-99789000D01*
X125960000Y-99789000D02*
X123914000Y-99789000D01*
X130074000Y-99749000D02*
X128040000Y-99749000D01*
X125960000Y-99749000D02*
X123926000Y-99749000D01*
X130061000Y-99709000D02*
X128040000Y-99709000D01*
X125960000Y-99709000D02*
X123939000Y-99709000D01*
X130047000Y-99669000D02*
X128040000Y-99669000D01*
X125960000Y-99669000D02*
X123953000Y-99669000D01*
X130033000Y-99629000D02*
X128040000Y-99629000D01*
X125960000Y-99629000D02*
X123967000Y-99629000D01*
X130018000Y-99589000D02*
X128040000Y-99589000D01*
X125960000Y-99589000D02*
X123982000Y-99589000D01*
X130002000Y-99549000D02*
X128040000Y-99549000D01*
X125960000Y-99549000D02*
X123998000Y-99549000D01*
X129986000Y-99509000D02*
X128040000Y-99509000D01*
X125960000Y-99509000D02*
X124014000Y-99509000D01*
X129970000Y-99469000D02*
X128040000Y-99469000D01*
X125960000Y-99469000D02*
X124030000Y-99469000D01*
X129952000Y-99429000D02*
X128040000Y-99429000D01*
X125960000Y-99429000D02*
X124048000Y-99429000D01*
X129934000Y-99389000D02*
X128040000Y-99389000D01*
X125960000Y-99389000D02*
X124066000Y-99389000D01*
X129916000Y-99349000D02*
X128040000Y-99349000D01*
X125960000Y-99349000D02*
X124084000Y-99349000D01*
X129896000Y-99309000D02*
X128040000Y-99309000D01*
X125960000Y-99309000D02*
X124104000Y-99309000D01*
X129876000Y-99269000D02*
X128040000Y-99269000D01*
X125960000Y-99269000D02*
X124124000Y-99269000D01*
X129856000Y-99229000D02*
X128040000Y-99229000D01*
X125960000Y-99229000D02*
X124144000Y-99229000D01*
X129834000Y-99189000D02*
X128040000Y-99189000D01*
X125960000Y-99189000D02*
X124166000Y-99189000D01*
X129812000Y-99149000D02*
X128040000Y-99149000D01*
X125960000Y-99149000D02*
X124188000Y-99149000D01*
X129790000Y-99109000D02*
X128040000Y-99109000D01*
X125960000Y-99109000D02*
X124210000Y-99109000D01*
X129766000Y-99069000D02*
X128040000Y-99069000D01*
X125960000Y-99069000D02*
X124234000Y-99069000D01*
X129742000Y-99029000D02*
X128040000Y-99029000D01*
X125960000Y-99029000D02*
X124258000Y-99029000D01*
X129716000Y-98989000D02*
X128040000Y-98989000D01*
X125960000Y-98989000D02*
X124284000Y-98989000D01*
X129690000Y-98949000D02*
X128040000Y-98949000D01*
X125960000Y-98949000D02*
X124310000Y-98949000D01*
X129664000Y-98909000D02*
X128040000Y-98909000D01*
X125960000Y-98909000D02*
X124336000Y-98909000D01*
X129636000Y-98869000D02*
X128040000Y-98869000D01*
X125960000Y-98869000D02*
X124364000Y-98869000D01*
X129607000Y-98829000D02*
X128040000Y-98829000D01*
X125960000Y-98829000D02*
X124393000Y-98829000D01*
X129578000Y-98789000D02*
X128040000Y-98789000D01*
X125960000Y-98789000D02*
X124422000Y-98789000D01*
X129548000Y-98749000D02*
X128040000Y-98749000D01*
X125960000Y-98749000D02*
X124452000Y-98749000D01*
X129516000Y-98709000D02*
X128040000Y-98709000D01*
X125960000Y-98709000D02*
X124484000Y-98709000D01*
X129484000Y-98669000D02*
X128040000Y-98669000D01*
X125960000Y-98669000D02*
X124516000Y-98669000D01*
X129450000Y-98629000D02*
X128040000Y-98629000D01*
X125960000Y-98629000D02*
X124550000Y-98629000D01*
X129416000Y-98589000D02*
X128040000Y-98589000D01*
X125960000Y-98589000D02*
X124584000Y-98589000D01*
X129380000Y-98549000D02*
X128040000Y-98549000D01*
X125960000Y-98549000D02*
X124620000Y-98549000D01*
X129343000Y-98509000D02*
X128040000Y-98509000D01*
X125960000Y-98509000D02*
X124657000Y-98509000D01*
X129305000Y-98469000D02*
X128040000Y-98469000D01*
X125960000Y-98469000D02*
X124695000Y-98469000D01*
X129265000Y-98429000D02*
X124735000Y-98429000D01*
X129224000Y-98389000D02*
X124776000Y-98389000D01*
X129182000Y-98349000D02*
X124818000Y-98349000D01*
X129137000Y-98309000D02*
X124863000Y-98309000D01*
X129092000Y-98269000D02*
X124908000Y-98269000D01*
X129044000Y-98229000D02*
X124956000Y-98229000D01*
X128995000Y-98189000D02*
X125005000Y-98189000D01*
X128944000Y-98149000D02*
X125056000Y-98149000D01*
X128890000Y-98109000D02*
X125110000Y-98109000D01*
X128834000Y-98069000D02*
X125166000Y-98069000D01*
X128776000Y-98029000D02*
X125224000Y-98029000D01*
X128714000Y-97989000D02*
X125286000Y-97989000D01*
X128650000Y-97949000D02*
X125350000Y-97949000D01*
X128581000Y-97909000D02*
X125419000Y-97909000D01*
X128509000Y-97869000D02*
X125491000Y-97869000D01*
X128432000Y-97829000D02*
X125568000Y-97829000D01*
X128350000Y-97789000D02*
X125650000Y-97789000D01*
X128262000Y-97749000D02*
X125738000Y-97749000D01*
X128165000Y-97709000D02*
X125835000Y-97709000D01*
X128059000Y-97669000D02*
X125941000Y-97669000D01*
X127940000Y-97629000D02*
X126060000Y-97629000D01*
X127802000Y-97589000D02*
X126198000Y-97589000D01*
X127633000Y-97549000D02*
X126367000Y-97549000D01*
X127402000Y-97509000D02*
X126598000Y-97509000D01*
X128839000Y-104250241D02*
X128839000Y-103620241D01*
X129154000Y-103935241D02*
X128524000Y-103935241D01*
%TO.C,C1*%
X131010000Y-85320000D02*
X131010000Y-89860000D01*
X133150000Y-85320000D02*
X133150000Y-89860000D01*
X131010000Y-85320000D02*
X131025000Y-85320000D01*
X133135000Y-85320000D02*
X133150000Y-85320000D01*
X131010000Y-89860000D02*
X131025000Y-89860000D01*
X133135000Y-89860000D02*
X133150000Y-89860000D01*
%TO.C,R6*%
D12*
X138452380Y-95833333D02*
X137976190Y-95500000D01*
X138452380Y-95261904D02*
X137452380Y-95261904D01*
X137452380Y-95642857D01*
X137500000Y-95738095D01*
X137547619Y-95785714D01*
X137642857Y-95833333D01*
X137785714Y-95833333D01*
X137880952Y-95785714D01*
X137928571Y-95738095D01*
X137976190Y-95642857D01*
X137976190Y-95261904D01*
X137452380Y-96690476D02*
X137452380Y-96500000D01*
X137500000Y-96404761D01*
X137547619Y-96357142D01*
X137690476Y-96261904D01*
X137880952Y-96214285D01*
X138261904Y-96214285D01*
X138357142Y-96261904D01*
X138404761Y-96309523D01*
X138452380Y-96404761D01*
X138452380Y-96595238D01*
X138404761Y-96690476D01*
X138357142Y-96738095D01*
X138261904Y-96785714D01*
X138023809Y-96785714D01*
X137928571Y-96738095D01*
X137880952Y-96690476D01*
X137833333Y-96595238D01*
X137833333Y-96404761D01*
X137880952Y-96309523D01*
X137928571Y-96261904D01*
X138023809Y-96214285D01*
%TO.C,R5*%
X138452380Y-91833333D02*
X137976190Y-91500000D01*
X138452380Y-91261904D02*
X137452380Y-91261904D01*
X137452380Y-91642857D01*
X137500000Y-91738095D01*
X137547619Y-91785714D01*
X137642857Y-91833333D01*
X137785714Y-91833333D01*
X137880952Y-91785714D01*
X137928571Y-91738095D01*
X137976190Y-91642857D01*
X137976190Y-91261904D01*
X137452380Y-92738095D02*
X137452380Y-92261904D01*
X137928571Y-92214285D01*
X137880952Y-92261904D01*
X137833333Y-92357142D01*
X137833333Y-92595238D01*
X137880952Y-92690476D01*
X137928571Y-92738095D01*
X138023809Y-92785714D01*
X138261904Y-92785714D01*
X138357142Y-92738095D01*
X138404761Y-92690476D01*
X138452380Y-92595238D01*
X138452380Y-92357142D01*
X138404761Y-92261904D01*
X138357142Y-92214285D01*
%TO.C,R4*%
X138452380Y-87833333D02*
X137976190Y-87500000D01*
X138452380Y-87261904D02*
X137452380Y-87261904D01*
X137452380Y-87642857D01*
X137500000Y-87738095D01*
X137547619Y-87785714D01*
X137642857Y-87833333D01*
X137785714Y-87833333D01*
X137880952Y-87785714D01*
X137928571Y-87738095D01*
X137976190Y-87642857D01*
X137976190Y-87261904D01*
X137785714Y-88690476D02*
X138452380Y-88690476D01*
X137404761Y-88452380D02*
X138119047Y-88214285D01*
X138119047Y-88833333D01*
%TO.C,JP6*%
X142652380Y-77166666D02*
X143366666Y-77166666D01*
X143509523Y-77119047D01*
X143604761Y-77023809D01*
X143652380Y-76880952D01*
X143652380Y-76785714D01*
X143652380Y-77642857D02*
X142652380Y-77642857D01*
X142652380Y-78023809D01*
X142700000Y-78119047D01*
X142747619Y-78166666D01*
X142842857Y-78214285D01*
X142985714Y-78214285D01*
X143080952Y-78166666D01*
X143128571Y-78119047D01*
X143176190Y-78023809D01*
X143176190Y-77642857D01*
X142652380Y-79071428D02*
X142652380Y-78880952D01*
X142700000Y-78785714D01*
X142747619Y-78738095D01*
X142890476Y-78642857D01*
X143080952Y-78595238D01*
X143461904Y-78595238D01*
X143557142Y-78642857D01*
X143604761Y-78690476D01*
X143652380Y-78785714D01*
X143652380Y-78976190D01*
X143604761Y-79071428D01*
X143557142Y-79119047D01*
X143461904Y-79166666D01*
X143223809Y-79166666D01*
X143128571Y-79119047D01*
X143080952Y-79071428D01*
X143033333Y-78976190D01*
X143033333Y-78785714D01*
X143080952Y-78690476D01*
X143128571Y-78642857D01*
X143223809Y-78595238D01*
X145714285Y-81166666D02*
X145238095Y-81166666D01*
X145809523Y-81452380D02*
X145476190Y-80452380D01*
X145142857Y-81452380D01*
X144285714Y-81452380D02*
X144857142Y-81452380D01*
X144571428Y-81452380D02*
X144571428Y-80452380D01*
X144666666Y-80595238D01*
X144761904Y-80690476D01*
X144857142Y-80738095D01*
%TO.C,JP5*%
X138652380Y-77166666D02*
X139366666Y-77166666D01*
X139509523Y-77119047D01*
X139604761Y-77023809D01*
X139652380Y-76880952D01*
X139652380Y-76785714D01*
X139652380Y-77642857D02*
X138652380Y-77642857D01*
X138652380Y-78023809D01*
X138700000Y-78119047D01*
X138747619Y-78166666D01*
X138842857Y-78214285D01*
X138985714Y-78214285D01*
X139080952Y-78166666D01*
X139128571Y-78119047D01*
X139176190Y-78023809D01*
X139176190Y-77642857D01*
X138652380Y-79119047D02*
X138652380Y-78642857D01*
X139128571Y-78595238D01*
X139080952Y-78642857D01*
X139033333Y-78738095D01*
X139033333Y-78976190D01*
X139080952Y-79071428D01*
X139128571Y-79119047D01*
X139223809Y-79166666D01*
X139461904Y-79166666D01*
X139557142Y-79119047D01*
X139604761Y-79071428D01*
X139652380Y-78976190D01*
X139652380Y-78738095D01*
X139604761Y-78642857D01*
X139557142Y-78595238D01*
X141404761Y-80928571D02*
X141261904Y-80976190D01*
X141214285Y-81023809D01*
X141166666Y-81119047D01*
X141166666Y-81261904D01*
X141214285Y-81357142D01*
X141261904Y-81404761D01*
X141357142Y-81452380D01*
X141738095Y-81452380D01*
X141738095Y-80452380D01*
X141404761Y-80452380D01*
X141309523Y-80500000D01*
X141261904Y-80547619D01*
X141214285Y-80642857D01*
X141214285Y-80738095D01*
X141261904Y-80833333D01*
X141309523Y-80880952D01*
X141404761Y-80928571D01*
X141738095Y-80928571D01*
X140214285Y-81452380D02*
X140785714Y-81452380D01*
X140500000Y-81452380D02*
X140500000Y-80452380D01*
X140595238Y-80595238D01*
X140690476Y-80690476D01*
X140785714Y-80738095D01*
%TO.C,JP4*%
X134652380Y-77166666D02*
X135366666Y-77166666D01*
X135509523Y-77119047D01*
X135604761Y-77023809D01*
X135652380Y-76880952D01*
X135652380Y-76785714D01*
X135652380Y-77642857D02*
X134652380Y-77642857D01*
X134652380Y-78023809D01*
X134700000Y-78119047D01*
X134747619Y-78166666D01*
X134842857Y-78214285D01*
X134985714Y-78214285D01*
X135080952Y-78166666D01*
X135128571Y-78119047D01*
X135176190Y-78023809D01*
X135176190Y-77642857D01*
X134985714Y-79071428D02*
X135652380Y-79071428D01*
X134604761Y-78833333D02*
X135319047Y-78595238D01*
X135319047Y-79214285D01*
X137166666Y-81357142D02*
X137214285Y-81404761D01*
X137357142Y-81452380D01*
X137452380Y-81452380D01*
X137595238Y-81404761D01*
X137690476Y-81309523D01*
X137738095Y-81214285D01*
X137785714Y-81023809D01*
X137785714Y-80880952D01*
X137738095Y-80690476D01*
X137690476Y-80595238D01*
X137595238Y-80500000D01*
X137452380Y-80452380D01*
X137357142Y-80452380D01*
X137214285Y-80500000D01*
X137166666Y-80547619D01*
X136214285Y-81452380D02*
X136785714Y-81452380D01*
X136500000Y-81452380D02*
X136500000Y-80452380D01*
X136595238Y-80595238D01*
X136690476Y-80690476D01*
X136785714Y-80738095D01*
%TO.C,J3*%
X114573333Y-113492380D02*
X114573333Y-114206666D01*
X114620952Y-114349523D01*
X114716190Y-114444761D01*
X114859047Y-114492380D01*
X114954285Y-114492380D01*
X114192380Y-113492380D02*
X113573333Y-113492380D01*
X113906666Y-113873333D01*
X113763809Y-113873333D01*
X113668571Y-113920952D01*
X113620952Y-113968571D01*
X113573333Y-114063809D01*
X113573333Y-114301904D01*
X113620952Y-114397142D01*
X113668571Y-114444761D01*
X113763809Y-114492380D01*
X114049523Y-114492380D01*
X114144761Y-114444761D01*
X114192380Y-114397142D01*
X119086190Y-114752380D02*
X119086190Y-113752380D01*
X118657619Y-113847619D02*
X118610000Y-113800000D01*
X118514761Y-113752380D01*
X118276666Y-113752380D01*
X118181428Y-113800000D01*
X118133809Y-113847619D01*
X118086190Y-113942857D01*
X118086190Y-114038095D01*
X118133809Y-114180952D01*
X118705238Y-114752380D01*
X118086190Y-114752380D01*
X117086190Y-114657142D02*
X117133809Y-114704761D01*
X117276666Y-114752380D01*
X117371904Y-114752380D01*
X117514761Y-114704761D01*
X117610000Y-114609523D01*
X117657619Y-114514285D01*
X117705238Y-114323809D01*
X117705238Y-114180952D01*
X117657619Y-113990476D01*
X117610000Y-113895238D01*
X117514761Y-113800000D01*
X117371904Y-113752380D01*
X117276666Y-113752380D01*
X117133809Y-113800000D01*
X117086190Y-113847619D01*
%TO.C,J2*%
X128543333Y-113492380D02*
X128543333Y-114206666D01*
X128590952Y-114349523D01*
X128686190Y-114444761D01*
X128829047Y-114492380D01*
X128924285Y-114492380D01*
X128114761Y-113587619D02*
X128067142Y-113540000D01*
X127971904Y-113492380D01*
X127733809Y-113492380D01*
X127638571Y-113540000D01*
X127590952Y-113587619D01*
X127543333Y-113682857D01*
X127543333Y-113778095D01*
X127590952Y-113920952D01*
X128162380Y-114492380D01*
X127543333Y-114492380D01*
X133056190Y-114752380D02*
X133056190Y-113752380D01*
X132627619Y-113847619D02*
X132580000Y-113800000D01*
X132484761Y-113752380D01*
X132246666Y-113752380D01*
X132151428Y-113800000D01*
X132103809Y-113847619D01*
X132056190Y-113942857D01*
X132056190Y-114038095D01*
X132103809Y-114180952D01*
X132675238Y-114752380D01*
X132056190Y-114752380D01*
X131056190Y-114657142D02*
X131103809Y-114704761D01*
X131246666Y-114752380D01*
X131341904Y-114752380D01*
X131484761Y-114704761D01*
X131580000Y-114609523D01*
X131627619Y-114514285D01*
X131675238Y-114323809D01*
X131675238Y-114180952D01*
X131627619Y-113990476D01*
X131580000Y-113895238D01*
X131484761Y-113800000D01*
X131341904Y-113752380D01*
X131246666Y-113752380D01*
X131103809Y-113800000D01*
X131056190Y-113847619D01*
%TO.C,J1*%
X128752380Y-87296666D02*
X129466666Y-87296666D01*
X129609523Y-87249047D01*
X129704761Y-87153809D01*
X129752380Y-87010952D01*
X129752380Y-86915714D01*
X129752380Y-88296666D02*
X129752380Y-87725238D01*
X129752380Y-88010952D02*
X128752380Y-88010952D01*
X128895238Y-87915714D01*
X128990476Y-87820476D01*
X129038095Y-87725238D01*
%TO.C,D12*%
X144404285Y-101982380D02*
X144404285Y-100982380D01*
X144166190Y-100982380D01*
X144023333Y-101030000D01*
X143928095Y-101125238D01*
X143880476Y-101220476D01*
X143832857Y-101410952D01*
X143832857Y-101553809D01*
X143880476Y-101744285D01*
X143928095Y-101839523D01*
X144023333Y-101934761D01*
X144166190Y-101982380D01*
X144404285Y-101982380D01*
X142880476Y-101982380D02*
X143451904Y-101982380D01*
X143166190Y-101982380D02*
X143166190Y-100982380D01*
X143261428Y-101125238D01*
X143356666Y-101220476D01*
X143451904Y-101268095D01*
X142499523Y-101077619D02*
X142451904Y-101030000D01*
X142356666Y-100982380D01*
X142118571Y-100982380D01*
X142023333Y-101030000D01*
X141975714Y-101077619D01*
X141928095Y-101172857D01*
X141928095Y-101268095D01*
X141975714Y-101410952D01*
X142547142Y-101982380D01*
X141928095Y-101982380D01*
X147261904Y-102552380D02*
X147261904Y-101552380D01*
X146690476Y-102552380D02*
X147119047Y-101980952D01*
X146690476Y-101552380D02*
X147261904Y-102123809D01*
%TO.C,C2*%
X131757142Y-100583333D02*
X131804761Y-100535714D01*
X131852380Y-100392857D01*
X131852380Y-100297619D01*
X131804761Y-100154761D01*
X131709523Y-100059523D01*
X131614285Y-100011904D01*
X131423809Y-99964285D01*
X131280952Y-99964285D01*
X131090476Y-100011904D01*
X130995238Y-100059523D01*
X130900000Y-100154761D01*
X130852380Y-100297619D01*
X130852380Y-100392857D01*
X130900000Y-100535714D01*
X130947619Y-100583333D01*
X130947619Y-100964285D02*
X130900000Y-101011904D01*
X130852380Y-101107142D01*
X130852380Y-101345238D01*
X130900000Y-101440476D01*
X130947619Y-101488095D01*
X131042857Y-101535714D01*
X131138095Y-101535714D01*
X131280952Y-101488095D01*
X131852380Y-100916666D01*
X131852380Y-101535714D01*
%TO.C,C1*%
X132596666Y-82997142D02*
X132644285Y-83044761D01*
X132787142Y-83092380D01*
X132882380Y-83092380D01*
X133025238Y-83044761D01*
X133120476Y-82949523D01*
X133168095Y-82854285D01*
X133215714Y-82663809D01*
X133215714Y-82520952D01*
X133168095Y-82330476D01*
X133120476Y-82235238D01*
X133025238Y-82140000D01*
X132882380Y-82092380D01*
X132787142Y-82092380D01*
X132644285Y-82140000D01*
X132596666Y-82187619D01*
X131644285Y-83092380D02*
X132215714Y-83092380D01*
X131930000Y-83092380D02*
X131930000Y-82092380D01*
X132025238Y-82235238D01*
X132120476Y-82330476D01*
X132215714Y-82378095D01*
%TD*%
M02*
