%TF.GenerationSoftware,KiCad,Pcbnew,5.1.10-88a1d61d58~88~ubuntu20.04.1*%
%TF.CreationDate,2021-05-13T20:29:17+02:00*%
%TF.ProjectId,anna_elsa_moves_display,616e6e61-5f65-46c7-9361-5f6d6f766573,rev?*%
%TF.SameCoordinates,Original*%
%TF.FileFunction,Paste,Bot*%
%TF.FilePolarity,Positive*%
%FSLAX46Y46*%
G04 Gerber Fmt 4.6, Leading zero omitted, Abs format (unit mm)*
G04 Created by KiCad (PCBNEW 5.1.10-88a1d61d58~88~ubuntu20.04.1) date 2021-05-13 20:29:17*
%MOMM*%
%LPD*%
G01*
G04 APERTURE LIST*
G04 APERTURE END LIST*
%TO.C,J1*%
G36*
G01*
X111262500Y-83980000D02*
X110987500Y-83980000D01*
G75*
G02*
X110850000Y-83842500I0J137500D01*
G01*
X110850000Y-82117500D01*
G75*
G02*
X110987500Y-81980000I137500J0D01*
G01*
X111262500Y-81980000D01*
G75*
G02*
X111400000Y-82117500I0J-137500D01*
G01*
X111400000Y-83842500D01*
G75*
G02*
X111262500Y-83980000I-137500J0D01*
G01*
G37*
G36*
G01*
X112532500Y-83980000D02*
X112257500Y-83980000D01*
G75*
G02*
X112120000Y-83842500I0J137500D01*
G01*
X112120000Y-82117500D01*
G75*
G02*
X112257500Y-81980000I137500J0D01*
G01*
X112532500Y-81980000D01*
G75*
G02*
X112670000Y-82117500I0J-137500D01*
G01*
X112670000Y-83842500D01*
G75*
G02*
X112532500Y-83980000I-137500J0D01*
G01*
G37*
G36*
G01*
X111262500Y-93280000D02*
X110987500Y-93280000D01*
G75*
G02*
X110850000Y-93142500I0J137500D01*
G01*
X110850000Y-91417500D01*
G75*
G02*
X110987500Y-91280000I137500J0D01*
G01*
X111262500Y-91280000D01*
G75*
G02*
X111400000Y-91417500I0J-137500D01*
G01*
X111400000Y-93142500D01*
G75*
G02*
X111262500Y-93280000I-137500J0D01*
G01*
G37*
G36*
G01*
X112532500Y-93280000D02*
X112257500Y-93280000D01*
G75*
G02*
X112120000Y-93142500I0J137500D01*
G01*
X112120000Y-91417500D01*
G75*
G02*
X112257500Y-91280000I137500J0D01*
G01*
X112532500Y-91280000D01*
G75*
G02*
X112670000Y-91417500I0J-137500D01*
G01*
X112670000Y-93142500D01*
G75*
G02*
X112532500Y-93280000I-137500J0D01*
G01*
G37*
G36*
G01*
X127772500Y-83980000D02*
X127497500Y-83980000D01*
G75*
G02*
X127360000Y-83842500I0J137500D01*
G01*
X127360000Y-82117500D01*
G75*
G02*
X127497500Y-81980000I137500J0D01*
G01*
X127772500Y-81980000D01*
G75*
G02*
X127910000Y-82117500I0J-137500D01*
G01*
X127910000Y-83842500D01*
G75*
G02*
X127772500Y-83980000I-137500J0D01*
G01*
G37*
G36*
G01*
X126502500Y-83980000D02*
X126227500Y-83980000D01*
G75*
G02*
X126090000Y-83842500I0J137500D01*
G01*
X126090000Y-82117500D01*
G75*
G02*
X126227500Y-81980000I137500J0D01*
G01*
X126502500Y-81980000D01*
G75*
G02*
X126640000Y-82117500I0J-137500D01*
G01*
X126640000Y-83842500D01*
G75*
G02*
X126502500Y-83980000I-137500J0D01*
G01*
G37*
G36*
G01*
X125232500Y-83980000D02*
X124957500Y-83980000D01*
G75*
G02*
X124820000Y-83842500I0J137500D01*
G01*
X124820000Y-82117500D01*
G75*
G02*
X124957500Y-81980000I137500J0D01*
G01*
X125232500Y-81980000D01*
G75*
G02*
X125370000Y-82117500I0J-137500D01*
G01*
X125370000Y-83842500D01*
G75*
G02*
X125232500Y-83980000I-137500J0D01*
G01*
G37*
G36*
G01*
X123962500Y-83980000D02*
X123687500Y-83980000D01*
G75*
G02*
X123550000Y-83842500I0J137500D01*
G01*
X123550000Y-82117500D01*
G75*
G02*
X123687500Y-81980000I137500J0D01*
G01*
X123962500Y-81980000D01*
G75*
G02*
X124100000Y-82117500I0J-137500D01*
G01*
X124100000Y-83842500D01*
G75*
G02*
X123962500Y-83980000I-137500J0D01*
G01*
G37*
G36*
G01*
X122692500Y-83980000D02*
X122417500Y-83980000D01*
G75*
G02*
X122280000Y-83842500I0J137500D01*
G01*
X122280000Y-82117500D01*
G75*
G02*
X122417500Y-81980000I137500J0D01*
G01*
X122692500Y-81980000D01*
G75*
G02*
X122830000Y-82117500I0J-137500D01*
G01*
X122830000Y-83842500D01*
G75*
G02*
X122692500Y-83980000I-137500J0D01*
G01*
G37*
G36*
G01*
X121422500Y-83980000D02*
X121147500Y-83980000D01*
G75*
G02*
X121010000Y-83842500I0J137500D01*
G01*
X121010000Y-82117500D01*
G75*
G02*
X121147500Y-81980000I137500J0D01*
G01*
X121422500Y-81980000D01*
G75*
G02*
X121560000Y-82117500I0J-137500D01*
G01*
X121560000Y-83842500D01*
G75*
G02*
X121422500Y-83980000I-137500J0D01*
G01*
G37*
G36*
G01*
X120152500Y-83980000D02*
X119877500Y-83980000D01*
G75*
G02*
X119740000Y-83842500I0J137500D01*
G01*
X119740000Y-82117500D01*
G75*
G02*
X119877500Y-81980000I137500J0D01*
G01*
X120152500Y-81980000D01*
G75*
G02*
X120290000Y-82117500I0J-137500D01*
G01*
X120290000Y-83842500D01*
G75*
G02*
X120152500Y-83980000I-137500J0D01*
G01*
G37*
G36*
G01*
X118882500Y-83980000D02*
X118607500Y-83980000D01*
G75*
G02*
X118470000Y-83842500I0J137500D01*
G01*
X118470000Y-82117500D01*
G75*
G02*
X118607500Y-81980000I137500J0D01*
G01*
X118882500Y-81980000D01*
G75*
G02*
X119020000Y-82117500I0J-137500D01*
G01*
X119020000Y-83842500D01*
G75*
G02*
X118882500Y-83980000I-137500J0D01*
G01*
G37*
G36*
G01*
X117612500Y-83980000D02*
X117337500Y-83980000D01*
G75*
G02*
X117200000Y-83842500I0J137500D01*
G01*
X117200000Y-82117500D01*
G75*
G02*
X117337500Y-81980000I137500J0D01*
G01*
X117612500Y-81980000D01*
G75*
G02*
X117750000Y-82117500I0J-137500D01*
G01*
X117750000Y-83842500D01*
G75*
G02*
X117612500Y-83980000I-137500J0D01*
G01*
G37*
G36*
G01*
X116342500Y-83980000D02*
X116067500Y-83980000D01*
G75*
G02*
X115930000Y-83842500I0J137500D01*
G01*
X115930000Y-82117500D01*
G75*
G02*
X116067500Y-81980000I137500J0D01*
G01*
X116342500Y-81980000D01*
G75*
G02*
X116480000Y-82117500I0J-137500D01*
G01*
X116480000Y-83842500D01*
G75*
G02*
X116342500Y-83980000I-137500J0D01*
G01*
G37*
G36*
G01*
X115072500Y-83980000D02*
X114797500Y-83980000D01*
G75*
G02*
X114660000Y-83842500I0J137500D01*
G01*
X114660000Y-82117500D01*
G75*
G02*
X114797500Y-81980000I137500J0D01*
G01*
X115072500Y-81980000D01*
G75*
G02*
X115210000Y-82117500I0J-137500D01*
G01*
X115210000Y-83842500D01*
G75*
G02*
X115072500Y-83980000I-137500J0D01*
G01*
G37*
G36*
G01*
X113802500Y-83980000D02*
X113527500Y-83980000D01*
G75*
G02*
X113390000Y-83842500I0J137500D01*
G01*
X113390000Y-82117500D01*
G75*
G02*
X113527500Y-81980000I137500J0D01*
G01*
X113802500Y-81980000D01*
G75*
G02*
X113940000Y-82117500I0J-137500D01*
G01*
X113940000Y-83842500D01*
G75*
G02*
X113802500Y-83980000I-137500J0D01*
G01*
G37*
G36*
G01*
X113802500Y-93280000D02*
X113527500Y-93280000D01*
G75*
G02*
X113390000Y-93142500I0J137500D01*
G01*
X113390000Y-91417500D01*
G75*
G02*
X113527500Y-91280000I137500J0D01*
G01*
X113802500Y-91280000D01*
G75*
G02*
X113940000Y-91417500I0J-137500D01*
G01*
X113940000Y-93142500D01*
G75*
G02*
X113802500Y-93280000I-137500J0D01*
G01*
G37*
G36*
G01*
X115072500Y-93280000D02*
X114797500Y-93280000D01*
G75*
G02*
X114660000Y-93142500I0J137500D01*
G01*
X114660000Y-91417500D01*
G75*
G02*
X114797500Y-91280000I137500J0D01*
G01*
X115072500Y-91280000D01*
G75*
G02*
X115210000Y-91417500I0J-137500D01*
G01*
X115210000Y-93142500D01*
G75*
G02*
X115072500Y-93280000I-137500J0D01*
G01*
G37*
G36*
G01*
X116342500Y-93280000D02*
X116067500Y-93280000D01*
G75*
G02*
X115930000Y-93142500I0J137500D01*
G01*
X115930000Y-91417500D01*
G75*
G02*
X116067500Y-91280000I137500J0D01*
G01*
X116342500Y-91280000D01*
G75*
G02*
X116480000Y-91417500I0J-137500D01*
G01*
X116480000Y-93142500D01*
G75*
G02*
X116342500Y-93280000I-137500J0D01*
G01*
G37*
G36*
G01*
X117612500Y-93280000D02*
X117337500Y-93280000D01*
G75*
G02*
X117200000Y-93142500I0J137500D01*
G01*
X117200000Y-91417500D01*
G75*
G02*
X117337500Y-91280000I137500J0D01*
G01*
X117612500Y-91280000D01*
G75*
G02*
X117750000Y-91417500I0J-137500D01*
G01*
X117750000Y-93142500D01*
G75*
G02*
X117612500Y-93280000I-137500J0D01*
G01*
G37*
G36*
G01*
X118882500Y-93280000D02*
X118607500Y-93280000D01*
G75*
G02*
X118470000Y-93142500I0J137500D01*
G01*
X118470000Y-91417500D01*
G75*
G02*
X118607500Y-91280000I137500J0D01*
G01*
X118882500Y-91280000D01*
G75*
G02*
X119020000Y-91417500I0J-137500D01*
G01*
X119020000Y-93142500D01*
G75*
G02*
X118882500Y-93280000I-137500J0D01*
G01*
G37*
G36*
G01*
X120152500Y-93280000D02*
X119877500Y-93280000D01*
G75*
G02*
X119740000Y-93142500I0J137500D01*
G01*
X119740000Y-91417500D01*
G75*
G02*
X119877500Y-91280000I137500J0D01*
G01*
X120152500Y-91280000D01*
G75*
G02*
X120290000Y-91417500I0J-137500D01*
G01*
X120290000Y-93142500D01*
G75*
G02*
X120152500Y-93280000I-137500J0D01*
G01*
G37*
G36*
G01*
X121422500Y-93280000D02*
X121147500Y-93280000D01*
G75*
G02*
X121010000Y-93142500I0J137500D01*
G01*
X121010000Y-91417500D01*
G75*
G02*
X121147500Y-91280000I137500J0D01*
G01*
X121422500Y-91280000D01*
G75*
G02*
X121560000Y-91417500I0J-137500D01*
G01*
X121560000Y-93142500D01*
G75*
G02*
X121422500Y-93280000I-137500J0D01*
G01*
G37*
G36*
G01*
X122692500Y-93280000D02*
X122417500Y-93280000D01*
G75*
G02*
X122280000Y-93142500I0J137500D01*
G01*
X122280000Y-91417500D01*
G75*
G02*
X122417500Y-91280000I137500J0D01*
G01*
X122692500Y-91280000D01*
G75*
G02*
X122830000Y-91417500I0J-137500D01*
G01*
X122830000Y-93142500D01*
G75*
G02*
X122692500Y-93280000I-137500J0D01*
G01*
G37*
G36*
G01*
X123962500Y-93280000D02*
X123687500Y-93280000D01*
G75*
G02*
X123550000Y-93142500I0J137500D01*
G01*
X123550000Y-91417500D01*
G75*
G02*
X123687500Y-91280000I137500J0D01*
G01*
X123962500Y-91280000D01*
G75*
G02*
X124100000Y-91417500I0J-137500D01*
G01*
X124100000Y-93142500D01*
G75*
G02*
X123962500Y-93280000I-137500J0D01*
G01*
G37*
G36*
G01*
X125232500Y-93280000D02*
X124957500Y-93280000D01*
G75*
G02*
X124820000Y-93142500I0J137500D01*
G01*
X124820000Y-91417500D01*
G75*
G02*
X124957500Y-91280000I137500J0D01*
G01*
X125232500Y-91280000D01*
G75*
G02*
X125370000Y-91417500I0J-137500D01*
G01*
X125370000Y-93142500D01*
G75*
G02*
X125232500Y-93280000I-137500J0D01*
G01*
G37*
G36*
G01*
X126502500Y-93280000D02*
X126227500Y-93280000D01*
G75*
G02*
X126090000Y-93142500I0J137500D01*
G01*
X126090000Y-91417500D01*
G75*
G02*
X126227500Y-91280000I137500J0D01*
G01*
X126502500Y-91280000D01*
G75*
G02*
X126640000Y-91417500I0J-137500D01*
G01*
X126640000Y-93142500D01*
G75*
G02*
X126502500Y-93280000I-137500J0D01*
G01*
G37*
G36*
G01*
X127772500Y-93280000D02*
X127497500Y-93280000D01*
G75*
G02*
X127360000Y-93142500I0J137500D01*
G01*
X127360000Y-91417500D01*
G75*
G02*
X127497500Y-91280000I137500J0D01*
G01*
X127772500Y-91280000D01*
G75*
G02*
X127910000Y-91417500I0J-137500D01*
G01*
X127910000Y-93142500D01*
G75*
G02*
X127772500Y-93280000I-137500J0D01*
G01*
G37*
%TD*%
M02*
