M48
; DRILL file {KiCad 6.0.5-a6ca702e91~116~ubuntu20.04.1} date Sa 04 Jun 2022 17:59:47 CEST
; FORMAT={-:-/ absolute / inch / decimal}
; #@! TF.CreationDate,2022-06-04T17:59:47+02:00
; #@! TF.GenerationSoftware,Kicad,Pcbnew,6.0.5-a6ca702e91~116~ubuntu20.04.1
; #@! TF.FileFunction,Plated,1,4,PTH
FMAT,2
INCH
; #@! TA.AperFunction,Plated,PTH,ViaDrill
T1C0.0118
; #@! TA.AperFunction,Plated,PTH,ComponentDrill
T2C0.0130
; #@! TA.AperFunction,Plated,PTH,ViaDrill
T3C0.0157
; #@! TA.AperFunction,Plated,PTH,ViaDrill
T4C0.0197
; #@! TA.AperFunction,Plated,PTH,ComponentDrill
T5C0.0197
; #@! TA.AperFunction,Plated,PTH,ComponentDrill
T6C0.0374
; #@! TA.AperFunction,Plated,PTH,ComponentDrill
T7C0.0394
; #@! TA.AperFunction,Plated,PTH,ViaDrill
T8C0.0472
; #@! TA.AperFunction,Plated,PTH,ComponentDrill
T9C0.0551
; #@! TA.AperFunction,Plated,PTH,ComponentDrill
T10C0.0591
; #@! TA.AperFunction,Plated,PTH,ComponentDrill
T11C0.1260
%
G90
G05
T1
X3.1398Y-3.2972
X3.4843Y-3.6516
X3.6024Y-4.7736
X3.7402Y-3.7697
X3.8878Y-3.7697
X4.0256Y-3.7697
X4.1929Y-3.7697
X4.5768Y-2.7165
X4.646Y-3.064
X4.646Y-3.116
X4.646Y-3.166
X4.646Y-3.216
X4.646Y-3.266
X4.7539Y-1.5551
X4.8524Y-1.4764
X4.8524Y-3.4843
X5.0098Y-3.5827
X5.0099Y-3.6794
X5.0244Y-3.7903
X5.0689Y-1.5551
X5.154Y-3.064
X5.154Y-3.116
X5.154Y-3.166
X5.154Y-3.216
X5.2264Y-1.8504
X5.2264Y-1.9094
X5.3051Y-1.8799
X5.315Y-1.9094
X5.3839Y-2.313
X5.3937Y-1.5256
X5.4304Y-2.1026
X5.4528Y-2.313
X5.4589Y-2.131
X5.4626Y-1.5748
X5.4791Y-2.0777
X5.502Y-1.5256
X5.561Y-2.0965
X5.6004Y-3.7008
X5.6496Y-2.0965
X5.6693Y-1.8012
X5.6693Y-1.8317
X5.6693Y-1.8701
X5.828Y-3.806
X5.9646Y-1.565
X6.0039Y-1.4764
X6.0925Y-2.9232
X6.102Y-4.1076
X6.34Y-2.44
X6.7421Y-3.1102
X7.231Y-2.715
X7.638Y-2.838
X7.638Y-2.97
X7.6772Y-2.4606
X7.694Y-2.894
X7.744Y-2.834
X7.748Y-2.966
X7.812Y-3.4052
X7.815Y-3.6614
X7.8445Y-2.4409
X7.885Y-2.515
X7.9232Y-3.3957
X7.9331Y-1.9685
X7.9429Y-2.4409
X7.9643Y-1.7859
X7.9724Y-3.8386
X7.982Y-2.542
X7.984Y-3.346
X8.0512Y-2.313
X8.3743Y-1.4959
X8.3743Y-1.7359
T2
X5.4078Y-1.7528
X5.4078Y-1.8
X5.4078Y-1.8472
X5.455Y-1.7528
X5.455Y-1.8
X5.455Y-1.8472
X5.5022Y-1.7528
X5.5022Y-1.8
X5.5022Y-1.8472
T3
X2.5394Y-2.0965
X2.5394Y-2.2343
X2.5394Y-2.2736
X2.5394Y-2.313
X2.5394Y-2.3524
X2.5394Y-2.3917
X2.5394Y-2.4311
X2.5394Y-2.4705
X2.5394Y-2.5098
X2.5787Y-2.0965
X2.5787Y-2.2343
X2.5787Y-2.2736
X2.5787Y-2.313
X2.5787Y-2.3524
X2.5787Y-2.3917
X2.5787Y-2.4311
X2.5787Y-2.4705
X2.5787Y-2.5098
X3.1004Y-3.5728
X3.3Y-3.5
X3.6024Y-4.813
X3.8091Y-3.4154
X3.9567Y-3.3858
X4.1339Y-3.0807
X4.2323Y-3.0807
X4.3307Y-3.4547
X4.4291Y-4.7933
X4.476Y-4.362
X4.514Y-4.438
X4.552Y-4.01
X4.556Y-4.404
X4.56Y-3.908
X4.568Y-4.048
X4.65Y-3.65
X4.7Y-3.7
X4.702Y-4.364
X4.788Y-4.408
X4.88Y-4.438
X4.97Y-4.436
X5.036Y-1.42
X5.06Y-4.398
X5.1004Y-1.8189
X5.1004Y-1.8583
X5.1004Y-1.8976
X5.1004Y-1.9341
X5.15Y-4.364
X5.2461Y-2.0768
X5.256Y-4.048
X5.314Y-3.91
X5.324Y-4.01
X5.37Y-1.65
X5.38Y-1.42
X5.4Y-4.5
X5.4452Y-1.9751
X5.466Y-4.354
X5.47Y-4.394
X5.472Y-4.438
X5.55Y-1.65
X5.55Y-3.65
X5.65Y-3.65
X5.7283Y-1.9193
X5.7972Y-1.3976
X5.8051Y-1.8228
X5.8051Y-1.8622
X5.8051Y-1.9016
X5.8051Y-1.9409
X5.86Y-3.7
X5.88Y-3.65
X6.04Y-4.138
X6.042Y-4.18
X6.1614Y-3.189
X6.35Y-2.74
X6.47Y-2.55
X6.5453Y-4.1732
X6.57Y-2.83
X6.58Y-2.74
X6.5846Y-4.1142
X6.6535Y-3.1594
X6.752Y-2.5394
X6.7717Y-2.9232
X6.811Y-2.8937
X6.9193Y-3.5827
X6.9882Y-2.4114
X6.998Y-3.6122
X7.0Y-2.92
X7.0199Y-3.645
X7.02Y-2.79
X7.0276Y-2.372
X7.0374Y-2.8543
X7.06Y-2.44
X7.0885Y-2.49
X7.1161Y-2.8543
X7.18Y-2.92
X7.2104Y-2.7785
X7.38Y-2.49
X7.3819Y-3.376
X7.4311Y-3.1988
X7.4803Y-3.1594
X7.4804Y-2.1304
X7.487Y-2.0678
X7.5295Y-3.3465
X7.54Y-1.99
X7.5492Y-2.4114
X7.5689Y-2.372
X7.628Y-3.6122
X7.815Y-4.1142
X7.8445Y-3.5827
X7.8642Y-4.872
X7.874Y-3.622
X7.9626Y-4.1142
X7.971Y-3.5536
T4
X2.628Y-2.5787
X3.2972Y-4.8425
X3.8484Y-4.0059
X3.9961Y-4.0059
X4.1437Y-4.0059
X4.2894Y-4.0039
X4.616Y-4.242
X5.0613Y-2.02
X5.1969Y-4.1339
X5.2067Y-3.3465
X5.2461Y-3.8386
X5.3248Y-2.2146
X5.5709Y-2.313
X5.6299Y-3.878
X5.7185Y-2.5787
X5.8268Y-3.0709
X6.122Y-2.2244
X6.2402Y-3.0709
X6.2402Y-3.4941
X6.7126Y-3.4941
X6.9481Y-2.4389
X7.3917Y-4.2815
X7.6378Y-2.2244
X7.6476Y-3.6811
X8.1594Y-3.8976
T5
X2.0992Y-1.1937
X2.0992Y-4.6063
X2.1269Y-1.1269
X2.1269Y-1.2605
X2.1269Y-4.5395
X2.1269Y-4.6731
X2.1937Y-1.0992
X2.1937Y-1.2882
X2.1937Y-4.5118
X2.1937Y-4.7008
X2.2605Y-1.1269
X2.2605Y-1.2605
X2.2605Y-4.5395
X2.2605Y-4.6731
X2.2882Y-1.1937
X2.2882Y-4.6063
X8.0118Y-1.1937
X8.0118Y-4.6063
X8.0395Y-1.1269
X8.0395Y-1.2605
X8.0395Y-4.5395
X8.0395Y-4.6731
X8.1063Y-1.0992
X8.1063Y-1.2882
X8.1063Y-4.5118
X8.1063Y-4.7008
X8.1731Y-1.1269
X8.1731Y-1.2605
X8.1731Y-4.5395
X8.1731Y-4.6731
X8.2008Y-1.1937
X8.2008Y-4.6063
T6
X2.8Y-3.75
X2.8Y-4.15
X2.8Y-4.5642
X2.8984Y-3.75
X2.8984Y-4.15
X2.8984Y-4.5642
X2.9969Y-3.75
X2.9969Y-4.15
X2.9969Y-4.5642
X3.0953Y-3.75
X3.0953Y-4.15
X3.0953Y-4.5642
X3.1937Y-3.75
X3.1937Y-4.15
X3.1937Y-4.5642
X3.2921Y-3.75
X3.2921Y-4.15
X3.2921Y-4.5642
X3.3906Y-3.75
X3.3906Y-4.15
X3.3906Y-4.5642
X3.489Y-3.75
X3.489Y-4.15
X3.489Y-4.5642
X3.7402Y-4.1535
X3.8386Y-4.1535
X3.9Y-4.576
X3.937Y-4.1535
X3.9984Y-4.576
X4.0354Y-4.1535
X4.0969Y-4.576
X4.1339Y-4.1535
X4.1953Y-4.576
X4.2323Y-4.1535
X4.3307Y-4.1535
X4.4291Y-4.1535
X4.58Y-4.58
X4.6784Y-4.58
X4.7769Y-4.58
X4.8753Y-4.58
X4.9737Y-4.58
X5.0721Y-4.58
X5.1706Y-4.58
X5.269Y-4.58
X5.72Y-4.58
X5.8184Y-4.58
X5.9169Y-4.58
X6.0153Y-4.58
X6.1137Y-4.58
X6.2121Y-4.58
X6.3106Y-4.58
X6.409Y-4.58
X7.456Y-4.588
X7.5544Y-4.588
X7.6529Y-4.588
T7
X5.135Y-1.075
X5.2334Y-1.075
X5.507Y-1.075
X5.6055Y-1.075
X6.91Y-3.71
X6.91Y-3.81
X6.91Y-3.91
X6.91Y-4.01
X6.91Y-4.11
X6.9457Y-1.0235
X6.9457Y-1.1235
X6.9539Y-1.6731
X6.9539Y-1.7731
X7.01Y-3.71
X7.01Y-3.81
X7.01Y-3.91
X7.01Y-4.01
X7.01Y-4.11
X7.03Y-4.58
X7.0457Y-1.0235
X7.0457Y-1.1235
X7.0539Y-1.6731
X7.0539Y-1.7731
X7.1284Y-4.58
X7.1457Y-1.0235
X7.1457Y-1.1235
X7.1539Y-1.6731
X7.1539Y-1.7731
X7.2457Y-1.0235
X7.2457Y-1.1235
X7.2539Y-1.6731
X7.2539Y-1.7731
X7.3457Y-1.0235
X7.3457Y-1.1235
X7.3539Y-1.6731
X7.3539Y-1.7731
T8
X2.7219Y-3.1693
T9
X2.0669Y-1.9941
X2.0669Y-2.1594
X2.0669Y-2.3248
X2.0669Y-2.4902
X2.0669Y-2.6555
X2.0669Y-2.8209
X2.0669Y-2.9862
X2.0669Y-3.1516
X2.0669Y-3.3169
X2.0669Y-3.4823
X2.0669Y-3.6476
X2.0669Y-3.813
X2.2835Y-1.9941
X2.2835Y-2.1594
X2.2835Y-2.3248
X2.2835Y-2.4902
X2.2835Y-2.6555
X2.2835Y-2.8209
X2.2835Y-2.9862
X2.2835Y-3.1516
X2.2835Y-3.3169
X2.2835Y-3.4823
X2.2835Y-3.6476
X2.2835Y-3.813
T10
X2.5331Y-1.548
X2.5335Y-1.1965
X3.7882Y-1.1969
X3.7886Y-1.5496
T11
X2.1937Y-1.1937
X2.1937Y-4.6063
X8.1063Y-1.1937
X8.1063Y-4.6063
T0
M30
