%TF.GenerationSoftware,KiCad,Pcbnew,6.0.5-a6ca702e91~116~ubuntu20.04.1*%
%TF.CreationDate,2022-06-04T17:59:46+02:00*%
%TF.ProjectId,anna_elsa_esp32_cpu,616e6e61-5f65-46c7-9361-5f6573703332,rev?*%
%TF.SameCoordinates,Original*%
%TF.FileFunction,Copper,L4,Bot*%
%TF.FilePolarity,Positive*%
%FSLAX46Y46*%
G04 Gerber Fmt 4.6, Leading zero omitted, Abs format (unit mm)*
G04 Created by KiCad (PCBNEW 6.0.5-a6ca702e91~116~ubuntu20.04.1) date 2022-06-04 17:59:46*
%MOMM*%
%LPD*%
G01*
G04 APERTURE LIST*
G04 Aperture macros list*
%AMRoundRect*
0 Rectangle with rounded corners*
0 $1 Rounding radius*
0 $2 $3 $4 $5 $6 $7 $8 $9 X,Y pos of 4 corners*
0 Add a 4 corners polygon primitive as box body*
4,1,4,$2,$3,$4,$5,$6,$7,$8,$9,$2,$3,0*
0 Add four circle primitives for the rounded corners*
1,1,$1+$1,$2,$3*
1,1,$1+$1,$4,$5*
1,1,$1+$1,$6,$7*
1,1,$1+$1,$8,$9*
0 Add four rect primitives between the rounded corners*
20,1,$1+$1,$2,$3,$4,$5,0*
20,1,$1+$1,$4,$5,$6,$7,0*
20,1,$1+$1,$6,$7,$8,$9,0*
20,1,$1+$1,$8,$9,$2,$3,0*%
G04 Aperture macros list end*
%TA.AperFunction,ComponentPad*%
%ADD10C,0.630000*%
%TD*%
%TA.AperFunction,SMDPad,CuDef*%
%ADD11R,3.030000X3.030000*%
%TD*%
%TA.AperFunction,ComponentPad*%
%ADD12RoundRect,0.250000X-0.600000X-0.725000X0.600000X-0.725000X0.600000X0.725000X-0.600000X0.725000X0*%
%TD*%
%TA.AperFunction,ComponentPad*%
%ADD13O,1.700000X1.950000*%
%TD*%
%TA.AperFunction,ComponentPad*%
%ADD14C,0.800000*%
%TD*%
%TA.AperFunction,ComponentPad*%
%ADD15C,6.400000*%
%TD*%
%TA.AperFunction,ComponentPad*%
%ADD16RoundRect,0.250000X-0.600000X-0.750000X0.600000X-0.750000X0.600000X0.750000X-0.600000X0.750000X0*%
%TD*%
%TA.AperFunction,ComponentPad*%
%ADD17O,1.700000X2.000000*%
%TD*%
%TA.AperFunction,ComponentPad*%
%ADD18RoundRect,0.250000X0.600000X0.600000X-0.600000X0.600000X-0.600000X-0.600000X0.600000X-0.600000X0*%
%TD*%
%TA.AperFunction,ComponentPad*%
%ADD19C,1.700000*%
%TD*%
%TA.AperFunction,ComponentPad*%
%ADD20RoundRect,0.250000X-0.600000X0.600000X-0.600000X-0.600000X0.600000X-0.600000X0.600000X0.600000X0*%
%TD*%
%TA.AperFunction,ComponentPad*%
%ADD21RoundRect,0.750000X-1.750000X-0.750000X1.750000X-0.750000X1.750000X0.750000X-1.750000X0.750000X0*%
%TD*%
%TA.AperFunction,ComponentPad*%
%ADD22R,2.100000X2.100000*%
%TD*%
%TA.AperFunction,ComponentPad*%
%ADD23C,2.100000*%
%TD*%
%TA.AperFunction,ViaPad*%
%ADD24C,0.600000*%
%TD*%
%TA.AperFunction,ViaPad*%
%ADD25C,1.000000*%
%TD*%
%TA.AperFunction,ViaPad*%
%ADD26C,0.800000*%
%TD*%
%TA.AperFunction,ViaPad*%
%ADD27C,2.000000*%
%TD*%
%TA.AperFunction,Conductor*%
%ADD28C,0.250000*%
%TD*%
%TA.AperFunction,Conductor*%
%ADD29C,0.200000*%
%TD*%
%TA.AperFunction,Conductor*%
%ADD30C,1.000000*%
%TD*%
%TA.AperFunction,Conductor*%
%ADD31C,0.800000*%
%TD*%
%TA.AperFunction,Conductor*%
%ADD32C,1.500000*%
%TD*%
G04 APERTURE END LIST*
D10*
%TO.P,U3,33,EP*%
%TO.N,GND*%
X139757000Y-44520000D03*
X139757000Y-45720000D03*
X138557000Y-46920000D03*
D11*
X138557000Y-45720000D03*
D10*
X137357000Y-44520000D03*
X138557000Y-44520000D03*
X137357000Y-46920000D03*
X138557000Y-45720000D03*
X139757000Y-46920000D03*
X137357000Y-45720000D03*
%TD*%
D12*
%TO.P,J5,1,Pin_1*%
%TO.N,+5V*%
X189382400Y-116535200D03*
D13*
%TO.P,J5,2,Pin_2*%
%TO.N,LED_DIN_SPLITTER*%
X191882400Y-116535200D03*
%TO.P,J5,3,Pin_3*%
%TO.N,GND*%
X194382400Y-116535200D03*
%TD*%
D12*
%TO.P,J22,1,Pin_1*%
%TO.N,GND*%
X116332000Y-116332000D03*
D13*
%TO.P,J22,2,Pin_2*%
%TO.N,Net-(J22-Pad2)*%
X118832000Y-116332000D03*
%TO.P,J22,3,Pin_3*%
%TO.N,Net-(J22-Pad3)*%
X121332000Y-116332000D03*
%TO.P,J22,4,Pin_4*%
%TO.N,Net-(J22-Pad4)*%
X123832000Y-116332000D03*
%TO.P,J22,5,Pin_5*%
%TO.N,Net-(J22-Pad5)*%
X126332000Y-116332000D03*
%TO.P,J22,6,Pin_6*%
%TO.N,Net-(J22-Pad6)*%
X128832000Y-116332000D03*
%TO.P,J22,7,Pin_7*%
%TO.N,Net-(J22-Pad7)*%
X131332000Y-116332000D03*
%TO.P,J22,8,Pin_8*%
%TO.N,Net-(J22-Pad8)*%
X133832000Y-116332000D03*
%TD*%
D14*
%TO.P,H2,1,1*%
%TO.N,GND*%
X58120000Y-117000000D03*
D15*
X55720000Y-117000000D03*
D14*
X53320000Y-117000000D03*
X54022944Y-118697056D03*
X55720000Y-119400000D03*
X57417056Y-118697056D03*
X55720000Y-114600000D03*
X57417056Y-115302944D03*
X54022944Y-115302944D03*
%TD*%
%TO.P,H3,1,1*%
%TO.N,GND*%
X205900000Y-27920000D03*
X208300000Y-30320000D03*
X204202944Y-28622944D03*
X203500000Y-30320000D03*
X207597056Y-28622944D03*
X205900000Y-32720000D03*
X207597056Y-32017056D03*
D15*
X205900000Y-30320000D03*
D14*
X204202944Y-32017056D03*
%TD*%
D16*
%TO.P,J9,1*%
%TO.N,/Audio/OUTL+*%
X130429000Y-27305000D03*
D17*
%TO.P,J9,2*%
%TO.N,/Audio/OUTL-*%
X132929000Y-27305000D03*
%TD*%
D16*
%TO.P,J11,1*%
%TO.N,/Audio/OUTR+*%
X139879000Y-27305000D03*
D17*
%TO.P,J11,2*%
%TO.N,/Audio/OUTR-*%
X142379000Y-27305000D03*
%TD*%
D12*
%TO.P,J10,1,Pin_1*%
%TO.N,GND*%
X99060000Y-116230400D03*
D13*
%TO.P,J10,2,Pin_2*%
%TO.N,+5V*%
X101560000Y-116230400D03*
%TO.P,J10,3,Pin_3*%
%TO.N,SDA*%
X104060000Y-116230400D03*
%TO.P,J10,4,Pin_4*%
%TO.N,SCL*%
X106560000Y-116230400D03*
%TD*%
D14*
%TO.P,H1,1,1*%
%TO.N,GND*%
X57417056Y-28622944D03*
X54022944Y-28622944D03*
X53320000Y-30320000D03*
X55720000Y-32720000D03*
X57417056Y-32017056D03*
X55720000Y-27920000D03*
D15*
X55720000Y-30320000D03*
D14*
X58120000Y-30320000D03*
X54022944Y-32017056D03*
%TD*%
D15*
%TO.P,H4,1,1*%
%TO.N,GND*%
X205900000Y-117000000D03*
D14*
X205900000Y-119400000D03*
X208300000Y-117000000D03*
X204202944Y-115302944D03*
X207597056Y-118697056D03*
X207597056Y-115302944D03*
X204202944Y-118697056D03*
X205900000Y-114600000D03*
X203500000Y-117000000D03*
%TD*%
D16*
%TO.P,J14,1*%
%TO.N,GND*%
X178562000Y-116332000D03*
D17*
%TO.P,J14,2*%
%TO.N,Net-(J14-Pad2)*%
X181062000Y-116332000D03*
%TD*%
D12*
%TO.P,J23,1,Pin_1*%
%TO.N,+12V*%
X145288000Y-116332000D03*
D13*
%TO.P,J23,2,Pin_2*%
%TO.N,unconnected-(J23-Pad2)*%
X147788000Y-116332000D03*
%TO.P,J23,3,Pin_3*%
%TO.N,Net-(J23-Pad3)*%
X150288000Y-116332000D03*
%TO.P,J23,4,Pin_4*%
%TO.N,Net-(J23-Pad4)*%
X152788000Y-116332000D03*
%TO.P,J23,5,Pin_5*%
%TO.N,Net-(J23-Pad5)*%
X155288000Y-116332000D03*
%TO.P,J23,6,Pin_6*%
%TO.N,Net-(J23-Pad6)*%
X157788000Y-116332000D03*
%TO.P,J23,7,Pin_7*%
%TO.N,Net-(J23-Pad7)*%
X160288000Y-116332000D03*
%TO.P,J23,8,Pin_8*%
%TO.N,Net-(J23-Pad8)*%
X162788000Y-116332000D03*
%TD*%
D12*
%TO.P,J1,1,Pin_1*%
%TO.N,GND*%
X71120000Y-95250000D03*
D13*
%TO.P,J1,2,Pin_2*%
%TO.N,+5V*%
X73620000Y-95250000D03*
%TO.P,J1,3,Pin_3*%
%TO.N,+24V*%
X76120000Y-95250000D03*
%TO.P,J1,4,Pin_4*%
%TO.N,EN_PWM*%
X78620000Y-95250000D03*
%TO.P,J1,5,Pin_5*%
%TO.N,Net-(J1-Pad5)*%
X81120000Y-95250000D03*
%TO.P,J1,6,Pin_6*%
%TO.N,LED_DOUT_SPLITTER*%
X83620000Y-95250000D03*
%TO.P,J1,7,Pin_7*%
%TO.N,SCL*%
X86120000Y-95250000D03*
%TO.P,J1,8,Pin_8*%
%TO.N,SDA*%
X88620000Y-95250000D03*
%TD*%
D12*
%TO.P,J2,1,Pin_1*%
%TO.N,GND*%
X71120000Y-105410000D03*
D13*
%TO.P,J2,2,Pin_2*%
%TO.N,+5V*%
X73620000Y-105410000D03*
%TO.P,J2,3,Pin_3*%
%TO.N,+24V*%
X76120000Y-105410000D03*
%TO.P,J2,4,Pin_4*%
%TO.N,EN_PWM*%
X78620000Y-105410000D03*
%TO.P,J2,5,Pin_5*%
%TO.N,Net-(J2-Pad5)*%
X81120000Y-105410000D03*
%TO.P,J2,6,Pin_6*%
%TO.N,Net-(J1-Pad5)*%
X83620000Y-105410000D03*
%TO.P,J2,7,Pin_7*%
%TO.N,SCL*%
X86120000Y-105410000D03*
%TO.P,J2,8,Pin_8*%
%TO.N,SDA*%
X88620000Y-105410000D03*
%TD*%
D12*
%TO.P,J3,1,Pin_1*%
%TO.N,GND*%
X71120000Y-115930000D03*
D13*
%TO.P,J3,2,Pin_2*%
%TO.N,+5V*%
X73620000Y-115930000D03*
%TO.P,J3,3,Pin_3*%
%TO.N,+24V*%
X76120000Y-115930000D03*
%TO.P,J3,4,Pin_4*%
%TO.N,EN_PWM*%
X78620000Y-115930000D03*
%TO.P,J3,5,Pin_5*%
%TO.N,LED_DOUT*%
X81120000Y-115930000D03*
%TO.P,J3,6,Pin_6*%
%TO.N,Net-(J2-Pad5)*%
X83620000Y-115930000D03*
%TO.P,J3,7,Pin_7*%
%TO.N,SCL*%
X86120000Y-115930000D03*
%TO.P,J3,8,Pin_8*%
%TO.N,SDA*%
X88620000Y-115930000D03*
%TD*%
D18*
%TO.P,J12,1*%
%TO.N,+3V3*%
X178054000Y-104394000D03*
D19*
%TO.P,J12,2*%
%TO.N,GND*%
X175514000Y-104394000D03*
%TO.P,J12,3*%
%TO.N,JTAG_SRST*%
X178054000Y-101854000D03*
%TO.P,J12,4*%
%TO.N,JTAG_TDO*%
X175514000Y-101854000D03*
%TO.P,J12,5*%
%TO.N,JTAG_TDI*%
X178054000Y-99314000D03*
%TO.P,J12,6*%
%TO.N,JTAG_TCK*%
X175514000Y-99314000D03*
%TO.P,J12,7*%
%TO.N,JTAG_TMS*%
X178054000Y-96774000D03*
%TO.P,J12,8*%
%TO.N,unconnected-(J12-Pad8)*%
X175514000Y-96774000D03*
%TO.P,J12,9*%
%TO.N,USB_TX*%
X178054000Y-94234000D03*
%TO.P,J12,10*%
%TO.N,USB_RX*%
X175514000Y-94234000D03*
%TD*%
D12*
%TO.P,J4,1,Pin_1*%
%TO.N,GND*%
X95000000Y-105500000D03*
D13*
%TO.P,J4,2,Pin_2*%
%TO.N,+5V*%
X97500000Y-105500000D03*
%TO.P,J4,3,Pin_3*%
%TO.N,MD_OE*%
X100000000Y-105500000D03*
%TO.P,J4,4,Pin_4*%
%TO.N,MD_CLK*%
X102500000Y-105500000D03*
%TO.P,J4,5,Pin_5*%
%TO.N,MD_STROBE*%
X105000000Y-105500000D03*
%TO.P,J4,6,Pin_6*%
%TO.N,MD_DOUT*%
X107500000Y-105500000D03*
%TO.P,J4,7,Pin_7*%
%TO.N,LED_DOUT_SPLITTER*%
X110000000Y-105500000D03*
%TO.P,J4,8,Pin_8*%
%TO.N,LED_DIN_SPLITTER*%
X112500000Y-105500000D03*
%TD*%
D20*
%TO.P,J7,1,Pin_1*%
%TO.N,CCTALK_DATA*%
X186790000Y-42497500D03*
D19*
%TO.P,J7,2,Pin_2*%
%TO.N,unconnected-(J7-Pad2)*%
X186790000Y-45037500D03*
%TO.P,J7,3,Pin_3*%
%TO.N,unconnected-(J7-Pad3)*%
X184250000Y-42497500D03*
%TO.P,J7,4,Pin_4*%
%TO.N,GND*%
X184250000Y-45037500D03*
%TO.P,J7,5,Pin_5*%
%TO.N,unconnected-(J7-Pad5)*%
X181710000Y-42497500D03*
%TO.P,J7,6,Pin_6*%
%TO.N,unconnected-(J7-Pad6)*%
X181710000Y-45037500D03*
%TO.P,J7,7,Pin_7*%
%TO.N,+24V*%
X179170000Y-42497500D03*
%TO.P,J7,8,Pin_8*%
%TO.N,GND*%
X179170000Y-45037500D03*
%TO.P,J7,9,Pin_9*%
%TO.N,unconnected-(J7-Pad9)*%
X176630000Y-42497500D03*
%TO.P,J7,10,Pin_10*%
%TO.N,+24V*%
X176630000Y-45037500D03*
%TD*%
D21*
%TO.P,U12,1,Vin+*%
%TO.N,+12V*%
X64350000Y-30390000D03*
%TO.P,U12,2,Vin-*%
%TO.N,GND*%
X64340000Y-39320000D03*
%TO.P,U12,3,Vout-*%
X96230000Y-39360000D03*
%TO.P,U12,4,Vout+*%
%TO.N,+24V*%
X96220000Y-30400000D03*
%TD*%
D20*
%TO.P,J8,1,Pin_1*%
%TO.N,CCTALK_DATA*%
X186580000Y-25997500D03*
D19*
%TO.P,J8,2,Pin_2*%
%TO.N,unconnected-(J8-Pad2)*%
X186580000Y-28537500D03*
%TO.P,J8,3,Pin_3*%
%TO.N,unconnected-(J8-Pad3)*%
X184040000Y-25997500D03*
%TO.P,J8,4,Pin_4*%
%TO.N,GND*%
X184040000Y-28537500D03*
%TO.P,J8,5,Pin_5*%
%TO.N,unconnected-(J8-Pad5)*%
X181500000Y-25997500D03*
%TO.P,J8,6,Pin_6*%
%TO.N,unconnected-(J8-Pad6)*%
X181500000Y-28537500D03*
%TO.P,J8,7,Pin_7*%
%TO.N,+12V*%
X178960000Y-25997500D03*
%TO.P,J8,8,Pin_8*%
%TO.N,GND*%
X178960000Y-28537500D03*
%TO.P,J8,9,Pin_9*%
%TO.N,unconnected-(J8-Pad9)*%
X176420000Y-25997500D03*
%TO.P,J8,10,Pin_10*%
%TO.N,+12V*%
X176420000Y-28537500D03*
%TD*%
D22*
%TO.P,J6,1,+3.3V*%
%TO.N,Net-(F3-Pad1)*%
X52500000Y-96850000D03*
D23*
%TO.P,J6,2,+3.3V*%
X58000000Y-96850000D03*
%TO.P,J6,3,GND*%
%TO.N,GND*%
X52500000Y-92650000D03*
%TO.P,J6,4,+5V*%
%TO.N,Net-(F2-Pad1)*%
X58000000Y-92650000D03*
%TO.P,J6,5,GND*%
%TO.N,GND*%
X52500000Y-88450000D03*
%TO.P,J6,6,+5V*%
%TO.N,Net-(F2-Pad1)*%
X58000000Y-88450000D03*
%TO.P,J6,7,GND*%
%TO.N,GND*%
X52500000Y-84250000D03*
%TO.P,J6,8,PWR_OK*%
%TO.N,unconnected-(J6-Pad8)*%
X58000000Y-84250000D03*
%TO.P,J6,9,+5VSB*%
%TO.N,unconnected-(J6-Pad9)*%
X52500000Y-80050000D03*
%TO.P,J6,10,+12V*%
%TO.N,Net-(F1-Pad1)*%
X58000000Y-80050000D03*
%TO.P,J6,11,+12V*%
X52500000Y-75850000D03*
%TO.P,J6,12,+3.3V*%
%TO.N,Net-(F3-Pad1)*%
X58000000Y-75850000D03*
%TO.P,J6,13,+3.3V*%
X52500000Y-71650000D03*
%TO.P,J6,14,-12V*%
%TO.N,unconnected-(J6-Pad14)*%
X58000000Y-71650000D03*
%TO.P,J6,15,GND*%
%TO.N,GND*%
X52500000Y-67450000D03*
%TO.P,J6,16,PS_ON#*%
%TO.N,Net-(J6-Pad16)*%
X58000000Y-67450000D03*
%TO.P,J6,17,GND*%
%TO.N,GND*%
X52500000Y-63250000D03*
%TO.P,J6,18,GND*%
X58000000Y-63250000D03*
%TO.P,J6,19,GND*%
X52500000Y-59050000D03*
%TO.P,J6,20,NC*%
%TO.N,unconnected-(J6-Pad20)*%
X58000000Y-59050000D03*
%TO.P,J6,21,+5V*%
%TO.N,Net-(F2-Pad1)*%
X52500000Y-54850000D03*
%TO.P,J6,22,+5V*%
X58000000Y-54850000D03*
%TO.P,J6,23,+5V*%
X52500000Y-50650000D03*
%TO.P,J6,24,GND*%
%TO.N,GND*%
X58000000Y-50650000D03*
%TD*%
D24*
%TO.N,/Audio/OUTR+*%
X138750000Y-40000000D03*
X151500000Y-39750000D03*
%TO.N,/Audio/OUT_B-*%
X139750000Y-38750000D03*
X152500000Y-37500000D03*
%TO.N,/Audio/OUT_A-*%
X123250000Y-37500000D03*
X137000000Y-38750000D03*
%TO.N,/Audio/OUTL+*%
X120750000Y-39500000D03*
X128750000Y-39500000D03*
D25*
%TO.N,+12V*%
X128558000Y-51308000D03*
D26*
%TO.N,GND*%
X147450000Y-49300000D03*
X147450000Y-48300000D03*
X147450000Y-47300000D03*
X147450000Y-46300000D03*
%TO.N,AUDIO_LRCLK*%
X138307000Y-50167939D03*
D24*
%TO.N,GND*%
X144000000Y-45750000D03*
D26*
X133250000Y-52750000D03*
X129550000Y-49125000D03*
X129550000Y-48200000D03*
X129550000Y-47200000D03*
X129550000Y-46200000D03*
%TO.N,+12V*%
X145500000Y-48750000D03*
D24*
%TO.N,GND*%
X143500000Y-53250000D03*
X144000000Y-47500000D03*
X144000000Y-46524500D03*
%TO.N,Net-(U3-Pad11)*%
X137931500Y-53406625D03*
%TO.N,AUDIO_SCLK*%
X138657227Y-54128481D03*
%TO.N,+3V3*%
X136750000Y-58750000D03*
X138500000Y-58750000D03*
%TO.N,/Audio/ADR*%
X132750000Y-48500000D03*
X135000000Y-48500000D03*
%TO.N,GND*%
X132750000Y-47000000D03*
X134750000Y-47750000D03*
%TO.N,Net-(U3-Pad11)*%
X141250000Y-53250000D03*
%TO.N,GND*%
X116250000Y-69000000D03*
X194005200Y-75438000D03*
X98750000Y-95750000D03*
X194005200Y-72085200D03*
X130911600Y-77825600D03*
X212707500Y-37996000D03*
X95000000Y-95750000D03*
X196799200Y-75336400D03*
D26*
X140970000Y-41910000D03*
D24*
X91500000Y-121250000D03*
X196697600Y-71983600D03*
X118008400Y-77825600D03*
X154750000Y-74250000D03*
D26*
X136652000Y-36068000D03*
D24*
X195427600Y-73507600D03*
X183667400Y-68961000D03*
X130911600Y-79146400D03*
X118008400Y-81686400D03*
X195000000Y-62500000D03*
X130911600Y-80416400D03*
X171250000Y-79000000D03*
X148031200Y-96672400D03*
X154990800Y-104332010D03*
X106500000Y-95750000D03*
X201500000Y-50000000D03*
X161036000Y-61976000D03*
X204500000Y-58750000D03*
X212707500Y-44092000D03*
X79750000Y-83750000D03*
X118008400Y-82956400D03*
D26*
X127914400Y-36068000D03*
D24*
X130911600Y-81686400D03*
D26*
X147250000Y-35500000D03*
D24*
X202793600Y-84988400D03*
X102250000Y-95750000D03*
X118008400Y-79146400D03*
X202742800Y-64566800D03*
X123250000Y-88500000D03*
X118008400Y-80416400D03*
D26*
X136398000Y-41910000D03*
%TO.N,+5V*%
X64500000Y-59750000D03*
D24*
X127620878Y-96274500D03*
D26*
X65500000Y-57750000D03*
X64500000Y-58750000D03*
D25*
X97750000Y-101750000D03*
D26*
X64500000Y-60750000D03*
X64500000Y-56750000D03*
D25*
X133250000Y-97500000D03*
X83750000Y-123000000D03*
D26*
X65500000Y-58750000D03*
D25*
X194250000Y-93500000D03*
X207250000Y-99000000D03*
D26*
X65500000Y-61750000D03*
D24*
X127251835Y-93455500D03*
D26*
X64500000Y-57750000D03*
D25*
X101500000Y-101750000D03*
X143000000Y-98500000D03*
D26*
X65500000Y-60750000D03*
D24*
X202293500Y-45362000D03*
D25*
X108950000Y-101700000D03*
D26*
X65500000Y-56750000D03*
X64500000Y-53250000D03*
X64500000Y-63750000D03*
D25*
X187750000Y-108750000D03*
X132000000Y-105000000D03*
X105250000Y-101750000D03*
D26*
X65500000Y-62750000D03*
X166878000Y-71882000D03*
X65500000Y-59750000D03*
D25*
X132250000Y-85000000D03*
D24*
X127250000Y-91000000D03*
D26*
X65500000Y-63750000D03*
D25*
X176481747Y-61949284D03*
D26*
X64500000Y-61750000D03*
X65500000Y-53250000D03*
D25*
X117246400Y-107746800D03*
D26*
X64500000Y-62750000D03*
%TO.N,Net-(Q3-Pad18)*%
X153416000Y-105105200D03*
X167250000Y-104500000D03*
D27*
%TO.N,+12V*%
X69137500Y-80500000D03*
D26*
%TO.N,CCTALK_DATA*%
X167132000Y-69596000D03*
X161290000Y-69596000D03*
%TO.N,HOST_RX*%
X164338000Y-64770000D03*
X171500000Y-64500000D03*
D24*
%TO.N,SCL*%
X142250000Y-94000000D03*
X202500000Y-97500000D03*
D26*
X148844000Y-93980000D03*
X119380000Y-93980000D03*
D24*
%TO.N,SDA*%
X88500000Y-92750000D03*
D26*
X143510000Y-92710000D03*
X118110000Y-92710000D03*
D24*
X198500000Y-93000000D03*
D26*
X149352000Y-92710000D03*
X140970000Y-92710000D03*
D24*
%TO.N,JTAG_SRST*%
X200279000Y-63881000D03*
D26*
X179324000Y-61976000D03*
D24*
%TO.N,AUDIO_SDIN*%
X139168331Y-52772708D03*
D26*
X190168991Y-52523056D03*
%TO.N,AUDIO_SCLK*%
X190001320Y-54111320D03*
%TO.N,AUDIO_LRCLK*%
X191516000Y-50546000D03*
D24*
%TO.N,+3V3*%
X201750000Y-62000000D03*
X198425990Y-86491903D03*
D25*
X155500000Y-56500000D03*
X135250000Y-56250000D03*
D24*
X201250000Y-86250000D03*
D25*
X158500000Y-88750000D03*
X141500000Y-58750000D03*
X158500000Y-78000000D03*
X148000000Y-78000000D03*
X66750000Y-65500000D03*
X170500000Y-88750000D03*
D26*
X194000000Y-56500000D03*
D24*
X199250000Y-62000000D03*
D25*
X145250000Y-65500000D03*
D26*
%TO.N,CPU_RUN*%
X177750000Y-91750000D03*
X180750000Y-72500000D03*
X193750000Y-91750000D03*
X178750000Y-72500000D03*
%TO.N,Net-(J14-Pad2)*%
X137160000Y-114300000D03*
%TO.N,EN_PWM*%
X202463996Y-90260774D03*
X78750000Y-90750000D03*
%TO.N,USB_TX*%
X200000000Y-92000000D03*
X178304707Y-92582060D03*
%TO.N,USB_RX*%
X175750000Y-91000000D03*
X199250000Y-91000000D03*
%TO.N,LED_DOUT_SPLITTER*%
X83820000Y-88900000D03*
X110000000Y-87750000D03*
%TO.N,LED_DIN_SPLITTER*%
X112500000Y-121750000D03*
%TO.N,Net-(J22-Pad2)*%
X115824000Y-99263200D03*
X134975600Y-99314000D03*
X119430800Y-110845600D03*
X113690400Y-110794800D03*
%TO.N,Net-(J22-Pad3)*%
X116027200Y-102819200D03*
X121615200Y-111963200D03*
X133502400Y-102819200D03*
X115722400Y-111861600D03*
%TO.N,Net-(J22-Pad4)*%
X114655600Y-112725200D03*
X135229600Y-101854000D03*
X123952000Y-112725200D03*
X115620800Y-101854000D03*
%TO.N,Net-(J22-Pad5)*%
X126238000Y-112674400D03*
X138988800Y-112725200D03*
%TO.N,Net-(J22-Pad6)*%
X128524000Y-111709200D03*
X138938000Y-111607600D03*
%TO.N,Net-(J22-Pad7)*%
X130810000Y-110845600D03*
X138836400Y-110591600D03*
%TO.N,Net-(Q3-Pad17)*%
X153466800Y-106172000D03*
X166250000Y-106000000D03*
%TO.N,MD_CLK33*%
X100500000Y-86000000D03*
X191250000Y-85000000D03*
%TO.N,MD_OE33*%
X96750000Y-86750000D03*
X187500000Y-85750000D03*
%TO.N,MD_STROBE33*%
X105000000Y-78250000D03*
X173000000Y-73500000D03*
X178500000Y-60250000D03*
X192250000Y-60250000D03*
%TO.N,MD_DOUT33*%
X172000000Y-74250000D03*
X191750000Y-61250000D03*
X107500000Y-78250000D03*
X177500000Y-61250000D03*
%TO.N,HOST_RX33*%
X188750000Y-81250000D03*
X156500000Y-81000000D03*
%TO.N,HOST_TX33*%
X169000000Y-80250000D03*
X190000000Y-80250000D03*
%TO.N,LED_DOUT33*%
X91500000Y-122250000D03*
X199750000Y-123750000D03*
%TO.N,Net-(R26-Pad1)*%
X182372000Y-74168000D03*
X177800000Y-74168000D03*
%TO.N,Net-(R28-Pad1)*%
X183142946Y-70573839D03*
X178308000Y-70866000D03*
%TO.N,Net-(R33-Pad1)*%
X187452000Y-63246000D03*
X180049010Y-63246000D03*
%TO.N,Net-(SW2-Pad1)*%
X198500000Y-104500000D03*
X202250000Y-104500000D03*
%TD*%
D28*
%TO.N,/Audio/OUTR+*%
X138750000Y-40000000D02*
X151250000Y-40000000D01*
X151250000Y-40000000D02*
X151500000Y-39750000D01*
%TO.N,/Audio/OUT_B-*%
X139750000Y-38750000D02*
X151250000Y-38750000D01*
X151250000Y-38750000D02*
X152500000Y-37500000D01*
%TO.N,/Audio/OUT_A-*%
X137000000Y-38750000D02*
X124500000Y-38750000D01*
X124500000Y-38750000D02*
X123250000Y-37500000D01*
D29*
%TO.N,/Audio/OUTL+*%
X120750000Y-39500000D02*
X128750000Y-39500000D01*
D28*
%TO.N,AUDIO_SDIN*%
X139417983Y-52523056D02*
X139168331Y-52772708D01*
X190168991Y-52523056D02*
X139417983Y-52523056D01*
%TO.N,AUDIO_LRCLK*%
X138685061Y-50546000D02*
X138307000Y-50167939D01*
X191516000Y-50546000D02*
X138685061Y-50546000D01*
%TO.N,Net-(U3-Pad11)*%
X138024875Y-53500000D02*
X137931500Y-53406625D01*
X141000000Y-53500000D02*
X138024875Y-53500000D01*
X141250000Y-53250000D02*
X141000000Y-53500000D01*
%TO.N,AUDIO_SCLK*%
X190001320Y-54111320D02*
X138674388Y-54111320D01*
X138674388Y-54111320D02*
X138657227Y-54128481D01*
D30*
%TO.N,+3V3*%
X138500000Y-58750000D02*
X136750000Y-58750000D01*
X136750000Y-58750000D02*
X135750000Y-58750000D01*
X141500000Y-58750000D02*
X138500000Y-58750000D01*
D28*
%TO.N,/Audio/ADR*%
X132750000Y-48500000D02*
X135000000Y-48500000D01*
%TO.N,Net-(Q3-Pad18)*%
X166644800Y-105105200D02*
X167250000Y-104500000D01*
X153416000Y-105105200D02*
X166644800Y-105105200D01*
%TO.N,CCTALK_DATA*%
X161290000Y-69596000D02*
X167132000Y-69596000D01*
%TO.N,HOST_RX*%
X171500000Y-64500000D02*
X164608000Y-64500000D01*
X164608000Y-64500000D02*
X164338000Y-64770000D01*
%TO.N,SCL*%
X86120000Y-117870000D02*
X87630000Y-119380000D01*
X142230000Y-93980000D02*
X142250000Y-94000000D01*
X86120000Y-115930000D02*
X86120000Y-117870000D01*
X119380000Y-93980000D02*
X87390000Y-93980000D01*
X152813001Y-97949001D02*
X194800999Y-97949001D01*
X87390000Y-93980000D02*
X86120000Y-95250000D01*
X194800999Y-97949001D02*
X202050999Y-97949001D01*
X202050999Y-97949001D02*
X202500000Y-97500000D01*
X87630000Y-119380000D02*
X105410000Y-119380000D01*
X105410000Y-119380000D02*
X106560000Y-118230000D01*
X106560000Y-118230000D02*
X106560000Y-116230400D01*
X119380000Y-93980000D02*
X142230000Y-93980000D01*
X148844000Y-93980000D02*
X152813001Y-97949001D01*
%TO.N,SDA*%
X149352000Y-92710000D02*
X152051001Y-95409001D01*
X152051001Y-95409001D02*
X196090999Y-95409001D01*
X88620000Y-117830000D02*
X88900000Y-118110000D01*
X140970000Y-92710000D02*
X143510000Y-92710000D01*
X102180400Y-118110000D02*
X104060000Y-116230400D01*
X88900000Y-118110000D02*
X102180400Y-118110000D01*
X196090999Y-95409001D02*
X198500000Y-93000000D01*
X88540000Y-92710000D02*
X140970000Y-92710000D01*
X88620000Y-115930000D02*
X88620000Y-117830000D01*
X88540000Y-92710000D02*
X88500000Y-92750000D01*
%TO.N,JTAG_SRST*%
X200279000Y-63881000D02*
X190119000Y-63881000D01*
X190119000Y-63881000D02*
X188214000Y-61976000D01*
X188214000Y-61976000D02*
X179324000Y-61976000D01*
D30*
%TO.N,+3V3*%
X201008097Y-86491903D02*
X200258097Y-86491903D01*
X149500000Y-78000000D02*
X148000000Y-78000000D01*
X201250000Y-86250000D02*
X201750000Y-85750000D01*
X201750000Y-85750000D02*
X201750000Y-62000000D01*
X145250000Y-65500000D02*
X66750000Y-65500000D01*
X170500000Y-88750000D02*
X158500000Y-88750000D01*
X200258097Y-86491903D02*
X198425990Y-86491903D01*
X155500000Y-56500000D02*
X194000000Y-56500000D01*
X135250000Y-58250000D02*
X135250000Y-56250000D01*
X149500000Y-78000000D02*
X158500000Y-78000000D01*
X201250000Y-86250000D02*
X201008097Y-86491903D01*
D31*
X148500000Y-78000000D02*
X149500000Y-78000000D01*
D30*
X135750000Y-58750000D02*
X135250000Y-58250000D01*
X199250000Y-62000000D02*
X201750000Y-62000000D01*
D28*
%TO.N,CPU_RUN*%
X178750000Y-72500000D02*
X180750000Y-72500000D01*
X193750000Y-91750000D02*
X177750000Y-91750000D01*
%TO.N,Net-(J14-Pad2)*%
X181062000Y-116332000D02*
X181062000Y-115022000D01*
X180340000Y-114300000D02*
X137160000Y-114300000D01*
X181062000Y-115022000D02*
X180340000Y-114300000D01*
%TO.N,EN_PWM*%
X78750000Y-90750000D02*
X79239226Y-90260774D01*
X196552191Y-90260774D02*
X196952190Y-89860775D01*
X196952190Y-89860775D02*
X202063997Y-89860775D01*
X202063997Y-89860775D02*
X202463996Y-90260774D01*
X79239226Y-90260774D02*
X196552191Y-90260774D01*
%TO.N,USB_TX*%
X195000000Y-92500000D02*
X178386767Y-92500000D01*
X178386767Y-92500000D02*
X178304707Y-92582060D01*
X195500000Y-92000000D02*
X200000000Y-92000000D01*
X195000000Y-92500000D02*
X195500000Y-92000000D01*
%TO.N,USB_RX*%
X175750000Y-91000000D02*
X199250000Y-91000000D01*
%TO.N,LED_DOUT_SPLITTER*%
X84970000Y-87750000D02*
X83820000Y-88900000D01*
X84970000Y-87750000D02*
X110000000Y-87750000D01*
%TO.N,LED_DIN_SPLITTER*%
X113750000Y-123000000D02*
X191750000Y-123000000D01*
X191882400Y-122867600D02*
X191750000Y-123000000D01*
X191882400Y-116535200D02*
X191882400Y-122867600D01*
X113750000Y-123000000D02*
X112500000Y-121750000D01*
%TO.N,Net-(J22-Pad2)*%
X119430800Y-110845600D02*
X113741200Y-110845600D01*
X115824000Y-99263200D02*
X134924800Y-99263200D01*
X113741200Y-110845600D02*
X113690400Y-110794800D01*
X134924800Y-99263200D02*
X134975600Y-99314000D01*
%TO.N,Net-(J22-Pad3)*%
X121615200Y-111963200D02*
X115824000Y-111963200D01*
X115824000Y-111963200D02*
X115722400Y-111861600D01*
X116027200Y-102819200D02*
X133502400Y-102819200D01*
%TO.N,Net-(J22-Pad4)*%
X115620800Y-101854000D02*
X135229600Y-101854000D01*
X123952000Y-112725200D02*
X114655600Y-112725200D01*
%TO.N,Net-(J22-Pad5)*%
X138988800Y-112725200D02*
X126288800Y-112725200D01*
X126288800Y-112725200D02*
X126238000Y-112674400D01*
%TO.N,Net-(J22-Pad6)*%
X138938000Y-111607600D02*
X128625600Y-111607600D01*
X128625600Y-111607600D02*
X128524000Y-111709200D01*
%TO.N,Net-(J22-Pad7)*%
X131064000Y-110591600D02*
X130810000Y-110845600D01*
X138836400Y-110591600D02*
X131064000Y-110591600D01*
%TO.N,Net-(Q3-Pad17)*%
X153466800Y-106172000D02*
X166078000Y-106172000D01*
X166078000Y-106172000D02*
X166250000Y-106000000D01*
%TO.N,MD_CLK33*%
X132500000Y-86000000D02*
X103000000Y-86000000D01*
X133500000Y-85000000D02*
X132500000Y-86000000D01*
X133500000Y-85000000D02*
X191250000Y-85000000D01*
X103000000Y-86000000D02*
X100500000Y-86000000D01*
%TO.N,MD_OE33*%
X133750000Y-85750000D02*
X187500000Y-85750000D01*
X132750000Y-86750000D02*
X100000000Y-86750000D01*
X133750000Y-85750000D02*
X132750000Y-86750000D01*
X100000000Y-86750000D02*
X96750000Y-86750000D01*
%TO.N,MD_STROBE33*%
X108199511Y-75050489D02*
X158724511Y-75050489D01*
X158724511Y-75050489D02*
X160262500Y-73512500D01*
X160275000Y-73500000D02*
X160262500Y-73512500D01*
X173000000Y-73500000D02*
X160275000Y-73500000D01*
X192250000Y-60250000D02*
X178500000Y-60250000D01*
X105000000Y-78250000D02*
X108199511Y-75050489D01*
%TO.N,MD_DOUT33*%
X159000000Y-75500000D02*
X160250000Y-74250000D01*
X191750000Y-61250000D02*
X177500000Y-61250000D01*
X159000000Y-75500000D02*
X110250000Y-75500000D01*
X160250000Y-74250000D02*
X172000000Y-74250000D01*
X110250000Y-75500000D02*
X107500000Y-78250000D01*
%TO.N,HOST_RX33*%
X156750000Y-81250000D02*
X156500000Y-81000000D01*
X188750000Y-81250000D02*
X156750000Y-81250000D01*
%TO.N,HOST_TX33*%
X190000000Y-80250000D02*
X169000000Y-80250000D01*
%TO.N,LED_DOUT33*%
X93000000Y-123750000D02*
X91500000Y-122250000D01*
X199750000Y-123750000D02*
X93000000Y-123750000D01*
%TO.N,Net-(R26-Pad1)*%
X177800000Y-74168000D02*
X182372000Y-74168000D01*
%TO.N,Net-(R28-Pad1)*%
X182850785Y-70866000D02*
X183142946Y-70573839D01*
X178308000Y-70866000D02*
X182850785Y-70866000D01*
%TO.N,Net-(R33-Pad1)*%
X187452000Y-63246000D02*
X180049010Y-63246000D01*
%TO.N,Net-(SW2-Pad1)*%
X198500000Y-104500000D02*
X202250000Y-104500000D01*
D32*
%TO.N,Net-(F2-Pad1)*%
X58000000Y-88450000D02*
X56000489Y-86450489D01*
X56000489Y-86450489D02*
X56000489Y-56849511D01*
X56000489Y-56849511D02*
X58000000Y-54850000D01*
%TD*%
M02*
