%TF.GenerationSoftware,KiCad,Pcbnew,6.0.5-a6ca702e91~116~ubuntu20.04.1*%
%TF.CreationDate,2022-06-04T17:59:46+02:00*%
%TF.ProjectId,anna_elsa_esp32_cpu,616e6e61-5f65-46c7-9361-5f6573703332,rev?*%
%TF.SameCoordinates,Original*%
%TF.FileFunction,Paste,Top*%
%TF.FilePolarity,Positive*%
%FSLAX46Y46*%
G04 Gerber Fmt 4.6, Leading zero omitted, Abs format (unit mm)*
G04 Created by KiCad (PCBNEW 6.0.5-a6ca702e91~116~ubuntu20.04.1) date 2022-06-04 17:59:46*
%MOMM*%
%LPD*%
G01*
G04 APERTURE LIST*
G04 Aperture macros list*
%AMRoundRect*
0 Rectangle with rounded corners*
0 $1 Rounding radius*
0 $2 $3 $4 $5 $6 $7 $8 $9 X,Y pos of 4 corners*
0 Add a 4 corners polygon primitive as box body*
4,1,4,$2,$3,$4,$5,$6,$7,$8,$9,$2,$3,0*
0 Add four circle primitives for the rounded corners*
1,1,$1+$1,$2,$3*
1,1,$1+$1,$4,$5*
1,1,$1+$1,$6,$7*
1,1,$1+$1,$8,$9*
0 Add four rect primitives between the rounded corners*
20,1,$1+$1,$2,$3,$4,$5,0*
20,1,$1+$1,$4,$5,$6,$7,0*
20,1,$1+$1,$6,$7,$8,$9,0*
20,1,$1+$1,$8,$9,$2,$3,0*%
G04 Aperture macros list end*
%ADD10R,3.600000X2.700000*%
%ADD11RoundRect,0.250000X0.250000X0.475000X-0.250000X0.475000X-0.250000X-0.475000X0.250000X-0.475000X0*%
%ADD12RoundRect,0.250000X-0.250000X-0.475000X0.250000X-0.475000X0.250000X0.475000X-0.250000X0.475000X0*%
%ADD13RoundRect,0.200000X0.275000X-0.200000X0.275000X0.200000X-0.275000X0.200000X-0.275000X-0.200000X0*%
%ADD14RoundRect,0.150000X-0.150000X0.512500X-0.150000X-0.512500X0.150000X-0.512500X0.150000X0.512500X0*%
%ADD15RoundRect,0.150000X0.512500X0.150000X-0.512500X0.150000X-0.512500X-0.150000X0.512500X-0.150000X0*%
%ADD16RoundRect,0.150000X0.150000X-0.512500X0.150000X0.512500X-0.150000X0.512500X-0.150000X-0.512500X0*%
%ADD17RoundRect,0.200000X0.200000X0.275000X-0.200000X0.275000X-0.200000X-0.275000X0.200000X-0.275000X0*%
%ADD18RoundRect,0.243750X0.243750X0.456250X-0.243750X0.456250X-0.243750X-0.456250X0.243750X-0.456250X0*%
%ADD19RoundRect,0.250000X0.450000X-0.262500X0.450000X0.262500X-0.450000X0.262500X-0.450000X-0.262500X0*%
%ADD20R,2.540000X3.510000*%
%ADD21RoundRect,0.250000X-0.400000X-0.400000X0.400000X-0.400000X0.400000X0.400000X-0.400000X0.400000X0*%
%ADD22RoundRect,0.062500X-0.375000X-0.062500X0.375000X-0.062500X0.375000X0.062500X-0.375000X0.062500X0*%
%ADD23RoundRect,0.062500X-0.062500X-0.375000X0.062500X-0.375000X0.062500X0.375000X-0.062500X0.375000X0*%
%ADD24R,1.600000X1.400000*%
%ADD25RoundRect,0.079500X0.079500X0.100500X-0.079500X0.100500X-0.079500X-0.100500X0.079500X-0.100500X0*%
%ADD26RoundRect,0.079500X-0.079500X-0.100500X0.079500X-0.100500X0.079500X0.100500X-0.079500X0.100500X0*%
%ADD27RoundRect,0.079500X0.100500X-0.079500X0.100500X0.079500X-0.100500X0.079500X-0.100500X-0.079500X0*%
%ADD28R,0.900000X2.000000*%
%ADD29R,2.000000X0.900000*%
%ADD30R,5.000000X5.000000*%
%ADD31RoundRect,0.150000X-0.875000X-0.150000X0.875000X-0.150000X0.875000X0.150000X-0.875000X0.150000X0*%
%ADD32RoundRect,0.150000X0.875000X0.150000X-0.875000X0.150000X-0.875000X-0.150000X0.875000X-0.150000X0*%
%ADD33RoundRect,0.250000X-0.262500X-0.450000X0.262500X-0.450000X0.262500X0.450000X-0.262500X0.450000X0*%
%ADD34RoundRect,0.250000X0.262500X0.450000X-0.262500X0.450000X-0.262500X-0.450000X0.262500X-0.450000X0*%
%ADD35RoundRect,0.225000X0.225000X0.250000X-0.225000X0.250000X-0.225000X-0.250000X0.225000X-0.250000X0*%
%ADD36RoundRect,0.250000X-0.450000X0.262500X-0.450000X-0.262500X0.450000X-0.262500X0.450000X0.262500X0*%
%ADD37RoundRect,0.250000X-0.475000X0.250000X-0.475000X-0.250000X0.475000X-0.250000X0.475000X0.250000X0*%
%ADD38RoundRect,0.250000X-0.650000X0.325000X-0.650000X-0.325000X0.650000X-0.325000X0.650000X0.325000X0*%
%ADD39RoundRect,0.200000X-0.200000X-0.275000X0.200000X-0.275000X0.200000X0.275000X-0.200000X0.275000X0*%
%ADD40RoundRect,0.150000X-0.587500X-0.150000X0.587500X-0.150000X0.587500X0.150000X-0.587500X0.150000X0*%
%ADD41RoundRect,0.150000X0.587500X0.150000X-0.587500X0.150000X-0.587500X-0.150000X0.587500X-0.150000X0*%
%ADD42RoundRect,0.250000X-0.712500X-2.475000X0.712500X-2.475000X0.712500X2.475000X-0.712500X2.475000X0*%
%ADD43RoundRect,0.150000X0.150000X-0.587500X0.150000X0.587500X-0.150000X0.587500X-0.150000X-0.587500X0*%
%ADD44RoundRect,0.150000X-0.150000X0.587500X-0.150000X-0.587500X0.150000X-0.587500X0.150000X0.587500X0*%
%ADD45RoundRect,0.243750X-0.243750X-0.456250X0.243750X-0.456250X0.243750X0.456250X-0.243750X0.456250X0*%
%ADD46RoundRect,0.200000X-0.275000X0.200000X-0.275000X-0.200000X0.275000X-0.200000X0.275000X0.200000X0*%
G04 APERTURE END LIST*
D10*
%TO.C,L4*%
X158250000Y-35150000D03*
X158250000Y-26850000D03*
%TD*%
%TO.C,L3*%
X158250000Y-47900000D03*
X158250000Y-39600000D03*
%TD*%
%TO.C,L2*%
X117750000Y-35150000D03*
X117750000Y-26850000D03*
%TD*%
%TO.C,L1*%
X117750000Y-47900000D03*
X117750000Y-39600000D03*
%TD*%
D11*
%TO.C,C18*%
X131450000Y-42500000D03*
X129550000Y-42500000D03*
%TD*%
D12*
%TO.C,C17*%
X145550000Y-42500000D03*
X147450000Y-42500000D03*
%TD*%
%TO.C,C14*%
X145550000Y-44750000D03*
X147450000Y-44750000D03*
%TD*%
D13*
%TO.C,R39*%
X143750000Y-57075000D03*
X143750000Y-55425000D03*
%TD*%
%TO.C,R37*%
X141250000Y-57075000D03*
X141250000Y-55425000D03*
%TD*%
%TO.C,R35*%
X138500000Y-57075000D03*
X138500000Y-55425000D03*
%TD*%
%TO.C,R29*%
X136750000Y-57075000D03*
X136750000Y-55425000D03*
%TD*%
D11*
%TO.C,C11*%
X131500000Y-44750000D03*
X129600000Y-44750000D03*
%TD*%
D14*
%TO.C,U11*%
X97700000Y-97612500D03*
X96750000Y-97612500D03*
X95800000Y-97612500D03*
X95800000Y-99887500D03*
X97700000Y-99887500D03*
%TD*%
%TO.C,U10*%
X105200000Y-97612500D03*
X104250000Y-97612500D03*
X103300000Y-97612500D03*
X103300000Y-99887500D03*
X105200000Y-99887500D03*
%TD*%
D15*
%TO.C,U9*%
X89137500Y-122950000D03*
X89137500Y-122000000D03*
X89137500Y-121050000D03*
X86862500Y-121050000D03*
X86862500Y-122950000D03*
%TD*%
D14*
%TO.C,U7*%
X101450000Y-97612500D03*
X100500000Y-97612500D03*
X99550000Y-97612500D03*
X99550000Y-99887500D03*
X101450000Y-99887500D03*
%TD*%
%TO.C,U6*%
X108950000Y-97612500D03*
X108000000Y-97612500D03*
X107050000Y-97612500D03*
X107050000Y-99887500D03*
X108950000Y-99887500D03*
%TD*%
D16*
%TO.C,U5*%
X167800000Y-78637500D03*
X168750000Y-78637500D03*
X169700000Y-78637500D03*
X169700000Y-76362500D03*
X167800000Y-76362500D03*
%TD*%
D14*
%TO.C,U2*%
X158450000Y-74112500D03*
X157500000Y-74112500D03*
X156550000Y-74112500D03*
X156550000Y-76387500D03*
X158450000Y-76387500D03*
%TD*%
D17*
%TO.C,R1*%
X131825000Y-49750000D03*
X130175000Y-49750000D03*
%TD*%
D18*
%TO.C,D1*%
X211359000Y-44600000D03*
X209484000Y-44600000D03*
%TD*%
%TO.C,D2*%
X211280500Y-38250000D03*
X209405500Y-38250000D03*
%TD*%
D19*
%TO.C,R16*%
X133096000Y-109624500D03*
X133096000Y-107799500D03*
%TD*%
D20*
%TO.C,BT1*%
X80320000Y-68500000D03*
X109680000Y-68500000D03*
%TD*%
D21*
%TO.C,U3*%
X137782000Y-46495000D03*
X137782000Y-44945000D03*
X139332000Y-46495000D03*
X139332000Y-44945000D03*
D22*
X136119500Y-43970000D03*
X136119500Y-44470000D03*
X136119500Y-44970000D03*
X136119500Y-45470000D03*
X136119500Y-45970000D03*
X136119500Y-46470000D03*
X136119500Y-46970000D03*
X136119500Y-47470000D03*
D23*
X136807000Y-48157500D03*
X137307000Y-48157500D03*
X137807000Y-48157500D03*
X138307000Y-48157500D03*
X138807000Y-48157500D03*
X139307000Y-48157500D03*
X139807000Y-48157500D03*
X140307000Y-48157500D03*
D22*
X140994500Y-47470000D03*
X140994500Y-46970000D03*
X140994500Y-46470000D03*
X140994500Y-45970000D03*
X140994500Y-45470000D03*
X140994500Y-44970000D03*
X140994500Y-44470000D03*
X140994500Y-43970000D03*
D23*
X140307000Y-43282500D03*
X139807000Y-43282500D03*
X139307000Y-43282500D03*
X138807000Y-43282500D03*
X138307000Y-43282500D03*
X137807000Y-43282500D03*
X137307000Y-43282500D03*
X136807000Y-43282500D03*
%TD*%
D24*
%TO.C,SW1*%
X204250000Y-50000000D03*
X212250000Y-50000000D03*
X204250000Y-54500000D03*
X212250000Y-54500000D03*
%TD*%
D25*
%TO.C,C2*%
X143095000Y-47500000D03*
X142405000Y-47500000D03*
%TD*%
%TO.C,C3*%
X143095000Y-46500000D03*
X142405000Y-46500000D03*
%TD*%
D26*
%TO.C,C5*%
X134148000Y-46990000D03*
X134838000Y-46990000D03*
%TD*%
D25*
%TO.C,C6*%
X142405000Y-48750000D03*
X143095000Y-48750000D03*
%TD*%
D27*
%TO.C,C7*%
X134747000Y-43851000D03*
X134747000Y-44541000D03*
%TD*%
D25*
%TO.C,C8*%
X138140000Y-42037000D03*
X137450000Y-42037000D03*
%TD*%
D27*
%TO.C,C9*%
X142748000Y-43779000D03*
X142748000Y-43089000D03*
%TD*%
%TO.C,C12*%
X128651000Y-35977000D03*
X128651000Y-36667000D03*
%TD*%
%TO.C,C13*%
X137668000Y-35977000D03*
X137668000Y-36667000D03*
%TD*%
%TO.C,C15*%
X135636000Y-35977000D03*
X135636000Y-36667000D03*
%TD*%
%TO.C,C16*%
X145415000Y-36667000D03*
X145415000Y-35977000D03*
%TD*%
D26*
%TO.C,C10*%
X139664000Y-42037000D03*
X138974000Y-42037000D03*
%TD*%
D28*
%TO.C,U1*%
X202819000Y-66176000D03*
X201549000Y-66176000D03*
X200279000Y-66176000D03*
X199009000Y-66176000D03*
X197739000Y-66176000D03*
X196469000Y-66176000D03*
X195199000Y-66176000D03*
X193929000Y-66176000D03*
X192659000Y-66176000D03*
X191389000Y-66176000D03*
X190119000Y-66176000D03*
X188849000Y-66176000D03*
X187579000Y-66176000D03*
X186309000Y-66176000D03*
D29*
X185309000Y-68961000D03*
X185309000Y-70231000D03*
X185309000Y-71501000D03*
X185309000Y-72771000D03*
X185309000Y-74041000D03*
X185309000Y-75311000D03*
X185309000Y-76581000D03*
X185309000Y-77851000D03*
X185309000Y-79121000D03*
X185309000Y-80391000D03*
D28*
X186309000Y-83176000D03*
X187579000Y-83176000D03*
X188849000Y-83176000D03*
X190119000Y-83176000D03*
X191389000Y-83176000D03*
X192659000Y-83176000D03*
X193929000Y-83176000D03*
X195199000Y-83176000D03*
X196469000Y-83176000D03*
X197739000Y-83176000D03*
X199009000Y-83176000D03*
X200279000Y-83176000D03*
X201549000Y-83176000D03*
X202819000Y-83176000D03*
D30*
X195319000Y-73676000D03*
%TD*%
D19*
%TO.C,R15*%
X185000000Y-109662500D03*
X185000000Y-107837500D03*
%TD*%
%TO.C,R13*%
X128524000Y-109624500D03*
X128524000Y-107799500D03*
%TD*%
%TO.C,R14*%
X130810000Y-109624500D03*
X130810000Y-107799500D03*
%TD*%
%TO.C,R24*%
X162814000Y-109624500D03*
X162814000Y-107799500D03*
%TD*%
%TO.C,R22*%
X157734000Y-109624500D03*
X157734000Y-107799500D03*
%TD*%
D31*
%TO.C,Q3*%
X155116000Y-92202000D03*
X155116000Y-93472000D03*
X155116000Y-94742000D03*
X155116000Y-96012000D03*
X155116000Y-97282000D03*
X155116000Y-98552000D03*
X155116000Y-99822000D03*
X155116000Y-101092000D03*
X155116000Y-102362000D03*
X164416000Y-102362000D03*
X164416000Y-101092000D03*
X164416000Y-99822000D03*
X164416000Y-98552000D03*
X164416000Y-97282000D03*
X164416000Y-96012000D03*
X164416000Y-94742000D03*
X164416000Y-93472000D03*
X164416000Y-92202000D03*
%TD*%
D19*
%TO.C,R21*%
X155321000Y-109624500D03*
X155321000Y-107799500D03*
%TD*%
%TO.C,R9*%
X119380000Y-109624500D03*
X119380000Y-107799500D03*
%TD*%
%TO.C,R20*%
X152781000Y-109624500D03*
X152781000Y-107799500D03*
%TD*%
%TO.C,R11*%
X123952000Y-109624500D03*
X123952000Y-107799500D03*
%TD*%
%TO.C,R19*%
X150241000Y-109624500D03*
X150241000Y-107799500D03*
%TD*%
%TO.C,R12*%
X126238000Y-109624500D03*
X126238000Y-107799500D03*
%TD*%
%TO.C,R23*%
X160274000Y-109624500D03*
X160274000Y-107799500D03*
%TD*%
D32*
%TO.C,U8*%
X146382000Y-108077000D03*
X146382000Y-106807000D03*
X146382000Y-105537000D03*
X146382000Y-104267000D03*
X146382000Y-102997000D03*
X146382000Y-101727000D03*
X146382000Y-100457000D03*
X146382000Y-99187000D03*
X146382000Y-97917000D03*
X146382000Y-96647000D03*
X146382000Y-95377000D03*
X146382000Y-94107000D03*
X146382000Y-92837000D03*
X146382000Y-91567000D03*
X137082000Y-91567000D03*
X137082000Y-92837000D03*
X137082000Y-94107000D03*
X137082000Y-95377000D03*
X137082000Y-96647000D03*
X137082000Y-97917000D03*
X137082000Y-99187000D03*
X137082000Y-100457000D03*
X137082000Y-101727000D03*
X137082000Y-102997000D03*
X137082000Y-104267000D03*
X137082000Y-105537000D03*
X137082000Y-106807000D03*
X137082000Y-108077000D03*
%TD*%
D19*
%TO.C,R10*%
X121666000Y-109624500D03*
X121666000Y-107799500D03*
%TD*%
D32*
%TO.C,U4*%
X129110000Y-86741000D03*
X129110000Y-85471000D03*
X129110000Y-84201000D03*
X129110000Y-82931000D03*
X129110000Y-81661000D03*
X129110000Y-80391000D03*
X129110000Y-79121000D03*
X129110000Y-77851000D03*
X119810000Y-77851000D03*
X119810000Y-79121000D03*
X119810000Y-80391000D03*
X119810000Y-81661000D03*
X119810000Y-82931000D03*
X119810000Y-84201000D03*
X119810000Y-85471000D03*
X119810000Y-86741000D03*
%TD*%
D33*
%TO.C,R30*%
X204175000Y-44600000D03*
X206000000Y-44600000D03*
%TD*%
%TO.C,R31*%
X204175000Y-38250000D03*
X206000000Y-38250000D03*
%TD*%
D34*
%TO.C,R2*%
X125742500Y-90170000D03*
X123917500Y-90170000D03*
%TD*%
%TO.C,R18*%
X125742500Y-92710000D03*
X123917500Y-92710000D03*
%TD*%
%TO.C,R27*%
X125742500Y-95250000D03*
X123917500Y-95250000D03*
%TD*%
D25*
%TO.C,C4*%
X133441000Y-46228000D03*
X132751000Y-46228000D03*
%TD*%
D35*
%TO.C,C1*%
X135141000Y-49784000D03*
X133591000Y-49784000D03*
%TD*%
D36*
%TO.C,R17*%
X79250000Y-85337500D03*
X79250000Y-87162500D03*
%TD*%
D17*
%TO.C,R25*%
X201825000Y-60750000D03*
X200175000Y-60750000D03*
%TD*%
D12*
%TO.C,C21*%
X201550000Y-58750000D03*
X203450000Y-58750000D03*
%TD*%
D37*
%TO.C,C23*%
X194750000Y-58300000D03*
X194750000Y-60200000D03*
%TD*%
D38*
%TO.C,C22*%
X197250000Y-59775000D03*
X197250000Y-62725000D03*
%TD*%
D39*
%TO.C,R36*%
X195425000Y-93500000D03*
X197075000Y-93500000D03*
%TD*%
D40*
%TO.C,Q1*%
X165312500Y-59800000D03*
X165312500Y-61700000D03*
X167187500Y-60750000D03*
%TD*%
D41*
%TO.C,D3*%
X158187500Y-71450000D03*
X158187500Y-69550000D03*
X156312500Y-70500000D03*
%TD*%
D42*
%TO.C,F1*%
X62362500Y-80500000D03*
X69137500Y-80500000D03*
%TD*%
D36*
%TO.C,R7*%
X174250000Y-62337500D03*
X174250000Y-64162500D03*
%TD*%
D43*
%TO.C,Q2*%
X170550000Y-62500000D03*
X172450000Y-62500000D03*
X171500000Y-60625000D03*
%TD*%
D24*
%TO.C,SW2*%
X212250000Y-104500000D03*
X204250000Y-104500000D03*
X212250000Y-109000000D03*
X204250000Y-109000000D03*
%TD*%
D17*
%TO.C,R32*%
X197325000Y-90250000D03*
X195675000Y-90250000D03*
%TD*%
D44*
%TO.C,Q7*%
X203450000Y-92312500D03*
X201550000Y-92312500D03*
X202500000Y-94187500D03*
%TD*%
D45*
%TO.C,F2*%
X62562500Y-54750000D03*
X64437500Y-54750000D03*
%TD*%
%TO.C,F3*%
X62562500Y-68000000D03*
X64437500Y-68000000D03*
%TD*%
D17*
%TO.C,R41*%
X205575000Y-99000000D03*
X203925000Y-99000000D03*
%TD*%
D34*
%TO.C,R5*%
X164162500Y-73750000D03*
X162337500Y-73750000D03*
%TD*%
D13*
%TO.C,R3*%
X165000000Y-71325000D03*
X165000000Y-69675000D03*
%TD*%
D44*
%TO.C,Q4*%
X197450000Y-86312500D03*
X195550000Y-86312500D03*
X196500000Y-88187500D03*
%TD*%
D46*
%TO.C,R33*%
X179250000Y-84425000D03*
X179250000Y-86075000D03*
%TD*%
%TO.C,R26*%
X176500000Y-84425000D03*
X176500000Y-86075000D03*
%TD*%
%TO.C,R34*%
X182000000Y-84425000D03*
X182000000Y-86075000D03*
%TD*%
D19*
%TO.C,R4*%
X163000000Y-61662500D03*
X163000000Y-59837500D03*
%TD*%
D17*
%TO.C,R38*%
X203325000Y-96250000D03*
X201675000Y-96250000D03*
%TD*%
D19*
%TO.C,R8*%
X170750000Y-68075000D03*
X170750000Y-66250000D03*
%TD*%
D46*
%TO.C,R28*%
X173750000Y-84425000D03*
X173750000Y-86075000D03*
%TD*%
D19*
%TO.C,R6*%
X163000000Y-67912500D03*
X163000000Y-66087500D03*
%TD*%
M02*
