%TF.GenerationSoftware,KiCad,Pcbnew,6.0.9-8da3e8f707~117~ubuntu20.04.1*%
%TF.CreationDate,2022-12-14T18:19:00+01:00*%
%TF.ProjectId,anna_elsa_esp32_cpu,616e6e61-5f65-46c7-9361-5f6573703332,rev?*%
%TF.SameCoordinates,Original*%
%TF.FileFunction,Soldermask,Top*%
%TF.FilePolarity,Negative*%
%FSLAX46Y46*%
G04 Gerber Fmt 4.6, Leading zero omitted, Abs format (unit mm)*
G04 Created by KiCad (PCBNEW 6.0.9-8da3e8f707~117~ubuntu20.04.1) date 2022-12-14 18:19:00*
%MOMM*%
%LPD*%
G01*
G04 APERTURE LIST*
G04 Aperture macros list*
%AMRoundRect*
0 Rectangle with rounded corners*
0 $1 Rounding radius*
0 $2 $3 $4 $5 $6 $7 $8 $9 X,Y pos of 4 corners*
0 Add a 4 corners polygon primitive as box body*
4,1,4,$2,$3,$4,$5,$6,$7,$8,$9,$2,$3,0*
0 Add four circle primitives for the rounded corners*
1,1,$1+$1,$2,$3*
1,1,$1+$1,$4,$5*
1,1,$1+$1,$6,$7*
1,1,$1+$1,$8,$9*
0 Add four rect primitives between the rounded corners*
20,1,$1+$1,$2,$3,$4,$5,0*
20,1,$1+$1,$4,$5,$6,$7,0*
20,1,$1+$1,$6,$7,$8,$9,0*
20,1,$1+$1,$8,$9,$2,$3,0*%
%AMFreePoly0*
4,1,22,0.500000,-0.750000,0.000000,-0.750000,0.000000,-0.745033,-0.079941,-0.743568,-0.215256,-0.701293,-0.333266,-0.622738,-0.424486,-0.514219,-0.481581,-0.384460,-0.499164,-0.250000,-0.500000,-0.250000,-0.500000,0.250000,-0.499164,0.250000,-0.499963,0.256109,-0.478152,0.396186,-0.417904,0.524511,-0.324060,0.630769,-0.204165,0.706417,-0.067858,0.745374,0.000000,0.744959,0.000000,0.750000,
0.500000,0.750000,0.500000,-0.750000,0.500000,-0.750000,$1*%
%AMFreePoly1*
4,1,20,0.000000,0.744959,0.073905,0.744508,0.209726,0.703889,0.328688,0.626782,0.421226,0.519385,0.479903,0.390333,0.500000,0.250000,0.500000,-0.250000,0.499851,-0.262216,0.476331,-0.402017,0.414519,-0.529596,0.319384,-0.634700,0.198574,-0.708877,0.061801,-0.746166,0.000000,-0.745033,0.000000,-0.750000,-0.500000,-0.750000,-0.500000,0.750000,0.000000,0.750000,0.000000,0.744959,
0.000000,0.744959,$1*%
G04 Aperture macros list end*
%ADD10R,0.400000X0.650000*%
%ADD11R,0.650000X0.400000*%
%ADD12R,1.700000X1.700000*%
%ADD13O,1.700000X1.700000*%
%ADD14RoundRect,0.243750X0.243750X0.456250X-0.243750X0.456250X-0.243750X-0.456250X0.243750X-0.456250X0*%
%ADD15RoundRect,0.250000X0.450000X-0.262500X0.450000X0.262500X-0.450000X0.262500X-0.450000X-0.262500X0*%
%ADD16R,3.600000X2.600000*%
%ADD17RoundRect,0.250000X-0.600000X-0.725000X0.600000X-0.725000X0.600000X0.725000X-0.600000X0.725000X0*%
%ADD18O,1.700000X1.950000*%
%ADD19R,1.600000X1.400000*%
%ADD20C,0.800000*%
%ADD21C,6.400000*%
%ADD22R,0.900000X2.000000*%
%ADD23R,2.000000X0.900000*%
%ADD24R,5.000000X5.000000*%
%ADD25RoundRect,0.250000X-0.600000X-0.750000X0.600000X-0.750000X0.600000X0.750000X-0.600000X0.750000X0*%
%ADD26O,1.700000X2.000000*%
%ADD27RoundRect,0.150000X-0.875000X-0.150000X0.875000X-0.150000X0.875000X0.150000X-0.875000X0.150000X0*%
%ADD28RoundRect,0.150000X0.875000X0.150000X-0.875000X0.150000X-0.875000X-0.150000X0.875000X-0.150000X0*%
%ADD29RoundRect,0.150000X-0.150000X0.825000X-0.150000X-0.825000X0.150000X-0.825000X0.150000X0.825000X0*%
%ADD30RoundRect,0.250000X-0.262500X-0.450000X0.262500X-0.450000X0.262500X0.450000X-0.262500X0.450000X0*%
%ADD31RoundRect,0.250000X0.262500X0.450000X-0.262500X0.450000X-0.262500X-0.450000X0.262500X-0.450000X0*%
%ADD32RoundRect,0.250000X0.600000X0.600000X-0.600000X0.600000X-0.600000X-0.600000X0.600000X-0.600000X0*%
%ADD33C,1.700000*%
%ADD34FreePoly0,180.000000*%
%ADD35FreePoly1,180.000000*%
%ADD36RoundRect,0.200000X0.200000X0.275000X-0.200000X0.275000X-0.200000X-0.275000X0.200000X-0.275000X0*%
%ADD37RoundRect,0.250000X-0.250000X-0.475000X0.250000X-0.475000X0.250000X0.475000X-0.250000X0.475000X0*%
%ADD38RoundRect,0.250000X-0.475000X0.250000X-0.475000X-0.250000X0.475000X-0.250000X0.475000X0.250000X0*%
%ADD39RoundRect,0.250000X-0.650000X0.325000X-0.650000X-0.325000X0.650000X-0.325000X0.650000X0.325000X0*%
%ADD40RoundRect,0.200000X-0.200000X-0.275000X0.200000X-0.275000X0.200000X0.275000X-0.200000X0.275000X0*%
%ADD41RoundRect,0.225000X-0.250000X0.225000X-0.250000X-0.225000X0.250000X-0.225000X0.250000X0.225000X0*%
%ADD42RoundRect,0.150000X-0.587500X-0.150000X0.587500X-0.150000X0.587500X0.150000X-0.587500X0.150000X0*%
%ADD43RoundRect,0.200000X-0.275000X0.200000X-0.275000X-0.200000X0.275000X-0.200000X0.275000X0.200000X0*%
%ADD44RoundRect,0.150000X0.587500X0.150000X-0.587500X0.150000X-0.587500X-0.150000X0.587500X-0.150000X0*%
%ADD45RoundRect,0.250000X-0.600000X0.600000X-0.600000X-0.600000X0.600000X-0.600000X0.600000X0.600000X0*%
%ADD46RoundRect,0.225000X-0.225000X-0.250000X0.225000X-0.250000X0.225000X0.250000X-0.225000X0.250000X0*%
%ADD47RoundRect,0.225000X0.250000X-0.225000X0.250000X0.225000X-0.250000X0.225000X-0.250000X-0.225000X0*%
%ADD48RoundRect,0.250000X-0.312500X-1.450000X0.312500X-1.450000X0.312500X1.450000X-0.312500X1.450000X0*%
%ADD49RoundRect,0.250000X0.325000X0.650000X-0.325000X0.650000X-0.325000X-0.650000X0.325000X-0.650000X0*%
%ADD50RoundRect,0.250000X-0.325000X-0.650000X0.325000X-0.650000X0.325000X0.650000X-0.325000X0.650000X0*%
%ADD51RoundRect,0.150000X-0.150000X0.587500X-0.150000X-0.587500X0.150000X-0.587500X0.150000X0.587500X0*%
%ADD52RoundRect,0.250000X-1.550000X0.650000X-1.550000X-0.650000X1.550000X-0.650000X1.550000X0.650000X0*%
%ADD53O,3.600000X1.800000*%
%ADD54RoundRect,0.225000X0.225000X0.250000X-0.225000X0.250000X-0.225000X-0.250000X0.225000X-0.250000X0*%
%ADD55R,3.000000X3.000000*%
%ADD56RoundRect,0.200000X0.275000X-0.200000X0.275000X0.200000X-0.275000X0.200000X-0.275000X-0.200000X0*%
%ADD57RoundRect,0.250001X1.999999X0.799999X-1.999999X0.799999X-1.999999X-0.799999X1.999999X-0.799999X0*%
%ADD58RoundRect,0.250001X-1.999999X-0.799999X1.999999X-0.799999X1.999999X0.799999X-1.999999X0.799999X0*%
%ADD59RoundRect,0.250000X0.550000X-1.050000X0.550000X1.050000X-0.550000X1.050000X-0.550000X-1.050000X0*%
%ADD60RoundRect,0.250000X-0.700000X0.275000X-0.700000X-0.275000X0.700000X-0.275000X0.700000X0.275000X0*%
%ADD61RoundRect,0.075000X-0.662500X-0.075000X0.662500X-0.075000X0.662500X0.075000X-0.662500X0.075000X0*%
%ADD62RoundRect,0.075000X-0.075000X-0.662500X0.075000X-0.662500X0.075000X0.662500X-0.075000X0.662500X0*%
G04 APERTURE END LIST*
D10*
%TO.C,U11*%
X97400000Y-97550000D03*
X96750000Y-97550000D03*
X96100000Y-97550000D03*
X96100000Y-99450000D03*
X97400000Y-99450000D03*
%TD*%
%TO.C,U10*%
X104900000Y-97550000D03*
X104250000Y-97550000D03*
X103600000Y-97550000D03*
X103600000Y-99450000D03*
X104900000Y-99450000D03*
%TD*%
D11*
%TO.C,U9*%
X88950000Y-122650000D03*
X88950000Y-122000000D03*
X88950000Y-121350000D03*
X87050000Y-121350000D03*
X87050000Y-122650000D03*
%TD*%
D10*
%TO.C,U7*%
X101150000Y-97550000D03*
X100500000Y-97550000D03*
X99850000Y-97550000D03*
X99850000Y-99450000D03*
X101150000Y-99450000D03*
%TD*%
%TO.C,U6*%
X108650000Y-97550000D03*
X108000000Y-97550000D03*
X107350000Y-97550000D03*
X107350000Y-99450000D03*
X108650000Y-99450000D03*
%TD*%
%TO.C,U5*%
X155350000Y-45700000D03*
X156000000Y-45700000D03*
X156650000Y-45700000D03*
X156650000Y-43800000D03*
X155350000Y-43800000D03*
%TD*%
%TO.C,U2*%
X160100000Y-45700000D03*
X160750000Y-45700000D03*
X161400000Y-45700000D03*
X161400000Y-43800000D03*
X160100000Y-43800000D03*
%TD*%
D12*
%TO.C,J15*%
X152250000Y-61500000D03*
D13*
X154790000Y-61500000D03*
X157330000Y-61500000D03*
X159870000Y-61500000D03*
%TD*%
D14*
%TO.C,D2*%
X211280500Y-38250000D03*
X209405500Y-38250000D03*
%TD*%
D15*
%TO.C,R16*%
X184750000Y-109662500D03*
X184750000Y-107837500D03*
%TD*%
D16*
%TO.C,BT1*%
X81500000Y-64650000D03*
X81500000Y-35350000D03*
%TD*%
D17*
%TO.C,J5*%
X189382400Y-116535200D03*
D18*
X191882400Y-116535200D03*
X194382400Y-116535200D03*
%TD*%
D17*
%TO.C,J22*%
X116332000Y-116332000D03*
D18*
X118832000Y-116332000D03*
X121332000Y-116332000D03*
X123832000Y-116332000D03*
X126332000Y-116332000D03*
X128832000Y-116332000D03*
X131332000Y-116332000D03*
%TD*%
D19*
%TO.C,SW1*%
X204250000Y-50000000D03*
X212250000Y-50000000D03*
X204250000Y-54500000D03*
X212250000Y-54500000D03*
%TD*%
D20*
%TO.C,H2*%
X54022944Y-115302944D03*
X57417056Y-115302944D03*
D21*
X55720000Y-117000000D03*
D20*
X58120000Y-117000000D03*
X55720000Y-119400000D03*
X53320000Y-117000000D03*
X55720000Y-114600000D03*
X54022944Y-118697056D03*
X57417056Y-118697056D03*
%TD*%
%TO.C,H3*%
X205900000Y-32720000D03*
X204202944Y-32017056D03*
D21*
X205900000Y-30320000D03*
D20*
X207597056Y-32017056D03*
X208300000Y-30320000D03*
X203500000Y-30320000D03*
X207597056Y-28622944D03*
X204202944Y-28622944D03*
X205900000Y-27920000D03*
%TD*%
D22*
%TO.C,U1*%
X202819000Y-66176000D03*
X201549000Y-66176000D03*
X200279000Y-66176000D03*
X199009000Y-66176000D03*
X197739000Y-66176000D03*
X196469000Y-66176000D03*
X195199000Y-66176000D03*
X193929000Y-66176000D03*
X192659000Y-66176000D03*
X191389000Y-66176000D03*
X190119000Y-66176000D03*
X188849000Y-66176000D03*
X187579000Y-66176000D03*
X186309000Y-66176000D03*
D23*
X185309000Y-68961000D03*
X185309000Y-70231000D03*
X185309000Y-71501000D03*
X185309000Y-72771000D03*
X185309000Y-74041000D03*
X185309000Y-75311000D03*
X185309000Y-76581000D03*
X185309000Y-77851000D03*
X185309000Y-79121000D03*
X185309000Y-80391000D03*
D22*
X186309000Y-83176000D03*
X187579000Y-83176000D03*
X188849000Y-83176000D03*
X190119000Y-83176000D03*
X191389000Y-83176000D03*
X192659000Y-83176000D03*
X193929000Y-83176000D03*
X195199000Y-83176000D03*
X196469000Y-83176000D03*
X197739000Y-83176000D03*
X199009000Y-83176000D03*
X200279000Y-83176000D03*
X201549000Y-83176000D03*
X202819000Y-83176000D03*
D24*
X195319000Y-73676000D03*
%TD*%
D15*
%TO.C,R15*%
X187250000Y-109662500D03*
X187250000Y-107837500D03*
%TD*%
D17*
%TO.C,J10*%
X99060000Y-116230400D03*
D18*
X101560000Y-116230400D03*
X104060000Y-116230400D03*
X106560000Y-116230400D03*
%TD*%
D20*
%TO.C,H1*%
X57417056Y-28622944D03*
X53320000Y-30320000D03*
D21*
X55720000Y-30320000D03*
D20*
X57417056Y-32017056D03*
X54022944Y-32017056D03*
X55720000Y-27920000D03*
X55720000Y-32720000D03*
X54022944Y-28622944D03*
X58120000Y-30320000D03*
%TD*%
%TO.C,H4*%
X208300000Y-117000000D03*
X207597056Y-118697056D03*
X203500000Y-117000000D03*
D21*
X205900000Y-117000000D03*
D20*
X205900000Y-114600000D03*
X205900000Y-119400000D03*
X204202944Y-118697056D03*
X207597056Y-115302944D03*
X204202944Y-115302944D03*
%TD*%
D25*
%TO.C,J14*%
X178562000Y-116332000D03*
D26*
X181062000Y-116332000D03*
%TD*%
D17*
%TO.C,J23*%
X145288000Y-116332000D03*
D18*
X147788000Y-116332000D03*
X150288000Y-116332000D03*
X152788000Y-116332000D03*
X155288000Y-116332000D03*
X157788000Y-116332000D03*
X160288000Y-116332000D03*
X162788000Y-116332000D03*
%TD*%
D15*
%TO.C,R13*%
X128524000Y-109624500D03*
X128524000Y-107799500D03*
%TD*%
%TO.C,R14*%
X130810000Y-109624500D03*
X130810000Y-107799500D03*
%TD*%
%TO.C,R24*%
X162993000Y-112250000D03*
X162993000Y-110425000D03*
%TD*%
%TO.C,R22*%
X157913000Y-112250000D03*
X157913000Y-110425000D03*
%TD*%
D27*
%TO.C,Q3*%
X153350000Y-91920000D03*
X153350000Y-93190000D03*
X153350000Y-94460000D03*
X153350000Y-95730000D03*
X153350000Y-97000000D03*
X153350000Y-98270000D03*
X153350000Y-99540000D03*
X153350000Y-100810000D03*
X153350000Y-102080000D03*
X162650000Y-102080000D03*
X162650000Y-100810000D03*
X162650000Y-99540000D03*
X162650000Y-98270000D03*
X162650000Y-97000000D03*
X162650000Y-95730000D03*
X162650000Y-94460000D03*
X162650000Y-93190000D03*
X162650000Y-91920000D03*
%TD*%
D15*
%TO.C,R21*%
X155500000Y-112250000D03*
X155500000Y-110425000D03*
%TD*%
%TO.C,R9*%
X119380000Y-109624500D03*
X119380000Y-107799500D03*
%TD*%
%TO.C,R20*%
X152960000Y-112250000D03*
X152960000Y-110425000D03*
%TD*%
%TO.C,R11*%
X123952000Y-109624500D03*
X123952000Y-107799500D03*
%TD*%
%TO.C,R19*%
X150420000Y-112250000D03*
X150420000Y-110425000D03*
%TD*%
%TO.C,R12*%
X126238000Y-109624500D03*
X126238000Y-107799500D03*
%TD*%
%TO.C,R23*%
X160453000Y-112250000D03*
X160453000Y-110425000D03*
%TD*%
D28*
%TO.C,U8*%
X146400000Y-100755000D03*
X146400000Y-99485000D03*
X146400000Y-98215000D03*
X146400000Y-96945000D03*
X146400000Y-95675000D03*
X146400000Y-94405000D03*
X146400000Y-93135000D03*
X146400000Y-91865000D03*
X146400000Y-90595000D03*
X146400000Y-89325000D03*
X146400000Y-88055000D03*
X146400000Y-86785000D03*
X146400000Y-85515000D03*
X146400000Y-84245000D03*
X137100000Y-84245000D03*
X137100000Y-85515000D03*
X137100000Y-86785000D03*
X137100000Y-88055000D03*
X137100000Y-89325000D03*
X137100000Y-90595000D03*
X137100000Y-91865000D03*
X137100000Y-93135000D03*
X137100000Y-94405000D03*
X137100000Y-95675000D03*
X137100000Y-96945000D03*
X137100000Y-98215000D03*
X137100000Y-99485000D03*
X137100000Y-100755000D03*
%TD*%
D15*
%TO.C,R10*%
X121666000Y-109624500D03*
X121666000Y-107799500D03*
%TD*%
D29*
%TO.C,U4*%
X123905000Y-78275000D03*
X122635000Y-78275000D03*
X121365000Y-78275000D03*
X120095000Y-78275000D03*
X120095000Y-83225000D03*
X121365000Y-83225000D03*
X122635000Y-83225000D03*
X123905000Y-83225000D03*
%TD*%
D30*
%TO.C,R31*%
X204175000Y-38250000D03*
X206000000Y-38250000D03*
%TD*%
D17*
%TO.C,J1*%
X71120000Y-95250000D03*
D18*
X73620000Y-95250000D03*
X76120000Y-95250000D03*
X78620000Y-95250000D03*
X81120000Y-95250000D03*
X83620000Y-95250000D03*
X86120000Y-95250000D03*
X88620000Y-95250000D03*
%TD*%
D17*
%TO.C,J2*%
X71120000Y-105410000D03*
D18*
X73620000Y-105410000D03*
X76120000Y-105410000D03*
X78620000Y-105410000D03*
X81120000Y-105410000D03*
X83620000Y-105410000D03*
X86120000Y-105410000D03*
X88620000Y-105410000D03*
%TD*%
D17*
%TO.C,J3*%
X71120000Y-115930000D03*
D18*
X73620000Y-115930000D03*
X76120000Y-115930000D03*
X78620000Y-115930000D03*
X81120000Y-115930000D03*
X83620000Y-115930000D03*
X86120000Y-115930000D03*
X88620000Y-115930000D03*
%TD*%
D31*
%TO.C,R2*%
X138662500Y-80920000D03*
X136837500Y-80920000D03*
%TD*%
%TO.C,R18*%
X138662500Y-78750000D03*
X136837500Y-78750000D03*
%TD*%
%TO.C,R27*%
X138662500Y-76500000D03*
X136837500Y-76500000D03*
%TD*%
D32*
%TO.C,J12*%
X178054000Y-104394000D03*
D33*
X175514000Y-104394000D03*
X178054000Y-101854000D03*
X175514000Y-101854000D03*
X178054000Y-99314000D03*
X175514000Y-99314000D03*
X178054000Y-96774000D03*
X175514000Y-96774000D03*
X178054000Y-94234000D03*
X175514000Y-94234000D03*
%TD*%
D34*
%TO.C,JP1*%
X143400000Y-75500000D03*
D35*
X142100000Y-75500000D03*
%TD*%
D34*
%TO.C,JP2*%
X143400000Y-78250000D03*
D35*
X142100000Y-78250000D03*
%TD*%
D34*
%TO.C,JP3*%
X143400000Y-81000000D03*
D35*
X142100000Y-81000000D03*
%TD*%
D36*
%TO.C,R25*%
X201825000Y-60750000D03*
X200175000Y-60750000D03*
%TD*%
D37*
%TO.C,C21*%
X201550000Y-58750000D03*
X203450000Y-58750000D03*
%TD*%
D17*
%TO.C,J4*%
X95000000Y-105500000D03*
D18*
X97500000Y-105500000D03*
X100000000Y-105500000D03*
X102500000Y-105500000D03*
X105000000Y-105500000D03*
X107500000Y-105500000D03*
X110000000Y-105500000D03*
X112500000Y-105500000D03*
%TD*%
D38*
%TO.C,C23*%
X194750000Y-58300000D03*
X194750000Y-60200000D03*
%TD*%
D39*
%TO.C,C22*%
X197250000Y-59775000D03*
X197250000Y-62725000D03*
%TD*%
D40*
%TO.C,R36*%
X91675000Y-88250000D03*
X93325000Y-88250000D03*
%TD*%
D41*
%TO.C,C7*%
X123375000Y-66600000D03*
X123375000Y-68150000D03*
%TD*%
D42*
%TO.C,Q1*%
X157312500Y-36250000D03*
X157312500Y-38150000D03*
X159187500Y-37200000D03*
%TD*%
D43*
%TO.C,R35*%
X123750000Y-70925000D03*
X123750000Y-72575000D03*
%TD*%
D44*
%TO.C,D3*%
X165625000Y-38150000D03*
X165625000Y-36250000D03*
X163750000Y-37200000D03*
%TD*%
D45*
%TO.C,J7*%
X186790000Y-42497500D03*
D33*
X186790000Y-45037500D03*
X184250000Y-42497500D03*
X184250000Y-45037500D03*
X181710000Y-42497500D03*
X181710000Y-45037500D03*
X179170000Y-42497500D03*
X179170000Y-45037500D03*
X176630000Y-42497500D03*
X176630000Y-45037500D03*
%TD*%
D46*
%TO.C,C14*%
X117200000Y-46750000D03*
X118750000Y-46750000D03*
%TD*%
D47*
%TO.C,C26*%
X114875000Y-62150000D03*
X114875000Y-60600000D03*
%TD*%
D48*
%TO.C,F1*%
X61612500Y-82000000D03*
X65887500Y-82000000D03*
%TD*%
D49*
%TO.C,C16*%
X123725000Y-29750000D03*
X120775000Y-29750000D03*
%TD*%
D15*
%TO.C,R7*%
X157437500Y-41712500D03*
X157437500Y-39887500D03*
%TD*%
D42*
%TO.C,Q2*%
X159562500Y-39850000D03*
X159562500Y-41750000D03*
X161437500Y-40800000D03*
%TD*%
D19*
%TO.C,SW2*%
X212250000Y-104500000D03*
X204250000Y-104500000D03*
X212250000Y-109000000D03*
X204250000Y-109000000D03*
%TD*%
D36*
%TO.C,R32*%
X93325000Y-82500000D03*
X91675000Y-82500000D03*
%TD*%
D50*
%TO.C,C11*%
X106775000Y-29750000D03*
X109725000Y-29750000D03*
%TD*%
D51*
%TO.C,Q7*%
X87700000Y-84312500D03*
X85800000Y-84312500D03*
X86750000Y-86187500D03*
%TD*%
D52*
%TO.C,J6*%
X55107500Y-61017500D03*
D53*
X55107500Y-64517500D03*
X55107500Y-68017500D03*
X55107500Y-71517500D03*
X55107500Y-75017500D03*
X55107500Y-78517500D03*
%TD*%
D40*
%TO.C,R37*%
X121425000Y-46750000D03*
X123075000Y-46750000D03*
%TD*%
D48*
%TO.C,F2*%
X61612500Y-76500000D03*
X65887500Y-76500000D03*
%TD*%
%TO.C,F3*%
X61612500Y-65250000D03*
X65887500Y-65250000D03*
%TD*%
%TO.C,F4*%
X61612500Y-70750000D03*
X65887500Y-70750000D03*
%TD*%
D36*
%TO.C,R41*%
X87575000Y-88250000D03*
X85925000Y-88250000D03*
%TD*%
D54*
%TO.C,C18*%
X131650000Y-50625000D03*
X130100000Y-50625000D03*
%TD*%
D55*
%TO.C,L4*%
X143750000Y-43000000D03*
X143750000Y-33000000D03*
%TD*%
D30*
%TO.C,R5*%
X158587500Y-48800000D03*
X160412500Y-48800000D03*
%TD*%
D56*
%TO.C,R45*%
X128250000Y-69825000D03*
X128250000Y-68175000D03*
%TD*%
D57*
%TO.C,C29*%
X109475000Y-53625000D03*
X102275000Y-53625000D03*
%TD*%
D47*
%TO.C,C4*%
X127375000Y-58650000D03*
X127375000Y-57100000D03*
%TD*%
D50*
%TO.C,C17*%
X127525000Y-29750000D03*
X130475000Y-29750000D03*
%TD*%
D25*
%TO.C,J9*%
X114000000Y-26000000D03*
D26*
X116500000Y-26000000D03*
%TD*%
D58*
%TO.C,C30*%
X135025000Y-53625000D03*
X142225000Y-53625000D03*
%TD*%
D47*
%TO.C,C27*%
X114875000Y-65400000D03*
X114875000Y-63850000D03*
%TD*%
D59*
%TO.C,C6*%
X106000000Y-64175000D03*
X106000000Y-60575000D03*
%TD*%
D43*
%TO.C,R42*%
X130125000Y-52625000D03*
X130125000Y-54275000D03*
%TD*%
D41*
%TO.C,C24*%
X111250000Y-57725000D03*
X111250000Y-59275000D03*
%TD*%
D25*
%TO.C,J13*%
X169250000Y-116250000D03*
D26*
X171750000Y-116250000D03*
%TD*%
D30*
%TO.C,R40*%
X204177500Y-43250000D03*
X206002500Y-43250000D03*
%TD*%
D56*
%TO.C,R3*%
X167500000Y-37825000D03*
X167500000Y-36175000D03*
%TD*%
D60*
%TO.C,FB1*%
X116125000Y-50300000D03*
X116125000Y-53450000D03*
%TD*%
D51*
%TO.C,Q4*%
X93450000Y-84500000D03*
X91550000Y-84500000D03*
X92500000Y-86375000D03*
%TD*%
D41*
%TO.C,C5*%
X121000000Y-66600000D03*
X121000000Y-68150000D03*
%TD*%
D43*
%TO.C,R33*%
X179250000Y-84425000D03*
X179250000Y-86075000D03*
%TD*%
D30*
%TO.C,R1*%
X74837500Y-90750000D03*
X76662500Y-90750000D03*
%TD*%
D61*
%TO.C,U3*%
X117025000Y-56687500D03*
X117025000Y-57187500D03*
X117025000Y-57687500D03*
X117025000Y-58187500D03*
X117025000Y-58687500D03*
X117025000Y-59187500D03*
X117025000Y-59687500D03*
X117025000Y-60187500D03*
X117025000Y-60687500D03*
X117025000Y-61187500D03*
X117025000Y-61687500D03*
X117025000Y-62187500D03*
D62*
X118437500Y-63600000D03*
X118937500Y-63600000D03*
X119437500Y-63600000D03*
X119937500Y-63600000D03*
X120437500Y-63600000D03*
X120937500Y-63600000D03*
X121437500Y-63600000D03*
X121937500Y-63600000D03*
X122437500Y-63600000D03*
X122937500Y-63600000D03*
X123437500Y-63600000D03*
X123937500Y-63600000D03*
D61*
X125350000Y-62187500D03*
X125350000Y-61687500D03*
X125350000Y-61187500D03*
X125350000Y-60687500D03*
X125350000Y-60187500D03*
X125350000Y-59687500D03*
X125350000Y-59187500D03*
X125350000Y-58687500D03*
X125350000Y-58187500D03*
X125350000Y-57687500D03*
X125350000Y-57187500D03*
X125350000Y-56687500D03*
D62*
X123937500Y-55275000D03*
X123437500Y-55275000D03*
X122937500Y-55275000D03*
X122437500Y-55275000D03*
X121937500Y-55275000D03*
X121437500Y-55275000D03*
X120937500Y-55275000D03*
X120437500Y-55275000D03*
X119937500Y-55275000D03*
X119437500Y-55275000D03*
X118937500Y-55275000D03*
X118437500Y-55275000D03*
D24*
X121187500Y-59437500D03*
%TD*%
D43*
%TO.C,R26*%
X176500000Y-84425000D03*
X176500000Y-86075000D03*
%TD*%
%TO.C,R34*%
X182000000Y-84425000D03*
X182000000Y-86075000D03*
%TD*%
D41*
%TO.C,C10*%
X114875000Y-56975000D03*
X114875000Y-58525000D03*
%TD*%
D25*
%TO.C,J11*%
X134500000Y-25975000D03*
D26*
X137000000Y-25975000D03*
%TD*%
D47*
%TO.C,C28*%
X111125000Y-63675000D03*
X111125000Y-62125000D03*
%TD*%
D46*
%TO.C,C3*%
X130350000Y-57875000D03*
X131900000Y-57875000D03*
%TD*%
D36*
%TO.C,R39*%
X128400000Y-46750000D03*
X126750000Y-46750000D03*
%TD*%
D15*
%TO.C,R4*%
X155187500Y-38112500D03*
X155187500Y-36287500D03*
%TD*%
D36*
%TO.C,R29*%
X118575000Y-68750000D03*
X116925000Y-68750000D03*
%TD*%
%TO.C,R38*%
X87575000Y-82250000D03*
X85925000Y-82250000D03*
%TD*%
D47*
%TO.C,C8*%
X109500000Y-62775000D03*
X109500000Y-61225000D03*
%TD*%
D56*
%TO.C,R30*%
X122000000Y-72575000D03*
X122000000Y-70925000D03*
%TD*%
D14*
%TO.C,D4*%
X211437500Y-43205000D03*
X209562500Y-43205000D03*
%TD*%
D54*
%TO.C,C15*%
X131775000Y-46750000D03*
X130225000Y-46750000D03*
%TD*%
D56*
%TO.C,R43*%
X116625000Y-65450000D03*
X116625000Y-63800000D03*
%TD*%
D54*
%TO.C,C1*%
X116400000Y-55375000D03*
X114850000Y-55375000D03*
%TD*%
D55*
%TO.C,L1*%
X108250000Y-43000000D03*
X108250000Y-33000000D03*
%TD*%
D54*
%TO.C,C25*%
X116400000Y-67125000D03*
X114850000Y-67125000D03*
%TD*%
D45*
%TO.C,J8*%
X186580000Y-25997500D03*
D33*
X186580000Y-28537500D03*
X184040000Y-25997500D03*
X184040000Y-28537500D03*
X181500000Y-25997500D03*
X181500000Y-28537500D03*
X178960000Y-25997500D03*
X178960000Y-28537500D03*
X176420000Y-25997500D03*
X176420000Y-28537500D03*
%TD*%
D55*
%TO.C,L2*%
X120250000Y-43000000D03*
X120250000Y-33000000D03*
%TD*%
D46*
%TO.C,C2*%
X130350000Y-59625000D03*
X131900000Y-59625000D03*
%TD*%
D55*
%TO.C,L3*%
X131750000Y-43000000D03*
X131750000Y-33000000D03*
%TD*%
D15*
%TO.C,R8*%
X155250000Y-41662500D03*
X155250000Y-39837500D03*
%TD*%
D46*
%TO.C,C12*%
X121475000Y-49000000D03*
X123025000Y-49000000D03*
%TD*%
D54*
%TO.C,C19*%
X127400000Y-55375000D03*
X125850000Y-55375000D03*
%TD*%
D60*
%TO.C,FB2*%
X126125000Y-50300000D03*
X126125000Y-53450000D03*
%TD*%
D56*
%TO.C,R44*%
X112875000Y-63700000D03*
X112875000Y-62050000D03*
%TD*%
D49*
%TO.C,C20*%
X143975000Y-29750000D03*
X141025000Y-29750000D03*
%TD*%
D43*
%TO.C,R17*%
X204250000Y-99675000D03*
X204250000Y-101325000D03*
%TD*%
%TO.C,R28*%
X173750000Y-84425000D03*
X173750000Y-86075000D03*
%TD*%
D41*
%TO.C,C9*%
X128500000Y-61475000D03*
X128500000Y-63025000D03*
%TD*%
D15*
%TO.C,R6*%
X161500000Y-38112500D03*
X161500000Y-36287500D03*
%TD*%
D46*
%TO.C,C13*%
X120350000Y-52125000D03*
X121900000Y-52125000D03*
%TD*%
M02*
