M48
; DRILL file {KiCad 6.0.9-8da3e8f707~117~ubuntu20.04.1} date Mi 14 Dez 2022 18:19:02 CET
; FORMAT={-:-/ absolute / inch / decimal}
; #@! TF.CreationDate,2022-12-14T18:19:02+01:00
; #@! TF.GenerationSoftware,Kicad,Pcbnew,6.0.9-8da3e8f707~117~ubuntu20.04.1
; #@! TF.FileFunction,Plated,1,4,PTH
FMAT,2
INCH
; #@! TA.AperFunction,Plated,PTH,ComponentDrill
T1C0.0079
; #@! TA.AperFunction,Plated,PTH,ViaDrill
T2C0.0118
; #@! TA.AperFunction,Plated,PTH,ViaDrill
T3C0.0157
; #@! TA.AperFunction,Plated,PTH,ViaDrill
T4C0.0197
; #@! TA.AperFunction,Plated,PTH,ComponentDrill
T5C0.0197
; #@! TA.AperFunction,Plated,PTH,ComponentDrill
T6C0.0374
; #@! TA.AperFunction,Plated,PTH,ViaDrill
T7C0.0394
; #@! TA.AperFunction,Plated,PTH,ComponentDrill
T8C0.0394
; #@! TA.AperFunction,Plated,PTH,ComponentDrill
T9C0.0472
; #@! TA.AperFunction,Plated,PTH,ComponentDrill
T10C0.1260
%
G90
G05
T1
X4.6826Y-2.2515
X4.6826Y-2.2958
X4.6826Y-2.3401
X4.6826Y-2.3844
X4.6826Y-2.4286
X4.7269Y-2.2515
X4.7269Y-2.2958
X4.7269Y-2.3401
X4.7269Y-2.3844
X4.7269Y-2.4286
X4.7712Y-2.2515
X4.7712Y-2.2958
X4.7712Y-2.3401
X4.7712Y-2.3844
X4.7712Y-2.4286
X4.8155Y-2.2515
X4.8155Y-2.2958
X4.8155Y-2.3401
X4.8155Y-2.3844
X4.8155Y-2.4286
X4.8597Y-2.2515
X4.8597Y-2.2958
X4.8597Y-2.3401
X4.8597Y-2.3844
X4.8597Y-2.4286
T2
X2.8642Y-3.5433
X3.2087Y-1.2697
X3.622Y-4.7343
X3.7402Y-3.7697
X3.8533Y-2.1112
X3.8878Y-3.7697
X3.9075Y-2.3819
X4.0256Y-3.7697
X4.1339Y-1.1713
X4.1929Y-3.7697
X4.3799Y-2.2244
X4.503Y-2.1319
X4.5472Y-2.7067
X4.5522Y-2.3509
X4.5669Y-1.8406
X4.6604Y-2.1211
X4.7244Y-3.3465
X4.7407Y-2.5664
X4.7835Y-2.7264
X4.8031Y-2.9035
X4.8573Y-2.7313
X4.8671Y-2.1211
X4.872Y-2.9035
X4.8819Y-1.2795
X5.0Y-2.4409
X5.0049Y-2.377
X5.0197Y-1.2598
X5.0344Y-2.1319
X5.0492Y-2.8051
X5.0591Y-2.5295
X5.2313Y-1.9537
X5.2411Y-2.2785
X5.2411Y-2.3474
X5.2461Y-1.8406
X5.3346Y-3.2283
X5.7579Y-1.1713
X5.7726Y-2.1112
X5.8858Y-3.4744
X5.935Y-4.0256
X6.0335Y-1.5236
X6.1909Y-1.8799
X6.3583Y-1.8602
X7.231Y-2.715
X7.638Y-2.838
X7.638Y-2.97
X7.6772Y-2.4606
X7.694Y-2.894
X7.744Y-2.834
X7.748Y-2.966
X7.8445Y-2.4409
X7.9331Y-1.9685
X7.9429Y-2.4409
X7.982Y-2.542
X7.984Y-3.346
X8.0512Y-2.313
X8.3743Y-1.4959
X8.376Y-1.6831
T3
X3.1004Y-3.5728
X3.2087Y-2.6673
X3.3366Y-3.5138
X3.6024Y-4.813
X3.7402Y-3.4744
X3.8091Y-3.4154
X3.9567Y-3.3858
X4.1339Y-3.0807
X4.1732Y-2.6181
X4.2323Y-3.0807
X4.3012Y-3.6713
X4.311Y-2.5197
X4.4291Y-4.7933
X4.4587Y-2.0571
X4.4587Y-2.2146
X4.5571Y-2.7854
X4.658Y-2.5738
X4.7736Y-3.4941
X4.8056Y-2.5689
X4.8127Y-2.6319
X4.8228Y-3.5236
X4.8327Y-3.0118
X4.8418Y-2.5852
X4.9114Y-2.6181
X4.9164Y-2.7888
X4.9311Y-2.9331
X4.9705Y-3.4941
X5.0Y-3.5236
X5.0492Y-2.6476
X5.1083Y-2.4213
X5.1181Y-2.6083
X5.1181Y-2.9232
X5.1821Y-2.0719
X5.1821Y-2.1506
X5.2264Y-2.4803
X5.2264Y-2.5787
X5.3937Y-4.6358
X5.4Y-4.5
X5.6791Y-3.5236
X5.8366Y-3.4154
X5.8858Y-3.4252
X6.063Y-2.7854
X6.063Y-3.2382
X6.1417Y-3.1398
X6.2106Y-2.6476
X6.2106Y-3.1102
X6.25Y-3.3957
X6.2658Y-3.4291
X6.3976Y-1.8799
X6.4173Y-1.6043
X6.437Y-3.1988
X6.4567Y-1.6831
X6.6831Y-1.4272
X6.7717Y-2.9232
X6.811Y-2.8937
X6.9193Y-3.5827
X6.9882Y-2.4114
X6.998Y-3.6122
X7.0Y-2.92
X7.0199Y-3.645
X7.02Y-2.79
X7.0276Y-2.372
X7.0374Y-2.8543
X7.06Y-2.44
X7.06Y-2.6054
X7.0873Y-2.4853
X7.1161Y-2.8543
X7.18Y-2.92
X7.2047Y-3.2382
X7.2104Y-2.7785
X7.38Y-2.4853
X7.3806Y-3.3711
X7.388Y-1.4332
X7.3917Y-3.1201
X7.4311Y-3.1988
X7.4409Y-2.3327
X7.4508Y-4.2421
X7.4803Y-2.5394
X7.4803Y-3.1594
X7.5295Y-2.5098
X7.5295Y-3.3465
X7.5492Y-2.4114
X7.5689Y-2.372
X7.628Y-3.6122
X7.6772Y-2.5098
X7.7165Y-3.4252
X7.815Y-4.1142
X7.8445Y-3.5827
X7.8642Y-4.872
X7.8721Y-3.622
X7.9134Y-3.3957
X7.9528Y-4.2618
X7.9626Y-4.1142
X7.971Y-3.5536
X8.0413Y-3.8484
T4
X2.7219Y-1.9247
X3.4875Y-3.4951
X3.4941Y-2.7756
X3.5465Y-3.4951
X3.7008Y-2.7756
X3.8583Y-3.9862
X3.9961Y-3.9862
X4.1437Y-3.9862
X4.2913Y-3.9862
X4.6949Y-4.1732
X4.7835Y-4.1732
X4.872Y-4.1732
X4.9621Y-4.1732
X5.0521Y-4.1732
X5.1421Y-4.1727
X5.1772Y-3.4646
X5.5118Y-2.9232
X5.5315Y-3.0906
X5.5315Y-3.1988
X5.9055Y-3.5138
X6.5945Y-3.5827
X7.6378Y-2.2244
X7.9626Y-1.7207
T5
X2.0992Y-1.1937
X2.0992Y-4.6063
X2.1269Y-1.1269
X2.1269Y-1.2605
X2.1269Y-4.5395
X2.1269Y-4.6731
X2.1937Y-1.0992
X2.1937Y-1.2882
X2.1937Y-4.5118
X2.1937Y-4.7008
X2.2605Y-1.1269
X2.2605Y-1.2605
X2.2605Y-4.5395
X2.2605Y-4.6731
X2.2882Y-1.1937
X2.2882Y-4.6063
X8.0118Y-1.1937
X8.0118Y-4.6063
X8.0395Y-1.1269
X8.0395Y-1.2605
X8.0395Y-4.5395
X8.0395Y-4.6731
X8.1063Y-1.0992
X8.1063Y-1.2882
X8.1063Y-4.5118
X8.1063Y-4.7008
X8.1731Y-1.1269
X8.1731Y-1.2605
X8.1731Y-4.5395
X8.1731Y-4.6731
X8.2008Y-1.1937
X8.2008Y-4.6063
T6
X2.8Y-3.75
X2.8Y-4.15
X2.8Y-4.5642
X2.8984Y-3.75
X2.8984Y-4.15
X2.8984Y-4.5642
X2.9969Y-3.75
X2.9969Y-4.15
X2.9969Y-4.5642
X3.0953Y-3.75
X3.0953Y-4.15
X3.0953Y-4.5642
X3.1937Y-3.75
X3.1937Y-4.15
X3.1937Y-4.5642
X3.2921Y-3.75
X3.2921Y-4.15
X3.2921Y-4.5642
X3.3906Y-3.75
X3.3906Y-4.15
X3.3906Y-4.5642
X3.489Y-3.75
X3.489Y-4.15
X3.489Y-4.5642
X3.7402Y-4.1535
X3.8386Y-4.1535
X3.9Y-4.576
X3.937Y-4.1535
X3.9984Y-4.576
X4.0354Y-4.1535
X4.0969Y-4.576
X4.1339Y-4.1535
X4.1953Y-4.576
X4.2323Y-4.1535
X4.3307Y-4.1535
X4.4291Y-4.1535
X4.58Y-4.58
X4.6784Y-4.58
X4.7769Y-4.58
X4.8753Y-4.58
X4.9737Y-4.58
X5.0721Y-4.58
X5.1706Y-4.58
X5.72Y-4.58
X5.8184Y-4.58
X5.9169Y-4.58
X6.0153Y-4.58
X6.1137Y-4.58
X6.2121Y-4.58
X6.3106Y-4.58
X6.409Y-4.58
X7.456Y-4.588
X7.5544Y-4.588
X7.6529Y-4.588
T7
X2.5984Y-2.4311
X2.6673Y-2.7854
X2.6673Y-2.9528
X2.7854Y-2.7854
X2.9232Y-1.9193
X4.5768Y-1.9193
X4.9837Y-1.9152
T8
X4.4882Y-1.0236
X4.5866Y-1.0236
X5.2953Y-1.0226
X5.3937Y-1.0226
X5.9941Y-2.4213
X6.0941Y-2.4213
X6.1941Y-2.4213
X6.2941Y-2.4213
X6.6634Y-4.5768
X6.7618Y-4.5768
X6.91Y-3.71
X6.91Y-3.81
X6.91Y-3.91
X6.91Y-4.01
X6.91Y-4.11
X6.9457Y-1.0235
X6.9457Y-1.1235
X6.9539Y-1.6731
X6.9539Y-1.7731
X7.01Y-3.71
X7.01Y-3.81
X7.01Y-3.91
X7.01Y-4.01
X7.01Y-4.11
X7.03Y-4.58
X7.0457Y-1.0235
X7.0457Y-1.1235
X7.0539Y-1.6731
X7.0539Y-1.7731
X7.1284Y-4.58
X7.1457Y-1.0235
X7.1457Y-1.1235
X7.1539Y-1.6731
X7.1539Y-1.7731
X7.2457Y-1.0235
X7.2457Y-1.1235
X7.2539Y-1.6731
X7.2539Y-1.7731
X7.3457Y-1.0235
X7.3457Y-1.1235
X7.3539Y-1.6731
X7.3539Y-1.7731
T9
X2.1696Y-2.4023
X2.1696Y-2.5401
X2.1696Y-2.6779
X2.1696Y-2.8156
X2.1696Y-2.9534
X2.1696Y-3.0912
T10
X2.1937Y-1.1937
X2.1937Y-4.6063
X8.1063Y-1.1937
X8.1063Y-4.6063
T0
M30
