%TF.GenerationSoftware,KiCad,Pcbnew,6.0.5-a6ca702e91~116~ubuntu20.04.1*%
%TF.CreationDate,2022-06-04T17:59:46+02:00*%
%TF.ProjectId,anna_elsa_esp32_cpu,616e6e61-5f65-46c7-9361-5f6573703332,rev?*%
%TF.SameCoordinates,Original*%
%TF.FileFunction,Soldermask,Top*%
%TF.FilePolarity,Negative*%
%FSLAX46Y46*%
G04 Gerber Fmt 4.6, Leading zero omitted, Abs format (unit mm)*
G04 Created by KiCad (PCBNEW 6.0.5-a6ca702e91~116~ubuntu20.04.1) date 2022-06-04 17:59:46*
%MOMM*%
%LPD*%
G01*
G04 APERTURE LIST*
G04 Aperture macros list*
%AMRoundRect*
0 Rectangle with rounded corners*
0 $1 Rounding radius*
0 $2 $3 $4 $5 $6 $7 $8 $9 X,Y pos of 4 corners*
0 Add a 4 corners polygon primitive as box body*
4,1,4,$2,$3,$4,$5,$6,$7,$8,$9,$2,$3,0*
0 Add four circle primitives for the rounded corners*
1,1,$1+$1,$2,$3*
1,1,$1+$1,$4,$5*
1,1,$1+$1,$6,$7*
1,1,$1+$1,$8,$9*
0 Add four rect primitives between the rounded corners*
20,1,$1+$1,$2,$3,$4,$5,0*
20,1,$1+$1,$4,$5,$6,$7,0*
20,1,$1+$1,$6,$7,$8,$9,0*
20,1,$1+$1,$8,$9,$2,$3,0*%
%AMFreePoly0*
4,1,22,0.500000,-0.750000,0.000000,-0.750000,0.000000,-0.745033,-0.079941,-0.743568,-0.215256,-0.701293,-0.333266,-0.622738,-0.424486,-0.514219,-0.481581,-0.384460,-0.499164,-0.250000,-0.500000,-0.250000,-0.500000,0.250000,-0.499164,0.250000,-0.499963,0.256109,-0.478152,0.396186,-0.417904,0.524511,-0.324060,0.630769,-0.204165,0.706417,-0.067858,0.745374,0.000000,0.744959,0.000000,0.750000,
0.500000,0.750000,0.500000,-0.750000,0.500000,-0.750000,$1*%
%AMFreePoly1*
4,1,20,0.000000,0.744959,0.073905,0.744508,0.209726,0.703889,0.328688,0.626782,0.421226,0.519385,0.479903,0.390333,0.500000,0.250000,0.500000,-0.250000,0.499851,-0.262216,0.476331,-0.402017,0.414519,-0.529596,0.319384,-0.634700,0.198574,-0.708877,0.061801,-0.746166,0.000000,-0.745033,0.000000,-0.750000,-0.500000,-0.750000,-0.500000,0.750000,0.000000,0.750000,0.000000,0.744959,
0.000000,0.744959,$1*%
G04 Aperture macros list end*
%ADD10R,3.600000X2.700000*%
%ADD11RoundRect,0.250000X0.250000X0.475000X-0.250000X0.475000X-0.250000X-0.475000X0.250000X-0.475000X0*%
%ADD12RoundRect,0.250000X-0.250000X-0.475000X0.250000X-0.475000X0.250000X0.475000X-0.250000X0.475000X0*%
%ADD13RoundRect,0.200000X0.275000X-0.200000X0.275000X0.200000X-0.275000X0.200000X-0.275000X-0.200000X0*%
%ADD14RoundRect,0.150000X-0.150000X0.512500X-0.150000X-0.512500X0.150000X-0.512500X0.150000X0.512500X0*%
%ADD15RoundRect,0.150000X0.512500X0.150000X-0.512500X0.150000X-0.512500X-0.150000X0.512500X-0.150000X0*%
%ADD16RoundRect,0.150000X0.150000X-0.512500X0.150000X0.512500X-0.150000X0.512500X-0.150000X-0.512500X0*%
%ADD17RoundRect,0.200000X0.200000X0.275000X-0.200000X0.275000X-0.200000X-0.275000X0.200000X-0.275000X0*%
%ADD18RoundRect,0.243750X0.243750X0.456250X-0.243750X0.456250X-0.243750X-0.456250X0.243750X-0.456250X0*%
%ADD19RoundRect,0.250000X0.450000X-0.262500X0.450000X0.262500X-0.450000X0.262500X-0.450000X-0.262500X0*%
%ADD20R,2.540000X3.510000*%
%ADD21RoundRect,0.062500X-0.375000X-0.062500X0.375000X-0.062500X0.375000X0.062500X-0.375000X0.062500X0*%
%ADD22RoundRect,0.062500X-0.062500X-0.375000X0.062500X-0.375000X0.062500X0.375000X-0.062500X0.375000X0*%
%ADD23R,3.100000X3.100000*%
%ADD24RoundRect,0.250000X-0.600000X-0.725000X0.600000X-0.725000X0.600000X0.725000X-0.600000X0.725000X0*%
%ADD25O,1.700000X1.950000*%
%ADD26R,1.600000X1.400000*%
%ADD27C,0.800000*%
%ADD28C,6.400000*%
%ADD29RoundRect,0.250000X-0.600000X-0.750000X0.600000X-0.750000X0.600000X0.750000X-0.600000X0.750000X0*%
%ADD30O,1.700000X2.000000*%
%ADD31RoundRect,0.100000X0.130000X0.100000X-0.130000X0.100000X-0.130000X-0.100000X0.130000X-0.100000X0*%
%ADD32RoundRect,0.100000X-0.130000X-0.100000X0.130000X-0.100000X0.130000X0.100000X-0.130000X0.100000X0*%
%ADD33RoundRect,0.100000X0.100000X-0.130000X0.100000X0.130000X-0.100000X0.130000X-0.100000X-0.130000X0*%
%ADD34R,0.900000X2.000000*%
%ADD35R,2.000000X0.900000*%
%ADD36R,5.000000X5.000000*%
%ADD37RoundRect,0.150000X-0.875000X-0.150000X0.875000X-0.150000X0.875000X0.150000X-0.875000X0.150000X0*%
%ADD38RoundRect,0.150000X0.875000X0.150000X-0.875000X0.150000X-0.875000X-0.150000X0.875000X-0.150000X0*%
%ADD39RoundRect,0.250000X-0.262500X-0.450000X0.262500X-0.450000X0.262500X0.450000X-0.262500X0.450000X0*%
%ADD40RoundRect,0.250000X0.262500X0.450000X-0.262500X0.450000X-0.262500X-0.450000X0.262500X-0.450000X0*%
%ADD41RoundRect,0.250000X0.600000X0.600000X-0.600000X0.600000X-0.600000X-0.600000X0.600000X-0.600000X0*%
%ADD42C,1.700000*%
%ADD43RoundRect,0.225000X0.225000X0.250000X-0.225000X0.250000X-0.225000X-0.250000X0.225000X-0.250000X0*%
%ADD44RoundRect,0.250000X-0.450000X0.262500X-0.450000X-0.262500X0.450000X-0.262500X0.450000X0.262500X0*%
%ADD45FreePoly0,180.000000*%
%ADD46FreePoly1,180.000000*%
%ADD47RoundRect,0.250000X-0.475000X0.250000X-0.475000X-0.250000X0.475000X-0.250000X0.475000X0.250000X0*%
%ADD48RoundRect,0.250000X-0.650000X0.325000X-0.650000X-0.325000X0.650000X-0.325000X0.650000X0.325000X0*%
%ADD49RoundRect,0.200000X-0.200000X-0.275000X0.200000X-0.275000X0.200000X0.275000X-0.200000X0.275000X0*%
%ADD50RoundRect,0.150000X-0.587500X-0.150000X0.587500X-0.150000X0.587500X0.150000X-0.587500X0.150000X0*%
%ADD51RoundRect,0.150000X0.587500X0.150000X-0.587500X0.150000X-0.587500X-0.150000X0.587500X-0.150000X0*%
%ADD52RoundRect,0.250000X-0.600000X0.600000X-0.600000X-0.600000X0.600000X-0.600000X0.600000X0.600000X0*%
%ADD53RoundRect,0.250000X-0.712500X-2.475000X0.712500X-2.475000X0.712500X2.475000X-0.712500X2.475000X0*%
%ADD54RoundRect,0.750000X-1.750000X-0.750000X1.750000X-0.750000X1.750000X0.750000X-1.750000X0.750000X0*%
%ADD55RoundRect,0.150000X0.150000X-0.587500X0.150000X0.587500X-0.150000X0.587500X-0.150000X-0.587500X0*%
%ADD56RoundRect,0.150000X-0.150000X0.587500X-0.150000X-0.587500X0.150000X-0.587500X0.150000X0.587500X0*%
%ADD57RoundRect,0.243750X-0.243750X-0.456250X0.243750X-0.456250X0.243750X0.456250X-0.243750X0.456250X0*%
%ADD58RoundRect,0.200000X-0.275000X0.200000X-0.275000X-0.200000X0.275000X-0.200000X0.275000X0.200000X0*%
%ADD59C,3.000000*%
%ADD60R,2.100000X2.100000*%
%ADD61C,2.100000*%
G04 APERTURE END LIST*
D10*
%TO.C,L4*%
X158250000Y-35150000D03*
X158250000Y-26850000D03*
%TD*%
%TO.C,L3*%
X158250000Y-47900000D03*
X158250000Y-39600000D03*
%TD*%
%TO.C,L2*%
X117750000Y-35150000D03*
X117750000Y-26850000D03*
%TD*%
%TO.C,L1*%
X117750000Y-47900000D03*
X117750000Y-39600000D03*
%TD*%
D11*
%TO.C,C18*%
X131450000Y-42500000D03*
X129550000Y-42500000D03*
%TD*%
D12*
%TO.C,C17*%
X145550000Y-42500000D03*
X147450000Y-42500000D03*
%TD*%
%TO.C,C14*%
X145550000Y-44750000D03*
X147450000Y-44750000D03*
%TD*%
D13*
%TO.C,R39*%
X143750000Y-57075000D03*
X143750000Y-55425000D03*
%TD*%
%TO.C,R37*%
X141250000Y-57075000D03*
X141250000Y-55425000D03*
%TD*%
%TO.C,R35*%
X138500000Y-57075000D03*
X138500000Y-55425000D03*
%TD*%
%TO.C,R29*%
X136750000Y-57075000D03*
X136750000Y-55425000D03*
%TD*%
D11*
%TO.C,C11*%
X131500000Y-44750000D03*
X129600000Y-44750000D03*
%TD*%
D14*
%TO.C,U11*%
X97700000Y-97612500D03*
X96750000Y-97612500D03*
X95800000Y-97612500D03*
X95800000Y-99887500D03*
X97700000Y-99887500D03*
%TD*%
%TO.C,U10*%
X105200000Y-97612500D03*
X104250000Y-97612500D03*
X103300000Y-97612500D03*
X103300000Y-99887500D03*
X105200000Y-99887500D03*
%TD*%
D15*
%TO.C,U9*%
X89137500Y-122950000D03*
X89137500Y-122000000D03*
X89137500Y-121050000D03*
X86862500Y-121050000D03*
X86862500Y-122950000D03*
%TD*%
D14*
%TO.C,U7*%
X101450000Y-97612500D03*
X100500000Y-97612500D03*
X99550000Y-97612500D03*
X99550000Y-99887500D03*
X101450000Y-99887500D03*
%TD*%
%TO.C,U6*%
X108950000Y-97612500D03*
X108000000Y-97612500D03*
X107050000Y-97612500D03*
X107050000Y-99887500D03*
X108950000Y-99887500D03*
%TD*%
D16*
%TO.C,U5*%
X167800000Y-78637500D03*
X168750000Y-78637500D03*
X169700000Y-78637500D03*
X169700000Y-76362500D03*
X167800000Y-76362500D03*
%TD*%
D14*
%TO.C,U2*%
X158450000Y-74112500D03*
X157500000Y-74112500D03*
X156550000Y-74112500D03*
X156550000Y-76387500D03*
X158450000Y-76387500D03*
%TD*%
D17*
%TO.C,R1*%
X131825000Y-49750000D03*
X130175000Y-49750000D03*
%TD*%
D18*
%TO.C,D1*%
X211359000Y-44600000D03*
X209484000Y-44600000D03*
%TD*%
%TO.C,D2*%
X211280500Y-38250000D03*
X209405500Y-38250000D03*
%TD*%
D19*
%TO.C,R16*%
X133096000Y-109624500D03*
X133096000Y-107799500D03*
%TD*%
D20*
%TO.C,BT1*%
X80320000Y-68500000D03*
X109680000Y-68500000D03*
%TD*%
D21*
%TO.C,U3*%
X136119500Y-43970000D03*
X136119500Y-44470000D03*
X136119500Y-44970000D03*
X136119500Y-45470000D03*
X136119500Y-45970000D03*
X136119500Y-46470000D03*
X136119500Y-46970000D03*
X136119500Y-47470000D03*
D22*
X136807000Y-48157500D03*
X137307000Y-48157500D03*
X137807000Y-48157500D03*
X138307000Y-48157500D03*
X138807000Y-48157500D03*
X139307000Y-48157500D03*
X139807000Y-48157500D03*
X140307000Y-48157500D03*
D21*
X140994500Y-47470000D03*
X140994500Y-46970000D03*
X140994500Y-46470000D03*
X140994500Y-45970000D03*
X140994500Y-45470000D03*
X140994500Y-44970000D03*
X140994500Y-44470000D03*
X140994500Y-43970000D03*
D22*
X140307000Y-43282500D03*
X139807000Y-43282500D03*
X139307000Y-43282500D03*
X138807000Y-43282500D03*
X138307000Y-43282500D03*
X137807000Y-43282500D03*
X137307000Y-43282500D03*
X136807000Y-43282500D03*
D23*
X138557000Y-45720000D03*
%TD*%
D24*
%TO.C,J5*%
X189382400Y-116535200D03*
D25*
X191882400Y-116535200D03*
X194382400Y-116535200D03*
%TD*%
D24*
%TO.C,J22*%
X116332000Y-116332000D03*
D25*
X118832000Y-116332000D03*
X121332000Y-116332000D03*
X123832000Y-116332000D03*
X126332000Y-116332000D03*
X128832000Y-116332000D03*
X131332000Y-116332000D03*
X133832000Y-116332000D03*
%TD*%
D26*
%TO.C,SW1*%
X204250000Y-50000000D03*
X212250000Y-50000000D03*
X204250000Y-54500000D03*
X212250000Y-54500000D03*
%TD*%
D27*
%TO.C,H2*%
X58120000Y-117000000D03*
D28*
X55720000Y-117000000D03*
D27*
X53320000Y-117000000D03*
X54022944Y-118697056D03*
X55720000Y-119400000D03*
X57417056Y-118697056D03*
X55720000Y-114600000D03*
X57417056Y-115302944D03*
X54022944Y-115302944D03*
%TD*%
%TO.C,H3*%
X205900000Y-27920000D03*
X208300000Y-30320000D03*
X204202944Y-28622944D03*
X203500000Y-30320000D03*
X207597056Y-28622944D03*
X205900000Y-32720000D03*
X207597056Y-32017056D03*
D28*
X205900000Y-30320000D03*
D27*
X204202944Y-32017056D03*
%TD*%
D29*
%TO.C,J9*%
X130429000Y-27305000D03*
D30*
X132929000Y-27305000D03*
%TD*%
D29*
%TO.C,J11*%
X139879000Y-27305000D03*
D30*
X142379000Y-27305000D03*
%TD*%
D31*
%TO.C,C2*%
X143070000Y-47500000D03*
X142430000Y-47500000D03*
%TD*%
%TO.C,C3*%
X143070000Y-46500000D03*
X142430000Y-46500000D03*
%TD*%
D32*
%TO.C,C5*%
X134173000Y-46990000D03*
X134813000Y-46990000D03*
%TD*%
D31*
%TO.C,C6*%
X143070000Y-48750000D03*
X142430000Y-48750000D03*
%TD*%
D33*
%TO.C,C7*%
X134747000Y-43876000D03*
X134747000Y-44516000D03*
%TD*%
D31*
%TO.C,C8*%
X138115000Y-42037000D03*
X137475000Y-42037000D03*
%TD*%
D33*
%TO.C,C9*%
X142748000Y-43754000D03*
X142748000Y-43114000D03*
%TD*%
%TO.C,C12*%
X128651000Y-36642000D03*
X128651000Y-36002000D03*
%TD*%
%TO.C,C13*%
X137668000Y-36642000D03*
X137668000Y-36002000D03*
%TD*%
%TO.C,C15*%
X135636000Y-36642000D03*
X135636000Y-36002000D03*
%TD*%
%TO.C,C16*%
X145415000Y-36642000D03*
X145415000Y-36002000D03*
%TD*%
D32*
%TO.C,C10*%
X138999000Y-42037000D03*
X139639000Y-42037000D03*
%TD*%
D34*
%TO.C,U1*%
X202819000Y-66176000D03*
X201549000Y-66176000D03*
X200279000Y-66176000D03*
X199009000Y-66176000D03*
X197739000Y-66176000D03*
X196469000Y-66176000D03*
X195199000Y-66176000D03*
X193929000Y-66176000D03*
X192659000Y-66176000D03*
X191389000Y-66176000D03*
X190119000Y-66176000D03*
X188849000Y-66176000D03*
X187579000Y-66176000D03*
X186309000Y-66176000D03*
D35*
X185309000Y-68961000D03*
X185309000Y-70231000D03*
X185309000Y-71501000D03*
X185309000Y-72771000D03*
X185309000Y-74041000D03*
X185309000Y-75311000D03*
X185309000Y-76581000D03*
X185309000Y-77851000D03*
X185309000Y-79121000D03*
X185309000Y-80391000D03*
D34*
X186309000Y-83176000D03*
X187579000Y-83176000D03*
X188849000Y-83176000D03*
X190119000Y-83176000D03*
X191389000Y-83176000D03*
X192659000Y-83176000D03*
X193929000Y-83176000D03*
X195199000Y-83176000D03*
X196469000Y-83176000D03*
X197739000Y-83176000D03*
X199009000Y-83176000D03*
X200279000Y-83176000D03*
X201549000Y-83176000D03*
X202819000Y-83176000D03*
D36*
X195319000Y-73676000D03*
%TD*%
D19*
%TO.C,R15*%
X185000000Y-109662500D03*
X185000000Y-107837500D03*
%TD*%
D24*
%TO.C,J10*%
X99060000Y-116230400D03*
D25*
X101560000Y-116230400D03*
X104060000Y-116230400D03*
X106560000Y-116230400D03*
%TD*%
D27*
%TO.C,H1*%
X57417056Y-28622944D03*
X54022944Y-28622944D03*
X53320000Y-30320000D03*
X55720000Y-32720000D03*
X57417056Y-32017056D03*
X55720000Y-27920000D03*
D28*
X55720000Y-30320000D03*
D27*
X58120000Y-30320000D03*
X54022944Y-32017056D03*
%TD*%
D28*
%TO.C,H4*%
X205900000Y-117000000D03*
D27*
X205900000Y-119400000D03*
X208300000Y-117000000D03*
X204202944Y-115302944D03*
X207597056Y-118697056D03*
X207597056Y-115302944D03*
X204202944Y-118697056D03*
X205900000Y-114600000D03*
X203500000Y-117000000D03*
%TD*%
D29*
%TO.C,J14*%
X178562000Y-116332000D03*
D30*
X181062000Y-116332000D03*
%TD*%
D24*
%TO.C,J23*%
X145288000Y-116332000D03*
D25*
X147788000Y-116332000D03*
X150288000Y-116332000D03*
X152788000Y-116332000D03*
X155288000Y-116332000D03*
X157788000Y-116332000D03*
X160288000Y-116332000D03*
X162788000Y-116332000D03*
%TD*%
D19*
%TO.C,R13*%
X128524000Y-109624500D03*
X128524000Y-107799500D03*
%TD*%
%TO.C,R14*%
X130810000Y-109624500D03*
X130810000Y-107799500D03*
%TD*%
%TO.C,R24*%
X162814000Y-109624500D03*
X162814000Y-107799500D03*
%TD*%
%TO.C,R22*%
X157734000Y-109624500D03*
X157734000Y-107799500D03*
%TD*%
D37*
%TO.C,Q3*%
X155116000Y-92202000D03*
X155116000Y-93472000D03*
X155116000Y-94742000D03*
X155116000Y-96012000D03*
X155116000Y-97282000D03*
X155116000Y-98552000D03*
X155116000Y-99822000D03*
X155116000Y-101092000D03*
X155116000Y-102362000D03*
X164416000Y-102362000D03*
X164416000Y-101092000D03*
X164416000Y-99822000D03*
X164416000Y-98552000D03*
X164416000Y-97282000D03*
X164416000Y-96012000D03*
X164416000Y-94742000D03*
X164416000Y-93472000D03*
X164416000Y-92202000D03*
%TD*%
D19*
%TO.C,R21*%
X155321000Y-109624500D03*
X155321000Y-107799500D03*
%TD*%
%TO.C,R9*%
X119380000Y-109624500D03*
X119380000Y-107799500D03*
%TD*%
%TO.C,R20*%
X152781000Y-109624500D03*
X152781000Y-107799500D03*
%TD*%
%TO.C,R11*%
X123952000Y-109624500D03*
X123952000Y-107799500D03*
%TD*%
%TO.C,R19*%
X150241000Y-109624500D03*
X150241000Y-107799500D03*
%TD*%
%TO.C,R12*%
X126238000Y-109624500D03*
X126238000Y-107799500D03*
%TD*%
%TO.C,R23*%
X160274000Y-109624500D03*
X160274000Y-107799500D03*
%TD*%
D38*
%TO.C,U8*%
X146382000Y-108077000D03*
X146382000Y-106807000D03*
X146382000Y-105537000D03*
X146382000Y-104267000D03*
X146382000Y-102997000D03*
X146382000Y-101727000D03*
X146382000Y-100457000D03*
X146382000Y-99187000D03*
X146382000Y-97917000D03*
X146382000Y-96647000D03*
X146382000Y-95377000D03*
X146382000Y-94107000D03*
X146382000Y-92837000D03*
X146382000Y-91567000D03*
X137082000Y-91567000D03*
X137082000Y-92837000D03*
X137082000Y-94107000D03*
X137082000Y-95377000D03*
X137082000Y-96647000D03*
X137082000Y-97917000D03*
X137082000Y-99187000D03*
X137082000Y-100457000D03*
X137082000Y-101727000D03*
X137082000Y-102997000D03*
X137082000Y-104267000D03*
X137082000Y-105537000D03*
X137082000Y-106807000D03*
X137082000Y-108077000D03*
%TD*%
D19*
%TO.C,R10*%
X121666000Y-109624500D03*
X121666000Y-107799500D03*
%TD*%
D38*
%TO.C,U4*%
X129110000Y-86741000D03*
X129110000Y-85471000D03*
X129110000Y-84201000D03*
X129110000Y-82931000D03*
X129110000Y-81661000D03*
X129110000Y-80391000D03*
X129110000Y-79121000D03*
X129110000Y-77851000D03*
X119810000Y-77851000D03*
X119810000Y-79121000D03*
X119810000Y-80391000D03*
X119810000Y-81661000D03*
X119810000Y-82931000D03*
X119810000Y-84201000D03*
X119810000Y-85471000D03*
X119810000Y-86741000D03*
%TD*%
D39*
%TO.C,R30*%
X204175000Y-44600000D03*
X206000000Y-44600000D03*
%TD*%
%TO.C,R31*%
X204175000Y-38250000D03*
X206000000Y-38250000D03*
%TD*%
D24*
%TO.C,J1*%
X71120000Y-95250000D03*
D25*
X73620000Y-95250000D03*
X76120000Y-95250000D03*
X78620000Y-95250000D03*
X81120000Y-95250000D03*
X83620000Y-95250000D03*
X86120000Y-95250000D03*
X88620000Y-95250000D03*
%TD*%
D24*
%TO.C,J2*%
X71120000Y-105410000D03*
D25*
X73620000Y-105410000D03*
X76120000Y-105410000D03*
X78620000Y-105410000D03*
X81120000Y-105410000D03*
X83620000Y-105410000D03*
X86120000Y-105410000D03*
X88620000Y-105410000D03*
%TD*%
D24*
%TO.C,J3*%
X71120000Y-115930000D03*
D25*
X73620000Y-115930000D03*
X76120000Y-115930000D03*
X78620000Y-115930000D03*
X81120000Y-115930000D03*
X83620000Y-115930000D03*
X86120000Y-115930000D03*
X88620000Y-115930000D03*
%TD*%
D40*
%TO.C,R2*%
X125742500Y-90170000D03*
X123917500Y-90170000D03*
%TD*%
%TO.C,R18*%
X125742500Y-92710000D03*
X123917500Y-92710000D03*
%TD*%
%TO.C,R27*%
X125742500Y-95250000D03*
X123917500Y-95250000D03*
%TD*%
D41*
%TO.C,J12*%
X178054000Y-104394000D03*
D42*
X175514000Y-104394000D03*
X178054000Y-101854000D03*
X175514000Y-101854000D03*
X178054000Y-99314000D03*
X175514000Y-99314000D03*
X178054000Y-96774000D03*
X175514000Y-96774000D03*
X178054000Y-94234000D03*
X175514000Y-94234000D03*
%TD*%
D31*
%TO.C,C4*%
X133416000Y-46228000D03*
X132776000Y-46228000D03*
%TD*%
D43*
%TO.C,C1*%
X135141000Y-49784000D03*
X133591000Y-49784000D03*
%TD*%
D44*
%TO.C,R17*%
X79250000Y-85337500D03*
X79250000Y-87162500D03*
%TD*%
D45*
%TO.C,JP1*%
X130400000Y-95750000D03*
D46*
X129100000Y-95750000D03*
%TD*%
D45*
%TO.C,JP2*%
X130400000Y-93000000D03*
D46*
X129100000Y-93000000D03*
%TD*%
D45*
%TO.C,JP3*%
X130400000Y-90250000D03*
D46*
X129100000Y-90250000D03*
%TD*%
D17*
%TO.C,R25*%
X201825000Y-60750000D03*
X200175000Y-60750000D03*
%TD*%
D12*
%TO.C,C21*%
X201550000Y-58750000D03*
X203450000Y-58750000D03*
%TD*%
D24*
%TO.C,J4*%
X95000000Y-105500000D03*
D25*
X97500000Y-105500000D03*
X100000000Y-105500000D03*
X102500000Y-105500000D03*
X105000000Y-105500000D03*
X107500000Y-105500000D03*
X110000000Y-105500000D03*
X112500000Y-105500000D03*
%TD*%
D47*
%TO.C,C23*%
X194750000Y-58300000D03*
X194750000Y-60200000D03*
%TD*%
D48*
%TO.C,C22*%
X197250000Y-59775000D03*
X197250000Y-62725000D03*
%TD*%
D49*
%TO.C,R36*%
X195425000Y-93500000D03*
X197075000Y-93500000D03*
%TD*%
D50*
%TO.C,Q1*%
X165312500Y-59800000D03*
X165312500Y-61700000D03*
X167187500Y-60750000D03*
%TD*%
D51*
%TO.C,D3*%
X158187500Y-71450000D03*
X158187500Y-69550000D03*
X156312500Y-70500000D03*
%TD*%
D52*
%TO.C,J7*%
X186790000Y-42497500D03*
D42*
X186790000Y-45037500D03*
X184250000Y-42497500D03*
X184250000Y-45037500D03*
X181710000Y-42497500D03*
X181710000Y-45037500D03*
X179170000Y-42497500D03*
X179170000Y-45037500D03*
X176630000Y-42497500D03*
X176630000Y-45037500D03*
%TD*%
D53*
%TO.C,F1*%
X62362500Y-80500000D03*
X69137500Y-80500000D03*
%TD*%
D54*
%TO.C,U12*%
X64350000Y-30390000D03*
X64340000Y-39320000D03*
X96230000Y-39360000D03*
X96220000Y-30400000D03*
%TD*%
D44*
%TO.C,R7*%
X174250000Y-62337500D03*
X174250000Y-64162500D03*
%TD*%
D55*
%TO.C,Q2*%
X170550000Y-62500000D03*
X172450000Y-62500000D03*
X171500000Y-60625000D03*
%TD*%
D26*
%TO.C,SW2*%
X212250000Y-104500000D03*
X204250000Y-104500000D03*
X212250000Y-109000000D03*
X204250000Y-109000000D03*
%TD*%
D17*
%TO.C,R32*%
X197325000Y-90250000D03*
X195675000Y-90250000D03*
%TD*%
D56*
%TO.C,Q7*%
X203450000Y-92312500D03*
X201550000Y-92312500D03*
X202500000Y-94187500D03*
%TD*%
D57*
%TO.C,F2*%
X62562500Y-54750000D03*
X64437500Y-54750000D03*
%TD*%
%TO.C,F3*%
X62562500Y-68000000D03*
X64437500Y-68000000D03*
%TD*%
D17*
%TO.C,R41*%
X205575000Y-99000000D03*
X203925000Y-99000000D03*
%TD*%
D40*
%TO.C,R5*%
X164162500Y-73750000D03*
X162337500Y-73750000D03*
%TD*%
D13*
%TO.C,R3*%
X165000000Y-71325000D03*
X165000000Y-69675000D03*
%TD*%
D56*
%TO.C,Q4*%
X197450000Y-86312500D03*
X195550000Y-86312500D03*
X196500000Y-88187500D03*
%TD*%
D58*
%TO.C,R33*%
X179250000Y-84425000D03*
X179250000Y-86075000D03*
%TD*%
%TO.C,R26*%
X176500000Y-84425000D03*
X176500000Y-86075000D03*
%TD*%
%TO.C,R34*%
X182000000Y-84425000D03*
X182000000Y-86075000D03*
%TD*%
D19*
%TO.C,R4*%
X163000000Y-61662500D03*
X163000000Y-59837500D03*
%TD*%
D17*
%TO.C,R38*%
X203325000Y-96250000D03*
X201675000Y-96250000D03*
%TD*%
D52*
%TO.C,J8*%
X186580000Y-25997500D03*
D42*
X186580000Y-28537500D03*
X184040000Y-25997500D03*
X184040000Y-28537500D03*
X181500000Y-25997500D03*
X181500000Y-28537500D03*
X178960000Y-25997500D03*
X178960000Y-28537500D03*
X176420000Y-25997500D03*
X176420000Y-28537500D03*
%TD*%
D19*
%TO.C,R8*%
X170750000Y-68075000D03*
X170750000Y-66250000D03*
%TD*%
D59*
%TO.C,J6*%
X57540000Y-101550000D03*
D60*
X52500000Y-96850000D03*
D61*
X58000000Y-96850000D03*
X52500000Y-92650000D03*
X58000000Y-92650000D03*
X52500000Y-88450000D03*
X58000000Y-88450000D03*
X52500000Y-84250000D03*
X58000000Y-84250000D03*
X52500000Y-80050000D03*
X58000000Y-80050000D03*
X52500000Y-75850000D03*
X58000000Y-75850000D03*
X52500000Y-71650000D03*
X58000000Y-71650000D03*
X52500000Y-67450000D03*
X58000000Y-67450000D03*
X52500000Y-63250000D03*
X58000000Y-63250000D03*
X52500000Y-59050000D03*
X58000000Y-59050000D03*
X52500000Y-54850000D03*
X58000000Y-54850000D03*
X52500000Y-50650000D03*
X58000000Y-50650000D03*
%TD*%
D58*
%TO.C,R28*%
X173750000Y-84425000D03*
X173750000Y-86075000D03*
%TD*%
D19*
%TO.C,R6*%
X163000000Y-67912500D03*
X163000000Y-66087500D03*
%TD*%
M02*
